<?xml version="1.0" encoding="UTF-8"?>
<svg xmlns="http://www.w3.org/2000/svg" xmlns:xlink="http://www.w3.org/1999/xlink" width="750pt" height="1334pt" viewBox="0 0 750 1334" version="1.1">
<g id="surface1">
<path style=" stroke:none;fill-rule:nonzero;fill:rgb(25.097656%,51.756287%,58.789063%);fill-opacity:1;" d="M 634.070313 584.632813 C 632.246094 575.5625 623.351563 568.621094 614.316406 573.078125 C 609.472656 575.472656 605.34375 579.75 601.214844 583.15625 L 586.742188 595.085938 C 577.09375 603.035156 567.449219 610.988281 557.800781 618.941406 C 549.183594 626.046875 540.734375 633.503906 531.496094 639.808594 C 522.605469 645.875 512.742188 650.695313 501.855469 651.445313 C 490.058594 652.257813 478.351563 649.273438 467.070313 646.175781 C 444.582031 640.003906 422.855469 631.441406 401.15625 622.988281 C 360.128906 607.003906 317.773438 591.285156 273.023438 592.742188 C 252.292969 593.421875 231.617188 597.972656 213.230469 607.765625 C 195.679688 617.117188 180.921875 630.738281 163.910156 640.933594 C 163.421875 641.230469 162.929688 641.515625 162.4375 641.804688 C 157.09375 643.902344 151.890625 646.351563 146.886719 649.15625 C 143.914063 650.230469 140.875 651.128906 137.757813 651.816406 C 135.828125 652.242188 135.53125 654.164063 136.289063 655.515625 C 135.09375 655.960938 133.898438 656.40625 132.703125 656.855469 L 115.257813 663.375 C 110.019531 665.332031 104.546875 667.011719 99.523438 669.476563 C 95.183594 671.601563 91.894531 675 90.644531 679.738281 C 89.429688 684.34375 89.832031 689.386719 90.800781 693.996094 C 92.78125 703.398438 98.222656 711.921875 104.984375 718.621094 C 120.480469 733.988281 143.042969 740.101563 163.179688 746.796875 C 185.792969 754.316406 208.609375 761.246094 231.6875 767.203125 C 277.382813 778.992188 324.277344 786.980469 371.539063 787.867188 C 417.589844 788.726563 464.128906 782.898438 507.757813 767.789063 C 513.222656 765.894531 518.578125 763.648438 524.101563 761.925781 C 529.878906 760.125 535.585938 759.601563 541.578125 760.480469 C 549.011719 761.570313 556.082031 763.378906 563.355469 763.753906 C 564.375 763.964844 565.394531 764.175781 566.414063 764.367188 C 571.421875 765.3125 576.605469 765.675781 581.574219 764.300781 C 585.640625 763.175781 589.277344 760.949219 592.496094 758.269531 C 594.855469 756.308594 597.050781 754.085938 599.109375 751.703125 C 600.960938 749.871094 602.65625 747.886719 604.148438 745.808594 C 606.039063 743.175781 607.761719 740.347656 609.28125 737.378906 C 609.410156 737.171875 609.539063 736.960938 609.664063 736.75 C 613.0625 731.121094 615.976563 725.03125 617.617188 718.632813 C 616.140625 717.714844 615.171875 716.027344 615.75 713.851563 C 616.664063 710.386719 617.480469 706.871094 617.949219 703.316406 C 618.050781 702.546875 618.089844 701.757813 618.183594 700.988281 C 618.191406 700.941406 618.199219 700.894531 618.207031 700.851563 C 618.226563 700.6875 618.25 700.519531 618.28125 700.359375 C 618.609375 698.175781 618.933594 695.988281 619.265625 693.8125 C 621.152344 681.429688 623.035156 669.046875 624.921875 656.660156 C 626.78125 644.457031 628.640625 632.25 630.5 620.046875 C 631.46875 613.675781 632.441406 607.308594 633.410156 600.941406 C 634.226563 595.550781 635.15625 590.054688 634.070313 584.632813 "/>
<path style=" stroke:none;fill-rule:nonzero;fill:rgb(40.380859%,66.209412%,74.804688%);fill-opacity:1;" d="M 511.734375 822.085938 C 507.605469 814.613281 503.433594 807.15625 498.921875 799.910156 C 494.527344 792.855469 489.785156 786.003906 484.433594 779.640625 C 478.816406 772.960938 472.421875 767.121094 466.054688 761.183594 C 459.863281 755.398438 454.851563 748.46875 448.546875 742.699219 C 442.246094 736.941406 434.320313 733.039063 426.453125 729.90625 C 409.28125 723.070313 391.027344 719.265625 372.792969 716.597656 C 363.953125 715.304688 355.078125 714.257813 346.207031 713.214844 C 337.175781 712.152344 327.960938 710.855469 318.84375 711.097656 C 314.074219 711.222656 309.21875 712.96875 306.09375 716.71875 C 302.640625 720.863281 301.976563 726.503906 304.601563 731.234375 C 306.636719 734.90625 309.628906 738.140625 312.355469 741.3125 C 315.394531 744.855469 318.578125 748.265625 321.847656 751.601563 C 334.226563 764.246094 348.464844 774.511719 362.742188 784.871094 C 390.113281 804.726563 417.714844 824.214844 446.722656 841.601563 C 446.824219 841.6875 446.925781 841.769531 447.023438 841.855469 C 458.574219 847.453125 470.335938 852.933594 482.96875 855.390625 C 489.773438 856.714844 496.496094 857.023438 503.296875 855.617188 C 508.089844 854.242188 512.472656 851.632813 515.121094 847.296875 C 520.371094 838.695313 516.078125 829.941406 511.734375 822.085938 "/>
<path style=" stroke:none;fill-rule:nonzero;fill:rgb(40.380859%,66.209412%,74.804688%);fill-opacity:1;" d="M 662.507813 749.417969 C 657.285156 744.4375 651.519531 739.984375 645.992188 735.355469 C 634.792969 725.976563 623.828125 716.171875 612.296875 707.203125 C 610.386719 705.179688 608.402344 703.230469 606.132813 701.585938 C 602.9375 699.269531 599.382813 698.113281 595.527344 697.414063 C 590.945313 696.585938 586.355469 695.820313 581.765625 695.027344 C 570.914063 693.144531 560.015625 691.042969 549.066406 689.398438 C 541.878906 687.835938 534.628906 686.664063 527.234375 686.480469 C 525.039063 686.429688 522.675781 686.378906 520.511719 686.941406 C 518.195313 687.375 516.140625 688.480469 514.894531 690.8125 C 514.15625 692.191406 513.867188 693.664063 513.964844 695.105469 C 513.863281 695.761719 513.839844 696.4375 513.914063 697.113281 C 514.625 703.4375 520.558594 706.511719 525.503906 709.316406 C 538.285156 716.578125 550.894531 724.148438 563.3125 732.019531 C 575.417969 739.695313 587.054688 748.066406 600.21875 753.882813 C 606.851563 756.8125 613.589844 759.519531 620.28125 762.308594 C 626.710938 764.984375 633.105469 767.976563 639.726563 770.140625 C 646.304688 772.285156 653.511719 773.027344 660.414063 772.648438 C 665.527344 772.367188 670.832031 770.011719 670.996094 764.160156 C 671.160156 758.261719 666.480469 753.207031 662.507813 749.417969 "/>
<path style=" stroke:none;fill-rule:nonzero;fill:rgb(40.380859%,66.209412%,74.804688%);fill-opacity:1;" d="M 138.160156 655.5 C 137.175781 650.9375 133.828125 652.441406 130.339844 653.738281 C 128.898438 654.273438 127.476563 654.847656 126.066406 655.449219 C 118.019531 658.082031 109.976563 661.226563 102.679688 665.289063 C 94.835938 669.65625 89.324219 676.355469 88.058594 685.136719 C 85.480469 703.039063 99.726563 719.238281 115.125 727.421875 C 115.246094 727.554688 115.398438 727.675781 115.597656 727.769531 C 116.765625 728.34375 117.9375 728.914063 119.109375 729.488281 C 119.953125 729.902344 120.800781 729.636719 121.339844 728.910156 C 131.738281 714.804688 137.953125 698.082031 139.472656 680.84375 C 140.207031 672.460938 139.941406 663.753906 138.160156 655.5 "/>
<path style=" stroke:none;fill-rule:nonzero;fill:rgb(40.380859%,66.209412%,74.804688%);fill-opacity:1;" d="M 281.34375 635.734375 C 279.273438 632.882813 274.9375 631.414063 271.726563 630.390625 C 266.460938 628.703125 263.878906 627.707031 260.152344 627.0625 C 254.15625 626.03125 243.089844 620.84375 221.105469 603.886719 C 219.894531 604.46875 217.96875 605.410156 215.636719 606.621094 C 202.773438 613.308594 195.179688 619.109375 179.160156 630.328125 C 175.296875 633.039063 169.328125 637.191406 161.863281 642.269531 C 168.769531 652.015625 179.953125 657.921875 190.699219 663.054688 C 198.847656 666.941406 207.152344 670.589844 215.644531 673.714844 C 216.113281 674.011719 216.585938 674.3125 217.058594 674.605469 C 217.679688 674.988281 218.324219 675.046875 218.910156 674.886719 C 226.15625 677.425781 233.535156 679.566406 241.0625 681.132813 C 245.15625 681.984375 249.476563 682.984375 253.667969 683.148438 C 257.722656 683.304688 260.164063 680.125 262.585938 677.320313 C 267.871094 671.199219 272.371094 664.394531 275.871094 657.097656 C 277.609375 653.484375 279.125 649.753906 280.386719 645.949219 C 281.378906 642.953125 283.457031 638.640625 281.34375 635.734375 "/>
<path style=" stroke:none;fill-rule:nonzero;fill:rgb(25.097656%,51.756287%,58.789063%);fill-opacity:1;" d="M 203.890625 624.621094 C 204.476563 621.210938 209.675781 622.628906 209.09375 626.023438 C 207.804688 633.523438 216.984375 636.335938 221.289063 630.851563 C 223.429688 628.125 227.238281 631.9375 225.117188 634.640625 C 221.738281 638.945313 215.464844 640.65625 210.445313 638.25 C 205.273438 635.769531 202.949219 630.085938 203.890625 624.621094 "/>
<path style=" stroke:none;fill-rule:nonzero;fill:rgb(93.75%,86.326599%,89.0625%);fill-opacity:1;" d="M 224.449219 646.855469 C 223.675781 646.394531 222.910156 645.910156 222.03125 645.640625 C 220.546875 645.179688 218.980469 644.753906 217.453125 644.488281 C 216.148438 644.261719 214.957031 644.371094 213.742188 644.863281 C 213.730469 644.867188 213.71875 644.871094 213.707031 644.878906 C 212.195313 645.742188 211.949219 647.203125 213.765625 648.472656 C 214.964844 649.3125 216.734375 649.835938 218.433594 650.1875 C 220.257813 650.566406 222.625 651.246094 224.460938 650.96875 C 225.382813 650.636719 226.132813 649.988281 226.070313 648.902344 C 226.054688 648.566406 225.960938 648.304688 225.824219 648.074219 C 225.398438 647.632813 224.929688 647.238281 224.449219 646.855469 "/>
<path style=" stroke:none;fill-rule:nonzero;fill:rgb(40.380859%,66.209412%,74.804688%);fill-opacity:1;" d="M 348.636719 658.328125 L 323.65625 649.265625 C 322.332031 648.785156 321.164063 649.074219 320.28125 649.761719 C 319.25 650.027344 318.320313 650.660156 317.8125 651.632813 C 313.445313 659.96875 309.914063 668.664063 307.277344 677.65625 C 304.765625 681.972656 302.347656 687.273438 304.753906 690.65625 C 306.40625 692.976563 309.4375 693.621094 312.023438 694.363281 C 316.023438 695.507813 320.09375 696.363281 324.210938 696.964844 C 328.296875 697.558594 333.046875 698.546875 337.15625 697.871094 C 340.535156 697.316406 341.433594 694.78125 342.414063 691.847656 C 345.574219 682.402344 348.472656 672.863281 351.5 663.378906 C 352.214844 661.144531 350.652344 659.0625 348.636719 658.328125 "/>
<path style=" stroke:none;fill-rule:nonzero;fill:rgb(40.380859%,66.209412%,74.804688%);fill-opacity:1;" d="M 402.339844 665.089844 L 376.199219 660.3125 C 374.816406 660.058594 373.714844 660.539063 372.953125 661.363281 C 371.980469 661.796875 371.171875 662.574219 370.832031 663.617188 C 367.914063 672.566406 365.882813 681.726563 364.777344 691.03125 C 363.019531 695.707031 361.515625 701.335938 364.453125 704.273438 C 366.46875 706.285156 369.566406 706.414063 372.238281 706.714844 C 376.375 707.179688 380.53125 707.34375 384.691406 707.253906 C 388.816406 707.160156 393.664063 707.34375 397.605469 705.992188 C 400.847656 704.882813 401.308594 702.234375 401.785156 699.175781 C 403.328125 689.335938 404.601563 679.449219 406.007813 669.589844 C 406.339844 667.269531 404.449219 665.476563 402.339844 665.089844 "/>
<path style=" stroke:none;fill-rule:nonzero;fill:rgb(40.380859%,66.209412%,74.804688%);fill-opacity:1;" d="M 453.03125 670.941406 L 428.238281 667.136719 C 426.925781 666.9375 425.898438 667.417969 425.207031 668.214844 C 424.300781 668.652344 423.558594 669.410156 423.265625 670.402344 C 420.753906 678.921875 419.082031 687.621094 418.289063 696.429688 C 416.757813 700.886719 415.488281 706.238281 418.339844 708.929688 C 420.296875 710.773438 423.21875 710.8125 425.753906 711.023438 C 429.664063 711.347656 433.59375 711.394531 437.511719 711.195313 C 441.402344 710.996094 445.980469 711.039063 449.664063 709.660156 C 452.691406 708.523438 453.054688 706.011719 453.425781 703.113281 C 454.617188 693.792969 455.550781 684.429688 456.609375 675.089844 C 456.859375 672.894531 455.03125 671.253906 453.03125 670.941406 "/>
<path style=" stroke:none;fill-rule:nonzero;fill:rgb(25.097656%,51.756287%,58.789063%);fill-opacity:1;" d="M 195.578125 190.71875 L 176.269531 135.871094 C 174.183594 129.941406 165.800781 129.960938 163.738281 135.890625 L 144.664063 190.75 C 143.164063 195.058594 146.367188 199.570313 150.933594 199.570313 L 189.316406 199.570313 C 193.894531 199.570313 197.097656 195.039063 195.578125 190.71875 M 134.101563 83.761719 C 136.65625 77 141.242188 71.519531 147.855469 67.339844 C 154.472656 63.160156 161.960938 61.078125 170.320313 61.078125 C 178.441406 61.078125 185.757813 63.160156 192.261719 67.339844 C 198.757813 71.519531 203.285156 77 205.839844 83.761719 L 265.742188 253.589844 C 266.667969 255.78125 267.136719 258.070313 267.136719 260.449219 C 267.136719 266.820313 264.519531 272.351563 259.296875 277.019531 C 254.074219 281.691406 247.628906 284.03125 239.972656 284.03125 C 233.703125 284.03125 228.128906 282.488281 223.253906 279.410156 C 218.378906 276.320313 215.121094 272.199219 213.503906 267.019531 L 207.886719 246.558594 C 206.0625 239.910156 200.019531 235.308594 193.128906 235.308594 L 146.9375 235.308594 C 139.988281 235.308594 133.910156 239.988281 132.140625 246.710938 L 126.789063 267.019531 C 124.929688 272.199219 121.5625 276.320313 116.6875 279.410156 C 111.8125 282.488281 106.242188 284.03125 99.972656 284.03125 C 92.3125 284.03125 85.921875 281.691406 80.816406 277.019531 C 75.707031 272.351563 73.15625 266.820313 73.15625 260.449219 C 73.15625 258.070313 73.621094 255.78125 74.550781 253.589844 "/>
<path style=" stroke:none;fill-rule:nonzero;fill:rgb(40.380859%,66.209412%,74.804688%);fill-opacity:1;" d="M 140.703125 1200.097656 L 130.207031 1170.277344 C 129.074219 1167.058594 124.515625 1167.066406 123.394531 1170.289063 L 113.027344 1200.109375 C 112.210938 1202.453125 113.953125 1204.902344 116.4375 1204.902344 L 137.300781 1204.902344 C 139.789063 1204.902344 141.53125 1202.441406 140.703125 1200.097656 M 107.285156 1141.949219 C 108.671875 1138.273438 111.167969 1135.300781 114.761719 1133.027344 C 118.359375 1130.757813 122.429688 1129.621094 126.972656 1129.621094 C 131.390625 1129.621094 135.363281 1130.757813 138.898438 1133.027344 C 142.433594 1135.300781 144.890625 1138.273438 146.28125 1141.949219 L 178.84375 1234.269531 C 179.347656 1235.460938 179.601563 1236.703125 179.601563 1238 C 179.601563 1241.464844 178.179688 1244.464844 175.339844 1247.003906 C 172.5 1249.542969 169 1250.816406 164.835938 1250.816406 C 161.425781 1250.816406 158.398438 1249.976563 155.746094 1248.300781 C 153.097656 1246.625 151.328125 1244.382813 150.449219 1241.570313 L 147.394531 1230.449219 C 146.402344 1226.835938 143.117188 1224.328125 139.371094 1224.328125 L 114.265625 1224.328125 C 110.484375 1224.328125 107.183594 1226.875 106.21875 1230.53125 L 103.308594 1241.570313 C 102.300781 1244.382813 100.472656 1246.625 97.820313 1248.300781 C 95.167969 1249.976563 92.140625 1250.816406 88.734375 1250.816406 C 84.570313 1250.816406 81.097656 1249.542969 78.320313 1247.003906 C 75.542969 1244.464844 74.15625 1241.464844 74.15625 1238 C 74.15625 1236.703125 74.410156 1235.460938 74.914063 1234.269531 "/>
<path style=" stroke:none;fill-rule:nonzero;fill:rgb(25.097656%,51.756287%,58.789063%);fill-opacity:1;" d="M 416.359375 135.261719 C 422.960938 135.261719 428.65625 137.71875 433.445313 142.628906 C 437.722656 147.011719 440 152.96875 440 159.089844 L 440 260.648438 C 440 267.039063 437.703125 272.519531 433.117188 277.109375 C 428.523438 281.710938 423.039063 284 416.660156 284 C 412.867188 284 404.429688 281.910156 400.859375 275.769531 C 397.675781 270.300781 390.355469 269.171875 385.871094 273.640625 C 382.921875 276.570313 379.71875 279.238281 376.257813 280.25 C 368.480469 282.550781 361.492188 283.699219 355.308594 283.699219 C 334.757813 283.699219 319.78125 276.410156 305.21875 261.851563 C 290.65625 247.289063 283.375 229.730469 283.375 209.179688 C 283.375 188.640625 290.65625 171.128906 305.21875 156.660156 C 319.78125 142.199219 334.757813 134.96875 355.308594 134.96875 C 361.492188 134.96875 368.523438 136.109375 376.40625 138.410156 C 379.964844 139.441406 383.253906 141.640625 386.261719 144.058594 C 391.050781 147.898438 397.96875 146.800781 401.535156 141.808594 C 405.394531 136.390625 412.566406 135.261719 416.359375 135.261719 "/>
<path style=" stroke:none;fill-rule:nonzero;fill:rgb(40.380859%,66.209412%,74.804688%);fill-opacity:1;" d="M 645.253906 1201.230469 C 648.96875 1201.230469 651.683594 1197.519531 650.347656 1194.058594 L 650.320313 1193.988281 C 649.453125 1191.769531 648.34375 1189.839844 646.988281 1188.214844 C 645.628906 1186.589844 644.085938 1185.316406 642.351563 1184.394531 C 640.613281 1183.472656 638.773438 1183.007813 636.820313 1183.007813 C 634.867188 1183.007813 633.023438 1183.472656 631.289063 1184.394531 C 629.554688 1185.316406 628.007813 1186.589844 626.652344 1188.214844 C 625.296875 1189.839844 624.238281 1191.769531 623.480469 1193.988281 C 623.449219 1194.082031 623.417969 1194.175781 623.386719 1194.269531 C 622.269531 1197.710938 624.9375 1201.230469 628.554688 1201.230469 Z M 656.015625 1225.140625 C 658.726563 1225.140625 661.085938 1226.171875 663.09375 1228.230469 C 665.097656 1230.296875 666.101563 1232.734375 666.101563 1235.554688 C 666.101563 1237.074219 665.640625 1238.644531 664.71875 1240.269531 C 663.796875 1241.898438 662.089844 1243.46875 659.59375 1244.988281 C 656.882813 1246.722656 653.601563 1248.132813 649.753906 1249.214844 C 645.902344 1250.300781 641.914063 1250.84375 637.796875 1250.84375 C 632.589844 1250.84375 627.546875 1249.871094 622.667969 1247.917969 C 617.785156 1245.964844 613.449219 1243.117188 609.652344 1239.375 C 605.855469 1235.632813 602.820313 1231.054688 600.542969 1225.628906 C 598.265625 1220.207031 597.128906 1214.027344 597.128906 1207.085938 C 597.128906 1200.472656 598.183594 1194.453125 600.300781 1189.027344 C 602.414063 1183.605469 605.261719 1178.96875 608.839844 1175.121094 C 612.417969 1171.269531 616.621094 1168.316406 621.445313 1166.253906 C 626.273438 1164.195313 631.398438 1163.164063 636.820313 1163.164063 C 642.78125 1163.164063 648.261719 1164.382813 653.25 1166.824219 C 658.234375 1169.265625 662.46875 1172.410156 665.9375 1176.257813 C 669.40625 1180.109375 672.121094 1184.394531 674.070313 1189.109375 C 676.023438 1193.828125 677 1198.464844 677 1203.019531 C 677 1207.898438 676.023438 1211.453125 674.070313 1213.671875 C 672.121094 1215.898438 669.734375 1217.007813 666.914063 1217.007813 L 628.351563 1217.007813 C 624.058594 1217.007813 622.847656 1221.78125 625.601563 1225.070313 C 627.773438 1227.660156 631.832031 1231 638.121094 1231 C 640.179688 1231 642.242188 1230.648438 644.304688 1229.941406 C 646.359375 1229.234375 648.207031 1228.339844 649.832031 1227.257813 C 652 1225.847656 654.0625 1225.140625 656.015625 1225.140625 "/>
<path style=" stroke:none;fill-rule:nonzero;fill:rgb(40.380859%,66.209412%,74.804688%);fill-opacity:1;" d="M 204.523438 1250.90625 C 200.945313 1250.90625 197.910156 1249.65625 195.414063 1247.160156 C 192.917969 1244.671875 191.671875 1241.632813 191.671875 1238.050781 L 191.671875 1176.074219 C 191.671875 1172.496094 192.917969 1169.460938 195.414063 1166.964844 C 197.910156 1164.472656 200.945313 1163.222656 204.523438 1163.222656 C 208.105469 1163.222656 211.136719 1164.472656 213.632813 1166.964844 C 216.128906 1169.460938 217.378906 1172.496094 217.378906 1176.074219 L 217.378906 1238.050781 C 217.378906 1241.632813 216.128906 1244.671875 213.632813 1247.160156 C 211.136719 1249.65625 208.105469 1250.90625 204.523438 1250.90625 M 190.535156 1143.539063 C 190.535156 1141.585938 190.914063 1139.773438 191.671875 1138.089844 C 192.429688 1136.410156 193.433594 1134.917969 194.683594 1133.617188 C 195.929688 1132.316406 197.421875 1131.285156 199.15625 1130.523438 C 200.890625 1129.769531 202.734375 1129.386719 204.6875 1129.386719 C 206.640625 1129.386719 208.453125 1129.769531 210.136719 1130.523438 C 211.816406 1131.285156 213.28125 1132.316406 214.527344 1133.617188 C 215.773438 1134.917969 216.777344 1136.410156 217.539063 1138.089844 C 218.296875 1139.773438 218.675781 1141.585938 218.675781 1143.539063 C 218.675781 1145.492188 218.296875 1147.308594 217.539063 1148.988281 C 216.777344 1150.671875 215.773438 1152.136719 214.527344 1153.382813 C 213.28125 1154.628906 211.816406 1155.632813 210.136719 1156.390625 C 208.453125 1157.152344 206.640625 1157.527344 204.6875 1157.527344 C 202.734375 1157.527344 200.890625 1157.152344 199.15625 1156.390625 C 197.421875 1155.632813 195.929688 1154.628906 194.683594 1153.382813 C 193.433594 1152.136719 192.429688 1150.671875 191.671875 1148.988281 C 190.914063 1147.308594 190.535156 1145.492188 190.535156 1143.539063 "/>
<path style=" stroke:none;fill-rule:nonzero;fill:rgb(40.380859%,66.209412%,74.804688%);fill-opacity:1;" d="M 392.734375 1259.230469 C 389.15625 1259.230469 386.121094 1257.984375 383.625 1255.488281 C 381.128906 1253 379.882813 1249.960938 379.882813 1246.378906 L 379.882813 1150.566406 C 379.882813 1146.988281 381.128906 1143.953125 383.625 1141.457031 C 386.121094 1138.964844 389.15625 1137.714844 392.734375 1137.714844 C 396.3125 1137.714844 399.347656 1138.964844 401.84375 1141.457031 C 404.339844 1143.953125 405.585938 1146.988281 405.585938 1150.566406 L 405.585938 1246.378906 C 405.585938 1249.960938 404.339844 1253 401.84375 1255.488281 C 399.347656 1257.984375 396.3125 1259.230469 392.734375 1259.230469 "/>
<path style=" stroke:none;fill-rule:nonzero;fill:rgb(40.380859%,66.209412%,74.804688%);fill-opacity:1;" d="M 525.222656 1163.398438 C 528.800781 1163.398438 531.617188 1164.5625 533.679688 1166.894531 C 534.316406 1167.617188 534.855469 1168.359375 535.296875 1169.128906 C 536.515625 1171.257813 539.355469 1171.808594 541.242188 1170.234375 C 543.019531 1168.753906 544.890625 1167.476563 546.855469 1166.40625 C 550.539063 1164.402344 554.609375 1163.398438 559.058594 1163.398438 C 562.960938 1163.398438 566.675781 1164.210938 570.199219 1165.839844 C 573.722656 1167.464844 576.785156 1169.660156 579.390625 1172.425781 C 581.992188 1175.191406 584.054688 1178.421875 585.574219 1182.105469 C 587.089844 1185.792969 587.851563 1189.753906 587.851563 1193.980469 L 587.851563 1238.714844 C 587.851563 1242.1875 586.65625 1245.113281 584.269531 1247.5 C 581.886719 1249.882813 578.957031 1251.078125 575.488281 1251.078125 C 572.015625 1251.078125 569.0625 1249.882813 566.621094 1247.5 C 564.179688 1245.113281 562.960938 1242.1875 562.960938 1238.714844 L 562.960938 1198.371094 C 562.960938 1188.394531 559.488281 1183.40625 552.550781 1183.40625 C 548.753906 1183.40625 545.328125 1183.460938 542.761719 1186.097656 C 539.722656 1189.222656 538.613281 1193.8125 538.558594 1198.039063 L 538.558594 1238.226563 C 538.558594 1241.699219 537.285156 1244.710938 534.738281 1247.253906 C 532.1875 1249.800781 529.179688 1251.078125 525.707031 1251.078125 C 522.128906 1251.078125 519.066406 1249.800781 516.519531 1247.253906 C 513.96875 1244.710938 512.695313 1241.699219 512.695313 1238.226563 L 512.695313 1175.4375 C 512.695313 1172.074219 513.886719 1169.226563 516.273438 1166.894531 C 518.660156 1164.5625 521.640625 1163.398438 525.222656 1163.398438 "/>
<path style=" stroke:none;fill-rule:nonzero;fill:rgb(40.380859%,66.209412%,74.804688%);fill-opacity:1;" d="M 319.050781 1202.023438 C 319.050781 1205.097656 319.40625 1208 320.125 1210.714844 C 320.839844 1213.429688 321.816406 1215.789063 323.046875 1217.789063 C 324.277344 1219.785156 325.738281 1221.378906 327.429688 1222.554688 C 329.121094 1223.734375 330.890625 1224.324219 332.734375 1224.324219 C 334.683594 1224.324219 336.503906 1223.710938 338.195313 1222.480469 C 339.886719 1221.25 341.347656 1219.609375 342.578125 1217.558594 C 343.808594 1215.507813 344.78125 1213.074219 345.5 1210.253906 C 346.21875 1207.433594 346.578125 1204.484375 346.578125 1201.410156 C 346.578125 1198.335938 346.21875 1195.410156 345.5 1192.644531 C 344.78125 1189.875 343.808594 1187.464844 342.578125 1185.414063 C 341.347656 1183.363281 339.886719 1181.75 338.195313 1180.570313 C 336.503906 1179.394531 334.734375 1178.800781 332.890625 1178.800781 C 330.941406 1178.800781 329.121094 1179.441406 327.429688 1180.722656 C 325.738281 1182.007813 324.277344 1183.699219 323.046875 1185.800781 C 321.816406 1187.902344 320.839844 1190.363281 320.125 1193.179688 C 319.40625 1196.003906 319.050781 1198.949219 319.050781 1202.023438 M 305.976563 1159.886719 C 308.949219 1159.886719 311.535156 1160.9375 313.742188 1163.039063 C 314.523438 1163.78125 315.175781 1164.914063 315.703125 1166.210938 C 316.753906 1168.769531 320.203125 1169.152344 321.921875 1166.988281 C 323.292969 1165.261719 324.796875 1163.714844 326.429688 1162.808594 C 330.121094 1160.757813 334.121094 1159.730469 338.425781 1159.730469 C 342.730469 1159.730469 346.832031 1160.808594 350.730469 1162.960938 C 354.625 1165.113281 358.035156 1168.0625 360.957031 1171.804688 C 363.878906 1175.546875 366.1875 1179.953125 367.878906 1185.03125 C 369.570313 1190.105469 370.414063 1195.566406 370.414063 1201.410156 C 370.414063 1207.253906 369.570313 1212.714844 367.878906 1217.789063 C 366.1875 1222.863281 363.851563 1227.300781 360.882813 1231.089844 C 357.90625 1234.886719 354.421875 1237.859375 350.421875 1240.011719 C 346.425781 1242.164063 342.117188 1243.242188 337.503906 1243.242188 C 334.121094 1243.242188 330.863281 1242.648438 327.738281 1241.472656 C 326.703125 1241.082031 325.699219 1240.496094 324.726563 1239.800781 C 322.410156 1238.160156 319.203125 1239.890625 319.203125 1242.730469 L 319.203125 1259.851563 C 319.203125 1263.128906 317.996094 1265.976563 315.589844 1268.386719 C 313.175781 1270.796875 310.332031 1272 307.050781 1272 C 303.667969 1272 300.769531 1270.796875 298.363281 1268.386719 C 295.953125 1265.976563 294.75 1263.128906 294.75 1259.851563 L 294.75 1171.113281 C 294.75 1168.035156 295.851563 1165.398438 298.054688 1163.191406 C 300.261719 1160.988281 302.898438 1159.886719 305.976563 1159.886719 "/>
<path style=" stroke:none;fill-rule:nonzero;fill:rgb(40.380859%,66.209412%,74.804688%);fill-opacity:1;" d="M 256.007813 1171.722656 C 256.492188 1173.320313 258.484375 1173.390625 259.367188 1171.972656 C 260.71875 1169.8125 262.511719 1168.246094 263.921875 1167.105469 C 265.328125 1165.96875 266.796875 1165.046875 268.316406 1164.339844 C 269.832031 1163.636719 271.460938 1163.285156 273.195313 1163.285156 C 276.121094 1163.285156 278.699219 1164.316406 280.921875 1166.375 C 283.144531 1168.4375 284.257813 1171.039063 284.257813 1174.183594 C 284.257813 1176.785156 283.414063 1179.253906 281.734375 1181.585938 C 280.050781 1183.917969 277.53125 1185.082031 274.171875 1185.082031 C 271.675781 1185.082031 269.480469 1185.8125 267.582031 1187.277344 C 265.683594 1188.742188 264.085938 1190.695313 262.785156 1193.136719 C 261.480469 1195.574219 260.507813 1198.339844 259.855469 1201.429688 C 259.203125 1204.519531 258.878906 1207.695313 258.878906 1210.945313 L 258.878906 1238.113281 C 258.878906 1241.585938 257.605469 1244.59375 255.054688 1247.140625 C 252.507813 1249.6875 249.496094 1250.964844 246.027344 1250.964844 C 242.449219 1250.964844 239.382813 1249.6875 236.839844 1247.140625 C 234.289063 1244.59375 233.015625 1241.585938 233.015625 1238.113281 L 233.015625 1175.320313 C 233.015625 1171.960938 234.179688 1169.113281 236.511719 1166.78125 C 238.84375 1164.449219 241.691406 1163.285156 245.050781 1163.285156 C 248.195313 1163.285156 250.933594 1164.367188 253.269531 1166.535156 C 254.457031 1167.644531 255.371094 1169.617188 256.007813 1171.722656 "/>
<path style=" stroke:none;fill-rule:nonzero;fill:rgb(100%,100%,100%);fill-opacity:1;" d="M 328.191406 209.328125 C 328.191406 215.320313 328.886719 220.808594 330.285156 225.789063 C 331.679688 230.78125 333.578125 235.171875 335.972656 238.960938 C 338.367188 242.75 341.207031 245.691406 344.5 247.789063 C 347.792969 249.878906 351.332031 250.929688 355.125 250.929688 C 358.910156 250.929688 362.457031 249.878906 365.75 247.789063 C 369.039063 245.691406 371.882813 242.75 374.277344 238.960938 C 376.671875 235.171875 378.566406 230.78125 379.964844 225.789063 C 381.355469 220.808594 382.058594 215.320313 382.058594 209.328125 C 382.058594 203.339844 381.355469 197.859375 379.964844 192.871094 C 378.566406 187.890625 376.671875 183.550781 374.277344 179.851563 C 371.882813 176.160156 369.039063 173.269531 365.75 171.171875 C 362.457031 169.078125 358.910156 168.03125 355.125 168.03125 C 351.332031 168.03125 347.792969 169.078125 344.5 171.171875 C 341.207031 173.269531 338.367188 176.160156 335.972656 179.851563 C 333.578125 183.550781 331.679688 187.890625 330.285156 192.871094 C 328.886719 197.859375 328.191406 203.339844 328.191406 209.328125 "/>
<path style=" stroke:none;fill-rule:nonzero;fill:rgb(40.380859%,66.209412%,74.804688%);fill-opacity:1;" d="M 487.480469 1167.945313 C 491.070313 1167.945313 494.167969 1169.285156 496.769531 1171.949219 C 499.09375 1174.332031 500.332031 1177.574219 500.332031 1180.898438 L 500.332031 1236.109375 C 500.332031 1239.582031 499.085938 1242.5625 496.589844 1245.054688 C 494.09375 1247.550781 491.113281 1248.796875 487.644531 1248.796875 C 485.585938 1248.796875 480.996094 1247.660156 479.058594 1244.328125 C 477.328125 1241.351563 473.347656 1240.734375 470.910156 1243.164063 C 469.308594 1244.761719 467.5625 1246.210938 465.683594 1246.761719 C 461.453125 1248.011719 457.65625 1248.632813 454.296875 1248.632813 C 443.125 1248.632813 434.984375 1244.675781 427.066406 1236.757813 C 419.148438 1228.84375 415.191406 1219.300781 415.191406 1208.128906 C 415.191406 1196.960938 419.148438 1187.441406 427.066406 1179.578125 C 434.984375 1171.71875 443.125 1167.785156 454.296875 1167.785156 C 457.65625 1167.785156 461.480469 1168.410156 465.765625 1169.65625 C 467.699219 1170.21875 469.484375 1171.417969 471.121094 1172.730469 C 473.722656 1174.816406 477.484375 1174.222656 479.421875 1171.503906 C 481.523438 1168.558594 485.421875 1167.945313 487.480469 1167.945313 "/>
</g>
</svg>
