<?xml version="1.0" encoding="UTF-8"?>
<svg xmlns="http://www.w3.org/2000/svg" xmlns:xlink="http://www.w3.org/1999/xlink" width="750pt" height="1334pt" viewBox="0 0 750 1334" version="1.1">
<defs>
<clipPath id="clip1">
  <path d="M 407 613 L 552 613 L 552 887 L 407 887 Z M 407 613 "/>
</clipPath>
<clipPath id="clip2">
  <path d="M 324.140625 625.675781 C 284.433594 636.492188 246.890625 655.066406 215.519531 681.84375 C 198.460938 696.410156 182.488281 713.386719 174.046875 734.464844 C 166.550781 753.1875 167.550781 775.339844 174.371094 794.101563 C 176.40625 799.695313 178.871094 805.015625 181.714844 810.070313 C 181.734375 810.132813 181.75 810.191406 181.769531 810.253906 C 188.859375 830.617188 205.554688 844.464844 224.496094 853.640625 C 244.394531 863.277344 265.960938 870.074219 287.394531 875.335938 C 331.355469 886.121094 377.320313 889.523438 422.375 885.136719 C 467.765625 880.71875 512.808594 869.246094 553.953125 849.347656 C 573.800781 839.75 592.050781 826.921875 605.089844 808.917969 C 616.570313 793.0625 621.925781 773.023438 621.722656 753.578125 C 621.519531 733.664063 615.859375 713.945313 606.4375 696.472656 C 596.558594 678.148438 582.160156 663.222656 565.285156 651.214844 C 530.621094 626.550781 487.007813 617.304688 445.277344 614.339844 C 436.300781 613.699219 427.273438 613.375 418.246094 613.375 C 386.519531 613.375 354.675781 617.363281 324.140625 625.675781 "/>
</clipPath>
<clipPath id="clip3">
  <path d="M 291 613 L 455 613 L 455 887 L 291 887 Z M 291 613 "/>
</clipPath>
<clipPath id="clip4">
  <path d="M 324.140625 625.675781 C 284.433594 636.492188 246.890625 655.066406 215.519531 681.84375 C 198.460938 696.410156 182.488281 713.386719 174.046875 734.464844 C 166.550781 753.1875 167.550781 775.339844 174.371094 794.101563 C 176.40625 799.695313 178.871094 805.015625 181.714844 810.070313 C 181.734375 810.132813 181.75 810.191406 181.769531 810.253906 C 188.859375 830.617188 205.554688 844.464844 224.496094 853.640625 C 244.394531 863.277344 265.960938 870.074219 287.394531 875.335938 C 331.355469 886.121094 377.320313 889.523438 422.375 885.136719 C 467.765625 880.71875 512.808594 869.246094 553.953125 849.347656 C 573.800781 839.75 592.050781 826.921875 605.089844 808.917969 C 616.570313 793.0625 621.925781 773.023438 621.722656 753.578125 C 621.519531 733.664063 615.859375 713.945313 606.4375 696.472656 C 596.558594 678.148438 582.160156 663.222656 565.285156 651.214844 C 530.621094 626.550781 487.007813 617.304688 445.277344 614.339844 C 436.300781 613.699219 427.273438 613.375 418.246094 613.375 C 386.519531 613.375 354.675781 617.363281 324.140625 625.675781 "/>
</clipPath>
<clipPath id="clip5">
  <path d="M 185 613 L 364 613 L 364 887 L 185 887 Z M 185 613 "/>
</clipPath>
<clipPath id="clip6">
  <path d="M 324.140625 625.675781 C 284.433594 636.492188 246.890625 655.066406 215.519531 681.84375 C 198.460938 696.410156 182.488281 713.386719 174.046875 734.464844 C 166.550781 753.1875 167.550781 775.339844 174.371094 794.101563 C 176.40625 799.695313 178.871094 805.015625 181.714844 810.070313 C 181.734375 810.132813 181.75 810.191406 181.769531 810.253906 C 188.859375 830.617188 205.554688 844.464844 224.496094 853.640625 C 244.394531 863.277344 265.960938 870.074219 287.394531 875.335938 C 331.355469 886.121094 377.320313 889.523438 422.375 885.136719 C 467.765625 880.71875 512.808594 869.246094 553.953125 849.347656 C 573.800781 839.75 592.050781 826.921875 605.089844 808.917969 C 616.570313 793.0625 621.925781 773.023438 621.722656 753.578125 C 621.519531 733.664063 615.859375 713.945313 606.4375 696.472656 C 596.558594 678.148438 582.160156 663.222656 565.285156 651.214844 C 530.621094 626.550781 487.007813 617.304688 445.277344 614.339844 C 436.300781 613.699219 427.273438 613.375 418.246094 613.375 C 386.519531 613.375 354.675781 617.363281 324.140625 625.675781 "/>
</clipPath>
</defs>
<g id="surface1">
<path style=" stroke:none;fill-rule:nonzero;fill:rgb(96.875%,91.014099%,61.131287%);fill-opacity:1;" d="M 283.152344 658.6875 C 284.261719 658.425781 285.375 658.15625 286.484375 657.882813 C 286.753906 658.117188 287.03125 658.339844 287.316406 658.554688 C 285.945313 658.726563 284.539063 658.769531 283.152344 658.6875 M 448.957031 648.191406 C 448.789063 646.871094 448.628906 645.546875 448.472656 644.226563 C 448.222656 642.105469 447.988281 639.984375 447.769531 637.863281 C 447.679688 636.996094 447.601563 636.132813 447.515625 635.269531 C 477.386719 585.769531 480.515625 518.996094 452.230469 468.277344 C 444.117188 453.726563 432.566406 441.515625 416.921875 435.28125 C 405.925781 430.902344 393.464844 431.148438 382.066406 434.574219 C 370.683594 435.441406 359.695313 440.371094 350.738281 447.574219 C 321.472656 471.113281 320.523438 514.84375 324.320313 548.980469 C 325.804688 562.359375 328.316406 575.523438 331.640625 588.480469 C 327.894531 580.394531 323.75 572.484375 319.214844 564.789063 C 308.929688 547.359375 296.738281 530.671875 282.261719 516.476563 C 275.261719 509.609375 267.628906 503.328125 259.433594 497.941406 C 250.746094 492.234375 240.890625 486.730469 230.507813 485.085938 C 211.296875 482.035156 192.183594 495.085938 180.203125 509.054688 C 168.308594 522.921875 160.941406 540.269531 159.417969 558.484375 C 156.078125 598.367188 184.472656 632.996094 212.710938 657.632813 C 246.558594 687.164063 288.179688 707.492188 332.363281 715.683594 C 339.234375 716.957031 342.183594 706.433594 335.269531 705.148438 C 314.199219 701.242188 293.789063 694.566406 274.554688 685.367188 C 281.863281 686.742188 289.40625 686.691406 296.828125 684.914063 C 303.886719 683.226563 308.761719 674.816406 306.511719 667.859375 C 305.570313 664.957031 303.882813 662.5625 301.730469 660.828125 C 303.296875 660.183594 304.765625 659.203125 306.023438 657.832031 C 307.277344 656.464844 308.21875 654.96875 308.871094 653.410156 C 318.855469 652.101563 328.886719 651.753906 339.851563 652.246094 C 340.304688 652.269531 340.746094 652.257813 341.183594 652.234375 C 343.25 662.421875 344.71875 672.738281 345.554688 683.117188 C 346.113281 690.078125 357.042969 690.136719 356.476563 683.117188 C 355.480469 670.769531 353.660156 658.507813 351.046875 646.429688 C 351.238281 646.140625 351.421875 645.839844 351.59375 645.535156 C 356.105469 655.898438 360.964844 666.109375 366.097656 676.152344 C 369.300781 682.410156 378.730469 676.890625 375.53125 670.640625 C 370.472656 660.753906 365.679688 650.710938 361.253906 640.507813 C 364.234375 642.5625 367.496094 644.34375 371.050781 645.804688 C 377.777344 648.566406 386.578125 642.816406 388.105469 636.121094 C 388.375 634.929688 388.496094 633.789063 388.511719 632.691406 C 390.613281 634.007813 393.03125 634.746094 395.578125 634.671875 C 399.296875 639.765625 406.296875 641.585938 412.101563 639.136719 C 412.621094 638.917969 413.105469 638.671875 413.578125 638.410156 C 413.328125 640.617188 413.671875 642.945313 414.480469 645.09375 C 408.269531 659.21875 401.1875 672.976563 393.679688 686.363281 C 390.238281 692.5 399.671875 698.015625 403.113281 691.875 C 409.875 679.8125 416.289063 667.453125 422.070313 654.808594 C 422.199219 655.683594 422.339844 656.554688 422.460938 657.429688 C 423.480469 664.636719 433.023438 669.214844 439.515625 667.113281 C 447.4375 664.550781 450.261719 657.785156 449.199219 650.058594 C 449.441406 651.835938 449.003906 648.5625 448.957031 648.191406 "/>
<path style=" stroke:none;fill-rule:nonzero;fill:rgb(34.910583%,23.925781%,7.835388%);fill-opacity:1;" d="M 137.859375 734.421875 C 138.960938 730.816406 142.027344 728.828125 145.6875 730.335938 C 149.789063 732.023438 150.710938 736.769531 149.523438 740.671875 C 148.292969 744.722656 144.9375 747.800781 140.914063 749.546875 C 137.921875 744.980469 136.253906 739.699219 137.859375 734.421875 M 177.328125 770.015625 C 167.339844 771.300781 157.027344 764.546875 149.457031 758.644531 C 148.574219 757.957031 147.679688 757.199219 146.796875 756.386719 C 151.921875 753.519531 156.078125 749.082031 157.890625 743.527344 C 159.886719 737.40625 158.792969 730.105469 154.097656 725.492188 C 149.832031 721.308594 143.046875 719.742188 137.511719 722.148438 C 126.199219 727.070313 127.203125 741.175781 131.839844 751.109375 C 129.6875 750.9375 127.632813 750.359375 125.855469 749.320313 C 116.644531 743.925781 111.171875 733.121094 109.488281 722.914063 C 108.566406 717.320313 100.050781 719.695313 100.96875 725.265625 C 103.085938 738.097656 111.136719 752.269531 123.339844 757.957031 C 127.703125 759.992188 132.722656 760.457031 137.59375 759.632813 C 142.015625 764.5 147.492188 768.324219 153.140625 771.679688 C 160.429688 776.003906 168.621094 779.96875 177.328125 778.847656 C 179.714844 778.539063 181.714844 777.035156 181.746094 774.429688 C 181.765625 772.277344 179.691406 769.710938 177.328125 770.015625 "/>
<path style=" stroke:none;fill-rule:nonzero;fill:rgb(97.65625%,89.451599%,41.967773%);fill-opacity:1;" d="M 606.4375 696.472656 C 596.558594 678.148438 582.164063 663.222656 565.285156 651.214844 C 530.621094 626.550781 487.007813 617.304688 445.277344 614.339844 C 404.765625 611.457031 363.367188 614.996094 324.140625 625.679688 C 284.433594 636.492188 246.890625 655.066406 215.519531 681.84375 C 198.460938 696.410156 182.488281 713.386719 174.046875 734.464844 C 166.550781 753.1875 167.550781 775.339844 174.371094 794.101563 C 176.40625 799.695313 178.871094 805.015625 181.714844 810.070313 C 181.734375 810.132813 181.75 810.191406 181.769531 810.253906 C 188.859375 830.617188 205.558594 844.464844 224.496094 853.640625 C 244.394531 863.277344 265.960938 870.074219 287.394531 875.335938 C 331.355469 886.121094 377.320313 889.527344 422.375 885.136719 C 467.765625 880.71875 512.808594 869.246094 553.953125 849.347656 C 573.796875 839.75 592.050781 826.921875 605.089844 808.917969 C 616.570313 793.0625 621.925781 773.023438 621.726563 753.578125 C 621.519531 733.664063 615.859375 713.945313 606.4375 696.472656 "/>
<g clip-path="url(#clip1)" clip-rule="nonzero">
<g clip-path="url(#clip2)" clip-rule="nonzero">
<path style=" stroke:none;fill-rule:nonzero;fill:rgb(34.910583%,23.925781%,7.835388%);fill-opacity:1;" d="M 543.425781 899.046875 C 527.195313 883.46875 510.980469 867.769531 496.921875 850.164063 C 489.039063 839.585938 482.121094 828.367188 476.660156 816.347656 C 471.179688 802.410156 467.617188 787.859375 465.382813 773.054688 C 463.011719 753.007813 462.757813 732.789063 463.125 712.621094 C 463.507813 691.605469 463.703125 670.386719 466.160156 649.480469 C 468.226563 636.140625 471.652344 623.144531 476.605469 610.59375 C 479.519531 604.136719 482.800781 597.867188 486.457031 591.792969 C 493.894531 579.449219 489.605469 561.023438 476.585938 554.144531 C 463.25 547.097656 446.871094 550.839844 438.9375 564.015625 C 431.40625 576.519531 425.34375 590.011719 420.601563 603.808594 C 415.75 617.9375 413.269531 632.429688 411.394531 647.214844 C 408.171875 672.585938 408.0625 698.617188 407.953125 724.167969 C 407.847656 750.878906 409.445313 777.890625 415.328125 804.015625 C 421.007813 829.214844 431.71875 853.414063 446.785156 874.402344 C 463.605469 897.828125 483.773438 918.058594 504.507813 937.964844 C 509.664063 942.914063 516.761719 946.023438 523.96875 946.023438 C 530.714844 946.023438 538.777344 943.027344 543.425781 937.964844 C 553.339844 927.164063 554.519531 909.699219 543.425781 899.046875 "/>
</g>
</g>
<g clip-path="url(#clip3)" clip-rule="nonzero">
<g clip-path="url(#clip4)" clip-rule="nonzero">
<path style=" stroke:none;fill-rule:nonzero;fill:rgb(34.910583%,23.925781%,7.835388%);fill-opacity:1;" d="M 446.609375 963.960938 C 436.238281 953.628906 426.515625 942.683594 417.4375 931.199219 C 399.542969 907.511719 384.523438 881.761719 372.679688 854.535156 C 361.367188 826.886719 353.398438 797.984375 349.070313 768.421875 C 345.363281 738.171875 345.421875 707.566406 349.136719 677.316406 C 353.53125 647.242188 361.527344 617.785156 373.078125 589.667969 C 373.136719 589.539063 373.191406 589.40625 373.25 589.277344 C 376.316406 582.234375 378.148438 575.796875 376.023438 568.070313 C 374.265625 561.6875 369.328125 554.773438 363.378906 551.625 C 356.988281 548.253906 349.253906 546.5625 342.171875 548.851563 C 335.820313 550.90625 328.515625 555.09375 325.726563 561.5 C 312.714844 591.375 302.75 622.15625 297.351563 654.34375 C 291.996094 686.277344 289.839844 718.640625 292.277344 750.960938 C 296.878906 811.984375 315.246094 871.414063 346.472656 924.109375 C 363.421875 952.707031 384.148438 979.414063 407.691406 1002.878906 C 417.902344 1013.054688 436.546875 1013.84375 446.609375 1002.878906 C 456.679688 991.910156 457.503906 974.820313 446.609375 963.960938 "/>
</g>
</g>
<g clip-path="url(#clip5)" clip-rule="nonzero">
<g clip-path="url(#clip6)" clip-rule="nonzero">
<path style=" stroke:none;fill-rule:nonzero;fill:rgb(34.910583%,23.925781%,7.835388%);fill-opacity:1;" d="M 363.644531 1003.445313 C 363.339844 996.644531 361.171875 988.421875 355.585938 983.988281 C 338.453125 970.390625 323.152344 954.714844 309.554688 937.613281 C 290.921875 912.945313 275.742188 885.8125 263.476563 857.460938 C 253.835938 833.929688 246.429688 809.5 242.648438 784.332031 C 240.421875 765.039063 240.445313 745.605469 240.847656 726.207031 C 241.175781 710.363281 241.484375 694.480469 243.316406 678.726563 C 244.855469 668.808594 247.136719 659.027344 250.691406 649.640625 C 252.960938 644.796875 255.601563 640.167969 258.664063 635.785156 C 259.21875 635.132813 259.773438 634.484375 260.339844 633.84375 C 265.210938 628.382813 268.402344 621.863281 268.402344 614.386719 C 268.402344 607.636719 265.40625 599.574219 260.339844 594.929688 C 255.097656 590.113281 248.214844 586.539063 240.882813 586.867188 C 233.828125 587.183594 226.28125 589.484375 221.425781 594.929688 C 209.953125 607.792969 202.003906 622.109375 196.375 638.367188 C 191.460938 652.570313 189.359375 667.671875 187.847656 682.5625 C 186.488281 695.949219 186.179688 709.410156 185.882813 722.851563 C 185.515625 739.386719 185.28125 755.953125 186.476563 772.460938 C 188.855469 805.371094 196.546875 837.421875 208.746094 868.039063 C 220.066406 896.433594 233.578125 923.96875 250.617188 949.398438 C 269.003906 976.839844 290.738281 1002.324219 316.664063 1022.902344 C 322.609375 1027.621094 328.222656 1030.964844 336.125 1030.964844 C 342.875 1030.964844 350.9375 1027.96875 355.585938 1022.902344 C 360.398438 1017.660156 363.972656 1010.773438 363.644531 1003.445313 "/>
</g>
</g>
<path style=" stroke:none;fill-rule:nonzero;fill:rgb(34.910583%,23.925781%,7.835388%);fill-opacity:1;" d="M 602.554688 610.152344 C 599.515625 606.324219 594.78125 604.910156 590.097656 604.386719 C 580.183594 603.285156 569.203125 603.941406 560.007813 608.027344 C 538.28125 617.6875 532.742188 646.820313 536.976563 667.863281 C 538.09375 673.429688 546.609375 671.074219 545.492188 665.511719 C 541.804688 647.175781 547.113281 620.507813 567.648438 614.589844 C 570.695313 613.710938 573.8125 613.253906 576.957031 613.035156 C 576.558594 613.621094 576.199219 614.242188 575.90625 614.921875 C 574.023438 619.304688 575.652344 624.015625 579.363281 626.824219 C 583.527344 629.976563 588.605469 629.65625 593.492188 628.867188 C 597.9375 628.148438 602.445313 626.601563 604.480469 622.234375 C 606.351563 618.230469 605.21875 613.503906 602.554688 610.152344 "/>
<path style=" stroke:none;fill-rule:nonzero;fill:rgb(34.910583%,23.925781%,7.835388%);fill-opacity:1;" d="M 631.5625 645.375 C 621.660156 637.285156 607.828125 646.710938 599.816406 653.105469 C 589.246094 661.546875 581.371094 672.839844 576.535156 685.421875 C 574.492188 690.730469 583.027344 693.027344 585.050781 687.769531 C 590.324219 674.066406 600.265625 662.234375 612.863281 654.703125 C 613.117188 654.550781 613.386719 654.394531 613.664063 654.242188 C 612.183594 660.101563 617.460938 664.820313 622.320313 667.015625 C 627.773438 669.476563 634.453125 668.027344 636.433594 661.800781 C 638.210938 656.210938 636.085938 649.066406 631.5625 645.375 "/>
<path style=" stroke:none;fill-rule:nonzero;fill:rgb(34.910583%,23.925781%,7.835388%);fill-opacity:1;" d="M 525.652344 723.085938 C 525.140625 728.113281 520.621094 730.265625 516.09375 730.167969 C 513.429688 730.113281 510.378906 730.085938 508.28125 728.316406 C 506.511719 726.820313 505.304688 724.566406 504.550781 722.421875 C 502.675781 717.09375 494.140625 719.386719 496.03125 724.769531 C 497.511719 728.976563 499.824219 732.871094 503.347656 735.6875 C 507.089844 738.675781 512.566406 739.132813 517.222656 739.011719 C 526.550781 738.765625 533.539063 732.363281 534.484375 723.085938 C 535.0625 717.4375 526.222656 717.476563 525.652344 723.085938 "/>
<path style=" stroke:none;fill-rule:nonzero;fill:rgb(34.910583%,23.925781%,7.835388%);fill-opacity:1;" d="M 580.253906 717.570313 C 580.417969 722.28125 577.488281 726.375 572.824219 727.496094 C 567.558594 728.757813 562.371094 726.21875 559.464844 721.8125 C 556.347656 717.089844 548.695313 721.507813 551.835938 726.273438 C 556.929688 733.992188 565.964844 738.320313 575.171875 736.011719 C 583.472656 733.929688 589.386719 726.113281 589.085938 717.570313 C 588.886719 711.902344 580.050781 711.875 580.253906 717.570313 "/>
<path style=" stroke:none;fill-rule:nonzero;fill:rgb(34.910583%,23.925781%,7.835388%);fill-opacity:1;" d="M 551.863281 761.351563 C 550.089844 759.683594 547.140625 758.789063 544.808594 759.761719 C 543.699219 760.226563 542.800781 760.710938 542.171875 761.789063 C 541.945313 762.175781 541.773438 762.640625 541.671875 763.121094 C 540.792969 764.660156 540.5625 766.539063 541.175781 768.253906 C 542.070313 770.773438 544.390625 772.824219 547.179688 772.808594 C 549.597656 772.789063 551.964844 771.425781 553.074219 769.246094 C 554.402344 766.628906 554.054688 763.410156 551.863281 761.351563 "/>
<path style=" stroke:none;fill-rule:nonzero;fill:rgb(92.96875%,72.459412%,80.859375%);fill-opacity:1;" d="M 599.753906 746.578125 C 595 743.992188 588.484375 743.273438 583.082031 745.585938 C 579.027344 747.324219 579.410156 750.46875 581.816406 752.320313 C 582.625 753.445313 584.046875 754.378906 585.988281 754.613281 C 590.421875 755.15625 594.453125 754.859375 598.390625 753.375 C 601.882813 752.058594 603.121094 748.40625 599.753906 746.578125 "/>
<path style=" stroke:none;fill-rule:nonzero;fill:rgb(92.96875%,72.459412%,80.859375%);fill-opacity:1;" d="M 512.105469 746.578125 C 507.351563 743.992188 500.835938 743.273438 495.433594 745.585938 C 491.378906 747.324219 491.761719 750.46875 494.164063 752.320313 C 494.976563 753.445313 496.398438 754.378906 498.339844 754.613281 C 502.773438 755.15625 506.804688 754.859375 510.742188 753.375 C 514.234375 752.058594 515.472656 748.40625 512.105469 746.578125 "/>
<path style=" stroke:none;fill-rule:nonzero;fill:rgb(34.910583%,23.925781%,7.835388%);fill-opacity:1;" d="M 122.816406 189.769531 L 122.816406 231.898438 C 122.816406 238.070313 127.816406 243.070313 133.984375 243.070313 L 182.878906 243.070313 C 187.289063 243.070313 191.464844 242.21875 195.417969 240.53125 C 199.363281 238.839844 202.785156 236.550781 205.691406 233.671875 C 208.589844 230.78125 210.855469 227.449219 212.480469 223.671875 C 214.105469 219.890625 214.917969 215.808594 214.917969 211.429688 C 214.917969 207.25 214.105469 203.179688 212.480469 199.191406 C 210.855469 195.210938 208.589844 191.679688 205.691406 188.601563 C 202.785156 185.511719 199.363281 183.078125 195.417969 181.289063 C 191.464844 179.488281 187.289063 178.601563 182.878906 178.601563 L 133.984375 178.601563 C 127.816406 178.601563 122.816406 183.601563 122.816406 189.769531 M 122.816406 130.71875 C 122.816406 136.890625 127.816406 141.890625 133.984375 141.890625 L 178.703125 141.890625 C 182.410156 141.890625 185.71875 140.199219 188.628906 136.808594 C 191.527344 133.429688 192.980469 129.75 192.980469 125.769531 C 192.980469 121.988281 191.527344 118.710938 188.628906 115.921875 C 185.71875 113.140625 182.410156 111.738281 178.703125 111.738281 L 133.984375 111.738281 C 127.816406 111.738281 122.816406 116.738281 122.816406 122.910156 Z M 73.179688 95.921875 C 73.179688 88.960938 75.964844 83.089844 81.539063 78.308594 C 87.109375 73.539063 93.957031 71.148438 102.085938 71.148438 L 183.578125 71.148438 C 192.164063 71.148438 200.289063 72.601563 207.953125 75.480469 C 215.613281 78.359375 222.347656 82.238281 228.152344 87.121094 C 233.953125 92 238.480469 97.761719 241.734375 104.429688 C 244.980469 111.101563 246.609375 118.210938 246.609375 125.769531 C 246.609375 130.949219 245.796875 135.96875 244.171875 140.839844 C 242.546875 145.71875 240.339844 150.351563 237.554688 154.71875 C 247.304688 161.488281 255.140625 169.851563 261.0625 179.789063 C 266.980469 189.75 269.941406 200.589844 269.941406 212.328125 C 269.941406 222.28125 267.792969 231.578125 263.496094 240.230469 C 259.203125 248.890625 253.339844 256.449219 245.914063 262.921875 C 238.480469 269.390625 229.773438 274.511719 219.796875 278.289063 C 209.808594 282.070313 199.128906 283.960938 187.753906 283.960938 L 102.085938 283.960938 C 93.957031 283.960938 87.109375 281.570313 81.539063 276.800781 C 75.964844 272.019531 73.179688 266.148438 73.179688 259.191406 "/>
<path style=" stroke:none;fill-rule:nonzero;fill:rgb(34.910583%,23.925781%,7.835388%);fill-opacity:1;" d="M 162.816406 1155.769531 L 162.816406 1197.902344 C 162.816406 1204.070313 167.816406 1209.070313 173.984375 1209.070313 L 222.878906 1209.070313 C 227.289063 1209.070313 231.464844 1208.226563 235.417969 1206.53125 C 239.363281 1204.84375 242.785156 1202.554688 245.691406 1199.664063 C 248.589844 1196.785156 250.855469 1193.449219 252.480469 1189.667969 C 254.105469 1185.890625 254.917969 1181.808594 254.917969 1177.429688 C 254.917969 1173.253906 254.105469 1169.175781 252.480469 1165.195313 C 250.855469 1161.214844 248.589844 1157.6875 245.691406 1154.597656 C 242.785156 1151.515625 239.363281 1149.078125 235.417969 1147.285156 C 231.464844 1145.496094 227.289063 1144.601563 222.878906 1144.601563 L 173.984375 1144.601563 C 167.816406 1144.601563 162.816406 1149.601563 162.816406 1155.769531 M 162.816406 1096.71875 C 162.816406 1102.886719 167.816406 1107.886719 173.984375 1107.886719 L 218.703125 1107.886719 C 222.410156 1107.886719 225.71875 1106.199219 228.628906 1102.8125 C 231.527344 1099.433594 232.980469 1095.753906 232.980469 1091.769531 C 232.980469 1087.992188 231.527344 1084.710938 228.628906 1081.921875 C 225.71875 1079.136719 222.410156 1077.742188 218.703125 1077.742188 L 173.984375 1077.742188 C 167.816406 1077.742188 162.816406 1082.742188 162.816406 1088.910156 Z M 113.179688 1061.921875 C 113.179688 1054.960938 115.964844 1049.089844 121.539063 1044.3125 C 127.109375 1039.539063 133.953125 1037.148438 142.085938 1037.148438 L 223.578125 1037.148438 C 232.164063 1037.148438 240.289063 1038.597656 247.953125 1041.476563 C 255.613281 1044.363281 262.347656 1048.246094 268.152344 1053.117188 C 273.953125 1057.996094 278.480469 1063.765625 281.734375 1070.429688 C 284.980469 1077.097656 286.609375 1084.210938 286.609375 1091.769531 C 286.609375 1096.945313 285.796875 1101.96875 284.171875 1106.84375 C 282.546875 1111.71875 280.339844 1116.347656 277.554688 1120.722656 C 287.304688 1127.488281 295.140625 1135.847656 301.0625 1145.792969 C 306.980469 1155.746094 309.941406 1166.585938 309.941406 1178.328125 C 309.941406 1188.277344 307.792969 1197.578125 303.496094 1206.230469 C 299.203125 1214.890625 293.339844 1222.453125 285.914063 1228.914063 C 278.480469 1235.386719 269.773438 1240.511719 259.796875 1244.289063 C 249.808594 1248.070313 239.128906 1249.957031 227.753906 1249.957031 L 142.085938 1249.957031 C 133.953125 1249.957031 127.109375 1247.570313 121.539063 1242.796875 C 115.964844 1238.019531 113.179688 1232.152344 113.179688 1225.1875 "/>
<path style=" stroke:none;fill-rule:nonzero;fill:rgb(34.910583%,23.925781%,7.835388%);fill-opacity:1;" d="M 348.363281 202.679688 C 348.363281 209.269531 349.0625 215.398438 350.460938 221.089844 C 351.855469 226.769531 353.800781 231.710938 356.296875 235.898438 C 358.789063 240.089844 361.683594 243.378906 364.976563 245.78125 C 368.269531 248.171875 371.808594 249.371094 375.597656 249.371094 C 379.1875 249.371094 382.632813 248.171875 385.925781 245.78125 C 389.214844 243.378906 392.058594 240.089844 394.453125 235.898438 C 396.84375 231.710938 398.738281 226.769531 400.136719 221.089844 C 401.53125 215.398438 402.234375 209.269531 402.234375 202.679688 C 402.234375 196.101563 401.53125 189.96875 400.136719 184.28125 C 398.738281 178.589844 396.84375 173.710938 394.453125 169.621094 C 392.058594 165.53125 389.214844 162.28125 385.925781 159.890625 C 382.632813 157.5 379.1875 156.300781 375.597656 156.300781 C 371.808594 156.300781 368.269531 157.5 364.976563 159.890625 C 361.683594 162.28125 358.789063 165.53125 356.296875 169.621094 C 353.800781 173.710938 351.855469 178.589844 350.460938 184.28125 C 349.0625 189.96875 348.363281 196.101563 348.363281 202.679688 M 325.023438 60.539063 C 331.40625 60.539063 336.941406 62.878906 341.632813 67.570313 C 346.316406 72.261719 348.664063 77.890625 348.664063 84.480469 L 348.664063 130.101563 C 348.664063 134.03125 353.496094 135.871094 356.121094 132.949219 C 359.019531 129.730469 364.351563 125.898438 367.554688 124.640625 C 373.636719 122.25 377.789063 121.878906 384.574219 121.878906 C 393.554688 121.878906 401.882813 123.980469 409.566406 128.171875 C 417.242188 132.359375 423.976563 138.101563 429.765625 145.378906 C 435.550781 152.660156 440.089844 161.238281 443.378906 171.109375 C 446.671875 180.988281 448.316406 191.609375 448.316406 202.980469 C 448.316406 214.359375 446.671875 224.980469 443.378906 234.851563 C 440.089844 244.730469 435.601563 253.308594 429.914063 260.589844 C 424.226563 267.871094 417.496094 273.609375 409.714844 277.800781 C 401.933594 281.988281 393.652344 284.078125 384.875 284.078125 C 377.292969 284.078125 370.0625 282.390625 363.179688 278.988281 C 359.878906 277.371094 356.773438 274.140625 353.859375 270.460938 C 350.578125 266.300781 343.917969 267.078125 341.890625 271.980469 C 340.855469 274.480469 339.570313 276.671875 338.039063 278.101563 C 333.75 282.089844 328.714844 284.078125 322.929688 284.078125 C 316.945313 284.078125 311.804688 281.941406 307.515625 277.648438 C 303.226563 273.359375 301.085938 268.21875 301.085938 262.238281 L 301.085938 84.480469 C 301.085938 77.890625 303.425781 72.261719 308.117188 67.570313 C 312.800781 62.878906 318.441406 60.539063 325.023438 60.539063 "/>
<path style=" stroke:none;fill-rule:nonzero;fill:rgb(34.910583%,23.925781%,7.835388%);fill-opacity:1;" d="M 581.605469 1159.808594 C 588.4375 1159.808594 593.429688 1152.988281 590.972656 1146.613281 C 590.957031 1146.574219 590.941406 1146.53125 590.925781 1146.492188 C 589.328125 1142.40625 587.285156 1138.859375 584.789063 1135.867188 C 582.289063 1132.875 579.449219 1130.535156 576.261719 1128.835938 C 573.070313 1127.144531 569.675781 1126.289063 566.089844 1126.289063 C 562.496094 1126.289063 559.101563 1127.144531 555.914063 1128.835938 C 552.71875 1130.535156 549.875 1132.875 547.382813 1135.867188 C 544.882813 1138.859375 542.941406 1142.40625 541.546875 1146.492188 C 541.488281 1146.660156 541.429688 1146.835938 541.375 1147.011719 C 539.316406 1153.339844 544.230469 1159.808594 550.882813 1159.808594 Z M 601.398438 1203.796875 C 606.382813 1203.796875 610.722656 1205.699219 614.414063 1209.484375 C 618.105469 1213.28125 619.953125 1217.765625 619.953125 1222.953125 C 619.953125 1225.75 619.101563 1228.640625 617.410156 1231.628906 C 615.710938 1234.621094 612.570313 1237.519531 607.980469 1240.308594 C 602.996094 1243.503906 596.957031 1246.09375 589.878906 1248.089844 C 582.792969 1250.082031 575.460938 1251.082031 567.882813 1251.082031 C 558.304688 1251.082031 549.03125 1249.289063 540.050781 1245.695313 C 531.074219 1242.105469 523.09375 1236.867188 516.109375 1229.984375 C 509.125 1223.101563 503.539063 1214.675781 499.351563 1204.699219 C 495.164063 1194.722656 493.066406 1183.351563 493.066406 1170.578125 C 493.066406 1158.414063 495.011719 1147.34375 498.90625 1137.363281 C 502.792969 1127.390625 508.03125 1118.863281 514.617188 1111.777344 C 521.199219 1104.699219 528.925781 1099.261719 537.804688 1095.46875 C 546.683594 1091.679688 556.109375 1089.785156 566.089844 1089.785156 C 577.058594 1089.785156 587.132813 1092.027344 596.3125 1096.515625 C 605.484375 1101.003906 613.269531 1106.792969 619.65625 1113.871094 C 626.035156 1120.957031 631.027344 1128.835938 634.617188 1137.515625 C 638.207031 1146.195313 640.003906 1154.722656 640.003906 1163.101563 C 640.003906 1172.078125 638.207031 1178.617188 634.617188 1182.703125 C 631.027344 1186.792969 626.632813 1188.835938 621.449219 1188.835938 L 550.503906 1188.835938 C 542.613281 1188.835938 540.378906 1197.617188 545.449219 1203.664063 C 549.441406 1208.433594 556.914063 1214.574219 568.480469 1214.574219 C 572.269531 1214.574219 576.058594 1213.929688 579.855469 1212.628906 C 583.640625 1211.328125 587.035156 1209.6875 590.027344 1207.691406 C 594.015625 1205.097656 597.808594 1203.796875 601.398438 1203.796875 "/>
<path style=" stroke:none;fill-rule:nonzero;fill:rgb(34.910583%,23.925781%,7.835388%);fill-opacity:1;" d="M 416.605469 1159.808594 C 423.4375 1159.808594 428.429688 1152.988281 425.972656 1146.613281 C 425.957031 1146.574219 425.941406 1146.53125 425.925781 1146.492188 C 424.328125 1142.40625 422.285156 1138.859375 419.789063 1135.867188 C 417.289063 1132.875 414.449219 1130.535156 411.261719 1128.835938 C 408.070313 1127.144531 404.675781 1126.289063 401.089844 1126.289063 C 397.496094 1126.289063 394.101563 1127.144531 390.914063 1128.835938 C 387.71875 1130.535156 384.875 1132.875 382.382813 1135.867188 C 379.882813 1138.859375 377.941406 1142.40625 376.546875 1146.492188 C 376.488281 1146.660156 376.429688 1146.835938 376.375 1147.011719 C 374.316406 1153.339844 379.230469 1159.808594 385.882813 1159.808594 Z M 436.398438 1203.796875 C 441.382813 1203.796875 445.722656 1205.699219 449.414063 1209.484375 C 453.105469 1213.28125 454.953125 1217.765625 454.953125 1222.953125 C 454.953125 1225.75 454.101563 1228.640625 452.410156 1231.628906 C 450.710938 1234.621094 447.570313 1237.519531 442.980469 1240.308594 C 437.996094 1243.503906 431.957031 1246.09375 424.878906 1248.089844 C 417.792969 1250.082031 410.460938 1251.082031 402.882813 1251.082031 C 393.304688 1251.082031 384.027344 1249.289063 375.050781 1245.695313 C 366.074219 1242.105469 358.09375 1236.867188 351.109375 1229.984375 C 344.125 1223.101563 338.539063 1214.675781 334.351563 1204.699219 C 330.164063 1194.722656 328.066406 1183.351563 328.066406 1170.578125 C 328.066406 1158.414063 330.011719 1147.34375 333.902344 1137.363281 C 337.792969 1127.390625 343.027344 1118.863281 349.617188 1111.777344 C 356.199219 1104.699219 363.925781 1099.261719 372.804688 1095.46875 C 381.683594 1091.679688 391.109375 1089.785156 401.089844 1089.785156 C 412.058594 1089.785156 422.132813 1092.027344 431.3125 1096.515625 C 440.484375 1101.003906 448.269531 1106.792969 454.652344 1113.871094 C 461.035156 1120.957031 466.027344 1128.835938 469.617188 1137.515625 C 473.207031 1146.195313 475.003906 1154.722656 475.003906 1163.101563 C 475.003906 1172.078125 473.207031 1178.617188 469.617188 1182.703125 C 466.027344 1186.792969 461.632813 1188.835938 456.449219 1188.835938 L 385.503906 1188.835938 C 377.613281 1188.835938 375.378906 1197.617188 380.449219 1203.664063 C 384.441406 1208.433594 391.914063 1214.574219 403.480469 1214.574219 C 407.269531 1214.574219 411.058594 1213.929688 414.855469 1212.628906 C 418.640625 1211.328125 422.035156 1209.6875 425.027344 1207.691406 C 429.015625 1205.097656 432.808594 1203.796875 436.398438 1203.796875 "/>
</g>
</svg>
