<?xml version="1.0" encoding="UTF-8"?>
<svg xmlns="http://www.w3.org/2000/svg" xmlns:xlink="http://www.w3.org/1999/xlink" width="750pt" height="1334pt" viewBox="0 0 750 1334" version="1.1">
<g id="surface1">
<path style=" stroke:none;fill-rule:nonzero;fill:rgb(84.764099%,43.530273%,39.208984%);fill-opacity:1;" d="M 647.542969 762.460938 C 645.917969 746.292969 643.792969 725.132813 629.230469 706.058594 C 599.269531 666.808594 533.660156 659.34375 515.460938 658.503906 C 496.738281 657.640625 484.78125 653.179688 471.90625 639.554688 C 463.765625 630.941406 453.703125 624.359375 444.890625 616.4375 C 424.164063 597.808594 393.96875 587.613281 382.6875 583.804688 C 302.566406 556.746094 232.398438 590.855469 232.394531 590.855469 C 166.296875 622.984375 139.457031 687.664063 124.761719 720.195313 C 122.882813 724.351563 121.011719 728.894531 119.429688 733.601563 C 119.359375 733.730469 119.285156 733.851563 119.214844 733.972656 C 119.214844 733.972656 119.105469 734.160156 119.007813 734.351563 C 116.679688 738.832031 115.488281 743.664063 115.488281 743.667969 C 110.578125 763.621094 106.28125 770.9375 109.777344 781.644531 C 110.613281 784.195313 112.945313 791.339844 119.664063 795.457031 C 121.375 796.503906 124.347656 797.988281 138.578125 797.949219 C 153.890625 797.910156 161.660156 797.792969 167.300781 793.121094 C 170.398438 790.554688 171.820313 787.84375 174.320313 783.082031 C 179.980469 772.304688 181.027344 762.90625 181.644531 759.453125 C 184.539063 743.28125 201.84375 724.488281 222.65625 719.789063 C 244.132813 714.941406 268.761719 725.230469 277.21875 741.191406 C 281.269531 748.84375 282.789063 760.03125 283.480469 765.121094 C 285.398438 779.242188 283.027344 783.921875 286.347656 788.976563 C 289.585938 793.90625 297.925781 798.726563 321.636719 795.832031 C 322.125 795.925781 322.648438 795.972656 323.21875 795.960938 C 326.894531 795.867188 330.566406 795.710938 334.242188 795.539063 C 335.894531 795.558594 337.503906 795.574219 339.015625 795.640625 C 351.027344 796.140625 363.054688 796.238281 375.074219 795.933594 C 382.320313 795.75 389.5625 795.359375 396.796875 794.875 C 402.867188 794.875 408.941406 794.777344 415.007813 794.523438 C 422.917969 794.199219 438.90625 795.878906 445.503906 789.617188 C 450.171875 785.183594 448.835938 778.417969 449.523438 772.636719 C 452.496094 747.726563 487.824219 718.238281 516.902344 725.007813 C 534.882813 729.191406 547.859375 746.636719 552.148438 757.519531 C 556.164063 767.699219 558.488281 778.050781 558.488281 778.050781 C 560.890625 788.75 559.675781 789.425781 561.582031 791.714844 C 565.664063 796.605469 572.613281 795.171875 604.5 794.421875 C 609.863281 794.296875 610.9375 794.308594 614.085938 794.15625 C 630.425781 793.367188 638.59375 792.976563 642.871094 789.472656 C 645.582031 787.253906 649.511719 782.046875 647.542969 762.460938 "/>
<path style=" stroke:none;fill-rule:nonzero;fill:rgb(63.867188%,22.75238%,22.75238%);fill-opacity:1;" d="M 239.574219 709.976563 C 211.1875 709.128906 189.039063 727.945313 182.359375 752.71875 C 179.816406 760.722656 179.304688 769.433594 181.019531 778.324219 C 181.84375 795.171875 190.015625 810.769531 208.171875 818.761719 C 209.375 819.292969 210.480469 819.441406 211.484375 819.347656 C 211.703125 819.421875 211.90625 819.503906 212.128906 819.574219 C 240.386719 828.394531 282.886719 821.527344 291.453125 788.78125 C 300.566406 753.9375 278.433594 711.128906 239.574219 709.976563 "/>
<path style=" stroke:none;fill-rule:nonzero;fill:rgb(80.076599%,22.75238%,21.556091%);fill-opacity:1;" d="M 238.351563 736.175781 C 223.050781 735.71875 211.117188 745.863281 207.515625 759.214844 C 206.144531 763.527344 205.867188 768.222656 206.792969 773.015625 C 207.238281 782.09375 211.640625 790.5 221.425781 794.808594 C 222.074219 795.09375 222.671875 795.175781 223.210938 795.125 C 223.328125 795.160156 223.4375 795.210938 223.558594 795.246094 C 238.789063 800 261.695313 796.296875 266.3125 778.648438 C 271.222656 759.867188 259.296875 736.800781 238.351563 736.175781 "/>
<path style=" stroke:none;fill-rule:nonzero;fill:rgb(63.867188%,22.75238%,22.75238%);fill-opacity:1;" d="M 504.542969 715.882813 C 476.15625 715.035156 454.011719 733.855469 447.328125 758.625 C 444.78125 766.628906 444.273438 775.339844 445.988281 784.234375 C 446.8125 801.078125 454.984375 816.675781 473.140625 824.667969 C 474.34375 825.199219 475.449219 825.351563 476.453125 825.257813 C 476.671875 825.328125 476.875 825.414063 477.097656 825.480469 C 505.355469 834.300781 547.855469 827.433594 556.421875 794.6875 C 565.535156 759.84375 543.402344 717.039063 504.542969 715.882813 "/>
<path style=" stroke:none;fill-rule:nonzero;fill:rgb(80.076599%,22.75238%,21.556091%);fill-opacity:1;" d="M 503.320313 742.082031 C 488.019531 741.628906 476.085938 751.769531 472.480469 765.121094 C 471.109375 769.433594 470.835938 774.128906 471.761719 778.921875 C 472.203125 788 476.609375 796.40625 486.394531 800.714844 C 487.042969 801 487.636719 801.082031 488.179688 801.03125 C 488.296875 801.070313 488.40625 801.113281 488.527344 801.152344 C 503.757813 805.90625 526.664063 802.203125 531.28125 784.554688 C 536.191406 765.773438 524.261719 742.703125 503.320313 742.082031 "/>
<path style=" stroke:none;fill-rule:nonzero;fill:rgb(80.076599%,22.75238%,21.556091%);fill-opacity:1;" d="M 628.28125 704.84375 C 614.695313 686.511719 595.300781 675.921875 573.773438 669.4375 C 572.425781 669.03125 571.558594 670.226563 571.660156 671.296875 C 571.652344 671.382813 571.613281 671.445313 571.613281 671.539063 C 571.617188 673.878906 571.765625 676.195313 571.984375 678.507813 C 572.136719 687.753906 573.898438 697.3125 582.890625 702.804688 C 591.085938 707.804688 602.324219 708.171875 612.726563 707.679688 C 614.035156 707.683594 615.347656 707.636719 616.65625 707.574219 C 619.714844 707.660156 622.785156 707.65625 625.867188 707.621094 C 626.253906 707.644531 626.621094 707.699219 627.015625 707.714844 C 628.636719 707.78125 629.101563 705.945313 628.28125 704.84375 "/>
<path style=" stroke:none;fill-rule:nonzero;fill:rgb(80.076599%,22.75238%,21.556091%);fill-opacity:1;" d="M 434.90625 647.859375 C 431.269531 635.273438 419.324219 625.585938 405.921875 626.140625 C 392.605469 626.691406 381.203125 637.070313 378.683594 649.992188 C 377.660156 655.230469 385.6875 657.472656 386.71875 652.207031 C 388.535156 642.886719 396.117188 635.027344 405.921875 634.472656 C 415.613281 633.921875 424.253906 641.015625 426.871094 650.074219 C 428.355469 655.214844 436.398438 653.03125 434.90625 647.859375 "/>
<path style=" stroke:none;fill-rule:nonzero;fill:rgb(95.701599%,70.117188%,68.164063%);fill-opacity:1;" d="M 376.164063 665.320313 C 375.335938 665.484375 374.71875 665.851563 374.289063 666.332031 C 373.15625 667.003906 372.320313 668.09375 371.9375 669.542969 C 371.449219 671.367188 372.539063 673.664063 374.503906 674.066406 C 378.492188 674.882813 382.554688 675.304688 386.628906 675.070313 C 389.910156 674.882813 394.050781 674.285156 394.59375 670.273438 C 395.769531 661.507813 380.644531 664.425781 376.164063 665.320313 "/>
<path style=" stroke:none;fill-rule:nonzero;fill:rgb(80.076599%,22.75238%,21.556091%);fill-opacity:1;" d="M 350.289063 618.414063 C 350.191406 610.863281 353.0625 595.894531 343.125 593.585938 C 339.007813 592.628906 334.304688 593.023438 330.113281 593.054688 C 325.351563 593.089844 320.59375 593.308594 315.847656 593.710938 C 279.191406 596.796875 243.277344 610.003906 213.644531 632.199219 C 203.460938 639.832031 193.894531 648.332031 186.289063 658.371094 C 179.75 665.351563 174.460938 673.621094 170.902344 683.179688 C 170.769531 683.351563 170.636719 683.515625 170.511719 683.6875 C 169.519531 685.019531 169.308594 686.464844 169.609375 687.820313 C 169.542969 692.050781 174.1875 694.367188 177.898438 693.242188 C 233.566406 695.820313 289.339844 695.40625 344.964844 691.996094 C 348.277344 691.792969 351.21875 689.277344 351.171875 685.703125 C 350.878906 663.273438 350.585938 640.847656 350.289063 618.414063 "/>
<path style=" stroke:none;fill-rule:nonzero;fill:rgb(80.076599%,22.75238%,21.556091%);fill-opacity:1;" d="M 391.269531 713.933594 L 368.382813 713.933594 C 365.039063 713.933594 365.035156 719.121094 368.382813 719.121094 L 391.269531 719.121094 C 394.609375 719.121094 394.613281 713.933594 391.269531 713.933594 "/>
<path style=" stroke:none;fill-rule:nonzero;fill:rgb(80.076599%,22.75238%,21.556091%);fill-opacity:1;" d="M 382.863281 723.585938 L 368.558594 723.585938 C 365.21875 723.585938 365.214844 728.773438 368.558594 728.773438 L 382.863281 728.773438 C 386.203125 728.773438 386.210938 723.585938 382.863281 723.585938 "/>
<path style=" stroke:none;fill-rule:nonzero;fill:rgb(80.076599%,22.75238%,21.556091%);fill-opacity:1;" d="M 351.480469 715.394531 L 351.480469 782.996094 C 351.480469 785.917969 356.671875 785.921875 356.671875 782.996094 L 356.671875 715.394531 C 356.671875 712.472656 351.480469 712.46875 351.480469 715.394531 "/>
<path style=" stroke:none;fill-rule:nonzero;fill:rgb(80.076599%,22.75238%,21.556091%);fill-opacity:1;" d="M 258.585938 217.179688 C 265.546875 217.179688 271.582031 219.320313 276.695313 223.589844 C 281.796875 227.871094 284.355469 233.199219 284.355469 239.558594 C 284.355469 242.351563 283.597656 245.191406 282.089844 248.070313 C 280.578125 250.949219 277.503906 254.390625 272.863281 258.359375 C 264.035156 265.730469 252.953125 271.898438 239.605469 276.871094 C 226.25 281.839844 211.335938 284.328125 194.855469 284.328125 C 178.136719 284.328125 162.347656 281.539063 147.492188 275.980469 C 132.632813 270.410156 119.746094 262.648438 108.835938 252.691406 C 97.917969 242.75 89.273438 231.011719 82.894531 217.46875 C 76.503906 203.941406 73.3125 189.121094 73.3125 173 C 73.3125 156.878906 76.445313 142.011719 82.71875 128.378906 C 88.984375 114.75 97.632813 102.960938 108.660156 93.011719 C 119.6875 83.058594 132.570313 75.25 147.316406 69.578125 C 162.058594 63.910156 177.902344 61.078125 194.855469 61.078125 C 209.480469 61.078125 223.0625 63.160156 235.601563 67.339844 C 248.136719 71.519531 259.628906 77.390625 270.074219 84.949219 C 273.089844 87.148438 275.300781 89.679688 276.695313 92.570313 C 278.085938 95.449219 278.78125 98.378906 278.78125 101.371094 C 278.78125 106.941406 276.347656 111.871094 271.46875 116.140625 C 266.59375 120.429688 260.671875 122.558594 253.707031 122.558594 C 250.6875 122.558594 247.667969 122.070313 244.65625 121.070313 C 241.636719 120.070313 238.386719 118.191406 234.902344 115.398438 C 229.796875 111.421875 223.8125 108.230469 216.96875 105.851563 C 210.117188 103.460938 202.980469 102.261719 195.550781 102.261719 C 186.496094 102.261719 177.902344 104.011719 169.78125 107.488281 C 161.648438 110.96875 154.511719 115.800781 148.359375 121.960938 C 142.210938 128.128906 137.332031 135.449219 133.734375 143.898438 C 130.136719 152.359375 128.339844 161.46875 128.339844 171.210938 C 128.339844 181.160156 130.136719 190.511719 133.734375 199.269531 C 137.332031 208.03125 142.210938 215.679688 148.359375 222.25 C 154.511719 228.820313 161.648438 233.988281 169.78125 237.769531 C 177.902344 241.550781 186.496094 243.441406 195.550781 243.441406 C 203.90625 243.441406 211.6875 241.898438 218.882813 238.808594 C 226.078125 235.730469 232.117188 231.800781 236.992188 227.03125 C 240.703125 223.441406 244.308594 220.910156 247.785156 219.410156 C 251.269531 217.921875 254.867188 217.179688 258.585938 217.179688 "/>
<path style=" stroke:none;fill-rule:nonzero;fill:rgb(80.076599%,22.75238%,21.556091%);fill-opacity:1;" d="M 299.269531 1185.957031 C 306.046875 1185.957031 311.921875 1188.039063 316.898438 1192.203125 C 321.867188 1196.371094 324.355469 1201.550781 324.355469 1207.75 C 324.355469 1210.464844 323.621094 1213.226563 322.148438 1216.027344 C 320.679688 1218.839844 317.683594 1222.183594 313.164063 1226.054688 C 304.578125 1233.222656 293.785156 1239.226563 280.792969 1244.066406 C 267.789063 1248.90625 253.273438 1251.332031 237.230469 1251.332031 C 220.957031 1251.332031 205.585938 1248.617188 191.121094 1243.195313 C 176.65625 1237.773438 164.117188 1230.222656 153.492188 1220.53125 C 142.867188 1210.847656 134.449219 1199.421875 128.238281 1186.25 C 122.019531 1173.078125 118.914063 1158.644531 118.914063 1142.957031 C 118.914063 1127.265625 121.964844 1112.789063 128.066406 1099.519531 C 134.171875 1086.253906 142.589844 1074.777344 153.324219 1065.089844 C 164.054688 1055.40625 176.601563 1047.800781 190.953125 1042.28125 C 205.304688 1036.761719 220.730469 1034 237.230469 1034 C 251.464844 1034 264.6875 1036.03125 276.894531 1040.101563 C 289.097656 1044.167969 300.285156 1049.886719 310.453125 1057.242188 C 313.390625 1059.378906 315.539063 1061.847656 316.898438 1064.652344 C 318.253906 1067.464844 318.929688 1070.316406 318.929688 1073.226563 C 318.929688 1078.648438 316.558594 1083.441406 311.8125 1087.605469 C 307.0625 1091.773438 301.300781 1093.851563 294.519531 1093.851563 C 291.582031 1093.851563 288.640625 1093.371094 285.710938 1092.402344 C 282.769531 1091.433594 279.605469 1089.59375 276.214844 1086.878906 C 271.242188 1083.007813 265.421875 1079.90625 258.753906 1077.582031 C 252.089844 1075.257813 245.140625 1074.097656 237.90625 1074.097656 C 229.09375 1074.097656 220.730469 1075.792969 212.820313 1079.179688 C 204.90625 1082.570313 197.953125 1087.269531 191.96875 1093.273438 C 185.980469 1099.277344 181.234375 1106.398438 177.730469 1114.628906 C 174.226563 1122.863281 172.480469 1131.726563 172.480469 1141.214844 C 172.480469 1150.898438 174.226563 1160.003906 177.730469 1168.523438 C 181.234375 1177.050781 185.980469 1184.507813 191.96875 1190.894531 C 197.953125 1197.289063 204.90625 1202.328125 212.820313 1206.007813 C 220.730469 1209.6875 229.09375 1211.527344 237.90625 1211.527344 C 246.042969 1211.527344 253.613281 1210.027344 260.621094 1207.023438 C 267.621094 1204.019531 273.503906 1200.195313 278.246094 1195.546875 C 281.863281 1192.058594 285.371094 1189.589844 288.757813 1188.136719 C 292.148438 1186.683594 295.648438 1185.957031 299.269531 1185.957031 "/>
<path style=" stroke:none;fill-rule:nonzero;fill:rgb(80.076599%,22.75238%,21.556091%);fill-opacity:1;" d="M 437.253906 151.210938 C 437.253906 156.199219 435.460938 160.640625 431.867188 164.53125 C 428.277344 168.421875 423.683594 170.359375 418.101563 170.359375 C 414.511719 170.359375 410.816406 169.171875 407.027344 166.769531 C 403.636719 164.578125 400.191406 163.089844 396.703125 162.28125 C 393.210938 161.488281 390.164063 161.089844 387.574219 161.089844 C 382.789063 161.089844 378.347656 162.191406 374.257813 164.378906 C 370.167969 166.578125 366.675781 169.570313 363.785156 173.359375 C 360.890625 177.148438 358.648438 181.640625 357.050781 186.820313 C 355.453125 192.011719 354.65625 197.601563 354.65625 203.578125 C 354.65625 209.570313 355.453125 215.25 357.050781 220.640625 C 358.648438 226.03125 360.890625 230.71875 363.785156 234.710938 C 366.675781 238.699219 370.117188 241.839844 374.109375 244.128906 C 378.097656 246.429688 382.488281 247.570313 387.277344 247.570313 C 390.066406 247.570313 393.0625 247.179688 396.257813 246.378906 C 399.445313 245.578125 402.636719 244.078125 405.832031 241.890625 C 409.820313 239.101563 413.710938 237.699219 417.503906 237.699219 C 422.289063 237.699219 426.628906 239.488281 430.523438 243.078125 C 434.410156 246.671875 436.355469 251.160156 436.355469 256.550781 C 436.355469 259.539063 435.503906 262.488281 433.8125 265.378906 C 432.117188 268.269531 429.171875 271.121094 424.984375 273.910156 C 420.394531 276.898438 414.707031 279.339844 407.925781 281.238281 C 401.140625 283.128906 393.757813 284.078125 385.78125 284.078125 C 375.203125 284.078125 365.179688 282.289063 355.707031 278.699219 C 346.230469 275.109375 337.996094 269.921875 331.015625 263.128906 C 324.03125 256.351563 318.496094 247.96875 314.40625 238 C 310.316406 228.019531 308.273438 216.75 308.273438 204.179688 C 308.273438 191.609375 310.265625 180.289063 314.257813 170.210938 C 318.246094 160.140625 323.6875 151.558594 330.566406 144.480469 C 337.449219 137.398438 345.578125 131.910156 354.957031 128.019531 C 364.332031 124.128906 374.410156 122.179688 385.183594 122.179688 C 393.757813 122.179688 401.59375 123.339844 408.671875 125.628906 C 415.753906 127.921875 421.691406 130.761719 426.480469 134.160156 C 430.46875 136.949219 433.261719 139.789063 434.859375 142.679688 C 436.453125 145.578125 437.253906 148.421875 437.253906 151.210938 "/>
<path style=" stroke:none;fill-rule:nonzero;fill:rgb(80.076599%,22.75238%,21.556091%);fill-opacity:1;" d="M 576.535156 1105.527344 C 577.429688 1108.464844 581.089844 1108.59375 582.71875 1105.988281 C 585.199219 1102.011719 588.5 1099.132813 591.09375 1097.035156 C 593.683594 1094.941406 596.378906 1093.25 599.175781 1091.949219 C 601.964844 1090.652344 604.960938 1090.003906 608.152344 1090.003906 C 613.539063 1090.003906 618.277344 1091.898438 622.367188 1095.6875 C 626.453125 1099.480469 628.503906 1104.269531 628.503906 1110.050781 C 628.503906 1114.839844 626.953125 1119.382813 623.863281 1123.671875 C 620.765625 1127.964844 616.128906 1130.105469 609.945313 1130.105469 C 605.355469 1130.105469 601.316406 1131.449219 597.828125 1134.140625 C 594.335938 1136.835938 591.394531 1140.429688 589 1144.917969 C 586.605469 1149.40625 584.8125 1154.492188 583.613281 1160.179688 C 582.414063 1165.863281 581.816406 1171.699219 581.816406 1177.683594 L 581.816406 1227.660156 C 581.816406 1234.050781 579.472656 1239.585938 574.785156 1244.269531 C 570.097656 1248.957031 564.558594 1251.300781 558.175781 1251.300781 C 551.59375 1251.300781 545.953125 1248.957031 541.269531 1244.269531 C 536.578125 1239.585938 534.234375 1234.050781 534.234375 1227.660156 L 534.234375 1112.148438 C 534.234375 1105.964844 536.378906 1100.726563 540.671875 1096.4375 C 544.957031 1092.148438 550.195313 1090.003906 556.382813 1090.003906 C 562.164063 1090.003906 567.199219 1092 571.492188 1095.988281 C 573.679688 1098.023438 575.359375 1101.660156 576.535156 1105.527344 "/>
<path style=" stroke:none;fill-rule:nonzero;fill:rgb(80.076599%,22.75238%,21.556091%);fill-opacity:1;" d="M 474.359375 1103.261719 C 480.960938 1103.261719 486.65625 1105.722656 491.445313 1110.628906 C 495.722656 1115.007813 498 1120.972656 498 1127.089844 L 498 1228.652344 C 498 1235.039063 495.703125 1240.523438 491.117188 1245.113281 C 486.523438 1249.703125 481.039063 1251.996094 474.660156 1251.996094 C 470.867188 1251.996094 462.429688 1249.90625 458.859375 1243.773438 C 455.675781 1238.300781 448.355469 1237.164063 443.871094 1241.636719 C 440.921875 1244.574219 437.71875 1247.234375 434.257813 1248.253906 C 426.480469 1250.546875 419.492188 1251.695313 413.308594 1251.695313 C 392.757813 1251.695313 377.78125 1244.414063 363.21875 1229.851563 C 348.65625 1215.285156 341.375 1197.730469 341.375 1177.179688 C 341.375 1156.636719 348.65625 1139.128906 363.21875 1124.660156 C 377.78125 1110.199219 392.757813 1102.964844 413.308594 1102.964844 C 419.492188 1102.964844 426.523438 1104.113281 434.40625 1106.40625 C 437.964844 1107.445313 441.253906 1109.644531 444.261719 1112.058594 C 449.050781 1115.902344 455.96875 1114.804688 459.535156 1109.804688 C 463.394531 1104.390625 470.566406 1103.261719 474.359375 1103.261719 "/>
<path style=" stroke:none;fill-rule:nonzero;fill:rgb(100%,100%,100%);fill-opacity:1;" d="M 386.191406 1177.328125 C 386.191406 1183.316406 386.886719 1188.804688 388.285156 1193.789063 C 389.679688 1198.78125 391.578125 1203.167969 393.972656 1206.957031 C 396.363281 1210.75 399.207031 1213.6875 402.5 1215.785156 C 405.792969 1217.878906 409.335938 1218.929688 413.125 1218.929688 C 416.910156 1218.929688 420.457031 1217.878906 423.746094 1215.785156 C 427.039063 1213.6875 429.882813 1210.75 432.277344 1206.957031 C 434.671875 1203.167969 436.5625 1198.78125 437.964844 1193.789063 C 439.355469 1188.804688 440.058594 1183.316406 440.058594 1177.328125 C 440.058594 1171.34375 439.355469 1165.859375 437.964844 1160.871094 C 436.5625 1155.886719 434.671875 1151.546875 432.277344 1147.855469 C 429.882813 1144.164063 427.039063 1141.269531 423.746094 1139.175781 C 420.457031 1137.082031 416.910156 1136.03125 413.125 1136.03125 C 409.335938 1136.03125 405.792969 1137.082031 402.5 1139.175781 C 399.207031 1141.269531 396.363281 1144.164063 393.972656 1147.855469 C 391.578125 1151.546875 389.679688 1155.886719 388.285156 1160.871094 C 386.886719 1165.859375 386.191406 1171.34375 386.191406 1177.328125 "/>
</g>
</svg>
