<?xml version="1.0" encoding="UTF-8"?>
<svg xmlns="http://www.w3.org/2000/svg" xmlns:xlink="http://www.w3.org/1999/xlink" width="750pt" height="1334pt" viewBox="0 0 750 1334" version="1.1">
<g id="surface1">
<path style=" stroke:none;fill-rule:nonzero;fill:rgb(56.054688%,63.867188%,27.43988%);fill-opacity:1;" d="M 550.476563 537.792969 C 548.984375 535.488281 547.03125 533.382813 545.148438 531.609375 C 543.75 530.292969 541.980469 528.824219 540.054688 527.546875 C 535.804688 524.023438 528.382813 518.671875 524.445313 522.570313 C 519.808594 527.160156 521.917969 539.730469 523.082031 545.609375 C 523.855469 549.523438 524.582031 555.820313 527.308594 559.238281 C 527.46875 559.488281 527.636719 559.710938 527.8125 559.914063 C 527.820313 559.921875 527.824219 559.925781 527.828125 559.933594 C 528.90625 561.1875 530.269531 561.6875 531.882813 561.640625 C 531.902344 561.640625 531.917969 561.648438 531.9375 561.648438 C 535.8125 561.648438 540.699219 559.785156 544.800781 557.039063 C 549.214844 554.699219 553.535156 551.371094 554.144531 546.878906 C 554.53125 544.011719 552.804688 540.789063 550.476563 537.792969 "/>
<path style=" stroke:none;fill-rule:nonzero;fill:rgb(56.054688%,63.867188%,27.43988%);fill-opacity:1;" d="M 583.136719 530.589844 C 582.601563 527.90625 581.578125 525.25 580.503906 522.925781 C 579.703125 521.203125 578.625 519.203125 577.335938 517.332031 C 574.738281 512.535156 569.921875 504.910156 565 507.160156 C 559.207031 509.8125 556.699219 522.308594 555.683594 528.214844 C 555.011719 532.148438 553.449219 538.289063 554.710938 542.449219 C 554.765625 542.738281 554.84375 543.003906 554.929688 543.257813 C 554.933594 543.265625 554.933594 543.273438 554.9375 543.277344 C 555.464844 544.835938 556.519531 545.785156 557.992188 546.308594 C 558.011719 546.316406 558.023438 546.328125 558.039063 546.339844 C 561.53125 547.703125 566.597656 547.691406 571.261719 546.574219 C 576.0625 545.945313 581.128906 544.363281 583.253906 540.378906 C 584.613281 537.835938 584.1875 534.214844 583.136719 530.589844 "/>
<path style=" stroke:none;fill-rule:nonzero;fill:rgb(56.054688%,63.867188%,27.43988%);fill-opacity:1;" d="M 618 536.523438 C 618.519531 533.808594 618.546875 530.898438 618.390625 528.273438 C 618.273438 526.324219 617.988281 524 617.445313 521.695313 C 616.753906 516.113281 614.976563 506.925781 609.234375 506.808594 C 602.476563 506.667969 595.113281 517.074219 591.808594 522.074219 C 589.605469 525.402344 585.667969 530.375 585.289063 534.773438 C 585.230469 535.066406 585.203125 535.34375 585.1875 535.617188 C 585.1875 535.625 585.1875 535.632813 585.1875 535.640625 C 585.101563 537.3125 585.773438 538.660156 587.023438 539.800781 C 587.039063 539.8125 587.042969 539.832031 587.058594 539.847656 C 589.976563 542.667969 594.984375 544.917969 600.027344 545.96875 C 605.015625 547.53125 610.636719 548.335938 614.292969 545.605469 C 616.628906 543.867188 617.621094 540.335938 618 536.523438 "/>
<path style=" stroke:none;fill-rule:nonzero;fill:rgb(56.054688%,63.867188%,27.43988%);fill-opacity:1;" d="M 449.078125 719.183594 C 446.738281 716.5625 443.195313 714.980469 439.207031 715.945313 C 427.296875 718.824219 415.328125 721.203125 403.273438 723.027344 C 401.828125 720.074219 398.988281 717.851563 394.695313 717.851563 L 358.082031 717.851563 C 355.925781 717.851563 354.160156 718.445313 352.722656 719.375 C 334.910156 719.457031 317.101563 719.640625 299.289063 719.984375 C 296.511719 720.035156 294.039063 721.347656 292.222656 723.269531 C 283.757813 724.886719 281.453125 739.460938 291.808594 743.082031 C 343.828125 761.28125 399.046875 758.234375 449.230469 735.847656 C 457.308594 732.246094 455.0625 722.988281 449.078125 719.183594 "/>
<path style=" stroke:none;fill-rule:nonzero;fill:rgb(34.521484%,42.747498%,16.868591%);fill-opacity:1;" d="M 605.804688 531.28125 C 567.679688 526.125 530.28125 546.226563 514.214844 581.40625 C 505.980469 599.441406 500.644531 617.375 477.160156 615.0625 C 463.808594 613.746094 453.117188 607.210938 440.699219 603.234375 C 419.148438 596.332031 398.46875 588.523438 375.445313 586.558594 C 352.113281 584.570313 329.109375 587.765625 308.15625 600.1875 C 287.199219 612.609375 273.464844 635.585938 259.070313 654.722656 C 239.058594 681.328125 214.40625 703.296875 180.4375 706.882813 C 147.867188 710.320313 123.421875 690.125 93.933594 681.035156 C 90.375 679.941406 88.015625 683.765625 89.453125 686.769531 C 120.484375 751.582031 192.457031 754.738281 252.78125 734.09375 C 253.234375 746.464844 252.820313 758.089844 253.402344 770.722656 C 253.726563 777.753906 251.742188 786.585938 256.761719 793.046875 C 265.132813 803.808594 280.785156 801.921875 293.113281 800.070313 C 299.695313 799.769531 305.070313 799.144531 309.230469 793.746094 C 314.996094 787.242188 315.257813 780.191406 314.714844 771.652344 C 314.476563 767.898438 314.222656 763.296875 314.269531 759.324219 C 318.785156 739.273438 323.105469 732.296875 344.046875 726.203125 C 360.925781 721.289063 380.386719 721.925781 398.199219 724.203125 C 404.875 725.058594 411.90625 727.128906 418.335938 729.109375 C 425.394531 733.261719 430.738281 737.902344 434.363281 745.273438 C 435.269531 750.460938 435.03125 754.769531 435.246094 760.207031 C 435.617188 769.378906 434.617188 780.019531 439.5 788.496094 C 444.386719 796.976563 453.082031 798.308594 462.472656 798.878906 C 468.683594 799.253906 476.078125 799.421875 482.488281 798.886719 C 486.628906 798.902344 490.929688 798.574219 494.433594 796.527344 C 496.789063 795.148438 497.542969 793.535156 498.644531 791.285156 C 498.671875 791.230469 498.65625 791.238281 498.714844 791.121094 C 498.773438 791.011719 498.839844 790.925781 498.921875 790.746094 C 499.84375 788.703125 500.597656 787.753906 500.972656 785.253906 C 503.382813 769.203125 500.65625 752.484375 500.042969 736.15625 C 499.699219 727.054688 500.617188 717.820313 501.167969 708.644531 C 501.285156 706.660156 501.519531 704.410156 501.828125 702.3125 C 501.933594 701.59375 501.832031 700.976563 502.03125 700.074219 C 503.816406 691.945313 507.027344 684.617188 512.0625 677.730469 C 515.949219 672.414063 521.011719 667.683594 526.421875 663.832031 C 528.300781 662.496094 529.585938 661.371094 531.65625 660.164063 C 536.433594 657.367188 541.5625 655.636719 547.101563 654.917969 C 560.238281 653.21875 578.746094 655.992188 578.746094 655.992188 C 604.855469 659.894531 629.136719 642.015625 632.40625 639.542969 C 638.367188 635.035156 652.414063 624.085938 657.789063 604.066406 C 659.433594 597.929688 663.773438 577.890625 652.539063 559.101563 C 638.90625 536.300781 612.339844 532.167969 605.804688 531.28125 "/>
<path style=" stroke:none;fill-rule:nonzero;fill:rgb(56.054688%,63.867188%,27.43988%);fill-opacity:1;" d="M 499.460938 599.976563 C 497.742188 598.9375 496.132813 598.484375 494.464844 597.609375 C 491.582031 596.097656 489.363281 594.503906 486.546875 592.660156 C 483.960938 590.972656 481.289063 589.242188 477.933594 589.796875 C 477.828125 589.8125 477.761719 589.894531 477.664063 589.945313 C 477.570313 589.996094 477.480469 590.046875 477.386719 590.121094 C 475.523438 591.632813 474.730469 593.417969 474.429688 595.769531 C 474.039063 598.785156 473.828125 601.742188 473.097656 604.710938 C 472.847656 605.0625 472.308594 605.628906 471.910156 605.675781 C 471.515625 605.722656 471.449219 605.621094 471.296875 605.355469 C 470.535156 604.011719 470.414063 603.054688 469.707031 601.488281 C 467.898438 597.488281 468.519531 590.660156 463.15625 589.28125 C 457.792969 587.902344 455.738281 595.824219 454.074219 599.574219 C 452.988281 600.113281 452.21875 599.996094 451.753906 598.894531 C 451.5625 598.4375 451.464844 598.148438 451.085938 597.828125 C 450.714844 596.578125 450.351563 595.394531 449.957031 594.128906 C 449.78125 593.574219 449.769531 593.027344 449.636719 592.382813 C 449.039063 589.460938 448.925781 585.761719 445.765625 584.503906 C 443.433594 583.574219 442.085938 585.699219 440.601563 587.101563 C 440.253906 587.429688 440.078125 587.925781 439.703125 588.253906 C 437.644531 590.058594 435.78125 592.085938 433.867188 594.046875 C 432.367188 594.132813 431.089844 593.960938 429.722656 593.308594 C 428.230469 588.152344 426.832031 583.144531 423.914063 578.648438 C 423.265625 577.648438 422.757813 577.269531 422.011719 576.4375 C 421.292969 575.644531 420.675781 575.171875 419.53125 575.4375 C 417.730469 575.453125 416.464844 575.894531 414.851563 576.789063 C 412.058594 578.347656 409.546875 580.425781 407.03125 582.476563 C 406.113281 583.230469 404.882813 583.726563 403.898438 584.414063 C 402.980469 584.453125 402.128906 584.371094 401.234375 584.179688 C 400.839844 583.496094 400.226563 582.890625 400.054688 582.109375 C 399.792969 580.929688 399.664063 579.648438 399.574219 578.480469 C 399.402344 576.164063 399.363281 573.894531 399.128906 571.625 C 399.066406 571.0625 398.835938 570.613281 398.769531 570.09375 C 398.566406 568.519531 398.359375 566.957031 398.039063 565.429688 C 397.898438 564.769531 397.90625 564.117188 397.78125 563.492188 C 397.59375 562.558594 397.191406 562.269531 396.40625 561.828125 C 395.382813 561.253906 394.964844 560.660156 393.605469 560.9375 C 392.246094 561.210938 391.1875 562.445313 390.167969 563.398438 C 388.632813 564.835938 386.855469 566.59375 385.507813 568.050781 C 383.800781 569.898438 382.414063 571.351563 380.847656 573.1875 C 379.878906 573.734375 379.046875 574.492188 378.042969 575.023438 C 377.6875 575.210938 377.421875 575.492188 376.9375 575.332031 C 375.765625 574.945313 375.03125 574.488281 374.253906 573.339844 C 372.929688 571.390625 371.582031 569.121094 370.058594 567.195313 C 369.480469 566.464844 369.027344 565.628906 368.402344 564.863281 C 366.4375 562.453125 364.878906 559.359375 361.296875 559.574219 C 357.714844 559.785156 356.621094 563.285156 355.0625 565.984375 C 354.464844 567.019531 353.664063 568 353.070313 568.984375 C 351.78125 571.113281 350.699219 573.261719 349.550781 575.4375 C 349.125 576.242188 348.378906 576.714844 347.800781 577.394531 C 347.085938 577.371094 346.386719 577.261719 345.730469 577.046875 C 344.007813 574.992188 343.011719 573.339844 340.898438 571.367188 C 338.78125 569.394531 336.121094 565.714844 332.597656 566.335938 C 329.070313 566.953125 328.511719 571.292969 327.695313 574.105469 C 327.015625 576.441406 326.777344 578.375 326.351563 580.675781 C 326.253906 581.195313 326.078125 581.53125 325.863281 582.128906 C 325.648438 582.726563 325.253906 583.664063 324.886719 584.273438 C 323.753906 584.074219 322.871094 583.90625 321.820313 583.328125 C 320.769531 582.746094 319.796875 582.074219 318.640625 581.378906 C 314.640625 578.964844 309.632813 572.816406 304.511719 575.992188 C 298.503906 579.71875 301.28125 588.605469 301.652344 594.492188 C 301.585938 594.917969 301.453125 595.269531 301.226563 595.539063 C 300.351563 596.578125 299.402344 596.726563 298.109375 596.710938 C 294.503906 595.339844 291.078125 594.097656 287.152344 593.980469 C 285.300781 593.925781 283.394531 592.648438 281.894531 594.609375 C 277.4375 600.433594 279.441406 607.671875 280.84375 614.449219 C 280.871094 614.589844 280.921875 614.746094 280.871094 614.878906 C 280.273438 616.554688 279.507813 617.519531 277.65625 617.535156 C 277.324219 617.539063 277.027344 617.601563 276.726563 617.585938 C 274.648438 617.449219 272.640625 617.242188 270.550781 617.191406 C 269.503906 617.167969 268.386719 617.160156 267.324219 617.207031 C 267.179688 617.214844 267.011719 617.144531 266.863281 617.148438 C 263.894531 617.261719 261.296875 616.484375 259.597656 619.648438 C 257.898438 622.8125 258.808594 626.964844 259.050781 630.460938 C 259.15625 631.984375 259.355469 633.335938 259.507813 634.8125 C 259.023438 636.609375 258.394531 637.96875 256.738281 638.914063 C 256.582031 639.007813 256.5 639.121094 256.347656 639.144531 C 254.117188 639.460938 251.996094 639.414063 249.734375 639.820313 C 247.476563 640.226563 245.054688 640.160156 243.765625 642.519531 C 242.25 645.289063 243.320313 649.0625 243.675781 651.9375 C 244.03125 654.808594 244.488281 657.023438 244.988281 659.742188 C 244.839844 660.671875 244.566406 661.371094 243.742188 661.914063 C 239.484375 659.992188 235.683594 658.4375 230.921875 658.957031 C 229.285156 658.898438 227.363281 658.46875 226.105469 659.785156 C 224.078125 661.90625 224.414063 665.296875 224.117188 667.824219 C 223.679688 671.53125 223.371094 674.578125 223.136719 678.171875 C 222.617188 678.851563 222.023438 679.410156 221.25 679.789063 C 218.085938 678.878906 215.386719 677.691406 212.101563 676.871094 C 208.816406 676.050781 205.980469 673.769531 202.417969 675.871094 C 198.859375 677.976563 197.964844 683.085938 197.296875 687.007813 C 197.015625 687.4375 196.800781 687.808594 196.472656 688.144531 C 192.496094 685.34375 188.097656 682.007813 183.097656 682.808594 C 178.09375 683.613281 177.410156 687.351563 175.722656 691.324219 C 175.71875 691.332031 175.738281 691.371094 175.730469 691.378906 C 175.371094 691.722656 175.035156 692.070313 174.675781 692.421875 C 173.765625 692.09375 172.746094 691.976563 172.117188 691.179688 C 171.0625 689.832031 170.550781 688.589844 169.519531 687.105469 C 168.488281 685.617188 167.546875 683.652344 165.472656 683.238281 C 164.128906 682.96875 162.90625 683.621094 161.75 684.289063 C 157.847656 686.539063 154.605469 689.617188 151.007813 692.300781 C 150.558594 692.09375 150 691.894531 149.757813 691.4375 C 147.402344 687.003906 146.378906 682.152344 143.058594 678.289063 C 142.726563 677.902344 142.132813 677.84375 141.695313 677.746094 C 140.636719 677.507813 139.761719 677.691406 138.753906 677.96875 C 135.800781 680.839844 133.410156 684.269531 130.550781 687.203125 C 129.589844 688.1875 128.171875 687.9375 127.503906 686.847656 C 125.632813 683.796875 125.421875 679.878906 124.066406 676.746094 C 121.910156 671.769531 119.441406 671.699219 114.835938 674.105469 C 113.261719 674.929688 111.464844 676.835938 110.191406 678.230469 C 110.042969 678.390625 109.894531 678.765625 109.773438 678.871094 C 109.65625 678.984375 109.609375 679.015625 109.558594 679.09375 C 109.132813 679.714844 108.785156 680.273438 108.375 680.898438 C 107.730469 681.886719 106.941406 682.421875 106.425781 683.605469 C 105.910156 684.792969 106.058594 686.390625 106.285156 687.714844 C 107.050781 688.511719 107.574219 689.378906 108.480469 690.046875 C 110.636719 691.644531 113.078125 692.847656 115.476563 694.054688 C 116.226563 694.84375 116.695313 695.535156 117.835938 695.839844 C 139.816406 701.691406 161.304688 709.191406 184.46875 706.75 C 198.96875 705.222656 211.46875 698.378906 223.933594 691.058594 C 226.21875 689.714844 228.53125 688.089844 230.746094 686.632813 C 230.96875 686.488281 231.160156 686.316406 231.371094 686.15625 C 233.371094 684.621094 235.328125 683.023438 237.234375 681.371094 C 246.460938 674.492188 252.5625 666.140625 258.546875 656.425781 C 259.015625 655.910156 259.425781 655.386719 259.898438 654.867188 C 260.054688 654.695313 260.234375 654.5625 260.386719 654.355469 C 268.152344 643.628906 276.835938 634.027344 286.472656 624.945313 C 287.070313 624.707031 287.445313 624.355469 287.757813 623.800781 C 289.285156 622.453125 290.675781 621.152344 292.25 619.824219 C 302.144531 611.460938 312.175781 603.460938 323.234375 596.652344 C 329.492188 593.960938 335.8125 591.589844 342.339844 589.636719 C 359.089844 587.953125 374.535156 589.539063 390.804688 593.738281 C 394.121094 595.261719 397.40625 596.839844 400.691406 598.429688 C 400.699219 598.433594 400.707031 598.433594 400.71875 598.4375 C 412.042969 602.980469 423.421875 607.347656 434.894531 611.503906 C 438.378906 612.765625 442.09375 613.3125 445.726563 613.992188 C 447.027344 614.238281 448.335938 614.324219 449.625 614.621094 C 449.921875 614.6875 450.109375 614.894531 450.425781 614.96875 C 458.039063 616.746094 465.542969 617.179688 473.347656 617.402344 C 483.308594 618.179688 492.265625 615.398438 499.464844 608.371094 C 499.707031 608.132813 499.765625 607.929688 499.933594 607.746094 C 501.023438 606.5625 502.726563 605.519531 502.8125 603.832031 C 502.914063 601.785156 500.859375 600.820313 499.460938 599.976563 "/>
<path style=" stroke:none;fill-rule:nonzero;fill:rgb(50.976563%,57.617188%,32.151794%);fill-opacity:1;" d="M 627.765625 574.652344 C 625.097656 569.980469 622.015625 566.558594 616.128906 568.632813 C 611.855469 570.136719 608.867188 573.4375 607.148438 577.535156 C 605.679688 581.035156 600.320313 578.597656 601.785156 575.105469 C 604.390625 568.898438 609.621094 563.976563 616.332031 562.515625 C 623.992188 560.847656 628.933594 564.847656 632.570313 571.203125 C 634.425781 574.453125 629.640625 577.929688 627.765625 574.652344 "/>
<path style=" stroke:none;fill-rule:nonzero;fill:rgb(50.976563%,57.617188%,32.151794%);fill-opacity:1;" d="M 643.488281 595.394531 C 636.648438 595.394531 636.636719 606.027344 643.488281 606.027344 C 650.332031 606.027344 650.34375 595.394531 643.488281 595.394531 "/>
<path style=" stroke:none;fill-rule:nonzero;fill:rgb(34.521484%,42.747498%,16.868591%);fill-opacity:1;" d="M 122.308594 227.398438 C 122.308594 236.050781 129.324219 243.070313 137.976563 243.070313 L 165.65625 243.070313 C 175.40625 243.070313 184.574219 241.378906 193.167969 237.988281 C 201.753906 234.609375 209.300781 229.941406 215.804688 223.96875 C 222.300781 218 227.410156 211.03125 231.128906 203.070313 C 234.835938 195.121094 236.699219 186.660156 236.699219 177.699219 C 236.699219 168.75 234.835938 160.289063 231.128906 152.328125 C 227.410156 144.378906 222.300781 137.460938 215.804688 131.589844 C 209.300781 125.71875 201.753906 121.039063 193.167969 117.558594 C 184.574219 114.078125 175.40625 112.339844 165.65625 112.339844 L 137.976563 112.339844 C 129.324219 112.339844 122.308594 119.351563 122.308594 128.011719 Z M 72.671875 95.921875 C 72.671875 88.960938 75.457031 83.089844 81.027344 78.308594 C 86.601563 73.539063 93.445313 71.148438 101.574219 71.148438 L 172.273438 71.148438 C 188.988281 71.148438 204.660156 73.941406 219.285156 79.511719 C 233.910156 85.078125 246.675781 92.691406 257.59375 102.339844 C 268.503906 111.988281 277.09375 123.28125 283.363281 136.21875 C 289.632813 149.148438 292.765625 162.878906 292.765625 177.398438 C 292.765625 192.128906 289.632813 205.960938 283.363281 218.890625 C 277.09375 231.828125 268.503906 243.121094 257.59375 252.769531 C 246.675781 262.421875 233.910156 270.03125 219.285156 275.601563 C 204.660156 281.171875 188.988281 283.960938 172.273438 283.960938 L 101.574219 283.960938 C 93.445313 283.960938 86.601563 281.570313 81.027344 276.800781 C 75.457031 272.019531 72.671875 266.148438 72.671875 259.191406 "/>
<path style=" stroke:none;fill-rule:nonzero;fill:rgb(56.054688%,63.867188%,27.43988%);fill-opacity:1;" d="M 96.574219 1222.855469 C 96.574219 1226.964844 99.90625 1230.296875 104.011719 1230.296875 L 117.160156 1230.296875 C 121.789063 1230.296875 126.144531 1229.496094 130.222656 1227.886719 C 134.300781 1226.28125 137.886719 1224.058594 140.972656 1221.222656 C 144.058594 1218.390625 146.484375 1215.082031 148.253906 1211.300781 C 150.011719 1207.523438 150.898438 1203.503906 150.898438 1199.253906 C 150.898438 1195 150.011719 1190.984375 148.253906 1187.203125 C 146.484375 1183.425781 144.058594 1180.140625 140.972656 1177.355469 C 137.886719 1174.566406 134.300781 1172.34375 130.222656 1170.691406 C 126.144531 1169.039063 121.789063 1168.210938 117.160156 1168.210938 L 104.011719 1168.210938 C 99.90625 1168.210938 96.574219 1171.542969 96.574219 1175.652344 Z M 73 1160.414063 C 73 1157.109375 74.324219 1154.320313 76.96875 1152.050781 C 79.613281 1149.785156 82.867188 1148.648438 86.726563 1148.648438 L 120.300781 1148.648438 C 128.238281 1148.648438 135.683594 1149.976563 142.628906 1152.621094 C 149.574219 1155.265625 155.636719 1158.878906 160.820313 1163.460938 C 166.003906 1168.046875 170.082031 1173.410156 173.058594 1179.550781 C 176.035156 1185.695313 177.523438 1192.214844 177.523438 1199.109375 C 177.523438 1206.105469 176.035156 1212.671875 173.058594 1218.8125 C 170.082031 1224.960938 166.003906 1230.320313 160.820313 1234.902344 C 155.636719 1239.484375 149.574219 1243.101563 142.628906 1245.746094 C 135.683594 1248.394531 128.238281 1249.714844 120.300781 1249.714844 L 86.726563 1249.714844 C 82.867188 1249.714844 79.613281 1248.582031 76.96875 1246.3125 C 74.324219 1244.042969 73 1241.257813 73 1237.949219 "/>
<path style=" stroke:none;fill-rule:nonzero;fill:rgb(34.521484%,42.747498%,16.868591%);fill-opacity:1;" d="M 408.898438 184.28125 C 407.507813 178.589844 405.5625 173.710938 403.066406 169.621094 C 400.574219 165.53125 397.679688 162.28125 394.386719 159.890625 C 391.09375 157.5 387.554688 156.300781 383.761719 156.300781 C 380.171875 156.300781 376.730469 157.5 373.4375 159.890625 C 370.148438 162.28125 367.300781 165.53125 364.910156 169.621094 C 362.515625 173.710938 360.621094 178.589844 359.222656 184.28125 C 357.828125 189.96875 357.128906 196.101563 357.128906 202.679688 C 357.128906 209.269531 357.828125 215.398438 359.222656 221.089844 C 360.621094 226.769531 362.515625 231.710938 364.910156 235.898438 C 367.300781 240.089844 370.148438 243.378906 373.4375 245.78125 C 376.730469 248.171875 380.171875 249.371094 383.761719 249.371094 C 387.554688 249.371094 391.09375 248.171875 394.386719 245.78125 C 397.679688 243.378906 400.574219 240.089844 403.066406 235.898438 C 405.5625 231.710938 407.507813 226.769531 408.898438 221.089844 C 410.296875 215.398438 410.996094 209.269531 410.996094 202.679688 C 410.996094 196.101563 410.296875 189.96875 408.898438 184.28125 M 451.246094 67.570313 C 455.9375 72.261719 458.277344 77.890625 458.277344 84.480469 L 458.277344 262.238281 C 458.277344 268.21875 456.132813 273.359375 451.84375 277.648438 C 447.554688 281.941406 442.417969 284.078125 436.429688 284.078125 C 430.644531 284.078125 425.609375 282.089844 421.320313 278.101563 C 419.789063 276.671875 418.503906 274.480469 417.46875 271.980469 C 415.441406 267.078125 408.78125 266.300781 405.5 270.460938 C 402.589844 274.140625 399.480469 277.371094 396.179688 279 C 389.296875 282.390625 382.066406 284.078125 374.484375 284.078125 C 365.710938 284.078125 357.425781 281.988281 349.648438 277.800781 C 341.863281 273.609375 335.132813 267.871094 329.445313 260.589844 C 323.761719 253.308594 319.269531 244.730469 315.980469 234.851563 C 312.6875 224.980469 311.042969 214.359375 311.042969 202.980469 C 311.042969 191.609375 312.6875 180.988281 315.980469 171.109375 C 319.269531 161.238281 323.8125 152.660156 329.59375 145.378906 C 335.382813 138.101563 342.121094 132.359375 349.796875 128.171875 C 357.480469 123.980469 365.804688 121.878906 374.785156 121.878906 C 381.570313 121.878906 385.726563 122.25 391.804688 124.640625 C 395.011719 125.898438 400.339844 129.730469 403.238281 132.949219 C 405.863281 135.871094 410.695313 134.03125 410.695313 130.101563 L 410.695313 84.480469 C 410.695313 77.890625 413.046875 72.261719 417.726563 67.570313 C 422.421875 62.878906 427.953125 60.539063 434.339844 60.539063 C 440.921875 60.539063 446.558594 62.878906 451.246094 67.570313 "/>
<path style=" stroke:none;fill-rule:nonzero;fill:rgb(56.054688%,63.867188%,27.43988%);fill-opacity:1;" d="M 202.246094 1251.25 C 199.121094 1251.25 196.46875 1250.160156 194.289063 1247.980469 C 192.105469 1245.804688 191.019531 1243.148438 191.019531 1240.023438 L 191.019531 1185.875 C 191.019531 1182.746094 192.105469 1180.097656 194.289063 1177.917969 C 196.46875 1175.738281 199.121094 1174.648438 202.246094 1174.648438 C 205.371094 1174.648438 208.023438 1175.738281 210.207031 1177.917969 C 212.386719 1180.097656 213.476563 1182.746094 213.476563 1185.875 L 213.476563 1240.023438 C 213.476563 1243.148438 212.386719 1245.804688 210.207031 1247.980469 C 208.023438 1250.160156 205.371094 1251.25 202.246094 1251.25 M 190.023438 1157.449219 C 190.023438 1155.746094 190.355469 1154.160156 191.019531 1152.691406 C 191.683594 1151.222656 192.558594 1149.917969 193.648438 1148.78125 C 194.738281 1147.644531 196.039063 1146.746094 197.558594 1146.082031 C 199.070313 1145.421875 200.683594 1145.089844 202.390625 1145.089844 C 204.09375 1145.089844 205.679688 1145.421875 207.148438 1146.082031 C 208.617188 1146.746094 209.898438 1147.644531 210.988281 1148.78125 C 212.074219 1149.917969 212.953125 1151.222656 213.617188 1152.691406 C 214.277344 1154.160156 214.609375 1155.746094 214.609375 1157.449219 C 214.609375 1159.15625 214.277344 1160.742188 213.617188 1162.210938 C 212.953125 1163.683594 212.074219 1164.960938 210.988281 1166.050781 C 209.898438 1167.140625 208.617188 1168.019531 207.148438 1168.679688 C 205.679688 1169.34375 204.09375 1169.675781 202.390625 1169.675781 C 200.683594 1169.675781 199.070313 1169.34375 197.558594 1168.679688 C 196.039063 1168.019531 194.738281 1167.140625 193.648438 1166.050781 C 192.558594 1164.960938 191.683594 1163.683594 191.019531 1162.210938 C 190.355469 1160.742188 190.023438 1159.15625 190.023438 1157.449219 "/>
<path style=" stroke:none;fill-rule:nonzero;fill:rgb(56.054688%,63.867188%,27.43988%);fill-opacity:1;" d="M 242.597656 1174.75 C 245.722656 1174.75 248.183594 1175.769531 249.988281 1177.804688 C 250.542969 1178.433594 251.011719 1179.085938 251.398438 1179.753906 C 252.464844 1181.617188 254.945313 1182.097656 256.59375 1180.722656 C 258.148438 1179.425781 259.78125 1178.3125 261.496094 1177.378906 C 264.71875 1175.625 268.269531 1174.75 272.15625 1174.75 C 275.566406 1174.75 278.8125 1175.460938 281.890625 1176.882813 C 284.96875 1178.300781 287.648438 1180.21875 289.921875 1182.636719 C 292.195313 1185.054688 293.992188 1187.871094 295.324219 1191.09375 C 296.648438 1194.3125 297.3125 1197.773438 297.3125 1201.46875 L 297.3125 1240.550781 C 297.3125 1243.582031 296.269531 1246.140625 294.183594 1248.222656 C 292.101563 1250.308594 289.542969 1251.351563 286.511719 1251.351563 C 283.476563 1251.351563 280.898438 1250.308594 278.765625 1248.222656 C 276.632813 1246.140625 275.566406 1243.582031 275.566406 1240.550781 L 275.566406 1205.304688 C 275.566406 1196.589844 272.53125 1192.226563 266.472656 1192.226563 C 263.15625 1192.226563 260.164063 1192.273438 257.921875 1194.582031 C 255.265625 1197.3125 254.296875 1201.320313 254.25 1205.011719 L 254.25 1240.121094 C 254.25 1243.15625 253.132813 1245.785156 250.910156 1248.011719 C 248.683594 1250.234375 246.054688 1251.351563 243.023438 1251.351563 C 239.894531 1251.351563 237.21875 1250.234375 234.992188 1248.011719 C 232.765625 1245.785156 231.652344 1243.15625 231.652344 1240.121094 L 231.652344 1185.265625 C 231.652344 1182.328125 232.695313 1179.84375 234.78125 1177.804688 C 236.863281 1175.769531 239.46875 1174.75 242.597656 1174.75 "/>
<path style=" stroke:none;fill-rule:nonzero;fill:rgb(56.054688%,63.867188%,27.43988%);fill-opacity:1;" d="M 362.074219 1213.355469 C 362.074219 1209.851563 361.648438 1206.773438 360.796875 1204.121094 C 359.945313 1201.46875 358.828125 1199.265625 357.457031 1197.511719 C 356.082031 1195.757813 354.542969 1194.433594 352.839844 1193.53125 C 351.132813 1192.632813 349.472656 1192.179688 347.863281 1192.179688 C 346.25 1192.179688 344.597656 1192.632813 342.890625 1193.53125 C 341.183594 1194.433594 339.667969 1195.78125 338.34375 1197.582031 C 337.015625 1199.382813 335.925781 1201.609375 335.074219 1204.261719 C 334.222656 1206.914063 333.792969 1209.945313 333.792969 1213.355469 C 333.792969 1216.769531 334.195313 1219.753906 335.003906 1222.308594 C 335.804688 1224.871094 336.894531 1227.023438 338.269531 1228.777344 C 339.644531 1230.53125 341.183594 1231.832031 342.890625 1232.6875 C 344.597656 1233.535156 346.300781 1233.964844 348.007813 1233.964844 C 349.710938 1233.964844 351.390625 1233.535156 353.050781 1232.6875 C 354.707031 1231.832031 356.222656 1230.53125 357.597656 1228.777344 C 358.972656 1227.023438 360.0625 1224.871094 360.867188 1222.308594 C 361.671875 1219.753906 362.074219 1216.769531 362.074219 1213.355469 M 384.53125 1213.070313 C 384.53125 1218.378906 383.605469 1223.355469 381.761719 1227.996094 C 379.910156 1232.636719 377.355469 1236.6875 374.085938 1240.148438 C 370.816406 1243.605469 366.953125 1246.328125 362.503906 1248.320313 C 358.046875 1250.308594 353.214844 1251.300781 348.007813 1251.300781 C 342.796875 1251.300781 337.9375 1250.308594 333.4375 1248.320313 C 328.9375 1246.328125 325.054688 1243.605469 321.785156 1240.148438 C 318.515625 1236.6875 315.957031 1232.636719 314.109375 1227.996094 C 312.261719 1223.355469 311.339844 1218.378906 311.339844 1213.070313 C 311.339844 1207.863281 312.261719 1202.9375 314.109375 1198.292969 C 315.957031 1193.652344 318.515625 1189.578125 321.785156 1186.070313 C 325.054688 1182.566406 328.9375 1179.816406 333.4375 1177.828125 C 337.9375 1175.835938 342.796875 1174.84375 348.007813 1174.84375 C 353.214844 1174.84375 358.046875 1175.835938 362.503906 1177.828125 C 366.953125 1179.816406 370.816406 1182.566406 374.085938 1186.070313 C 377.355469 1189.578125 379.910156 1193.652344 381.761719 1198.292969 C 383.605469 1202.9375 384.53125 1207.863281 384.53125 1213.070313 "/>
<path style=" stroke:none;fill-rule:nonzero;fill:rgb(56.054688%,63.867188%,27.43988%);fill-opacity:1;" d="M 652.320313 1182.175781 C 652.746094 1183.570313 654.484375 1183.628906 655.257813 1182.390625 C 656.433594 1180.503906 658.003906 1179.136719 659.234375 1178.140625 C 660.464844 1177.148438 661.742188 1176.34375 663.070313 1175.726563 C 664.398438 1175.109375 665.820313 1174.800781 667.335938 1174.800781 C 669.894531 1174.800781 672.144531 1175.703125 674.085938 1177.5 C 676.027344 1179.300781 677 1181.574219 677 1184.320313 C 677 1186.597656 676.265625 1188.753906 674.796875 1190.789063 C 673.328125 1192.828125 671.125 1193.84375 668.1875 1193.84375 C 666.007813 1193.84375 664.089844 1194.484375 662.433594 1195.761719 C 660.773438 1197.042969 659.378906 1198.746094 658.242188 1200.878906 C 657.101563 1203.011719 656.25 1205.429688 655.679688 1208.128906 C 655.113281 1210.828125 654.828125 1213.601563 654.828125 1216.441406 L 654.828125 1240.175781 C 654.828125 1243.210938 653.714844 1245.839844 651.488281 1248.0625 C 649.261719 1250.289063 646.632813 1251.402344 643.601563 1251.402344 C 640.476563 1251.402344 637.796875 1250.289063 635.574219 1248.0625 C 633.34375 1245.839844 632.230469 1243.210938 632.230469 1240.175781 L 632.230469 1185.316406 C 632.230469 1182.382813 633.25 1179.894531 635.289063 1177.855469 C 637.324219 1175.820313 639.8125 1174.800781 642.75 1174.800781 C 645.496094 1174.800781 647.886719 1175.75 649.925781 1177.644531 C 650.964844 1178.609375 651.761719 1180.335938 652.320313 1182.175781 "/>
<path style=" stroke:none;fill-rule:nonzero;fill:rgb(56.054688%,63.867188%,27.43988%);fill-opacity:1;" d="M 395.976563 1198.148438 C 395.976563 1195.023438 396.566406 1192.039063 397.753906 1189.195313 C 398.9375 1186.355469 400.6875 1183.867188 403.011719 1181.734375 C 405.332031 1179.605469 408.222656 1177.898438 411.683594 1176.617188 C 415.140625 1175.339844 419.144531 1174.699219 423.691406 1174.699219 C 429.660156 1174.699219 434.609375 1175.71875 438.539063 1177.757813 C 442.472656 1179.796875 445.433594 1182.46875 447.421875 1185.785156 C 448.085938 1186.921875 448.539063 1187.941406 448.773438 1188.839844 C 449.011719 1189.742188 449.128906 1190.570313 449.128906 1191.328125 C 449.128906 1193.796875 448.207031 1195.996094 446.359375 1197.9375 C 444.511719 1199.878906 442.210938 1200.851563 439.464844 1200.851563 C 437.566406 1200.851563 435.839844 1200.351563 434.277344 1199.359375 C 432.714844 1198.363281 431.554688 1197.011719 430.796875 1195.308594 C 429.375 1192.277344 426.910156 1190.757813 423.40625 1190.757813 C 420.941406 1190.757813 419.234375 1191.378906 418.289063 1192.609375 C 417.339844 1193.839844 416.871094 1195.164063 416.871094 1196.585938 C 416.871094 1199.144531 418.078125 1201.042969 420.492188 1202.269531 C 422.910156 1203.503906 426.105469 1204.6875 430.085938 1205.824219 C 432.453125 1206.488281 434.988281 1207.316406 437.6875 1208.3125 C 440.390625 1209.304688 442.898438 1210.632813 445.222656 1212.289063 C 447.539063 1213.949219 449.460938 1216.035156 450.976563 1218.546875 C 452.492188 1221.054688 453.253906 1224.160156 453.253906 1227.855469 C 453.253906 1228.988281 453.039063 1230.863281 452.613281 1233.464844 C 452.1875 1236.074219 451.046875 1238.679688 449.203125 1241.285156 C 447.355469 1243.890625 444.484375 1246.210938 440.601563 1248.246094 C 436.714844 1250.285156 431.367188 1251.300781 424.542969 1251.300781 C 420.65625 1251.300781 417.269531 1250.96875 414.382813 1250.308594 C 411.492188 1249.644531 408.957031 1248.769531 406.777344 1247.679688 C 404.597656 1246.589844 402.773438 1245.359375 401.308594 1243.984375 C 399.835938 1242.609375 398.628906 1241.214844 397.683594 1239.792969 C 396.921875 1238.5625 396.402344 1237.496094 396.121094 1236.59375 C 395.835938 1235.695313 395.691406 1234.816406 395.691406 1233.964844 C 395.691406 1231.3125 396.59375 1228.988281 398.394531 1227 C 400.191406 1225.011719 402.515625 1224.015625 405.355469 1224.015625 C 407.25 1224.015625 409.003906 1224.511719 410.617188 1225.507813 C 412.226563 1226.503906 413.457031 1227.902344 414.3125 1229.699219 C 414.972656 1231.027344 416.0625 1232.285156 417.578125 1233.464844 C 419.09375 1234.652344 421.414063 1235.242188 424.542969 1235.242188 C 426.339844 1235.242188 427.789063 1235.03125 428.878906 1234.601563 C 429.964844 1234.175781 430.796875 1233.632813 431.367188 1232.96875 C 431.933594 1232.308594 432.289063 1231.644531 432.433594 1230.980469 C 432.574219 1230.316406 432.644531 1229.75 432.644531 1229.273438 C 432.644531 1228.046875 432.335938 1227 431.722656 1226.148438 C 431.105469 1225.296875 430.320313 1224.585938 429.375 1224.015625 C 428.425781 1223.445313 427.386719 1222.972656 426.246094 1222.59375 C 425.109375 1222.214844 424.019531 1221.882813 422.980469 1221.597656 C 419.851563 1220.746094 416.675781 1219.753906 413.457031 1218.613281 C 410.234375 1217.480469 407.324219 1216.035156 404.71875 1214.28125 C 402.109375 1212.527344 400.003906 1210.371094 398.394531 1207.8125 C 396.78125 1205.253906 395.976563 1202.035156 395.976563 1198.148438 "/>
<path style=" stroke:none;fill-rule:nonzero;fill:rgb(56.054688%,63.867188%,27.43988%);fill-opacity:1;" d="M 594.976563 1186.027344 C 594.976563 1182.902344 596.0625 1180.25 598.246094 1178.070313 C 600.421875 1175.890625 603.078125 1174.800781 606.203125 1174.800781 C 609.328125 1174.800781 611.980469 1175.890625 614.164063 1178.070313 C 616.339844 1180.25 617.429688 1182.902344 617.429688 1186.027344 L 617.429688 1241.027344 C 617.429688 1243.871094 616.410156 1246.3125 614.375 1248.347656 C 612.339844 1250.382813 609.851563 1251.402344 606.914063 1251.402344 C 604.164063 1251.402344 601.867188 1250.503906 600.019531 1248.703125 C 599.328125 1248.027344 598.738281 1247.265625 598.253906 1246.417969 C 597.160156 1244.511719 594.675781 1243.902344 592.992188 1245.316406 C 591.667969 1246.425781 590.171875 1247.460938 588.511719 1248.417969 C 585.050781 1250.40625 581.191406 1251.402344 576.929688 1251.402344 C 573.808594 1251.402344 570.738281 1250.78125 567.871094 1249.546875 C 564.640625 1248.160156 561.835938 1246.195313 559.445313 1243.65625 C 557.171875 1241.242188 555.347656 1238.449219 553.976563 1235.273438 C 552.601563 1232.097656 551.914063 1228.664063 551.914063 1224.96875 L 551.914063 1186.171875 C 551.914063 1183.042969 553.027344 1180.367188 555.253906 1178.140625 C 557.480469 1175.914063 560.15625 1174.800781 563.285156 1174.800781 C 566.3125 1174.800781 568.945313 1175.914063 571.171875 1178.140625 C 573.394531 1180.367188 574.511719 1183.042969 574.511719 1186.171875 L 574.511719 1220.988281 C 574.511719 1224.523438 575.285156 1227.550781 576.835938 1230.082031 C 578.3125 1232.488281 580.964844 1234.039063 583.789063 1234.066406 C 587.054688 1234.09375 589.742188 1232.742188 591.851563 1230.011719 C 593.933594 1227.3125 594.976563 1223.972656 594.976563 1219.996094 "/>
<path style=" stroke:none;fill-rule:nonzero;fill:rgb(56.054688%,63.867188%,27.43988%);fill-opacity:1;" d="M 524.960938 1179.671875 C 528.097656 1179.671875 530.804688 1180.839844 533.078125 1183.171875 C 535.109375 1185.25 536.191406 1188.082031 536.191406 1190.988281 L 536.191406 1239.222656 C 536.191406 1242.253906 535.101563 1244.859375 532.921875 1247.039063 C 530.738281 1249.21875 528.136719 1250.308594 525.105469 1250.308594 C 523.304688 1250.308594 519.296875 1249.316406 517.601563 1246.402344 C 516.089844 1243.804688 512.613281 1243.265625 510.484375 1245.386719 C 509.085938 1246.78125 507.5625 1248.046875 505.917969 1248.53125 C 502.222656 1249.621094 498.90625 1250.164063 495.96875 1250.164063 C 486.210938 1250.164063 479.097656 1246.707031 472.183594 1239.789063 C 465.265625 1232.875 461.808594 1224.535156 461.808594 1214.777344 C 461.808594 1205.019531 465.265625 1196.707031 472.183594 1189.835938 C 479.097656 1182.96875 486.210938 1179.53125 495.96875 1179.53125 C 498.90625 1179.53125 502.246094 1180.078125 505.988281 1181.164063 C 507.679688 1181.660156 509.238281 1182.703125 510.667969 1183.851563 C 512.941406 1185.675781 516.230469 1185.152344 517.921875 1182.78125 C 519.757813 1180.207031 523.160156 1179.671875 524.960938 1179.671875 "/>
<path style=" stroke:none;fill-rule:nonzero;fill:rgb(100%,100%,100%);fill-opacity:1;" d="M 483.089844 1214.847656 C 483.089844 1217.691406 483.421875 1220.296875 484.085938 1222.664063 C 484.746094 1225.035156 485.648438 1227.121094 486.785156 1228.917969 C 487.921875 1230.71875 489.273438 1232.117188 490.835938 1233.113281 C 492.398438 1234.105469 494.082031 1234.601563 495.882813 1234.601563 C 497.679688 1234.601563 499.363281 1234.105469 500.925781 1233.113281 C 502.488281 1232.117188 503.839844 1230.71875 504.976563 1228.917969 C 506.113281 1227.121094 507.015625 1225.035156 507.679688 1222.664063 C 508.339844 1220.296875 508.671875 1217.691406 508.671875 1214.847656 C 508.671875 1212.003906 508.339844 1209.402344 507.679688 1207.03125 C 507.015625 1204.664063 506.113281 1202.605469 504.976563 1200.851563 C 503.839844 1199.097656 502.488281 1197.722656 500.925781 1196.730469 C 499.363281 1195.734375 497.679688 1195.238281 495.882813 1195.238281 C 494.082031 1195.238281 492.398438 1195.734375 490.835938 1196.730469 C 489.273438 1197.722656 487.921875 1199.097656 486.785156 1200.851563 C 485.648438 1202.605469 484.746094 1204.664063 484.085938 1207.03125 C 483.421875 1209.402344 483.089844 1212.003906 483.089844 1214.847656 "/>
</g>
</svg>
