<?xml version="1.0" encoding="UTF-8"?>
<svg xmlns="http://www.w3.org/2000/svg" xmlns:xlink="http://www.w3.org/1999/xlink" width="750pt" height="1334pt" viewBox="0 0 750 1334" version="1.1">
<g id="surface1">
<path style=" stroke:none;fill-rule:nonzero;fill:rgb(80.859375%,80.859375%,79.296875%);fill-opacity:1;" d="M 641.835938 657.0625 C 641.835938 798.414063 522.082031 913 374.359375 913 C 226.636719 913 106.882813 798.414063 106.882813 657.0625 C 106.882813 515.714844 226.636719 401.125 374.359375 401.125 C 522.082031 401.125 641.835938 515.714844 641.835938 657.0625 "/>
<path style=" stroke:none;fill-rule:nonzero;fill:rgb(93.359375%,93.75%,91.014099%);fill-opacity:1;" d="M 595.398438 664.363281 C 593.253906 655.414063 597.46875 648.523438 602.179688 641.390625 C 614.335938 622.992188 621.320313 604.179688 614.355469 582.074219 C 608.4375 563.277344 593.242188 548.796875 574.375 543.234375 C 551.429688 536.46875 535.519531 547.164063 514.304688 553.402344 C 495.039063 559.070313 485.097656 544.546875 469.523438 536.53125 C 459.011719 531.125 447.1875 527.945313 435.3125 528.652344 C 412.695313 530 393.339844 545.195313 388.40625 567.511719 C 386.097656 577.96875 399.703125 583.214844 405.117188 576.550781 C 406.230469 579.242188 407.621094 581.6875 409.1875 583.609375 C 415.023438 590.75 422.027344 589.515625 420.472656 599.648438 C 420.253906 601.074219 419.953125 602.449219 419.621094 603.804688 C 415.546875 605.3125 412.652344 609.589844 413.625 615.132813 C 413.796875 616.125 414.035156 617.078125 414.253906 618.042969 C 411.800781 623.078125 409.046875 628.003906 406.585938 633.261719 C 400.453125 633.730469 395.621094 640.191406 398.449219 646.480469 C 392.546875 648.773438 388.898438 656.945313 394.644531 662.292969 C 396.777344 664.277344 398.910156 666.265625 401.046875 668.253906 C 401.226563 677.210938 401.972656 686.148438 402.230469 694.230469 C 394.769531 696.539063 393.046875 709.671875 402.644531 712.972656 C 403.105469 713.132813 403.5625 713.3125 404.023438 713.472656 C 404.566406 715.941406 405.285156 718.328125 406.207031 720.605469 C 398.148438 719.796875 390.550781 730.003906 398.078125 736.714844 C 416.703125 753.3125 435.164063 741.929688 456.75 744.554688 C 470.855469 746.273438 476.734375 758.570313 487.121094 766.601563 C 494.765625 772.511719 504.089844 776.339844 513.792969 776.96875 C 535.566406 778.378906 544.667969 766.183594 551.96875 747.890625 C 560.492188 726.535156 591.433594 728.203125 601.21875 706.371094 C 605.046875 697.835938 604.121094 688.777344 601.238281 680.117188 C 599.484375 674.84375 596.703125 669.785156 595.398438 664.363281 "/>
<path style=" stroke:none;fill-rule:nonzero;fill:rgb(93.359375%,93.75%,91.014099%);fill-opacity:1;" d="M 186.132813 739.796875 C 186.785156 740.097656 187.4375 740.402344 188.085938 740.699219 C 188.484375 741.269531 188.984375 741.738281 189.554688 742.085938 C 189.886719 744.394531 190.210938 746.703125 190.550781 749.007813 C 188.78125 746.027344 187.320313 742.949219 186.132813 739.796875 M 204.191406 745.65625 C 202.445313 747.972656 201.34375 750.515625 200.886719 753.164063 C 200.484375 750.515625 200.066406 747.867188 199.679688 745.21875 C 201.210938 745.519531 202.71875 745.664063 204.191406 745.65625 M 414.355469 588.976563 C 397.664063 563.632813 360.421875 574.742188 335.683594 577.152344 C 330.726563 577.636719 326.273438 579.558594 322.640625 582.359375 C 310.445313 567.074219 295.839844 552.84375 280.816406 541.859375 C 264.113281 529.644531 247.890625 531.976563 233.898438 540.804688 C 233.089844 541.273438 232.292969 541.789063 231.519531 542.378906 C 225.367188 546.65625 219.6875 552.140625 214.632813 558.125 C 214.449219 558.296875 214.265625 558.472656 214.085938 558.644531 C 214.105469 558.660156 214.128906 558.675781 214.148438 558.695313 C 212.921875 560.167969 211.726563 561.667969 210.574219 563.1875 C 206.140625 569.042969 205.558594 575.074219 207.410156 580.355469 C 199.765625 587.597656 193.070313 595.4375 188.058594 604.609375 C 181.03125 612.832031 174.140625 621.171875 167.335938 629.585938 C 164.800781 632.671875 162.292969 635.789063 159.820313 638.933594 C 159.160156 639.761719 158.488281 640.574219 157.832031 641.40625 C 157.84375 641.414063 157.855469 641.421875 157.863281 641.429688 C 156.6875 642.941406 155.488281 644.425781 154.320313 645.949219 C 151.070313 650.207031 150.089844 654.78125 150.691406 659.160156 C 140.113281 673.832031 136.753906 692.96875 146.332031 709.261719 C 152.835938 720.320313 163.195313 727.871094 174.398438 733.957031 C 177.285156 746.824219 183.523438 758.878906 194.574219 769.191406 C 198.042969 772.429688 202.585938 769.570313 202.625 765.457031 C 206.238281 773.683594 214.296875 780.390625 223.445313 780.429688 C 237.734375 780.492188 252.023438 780.558594 266.3125 780.621094 C 272.4375 780.648438 278.5625 780.675781 284.683594 780.699219 C 285.128906 780.703125 285.90625 780.71875 286.851563 780.738281 C 291.984375 785.160156 298.0625 788.203125 304.398438 789.480469 C 315.671875 795.980469 334.628906 791.589844 340.039063 777.007813 C 343.070313 768.84375 354.523438 762.222656 359.976563 755.421875 C 363.351563 751.214844 366.191406 746.707031 368.625 741.988281 C 373.425781 743.585938 378.320313 744.394531 383.71875 744.546875 C 395.296875 744.878906 406.921875 733.984375 406.167969 722.101563 C 404.773438 700.128906 402.46875 678.25 399.457031 656.460938 C 412.453125 636.753906 429.785156 612.40625 414.355469 588.976563 "/>
<path style=" stroke:none;fill-rule:nonzero;fill:rgb(93.359375%,93.75%,91.014099%);fill-opacity:1;" d="M 397.652344 700.519531 C 399.945313 708.050781 402.695313 716.117188 400.929688 724.0625 C 397.996094 737.261719 387.507813 737.699219 376.449219 739.246094 C 363.179688 741.105469 352.753906 744.496094 344.140625 755.296875 C 333.5625 768.566406 328.671875 784.226563 308.21875 782.753906 C 290.351563 781.472656 274.722656 770.460938 256.785156 769.085938 C 248.496094 768.449219 241.398438 770.003906 233.507813 772.363281 C 232.105469 772.78125 230.324219 773.421875 228.382813 774.082031 C 233.773438 768.933594 230.558594 760.316406 226.914063 755.015625 C 224.21875 751.097656 221.164063 747.949219 219.992188 743.160156 C 218.566406 737.335938 219.386719 730.914063 219.90625 725.035156 C 220.820313 714.757813 204.78125 714.820313 203.875 725.035156 C 203.675781 727.285156 203.496094 729.558594 203.386719 731.839844 C 198.636719 728.40625 189.730469 731.589844 190.507813 738.304688 C 190.625 739.320313 190.777344 740.316406 190.929688 741.3125 C 190.25 738.96875 189.464844 736.664063 188.382813 734.519531 C 183.734375 725.296875 175.105469 720.488281 166.492188 715.519531 C 151.628906 706.953125 140.664063 693.0625 148.023438 675.242188 C 153.460938 662.0625 168.714844 659.632813 174.132813 646.914063 C 175.980469 642.582031 176.3125 637.984375 176.636719 633.339844 C 177.308594 623.703125 179.898438 618.910156 187.058594 613.0625 C 196.636719 605.238281 202.828125 601.601563 206.90625 589.148438 C 211.683594 574.566406 213.628906 561.074219 225.214844 549.683594 C 237.929688 537.183594 257.820313 532.871094 274.152344 540.785156 C 295.027344 550.894531 299.089844 579.746094 322.6875 586.484375 C 349.132813 594.035156 375.554688 560.464844 399.125 580.980469 C 412.5625 592.679688 419.042969 612.890625 410.710938 629.203125 C 404.648438 641.070313 395.011719 650.664063 392.269531 664.140625 C 389.71875 676.679688 394.054688 688.699219 397.652344 700.519531 M 408.40625 680.28125 C 406.152344 667.90625 410.554688 659.234375 416.945313 649.34375 C 426.589844 634.421875 433.523438 620.59375 429.445313 602.429688 C 422.09375 569.695313 392.753906 550.203125 360.96875 562.433594 C 353.914063 565.144531 347.097656 568.863281 339.714844 570.652344 C 326.390625 573.886719 318.664063 567.253906 311.152344 557.226563 C 302.503906 545.679688 295.566406 533.769531 282.246094 526.9375 C 254.003906 512.460938 220.632813 524.824219 203.988281 550.5 C 194.289063 565.457031 195.679688 587.621094 180.730469 598.246094 C 175.804688 601.75 170.328125 603.804688 166.539063 608.769531 C 161.085938 615.917969 162.285156 622.894531 160.703125 631.128906 C 157.289063 648.890625 136.507813 655.539063 131.269531 674.085938 C 126.871094 689.660156 131.515625 707.09375 142.914063 718.558594 C 148.96875 724.652344 156.714844 727.921875 163.855469 732.4375 C 177.257813 740.914063 174.582031 750.996094 178.984375 764.085938 C 182.011719 773.105469 188.164063 779.769531 195.878906 783.898438 C 200.875 789.613281 207.921875 792.730469 216.441406 792.839844 C 225.800781 792.960938 233.988281 788.300781 242.855469 786.214844 C 256.515625 783.003906 268.566406 787.855469 281.324219 792.253906 C 296.578125 797.511719 313.535156 802.355469 329.175781 795.5625 C 346.238281 788.144531 348.367188 767.96875 363.191406 759.019531 C 376.898438 750.746094 394.660156 757.070313 407.375 745.332031 C 417.089844 736.367188 418.632813 722.488281 416.636719 710.070313 C 414.988281 699.832031 410.257813 690.441406 408.40625 680.28125 "/>
<path style=" stroke:none;fill-rule:nonzero;fill:rgb(84.764099%,79.6875%,19.604492%);fill-opacity:1;" d="M 306.027344 615.484375 C 281.40625 598.109375 246.769531 606.148438 230.839844 631.414063 C 213.984375 658.15625 224.378906 696.433594 253.300781 709.585938 C 254.699219 710.222656 256.0625 710.414063 257.355469 710.328125 C 278.671875 718 306.164063 711.195313 319.539063 693.046875 C 336.859375 669.550781 329.410156 631.988281 306.027344 615.484375 "/>
<path style=" stroke:none;fill-rule:nonzero;fill:rgb(80.859375%,74.021912%,12.547302%);fill-opacity:1;" d="M 260.878906 615.402344 C 245.308594 621.570313 233.75 634.640625 230.421875 651.195313 C 229.207031 657.242188 238.480469 659.828125 239.699219 653.753906 C 242.320313 640.703125 250.929688 629.632813 263.433594 624.679688 C 269.121094 622.425781 266.644531 613.117188 260.878906 615.402344 "/>
<path style=" stroke:none;fill-rule:nonzero;fill:rgb(80.859375%,74.021912%,12.547302%);fill-opacity:1;" d="M 239.953125 676.363281 C 238.347656 672.523438 237.820313 668.816406 238.308594 664.679688 C 238.609375 662.097656 235.878906 659.871094 233.496094 659.871094 C 230.644531 659.871094 228.992188 662.089844 228.6875 664.679688 C 228.117188 669.507813 228.800781 674.4375 230.675781 678.921875 C 231.679688 681.316406 233.859375 683.03125 236.59375 682.28125 C 238.851563 681.660156 240.960938 678.773438 239.953125 676.363281 "/>
<path style=" stroke:none;fill-rule:nonzero;fill:rgb(84.764099%,79.6875%,19.604492%);fill-opacity:1;" d="M 509.058594 619.871094 C 489.828125 606.300781 462.777344 612.578125 450.335938 632.3125 C 437.171875 653.195313 445.289063 683.09375 467.878906 693.367188 C 468.972656 693.863281 470.035156 694.011719 471.042969 693.949219 C 487.695313 699.9375 509.167969 694.621094 519.617188 680.449219 C 533.140625 662.097656 527.324219 632.757813 509.058594 619.871094 "/>
<path style=" stroke:none;fill-rule:nonzero;fill:rgb(80.859375%,74.021912%,12.547302%);fill-opacity:1;" d="M 473.796875 619.804688 C 461.636719 624.621094 452.609375 634.828125 450.011719 647.761719 C 449.0625 652.484375 456.300781 654.503906 457.253906 649.761719 C 459.304688 639.566406 466.027344 630.921875 475.792969 627.050781 C 480.234375 625.289063 478.300781 618.019531 473.796875 619.804688 "/>
<path style=" stroke:none;fill-rule:nonzero;fill:rgb(80.859375%,74.021912%,12.547302%);fill-opacity:1;" d="M 457.453125 667.417969 C 456.199219 664.421875 455.785156 661.523438 456.167969 658.292969 C 456.40625 656.273438 454.269531 654.535156 452.410156 654.535156 C 450.183594 654.535156 448.890625 656.269531 448.652344 658.292969 C 448.210938 662.0625 448.742188 665.914063 450.207031 669.414063 C 450.988281 671.285156 452.695313 672.625 454.828125 672.039063 C 456.59375 671.554688 458.242188 669.300781 457.453125 667.417969 "/>
<path style=" stroke:none;fill-rule:nonzero;fill:rgb(38.818359%,38.818359%,35.693359%);fill-opacity:1;" d="M 262.644531 556.527344 C 262.601563 556.472656 262.546875 556.441406 262.503906 556.386719 C 262.1875 555.132813 261.230469 554.070313 259.550781 554.070313 C 256.953125 554.070313 255.996094 556.605469 256.667969 558.488281 C 256.703125 558.941406 256.824219 559.382813 257.105469 559.765625 C 257.496094 560.304688 257.347656 560.339844 257.410156 560.003906 C 257.105469 561.707031 257.867188 563.460938 259.648438 563.949219 C 261.195313 564.375 263.289063 563.421875 263.59375 561.707031 C 263.917969 559.871094 263.769531 558.074219 262.644531 556.527344 "/>
<path style=" stroke:none;fill-rule:nonzero;fill:rgb(38.818359%,38.818359%,35.693359%);fill-opacity:1;" d="M 223.339844 613.957031 C 222.988281 613.515625 222.640625 613.074219 222.289063 612.632813 C 221.210938 611.273438 218.878906 611.507813 217.753906 612.632813 C 216.410156 613.976563 216.675781 615.808594 217.753906 617.167969 C 217.863281 617.304688 217.972656 617.441406 218.078125 617.578125 C 218.464844 618.707031 219.433594 619.609375 220.984375 619.609375 C 222.257813 619.609375 223.089844 618.972656 223.578125 618.128906 C 224.566406 616.828125 224.328125 615.203125 223.339844 613.957031 "/>
<path style=" stroke:none;fill-rule:nonzero;fill:rgb(38.818359%,38.818359%,35.693359%);fill-opacity:1;" d="M 348.402344 610.75 C 348.054688 610.308594 347.703125 609.867188 347.351563 609.425781 C 346.277344 608.066406 343.945313 608.300781 342.816406 609.425781 C 341.476563 610.769531 341.738281 612.601563 342.816406 613.960938 L 343.144531 614.371094 C 343.53125 615.5 344.496094 616.40625 346.050781 616.40625 C 347.324219 616.40625 348.15625 615.765625 348.644531 614.921875 C 349.632813 613.621094 349.390625 611.996094 348.402344 610.75 "/>
<path style=" stroke:none;fill-rule:nonzero;fill:rgb(38.818359%,38.818359%,35.693359%);fill-opacity:1;" d="M 550.429688 601.128906 C 550.082031 600.6875 549.730469 600.246094 549.382813 599.804688 C 548.304688 598.449219 545.972656 598.679688 544.847656 599.804688 C 543.503906 601.148438 543.765625 602.980469 544.847656 604.339844 C 544.953125 604.480469 545.0625 604.613281 545.171875 604.753906 C 545.558594 605.878906 546.527344 606.785156 548.078125 606.785156 C 549.351563 606.785156 550.183594 606.144531 550.671875 605.300781 C 551.660156 604.003906 551.421875 602.378906 550.429688 601.128906 "/>
<path style=" stroke:none;fill-rule:nonzero;fill:rgb(38.818359%,38.818359%,35.693359%);fill-opacity:1;" d="M 198.1875 729.546875 C 197.828125 728.683594 197.464844 727.820313 197.105469 726.960938 C 197.101563 725.359375 196.070313 723.757813 194.007813 723.757813 C 193.683594 723.757813 193.433594 723.859375 193.160156 723.929688 C 193.046875 723.949219 192.953125 723.921875 192.839844 723.949219 C 191.332031 724.363281 189.925781 726.289063 190.597656 727.894531 L 192.003906 731.253906 C 192.671875 732.847656 194.128906 733.992188 195.949219 733.492188 C 197.453125 733.078125 198.863281 731.15625 198.1875 729.546875 "/>
<path style=" stroke:none;fill-rule:nonzero;fill:rgb(38.818359%,38.818359%,35.693359%);fill-opacity:1;" d="M 443.46875 569.945313 L 442.382813 567.355469 C 442.382813 565.753906 441.351563 564.152344 439.285156 564.152344 C 438.964844 564.152344 438.710938 564.253906 438.4375 564.328125 C 438.328125 564.34375 438.230469 564.316406 438.117188 564.347656 C 436.609375 564.761719 435.203125 566.683594 435.878906 568.292969 L 437.28125 571.648438 C 437.949219 573.246094 439.40625 574.390625 441.226563 573.890625 C 442.734375 573.476563 444.140625 571.550781 443.46875 569.945313 "/>
<path style=" stroke:none;fill-rule:nonzero;fill:rgb(38.818359%,38.818359%,35.693359%);fill-opacity:1;" d="M 259.898438 745.445313 C 257.660156 746.824219 256.421875 748.996094 256.324219 751.617188 C 256.171875 755.746094 262.585938 755.742188 262.738281 751.617188 C 262.753906 751.292969 262.875 751.144531 263.136719 750.984375 C 266.644531 748.820313 263.425781 743.273438 259.898438 745.445313 "/>
<path style=" stroke:none;fill-rule:nonzero;fill:rgb(38.818359%,38.818359%,35.693359%);fill-opacity:1;" d="M 364.316406 731.585938 C 364.878906 730.8125 365.148438 729.832031 364.792969 728.933594 C 364.214844 727.472656 363.640625 726.015625 363.0625 724.554688 C 362.425781 722.945313 360.917969 721.820313 359.117188 722.316406 C 357.585938 722.734375 356.238281 724.640625 356.878906 726.261719 C 357.453125 727.71875 358.03125 729.179688 358.605469 730.636719 C 358.785156 731.082031 359.039063 731.472656 359.335938 731.820313 C 359.523438 732.070313 359.769531 732.269531 360.039063 732.449219 C 360.089844 732.484375 360.132813 732.527344 360.1875 732.5625 C 360.394531 732.683594 360.644531 732.757813 360.898438 732.824219 C 361.09375 732.882813 361.285156 732.929688 361.496094 732.945313 C 361.589844 732.953125 361.660156 733 361.757813 733 C 361.957031 733 362.097656 732.921875 362.277344 732.894531 C 362.371094 732.878906 362.457031 732.902344 362.550781 732.875 C 362.621094 732.859375 362.679688 732.820313 362.746094 732.800781 C 363.453125 732.578125 363.96875 732.148438 364.316406 731.585938 "/>
<path style=" stroke:none;fill-rule:nonzero;fill:rgb(38.818359%,38.818359%,35.693359%);fill-opacity:1;" d="M 434.863281 696.3125 C 435.425781 695.539063 435.695313 694.558594 435.34375 693.65625 C 434.765625 692.199219 434.1875 690.738281 433.613281 689.28125 C 432.976563 687.671875 431.464844 686.546875 429.667969 687.039063 C 428.136719 687.460938 426.789063 689.363281 427.425781 690.984375 C 428.003906 692.441406 428.582031 693.902344 429.15625 695.363281 C 429.332031 695.808594 429.589844 696.199219 429.886719 696.546875 C 430.070313 696.796875 430.316406 696.992188 430.589844 697.175781 C 430.636719 697.210938 430.679688 697.253906 430.734375 697.285156 C 430.945313 697.410156 431.191406 697.480469 431.449219 697.550781 C 431.644531 697.605469 431.835938 697.65625 432.046875 697.671875 C 432.140625 697.679688 432.207031 697.726563 432.308594 697.726563 C 432.507813 697.726563 432.648438 697.648438 432.824219 697.621094 C 432.921875 697.601563 433.007813 697.628906 433.101563 697.601563 C 433.167969 697.582031 433.230469 697.546875 433.296875 697.523438 C 434.003906 697.300781 434.519531 696.871094 434.863281 696.3125 "/>
<path style=" stroke:none;fill-rule:nonzero;fill:rgb(38.818359%,38.818359%,35.693359%);fill-opacity:1;" d="M 565.167969 678.894531 C 564.785156 677.753906 563.820313 676.835938 562.257813 676.835938 C 560.191406 676.835938 559.160156 678.449219 559.160156 680.054688 C 559.152344 680.160156 559.101563 680.234375 559.101563 680.347656 L 559.101563 685.078125 C 559.101563 689.203125 565.515625 689.210938 565.515625 685.078125 L 565.515625 680.347656 C 565.515625 679.777344 565.378906 679.304688 565.167969 678.894531 "/>
<path style=" stroke:none;fill-rule:nonzero;fill:rgb(38.818359%,38.818359%,35.693359%);fill-opacity:1;" d="M 383.863281 643.929688 C 383.6875 643.902344 383.546875 643.824219 383.347656 643.824219 C 382.675781 643.824219 382.148438 644.039063 381.695313 644.324219 C 380.179688 644.695313 378.667969 645.066406 377.152344 645.4375 C 373.144531 646.414063 374.84375 652.601563 378.855469 651.621094 C 380.875 651.128906 382.890625 650.636719 384.910156 650.140625 C 388.679688 649.222656 387.371094 643.765625 383.863281 643.929688 "/>
<path style=" stroke:none;fill-rule:nonzero;fill:rgb(38.818359%,38.818359%,35.693359%);fill-opacity:1;" d="M 515.34375 730.515625 C 515.164063 730.488281 515.023438 730.410156 514.828125 730.410156 C 514.152344 730.410156 513.628906 730.621094 513.175781 730.910156 C 511.660156 731.28125 510.144531 731.648438 508.632813 732.019531 C 504.625 733 506.320313 739.1875 510.335938 738.203125 C 512.355469 737.710938 514.371094 737.21875 516.386719 736.726563 C 520.15625 735.804688 518.851563 730.351563 515.34375 730.515625 "/>
<path style=" stroke:none;fill-rule:nonzero;fill:rgb(38.818359%,38.818359%,35.693359%);fill-opacity:1;" d="M 152.925781 702.453125 C 151.191406 703.410156 149.875 704.714844 148.734375 706.316406 C 147.902344 707.480469 148.308594 709.117188 149.25 710.125 C 149.40625 710.332031 149.613281 710.488281 149.824219 710.648438 C 149.847656 710.664063 149.863281 710.6875 149.882813 710.703125 C 149.890625 710.707031 149.898438 710.707031 149.90625 710.710938 C 150.378906 711.042969 150.9375 711.289063 151.667969 711.289063 C 153.226563 711.289063 154.191406 710.375 154.574219 709.238281 C 155.027344 708.726563 155.550781 708.328125 156.164063 707.992188 C 159.78125 706 156.546875 700.460938 152.925781 702.453125 "/>
<path style=" stroke:none;fill-rule:nonzero;fill:rgb(63.867188%,56.443787%,3.137207%);fill-opacity:1;" d="M 263.730469 646.539063 C 262.078125 651.546875 255.6875 652.53125 252.664063 648.121094 C 251.011719 645.710938 247.050781 647.992188 248.71875 650.425781 C 253.980469 658.101563 265.199219 656.644531 268.132813 647.753906 C 269.058594 644.953125 264.648438 643.753906 263.730469 646.539063 "/>
<path style=" stroke:none;fill-rule:nonzero;fill:rgb(63.867188%,56.443787%,3.137207%);fill-opacity:1;" d="M 304.980469 644.144531 C 303.855469 647.308594 301.921875 649.03125 298.503906 649.128906 C 296.015625 649.195313 293.230469 648.648438 291.648438 646.535156 C 289.90625 644.210938 285.941406 646.484375 287.703125 648.839844 C 290.546875 652.636719 294.957031 654.035156 299.601563 653.628906 C 304.839844 653.164063 307.683594 650.144531 309.382813 645.359375 C 310.371094 642.585938 305.957031 641.390625 304.980469 644.144531 "/>
<path style=" stroke:none;fill-rule:nonzero;fill:rgb(63.867188%,56.443787%,3.137207%);fill-opacity:1;" d="M 481.792969 649.011719 C 481.152344 645 477.289063 641.890625 473.207031 642.308594 C 469.058594 642.734375 466.050781 646.519531 466.109375 650.59375 C 466.15625 653.527344 470.726563 653.535156 470.679688 650.59375 C 470.609375 645.976563 476.683594 645.789063 477.390625 650.226563 C 477.851563 653.121094 482.253906 651.890625 481.792969 649.011719 "/>
<path style=" stroke:none;fill-rule:nonzero;fill:rgb(63.867188%,56.443787%,3.137207%);fill-opacity:1;" d="M 510.480469 649.117188 C 510.015625 644.929688 507.046875 641.28125 502.660156 640.878906 C 498.378906 640.480469 494.566406 643.527344 493.496094 647.578125 C 492.742188 650.425781 497.148438 651.636719 497.898438 648.792969 C 499.046875 644.453125 505.378906 644.304688 505.910156 649.117188 C 506.230469 652.007813 510.800781 652.039063 510.480469 649.117188 "/>
<path style=" stroke:none;fill-rule:nonzero;fill:rgb(84.764099%,79.6875%,19.604492%);fill-opacity:1;" d="M 129.410156 230.71875 C 129.410156 237.371094 134.804688 242.769531 141.460938 242.769531 L 221 242.769531 C 227.730469 242.769531 233.417969 244.761719 238.066406 248.738281 C 242.707031 252.71875 245.027344 257.601563 245.027344 263.359375 C 245.027344 269.140625 242.707031 274.011719 238.066406 277.988281 C 233.417969 281.96875 227.730469 283.960938 221 283.960938 L 100.503906 283.960938 C 92.375 283.960938 85.53125 281.570313 79.957031 276.800781 C 74.386719 272.019531 71.601563 266.148438 71.601563 259.191406 L 71.601563 95.921875 C 71.601563 88.960938 74.386719 83.089844 79.957031 78.308594 C 85.53125 73.539063 92.375 71.148438 100.503906 71.148438 L 221 71.148438 C 227.730469 71.148438 233.417969 73.140625 238.066406 77.121094 C 242.707031 81.101563 245.027344 85.980469 245.027344 91.738281 C 245.027344 97.519531 242.707031 102.390625 238.066406 106.371094 C 233.417969 110.351563 227.730469 112.339844 221 112.339844 L 141.460938 112.339844 C 134.804688 112.339844 129.410156 117.738281 129.410156 124.390625 L 129.410156 141.46875 C 129.410156 148.128906 134.804688 153.53125 141.460938 153.53125 L 198.015625 153.53125 C 204.746094 153.53125 210.433594 155.519531 215.078125 159.5 C 219.722656 163.480469 222.046875 168.351563 222.046875 174.121094 C 222.046875 179.898438 219.722656 184.769531 215.078125 188.75 C 210.433594 192.730469 204.746094 194.71875 198.015625 194.71875 L 141.460938 194.71875 C 134.804688 194.71875 129.410156 200.109375 129.410156 206.769531 "/>
<path style=" stroke:none;fill-rule:nonzero;fill:rgb(84.764099%,79.6875%,19.604492%);fill-opacity:1;" d="M 205.410156 1197.71875 C 205.410156 1204.371094 210.804688 1209.769531 217.460938 1209.769531 L 297 1209.769531 C 303.730469 1209.769531 309.417969 1211.761719 314.066406 1215.738281 C 318.707031 1219.722656 321.027344 1224.597656 321.027344 1230.363281 C 321.027344 1236.140625 318.707031 1241.011719 314.066406 1244.988281 C 309.417969 1248.972656 303.730469 1250.960938 297 1250.960938 L 176.503906 1250.960938 C 168.375 1250.960938 161.527344 1248.570313 155.957031 1243.796875 C 150.386719 1239.019531 147.601563 1233.152344 147.601563 1226.1875 L 147.601563 1062.921875 C 147.601563 1055.960938 150.386719 1050.089844 155.957031 1045.3125 C 161.527344 1040.539063 168.375 1038.148438 176.503906 1038.148438 L 297 1038.148438 C 303.730469 1038.148438 309.417969 1040.140625 314.066406 1044.117188 C 318.707031 1048.101563 321.027344 1052.976563 321.027344 1058.742188 C 321.027344 1064.515625 318.707031 1069.390625 314.066406 1073.367188 C 309.417969 1077.351563 303.730469 1079.339844 297 1079.339844 L 217.460938 1079.339844 C 210.804688 1079.339844 205.410156 1084.734375 205.410156 1091.394531 L 205.410156 1108.476563 C 205.410156 1115.132813 210.804688 1120.527344 217.460938 1120.527344 L 274.015625 1120.527344 C 280.746094 1120.527344 286.433594 1122.519531 291.078125 1126.496094 C 295.722656 1130.480469 298.046875 1135.351563 298.046875 1141.121094 C 298.046875 1146.894531 295.722656 1151.769531 291.078125 1155.746094 C 286.433594 1159.730469 280.746094 1161.714844 274.015625 1161.714844 L 217.460938 1161.714844 C 210.804688 1161.714844 205.410156 1167.113281 205.410156 1173.769531 "/>
<path style=" stroke:none;fill-rule:nonzero;fill:rgb(84.764099%,79.6875%,19.604492%);fill-opacity:1;" d="M 351.605469 192.808594 C 358.4375 192.808594 363.429688 185.988281 360.972656 179.609375 C 360.957031 179.570313 360.941406 179.53125 360.925781 179.488281 C 359.328125 175.410156 357.285156 171.859375 354.789063 168.871094 C 352.289063 165.878906 349.449219 163.53125 346.261719 161.839844 C 343.070313 160.140625 339.675781 159.289063 336.089844 159.289063 C 332.496094 159.289063 329.101563 160.140625 325.914063 161.839844 C 322.71875 163.53125 319.875 165.878906 317.382813 168.871094 C 314.882813 171.859375 312.941406 175.410156 311.546875 179.488281 C 311.488281 179.660156 311.429688 179.839844 311.375 180.011719 C 309.316406 186.339844 314.230469 192.808594 320.882813 192.808594 Z M 371.398438 236.800781 C 376.382813 236.800781 380.722656 238.699219 384.414063 242.488281 C 388.105469 246.28125 389.953125 250.769531 389.953125 255.949219 C 389.953125 258.75 389.101563 261.640625 387.410156 264.628906 C 385.710938 267.621094 382.570313 270.519531 377.980469 273.308594 C 372.996094 276.5 366.957031 279.089844 359.878906 281.089844 C 352.792969 283.078125 345.460938 284.078125 337.882813 284.078125 C 328.304688 284.078125 319.027344 282.289063 310.050781 278.691406 C 301.074219 275.109375 293.09375 269.871094 286.109375 262.988281 C 279.125 256.101563 273.539063 247.679688 269.351563 237.699219 C 265.164063 227.71875 263.066406 216.351563 263.066406 203.578125 C 263.066406 191.421875 265.011719 180.339844 268.90625 170.359375 C 272.792969 160.390625 278.03125 151.859375 284.617188 144.78125 C 291.199219 137.699219 298.925781 132.261719 307.804688 128.46875 C 316.683594 124.679688 326.109375 122.78125 336.089844 122.78125 C 347.058594 122.78125 357.132813 125.03125 366.3125 129.519531 C 375.484375 134 383.269531 139.789063 389.652344 146.871094 C 396.035156 153.960938 401.027344 161.839844 404.617188 170.519531 C 408.207031 179.191406 410.003906 187.71875 410.003906 196.101563 C 410.003906 205.078125 408.207031 211.621094 404.617188 215.699219 C 401.027344 219.789063 396.632813 221.839844 391.449219 221.839844 L 320.503906 221.839844 C 312.613281 221.839844 310.378906 230.621094 315.449219 236.671875 C 319.441406 241.429688 326.914063 247.570313 338.480469 247.570313 C 342.269531 247.570313 346.058594 246.929688 349.855469 245.628906 C 353.640625 244.328125 357.035156 242.691406 360.027344 240.691406 C 364.015625 238.101563 367.808594 236.800781 371.398438 236.800781 "/>
<path style=" stroke:none;fill-rule:nonzero;fill:rgb(84.764099%,79.6875%,19.604492%);fill-opacity:1;" d="M 364.914063 1124.382813 C 364.914063 1129.683594 365.53125 1134.546875 366.769531 1138.957031 C 368.003906 1143.375 369.683594 1147.261719 371.804688 1150.617188 C 373.921875 1153.976563 376.4375 1156.578125 379.355469 1158.433594 C 382.269531 1160.285156 385.40625 1161.214844 388.761719 1161.214844 C 392.113281 1161.214844 395.253906 1160.285156 398.167969 1158.433594 C 401.082031 1156.578125 403.601563 1153.976563 405.71875 1150.617188 C 407.839844 1147.261719 409.515625 1143.375 410.753906 1138.957031 C 411.988281 1134.546875 412.609375 1129.683594 412.609375 1124.382813 C 412.609375 1119.082031 411.988281 1114.226563 410.753906 1109.8125 C 409.515625 1105.394531 407.839844 1101.554688 405.71875 1098.285156 C 403.601563 1095.015625 401.082031 1092.453125 398.167969 1090.597656 C 395.253906 1088.746094 392.113281 1087.816406 388.761719 1087.816406 C 385.40625 1087.816406 382.269531 1088.746094 379.355469 1090.597656 C 376.4375 1092.453125 373.921875 1095.015625 371.804688 1098.285156 C 369.683594 1101.554688 368.003906 1105.394531 366.769531 1109.8125 C 365.53125 1114.226563 364.914063 1119.082031 364.914063 1124.382813 M 324.109375 1123.058594 C 324.109375 1114.050781 325.566406 1105.53125 328.480469 1097.488281 C 331.394531 1089.453125 335.367188 1082.476563 340.402344 1076.558594 C 345.4375 1070.640625 351.355469 1065.957031 358.15625 1062.511719 C 364.957031 1059.066406 372.15625 1057.347656 379.753906 1057.347656 C 388.230469 1057.347656 395.476563 1059.246094 401.480469 1063.042969 C 404.410156 1064.894531 407.042969 1066.863281 409.382813 1068.945313 C 412.195313 1071.445313 416.453125 1070.601563 418.324219 1067.335938 C 419.257813 1065.703125 420.445313 1064.183594 421.882813 1062.777344 C 425.59375 1059.160156 430.007813 1057.347656 435.132813 1057.347656 C 440.433594 1057.347656 444.976563 1059.246094 448.78125 1063.042969 C 452.574219 1066.84375 454.476563 1071.386719 454.476563 1076.6875 L 454.476563 1184.269531 C 454.476563 1195.222656 452.796875 1204.804688 449.441406 1213.019531 C 446.082031 1221.234375 441.492188 1228.121094 435.664063 1233.6875 C 429.832031 1239.25 423.03125 1243.402344 415.257813 1246.140625 C 407.484375 1248.875 399.269531 1250.246094 390.617188 1250.246094 C 383.195313 1250.246094 376.527344 1249.359375 370.609375 1247.597656 C 364.691406 1245.828125 359.703125 1243.53125 355.640625 1240.707031 C 352.105469 1238.230469 349.585938 1235.714844 348.089844 1233.15625 C 346.585938 1230.59375 345.835938 1227.988281 345.835938 1225.339844 C 345.835938 1220.921875 347.425781 1216.992188 350.605469 1213.546875 C 353.785156 1210.105469 357.847656 1208.382813 362.792969 1208.382813 C 366.503906 1208.382813 370.035156 1209.707031 373.390625 1212.355469 C 378.625 1215.964844 384.042969 1217.730469 389.644531 1217.652344 C 392.164063 1217.617188 394.683594 1217.121094 397 1216.136719 C 400.371094 1214.707031 403.28125 1212.519531 405.71875 1209.574219 C 407.839844 1207.011719 409.515625 1204.050781 410.753906 1200.695313 C 411.988281 1197.339844 412.609375 1193.722656 412.609375 1189.832031 L 412.609375 1187.675781 C 412.609375 1183.65625 408.296875 1181.0625 404.785156 1183.019531 C 397.582031 1187.03125 389.679688 1189.035156 381.078125 1189.035156 C 373.128906 1189.035156 365.710938 1187.316406 358.820313 1183.871094 C 351.929688 1180.425781 345.878906 1175.699219 340.671875 1169.695313 C 335.457031 1163.691406 331.394531 1156.667969 328.480469 1148.628906 C 325.566406 1140.59375 324.109375 1132.070313 324.109375 1123.058594 "/>
<path style=" stroke:none;fill-rule:nonzero;fill:rgb(84.764099%,79.6875%,19.604492%);fill-opacity:1;" d="M 519.4375 1124.203125 C 519.4375 1129.507813 520.054688 1134.367188 521.292969 1138.777344 C 522.527344 1143.195313 524.210938 1147.085938 526.328125 1150.4375 C 528.449219 1153.796875 530.964844 1156.398438 533.878906 1158.253906 C 536.796875 1160.109375 539.929688 1161.035156 543.289063 1161.035156 C 546.640625 1161.035156 549.777344 1160.109375 552.695313 1158.253906 C 555.605469 1156.398438 558.128906 1153.796875 560.246094 1150.4375 C 562.363281 1147.085938 564.042969 1143.195313 565.28125 1138.777344 C 566.515625 1134.367188 567.136719 1129.507813 567.136719 1124.203125 C 567.136719 1118.90625 566.515625 1114.050781 565.28125 1109.632813 C 564.042969 1105.21875 562.363281 1101.375 560.246094 1098.105469 C 558.128906 1094.839844 555.605469 1092.277344 552.695313 1090.421875 C 549.777344 1088.566406 546.640625 1087.640625 543.289063 1087.640625 C 539.929688 1087.640625 536.796875 1088.566406 533.878906 1090.421875 C 530.964844 1092.277344 528.449219 1094.839844 526.328125 1098.105469 C 524.210938 1101.375 522.527344 1105.21875 521.292969 1109.632813 C 520.054688 1114.050781 519.4375 1118.90625 519.4375 1124.203125 M 478.632813 1122.878906 C 478.632813 1113.871094 480.089844 1105.351563 483.003906 1097.3125 C 485.917969 1089.273438 489.894531 1082.300781 494.929688 1076.378906 C 499.964844 1070.460938 505.878906 1065.777344 512.683594 1062.332031 C 519.480469 1058.890625 526.683594 1057.167969 534.277344 1057.167969 C 542.753906 1057.167969 550 1059.066406 556.007813 1062.863281 C 558.933594 1064.71875 561.566406 1066.683594 563.910156 1068.765625 C 566.71875 1071.269531 570.976563 1070.421875 572.847656 1067.15625 C 573.78125 1065.523438 574.96875 1064.003906 576.410156 1062.597656 C 580.121094 1058.980469 584.53125 1057.167969 589.65625 1057.167969 C 594.957031 1057.167969 599.503906 1059.066406 603.304688 1062.863281 C 607.101563 1066.664063 609 1071.210938 609 1076.511719 L 609 1184.089844 C 609 1195.046875 607.320313 1204.625 603.964844 1212.839844 C 600.609375 1221.054688 596.019531 1227.941406 590.1875 1233.507813 C 584.355469 1239.074219 577.554688 1243.222656 569.785156 1245.960938 C 562.007813 1248.699219 553.792969 1250.070313 545.140625 1250.070313 C 537.722656 1250.070313 531.050781 1249.183594 525.136719 1247.417969 C 519.214844 1245.652344 514.226563 1243.351563 510.164063 1240.527344 C 506.628906 1238.054688 504.109375 1235.535156 502.613281 1232.976563 C 501.109375 1230.414063 500.359375 1227.8125 500.359375 1225.160156 C 500.359375 1220.742188 501.953125 1216.8125 505.128906 1213.371094 C 508.308594 1209.925781 512.371094 1208.203125 517.320313 1208.203125 C 521.027344 1208.203125 524.558594 1209.527344 527.917969 1212.175781 C 533.148438 1215.785156 538.566406 1217.550781 544.171875 1217.476563 C 546.6875 1217.4375 549.207031 1216.941406 551.523438 1215.960938 C 554.894531 1214.527344 557.808594 1212.339844 560.246094 1209.394531 C 562.363281 1206.832031 564.042969 1203.871094 565.28125 1200.519531 C 566.515625 1197.160156 567.136719 1193.542969 567.136719 1189.65625 L 567.136719 1187.496094 C 567.136719 1183.476563 562.820313 1180.886719 559.308594 1182.839844 C 552.105469 1186.851563 544.203125 1188.859375 535.601563 1188.859375 C 527.652344 1188.859375 520.234375 1187.136719 513.34375 1183.691406 C 506.453125 1180.246094 500.402344 1175.523438 495.195313 1169.515625 C 489.980469 1163.511719 485.917969 1156.488281 483.003906 1148.449219 C 480.089844 1140.414063 478.632813 1131.890625 478.632813 1122.878906 "/>
</g>
</svg>
