<?xml version="1.0" encoding="UTF-8"?>
<svg xmlns="http://www.w3.org/2000/svg" xmlns:xlink="http://www.w3.org/1999/xlink" width="750pt" height="1334pt" viewBox="0 0 750 1334" version="1.1">
<g id="surface1">
<path style=" stroke:none;fill-rule:nonzero;fill:rgb(63.867188%,12.939453%,39.598083%);fill-opacity:1;" d="M 516.859375 813.078125 C 498.757813 813.179688 482.125 803.96875 464.308594 801.71875 C 454.183594 800.441406 441.644531 799.671875 431.164063 803.085938 C 438.773438 787.863281 447.847656 773.335938 458.253906 759.550781 C 471.667969 741.765625 485.644531 724.1875 492.257813 702.550781 C 494.929688 693.796875 481.234375 690.054688 478.570313 698.777344 C 472.679688 718.050781 459.90625 734.050781 447.898438 749.871094 C 435.792969 765.824219 424.957031 782.445313 416.359375 800.574219 C 399.335938 836.480469 390.089844 875.925781 389.503906 915.667969 C 389.378906 924.0625 389.652344 932.46875 390.320313 940.839844 C 389.992188 940.632813 389.648438 940.46875 389.296875 940.339844 C 379.371094 923.867188 370.539063 906.792969 366.714844 887.710938 C 361.671875 862.566406 363.5625 836.085938 363.851563 810.601563 C 364.429688 759.15625 364.671875 706.691406 350.679688 656.734375 C 343.171875 629.925781 331.472656 604.316406 316.214844 581.039063 C 311.230469 573.429688 298.933594 580.53125 303.960938 588.199219 C 332.074219 631.09375 344.898438 679.878906 348.363281 730.675781 C 349.09375 741.421875 349.484375 752.183594 349.683594 762.945313 C 338.789063 749.730469 322.269531 741.4375 305.800781 736.457031 C 282.378906 729.375 256.898438 727.109375 235.269531 715.390625 C 232.539063 711.78125 229.152344 708.851563 224.320313 708.859375 C 221.941406 708.863281 221.519531 711.765625 223.195313 713.007813 C 226.265625 715.28125 229.453125 717.285156 232.722656 719.085938 C 234.664063 721.886719 236.242188 725.113281 237.785156 727.324219 C 241.273438 732.324219 245.195313 737.027344 249.496094 741.351563 C 258.414063 750.320313 268.933594 757.738281 280.308594 763.25 C 301.839844 773.6875 326.289063 777.425781 349.8125 773.023438 C 349.902344 784.660156 349.8125 796.300781 349.6875 807.933594 C 349.402344 833.953125 347.921875 860.441406 352.082031 886.238281 C 356.570313 914.09375 371.007813 938.164063 385.816406 961.65625 C 386.046875 962.015625 386.289063 962.332031 386.546875 962.628906 C 390.265625 969.902344 393.988281 977.179688 397.710938 984.457031 C 401.46875 991.8125 412.507813 986.597656 410.679688 978.988281 C 401.683594 941.546875 401.386719 902.199219 409.496094 864.5625 C 413.085938 847.910156 418.273438 831.878906 424.917969 816.503906 C 452.695313 834.179688 489.882813 834.550781 517.984375 817.222656 C 519.835938 816.085938 519.109375 813.066406 516.859375 813.078125 "/>
<path style=" stroke:none;fill-rule:nonzero;fill:rgb(75.78125%,25.87738%,49.414063%);fill-opacity:1;" d="M 385.476563 504.511719 C 391.703125 499.632813 397.707031 494.488281 403.386719 488.976563 C 408.515625 483.996094 413.855469 478.726563 417.210938 472.328125 C 420.960938 465.171875 421.953125 456.699219 418.453125 449.261719 C 415.28125 442.53125 408.28125 438.433594 401.082031 437.480469 C 393.738281 436.511719 387.328125 438.351563 381.550781 441.667969 C 382.296875 438.230469 382.746094 434.773438 382.769531 431.34375 C 382.859375 418.507813 373.558594 404.824219 359.421875 406.234375 C 346.878906 407.484375 336.488281 417.949219 329.371094 427.589844 C 321.492188 438.269531 316.144531 450.484375 312.761719 463.285156 C 308.785156 478.335938 307.453125 493.960938 306.375 509.4375 C 306.191406 512.0625 308.078125 514.375 310.425781 515.414063 C 310.785156 517.257813 311.261719 519.078125 311.871094 520.863281 C 314.128906 527.5 318.265625 535.996094 326.429688 535.984375 C 329.742188 535.976563 332.726563 534.664063 335.726563 533.414063 C 339.644531 531.78125 343.539063 530.0625 347.367188 528.21875 C 360.878906 521.722656 373.675781 513.753906 385.476563 504.511719 "/>
<path style=" stroke:none;fill-rule:nonzero;fill:rgb(75.78125%,25.87738%,49.414063%);fill-opacity:1;" d="M 430.472656 512.277344 C 424.019531 501.449219 410.136719 496.480469 398.386719 494.128906 C 385.371094 491.519531 372.042969 491.855469 359.011719 494.226563 C 344.753906 496.816406 331.019531 501.699219 317.511719 506.871094 C 317.648438 506.046875 317.769531 505.214844 317.890625 504.386719 C 318.515625 500.183594 319.050781 495.964844 319.449219 491.730469 C 320.859375 476.808594 320.640625 461.734375 318.8125 446.855469 C 317.847656 439.003906 316.542969 431.203125 314.753906 423.5 C 313.136719 416.53125 311.378906 409.238281 307.628906 403.066406 C 303.4375 396.15625 296.695313 390.933594 288.515625 390.09375 C 281.113281 389.335938 273.992188 393.214844 269.460938 398.890625 C 264.835938 404.679688 263.105469 411.121094 262.964844 417.78125 C 260.40625 415.367188 257.671875 413.199219 254.75 411.410156 C 243.804688 404.707031 227.28125 405.609375 221.195313 418.441406 C 215.789063 429.835938 219.390625 444.132813 223.972656 455.203125 C 229.050781 467.464844 236.753906 478.351563 245.972656 487.859375 C 255.101563 497.269531 265.546875 505.273438 276.203125 512.894531 C 273.023438 514.011719 269.859375 515.171875 266.730469 516.425781 C 252.820313 522.007813 239.515625 529.101563 227.128906 537.539063 C 220.589844 541.992188 214.253906 546.726563 208.222656 551.847656 C 202.769531 556.472656 197.09375 561.378906 193.320313 567.539063 C 189.101563 574.425781 187.542969 582.8125 190.542969 590.46875 C 193.257813 597.394531 199.96875 601.949219 207.089844 603.378906 C 214.351563 604.839844 220.871094 603.429688 226.855469 600.503906 C 225.882813 603.886719 225.203125 607.304688 224.953125 610.722656 C 224.007813 623.527344 232.375 637.800781 246.574219 637.335938 C 259.027344 636.925781 269.972656 627.402344 277.699219 618.355469 C 279.53125 624.386719 281.652344 630.515625 285.238281 635.699219 C 289.832031 642.347656 296.871094 647.160156 305.085938 647.515625 C 312.519531 647.835938 319.398438 643.539063 323.585938 637.605469 C 327.859375 631.550781 329.207031 625.019531 328.953125 618.363281 C 331.648438 620.621094 334.503906 622.625 337.527344 624.238281 C 348.855469 630.28125 365.289063 628.402344 370.609375 615.226563 C 374.472656 605.664063 372.199219 594.515625 368.382813 584.875 C 370.308594 585.675781 372.246094 586.449219 374.195313 587.191406 C 380.882813 589.722656 387.921875 592.324219 395.136719 592.644531 C 403.210938 593.007813 411.304688 590.3125 416.550781 583.984375 C 421.304688 578.257813 422.039063 570.183594 419.851563 563.261719 C 417.613281 556.195313 413.226563 551.171875 407.773438 547.347656 C 411.203125 546.566406 414.523438 545.503906 417.640625 544.070313 C 429.300781 538.707031 437.746094 524.480469 430.472656 512.277344 "/>
<path style=" stroke:none;fill-rule:nonzero;fill:rgb(75.78125%,25.87738%,49.414063%);fill-opacity:1;" d="M 245.257813 471.273438 C 238.605469 466.996094 231.777344 463.011719 224.707031 459.460938 C 218.316406 456.246094 211.585938 452.933594 204.441406 451.867188 C 196.449219 450.671875 188.121094 452.515625 182.246094 458.265625 C 176.929688 463.46875 175.359375 471.425781 176.824219 478.539063 C 178.316406 485.796875 182.160156 491.25 187.191406 495.617188 C 183.695313 496.039063 180.285156 496.753906 177.039063 497.855469 C 164.882813 501.984375 155.011719 515.261719 160.984375 528.148438 C 166.285156 539.589844 179.582031 545.964844 191.023438 549.523438 C 203.699219 553.460938 216.992188 554.503906 230.195313 553.496094 C 245.71875 552.308594 260.910156 548.433594 275.886719 544.371094 C 278.425781 543.683594 279.992188 541.140625 280.203125 538.582031 C 281.824219 537.636719 283.386719 536.59375 284.875 535.429688 C 290.402344 531.117188 297.070313 524.421875 294.375 516.714844 C 293.28125 513.589844 291.0625 511.195313 288.898438 508.777344 C 286.0625 505.609375 283.164063 502.5 280.164063 499.484375 C 269.59375 488.859375 257.863281 479.382813 245.257813 471.273438 "/>
<path style=" stroke:none;fill-rule:nonzero;fill:rgb(75.78125%,25.87738%,49.414063%);fill-opacity:1;" d="M 516.34375 597.195313 C 515.636719 591.453125 514.683594 585.742188 513.371094 580.105469 C 512.1875 575.007813 510.902344 569.671875 508.160156 565.152344 C 505.089844 560.097656 500.15625 556.273438 494.171875 555.660156 C 488.757813 555.105469 483.542969 557.945313 480.230469 562.097656 C 476.84375 566.335938 475.578125 571.046875 475.476563 575.921875 C 473.601563 574.152344 471.601563 572.566406 469.464844 571.257813 C 461.453125 566.351563 449.363281 567.011719 444.90625 576.40625 C 440.953125 584.742188 443.585938 595.203125 446.941406 603.304688 C 450.65625 612.277344 456.292969 620.246094 463.039063 627.203125 C 470.96875 635.378906 480.261719 642.113281 489.554688 648.636719 C 491.128906 649.742188 493.292969 649.433594 494.832031 648.355469 C 496.121094 648.824219 497.441406 649.214844 498.792969 649.507813 C 503.804688 650.597656 510.691406 651.214844 513.765625 646.09375 C 515.015625 644.015625 515.320313 641.648438 515.667969 639.296875 C 516.125 636.21875 516.515625 633.132813 516.808594 630.035156 C 517.839844 619.117188 517.679688 608.085938 516.34375 597.195313 "/>
<path style=" stroke:none;fill-rule:nonzero;fill:rgb(75.78125%,25.87738%,49.414063%);fill-opacity:1;" d="M 565.125 639.386719 C 569.683594 635.816406 574.078125 632.054688 578.230469 628.019531 C 581.984375 624.375 585.894531 620.519531 588.347656 615.835938 C 591.09375 610.601563 591.820313 604.402344 589.257813 598.957031 C 586.9375 594.03125 581.816406 591.035156 576.546875 590.335938 C 571.171875 589.625 566.480469 590.972656 562.253906 593.402344 C 562.800781 590.882813 563.128906 588.355469 563.144531 585.847656 C 563.210938 576.453125 556.40625 566.4375 546.0625 567.472656 C 536.878906 568.386719 529.277344 576.042969 524.070313 583.097656 C 518.304688 590.910156 514.390625 599.851563 511.914063 609.222656 C 509.003906 620.234375 508.03125 631.664063 507.242188 642.992188 C 507.105469 644.914063 508.488281 646.609375 510.207031 647.367188 C 510.46875 648.714844 510.816406 650.046875 511.261719 651.355469 C 512.914063 656.210938 515.941406 662.429688 521.914063 662.417969 C 524.339844 662.414063 526.523438 661.453125 528.71875 660.539063 C 531.589844 659.34375 534.4375 658.085938 537.238281 656.738281 C 547.125 651.984375 556.492188 646.152344 565.125 639.386719 "/>
<path style=" stroke:none;fill-rule:nonzero;fill:rgb(75.78125%,25.87738%,49.414063%);fill-opacity:1;" d="M 541.019531 692.847656 C 546.183594 695.457031 551.457031 697.839844 556.871094 699.890625 C 561.765625 701.746094 566.914063 703.648438 572.195313 703.882813 C 578.101563 704.148438 584.027344 702.175781 587.867188 697.546875 C 591.34375 693.355469 591.882813 687.445313 590.28125 682.378906 C 588.644531 677.210938 585.433594 673.535156 581.441406 670.734375 C 583.953125 670.164063 586.382813 669.386719 588.664063 668.339844 C 597.195313 664.410156 603.378906 654 598.054688 645.074219 C 593.332031 637.148438 583.171875 633.511719 574.574219 631.789063 C 565.050781 629.882813 555.296875 630.128906 545.761719 631.863281 C 534.554688 633.898438 523.789063 637.867188 513.195313 641.957031 C 511.402344 642.652344 510.453125 644.621094 510.492188 646.5 C 509.382813 647.308594 508.324219 648.1875 507.328125 649.148438 C 503.632813 652.703125 499.289063 658.082031 501.828125 663.488281 C 502.863281 665.683594 504.660156 667.253906 506.417969 668.851563 C 508.71875 670.941406 511.066406 672.988281 513.476563 674.953125 C 521.976563 681.886719 531.230469 687.898438 541.019531 692.847656 "/>
<path style=" stroke:none;fill-rule:nonzero;fill:rgb(75.78125%,25.87738%,49.414063%);fill-opacity:1;" d="M 481.703125 703.886719 C 482.75 709.578125 484.042969 715.21875 485.683594 720.773438 C 487.167969 725.789063 488.765625 731.042969 491.773438 735.390625 C 495.136719 740.253906 500.285156 743.777344 506.296875 744.035156 C 511.738281 744.269531 516.769531 741.125 519.835938 736.785156 C 522.964844 732.355469 523.949219 727.574219 523.761719 722.703125 C 525.738281 724.355469 527.824219 725.820313 530.039063 727.003906 C 538.328125 731.425781 550.355469 730.050781 554.246094 720.410156 C 557.699219 711.855469 554.449219 701.566406 550.621094 693.675781 C 546.382813 684.9375 540.285156 677.320313 533.136719 670.777344 C 524.734375 663.082031 515.0625 656.910156 505.398438 650.949219 C 503.761719 649.941406 501.617188 650.375 500.148438 651.542969 C 498.832031 651.152344 497.492188 650.839844 496.125 650.625 C 491.058594 649.835938 484.144531 649.628906 481.378906 654.921875 C 480.257813 657.070313 480.09375 659.453125 479.882813 661.820313 C 479.609375 664.917969 479.402344 668.023438 479.292969 671.132813 C 478.910156 682.09375 479.726563 693.097656 481.703125 703.886719 "/>
<path style=" stroke:none;fill-rule:nonzero;fill:rgb(75.78125%,25.87738%,49.414063%);fill-opacity:1;" d="M 449.25 663.558594 C 444.464844 666.816406 439.828125 670.28125 435.414063 674.027344 C 431.425781 677.414063 427.269531 681.003906 424.511719 685.511719 C 421.421875 690.550781 420.28125 696.6875 422.476563 702.289063 C 424.464844 707.359375 429.375 710.691406 434.585938 711.738281 C 439.902344 712.808594 444.671875 711.773438 449.050781 709.632813 C 448.339844 712.109375 447.84375 714.613281 447.65625 717.113281 C 446.96875 726.480469 453.089844 736.925781 463.480469 736.585938 C 472.699219 736.285156 480.796875 729.152344 486.460938 722.457031 C 492.738281 715.046875 497.238281 706.386719 500.335938 697.203125 C 503.972656 686.410156 505.699219 675.066406 507.246094 663.816406 C 507.507813 661.910156 506.242188 660.128906 504.578125 659.253906 C 504.40625 657.894531 504.148438 656.539063 503.789063 655.203125 C 502.464844 650.25 499.859375 643.847656 493.898438 643.457031 C 491.480469 643.300781 489.234375 644.113281 486.984375 644.878906 C 484.039063 645.882813 481.117188 646.949219 478.230469 648.105469 C 468.050781 652.191406 458.316406 657.382813 449.25 663.558594 "/>
<path style=" stroke:none;fill-rule:nonzero;fill:rgb(75.78125%,25.87738%,49.414063%);fill-opacity:1;" d="M 462.519531 615.066406 C 457.648438 611.933594 452.652344 609.019531 447.476563 606.421875 C 442.804688 604.070313 437.875 601.644531 432.648438 600.863281 C 426.800781 599.992188 420.703125 601.339844 416.40625 605.546875 C 412.515625 609.355469 411.367188 615.179688 412.4375 620.382813 C 413.53125 625.695313 416.34375 629.683594 420.023438 632.878906 C 417.46875 633.1875 414.96875 633.710938 412.597656 634.519531 C 403.703125 637.539063 396.476563 647.253906 400.847656 656.6875 C 404.726563 665.058594 414.453125 669.722656 422.828125 672.328125 C 432.105469 675.210938 441.832031 675.972656 451.496094 675.234375 C 462.851563 674.367188 473.972656 671.527344 484.929688 668.558594 C 486.789063 668.054688 487.933594 666.191406 488.089844 664.320313 C 489.277344 663.628906 490.421875 662.863281 491.507813 662.015625 C 495.550781 658.855469 500.429688 653.960938 498.460938 648.320313 C 497.660156 646.03125 496.035156 644.28125 494.453125 642.507813 C 492.378906 640.191406 490.253906 637.914063 488.0625 635.710938 C 480.328125 627.933594 471.742188 621.003906 462.519531 615.066406 "/>
<path style=" stroke:none;fill-rule:nonzero;fill:rgb(84.764099%,43.530273%,65.039063%);fill-opacity:1;" d="M 523.667969 644.363281 C 522.527344 642.710938 521.242188 641.363281 519.839844 640.28125 C 517.488281 637.175781 514.152344 634.902344 509.464844 634.117188 C 499.941406 632.527344 487.429688 635.875 483.390625 645.453125 C 482.945313 646.503906 482.617188 647.554688 482.394531 648.59375 C 481.203125 650.882813 480.539063 653.484375 480.59375 656.382813 C 480.675781 660.882813 482.902344 665.054688 485.398438 668.664063 C 488.25 672.78125 491.53125 676.3125 496.621094 677.394531 C 501.085938 678.34375 505.597656 677.308594 509.839844 675.890625 C 514.078125 674.46875 519.367188 673.359375 522.539063 669.984375 C 523.195313 669.285156 523.75 668.542969 524.222656 667.761719 C 529.351563 661.449219 528.019531 650.679688 523.667969 644.363281 "/>
<path style=" stroke:none;fill-rule:nonzero;fill:rgb(88.671875%,56.054688%,74.804688%);fill-opacity:1;" d="M 283.570313 520.222656 C 276.382813 512.882813 265.136719 510.367188 255.640625 514.535156 C 246.25 518.660156 240.402344 528.8125 241.097656 538.972656 C 241.546875 545.515625 251.789063 545.5625 251.339844 538.972656 C 250.390625 525.109375 266.382813 517.3125 276.328125 527.464844 C 280.945313 532.179688 288.1875 524.9375 283.570313 520.222656 "/>
<path style=" stroke:none;fill-rule:nonzero;fill:rgb(88.671875%,56.054688%,74.804688%);fill-opacity:1;" d="M 352.03125 495.578125 C 346.164063 487.148438 335.492188 482.800781 325.4375 485.335938 C 315.492188 487.839844 308.039063 496.878906 307.035156 507.015625 C 306.390625 513.539063 316.484375 515.289063 317.136719 508.71875 C 318.503906 494.886719 335.570313 489.855469 343.6875 501.515625 C 347.460938 506.9375 355.800781 500.996094 352.03125 495.578125 "/>
<path style=" stroke:none;fill-rule:nonzero;fill:rgb(88.671875%,56.054688%,74.804688%);fill-opacity:1;" d="M 314.792969 535.78125 C 305.660156 535.78125 305.644531 549.972656 314.792969 549.972656 C 323.925781 549.972656 323.941406 535.78125 314.792969 535.78125 "/>
<path style=" stroke:none;fill-rule:nonzero;fill:rgb(92.96875%,53.318787%,80.859375%);fill-opacity:1;" d="M 366.578125 510.574219 C 364.382813 509.578125 361.105469 510.222656 358.8125 510.636719 C 355.859375 511.171875 353.066406 512.289063 350.445313 513.730469 C 349.863281 514.050781 349.46875 514.46875 349.203125 514.921875 C 348.59375 515.421875 348.097656 516.078125 347.800781 517.082031 C 347.140625 519.316406 348.488281 521.566406 350.644531 522.308594 C 352.632813 522.988281 355.347656 522.324219 357.339844 522.019531 C 359.644531 521.671875 361.929688 521.066406 364 519.964844 C 367.132813 518.300781 371.878906 512.976563 366.578125 510.574219 "/>
<path style=" stroke:none;fill-rule:nonzero;fill:rgb(92.96875%,53.318787%,80.859375%);fill-opacity:1;" d="M 256.816406 553.15625 C 254.617188 552.15625 251.34375 552.800781 249.050781 553.21875 C 246.097656 553.753906 243.300781 554.871094 240.683594 556.3125 C 240.097656 556.632813 239.707031 557.046875 239.441406 557.503906 C 238.828125 558.003906 238.332031 558.65625 238.035156 559.664063 C 237.378906 561.898438 238.726563 564.148438 240.882813 564.886719 C 242.871094 565.570313 245.582031 564.902344 247.574219 564.601563 C 249.882813 564.25 252.164063 563.648438 254.238281 562.546875 C 257.371094 560.878906 262.117188 555.558594 256.816406 553.15625 "/>
<path style=" stroke:none;fill-rule:nonzero;fill:rgb(75.78125%,25.87738%,49.414063%);fill-opacity:1;" d="M 73.386719 90.921875 C 73.386719 83.960938 76.175781 78.089844 81.746094 73.308594 C 87.316406 68.539063 94.164063 66.148438 102.292969 66.148438 L 222.785156 66.148438 C 229.519531 66.148438 235.203125 68.140625 239.851563 72.121094 C 244.492188 76.101563 246.816406 80.980469 246.816406 86.738281 C 246.816406 92.519531 244.492188 97.390625 239.851563 101.371094 C 235.203125 105.351563 229.519531 107.339844 222.785156 107.339844 L 142.914063 107.339844 C 136.441406 107.339844 131.195313 112.589844 131.195313 119.058594 L 131.195313 135.609375 C 131.195313 142.089844 136.441406 147.328125 142.914063 147.328125 L 199.800781 147.328125 C 206.535156 147.328125 212.21875 149.320313 216.867188 153.300781 C 221.507813 157.289063 223.832031 162.058594 223.832031 167.628906 C 223.832031 173.398438 221.507813 178.28125 216.867188 182.25 C 212.21875 186.238281 206.535156 188.21875 199.800781 188.21875 L 142.914063 188.21875 C 136.441406 188.21875 131.195313 193.46875 131.195313 199.941406 L 131.195313 259.261719 C 131.195313 266.230469 128.410156 272.089844 122.839844 276.871094 C 117.265625 281.648438 110.414063 284.03125 102.292969 284.03125 C 94.164063 284.03125 87.316406 281.648438 81.746094 276.871094 C 76.175781 272.089844 73.386719 266.230469 73.386719 259.261719 "/>
<path style=" stroke:none;fill-rule:nonzero;fill:rgb(75.78125%,25.87738%,49.414063%);fill-opacity:1;" d="M 72.386719 1121.027344 C 72.386719 1116.371094 74.25 1112.441406 77.980469 1109.246094 C 81.707031 1106.050781 86.285156 1104.453125 91.722656 1104.453125 L 172.335938 1104.453125 C 176.839844 1104.453125 180.640625 1105.785156 183.753906 1108.449219 C 186.855469 1111.113281 188.410156 1114.371094 188.410156 1118.230469 C 188.410156 1122.09375 186.855469 1125.355469 183.753906 1128.015625 C 180.640625 1130.679688 176.839844 1132.007813 172.335938 1132.007813 L 118.902344 1132.007813 C 114.570313 1132.007813 111.0625 1135.519531 111.0625 1139.851563 L 111.0625 1150.925781 C 111.0625 1155.257813 114.570313 1158.765625 118.902344 1158.765625 L 156.957031 1158.765625 C 161.460938 1158.765625 165.265625 1160.097656 168.375 1162.757813 C 171.480469 1165.425781 173.035156 1168.617188 173.035156 1172.34375 C 173.035156 1176.207031 171.480469 1179.46875 168.375 1182.128906 C 165.265625 1184.792969 161.460938 1186.121094 156.957031 1186.121094 L 118.902344 1186.121094 C 114.570313 1186.121094 111.0625 1189.632813 111.0625 1193.960938 L 111.0625 1233.644531 C 111.0625 1238.304688 109.199219 1242.230469 105.46875 1245.425781 C 101.742188 1248.621094 97.160156 1250.21875 91.722656 1250.21875 C 86.285156 1250.21875 81.707031 1248.621094 77.980469 1245.425781 C 74.25 1242.230469 72.386719 1238.304688 72.386719 1233.644531 "/>
<path style=" stroke:none;fill-rule:nonzero;fill:rgb(75.78125%,25.87738%,49.414063%);fill-opacity:1;" d="M 560.21875 1189.707031 C 564.789063 1189.707031 568.132813 1185.144531 566.488281 1180.878906 L 566.457031 1180.796875 C 565.386719 1178.0625 564.019531 1175.691406 562.351563 1173.691406 C 560.679688 1171.6875 558.78125 1170.121094 556.644531 1168.984375 C 554.511719 1167.851563 552.242188 1167.285156 549.839844 1167.285156 C 547.4375 1167.285156 545.164063 1167.851563 543.03125 1168.984375 C 540.894531 1170.121094 538.992188 1171.6875 537.328125 1173.691406 C 535.65625 1175.691406 534.355469 1178.0625 533.421875 1180.796875 C 533.382813 1180.914063 533.34375 1181.027344 533.308594 1181.144531 C 531.929688 1185.378906 535.21875 1189.707031 539.667969 1189.707031 Z M 573.464844 1219.136719 C 576.796875 1219.136719 579.699219 1220.40625 582.171875 1222.941406 C 584.640625 1225.476563 585.875 1228.480469 585.875 1231.949219 C 585.875 1233.820313 585.308594 1235.753906 584.175781 1237.753906 C 583.039063 1239.757813 580.9375 1241.695313 577.867188 1243.5625 C 574.53125 1245.699219 570.492188 1247.433594 565.753906 1248.765625 C 561.015625 1250.101563 556.113281 1250.769531 551.039063 1250.769531 C 544.632813 1250.769531 538.429688 1249.566406 532.421875 1247.164063 C 526.414063 1244.765625 521.074219 1241.257813 516.40625 1236.652344 C 511.734375 1232.050781 507.996094 1226.414063 505.195313 1219.738281 C 502.390625 1213.066406 500.988281 1205.457031 500.988281 1196.914063 C 500.988281 1188.773438 502.289063 1181.367188 504.894531 1174.691406 C 507.496094 1168.019531 511 1162.3125 515.40625 1157.574219 C 519.808594 1152.839844 524.980469 1149.199219 530.917969 1146.664063 C 536.859375 1144.128906 543.164063 1142.859375 549.839844 1142.859375 C 557.179688 1142.859375 563.917969 1144.363281 570.058594 1147.363281 C 576.195313 1150.367188 581.402344 1154.238281 585.675781 1158.976563 C 589.945313 1163.714844 593.28125 1168.984375 595.6875 1174.792969 C 598.085938 1180.597656 599.289063 1186.304688 599.289063 1191.910156 C 599.289063 1197.914063 598.085938 1202.289063 595.6875 1205.023438 C 593.28125 1207.761719 590.347656 1209.128906 586.878906 1209.128906 L 539.414063 1209.128906 C 534.136719 1209.128906 532.640625 1215 536.03125 1219.046875 C 538.703125 1222.238281 543.703125 1226.34375 551.441406 1226.34375 C 553.976563 1226.34375 556.511719 1225.914063 559.050781 1225.042969 C 561.582031 1224.175781 563.851563 1223.074219 565.855469 1221.738281 C 568.523438 1220.007813 571.0625 1219.136719 573.464844 1219.136719 "/>
<path style=" stroke:none;fill-rule:nonzero;fill:rgb(75.78125%,25.87738%,49.414063%);fill-opacity:1;" d="M 271.480469 171.339844 C 267.304688 171.339844 263.8125 169.929688 260.996094 167.121094 C 258.179688 164.300781 256.777344 160.808594 256.777344 156.628906 C 256.777344 152.460938 258.179688 148.960938 260.996094 146.148438 C 263.8125 143.328125 267.304688 141.921875 271.480469 141.921875 C 274.339844 141.921875 276.65625 139.609375 276.65625 136.75 L 276.65625 124.21875 C 276.65625 118.960938 277.652344 113.96875 279.652344 109.238281 C 281.648438 104.53125 284.417969 100.398438 287.960938 96.851563 C 291.5 93.308594 295.628906 90.550781 300.347656 88.550781 C 305.070313 86.550781 310.0625 85.550781 315.328125 85.550781 L 337.386719 85.550781 C 342.105469 85.550781 346.054688 87.140625 349.234375 90.320313 C 352.410156 93.5 354 97.441406 354 102.160156 C 354 106.890625 352.410156 110.839844 349.234375 114.011719 C 346.054688 117.191406 342.105469 118.769531 337.386719 118.769531 L 326.222656 118.769531 C 323.316406 118.769531 321.546875 119.511719 320.910156 120.960938 C 320.273438 122.410156 319.960938 124.859375 319.960938 128.308594 L 319.960938 136.75 C 319.960938 139.609375 322.273438 141.921875 325.132813 141.921875 L 339.023438 141.921875 C 343.195313 141.921875 346.734375 143.328125 349.640625 146.148438 C 352.546875 148.960938 354 152.460938 354 156.628906 C 354 160.808594 352.546875 164.351563 349.640625 167.25 C 346.734375 170.160156 343.195313 171.609375 339.023438 171.609375 L 325.132813 171.609375 C 322.273438 171.609375 319.960938 173.929688 319.960938 176.78125 L 319.960938 262.570313 C 319.960938 268.378906 317.820313 273.421875 313.558594 277.679688 C 309.289063 281.949219 304.253906 284.078125 298.445313 284.078125 C 292.453125 284.078125 287.320313 281.949219 283.054688 277.679688 C 278.789063 273.421875 276.65625 268.378906 276.65625 262.570313 L 276.65625 176.511719 C 276.65625 173.648438 274.339844 171.339844 271.480469 171.339844 "/>
<path style=" stroke:none;fill-rule:nonzero;fill:rgb(75.78125%,25.87738%,49.414063%);fill-opacity:1;" d="M 214.363281 1251.289063 C 209.960938 1251.289063 206.222656 1249.753906 203.152344 1246.683594 C 200.078125 1243.617188 198.546875 1239.878906 198.546875 1235.472656 L 198.546875 1117.554688 C 198.546875 1113.148438 200.078125 1109.414063 203.152344 1106.34375 C 206.222656 1103.273438 209.960938 1101.738281 214.363281 1101.738281 C 218.765625 1101.738281 222.503906 1103.273438 225.574219 1106.34375 C 228.644531 1109.414063 230.179688 1113.148438 230.179688 1117.554688 L 230.179688 1235.472656 C 230.179688 1239.878906 228.644531 1243.617188 225.574219 1246.683594 C 222.503906 1249.753906 218.765625 1251.289063 214.363281 1251.289063 "/>
<path style=" stroke:none;fill-rule:nonzero;fill:rgb(75.78125%,25.87738%,49.414063%);fill-opacity:1;" d="M 316.109375 1196.421875 C 316.109375 1191.484375 315.507813 1187.148438 314.304688 1183.40625 C 313.105469 1179.675781 311.535156 1176.570313 309.601563 1174.101563 C 307.664063 1171.632813 305.496094 1169.761719 303.09375 1168.492188 C 300.691406 1167.226563 298.355469 1166.589844 296.089844 1166.589844 C 293.816406 1166.589844 291.484375 1167.226563 289.082031 1168.492188 C 286.679688 1169.761719 284.542969 1171.664063 282.675781 1174.199219 C 280.804688 1176.734375 279.273438 1179.875 278.070313 1183.609375 C 276.871094 1187.347656 276.269531 1191.617188 276.269531 1196.421875 C 276.269531 1201.226563 276.835938 1205.429688 277.96875 1209.03125 C 279.101563 1212.640625 280.636719 1215.675781 282.574219 1218.144531 C 284.507813 1220.613281 286.679688 1222.449219 289.082031 1223.648438 C 291.484375 1224.851563 293.886719 1225.449219 296.289063 1225.449219 C 298.691406 1225.449219 301.058594 1224.851563 303.398438 1223.648438 C 305.730469 1222.449219 307.867188 1220.613281 309.804688 1218.144531 C 311.734375 1215.675781 313.273438 1212.640625 314.40625 1209.03125 C 315.539063 1205.429688 316.109375 1201.226563 316.109375 1196.421875 M 347.738281 1196.019531 C 347.738281 1203.496094 346.4375 1210.503906 343.835938 1217.042969 C 341.234375 1223.585938 337.632813 1229.289063 333.027344 1234.160156 C 328.421875 1239.03125 322.980469 1242.867188 316.710938 1245.671875 C 310.433594 1248.476563 303.628906 1249.875 296.289063 1249.875 C 288.945313 1249.875 282.105469 1248.476563 275.769531 1245.671875 C 269.425781 1242.867188 263.957031 1239.03125 259.351563 1234.160156 C 254.746094 1229.289063 251.144531 1223.585938 248.539063 1217.042969 C 245.9375 1210.503906 244.636719 1203.496094 244.636719 1196.019531 C 244.636719 1188.683594 245.9375 1181.742188 248.539063 1175.199219 C 251.144531 1168.660156 254.746094 1162.921875 259.351563 1157.984375 C 263.957031 1153.046875 269.425781 1149.175781 275.769531 1146.371094 C 282.105469 1143.566406 288.945313 1142.167969 296.289063 1142.167969 C 303.628906 1142.167969 310.433594 1143.566406 316.710938 1146.371094 C 322.980469 1149.175781 328.421875 1153.046875 333.027344 1157.984375 C 337.632813 1162.921875 341.234375 1168.660156 343.835938 1175.199219 C 346.4375 1181.742188 347.738281 1188.683594 347.738281 1196.019531 "/>
<path style=" stroke:none;fill-rule:nonzero;fill:rgb(75.78125%,25.87738%,49.414063%);fill-opacity:1;" d="M 642.234375 1153.394531 C 642.835938 1155.359375 645.28125 1155.445313 646.371094 1153.703125 C 648.03125 1151.039063 650.238281 1149.113281 651.972656 1147.710938 C 653.707031 1146.3125 655.507813 1145.179688 657.378906 1144.308594 C 659.246094 1143.445313 661.25 1143.007813 663.386719 1143.007813 C 666.988281 1143.007813 670.160156 1144.277344 672.894531 1146.8125 C 675.628906 1149.347656 677 1152.550781 677 1156.421875 C 677 1159.625 675.964844 1162.660156 673.898438 1165.53125 C 671.828125 1168.402344 668.722656 1169.835938 664.589844 1169.835938 C 661.515625 1169.835938 658.8125 1170.734375 656.480469 1172.535156 C 654.144531 1174.339844 652.175781 1176.742188 650.574219 1179.746094 C 648.972656 1182.746094 647.769531 1186.152344 646.96875 1189.957031 C 646.171875 1193.757813 645.769531 1197.664063 645.769531 1201.664063 L 645.769531 1235.097656 C 645.769531 1239.375 644.199219 1243.078125 641.0625 1246.210938 C 637.925781 1249.347656 634.222656 1250.914063 629.953125 1250.914063 C 625.546875 1250.914063 621.773438 1249.347656 618.644531 1246.210938 C 615.503906 1243.078125 613.9375 1239.375 613.9375 1235.097656 L 613.9375 1157.824219 C 613.9375 1153.6875 615.371094 1150.183594 618.242188 1147.3125 C 621.109375 1144.445313 624.613281 1143.007813 628.753906 1143.007813 C 632.621094 1143.007813 635.988281 1144.34375 638.863281 1147.011719 C 640.324219 1148.371094 641.449219 1150.804688 642.234375 1153.394531 "/>
<path style=" stroke:none;fill-rule:nonzero;fill:rgb(75.78125%,25.87738%,49.414063%);fill-opacity:1;" d="M 459.894531 1154.292969 C 460.691406 1150.957031 462.425781 1148.253906 465.097656 1146.183594 C 467.765625 1144.113281 470.835938 1143.078125 474.308594 1143.078125 C 478.578125 1143.078125 482.113281 1144.550781 484.917969 1147.484375 C 487.722656 1150.421875 489.121094 1153.890625 489.121094 1157.894531 C 489.121094 1159.496094 488.921875 1160.964844 488.519531 1162.300781 L 466.496094 1237.777344 C 465.296875 1241.648438 463.027344 1244.816406 459.691406 1247.285156 C 455.851563 1250.125 451.570313 1251.332031 446.84375 1250.902344 C 443.539063 1250.601563 440.339844 1249.394531 437.644531 1247.464844 C 433.714844 1244.652344 431.320313 1240.957031 430.464844 1236.375 L 425.640625 1205.484375 C 425.214844 1202.765625 421.296875 1202.765625 420.871094 1205.484375 L 416.046875 1236.375 C 415.257813 1240.585938 413.171875 1244.050781 409.789063 1246.765625 C 406.414063 1249.476563 402.15625 1250.988281 397.824219 1250.988281 C 393.6875 1250.988281 389.953125 1249.753906 386.617188 1247.285156 C 383.28125 1244.816406 381.078125 1241.648438 380.011719 1237.777344 L 357.988281 1162.300781 C 357.589844 1160.964844 357.390625 1159.496094 357.390625 1157.894531 C 357.390625 1153.890625 358.789063 1150.421875 361.59375 1147.484375 C 364.394531 1144.550781 367.929688 1143.078125 372.203125 1143.078125 C 375.671875 1143.078125 378.710938 1144.113281 381.3125 1146.183594 C 383.917969 1148.253906 385.683594 1150.957031 386.617188 1154.292969 L 397.117188 1200.800781 C 397.636719 1203.089844 400.914063 1203.023438 401.34375 1200.71875 L 410.042969 1153.691406 C 410.707031 1150.621094 412.308594 1148.085938 414.847656 1146.085938 C 417.378906 1144.082031 420.253906 1143.078125 423.453125 1143.078125 C 426.523438 1143.078125 429.328125 1144.082031 431.863281 1146.085938 C 434.398438 1148.085938 436 1150.621094 436.667969 1153.691406 L 445.003906 1199.777344 C 445.464844 1202.3125 449.074219 1202.390625 449.636719 1199.875 "/>
</g>
</svg>
