<?xml version="1.0" encoding="UTF-8"?>
<svg xmlns="http://www.w3.org/2000/svg" xmlns:xlink="http://www.w3.org/1999/xlink" width="750pt" height="1334pt" viewBox="0 0 750 1334" version="1.1">
<g id="surface1">
<path style=" stroke:none;fill-rule:nonzero;fill:rgb(92.96875%,80.46875%,78.514099%);fill-opacity:1;" d="M 534.917969 561.921875 C 523.367188 545.824219 499.527344 534.269531 484.859375 520.902344 C 470.09375 507.445313 454.164063 496.507813 438.621094 484.109375 C 434.324219 480.679688 430.015625 475.542969 425.554688 470.25 C 425.5625 470.191406 425.570313 470.132813 425.578125 470.074219 C 427.316406 460.605469 419.308594 454.363281 411.492188 455.457031 C 403.429688 448.835938 394.515625 445.890625 384.058594 453.382813 C 367.65625 465.132813 355.015625 481.734375 339.117188 494.847656 C 334.339844 497.238281 329.898438 499.425781 326.089844 501.007813 L 248.839844 533.113281 C 244.539063 534.902344 242.066406 538.148438 241.15625 541.691406 C 241.039063 541.941406 240.890625 542.144531 240.78125 542.414063 C 213.523438 611.394531 243.769531 699.148438 317.285156 721.109375 C 390.039063 742.847656 470.476563 721.28125 512.21875 656.488281 C 527.464844 632.816406 555.109375 590.0625 534.917969 561.921875 "/>
<path style=" stroke:none;fill-rule:nonzero;fill:rgb(84.764099%,21.166992%,12.939453%);fill-opacity:1;" d="M 611.167969 806.273438 C 615.117188 784.511719 601.402344 778.386719 582.484375 774.691406 C 582.789063 760.117188 565.886719 758.007813 554.433594 755.707031 C 559.039063 745.363281 555.824219 734.398438 557.328125 723.257813 C 558.445313 714.96875 563.667969 708.855469 560.515625 699.878906 C 559.046875 695.710938 556.054688 692.007813 552.515625 689.261719 C 558.339844 683.425781 562.621094 677.972656 562.851563 669.296875 C 563.078125 660.621094 557.714844 650.675781 557.074219 642.488281 C 556.058594 629.476563 562.410156 618.664063 561.410156 606.21875 C 561.082031 602.15625 557.019531 597.039063 556.902344 593.96875 C 556.269531 577.550781 564.097656 576.136719 568.515625 562.789063 C 569.941406 558.484375 568.921875 555.78125 569.222656 550.847656 C 569.824219 540.949219 567.410156 522.953125 565.808594 514.5625 C 563.597656 502.988281 558.730469 505.359375 554.753906 496.847656 C 549.589844 485.800781 553.828125 473.28125 544.257813 464.277344 C 540.496094 460.742188 533.945313 461.644531 530.152344 459.085938 C 516.050781 449.554688 516.644531 438.878906 506.0625 427.96875 C 499.351563 421.054688 492.007813 420.347656 482.992188 420.253906 C 478.320313 405.820313 468.953125 399.050781 454.660156 395.21875 C 442.308594 391.910156 434.066406 392.722656 421.675781 386.785156 C 418.972656 385.488281 413.804688 381.160156 409.738281 380.140625 C 402.945313 378.4375 398.421875 381.886719 391.113281 381.304688 C 364.484375 379.195313 356.808594 369.15625 332.847656 388.25 C 317.953125 400.117188 318.136719 399.535156 297.917969 399.457031 C 295.789063 399.445313 291.722656 397.382813 289.195313 398.054688 C 280.792969 400.296875 276.566406 402.753906 270.390625 409.59375 C 259.246094 421.933594 267.347656 420.632813 246.191406 430.59375 C 243.839844 431.703125 237.996094 431.40625 235.351563 433.777344 C 231.1875 437.507813 227.398438 440.847656 225.480469 446.609375 C 220.945313 460.246094 223.632813 473.554688 212.792969 484.828125 C 207.367188 490.46875 199.773438 490.914063 196.074219 498.992188 C 191.933594 508.035156 197.027344 517.871094 194.582031 527.585938 C 192.824219 534.546875 185.925781 537.980469 182.195313 544.367188 C 173.976563 558.449219 173.648438 572.359375 179.960938 587.53125 C 179.914063 587.765625 179.863281 587.914063 179.8125 588.117188 C 169.214844 599.5625 167.539063 610.394531 167.648438 625.546875 C 162.855469 633.1875 162.234375 640.136719 164.613281 648.777344 C 164.507813 649.109375 164.421875 649.378906 164.304688 649.71875 C 156.636719 672.289063 155.769531 687.507813 175.117188 703.816406 C 175.195313 704.089844 175.285156 704.363281 175.367188 704.636719 C 173.429688 706.773438 171.789063 709.011719 170.429688 711.554688 C 165.363281 720.679688 166.523438 728.058594 170.839844 737.214844 C 165.242188 736.035156 160.164063 734.367188 154.65625 736.828125 C 141.855469 742.550781 147.117188 750.734375 140.988281 759.585938 C 135.28125 767.828125 126.652344 763.671875 120.546875 771.828125 C 114.621094 779.738281 116.664063 789.679688 120.394531 798.800781 C 107.601563 805.1875 97.242188 813.753906 99.578125 829.351563 C 101.769531 843.992188 113.234375 849.855469 127.03125 849.339844 C 129.222656 860.148438 133.386719 869.882813 143.234375 875.367188 C 154.53125 881.65625 166.203125 876.714844 177.882813 879.105469 C 188.652344 881.3125 194.542969 887.183594 204.957031 880.46875 C 211.140625 876.484375 213.582031 870.054688 214.15625 862.898438 C 233.503906 862.90625 246.816406 848.652344 232.78125 831.453125 C 245.246094 818.550781 242.414063 810.382813 229.265625 799.835938 C 242.957031 787.445313 236.78125 779.089844 224.714844 768.902344 C 210.269531 756.703125 218.914063 762.878906 229.445313 761.78125 C 234.9375 761.207031 237.34375 756.683594 239.351563 752.285156 C 250.367188 752.648438 257.050781 748.535156 259.515625 737.457031 C 268.222656 737.863281 274.453125 735.707031 278.890625 728.011719 C 283.492188 720.019531 285.117188 711.679688 288.578125 703.363281 C 286.285156 701.121094 284.175781 698.804688 282.148438 696.355469 C 280.425781 695.046875 278.894531 693.644531 277.605469 691.898438 C 239.390625 653.351563 233.191406 597.757813 244.425781 546.484375 C 254.210938 544.925781 260.460938 540.378906 265.308594 531.765625 C 276.6875 538.039063 286.488281 535.222656 292.492188 523.65625 C 306.914063 529.203125 317.253906 524.40625 323.824219 510.632813 C 343.414063 517.035156 351.816406 504.871094 357.628906 487.746094 C 372.363281 489.6875 386.226563 488.003906 389.800781 471.597656 C 402.191406 472.289063 409.503906 467.546875 416.316406 457.386719 C 416.605469 457.597656 416.917969 457.765625 417.226563 457.945313 C 417.289063 458.972656 417.339844 459.996094 417.390625 461.023438 C 415.148438 478.21875 417.585938 490.683594 437.933594 486.71875 C 438.324219 506.558594 443.601563 511.78125 463.5 509.664063 C 465.582031 512.117188 467.707031 514.527344 469.898438 516.882813 C 474.964844 531.152344 486.589844 531.953125 500.273438 532.136719 C 499.773438 537.851563 499.664063 542.496094 502.460938 547.871094 C 505.8125 554.3125 512.023438 557.445313 518.734375 559.957031 C 519.585938 603.863281 509.105469 649.753906 477.460938 681.878906 C 476.261719 683.609375 475.074219 685.335938 473.765625 686.988281 C 470.046875 691.679688 465.695313 695.8125 461.800781 700.347656 C 460.03125 702.410156 458.570313 704.730469 456.789063 706.792969 C 458.832031 713.5625 460.632813 719.472656 465.828125 724.496094 C 460.402344 744.402344 469.136719 748.882813 482.8125 761.339844 C 485.566406 763.851563 487.835938 766.519531 490.347656 769.222656 C 491.058594 772.628906 491.898438 775.996094 492.878906 779.339844 C 482.128906 790.003906 480.839844 801.5625 487.660156 814.921875 C 460.929688 829.003906 476.226563 856.367188 497.078125 867.019531 C 490.128906 909.070313 554.679688 907.519531 571.433594 879.9375 C 596.382813 889.769531 606.164063 867.210938 606.480469 845.941406 C 628.804688 837.835938 632.429688 818.820313 611.167969 806.273438 "/>
<path style=" stroke:none;fill-rule:nonzero;fill:rgb(94.921875%,28.24707%,15.281677%);fill-opacity:1;" d="M 305.921875 601.933594 C 312.3125 589.144531 328.019531 587.355469 337.296875 598.203125 C 342.035156 603.746094 350.003906 595.710938 345.296875 590.203125 C 331.46875 574.035156 305.652344 577.214844 296.152344 596.226563 C 292.910156 602.71875 302.664063 608.453125 305.921875 601.933594 "/>
<path style=" stroke:none;fill-rule:nonzero;fill:rgb(94.921875%,28.24707%,15.281677%);fill-opacity:1;" d="M 434.347656 598.164063 C 427.957031 585.375 412.246094 583.582031 402.96875 594.433594 C 398.230469 599.976563 390.261719 591.941406 394.972656 586.433594 C 408.796875 570.265625 434.613281 573.445313 444.113281 592.453125 C 447.359375 598.945313 437.605469 604.683594 434.347656 598.164063 "/>
<path style=" stroke:none;fill-rule:nonzero;fill:rgb(91.796875%,55.271912%,50.584412%);fill-opacity:1;" d="M 314.921875 630.640625 C 311.628906 621.402344 295.285156 622.007813 287.628906 622.910156 C 287.011719 622.984375 286.46875 623.15625 285.957031 623.371094 C 284.683594 623.257813 283.378906 623.339844 282.015625 623.785156 C 278.460938 624.953125 275.839844 627.910156 275.738281 631.742188 C 275.429688 643.320313 290.234375 641.699219 297.730469 641.652344 C 304.0625 641.613281 318.8125 641.5625 314.921875 630.640625 "/>
<path style=" stroke:none;fill-rule:nonzero;fill:rgb(91.796875%,55.271912%,50.584412%);fill-opacity:1;" d="M 458.199219 630.640625 C 454.90625 621.402344 438.5625 622.007813 430.902344 622.910156 C 430.289063 622.984375 429.746094 623.15625 429.234375 623.371094 C 427.960938 623.257813 426.65625 623.339844 425.292969 623.785156 C 421.738281 624.953125 419.117188 627.910156 419.015625 631.742188 C 418.707031 643.320313 433.511719 641.699219 441.007813 641.652344 C 447.339844 641.613281 462.089844 641.5625 458.199219 630.640625 "/>
<path style=" stroke:none;fill-rule:nonzero;fill:rgb(94.921875%,28.24707%,15.281677%);fill-opacity:1;" d="M 373.960938 646.71875 C 372.683594 646.519531 371.308594 646.722656 370.023438 647.292969 C 362.835938 650.484375 361.429688 661.046875 366.539063 666.601563 C 372.195313 672.75 382.8125 670.207031 386.195313 662.9375 C 389.964844 654.84375 382.566406 645.179688 373.960938 646.71875 "/>
<path style=" stroke:none;fill-rule:nonzero;fill:rgb(84.764099%,21.166992%,12.939453%);fill-opacity:1;" d="M 195.6875 195.691406 C 188.953125 195.691406 183.265625 193.699219 178.621094 189.71875 C 173.976563 185.738281 171.660156 180.859375 171.660156 175.089844 C 171.660156 169.320313 173.976563 164.449219 178.621094 160.46875 C 183.265625 156.488281 188.953125 154.5 195.6875 154.5 L 270.214844 154.5 C 278.339844 154.5 285.1875 156.878906 290.761719 161.660156 C 296.335938 166.441406 299.121094 172.308594 299.121094 179.269531 L 299.121094 219.859375 C 299.121094 227.429688 296.683594 234.988281 291.804688 242.550781 C 286.929688 250.109375 280.078125 257.019531 271.257813 263.289063 C 262.433594 269.558594 251.871094 274.628906 239.566406 278.511719 C 227.257813 282.390625 213.679688 284.328125 198.824219 284.328125 C 180.480469 284.328125 163.648438 281.441406 148.328125 275.679688 C 133.003906 269.910156 119.769531 261.949219 108.625 251.800781 C 97.480469 241.648438 88.828125 229.761719 82.679688 216.128906 C 76.523438 202.5 73.453125 187.828125 73.453125 172.109375 C 73.453125 156.390625 76.585938 141.710938 82.855469 128.078125 C 89.125 114.460938 97.769531 102.710938 108.800781 92.859375 C 119.824219 83.011719 133.003906 75.25 148.328125 69.578125 C 163.648438 63.910156 180.367188 61.078125 198.476563 61.078125 C 210.542969 61.078125 221.808594 62.371094 232.253906 64.960938 C 242.703125 67.539063 251.757813 70.78125 259.417969 74.660156 C 267.078125 78.539063 273.117188 82.859375 277.527344 87.640625 C 281.9375 92.410156 284.144531 96.890625 284.144531 101.070313 C 284.144531 106.640625 281.757813 111.570313 277.003906 115.851563 C 272.242188 120.128906 266.496094 122.261719 259.765625 122.261719 C 256.511719 122.261719 253.496094 121.769531 250.710938 120.769531 C 247.925781 119.78125 244.671875 117.890625 240.960938 115.101563 C 235.617188 111.121094 229.296875 107.988281 221.980469 105.699219 C 214.667969 103.410156 206.945313 102.261719 198.824219 102.261719 C 188.835938 102.261719 179.609375 104.011719 171.136719 107.488281 C 162.65625 110.96875 155.40625 115.800781 149.371094 121.960938 C 143.328125 128.128906 138.574219 135.449219 135.089844 143.898438 C 131.609375 152.359375 129.867188 161.460938 129.867188 171.210938 C 129.867188 181.160156 131.609375 190.511719 135.089844 199.269531 C 138.574219 208.03125 143.328125 215.679688 149.371094 222.25 C 155.40625 228.820313 162.65625 233.988281 171.136719 237.769531 C 179.609375 241.550781 188.953125 243.441406 199.171875 243.441406 C 212.722656 243.441406 224.757813 239.789063 235.277344 232.480469 C 240.476563 228.871094 243.398438 222.789063 243.398438 216.46875 L 243.398438 215.53125 C 243.398438 204.570313 234.515625 195.691406 223.558594 195.691406 "/>
<path style=" stroke:none;fill-rule:nonzero;fill:rgb(84.764099%,21.166992%,12.939453%);fill-opacity:1;" d="M 259.875 1164.472656 C 253.347656 1164.472656 247.839844 1162.550781 243.34375 1158.691406 C 238.839844 1154.835938 236.597656 1150.113281 236.597656 1144.519531 C 236.597656 1138.933594 238.839844 1134.210938 243.34375 1130.351563 C 247.839844 1126.496094 253.347656 1124.570313 259.875 1124.570313 L 332.078125 1124.570313 C 339.945313 1124.570313 346.585938 1126.882813 351.980469 1131.507813 C 357.378906 1136.136719 360.078125 1141.824219 360.078125 1148.570313 L 360.078125 1187.894531 C 360.078125 1195.222656 357.71875 1202.546875 352.992188 1209.871094 C 348.269531 1217.199219 341.632813 1223.898438 333.085938 1229.96875 C 324.535156 1236.039063 314.304688 1240.957031 302.386719 1244.714844 C 290.460938 1248.472656 277.304688 1250.351563 262.910156 1250.351563 C 245.140625 1250.351563 228.835938 1247.554688 213.988281 1241.96875 C 199.144531 1236.378906 186.324219 1228.664063 175.527344 1218.835938 C 164.730469 1209.003906 156.347656 1197.488281 150.390625 1184.28125 C 144.429688 1171.078125 141.449219 1156.859375 141.449219 1141.628906 C 141.449219 1126.40625 144.488281 1112.183594 150.5625 1098.980469 C 156.636719 1085.777344 165.011719 1074.398438 175.695313 1064.859375 C 186.378906 1055.316406 199.144531 1047.796875 213.988281 1042.304688 C 228.835938 1036.808594 245.03125 1034.0625 262.574219 1034.0625 C 274.269531 1034.0625 285.179688 1035.316406 295.300781 1037.820313 C 305.421875 1040.328125 314.195313 1043.460938 321.617188 1047.21875 C 329.039063 1050.976563 334.886719 1055.171875 339.160156 1059.796875 C 343.433594 1064.425781 345.570313 1068.761719 345.570313 1072.808594 C 345.570313 1078.207031 343.261719 1082.980469 338.65625 1087.125 C 334.039063 1091.273438 328.476563 1093.339844 321.953125 1093.339844 C 318.800781 1093.339844 315.882813 1092.859375 313.183594 1091.894531 C 310.480469 1090.933594 307.328125 1089.101563 303.734375 1086.402344 C 298.558594 1082.546875 292.433594 1079.511719 285.347656 1077.292969 C 278.261719 1075.078125 270.78125 1073.96875 262.910156 1073.96875 C 253.238281 1073.96875 244.296875 1075.65625 236.089844 1079.027344 C 227.875 1082.402344 220.847656 1087.078125 215 1093.050781 C 209.148438 1099.027344 204.542969 1106.113281 201.167969 1114.304688 C 197.792969 1122.5 196.109375 1131.320313 196.109375 1140.761719 C 196.109375 1150.402344 197.792969 1159.464844 201.167969 1167.941406 C 204.542969 1176.429688 209.148438 1183.847656 215 1190.207031 C 220.847656 1196.570313 227.875 1201.585938 236.089844 1205.242188 C 244.296875 1208.910156 253.347656 1210.738281 263.25 1210.738281 C 276.378906 1210.738281 288.039063 1207.203125 298.230469 1200.121094 C 303.265625 1196.625 306.097656 1190.738281 306.097656 1184.609375 L 306.097656 1183.695313 C 306.097656 1173.078125 297.492188 1164.472656 286.875 1164.472656 "/>
<path style=" stroke:none;fill-rule:nonzero;fill:rgb(84.764099%,21.166992%,12.939453%);fill-opacity:1;" d="M 362.207031 148.621094 C 362.207031 154.351563 362.875 159.601563 364.214844 164.371094 C 365.546875 169.140625 367.363281 173.339844 369.652344 176.96875 C 371.945313 180.601563 374.664063 183.410156 377.816406 185.421875 C 380.964844 187.421875 384.355469 188.421875 387.980469 188.421875 C 391.605469 188.421875 394.996094 187.421875 398.148438 185.421875 C 401.296875 183.410156 404.019531 180.601563 406.308594 176.96875 C 408.601563 173.339844 410.410156 169.140625 411.75 164.371094 C 413.082031 159.601563 413.757813 154.351563 413.757813 148.621094 C 413.757813 142.890625 413.082031 137.640625 411.75 132.871094 C 410.410156 128.101563 408.601563 123.949219 406.308594 120.410156 C 404.019531 116.878906 401.296875 114.109375 398.148438 112.109375 C 394.996094 110.101563 391.605469 109.101563 387.980469 109.101563 C 384.355469 109.101563 380.964844 110.101563 377.816406 112.109375 C 374.664063 114.109375 371.945313 116.878906 369.652344 120.410156 C 367.363281 123.949219 365.546875 128.101563 364.214844 132.871094 C 362.875 137.640625 362.207031 142.890625 362.207031 148.621094 M 318.109375 147.191406 C 318.109375 137.449219 319.683594 128.238281 322.835938 119.550781 C 325.980469 110.871094 330.277344 103.328125 335.71875 96.929688 C 341.160156 90.53125 347.554688 85.46875 354.90625 81.75 C 362.253906 78.03125 370.035156 76.171875 378.242188 76.171875 C 387.40625 76.171875 395.234375 78.21875 401.730469 82.320313 C 404.890625 84.328125 407.738281 86.449219 410.269531 88.699219 C 413.304688 91.410156 417.90625 90.488281 419.929688 86.960938 C 420.9375 85.199219 422.222656 83.558594 423.777344 82.039063 C 427.785156 78.128906 432.554688 76.171875 438.097656 76.171875 C 443.824219 76.171875 448.738281 78.21875 452.84375 82.320313 C 456.945313 86.429688 459 91.339844 459 97.070313 L 459 213.339844 C 459 225.179688 457.183594 235.53125 453.558594 244.410156 C 449.929688 253.289063 444.96875 260.730469 438.671875 266.75 C 432.367188 272.761719 425.015625 277.238281 416.617188 280.199219 C 408.214844 283.160156 399.335938 284.640625 389.984375 284.640625 C 381.96875 284.640625 374.757813 283.679688 368.363281 281.78125 C 361.96875 279.871094 356.574219 277.390625 352.1875 274.328125 C 348.363281 271.660156 345.644531 268.941406 344.023438 266.171875 C 342.398438 263.398438 341.589844 260.589844 341.589844 257.71875 C 341.589844 252.949219 343.308594 248.699219 346.742188 244.980469 C 350.179688 241.261719 354.570313 239.398438 359.917969 239.398438 C 363.925781 239.398438 367.742188 240.828125 371.371094 243.691406 C 377.023438 247.589844 382.878906 249.5 388.9375 249.421875 C 391.65625 249.378906 394.378906 248.839844 396.882813 247.78125 C 400.527344 246.230469 403.671875 243.871094 406.308594 240.679688 C 408.601563 237.910156 410.410156 234.71875 411.75 231.089844 C 413.082031 227.460938 413.757813 223.550781 413.757813 219.351563 L 413.757813 217.019531 C 413.757813 212.671875 409.09375 209.871094 405.296875 211.988281 C 397.511719 216.320313 388.972656 218.488281 379.675781 218.488281 C 371.085938 218.488281 363.066406 216.628906 355.621094 212.910156 C 348.175781 209.179688 341.636719 204.078125 336.007813 197.589844 C 330.371094 191.101563 325.980469 183.511719 322.835938 174.820313 C 319.683594 166.140625 318.109375 156.921875 318.109375 147.191406 "/>
<path style=" stroke:none;fill-rule:nonzero;fill:rgb(84.764099%,21.166992%,12.939453%);fill-opacity:1;" d="M 407.265625 1250.21875 C 400.886719 1250.21875 395.472656 1247.996094 391.03125 1243.550781 C 386.578125 1239.109375 384.363281 1233.695313 384.363281 1227.316406 L 384.363281 1116.855469 C 384.363281 1110.476563 386.578125 1105.066406 391.03125 1100.621094 C 395.472656 1096.175781 400.886719 1093.949219 407.265625 1093.949219 C 413.644531 1093.949219 419.050781 1096.175781 423.5 1100.621094 C 427.945313 1105.066406 430.167969 1110.476563 430.167969 1116.855469 L 430.167969 1227.316406 C 430.167969 1233.695313 427.945313 1239.109375 423.5 1243.550781 C 419.050781 1247.996094 413.644531 1250.21875 407.265625 1250.21875 M 382.332031 1058.871094 C 382.332031 1055.390625 383.003906 1052.15625 384.363281 1049.160156 C 385.710938 1046.164063 387.5 1043.503906 389.726563 1041.183594 C 391.945313 1038.867188 394.601563 1037.03125 397.699219 1035.675781 C 400.785156 1034.324219 404.074219 1033.648438 407.554688 1033.648438 C 411.035156 1033.648438 414.269531 1034.324219 417.269531 1035.675781 C 420.261719 1037.03125 422.871094 1038.867188 425.09375 1041.183594 C 427.316406 1043.503906 429.105469 1046.164063 430.460938 1049.160156 C 431.808594 1052.15625 432.488281 1055.390625 432.488281 1058.871094 C 432.488281 1062.347656 431.808594 1065.589844 430.460938 1068.582031 C 429.105469 1071.582031 427.316406 1074.191406 425.09375 1076.410156 C 422.871094 1078.636719 420.261719 1080.425781 417.269531 1081.773438 C 414.269531 1083.128906 411.035156 1083.804688 407.554688 1083.804688 C 404.074219 1083.804688 400.785156 1083.128906 397.699219 1081.773438 C 394.601563 1080.425781 391.945313 1078.636719 389.726563 1076.410156 C 387.5 1074.191406 385.710938 1071.582031 384.363281 1068.582031 C 383.003906 1065.589844 382.332031 1062.347656 382.332031 1058.871094 "/>
<path style=" stroke:none;fill-rule:nonzero;fill:rgb(84.764099%,21.166992%,12.939453%);fill-opacity:1;" d="M 585.753906 1251 C 579.375 1251 573.964844 1248.777344 569.519531 1244.332031 C 565.066406 1239.890625 562.851563 1234.476563 562.851563 1228.097656 L 562.851563 1057.332031 C 562.851563 1050.953125 565.066406 1045.546875 569.519531 1041.097656 C 573.964844 1036.652344 579.375 1034.429688 585.753906 1034.429688 C 592.132813 1034.429688 597.539063 1036.652344 601.988281 1041.097656 C 606.433594 1045.546875 608.65625 1050.953125 608.65625 1057.332031 L 608.65625 1228.097656 C 608.65625 1234.476563 606.433594 1239.890625 601.988281 1244.332031 C 597.539063 1248.777344 592.132813 1251 585.753906 1251 "/>
<path style=" stroke:none;fill-rule:nonzero;fill:rgb(84.764099%,21.166992%,12.939453%);fill-opacity:1;" d="M 505.117188 1109.097656 C 505.980469 1111.945313 509.527344 1112.070313 511.101563 1109.542969 C 513.507813 1105.691406 516.707031 1102.902344 519.222656 1100.871094 C 521.730469 1098.84375 524.339844 1097.203125 527.046875 1095.941406 C 529.753906 1094.6875 532.652344 1094.058594 535.746094 1094.058594 C 540.964844 1094.058594 545.554688 1095.898438 549.515625 1099.566406 C 553.476563 1103.242188 555.460938 1107.878906 555.460938 1113.480469 C 555.460938 1118.121094 553.960938 1122.519531 550.96875 1126.675781 C 547.96875 1130.832031 543.472656 1132.910156 537.484375 1132.910156 C 533.035156 1132.910156 529.121094 1134.210938 525.742188 1136.820313 C 522.359375 1139.429688 519.511719 1142.910156 517.191406 1147.261719 C 514.871094 1151.605469 513.132813 1156.535156 511.972656 1162.046875 C 510.8125 1167.550781 510.234375 1173.207031 510.234375 1179.003906 L 510.234375 1227.421875 C 510.234375 1233.613281 507.960938 1238.972656 503.417969 1243.511719 C 498.878906 1248.050781 493.511719 1250.324219 487.328125 1250.324219 C 480.953125 1250.324219 475.488281 1248.050781 470.949219 1243.511719 C 466.40625 1238.972656 464.136719 1233.613281 464.136719 1227.421875 L 464.136719 1115.511719 C 464.136719 1109.523438 466.210938 1104.449219 470.367188 1100.292969 C 474.523438 1096.136719 479.597656 1094.058594 485.589844 1094.058594 C 491.191406 1094.058594 496.070313 1095.992188 500.230469 1099.855469 C 502.347656 1101.828125 503.976563 1105.351563 505.117188 1109.097656 "/>
</g>
</svg>
