<?xml version="1.0" encoding="UTF-8"?>
<svg xmlns="http://www.w3.org/2000/svg" xmlns:xlink="http://www.w3.org/1999/xlink" width="750pt" height="1334pt" viewBox="0 0 750 1334" version="1.1">
<g id="surface1">
<path style=" stroke:none;fill-rule:nonzero;fill:rgb(80.076599%,80.076599%,80.076599%);fill-opacity:1;" d="M 648.796875 643.105469 C 646.757813 610.449219 627.296875 581.089844 599.605469 564.175781 C 586.097656 555.925781 570.679688 550.753906 554.855469 549.765625 C 550.746094 549.507813 545.734375 550.421875 541.804688 549.09375 C 541.25 548.910156 540.738281 548.652344 540.246094 548.367188 C 537.164063 544.253906 533.71875 540.417969 530.039063 536.933594 C 526.832031 533.890625 523.414063 531.0625 519.917969 528.339844 L 517.503906 525.890625 C 516.179688 524.546875 513.636719 522.835938 512.832031 521.121094 C 512.726563 520.890625 512.65625 520.664063 512.609375 520.441406 C 512.660156 519.953125 512.683594 519.453125 512.671875 518.949219 C 513.183594 517.199219 515.046875 515.671875 515.898438 514.109375 C 522.757813 501.585938 512.769531 482.800781 497.980469 483.238281 C 484.910156 483.628906 475.828125 498.367188 479.191406 510.339844 C 475.03125 510.273438 470.816406 510.601563 466.675781 511.1875 C 453.894531 511.910156 441.3125 514.769531 429.386719 519.621094 C 428.964844 511.210938 424.085938 503.1875 416.78125 498.882813 C 408.460938 493.976563 398.210938 495.226563 390.730469 501.101563 C 383.140625 507.0625 379.417969 517.085938 382.894531 526.34375 C 386.035156 534.707031 393.820313 541.003906 402.660156 541.84375 C 401.148438 546.246094 396.179688 548.929688 391.605469 549.308594 C 390.917969 549.367188 390.238281 549.367188 389.558594 549.335938 C 388.375 548.875 387.195313 548.410156 386.015625 547.9375 C 382.953125 546.710938 379.902344 545.449219 376.855469 544.175781 C 375.332031 543.539063 373.8125 542.886719 372.285156 542.253906 C 377.871094 544.566406 373.351563 542.675781 370.136719 541.335938 C 359.496094 535.40625 348.507813 530.257813 336.980469 526.246094 C 311.777344 517.476563 284.566406 513.691406 257.949219 515.996094 C 209.894531 520.160156 162.792969 546.398438 143.722656 592.402344 C 138.039063 606.105469 136.214844 621.226563 129.554688 634.539063 C 123.773438 646.097656 111.871094 657.578125 97.898438 655.316406 C 96.175781 655.039063 94.808594 655.996094 94.667969 657.777344 C 94.226563 663.339844 99.023438 666.730469 103.972656 667.769531 C 106.765625 668.355469 109.445313 668.183594 112.226563 667.648438 C 115.90625 666.9375 120.484375 665.226563 124.210938 666.59375 C 125.382813 667.027344 126.296875 667.742188 127.039063 668.621094 C 127.207031 668.847656 127.378906 669.074219 127.558594 669.292969 C 129.023438 671.402344 129.730469 674.203125 130.507813 676.546875 C 131.972656 680.945313 133.34375 685.375 134.628906 689.828125 C 137.132813 698.515625 139.296875 707.296875 141.113281 716.152344 C 144.566406 732.980469 146.253906 749.90625 147.835938 766.980469 C 148.546875 774.664063 149.425781 782.46875 151.121094 790.050781 C 151.222656 806.089844 153.648438 822.21875 165.175781 834.421875 C 167.105469 836.464844 169.199219 838.203125 171.429688 839.675781 C 173.445313 841.789063 175.761719 843.597656 178.472656 844.90625 C 185.003906 848.0625 192.34375 848.726563 199.496094 849.136719 C 204.921875 849.445313 210.34375 849.371094 215.75 848.964844 C 215.949219 848.980469 216.152344 848.992188 216.355469 849.003906 C 218.761719 848.304688 221.125 847.351563 223.460938 846.332031 C 223.820313 846.121094 224.183594 845.90625 224.539063 845.671875 C 227.703125 843.601563 230.578125 839.96875 232.992188 836.496094 C 232.992188 836.472656 232.996094 836.449219 232.996094 836.425781 C 233.058594 836.363281 233.113281 836.296875 233.175781 836.230469 C 233.410156 835.886719 233.644531 835.546875 233.871094 835.210938 C 234.097656 834.871094 234.34375 834.578125 234.597656 834.300781 C 236.125 831.644531 236.597656 828.304688 236.609375 824.828125 C 236.648438 815.578125 236.492188 806.328125 236.507813 797.078125 C 236.511719 794.210938 237.046875 786.851563 240.050781 784.121094 C 240.410156 783.882813 240.773438 783.644531 241.132813 783.402344 C 241.792969 783.105469 242.546875 782.992188 243.40625 783.140625 C 249.574219 784.203125 247.726563 795.855469 247.609375 800.046875 C 247.492188 804.152344 247.507813 808.46875 247.894531 812.753906 C 247.78125 816.960938 247.78125 821.167969 247.933594 825.382813 C 248.128906 830.882813 248.457031 836.890625 251.898438 841.0625 C 252.8125 842.710938 254 844.21875 255.296875 845.488281 C 261.523438 851.59375 270.367188 852.859375 278.730469 852.429688 C 287.265625 851.988281 296.636719 850.746094 304.410156 846.960938 C 305.566406 846.394531 306.550781 845.738281 307.390625 845.003906 C 307.976563 844.644531 308.53125 844.210938 309.054688 843.691406 C 312.1875 840.558594 312.273438 836.398438 312.277344 832.269531 C 312.433594 829.523438 312.378906 826.710938 312.472656 824.046875 C 312.503906 823.226563 312.421875 822.472656 312.265625 821.773438 C 312.25 813.777344 312.21875 805.785156 312.164063 797.789063 C 312.34375 797.648438 312.53125 797.519531 312.71875 797.382813 C 313.386719 794.480469 315.023438 792.15625 318.472656 790.730469 C 325.90625 787.648438 333.828125 788.054688 341.402344 790.296875 C 346.644531 791.851563 350.390625 794.726563 351.128906 800.40625 C 351.511719 803.351563 351.457031 806.328125 351.214844 809.320313 C 351.230469 811.335938 351.113281 813.34375 351.023438 815.214844 C 350.449219 827.34375 350.097656 839.546875 360.695313 847.6875 C 369.492188 854.449219 380.152344 855.335938 390.617188 853.824219 C 396.191406 853.347656 401.746094 852.664063 407.273438 851.78125 C 410.695313 851.234375 414.144531 850.8125 416.730469 848.230469 C 419.523438 845.4375 419.886719 841.300781 419.542969 837.578125 C 419.542969 837.578125 419.542969 837.574219 419.542969 837.570313 C 419.765625 835.128906 419.703125 832.617188 419.84375 830.234375 C 419.882813 829.566406 419.9375 828.902344 419.980469 828.234375 C 419.460938 823.230469 418.90625 818.222656 418.992188 813.171875 C 419.066406 808.816406 419.355469 804.480469 420.015625 800.171875 C 420.542969 796.710938 421.316406 793.097656 423.957031 790.585938 C 429.511719 785.300781 436.347656 791.019531 437.359375 797.164063 C 437.714844 799.308594 437.632813 801.46875 437.273438 803.609375 C 437.210938 809.894531 437.464844 816.171875 437.449219 822.453125 C 437.4375 828.117188 436.972656 833.839844 438.019531 839.445313 C 438.386719 841.394531 438.933594 843.21875 439.628906 844.9375 C 441.261719 847.742188 443.742188 849.257813 446.792969 850.242188 C 454.910156 852.867188 463.871094 853.296875 472.421875 852.007813 C 478.296875 851.652344 485.03125 850.804688 489.378906 846.839844 C 494.308594 842.351563 495.71875 835.21875 496.523438 828.894531 C 497.964844 817.613281 495.472656 806.007813 497.476563 794.828125 C 498.617188 788.464844 501.839844 783.886719 506.128906 780.253906 C 524.835938 780.230469 543.613281 779.378906 562.171875 777.179688 C 571.695313 776.050781 581.171875 774.28125 589.957031 770.3125 C 598.269531 766.5625 605.429688 760.675781 611.261719 753.710938 C 623.210938 739.4375 630.960938 721.480469 637.5625 704.242188 C 644.992188 684.839844 650.101563 664.015625 648.796875 643.105469 "/>
<path style=" stroke:none;fill-rule:nonzero;fill:rgb(48.631287%,48.631287%,48.631287%);fill-opacity:1;" d="M 469.09375 580.625 C 466.570313 574.191406 460.082031 569.730469 453.027344 570.78125 C 445.621094 571.886719 440.394531 578.894531 440.667969 586.21875 C 440.789063 589.492188 445.894531 589.511719 445.769531 586.21875 C 445.59375 581.488281 448.578125 576.828125 453.429688 575.859375 C 457.867188 574.972656 462.558594 577.871094 464.171875 581.980469 C 465.359375 585.003906 470.296875 583.6875 469.09375 580.625 "/>
<path style=" stroke:none;fill-rule:nonzero;fill:rgb(48.631287%,48.631287%,48.631287%);fill-opacity:1;" d="M 523.039063 571.878906 C 520.515625 565.445313 514.03125 560.984375 506.972656 562.035156 C 499.566406 563.140625 494.34375 570.144531 494.613281 577.472656 C 494.734375 580.746094 499.839844 580.761719 499.71875 577.472656 C 499.542969 572.742188 502.527344 568.078125 507.375 567.109375 C 511.8125 566.226563 516.507813 569.121094 518.121094 573.234375 C 519.308594 576.257813 524.242188 574.941406 523.039063 571.878906 "/>
<path style="fill:none;stroke-width:70;stroke-linecap:butt;stroke-linejoin:miter;stroke:rgb(48.631287%,48.631287%,48.631287%);stroke-opacity:1;stroke-miterlimit:10;" d="M 5909.960938 7093.75 C 5891.015625 7133.554688 5869.140625 7175.039063 5834.023438 7203.007813 C 5812.226563 7220.351563 5773.789063 7238.945313 5745.859375 7225.117188 C 5714.726563 7209.6875 5711.132813 7160.390625 5708.125 7130.117188 C 5704.0625 7089.101563 5708.28125 7046.835938 5719.765625 7007.265625 C 5739.921875 6937.8125 5790.78125 6843.085938 5871.289063 6836.40625 C 5876.835938 6835.976563 5881.367188 6837.148438 5885 6839.257813 C 5899.101563 6840.078125 5912.96875 6844.53125 5924.960938 6853.632813 C 5941.796875 6866.445313 5949.023438 6883.75 5950.859375 6902.382813 C 5975.195313 6962.460938 5935.742188 7039.609375 5909.960938 7093.75 Z M 5909.960938 7093.75 " transform="matrix(0.1,0,0,-0.1,0,1334)"/>
<path style="fill:none;stroke-width:70;stroke-linecap:butt;stroke-linejoin:miter;stroke:rgb(48.631287%,48.631287%,48.631287%);stroke-opacity:1;stroke-miterlimit:10;" d="M 6259.882813 7137.5 C 6240.9375 7177.265625 6219.0625 7218.789063 6183.945313 7246.71875 C 6162.148438 7264.0625 6123.710938 7282.695313 6095.742188 7268.828125 C 6064.6875 7253.398438 6061.054688 7204.140625 6058.046875 7173.867188 C 6053.984375 7132.8125 6058.203125 7090.585938 6069.6875 7051.015625 C 6089.84375 6981.5625 6140.703125 6886.835938 6221.210938 6880.15625 C 6226.757813 6879.6875 6231.289063 6880.859375 6234.921875 6883.007813 C 6249.0625 6883.789063 6262.890625 6888.242188 6274.882813 6897.382813 C 6291.71875 6910.15625 6298.945313 6927.5 6300.78125 6946.132813 C 6325.117188 7006.171875 6285.664063 7083.359375 6259.882813 7137.5 Z M 6259.882813 7137.5 " transform="matrix(0.1,0,0,-0.1,0,1334)"/>
<path style=" stroke:none;fill-rule:nonzero;fill:rgb(93.75%,66.992188%,70.896912%);fill-opacity:1;" d="M 451.234375 602.175781 C 446.1875 597.523438 436.144531 601.164063 430.628906 602.878906 C 429.578125 603.203125 429.132813 603.945313 429.105469 604.746094 C 428.84375 605.046875 428.632813 605.398438 428.488281 605.828125 C 426.40625 612.1875 439.199219 611.296875 442.269531 611.070313 C 445.179688 610.851563 449.035156 610.667969 451.246094 608.527344 C 453.117188 606.71875 453.160156 603.945313 451.234375 602.175781 "/>
<path style=" stroke:none;fill-rule:nonzero;fill:rgb(93.75%,66.992188%,70.896912%);fill-opacity:1;" d="M 549.71875 577.210938 C 544.007813 573.410156 534.65625 578.578125 529.476563 581.132813 C 528.492188 581.621094 528.164063 582.421875 528.261719 583.21875 C 528.054688 583.554688 527.898438 583.9375 527.828125 584.382813 C 526.765625 590.988281 539.257813 588.109375 542.257813 587.402344 C 545.101563 586.730469 548.878906 585.945313 550.726563 583.484375 C 552.289063 581.402344 551.898438 578.660156 549.71875 577.210938 "/>
<path style=" stroke:none;fill-rule:nonzero;fill:rgb(53.709412%,53.709412%,53.709412%);fill-opacity:1;" d="M 637.644531 702.085938 C 624.265625 707.789063 604.796875 714.523438 580.527344 717.683594 C 554.65625 721.050781 534.8125 718.867188 522.640625 717.449219 C 503.617188 715.230469 475.609375 709.890625 443.660156 695.75 C 444.46875 692.859375 444.839844 689.8125 444.710938 686.691406 C 444.578125 683.410156 439.503906 683.914063 439.632813 687.1875 C 439.9375 694.78125 436.550781 701.921875 430.535156 706.546875 C 427.933594 708.542969 430.910156 712.691406 433.523438 710.683594 C 437.128906 707.910156 439.933594 704.4375 441.839844 700.53125 C 457.949219 708.679688 480.210938 717.664063 507.753906 722.558594 C 516.453125 724.101563 539.433594 727.683594 568.824219 725.410156 C 583.871094 724.246094 604.445313 722.484375 628.46875 712.136719 C 631.441406 710.855469 633.863281 709.703125 635.496094 708.90625 C 636.210938 706.632813 636.925781 704.359375 637.644531 702.085938 "/>
<path style=" stroke:none;fill-rule:nonzero;fill:rgb(48.631287%,48.631287%,48.631287%);fill-opacity:1;" d="M 211.734375 85.851563 C 211.734375 78.890625 214.519531 73.011719 220.089844 68.238281 C 225.664063 63.460938 232.507813 61.078125 240.636719 61.078125 C 248.761719 61.078125 255.613281 63.460938 261.183594 68.238281 C 266.757813 73.011719 269.546875 78.890625 269.546875 85.851563 L 269.546875 259.261719 C 269.546875 266.230469 266.757813 272.089844 261.183594 276.871094 C 255.613281 281.648438 248.761719 284.03125 240.636719 284.03125 C 232.507813 284.03125 225.664063 281.648438 220.089844 276.871094 C 214.519531 272.089844 211.734375 266.230469 211.734375 259.261719 L 211.734375 203.101563 C 211.734375 196.230469 206.164063 190.660156 199.292969 190.660156 L 143.035156 190.660156 C 136.164063 190.660156 130.59375 196.230469 130.59375 203.101563 L 130.59375 259.261719 C 130.59375 266.230469 127.804688 272.089844 122.230469 276.871094 C 116.660156 281.648438 109.8125 284.03125 101.6875 284.03125 C 93.554688 284.03125 86.710938 281.648438 81.136719 276.871094 C 75.566406 272.089844 72.78125 266.230469 72.78125 259.261719 L 72.78125 85.851563 C 72.78125 78.890625 75.566406 73.011719 81.136719 68.238281 C 86.710938 63.460938 93.554688 61.078125 101.6875 61.078125 C 109.8125 61.078125 116.660156 63.460938 122.230469 68.238281 C 127.804688 73.011719 130.59375 78.890625 130.59375 85.851563 L 130.59375 132.460938 C 130.59375 139.328125 136.164063 144.898438 143.035156 144.898438 L 199.292969 144.898438 C 206.164063 144.898438 211.734375 139.328125 211.734375 132.460938 "/>
<path style=" stroke:none;fill-rule:nonzero;fill:rgb(80.076599%,80.076599%,80.076599%);fill-opacity:1;" d="M 178.160156 1098.824219 C 178.160156 1093.492188 180.292969 1089 184.558594 1085.34375 C 188.824219 1081.6875 194.066406 1079.859375 200.289063 1079.859375 C 206.511719 1079.859375 211.753906 1081.6875 216.019531 1085.34375 C 220.285156 1089 222.417969 1093.492188 222.417969 1098.824219 L 222.417969 1231.585938 C 222.417969 1236.917969 220.285156 1241.410156 216.019531 1245.066406 C 211.753906 1248.722656 206.511719 1250.550781 200.289063 1250.550781 C 194.066406 1250.550781 188.824219 1248.722656 184.558594 1245.066406 C 180.292969 1241.410156 178.160156 1236.917969 178.160156 1231.585938 L 178.160156 1188.589844 C 178.160156 1183.328125 173.894531 1179.066406 168.636719 1179.066406 L 125.566406 1179.066406 C 120.304688 1179.066406 116.039063 1183.328125 116.039063 1188.589844 L 116.039063 1231.585938 C 116.039063 1236.917969 113.90625 1241.410156 109.640625 1245.066406 C 105.375 1248.722656 100.132813 1250.550781 93.910156 1250.550781 C 87.6875 1250.550781 82.445313 1248.722656 78.179688 1245.066406 C 73.914063 1241.410156 71.78125 1236.917969 71.78125 1231.585938 L 71.78125 1098.824219 C 71.78125 1093.492188 73.914063 1089 78.179688 1085.34375 C 82.445313 1081.6875 87.6875 1079.859375 93.910156 1079.859375 C 100.132813 1079.859375 105.375 1081.6875 109.640625 1085.34375 C 113.90625 1089 116.039063 1093.492188 116.039063 1098.824219 L 116.039063 1134.507813 C 116.039063 1139.765625 120.304688 1144.03125 125.566406 1144.03125 L 168.636719 1144.03125 C 173.894531 1144.03125 178.160156 1139.765625 178.160156 1134.507813 "/>
<path style=" stroke:none;fill-rule:nonzero;fill:rgb(48.631287%,48.631287%,48.631287%);fill-opacity:1;" d="M 451.609375 177.769531 L 451.609375 179.859375 L 452.507813 257.671875 C 452.507813 264.449219 450.0625 270.289063 445.175781 275.171875 C 440.285156 280.070313 434.453125 282.511719 427.671875 282.511719 C 420.488281 282.511719 414.355469 280.410156 409.265625 276.21875 C 404.179688 272.03125 401.632813 266.550781 401.632813 259.761719 L 401.632813 200.738281 C 401.632813 189.46875 393.027344 180.03125 381.800781 179.070313 C 380.359375 178.949219 378.894531 178.890625 377.394531 178.890625 C 373.003906 178.890625 367.863281 179.941406 361.980469 182.03125 C 361.921875 182.058594 361.863281 182.078125 361.804688 182.101563 C 353.300781 185.140625 347.769531 193.390625 347.769531 202.421875 L 347.769531 259.460938 C 347.769531 266.449219 345.324219 272.378906 340.4375 277.269531 C 335.546875 282.160156 329.710938 284.601563 322.929688 284.601563 C 316.144531 284.601563 310.3125 282.160156 305.421875 277.269531 C 300.53125 272.378906 298.089844 266.449219 298.089844 259.460938 L 298.089844 85.300781 C 298.089844 78.320313 300.53125 72.429688 305.421875 67.640625 C 310.3125 62.851563 316.144531 60.460938 322.929688 60.460938 C 329.710938 60.460938 335.546875 62.851563 340.4375 67.640625 C 345.324219 72.429688 347.769531 78.320313 347.769531 85.300781 L 347.769531 141.261719 C 352.753906 137.871094 359.238281 134.96875 367.21875 132.578125 C 375.195313 130.179688 382.179688 128.988281 388.167969 128.988281 L 389.066406 128.988281 C 406.222656 128.988281 420.9375 133.78125 433.207031 143.351563 C 445.476563 152.929688 451.609375 164.398438 451.609375 177.769531 "/>
<path style=" stroke:none;fill-rule:nonzero;fill:rgb(80.076599%,80.076599%,80.076599%);fill-opacity:1;" d="M 264.738281 1251.140625 C 259.699219 1251.140625 255.421875 1249.382813 251.910156 1245.871094 C 248.394531 1242.359375 246.640625 1238.082031 246.640625 1233.039063 L 246.640625 1145.753906 C 246.640625 1140.710938 248.394531 1136.4375 251.910156 1132.921875 C 255.421875 1129.410156 259.699219 1127.652344 264.738281 1127.652344 C 269.777344 1127.652344 274.054688 1129.410156 277.570313 1132.921875 C 281.082031 1136.4375 282.839844 1140.710938 282.839844 1145.753906 L 282.839844 1233.039063 C 282.839844 1238.082031 281.082031 1242.359375 277.570313 1245.871094 C 274.054688 1249.382813 269.777344 1251.140625 264.738281 1251.140625 M 245.035156 1099.933594 C 245.035156 1097.183594 245.570313 1094.625 246.640625 1092.257813 C 247.707031 1089.890625 249.121094 1087.785156 250.878906 1085.953125 C 252.632813 1084.121094 254.734375 1082.671875 257.179688 1081.601563 C 259.621094 1080.535156 262.21875 1080 264.96875 1080 C 267.71875 1080 270.273438 1080.535156 272.644531 1081.601563 C 275.011719 1082.671875 277.070313 1084.121094 278.828125 1085.953125 C 280.585938 1087.785156 281.996094 1089.890625 283.066406 1092.257813 C 284.136719 1094.625 284.671875 1097.183594 284.671875 1099.933594 C 284.671875 1102.679688 284.136719 1105.238281 283.066406 1107.605469 C 281.996094 1109.976563 280.585938 1112.035156 278.828125 1113.789063 C 277.070313 1115.550781 275.011719 1116.964844 272.644531 1118.03125 C 270.273438 1119.101563 267.71875 1119.632813 264.96875 1119.632813 C 262.21875 1119.632813 259.621094 1119.101563 257.179688 1118.03125 C 254.734375 1116.964844 252.632813 1115.550781 250.878906 1113.789063 C 249.121094 1112.035156 247.707031 1109.976563 246.640625 1107.605469 C 245.570313 1105.238281 245.035156 1102.679688 245.035156 1099.933594 "/>
<path style=" stroke:none;fill-rule:nonzero;fill:rgb(80.076599%,80.076599%,80.076599%);fill-opacity:1;" d="M 640.589844 1189.585938 C 640.589844 1183.9375 639.902344 1178.972656 638.527344 1174.691406 C 637.152344 1170.421875 635.355469 1166.867188 633.144531 1164.039063 C 630.929688 1161.214844 628.445313 1159.078125 625.695313 1157.625 C 622.949219 1156.175781 620.277344 1155.449219 617.679688 1155.449219 C 615.078125 1155.449219 612.410156 1156.175781 609.660156 1157.625 C 606.910156 1159.078125 604.464844 1161.257813 602.328125 1164.15625 C 600.1875 1167.058594 598.433594 1170.648438 597.058594 1174.921875 C 595.6875 1179.199219 594.996094 1184.085938 594.996094 1189.585938 C 594.996094 1195.085938 595.644531 1199.894531 596.945313 1204.019531 C 598.242188 1208.144531 599.996094 1211.621094 602.214844 1214.441406 C 604.425781 1217.269531 606.910156 1219.367188 609.660156 1220.742188 C 612.410156 1222.117188 615.15625 1222.808594 617.90625 1222.808594 C 620.65625 1222.808594 623.367188 1222.117188 626.042969 1220.742188 C 628.710938 1219.367188 631.15625 1217.269531 633.371094 1214.441406 C 635.585938 1211.621094 637.34375 1208.144531 638.644531 1204.019531 C 639.9375 1199.894531 640.589844 1195.085938 640.589844 1189.585938 M 676.785156 1189.128906 C 676.785156 1197.683594 675.300781 1205.703125 672.320313 1213.183594 C 669.34375 1220.667969 665.21875 1227.199219 659.949219 1232.773438 C 654.679688 1238.347656 648.453125 1242.738281 641.277344 1245.945313 C 634.097656 1249.152344 626.308594 1250.757813 617.90625 1250.757813 C 609.507813 1250.757813 601.679688 1249.152344 594.425781 1245.945313 C 587.167969 1242.738281 580.90625 1238.347656 575.636719 1232.773438 C 570.367188 1227.199219 566.246094 1220.667969 563.265625 1213.183594 C 560.289063 1205.703125 558.796875 1197.683594 558.796875 1189.128906 C 558.796875 1180.730469 560.289063 1172.785156 563.265625 1165.300781 C 566.246094 1157.820313 570.367188 1151.25 575.636719 1145.597656 C 580.90625 1139.949219 587.167969 1135.515625 594.425781 1132.308594 C 601.679688 1129.101563 609.507813 1127.5 617.90625 1127.5 C 626.308594 1127.5 634.097656 1129.101563 641.277344 1132.308594 C 648.453125 1135.515625 654.679688 1139.949219 659.949219 1145.597656 C 665.21875 1151.25 669.34375 1157.820313 672.320313 1165.300781 C 675.300781 1172.785156 676.785156 1180.730469 676.785156 1189.128906 "/>
<path style=" stroke:none;fill-rule:nonzero;fill:rgb(80.076599%,80.076599%,80.076599%);fill-opacity:1;" d="M 344.820313 1189.609375 C 344.820313 1193.941406 345.320313 1198.023438 346.335938 1201.847656 C 347.34375 1205.675781 348.71875 1208.996094 350.449219 1211.8125 C 352.183594 1214.628906 354.242188 1216.867188 356.621094 1218.523438 C 359.007813 1220.1875 361.496094 1221.015625 364.09375 1221.015625 C 366.839844 1221.015625 369.402344 1220.148438 371.785156 1218.417969 C 374.167969 1216.6875 376.222656 1214.378906 377.960938 1211.484375 C 379.691406 1208.597656 381.0625 1205.171875 382.074219 1201.199219 C 383.082031 1197.226563 383.589844 1193.074219 383.589844 1188.742188 C 383.589844 1184.410156 383.082031 1180.296875 382.074219 1176.398438 C 381.0625 1172.5 379.691406 1169.105469 377.960938 1166.214844 C 376.222656 1163.328125 374.167969 1161.054688 371.785156 1159.394531 C 369.402344 1157.734375 366.914063 1156.902344 364.3125 1156.902344 C 361.566406 1156.902344 359.007813 1157.808594 356.621094 1159.609375 C 354.242188 1161.417969 352.183594 1163.800781 350.449219 1166.757813 C 348.71875 1169.71875 347.34375 1173.183594 346.335938 1177.152344 C 345.320313 1181.128906 344.820313 1185.277344 344.820313 1189.609375 M 326.40625 1130.261719 C 330.59375 1130.261719 334.238281 1131.746094 337.347656 1134.703125 C 338.441406 1135.75 339.363281 1137.347656 340.109375 1139.167969 C 341.585938 1142.769531 346.441406 1143.316406 348.863281 1140.269531 C 350.796875 1137.835938 352.914063 1135.65625 355.214844 1134.378906 C 360.414063 1131.488281 366.046875 1130.046875 372.109375 1130.046875 C 378.175781 1130.046875 383.949219 1131.5625 389.4375 1134.59375 C 394.925781 1137.625 399.726563 1141.777344 403.839844 1147.046875 C 407.957031 1152.320313 411.207031 1158.527344 413.589844 1165.675781 C 415.96875 1172.824219 417.164063 1180.511719 417.164063 1188.742188 C 417.164063 1196.972656 415.96875 1204.664063 413.589844 1211.8125 C 411.207031 1218.960938 407.921875 1225.207031 403.734375 1230.546875 C 399.542969 1235.890625 394.636719 1240.078125 389.007813 1243.109375 C 383.371094 1246.140625 377.308594 1247.65625 370.8125 1247.65625 C 366.046875 1247.65625 361.460938 1246.824219 357.054688 1245.167969 C 355.597656 1244.617188 354.183594 1243.789063 352.816406 1242.816406 C 349.554688 1240.5 345.035156 1242.941406 345.035156 1246.941406 L 345.035156 1271.050781 C 345.035156 1275.671875 343.339844 1279.675781 339.945313 1283.074219 C 336.550781 1286.464844 332.542969 1288.160156 327.921875 1288.160156 C 323.15625 1288.160156 319.078125 1286.464844 315.683594 1283.074219 C 312.292969 1279.675781 310.597656 1275.671875 310.597656 1271.050781 L 310.597656 1146.074219 C 310.597656 1141.738281 312.144531 1138.023438 315.253906 1134.921875 C 318.355469 1131.816406 322.074219 1130.261719 326.40625 1130.261719 "/>
<path style=" stroke:none;fill-rule:nonzero;fill:rgb(80.076599%,80.076599%,80.076599%);fill-opacity:1;" d="M 471.203125 1189.609375 C 471.203125 1193.941406 471.703125 1198.023438 472.71875 1201.847656 C 473.726563 1205.675781 475.101563 1208.996094 476.832031 1211.8125 C 478.566406 1214.628906 480.625 1216.867188 483.003906 1218.523438 C 485.390625 1220.1875 487.878906 1221.015625 490.476563 1221.015625 C 493.222656 1221.015625 495.785156 1220.148438 498.167969 1218.417969 C 500.550781 1216.6875 502.605469 1214.378906 504.34375 1211.484375 C 506.074219 1208.597656 507.445313 1205.171875 508.453125 1201.199219 C 509.464844 1197.226563 509.972656 1193.074219 509.972656 1188.742188 C 509.972656 1184.410156 509.464844 1180.296875 508.453125 1176.398438 C 507.445313 1172.5 506.074219 1169.105469 504.34375 1166.214844 C 502.605469 1163.328125 500.550781 1161.054688 498.167969 1159.394531 C 495.785156 1157.734375 493.296875 1156.902344 490.695313 1156.902344 C 487.949219 1156.902344 485.390625 1157.808594 483.003906 1159.609375 C 480.625 1161.417969 478.566406 1163.800781 476.832031 1166.757813 C 475.101563 1169.71875 473.726563 1173.183594 472.71875 1177.152344 C 471.703125 1181.128906 471.203125 1185.277344 471.203125 1189.609375 M 452.789063 1130.261719 C 456.976563 1130.261719 460.621094 1131.746094 463.730469 1134.703125 C 464.824219 1135.75 465.746094 1137.347656 466.492188 1139.167969 C 467.96875 1142.769531 472.824219 1143.316406 475.246094 1140.269531 C 477.179688 1137.835938 479.296875 1135.65625 481.597656 1134.378906 C 486.796875 1131.488281 492.425781 1130.046875 498.492188 1130.046875 C 504.554688 1130.046875 510.332031 1131.5625 515.820313 1134.59375 C 521.308594 1137.625 526.109375 1141.777344 530.222656 1147.046875 C 534.339844 1152.320313 537.589844 1158.527344 539.972656 1165.675781 C 542.351563 1172.824219 543.546875 1180.511719 543.546875 1188.742188 C 543.546875 1196.972656 542.351563 1204.664063 539.972656 1211.8125 C 537.589844 1218.960938 534.304688 1225.207031 530.117188 1230.546875 C 525.925781 1235.890625 521.019531 1240.078125 515.390625 1243.109375 C 509.757813 1246.140625 503.691406 1247.65625 497.191406 1247.65625 C 492.425781 1247.65625 487.84375 1246.824219 483.4375 1245.167969 C 481.980469 1244.617188 480.566406 1243.789063 479.195313 1242.816406 C 475.9375 1240.5 471.417969 1242.941406 471.417969 1246.941406 L 471.417969 1271.050781 C 471.417969 1275.671875 469.71875 1279.675781 466.328125 1283.074219 C 462.933594 1286.464844 458.925781 1288.160156 454.304688 1288.160156 C 449.539063 1288.160156 445.460938 1286.464844 442.066406 1283.074219 C 438.675781 1279.675781 436.980469 1275.671875 436.980469 1271.050781 L 436.980469 1146.074219 C 436.980469 1141.738281 438.527344 1138.023438 441.636719 1134.921875 C 444.738281 1131.816406 448.457031 1130.261719 452.789063 1130.261719 "/>
</g>
</svg>
