<?xml version="1.0" encoding="UTF-8"?>
<svg xmlns="http://www.w3.org/2000/svg" xmlns:xlink="http://www.w3.org/1999/xlink" width="750pt" height="1334pt" viewBox="0 0 750 1334" version="1.1">
<g id="surface1">
<path style=" stroke:none;fill-rule:nonzero;fill:rgb(57.617188%,40.795898%,34.104919%);fill-opacity:1;" d="M 362.359375 624.644531 C 347.386719 631.5 339.214844 648.402344 345.597656 664.183594 L 467.566406 965.640625 C 473.523438 980.363281 492.175781 989.230469 507.105469 982.398438 C 522.078125 975.546875 530.25 958.644531 523.863281 942.863281 L 401.898438 641.40625 C 395.941406 626.683594 377.289063 617.8125 362.359375 624.644531 "/>
<path style=" stroke:none;fill-rule:nonzero;fill:rgb(65.039063%,51.756287%,82.8125%);fill-opacity:1;" d="M 564.636719 736.191406 C 560.707031 727.550781 556.910156 718.855469 553.222656 710.117188 C 553.390625 708.691406 553.253906 707.246094 552.699219 705.855469 C 525.855469 638.671875 499.191406 571.414063 472.160156 504.308594 C 458.359375 470.035156 441.753906 431.871094 414.820313 405.042969 C 414.527344 406.757813 414.109375 408.46875 413.523438 410.164063 C 408.375 425.015625 392.957031 434.789063 377.328125 433.78125 C 370.265625 433.328125 364.351563 430.796875 359.808594 426.832031 C 354.785156 430.597656 349.160156 433.234375 343.230469 434.105469 C 332.699219 435.652344 321.75 430.574219 316.175781 421.441406 C 314.769531 419.136719 313.832031 416.710938 313.238281 414.214844 C 307.644531 415.300781 302.027344 414.851563 296.804688 412.191406 C 287.039063 407.226563 281.089844 394.859375 282.738281 384 C 280.4375 385.128906 278.160156 386.3125 275.917969 387.570313 C 271.554688 389.292969 267.261719 391.230469 263.0625 393.417969 C 226.84375 412.285156 200.738281 449.414063 193.699219 489.484375 C 192.175781 498.171875 191.585938 506.789063 191.773438 515.347656 C 191.277344 516.851563 190.996094 518.53125 190.996094 520.390625 C 190.976563 545.726563 196.292969 570.386719 203.421875 594.585938 C 203.707031 596.046875 203.996094 597.5 204.296875 598.949219 C 212.144531 636.535156 225.9375 672.269531 239.628906 708.035156 C 251.992188 750.429688 265.464844 792.5 280.0625 834.183594 C 280.175781 835.09375 280.355469 836.03125 280.648438 837.003906 C 282.328125 842.578125 284.546875 847.964844 287.089844 853.203125 C 289.769531 858.710938 298.382813 862.425781 304.238281 860.179688 C 313.53125 856.613281 322.726563 852.800781 331.816406 848.757813 C 338.828125 846.4375 345.824219 844.0625 352.804688 841.644531 C 398.566406 825.789063 443.578125 807.726563 487.65625 787.667969 C 512.234375 776.484375 536.496094 764.632813 560.449219 752.171875 C 566.441406 749.054688 567.144531 741.703125 564.636719 736.191406 "/>
<path style=" stroke:none;fill-rule:nonzero;fill:rgb(43.530273%,27.830505%,59.959412%);fill-opacity:1;" d="M 334.101563 616.246094 C 333.289063 632.714844 313.976563 634.464844 305.21875 622.921875 C 299.8125 615.792969 289.1875 624.769531 294.589844 631.894531 C 301.914063 641.546875 314.640625 646.933594 326.605469 643.816406 C 338.574219 640.699219 347.335938 629.921875 347.945313 617.589844 C 348.386719 608.660156 334.546875 607.296875 334.101563 616.246094 "/>
<path style=" stroke:none;fill-rule:nonzero;fill:rgb(43.530273%,27.830505%,59.959412%);fill-opacity:1;" d="M 429.492188 579.328125 C 430.023438 586.820313 426.792969 595.273438 419.839844 598.902344 C 413.722656 602.09375 404.839844 600.339844 401.246094 594.183594 C 396.78125 586.519531 384.109375 592.273438 388.621094 600.011719 C 395.738281 612.214844 410.613281 617.632813 423.941406 612.296875 C 437.972656 606.679688 444.226563 591.273438 443.21875 577.066406 C 442.585938 568.128906 428.867188 570.472656 429.492188 579.328125 "/>
<path style=" stroke:none;fill-rule:nonzero;fill:rgb(91.796875%,83.984375%,88.671875%);fill-opacity:1;" d="M 446.828125 621.679688 C 439.070313 619.0625 430.570313 620.859375 425.71875 627.867188 C 422.074219 633.140625 424.914063 638.933594 429.25 641.296875 C 431.089844 643.046875 433.527344 644.128906 436.074219 643.640625 C 441.902344 642.519531 446.601563 640.003906 450.292969 635.273438 C 453.566406 631.074219 452.324219 623.527344 446.828125 621.679688 "/>
<path style=" stroke:none;fill-rule:nonzero;fill:rgb(91.796875%,83.984375%,88.671875%);fill-opacity:1;" d="M 339.761719 664.144531 C 332.003906 661.53125 323.503906 663.324219 318.648438 670.335938 C 315.003906 675.609375 317.84375 681.402344 322.179688 683.765625 C 324.023438 685.515625 326.460938 686.59375 329.007813 686.105469 C 334.835938 684.984375 339.535156 682.46875 343.222656 677.742188 C 346.496094 673.539063 345.257813 665.996094 339.761719 664.144531 "/>
<path style=" stroke:none;fill-rule:nonzero;fill:rgb(43.530273%,27.830505%,59.959412%);fill-opacity:1;" d="M 260.050781 421.238281 C 257.496094 426.003906 254.941406 430.769531 252.386719 435.535156 C 249.902344 440.171875 256.957031 444.304688 259.445313 439.660156 C 262 434.898438 264.554688 430.132813 267.109375 425.367188 C 269.59375 420.730469 262.539063 416.59375 260.050781 421.238281 "/>
<path style=" stroke:none;fill-rule:nonzero;fill:rgb(43.530273%,27.830505%,59.959412%);fill-opacity:1;" d="M 296.066406 454.5 C 292.242188 450.679688 287.507813 447.980469 282.246094 446.710938 C 277.132813 445.476563 274.953125 453.359375 280.070313 454.597656 C 284.023438 455.550781 287.410156 457.40625 290.289063 460.28125 C 294.015625 464.003906 299.796875 458.222656 296.066406 454.5 "/>
<path style=" stroke:none;fill-rule:nonzero;fill:rgb(43.530273%,27.830505%,59.959412%);fill-opacity:1;" d="M 251.46875 464.203125 C 248.511719 469.359375 244.480469 473.589844 239.425781 476.730469 C 234.96875 479.503906 239.066406 486.578125 243.554688 483.789063 C 249.773438 479.925781 254.882813 474.683594 258.527344 468.328125 C 261.152344 463.757813 254.089844 459.636719 251.46875 464.203125 "/>
<path style=" stroke:none;fill-rule:nonzero;fill:rgb(43.530273%,27.830505%,59.959412%);fill-opacity:1;" d="M 272.273438 487.242188 C 269.394531 492.199219 267.96875 497.757813 268.210938 503.492188 C 268.425781 508.734375 276.605469 508.761719 276.382813 503.492188 C 276.203125 499.132813 277.136719 495.148438 279.335938 491.371094 C 281.984375 486.8125 274.921875 482.691406 272.273438 487.242188 "/>
<path style=" stroke:none;fill-rule:nonzero;fill:rgb(43.530273%,27.830505%,59.959412%);fill-opacity:1;" d="M 211.175781 513.449219 C 210.226563 508.324219 210.113281 503.1875 210.625 498.007813 C 211.144531 492.777344 202.964844 492.8125 202.449219 498.007813 C 201.863281 503.9375 202.207031 509.765625 203.289063 515.621094 C 204.246094 520.789063 212.128906 518.597656 211.175781 513.449219 "/>
<path style=" stroke:none;fill-rule:nonzero;fill:rgb(43.530273%,27.830505%,59.959412%);fill-opacity:1;" d="M 215.527344 447.460938 L 215.527344 457.347656 C 215.527344 462.609375 223.703125 462.617188 223.703125 457.347656 L 223.703125 447.460938 C 223.703125 442.199219 215.527344 442.191406 215.527344 447.460938 "/>
<path style=" stroke:none;fill-rule:nonzero;fill:rgb(43.530273%,27.830505%,59.959412%);fill-opacity:1;" d="M 336.097656 454.589844 C 330.8125 455.855469 326.296875 459.289063 323.582031 463.984375 C 320.941406 468.546875 328.003906 472.667969 330.640625 468.109375 C 332.347656 465.160156 334.96875 463.265625 338.269531 462.476563 C 343.386719 461.25 341.21875 453.363281 336.097656 454.589844 "/>
<path style=" stroke:none;fill-rule:nonzero;fill:rgb(43.530273%,27.830505%,59.959412%);fill-opacity:1;" d="M 388.421875 448.566406 C 388.007813 443.355469 379.828125 443.3125 380.246094 448.566406 C 380.710938 454.472656 380.527344 460.335938 379.507813 466.175781 C 378.609375 471.320313 386.488281 473.53125 387.394531 468.347656 C 388.539063 461.773438 388.945313 455.226563 388.421875 448.566406 "/>
<path style=" stroke:none;fill-rule:nonzero;fill:rgb(43.530273%,27.830505%,59.959412%);fill-opacity:1;" d="M 417.511719 428 C 415.484375 432.304688 413.460938 436.605469 411.433594 440.90625 C 409.203125 445.640625 416.25 449.796875 418.492188 445.035156 C 420.519531 440.730469 422.542969 436.429688 424.570313 432.125 C 426.796875 427.394531 419.753906 423.238281 417.511719 428 "/>
<path style=" stroke:none;fill-rule:nonzero;fill:rgb(43.530273%,27.830505%,59.959412%);fill-opacity:1;" d="M 102.03125 284.03125 C 93.902344 284.03125 87.054688 281.648438 81.484375 276.871094 C 75.914063 272.089844 73.128906 266.230469 73.128906 259.261719 L 73.128906 85.851563 C 73.128906 78.890625 75.914063 73.011719 81.484375 68.238281 C 87.054688 63.460938 93.902344 61.078125 102.03125 61.078125 C 110.15625 61.078125 117.007813 63.460938 122.578125 68.238281 C 128.152344 73.011719 130.9375 78.890625 130.9375 85.851563 L 130.9375 259.261719 C 130.9375 266.230469 128.152344 272.089844 122.578125 276.871094 C 117.007813 281.648438 110.15625 284.03125 102.03125 284.03125 "/>
<path style=" stroke:none;fill-rule:nonzero;fill:rgb(65.039063%,51.756287%,82.8125%);fill-opacity:1;" d="M 87.640625 1251.074219 C 83.558594 1251.074219 80.121094 1249.875 77.324219 1247.476563 C 74.527344 1245.078125 73.128906 1242.132813 73.128906 1238.632813 L 73.128906 1151.558594 C 73.128906 1148.0625 74.527344 1145.113281 77.324219 1142.71875 C 80.121094 1140.320313 83.558594 1139.121094 87.640625 1139.121094 C 91.722656 1139.121094 95.160156 1140.320313 97.957031 1142.71875 C 100.757813 1145.113281 102.15625 1148.0625 102.15625 1151.558594 L 102.15625 1238.632813 C 102.15625 1242.132813 100.757813 1245.078125 97.957031 1247.476563 C 95.160156 1249.875 91.722656 1251.074219 87.640625 1251.074219 "/>
<path style=" stroke:none;fill-rule:nonzero;fill:rgb(65.039063%,51.756287%,82.8125%);fill-opacity:1;" d="M 338.136719 1184.734375 C 338.136719 1187.242188 337.234375 1189.46875 335.429688 1191.421875 C 333.628906 1193.375 331.324219 1194.351563 328.519531 1194.351563 C 326.71875 1194.351563 324.859375 1193.753906 322.960938 1192.550781 C 321.253906 1191.449219 319.527344 1190.699219 317.777344 1190.296875 C 316.023438 1189.898438 314.492188 1189.695313 313.191406 1189.695313 C 310.789063 1189.695313 308.558594 1190.246094 306.503906 1191.347656 C 304.449219 1192.449219 302.699219 1193.953125 301.246094 1195.855469 C 299.792969 1197.757813 298.664063 1200.011719 297.863281 1202.617188 C 297.0625 1205.222656 296.664063 1208.027344 296.664063 1211.03125 C 296.664063 1214.039063 297.0625 1216.890625 297.863281 1219.597656 C 298.664063 1222.300781 299.792969 1224.65625 301.246094 1226.660156 C 302.699219 1228.664063 304.425781 1230.242188 306.429688 1231.394531 C 308.433594 1232.546875 310.636719 1233.121094 313.039063 1233.121094 C 314.445313 1233.121094 315.945313 1232.921875 317.550781 1232.519531 C 319.152344 1232.121094 320.753906 1231.371094 322.359375 1230.265625 C 324.363281 1228.863281 326.316406 1228.164063 328.21875 1228.164063 C 330.621094 1228.164063 332.800781 1229.066406 334.757813 1230.867188 C 336.710938 1232.671875 337.6875 1234.925781 337.6875 1237.628906 C 337.6875 1239.132813 337.257813 1240.609375 336.40625 1242.0625 C 335.558594 1243.515625 334.078125 1244.945313 331.976563 1246.34375 C 329.671875 1247.847656 326.816406 1249.074219 323.410156 1250.027344 C 320.003906 1250.976563 316.296875 1251.453125 312.289063 1251.453125 C 306.980469 1251.453125 301.945313 1250.550781 297.191406 1248.75 C 292.429688 1246.945313 288.296875 1244.34375 284.792969 1240.933594 C 281.285156 1237.53125 278.503906 1233.324219 276.449219 1228.3125 C 274.398438 1223.304688 273.371094 1217.644531 273.371094 1211.332031 C 273.371094 1205.019531 274.371094 1199.339844 276.378906 1194.277344 C 278.378906 1189.21875 281.109375 1184.910156 284.566406 1181.355469 C 288.023438 1177.800781 292.105469 1175.046875 296.8125 1173.089844 C 301.519531 1171.136719 306.582031 1170.160156 311.988281 1170.160156 C 316.296875 1170.160156 320.230469 1170.738281 323.785156 1171.886719 C 327.339844 1173.039063 330.324219 1174.46875 332.726563 1176.171875 C 334.730469 1177.574219 336.132813 1179.003906 336.933594 1180.453125 C 337.734375 1181.90625 338.136719 1183.335938 338.136719 1184.734375 "/>
<path style=" stroke:none;fill-rule:nonzero;fill:rgb(65.039063%,51.756287%,82.8125%);fill-opacity:1;" d="M 174.460938 1183.492188 C 174.460938 1185.996094 173.558594 1188.226563 171.753906 1190.179688 C 169.953125 1192.132813 167.644531 1193.109375 164.84375 1193.109375 C 163.039063 1193.109375 161.183594 1192.507813 159.28125 1191.304688 C 157.578125 1190.207031 155.851563 1189.453125 154.097656 1189.054688 C 152.347656 1188.652344 150.816406 1188.449219 149.515625 1188.449219 C 147.113281 1188.449219 144.882813 1189.003906 142.828125 1190.105469 C 140.773438 1191.207031 139.019531 1192.710938 137.570313 1194.613281 C 136.117188 1196.515625 134.988281 1198.769531 134.1875 1201.375 C 133.386719 1203.980469 132.984375 1206.785156 132.984375 1209.789063 C 132.984375 1212.792969 133.386719 1215.648438 134.1875 1218.355469 C 134.988281 1221.058594 136.117188 1223.414063 137.570313 1225.417969 C 139.019531 1227.421875 140.75 1229 142.753906 1230.148438 C 144.757813 1231.304688 146.960938 1231.878906 149.363281 1231.878906 C 150.765625 1231.878906 152.269531 1231.679688 153.875 1231.277344 C 155.476563 1230.878906 157.078125 1230.128906 158.683594 1229.023438 C 160.683594 1227.621094 162.636719 1226.921875 164.542969 1226.921875 C 166.945313 1226.921875 169.125 1227.820313 171.078125 1229.625 C 173.03125 1231.425781 174.007813 1233.679688 174.007813 1236.386719 C 174.007813 1237.886719 173.582031 1239.367188 172.730469 1240.820313 C 171.878906 1242.273438 170.402344 1243.699219 168.300781 1245.101563 C 165.992188 1246.605469 163.140625 1247.828125 159.734375 1248.78125 C 156.324219 1249.734375 152.621094 1250.210938 148.613281 1250.210938 C 143.304688 1250.210938 138.269531 1249.308594 133.511719 1247.507813 C 128.753906 1245.703125 124.621094 1243.097656 121.113281 1239.691406 C 117.605469 1236.285156 114.828125 1232.078125 112.773438 1227.070313 C 110.722656 1222.0625 109.695313 1216.402344 109.695313 1210.089844 C 109.695313 1203.777344 110.695313 1198.09375 112.699219 1193.035156 C 114.703125 1187.976563 117.433594 1183.667969 120.890625 1180.113281 C 124.347656 1176.558594 128.429688 1173.800781 133.136719 1171.847656 C 137.84375 1169.894531 142.902344 1168.917969 148.3125 1168.917969 C 152.621094 1168.917969 156.554688 1169.496094 160.109375 1170.644531 C 163.664063 1171.796875 166.648438 1173.226563 169.050781 1174.929688 C 171.054688 1176.332031 172.453125 1177.761719 173.257813 1179.210938 C 174.058594 1180.664063 174.460938 1182.089844 174.460938 1183.492188 "/>
<path style=" stroke:none;fill-rule:nonzero;fill:rgb(65.039063%,51.756287%,82.8125%);fill-opacity:1;" d="M 434.894531 1205.621094 C 438.324219 1205.621094 440.832031 1202.199219 439.601563 1198.996094 L 439.578125 1198.9375 C 438.773438 1196.882813 437.746094 1195.105469 436.496094 1193.601563 C 435.242188 1192.101563 433.8125 1190.921875 432.214844 1190.070313 C 430.609375 1189.222656 428.90625 1188.792969 427.105469 1188.792969 C 425.300781 1188.792969 423.597656 1189.222656 421.996094 1190.070313 C 420.390625 1190.921875 418.964844 1192.101563 417.714844 1193.601563 C 416.460938 1195.105469 415.480469 1196.882813 414.78125 1198.9375 C 414.753906 1199.023438 414.722656 1199.109375 414.695313 1199.195313 C 413.664063 1202.375 416.128906 1205.621094 419.46875 1205.621094 Z M 444.835938 1227.710938 C 447.339844 1227.710938 449.515625 1228.664063 451.371094 1230.566406 C 453.226563 1232.472656 454.152344 1234.726563 454.152344 1237.328125 C 454.152344 1238.734375 453.726563 1240.183594 452.875 1241.6875 C 452.019531 1243.1875 450.445313 1244.644531 448.140625 1246.042969 C 445.636719 1247.648438 442.605469 1248.949219 439.050781 1249.953125 C 435.492188 1250.953125 431.8125 1251.453125 428.003906 1251.453125 C 423.195313 1251.453125 418.539063 1250.554688 414.03125 1248.75 C 409.523438 1246.945313 405.515625 1244.316406 402.007813 1240.859375 C 398.503906 1237.402344 395.699219 1233.175781 393.59375 1228.164063 C 391.492188 1223.15625 390.4375 1217.445313 390.4375 1211.03125 C 390.4375 1204.921875 391.414063 1199.363281 393.371094 1194.351563 C 395.324219 1189.347656 397.953125 1185.0625 401.257813 1181.503906 C 404.5625 1177.949219 408.445313 1175.222656 412.902344 1173.316406 C 417.359375 1171.414063 422.09375 1170.460938 427.105469 1170.460938 C 432.613281 1170.460938 437.671875 1171.589844 442.28125 1173.84375 C 446.886719 1176.097656 450.796875 1179.003906 454 1182.558594 C 457.207031 1186.113281 459.710938 1190.070313 461.515625 1194.429688 C 463.316406 1198.785156 464.21875 1203.066406 464.21875 1207.277344 C 464.21875 1211.78125 463.316406 1215.066406 461.515625 1217.117188 C 459.710938 1219.171875 457.507813 1220.199219 454.902344 1220.199219 L 419.28125 1220.199219 C 415.316406 1220.199219 414.195313 1224.605469 416.742188 1227.644531 C 418.746094 1230.039063 422.496094 1233.121094 428.304688 1233.121094 C 430.207031 1233.121094 432.109375 1232.796875 434.015625 1232.144531 C 435.917969 1231.492188 437.621094 1230.667969 439.125 1229.664063 C 441.128906 1228.363281 443.03125 1227.710938 444.835938 1227.710938 "/>
<path style=" stroke:none;fill-rule:nonzero;fill:rgb(65.039063%,51.756287%,82.8125%);fill-opacity:1;" d="M 222.261719 1204.378906 C 225.691406 1204.378906 228.195313 1200.953125 226.964844 1197.753906 C 226.957031 1197.734375 226.949219 1197.714844 226.941406 1197.691406 C 226.136719 1195.640625 225.113281 1193.859375 223.859375 1192.359375 C 222.605469 1190.855469 221.179688 1189.679688 219.578125 1188.828125 C 217.972656 1187.976563 216.273438 1187.550781 214.46875 1187.550781 C 212.664063 1187.550781 210.960938 1187.976563 209.359375 1188.828125 C 207.753906 1189.679688 206.328125 1190.855469 205.078125 1192.359375 C 203.824219 1193.859375 202.847656 1195.640625 202.144531 1197.691406 C 202.117188 1197.777344 202.089844 1197.867188 202.058594 1197.953125 C 201.027344 1201.132813 203.492188 1204.378906 206.835938 1204.378906 Z M 232.199219 1226.46875 C 234.703125 1226.46875 236.882813 1227.421875 238.734375 1229.324219 C 240.589844 1231.230469 241.515625 1233.480469 241.515625 1236.085938 C 241.515625 1237.488281 241.089844 1238.941406 240.238281 1240.441406 C 239.386719 1241.945313 237.808594 1243.398438 235.503906 1244.800781 C 233 1246.40625 229.96875 1247.707031 226.414063 1248.707031 C 222.859375 1249.707031 219.175781 1250.210938 215.367188 1250.210938 C 210.5625 1250.210938 205.902344 1249.308594 201.394531 1247.507813 C 196.886719 1245.703125 192.878906 1243.074219 189.375 1239.617188 C 185.867188 1236.160156 183.0625 1231.929688 180.960938 1226.921875 C 178.855469 1221.910156 177.804688 1216.199219 177.804688 1209.789063 C 177.804688 1203.679688 178.78125 1198.121094 180.734375 1193.109375 C 182.6875 1188.101563 185.316406 1183.820313 188.621094 1180.261719 C 191.929688 1176.707031 195.808594 1173.976563 200.269531 1172.074219 C 204.722656 1170.171875 209.457031 1169.21875 214.46875 1169.21875 C 219.976563 1169.21875 225.035156 1170.34375 229.644531 1172.597656 C 234.25 1174.851563 238.160156 1177.761719 241.367188 1181.316406 C 244.570313 1184.871094 247.074219 1188.828125 248.878906 1193.1875 C 250.683594 1197.542969 251.582031 1201.824219 251.582031 1206.03125 C 251.582031 1210.539063 250.683594 1213.824219 248.878906 1215.875 C 247.074219 1217.929688 244.871094 1218.953125 242.269531 1218.953125 L 206.644531 1218.953125 C 202.679688 1218.953125 201.5625 1223.363281 204.105469 1226.402344 C 206.109375 1228.796875 209.863281 1231.878906 215.671875 1231.878906 C 217.570313 1231.878906 219.476563 1231.554688 221.382813 1230.902344 C 223.28125 1230.25 224.988281 1229.425781 226.488281 1228.421875 C 228.492188 1227.121094 230.398438 1226.46875 232.199219 1226.46875 "/>
<path style=" stroke:none;fill-rule:nonzero;fill:rgb(43.530273%,27.830505%,59.959412%);fill-opacity:1;" d="M 172.824219 284.191406 C 166.242188 284.191406 160.652344 281.898438 156.066406 277.308594 C 151.472656 272.71875 149.183594 267.140625 149.183594 260.550781 L 149.183594 146.539063 C 149.183594 139.949219 151.472656 134.371094 156.066406 129.78125 C 160.652344 125.191406 166.242188 122.890625 172.824219 122.890625 C 179.40625 122.890625 184.988281 125.191406 189.582031 129.78125 C 194.171875 134.371094 196.464844 139.949219 196.464844 146.539063 L 196.464844 260.550781 C 196.464844 267.140625 194.171875 272.71875 189.582031 277.308594 C 184.988281 281.898438 179.40625 284.191406 172.824219 284.191406 M 147.089844 86.679688 C 147.089844 83.089844 147.785156 79.75 149.183594 76.660156 C 150.574219 73.570313 152.421875 70.820313 154.71875 68.429688 C 157.011719 66.03125 159.753906 64.140625 162.949219 62.738281 C 166.136719 61.351563 169.53125 60.648438 173.125 60.648438 C 176.714844 60.648438 180.054688 61.351563 183.148438 62.738281 C 186.238281 64.140625 188.933594 66.03125 191.226563 68.429688 C 193.519531 70.820313 195.367188 73.570313 196.765625 76.660156 C 198.160156 79.75 198.859375 83.089844 198.859375 86.679688 C 198.859375 90.269531 198.160156 93.621094 196.765625 96.710938 C 195.367188 99.800781 193.519531 102.5 191.226563 104.789063 C 188.933594 107.078125 186.238281 108.929688 183.148438 110.320313 C 180.054688 111.71875 176.714844 112.421875 173.125 112.421875 C 169.53125 112.421875 166.136719 111.71875 162.949219 110.320313 C 159.753906 108.929688 157.011719 107.078125 154.71875 104.789063 C 152.421875 102.5 150.574219 99.800781 149.183594 96.710938 C 147.785156 93.621094 147.089844 90.269531 147.089844 86.679688 "/>
<path style=" stroke:none;fill-rule:nonzero;fill:rgb(65.039063%,51.756287%,82.8125%);fill-opacity:1;" d="M 629.214844 1239.710938 C 629.214844 1243.019531 628.0625 1245.824219 625.757813 1248.128906 C 623.453125 1250.429688 620.652344 1251.582031 617.34375 1251.582031 C 614.039063 1251.582031 611.234375 1250.429688 608.929688 1248.128906 C 606.625 1245.824219 605.472656 1243.019531 605.472656 1239.710938 L 605.472656 1203.046875 C 605.472656 1198.238281 604.519531 1194.710938 602.617188 1192.453125 C 600.714844 1190.199219 598.160156 1189.074219 594.953125 1189.074219 C 592.949219 1189.074219 591.121094 1189.5 589.46875 1190.351563 C 587.816406 1191.203125 586.390625 1192.355469 585.1875 1193.808594 C 583.984375 1195.261719 583.058594 1196.941406 582.40625 1198.839844 C 581.753906 1200.742188 581.429688 1202.800781 581.429688 1205 L 581.429688 1239.710938 C 581.429688 1242.917969 580.253906 1245.699219 577.902344 1248.050781 C 575.546875 1250.40625 572.765625 1251.582031 569.558594 1251.582031 C 566.253906 1251.582031 563.421875 1250.40625 561.070313 1248.050781 C 558.714844 1245.699219 557.539063 1242.917969 557.539063 1239.710938 L 557.539063 1181.710938 C 557.539063 1178.605469 558.613281 1175.976563 560.769531 1173.820313 C 562.921875 1171.667969 565.550781 1170.589844 568.65625 1170.589844 C 571.5625 1170.589844 574.089844 1171.59375 576.246094 1173.597656 C 577.3125 1174.585938 578.136719 1175.699219 578.726563 1176.9375 C 579.515625 1178.601563 581.726563 1178.921875 583.117188 1177.714844 C 584.972656 1176.105469 587.039063 1174.707031 589.320313 1173.519531 C 593.074219 1171.566406 597.207031 1170.589844 601.71875 1170.589844 C 606.527344 1170.589844 610.957031 1171.769531 615.015625 1174.121094 C 618.023438 1175.867188 620.574219 1178.011719 622.675781 1180.554688 C 623.742188 1181.847656 625.761719 1181.894531 626.878906 1180.644531 C 629.1875 1178.0625 631.921875 1175.886719 635.074219 1174.121094 C 639.28125 1171.769531 643.890625 1170.589844 648.898438 1170.589844 C 652.808594 1170.589844 656.460938 1171.34375 659.867188 1172.847656 C 663.273438 1174.347656 666.257813 1176.375 668.8125 1178.929688 C 671.363281 1181.484375 673.367188 1184.46875 674.820313 1187.871094 C 676.273438 1191.277344 677 1194.933594 677 1198.839844 L 677 1239.710938 C 677 1243.019531 675.847656 1245.824219 673.542969 1248.128906 C 671.238281 1250.429688 668.433594 1251.582031 665.128906 1251.582031 C 661.824219 1251.582031 659.019531 1250.429688 656.714844 1248.128906 C 654.40625 1245.824219 653.257813 1243.019531 653.257813 1239.710938 L 653.257813 1203.046875 C 653.257813 1198.539063 652.28125 1195.085938 650.328125 1192.679688 C 648.375 1190.273438 645.792969 1189.074219 642.589844 1189.074219 C 640.683594 1189.074219 638.90625 1189.5 637.253906 1190.351563 C 635.601563 1191.203125 634.175781 1192.355469 632.972656 1193.808594 C 631.769531 1195.261719 630.84375 1196.941406 630.191406 1198.839844 C 629.539063 1200.742188 629.214844 1202.800781 629.214844 1205 "/>
<path style=" stroke:none;fill-rule:nonzero;fill:rgb(65.039063%,51.756287%,82.8125%);fill-opacity:1;" d="M 365.910156 1177.863281 C 366.359375 1179.339844 368.199219 1179.402344 369.015625 1178.09375 C 370.261719 1176.097656 371.917969 1174.652344 373.222656 1173.601563 C 374.523438 1172.550781 375.875 1171.699219 377.277344 1171.046875 C 378.679688 1170.394531 380.183594 1170.070313 381.785156 1170.070313 C 384.492188 1170.070313 386.871094 1171.023438 388.925781 1172.925781 C 390.976563 1174.828125 392.003906 1177.230469 392.003906 1180.136719 C 392.003906 1182.542969 391.226563 1184.820313 389.675781 1186.972656 C 388.121094 1189.128906 385.792969 1190.203125 382.6875 1190.203125 C 380.382813 1190.203125 378.351563 1190.882813 376.601563 1192.234375 C 374.847656 1193.585938 373.371094 1195.390625 372.171875 1197.644531 C 370.96875 1199.894531 370.066406 1202.453125 369.464844 1205.308594 C 368.863281 1208.160156 368.5625 1211.09375 368.5625 1214.097656 L 368.5625 1239.191406 C 368.5625 1242.398438 367.386719 1245.179688 365.03125 1247.53125 C 362.679688 1249.886719 359.898438 1251.0625 356.691406 1251.0625 C 353.386719 1251.0625 350.554688 1249.886719 348.203125 1247.53125 C 345.847656 1245.179688 344.671875 1242.398438 344.671875 1239.191406 L 344.671875 1181.1875 C 344.671875 1178.085938 345.746094 1175.453125 347.902344 1173.300781 C 350.054688 1171.148438 352.683594 1170.070313 355.789063 1170.070313 C 358.695313 1170.070313 361.226563 1171.070313 363.378906 1173.074219 C 364.476563 1174.097656 365.320313 1175.921875 365.910156 1177.863281 "/>
<path style=" stroke:none;fill-rule:nonzero;fill:rgb(65.039063%,51.756287%,82.8125%);fill-opacity:1;" d="M 534.628906 1176.53125 C 537.941406 1176.53125 540.804688 1177.765625 543.207031 1180.226563 C 545.355469 1182.425781 546.5 1185.421875 546.5 1188.496094 L 546.5 1239.492188 C 546.5 1242.699219 545.347656 1245.453125 543.042969 1247.757813 C 540.734375 1250.0625 537.980469 1251.214844 534.777344 1251.214844 C 532.875 1251.214844 528.636719 1250.164063 526.847656 1247.085938 C 525.246094 1244.339844 521.570313 1243.765625 519.320313 1246.011719 C 517.839844 1247.488281 516.230469 1248.824219 514.492188 1249.335938 C 510.585938 1250.488281 507.078125 1251.0625 503.972656 1251.0625 C 493.652344 1251.0625 486.132813 1247.40625 478.820313 1240.09375 C 471.507813 1232.78125 467.851563 1223.964844 467.851563 1213.648438 C 467.851563 1203.332031 471.507813 1194.539063 478.820313 1187.273438 C 486.132813 1180.011719 493.652344 1176.382813 503.972656 1176.382813 C 507.078125 1176.382813 510.609375 1176.960938 514.566406 1178.109375 C 516.355469 1178.628906 518.003906 1179.734375 519.515625 1180.949219 C 521.921875 1182.878906 525.394531 1182.324219 527.183594 1179.816406 C 529.121094 1177.097656 532.722656 1176.53125 534.628906 1176.53125 "/>
<path style=" stroke:none;fill-rule:nonzero;fill:rgb(100%,100%,100%);fill-opacity:1;" d="M 490.355469 1213.722656 C 490.355469 1216.730469 490.707031 1219.484375 491.40625 1221.988281 C 492.109375 1224.492188 493.0625 1226.695313 494.261719 1228.597656 C 495.464844 1230.503906 496.894531 1231.980469 498.546875 1233.03125 C 500.199219 1234.082031 501.976563 1234.609375 503.878906 1234.609375 C 505.78125 1234.609375 507.5625 1234.082031 509.214844 1233.03125 C 510.867188 1231.980469 512.296875 1230.503906 513.496094 1228.597656 C 514.699219 1226.695313 515.648438 1224.492188 516.351563 1221.988281 C 517.050781 1219.484375 517.40625 1216.730469 517.40625 1213.722656 C 517.40625 1210.71875 517.050781 1207.964844 516.351563 1205.457031 C 515.648438 1202.953125 514.699219 1200.777344 513.496094 1198.921875 C 512.296875 1197.070313 510.867188 1195.617188 509.214844 1194.5625 C 507.5625 1193.511719 505.78125 1192.988281 503.878906 1192.988281 C 501.976563 1192.988281 500.199219 1193.511719 498.546875 1194.5625 C 496.894531 1195.617188 495.464844 1197.070313 494.261719 1198.921875 C 493.0625 1200.777344 492.109375 1202.953125 491.40625 1205.457031 C 490.707031 1207.964844 490.355469 1210.71875 490.355469 1213.722656 "/>
</g>
</svg>
