<?xml version="1.0" encoding="UTF-8"?>
<svg xmlns="http://www.w3.org/2000/svg" xmlns:xlink="http://www.w3.org/1999/xlink" width="750pt" height="1334pt" viewBox="0 0 750 1334" version="1.1">
<g id="surface1">
<path style=" stroke:none;fill-rule:nonzero;fill:rgb(97.65625%,89.451599%,76.171875%);fill-opacity:1;" d="M 309.046875 491.464844 C 307.195313 446.191406 236.414063 443.863281 238.28125 489.480469 C 238.667969 498.972656 238.910156 508.441406 238.585938 517.9375 C 238.507813 520.207031 238.273438 522.464844 238.148438 524.726563 C 225.332031 527.90625 206.921875 534.277344 204.8125 535.339844 C 173.910156 550.910156 161.769531 585.980469 162.742188 618.925781 C 164.085938 664.269531 234.859375 666.554688 233.507813 620.910156 C 233.054688 605.503906 231.980469 599.628906 246.578125 597.011719 C 259.039063 594.773438 272.816406 591.9375 283.632813 585.066406 C 313.753906 565.925781 310.308594 522.429688 309.046875 491.464844 "/>
<path style=" stroke:none;fill-rule:nonzero;fill:rgb(97.65625%,89.451599%,76.171875%);fill-opacity:1;" d="M 590.34375 602.535156 C 590.785156 602.550781 591.15625 602.660156 591.578125 602.695313 C 588.761719 577.386719 577.304688 553.3125 554.019531 540.0625 C 551.945313 538.882813 533.683594 531.488281 520.898438 527.589844 C 520.898438 525.324219 520.789063 523.054688 520.839844 520.789063 C 521.042969 511.289063 521.824219 501.847656 522.753906 492.390625 C 527.207031 446.953125 455.484375 445.289063 451.0625 490.382813 C 448.039063 521.226563 442.105469 564.464844 471.492188 585.269531 C 482.042969 592.738281 495.820313 596.347656 508.300781 599.285156 C 522.914063 602.722656 521.5 608.523438 520.171875 623.882813 C 516.722656 663.6875 571.195313 669.972656 587.492188 640.648438 C 564.703125 638.140625 566.308594 601.863281 590.34375 602.535156 "/>
<path style=" stroke:none;fill-rule:nonzero;fill:rgb(97.65625%,89.451599%,76.171875%);fill-opacity:1;" d="M 497.425781 510.378906 C 494.351563 494.992188 490.085938 477.613281 475.839844 468.632813 C 461.113281 459.351563 440.941406 461.953125 424.363281 461.488281 L 305.457031 458.160156 C 268.269531 457.117188 260.097656 504.113281 283.191406 522.078125 C 274.691406 527.363281 266.933594 534.300781 260.175781 543.28125 C 241.65625 567.886719 235.832031 610.238281 272.101563 622.816406 C 288.234375 628.414063 309.167969 624.210938 325.816406 623.410156 C 345.472656 622.464844 365.117188 621.316406 384.722656 619.59375 C 404.171875 617.878906 423.632813 615.808594 442.945313 612.925781 C 457.601563 610.738281 474.699219 609.878906 486.921875 600.667969 C 512.179688 581.636719 502.707031 536.816406 497.425781 510.378906 "/>
<path style=" stroke:none;fill-rule:nonzero;fill:rgb(84.764099%,18.821716%,29.80957%);fill-opacity:1;" d="M 590.804688 816.71875 L 591.1875 747.523438 C 591.457031 698.09375 591.730469 648.667969 592 599.242188 C 592.050781 590.066406 581.648438 586.152344 574.941406 591.613281 C 577.242188 589.738281 564.65625 583.09375 562.660156 582.710938 C 557.121094 581.652344 552.375 582.890625 547.582031 585.5625 C 537.722656 591.066406 537.570313 601.320313 523.710938 596.429688 C 515.351563 593.480469 509.988281 588.222656 500.53125 586.851563 C 476.117188 583.308594 456.601563 598.707031 434.058594 604.402344 C 416.335938 608.878906 404.863281 601.460938 388.484375 599.445313 C 378.570313 598.226563 372.164063 600.515625 362.777344 603.277344 C 348.078125 607.605469 339.632813 607.78125 325.300781 602.019531 C 315.234375 597.972656 305.671875 593.394531 294.78125 591.933594 C 281.859375 590.195313 271.511719 589.8125 259.050781 584.664063 C 252.574219 581.988281 246.339844 578.179688 239.019531 578.40625 C 232.261719 578.613281 226.566406 581.558594 221.578125 585.890625 C 219.960938 587.300781 218.402344 590.234375 216.695313 592.332031 C 214.636719 592.96875 212.476563 593.304688 210.226563 593.285156 C 207.011719 592.230469 203.769531 591.222656 200.355469 590.597656 C 192.457031 589.148438 184.71875 590.480469 176.890625 591.335938 C 172.636719 590.507813 168.398438 590.113281 166.125 591.570313 C 163.46875 593.269531 163.714844 595.613281 163.3125 598.847656 C 161.828125 610.757813 160.507813 624.121094 161.609375 636.597656 C 159.867188 661.777344 160.105469 687.019531 161.089844 712.261719 C 160.847656 726.726563 160.703125 741.191406 160.800781 755.65625 C 161.019531 787.734375 158.113281 826.632813 168.5625 858.390625 C 168.675781 859.914063 168.75 861.445313 168.871094 862.96875 C 170.097656 878.601563 172.953125 893.863281 186.085938 903.882813 C 199.988281 914.488281 219.988281 915.378906 236.683594 916.761719 C 264.507813 919.066406 292.585938 918.246094 320.457031 917.617188 C 339.160156 917.195313 357.855469 916.535156 376.542969 915.773438 C 380.601563 916.03125 384.65625 916.292969 388.707031 916.550781 C 431.148438 919.269531 474.1875 921.566406 516.515625 916.035156 C 543.164063 912.554688 579.382813 903.828125 588.582031 874.523438 C 594.042969 857.125 590.707031 834.535156 590.804688 816.71875 "/>
<path style=" stroke:none;fill-rule:nonzero;fill:rgb(67.771912%,22.75238%,30.200195%);fill-opacity:1;" d="M 538.199219 474.988281 C 536.746094 462.019531 536.878906 449.628906 538.609375 436.722656 C 539.480469 430.210938 535.484375 423.667969 529.78125 419.226563 C 507.394531 412.789063 483.3125 412.003906 459.425781 411.304688 C 458.945313 411.289063 458.542969 411.183594 458.085938 411.144531 C 426.140625 412 394.113281 412.746094 362.234375 409.996094 C 328.910156 407.121094 298.636719 412.042969 265.660156 412.761719 C 265.578125 412.765625 265.507813 412.785156 265.425781 412.792969 C 255.523438 413.484375 239.546875 413.027344 228.101563 417.085938 C 226.046875 418.40625 224.011719 419.792969 222.300781 421.351563 C 221.460938 422.40625 220.589844 423.507813 220.109375 424.503906 C 219.246094 426.304688 218.574219 428.164063 218.011719 430.054688 C 217.980469 444.941406 218.199219 459.992188 220.625 474.429688 C 222.078125 477.273438 223.621094 480.089844 225.257813 482.886719 C 228.640625 485.757813 232.414063 488.183594 236.347656 490.394531 C 240.390625 490.851563 244.429688 491.238281 248.472656 491.671875 C 265.230469 492.132813 281.988281 492.550781 298.75 492.972656 C 300.511719 493.363281 302.398438 493.589844 304.421875 493.621094 C 327.359375 493.96875 350.277344 494.746094 373.183594 495.953125 C 373.71875 495.980469 374.222656 495.960938 374.738281 495.960938 C 402.207031 497.308594 429.703125 498.121094 456.828125 496.875 C 457.789063 496.988281 458.765625 497.058594 459.769531 497.050781 C 468.878906 496.949219 477.976563 496.632813 487.070313 496.210938 C 494.003906 496.550781 500.96875 496.570313 508.0625 496.089844 C 521.910156 497.234375 539.917969 490.28125 538.199219 474.988281 "/>
<path style=" stroke:none;fill-rule:nonzero;fill:rgb(95.701599%,83.59375%,62.304688%);fill-opacity:1;" d="M 428.761719 670.566406 C 403.050781 652.441406 358.292969 649.378906 329.257813 660.507813 C 294.304688 673.902344 275.429688 715.164063 273.75 750.710938 C 271.867188 790.589844 298.597656 821.796875 333.628906 837.453125 C 367.050781 852.394531 410.191406 852.015625 439.097656 827.09375 C 450.554688 817.214844 458.6875 804.257813 462.835938 790.269531 C 466.183594 783.363281 468.558594 775.886719 469.59375 767.820313 C 473.894531 734.257813 456.984375 690.460938 428.761719 670.566406 "/>
<path style=" stroke:none;fill-rule:nonzero;fill:rgb(80.076599%,23.143005%,23.143005%);fill-opacity:1;" d="M 433.078125 740.320313 C 431.140625 736.140625 427.515625 731.703125 423.140625 728.15625 C 408.914063 710.207031 388.476563 700.394531 365.78125 700.332031 C 364.585938 699.339844 363.125 699.023438 361.730469 699.21875 C 359.53125 698.898438 357.1875 699.78125 356.347656 702.527344 C 348.765625 727.378906 340.089844 752.15625 333.535156 777.292969 C 330.867188 787.523438 328.164063 801.355469 339.175781 808.101563 C 341.621094 809.601563 344.019531 810.207031 346.363281 810.222656 C 346.570313 810.234375 346.722656 810.320313 346.945313 810.308594 C 353.328125 809.925781 359.566406 807.410156 365.503906 804.207031 C 379.882813 798.214844 393.585938 787.1875 404.363281 778.453125 C 413.363281 771.164063 439.410156 753.984375 433.078125 740.320313 "/>
<path style=" stroke:none;fill-rule:nonzero;fill:rgb(34.910583%,53.709412%,35.301208%);fill-opacity:1;" d="M 442.523438 737.398438 C 443.421875 733.15625 448.902344 732.160156 447.300781 726.230469 C 446.410156 722.925781 443.871094 721.160156 440.738281 720.480469 C 438.007813 719.886719 435.28125 721.414063 432.628906 721.414063 C 432.402344 721.0625 432.246094 720.671875 432.058594 720.296875 C 431.96875 720.101563 431.863281 719.917969 431.78125 719.71875 C 432.089844 719.316406 432.382813 718.847656 432.609375 718.203125 C 434.351563 713.285156 437.601563 702.324219 428.128906 704.195313 C 425.597656 704.695313 424.828125 705.996094 423.511719 706.710938 C 421.097656 706.871094 418.675781 706.3125 417.105469 704.601563 C 416.652344 699.921875 415.316406 695.503906 411.113281 693.503906 C 409.847656 692.898438 408.5625 692.65625 407.265625 692.527344 C 403.804688 693.503906 399.871094 694.722656 396.394531 694.183594 C 396.355469 694.179688 396.328125 694.15625 396.289063 694.148438 C 395.890625 694.210938 395.503906 694.304688 395.089844 694.273438 C 391.824219 694.011719 390.355469 691.148438 390.671875 688.191406 C 389.308594 685.292969 387.152344 684.460938 384.082031 683.785156 C 378.136719 684.769531 375.082031 693.355469 368.871094 688.347656 C 366.050781 686.074219 367.121094 682.554688 361.863281 683.128906 C 358.78125 683.460938 356.546875 685.320313 355.15625 687.824219 C 355.023438 688.300781 354.863281 688.773438 354.742188 689.253906 C 354.871094 691.105469 354.871094 692.914063 354.339844 694.816406 C 354.027344 695.921875 353.65625 696.949219 353.285156 697.96875 C 353.195313 699.433594 353.167969 700.902344 353.289063 702.386719 C 355.761719 709.097656 365.148438 709.363281 374.605469 711.28125 C 393.503906 715.113281 416.105469 727.722656 426.90625 743.976563 C 430.167969 748.878906 440.5625 757.148438 444.152344 747.15625 C 445.648438 742.984375 441.714844 741.234375 442.523438 737.398438 "/>
<path style=" stroke:none;fill-rule:nonzero;fill:rgb(95.701599%,83.59375%,62.304688%);fill-opacity:1;" d="M 366.726563 726.085938 C 363.472656 725.992188 363.328125 731.046875 366.585938 731.140625 C 369.835938 731.230469 369.984375 726.175781 366.726563 726.085938 "/>
<path style=" stroke:none;fill-rule:nonzero;fill:rgb(95.701599%,83.59375%,62.304688%);fill-opacity:1;" d="M 350.78125 767.265625 C 347.527344 767.175781 347.378906 772.230469 350.636719 772.320313 C 353.890625 772.410156 354.039063 767.359375 350.78125 767.265625 "/>
<path style=" stroke:none;fill-rule:nonzero;fill:rgb(95.701599%,83.59375%,62.304688%);fill-opacity:1;" d="M 385.691406 765.710938 C 382.4375 765.617188 382.289063 770.671875 385.546875 770.765625 C 388.800781 770.855469 388.949219 765.800781 385.691406 765.710938 "/>
<path style=" stroke:none;fill-rule:nonzero;fill:rgb(95.701599%,83.59375%,62.304688%);fill-opacity:1;" d="M 366.691406 787.574219 C 363.441406 787.484375 363.296875 792.539063 366.550781 792.632813 C 369.804688 792.722656 369.953125 787.667969 366.691406 787.574219 "/>
<path style=" stroke:none;fill-rule:nonzero;fill:rgb(95.701599%,83.59375%,62.304688%);fill-opacity:1;" d="M 340.507813 794.449219 C 337.257813 794.359375 337.109375 799.414063 340.367188 799.503906 C 343.621094 799.597656 343.765625 794.539063 340.507813 794.449219 "/>
<path style=" stroke:none;fill-rule:nonzero;fill:rgb(95.701599%,83.59375%,62.304688%);fill-opacity:1;" d="M 369.675781 748.988281 C 366.425781 748.898438 366.277344 753.949219 369.535156 754.042969 C 372.785156 754.132813 372.933594 749.078125 369.675781 748.988281 "/>
<path style=" stroke:none;fill-rule:nonzero;fill:rgb(95.701599%,83.59375%,62.304688%);fill-opacity:1;" d="M 413.566406 743.667969 C 410.316406 743.574219 410.171875 748.632813 413.425781 748.722656 C 416.679688 748.8125 416.828125 743.757813 413.566406 743.667969 "/>
<path style=" stroke:none;fill-rule:nonzero;fill:rgb(95.701599%,83.59375%,62.304688%);fill-opacity:1;" d="M 391.976563 722.355469 C 388.726563 722.261719 388.578125 727.316406 391.835938 727.410156 C 395.089844 727.5 395.234375 722.445313 391.976563 722.355469 "/>
<path style=" stroke:none;fill-rule:nonzero;fill:rgb(95.701599%,83.59375%,62.304688%);fill-opacity:1;" d="M 352.1875 752.671875 C 348.933594 752.578125 348.785156 757.632813 352.042969 757.726563 C 355.296875 757.816406 355.441406 752.761719 352.1875 752.671875 "/>
<path style=" stroke:none;fill-rule:nonzero;fill:rgb(95.701599%,83.59375%,62.304688%);fill-opacity:1;" d="M 406.449219 762.988281 C 403.195313 762.898438 403.050781 767.953125 406.304688 768.042969 C 409.558594 768.136719 409.707031 763.082031 406.449219 762.988281 "/>
<path style=" stroke:none;fill-rule:nonzero;fill:rgb(95.701599%,83.59375%,62.304688%);fill-opacity:1;" d="M 386.832031 751.296875 C 383.578125 751.203125 383.433594 756.257813 386.691406 756.351563 C 389.941406 756.441406 390.089844 751.386719 386.832031 751.296875 "/>
<path style=" stroke:none;fill-rule:nonzero;fill:rgb(92.96875%,65.039063%,70.896912%);fill-opacity:1;" d="M 464.425781 565.492188 C 457.066406 561.246094 447.03125 560.144531 438.757813 564.089844 C 432.546875 567.054688 433.1875 572.296875 436.917969 575.359375 C 438.183594 577.226563 440.386719 578.761719 443.375 579.128906 C 450.207031 579.964844 456.40625 579.40625 462.4375 576.871094 C 467.792969 574.617188 469.640625 568.5 464.425781 565.492188 "/>
<path style=" stroke:none;fill-rule:nonzero;fill:rgb(92.96875%,65.039063%,70.896912%);fill-opacity:1;" d="M 323.003906 565.492188 C 315.644531 561.246094 305.605469 560.144531 297.335938 564.089844 C 291.121094 567.054688 291.761719 572.296875 295.492188 575.359375 C 296.757813 577.226563 298.960938 578.761719 301.949219 579.128906 C 308.785156 579.964844 314.980469 579.40625 321.015625 576.871094 C 326.371094 574.617188 328.21875 568.5 323.003906 565.492188 "/>
<path style=" stroke:none;fill-rule:nonzero;fill:rgb(67.771912%,22.75238%,30.200195%);fill-opacity:1;" d="M 443.007813 525.269531 C 438.722656 542.054688 415.945313 545.632813 408.777344 528.574219 C 406.132813 522.285156 395.714844 525.050781 398.398438 531.4375 C 409.316406 557.40625 446.171875 556.375 453.382813 528.128906 C 455.097656 521.414063 444.722656 518.550781 443.007813 525.269531 "/>
<path style=" stroke:none;fill-rule:nonzero;fill:rgb(67.771912%,22.75238%,30.200195%);fill-opacity:1;" d="M 352.757813 527.128906 C 348.472656 543.914063 325.695313 547.496094 318.527344 530.4375 C 315.882813 524.148438 305.464844 526.910156 308.148438 533.296875 C 319.066406 559.269531 355.921875 558.234375 363.132813 529.988281 C 364.847656 523.277344 354.472656 520.410156 352.757813 527.128906 "/>
<path style=" stroke:none;fill-rule:nonzero;fill:rgb(67.771912%,22.75238%,30.200195%);fill-opacity:1;" d="M 229.503906 67.859375 C 229.523438 67.871094 229.539063 67.890625 229.558594 67.910156 C 234.152344 73.128906 236.453125 78.929688 236.453125 85.339844 L 236.453125 204.210938 C 236.453125 218.460938 232.890625 231.648438 225.769531 243.78125 C 218.648438 255.921875 208.769531 265.601563 196.128906 272.820313 C 183.890625 280.25 169.84375 283.960938 153.996094 283.960938 C 133.730469 283.960938 115.875 277.488281 100.429688 264.550781 C 84.980469 251.609375 75.851563 235.410156 73.042969 215.949219 C 72.238281 211.128906 72 205.480469 72 205.480469 C 72 199.710938 76.203125 192.578125 80.71875 189.160156 C 85.230469 185.75 90.394531 184.050781 96.21875 184.050781 C 102.03125 184.050781 107.199219 185.800781 111.714844 189.308594 C 116.226563 192.828125 119.1875 197.289063 120.589844 202.710938 C 120.589844 202.710938 125.859375 223.671875 132.179688 228.890625 C 138.367188 234 145.46875 236.601563 153.492188 236.710938 C 160.527344 236.800781 167.523438 234.71875 173.351563 230.78125 C 173.4375 230.71875 173.523438 230.660156 173.605469 230.601563 C 181.128906 225.421875 185.292969 216.589844 185.292969 207.449219 L 185.292969 85.339844 C 185.292969 78.71875 187.75 73 192.664063 68.191406 C 197.582031 63.371094 203.652344 60.960938 210.875 60.960938 C 218.082031 60.960938 224.289063 63.261719 229.503906 67.859375 "/>
<path style=" stroke:none;fill-rule:nonzero;fill:rgb(84.764099%,18.821716%,29.80957%);fill-opacity:1;" d="M 238.304688 1047.492188 C 238.324219 1047.507813 238.339844 1047.523438 238.359375 1047.542969 C 242.683594 1052.453125 244.851563 1057.921875 244.851563 1063.949219 L 244.851563 1175.878906 C 244.851563 1189.296875 241.492188 1201.714844 234.789063 1213.144531 C 228.082031 1224.574219 218.78125 1233.683594 206.878906 1240.484375 C 195.355469 1247.476563 182.128906 1250.96875 167.210938 1250.96875 C 148.125 1250.96875 131.3125 1244.878906 116.769531 1232.695313 C 102.222656 1220.507813 93.625 1205.257813 90.984375 1186.933594 C 90.226563 1182.398438 90 1177.074219 90 1177.074219 C 90 1171.644531 93.957031 1164.925781 98.207031 1161.714844 C 102.460938 1158.5 107.320313 1156.894531 112.804688 1156.894531 C 118.277344 1156.894531 123.144531 1158.550781 127.394531 1161.855469 C 131.644531 1165.160156 134.429688 1169.363281 135.753906 1174.464844 C 135.753906 1174.464844 140.714844 1194.207031 146.664063 1199.117188 C 152.492188 1203.929688 159.179688 1206.382813 166.734375 1206.480469 C 173.359375 1206.566406 179.945313 1204.613281 185.433594 1200.898438 C 185.511719 1200.84375 185.59375 1200.789063 185.671875 1200.730469 C 192.753906 1195.847656 196.679688 1187.53125 196.679688 1178.929688 L 196.679688 1063.949219 C 196.679688 1057.71875 198.988281 1052.332031 203.617188 1047.800781 C 208.246094 1043.265625 213.964844 1041 220.765625 1041 C 227.550781 1041 233.394531 1043.164063 238.304688 1047.492188 "/>
<path style=" stroke:none;fill-rule:nonzero;fill:rgb(67.771912%,22.75238%,30.200195%);fill-opacity:1;" d="M 353.285156 96.769531 C 348.992188 92.578125 346.851563 87.488281 346.851563 81.511719 C 346.851563 75.519531 348.992188 70.390625 353.285156 66.101563 C 357.574219 61.808594 362.714844 59.660156 368.695313 59.660156 C 374.679688 59.660156 379.769531 61.808594 383.957031 66.101563 C 388.148438 70.390625 390.242188 75.519531 390.242188 81.511719 C 390.242188 87.488281 388.148438 92.578125 383.957031 96.769531 C 379.769531 100.960938 374.679688 103.050781 368.695313 103.050781 C 362.714844 103.050781 357.574219 100.960938 353.285156 96.769531 M 384.558594 116.21875 C 388.546875 120.210938 390.839844 125.5 391.441406 132.078125 L 391.441406 221.261719 C 391.441406 232.628906 388.695313 243.109375 383.210938 252.679688 C 377.722656 262.261719 369.992188 269.941406 360.019531 275.730469 C 349.640625 281.308594 338.96875 284.109375 328 284.109375 C 312.4375 284.109375 298.769531 279.121094 287 269.140625 C 275.226563 259.171875 268.144531 246.398438 265.753906 230.839844 C 265.347656 228.640625 265.152344 225.449219 265.152344 221.261719 L 265.152344 219.171875 C 265.109375 214.101563 268.136719 210.058594 272.234375 206.851563 C 276.199219 203.730469 281.015625 202.710938 285.800781 202.710938 C 290.589844 202.710938 294.976563 204.25 298.972656 207.351563 C 302.960938 210.441406 305.449219 214.378906 306.449219 219.171875 C 306.449219 219.171875 308.378906 231.679688 314.230469 236.820313 C 318.167969 240.28125 322.613281 241.910156 327.398438 241.910156 C 333.554688 241.910156 338.433594 240.101563 342.03125 236.46875 C 345.292969 233.191406 346.851563 228.570313 346.851563 223.949219 L 346.851563 131.480469 C 346.851563 125.5 348.945313 120.410156 353.136719 116.21875 C 357.324219 112.03125 362.511719 109.941406 368.695313 109.941406 C 374.480469 109.941406 379.769531 112.03125 384.558594 116.21875 "/>
<path style=" stroke:none;fill-rule:nonzero;fill:rgb(84.764099%,18.821716%,29.80957%);fill-opacity:1;" d="M 568.523438 1228.933594 C 568.523438 1235.132813 566.363281 1240.394531 562.046875 1244.710938 C 557.722656 1249.03125 552.464844 1251.191406 546.265625 1251.191406 C 540.066406 1251.191406 534.804688 1249.03125 530.488281 1244.710938 C 526.164063 1240.394531 524.003906 1235.132813 524.003906 1228.933594 L 524.003906 1160.179688 C 524.003906 1151.160156 522.21875 1144.539063 518.652344 1140.3125 C 515.078125 1136.085938 510.289063 1133.972656 504.28125 1133.972656 C 500.519531 1133.972656 497.09375 1134.773438 493.996094 1136.367188 C 490.894531 1137.964844 488.21875 1140.128906 485.964844 1142.847656 C 483.710938 1145.574219 481.96875 1148.722656 480.753906 1152.285156 C 479.527344 1155.855469 478.921875 1159.710938 478.921875 1163.839844 L 478.921875 1228.933594 C 478.921875 1234.949219 476.710938 1240.160156 472.296875 1244.570313 C 467.882813 1248.984375 462.671875 1251.191406 456.660156 1251.191406 C 450.460938 1251.191406 445.152344 1248.984375 440.738281 1244.570313 C 436.320313 1240.160156 434.117188 1234.949219 434.117188 1228.933594 L 434.117188 1120.164063 C 434.117188 1114.34375 436.132813 1109.410156 440.175781 1105.371094 C 444.214844 1101.335938 449.144531 1099.3125 454.96875 1099.3125 C 460.414063 1099.3125 465.15625 1101.191406 469.199219 1104.949219 C 471.195313 1106.808594 472.742188 1108.894531 473.84375 1111.210938 C 475.328125 1114.332031 479.472656 1114.9375 482.082031 1112.671875 C 485.5625 1109.652344 489.4375 1107.03125 493.714844 1104.808594 C 500.757813 1101.144531 508.503906 1099.3125 516.960938 1099.3125 C 525.976563 1099.3125 534.289063 1101.523438 541.898438 1105.933594 C 547.539063 1109.210938 552.328125 1113.230469 556.261719 1117.996094 C 558.261719 1120.421875 562.046875 1120.507813 564.144531 1118.164063 C 568.472656 1113.324219 573.597656 1109.246094 579.515625 1105.933594 C 587.40625 1101.523438 596.042969 1099.3125 605.4375 1099.3125 C 612.769531 1099.3125 619.621094 1100.722656 626.007813 1103.539063 C 632.394531 1106.355469 637.984375 1110.160156 642.773438 1114.953125 C 647.566406 1119.742188 651.324219 1125.335938 654.046875 1131.71875 C 656.769531 1138.105469 658.132813 1144.960938 658.132813 1152.285156 L 658.132813 1228.933594 C 658.132813 1235.132813 655.96875 1240.394531 651.652344 1244.710938 C 647.328125 1249.03125 642.070313 1251.191406 635.871094 1251.191406 C 629.671875 1251.191406 624.414063 1249.03125 620.09375 1244.710938 C 615.769531 1240.394531 613.613281 1235.132813 613.613281 1228.933594 L 613.613281 1160.179688 C 613.613281 1151.726563 611.78125 1145.242188 608.117188 1140.734375 C 604.453125 1136.226563 599.617188 1133.972656 593.605469 1133.972656 C 590.035156 1133.972656 586.703125 1134.773438 583.601563 1136.367188 C 580.503906 1137.964844 577.824219 1140.128906 575.570313 1142.847656 C 573.316406 1145.574219 571.578125 1148.722656 570.359375 1152.285156 C 569.132813 1155.855469 568.523438 1159.710938 568.523438 1163.839844 "/>
<path style=" stroke:none;fill-rule:nonzero;fill:rgb(84.764099%,18.821716%,29.80957%);fill-opacity:1;" d="M 390.289063 1110.960938 C 396.507813 1110.960938 401.871094 1113.273438 406.382813 1117.894531 C 410.40625 1122.019531 412.550781 1127.632813 412.550781 1133.398438 L 412.550781 1229.027344 C 412.550781 1235.042969 410.390625 1240.207031 406.070313 1244.523438 C 401.746094 1248.851563 396.582031 1251.007813 390.574219 1251.007813 C 387.003906 1251.007813 379.058594 1249.039063 375.699219 1243.265625 C 372.699219 1238.113281 365.808594 1237.042969 361.585938 1241.253906 C 358.808594 1244.019531 355.792969 1246.523438 352.53125 1247.484375 C 345.207031 1249.644531 338.628906 1250.726563 332.808594 1250.726563 C 313.457031 1250.726563 299.355469 1243.867188 285.644531 1230.15625 C 271.929688 1216.441406 265.074219 1199.910156 265.074219 1180.5625 C 265.074219 1161.214844 271.929688 1144.730469 285.644531 1131.105469 C 299.355469 1117.492188 313.457031 1110.679688 332.808594 1110.679688 C 338.628906 1110.679688 345.25 1111.761719 352.671875 1113.921875 C 356.023438 1114.898438 359.117188 1116.96875 361.949219 1119.242188 C 366.460938 1122.859375 372.976563 1121.828125 376.332031 1117.121094 C 379.96875 1112.023438 386.722656 1110.960938 390.289063 1110.960938 "/>
<path style=" stroke:none;fill-rule:nonzero;fill:rgb(100%,100%,100%);fill-opacity:1;" d="M 307.273438 1180.703125 C 307.273438 1186.339844 307.929688 1191.507813 309.246094 1196.199219 C 310.558594 1200.898438 312.347656 1205.03125 314.601563 1208.597656 C 316.855469 1212.171875 319.527344 1214.9375 322.628906 1216.910156 C 325.730469 1218.882813 329.0625 1219.871094 332.632813 1219.871094 C 336.199219 1219.871094 339.535156 1218.882813 342.636719 1216.910156 C 345.734375 1214.9375 348.414063 1212.171875 350.667969 1208.597656 C 352.921875 1205.03125 354.703125 1200.898438 356.019531 1196.199219 C 357.335938 1191.507813 357.996094 1186.339844 357.996094 1180.703125 C 357.996094 1175.066406 357.335938 1169.902344 356.019531 1165.203125 C 354.703125 1160.511719 352.921875 1156.425781 350.667969 1152.945313 C 348.414063 1149.472656 345.734375 1146.75 342.636719 1144.773438 C 339.535156 1142.804688 336.199219 1141.816406 332.632813 1141.816406 C 329.0625 1141.816406 325.730469 1142.804688 322.628906 1144.773438 C 319.527344 1146.75 316.855469 1149.472656 314.601563 1152.945313 C 312.347656 1156.425781 310.558594 1160.511719 309.246094 1165.203125 C 307.929688 1169.902344 307.273438 1175.066406 307.273438 1180.703125 "/>
</g>
</svg>
