<?xml version="1.0" encoding="UTF-8"?>
<svg xmlns="http://www.w3.org/2000/svg" xmlns:xlink="http://www.w3.org/1999/xlink" width="750pt" height="1334pt" viewBox="0 0 750 1334" version="1.1">
<g id="surface1">
<path style=" stroke:none;fill-rule:nonzero;fill:rgb(26.660156%,47.851563%,52.929688%);fill-opacity:1;" d="M 508.621094 982.304688 C 498.945313 936.785156 488.722656 889.425781 461.679688 850.578125 C 448.976563 832.324219 432.832031 817.535156 416.027344 803.390625 C 416.445313 801.804688 416.867188 800.21875 417.28125 798.628906 C 423.082031 776.320313 425.128906 754.433594 419.441406 731.902344 C 418.234375 727.113281 416.792969 722.40625 415.226563 717.738281 C 415.277344 717.664063 415.328125 717.589844 415.382813 717.515625 C 418.488281 718.796875 421.980469 720.058594 424.773438 719.113281 C 431.101563 716.96875 428.859375 708.023438 426.289063 701.96875 C 426.316406 700.386719 425.519531 698.941406 424.363281 698 C 424.351563 697.976563 424.335938 697.945313 424.320313 697.921875 C 422.914063 695.4375 419.753906 694.101563 417.265625 696.144531 C 414.667969 698.277344 412.203125 700.554688 409.828125 702.929688 C 405.910156 692.804688 401.734375 682.769531 398.144531 672.539063 C 397.878906 671.777344 397.636719 671.015625 397.378906 670.253906 C 401.769531 671.152344 406.164063 672.050781 410.5625 672.910156 C 414.777344 673.734375 416.769531 668.527344 414.71875 665.507813 C 411.449219 660.699219 409.015625 655.710938 407.066406 650.246094 C 405.828125 646.773438 401.285156 646.894531 399.1875 649.308594 C 397.132813 651.671875 395.230469 654.125 393.402344 656.625 C 387.972656 634.503906 387.421875 611.992188 393.171875 589.316406 C 393.652344 587.410156 390.605469 587.070313 390.128906 588.953125 C 384.378906 611.644531 384.363281 635.179688 390.375 657.824219 C 390.527344 658.410156 390.71875 658.988281 390.882813 659.574219 C 387.410156 658.855469 383.9375 658.132813 380.460938 657.421875 C 379.179688 657.160156 378.078125 657.566406 377.214844 658.28125 C 375.992188 658.6875 374.960938 659.507813 374.40625 660.796875 C 371.960938 666.496094 378.652344 673.921875 381.617188 678.429688 C 382.242188 679.378906 383.023438 679.910156 383.847656 680.140625 C 386.019531 681.578125 389.464844 681.433594 390.933594 678.378906 C 392.070313 676.027344 393.300781 673.746094 394.59375 671.511719 C 398.453125 682.785156 403.050781 693.796875 407.320313 704.929688 C 403.851563 703.859375 400.359375 702.917969 396.769531 702.332031 C 394.484375 701.957031 391.71875 703.9375 391.664063 706.351563 C 391.484375 713.933594 397.78125 721.675781 401.589844 727.980469 C 403.585938 731.289063 408.007813 729.496094 409.453125 726.875 C 410.578125 724.832031 411.78125 722.835938 413.046875 720.878906 C 420.902344 745.234375 421.492188 768.65625 415.417969 793.628906 C 414.796875 796.179688 414.140625 798.71875 413.476563 801.253906 C 400.953125 790.792969 388.148438 780.605469 376.183594 769.558594 C 379.203125 768.722656 382.222656 767.886719 385.242188 767.050781 C 389.09375 765.988281 390.476563 761.605469 387.324219 758.84375 C 383.507813 755.496094 380.066406 751.875 376.824219 747.988281 C 375.261719 744.398438 369.160156 744.171875 368.183594 748.5 C 367.90625 749.148438 367.800781 749.855469 367.890625 750.585938 C 367.566406 753.828125 367.117188 757.035156 366.578125 760.222656 C 363.140625 756.726563 359.773438 753.160156 356.574219 749.417969 C 355.296875 747.921875 354.046875 746.398438 352.8125 744.859375 C 356.347656 744.390625 359.800781 743.59375 363.039063 741.933594 C 365.320313 740.761719 366.355469 738.332031 365.417969 735.886719 C 364.160156 732.59375 361.90625 730.523438 359.40625 728.65625 C 357.554688 725.777344 355.019531 723.214844 353.03125 721.753906 C 350.546875 719.925781 347.269531 720.992188 346.003906 723.683594 C 344.898438 726.035156 343.792969 728.390625 342.6875 730.742188 C 331.882813 713.765625 324.691406 694.703125 324.914063 674.15625 C 324.933594 672.207031 321.890625 671.824219 321.871094 673.792969 C 321.632813 696.179688 329.371094 716.148438 341.171875 733.96875 C 340.894531 734.5625 340.613281 735.160156 340.335938 735.753906 C 335.53125 736.128906 330.730469 736.550781 325.953125 737.222656 C 325.128906 737.335938 324.449219 737.75 323.863281 738.273438 C 322.066406 739.339844 320.820313 741.460938 321.675781 743.972656 C 323.777344 750.171875 328.820313 756.3125 332.777344 761.441406 C 334.824219 764.089844 339.480469 763.617188 340.644531 760.335938 C 341.015625 759.289063 341.460938 758.171875 341.925781 757.019531 C 342.230469 756.675781 342.527344 756.296875 342.816406 755.871094 C 344.886719 752.796875 346.179688 748.96875 347.5 745.386719 C 348.117188 745.347656 348.730469 745.28125 349.34375 745.234375 C 354.285156 751.476563 359.679688 757.414063 365.304688 763.101563 C 360.789063 764.347656 356.277344 765.597656 351.765625 766.847656 C 348.722656 767.6875 346.292969 771.378906 348.84375 774.230469 C 352.902344 778.769531 357.085938 783.15625 361.429688 787.425781 C 363.703125 789.660156 368.019531 789.929688 369.292969 786.320313 C 371.046875 781.347656 372.472656 776.316406 373.6875 771.242188 C 378.175781 775.421875 382.742188 779.457031 387.3125 783.328125 C 395.679688 790.410156 404.234375 797.308594 412.652344 804.359375 C 407.203125 824.695313 400.785156 844.6875 397.347656 865.570313 C 393.011719 891.871094 392.65625 918.765625 399.816406 944.609375 C 400.335938 946.484375 403.371094 946.054688 402.84375 944.152344 C 389.796875 897.035156 403.144531 851.9375 415.207031 806.503906 C 425.621094 815.3125 435.761719 824.417969 444.941406 834.535156 C 462.179688 853.53125 474.550781 875.972656 483.535156 899.902344 C 493.597656 926.71875 499.652344 954.8125 505.59375 982.765625 C 506 984.683594 509.03125 984.242188 508.621094 982.304688 "/>
<path style=" stroke:none;fill-rule:nonzero;fill:rgb(38.426208%,63.867188%,70.896912%);fill-opacity:1;" d="M 440.773438 499.847656 C 442.5625 495.9375 447.332031 489.203125 448.269531 485.648438 C 449.070313 482.597656 449.097656 480.109375 448.636719 477.925781 C 446.371094 474.121094 443.996094 470.371094 441.785156 466.53125 C 441.652344 466.300781 441.503906 466.082031 441.363281 465.855469 C 441.046875 465.417969 440.730469 464.972656 440.421875 464.507813 C 440.296875 464.316406 440.199219 464.121094 440.113281 463.925781 C 439.613281 463.246094 439.117188 462.566406 438.675781 461.910156 L 437.445313 460.078125 C 435.007813 456.757813 432.503906 453.46875 430.59375 449.871094 L 415.21875 426.960938 L 373.828125 365.292969 C 372.9375 363.496094 372.007813 361.695313 370.582031 360.324219 C 369.796875 359.566406 368.449219 359.597656 367.511719 359.957031 C 364.828125 360.992188 363.585938 365.128906 362.304688 367.433594 C 360.765625 370.199219 359.230469 372.96875 357.6875 375.734375 C 357.597656 375.867188 357.480469 375.972656 357.390625 376.109375 C 357.097656 376.394531 356.84375 376.726563 356.644531 377.105469 C 356.175781 377.976563 355.714844 378.851563 355.246094 379.722656 C 355.113281 379.972656 355.050781 380.238281 355.019531 380.507813 C 347.09375 395.542969 339.457031 410.722656 332.207031 426.09375 C 321.25 447.214844 310.640625 468.515625 300.371094 489.988281 C 299.671875 491.144531 299.113281 492.304688 298.6875 493.46875 C 297.921875 495.074219 297.121094 496.664063 296.359375 498.273438 C 295.964844 499.117188 295.984375 499.875 296.261719 500.507813 C 296.257813 500.542969 296.261719 500.574219 296.257813 500.609375 C 296.175781 500.945313 296.042969 501.265625 295.988281 501.609375 C 295.828125 502.609375 296.113281 503.390625 296.628906 503.945313 C 297.339844 506.441406 298.894531 508.90625 300.46875 511.171875 C 304.222656 518.941406 310.9375 526.210938 316.503906 532.070313 C 339.695313 556.480469 362.9375 580.847656 386.15625 605.238281 C 387.734375 606.898438 390.410156 606.746094 391.398438 604.503906 C 401.679688 581.152344 412.519531 558.0625 424.046875 535.300781 C 425.402344 532.628906 426.796875 529.976563 428.167969 527.316406 C 431.277344 517.859375 436.648438 508.867188 440.773438 499.847656 "/>
<path style=" stroke:none;fill-rule:nonzero;fill:rgb(47.459412%,70.896912%,78.90625%);fill-opacity:1;" d="M 327.097656 684.164063 C 326.125 673.867188 324.730469 663.617188 323.242188 653.378906 C 323.242188 653.371094 323.246094 653.363281 323.246094 653.355469 C 322.539063 646.191406 321.640625 639.042969 320.683594 631.902344 C 320.539063 622.050781 320.546875 612.199219 320.394531 602.347656 C 320.238281 591.949219 319.910156 581.550781 318.976563 571.1875 C 318.210938 562.644531 318.578125 548.875 313.636719 541.195313 C 311.253906 537.488281 307.132813 535.527344 303.414063 533.414063 C 291.691406 526.75 279.269531 521.6875 267.683594 514.699219 C 249.929688 503.988281 233.359375 492.121094 213.632813 485.199219 C 213.273438 485.074219 212.941406 485.0625 212.613281 485.058594 C 211.011719 484.699219 209.074219 485.414063 208.691406 487.5 C 203.726563 514.328125 199.191406 541.234375 195.191406 568.226563 C 193.550781 579.308594 189.914063 591.785156 190.324219 602.964844 C 190.578125 609.84375 192.515625 610.601563 197.929688 614.714844 C 230.0625 639.121094 267.851563 654.886719 302.824219 674.9375 C 304.046875 675.816406 305.261719 676.6875 306.476563 677.535156 C 307.335938 678.132813 308.308594 678.527344 309.324219 678.738281 C 313.449219 681.199219 317.542969 683.714844 321.558594 686.34375 C 321.597656 686.398438 321.625 686.460938 321.660156 686.515625 C 323.484375 689.226563 327.363281 686.976563 327.097656 684.164063 "/>
<path style=" stroke:none;fill-rule:nonzero;fill:rgb(38.426208%,63.867188%,70.896912%);fill-opacity:1;" d="M 244.679688 576.390625 C 246.707031 578.476563 243.425781 581.601563 241.390625 579.503906 C 238.15625 576.171875 233.335938 575.179688 229.226563 577.570313 C 225.046875 580 224.109375 584.96875 223.269531 589.339844 C 222.714844 592.207031 218.359375 590.953125 218.90625 588.113281 C 220.144531 581.703125 222.296875 575.445313 228.789063 572.753906 C 234.390625 570.433594 240.539063 572.125 244.679688 576.390625 "/>
<path style=" stroke:none;fill-rule:nonzero;fill:rgb(38.426208%,63.867188%,70.896912%);fill-opacity:1;" d="M 289.675781 556.761719 C 291.953125 558.523438 289.640625 562.421875 287.335938 560.636719 C 283.675781 557.800781 279.355469 554.503906 274.578125 556.832031 C 270.046875 559.035156 268.339844 564.207031 267.75 568.863281 C 267.386719 571.730469 262.855469 571.6875 263.222656 568.800781 C 264.023438 562.488281 266.359375 555.902344 272.410156 552.855469 C 278.738281 549.664063 284.582031 552.8125 289.675781 556.761719 "/>
<path style=" stroke:none;fill-rule:nonzero;fill:rgb(38.426208%,63.867188%,70.896912%);fill-opacity:1;" d="M 274.132813 599.238281 C 272.929688 596.976563 270.207031 596.164063 268.039063 597.585938 C 266.269531 598.742188 265.613281 601.238281 266.46875 603.140625 C 266.8125 603.914063 267.621094 604.449219 268.457031 604.5 C 269.550781 605.125 270.921875 605.253906 272.152344 604.765625 C 274.347656 603.902344 275.234375 601.304688 274.132813 599.238281 "/>
<path style=" stroke:none;fill-rule:nonzero;fill:rgb(93.75%,89.451599%,91.796875%);fill-opacity:1;" d="M 291.878906 574.507813 C 288.171875 573.625 284.3125 574.816406 282.363281 578.269531 C 280.902344 580.867188 282.460938 583.429688 284.570313 584.339844 C 285.496094 585.070313 286.671875 585.46875 287.832031 585.132813 C 290.480469 584.367188 292.550781 583.003906 294.058594 580.652344 C 295.394531 578.570313 294.5 575.132813 291.878906 574.507813 "/>
<path style=" stroke:none;fill-rule:nonzero;fill:rgb(93.75%,89.451599%,91.796875%);fill-opacity:1;" d="M 244.105469 598.71875 C 240.402344 597.839844 236.542969 599.03125 234.59375 602.484375 C 233.128906 605.078125 234.691406 607.640625 236.796875 608.550781 C 237.726563 609.28125 238.898438 609.679688 240.058594 609.34375 C 242.710938 608.578125 244.777344 607.214844 246.285156 604.867188 C 247.625 602.78125 246.730469 599.34375 244.105469 598.71875 "/>
<path style=" stroke:none;fill-rule:nonzero;fill:rgb(47.459412%,70.896912%,78.90625%);fill-opacity:1;" d="M 431.023438 476.921875 C 412.558594 480.859375 393.929688 483.957031 375.203125 486.222656 C 373.863281 464.367188 373.222656 442.449219 372.871094 420.496094 C 372.617188 404.8125 372.421875 389.128906 372.199219 373.441406 C 372.136719 368.929688 365.070313 368.027344 365.132813 372.601563 C 365.667969 410.710938 365.671875 448.972656 367.929688 487.058594 C 348.601563 489.171875 329.171875 490.398438 309.710938 490.714844 C 305.152344 490.789063 306.253906 497.824219 310.777344 497.753906 C 330.03125 497.441406 349.253906 496.234375 368.378906 494.164063 C 369.335938 508.378906 370.625 522.570313 372.402344 536.71875 C 374.328125 552.03125 376.8125 567.269531 379.8125 582.40625 C 380.699219 586.878906 387.742188 585.851563 386.847656 581.339844 C 381.074219 552.1875 377.691406 522.820313 375.671875 493.332031 C 394.597656 491.058594 413.425781 487.9375 432.089844 483.957031 C 436.542969 483.007813 435.519531 475.960938 431.023438 476.921875 "/>
<path style=" stroke:none;fill-rule:nonzero;fill:rgb(26.660156%,47.851563%,52.929688%);fill-opacity:1;" d="M 101.40625 61 C 109.53125 61 116.382813 63.390625 121.953125 68.160156 C 127.523438 72.941406 130.3125 78.808594 130.3125 85.769531 L 130.3125 136.539063 C 130.3125 142.199219 137.199219 144.988281 141.136719 140.921875 L 211.804688 67.859375 C 216.445313 63.289063 222.363281 61 229.5625 61 C 236.527344 61 242.21875 63.140625 246.628906 67.421875 C 251.035156 71.699219 253.246094 76.421875 253.246094 81.589844 C 253.246094 83.789063 252.777344 86.019531 251.851563 88.308594 C 250.921875 90.601563 249.414063 92.738281 247.324219 94.730469 L 200.550781 135.828125 C 193.164063 142.320313 191.894531 153.339844 197.609375 161.339844 L 260.90625 249.929688 C 263.222656 253.320313 264.390625 257 264.390625 260.96875 C 264.390625 266.941406 261.890625 272.269531 256.902344 276.941406 C 251.90625 281.621094 245.582031 283.960938 237.921875 283.960938 C 233.046875 283.960938 228.574219 282.910156 224.515625 280.820313 C 220.449219 278.730469 217.140625 276 214.589844 272.621094 L 160.390625 186.710938 C 157.730469 182.488281 151.753906 182.058594 148.507813 185.839844 L 141.714844 193.761719 C 135.019531 200.929688 130.3125 207.691406 130.3125 216.699219 L 130.3125 259.179688 C 130.3125 266.148438 127.523438 272.019531 121.953125 276.789063 C 116.382813 281.570313 109.53125 283.960938 101.40625 283.960938 C 93.277344 283.960938 86.433594 281.570313 80.859375 276.789063 C 75.289063 272.019531 72.503906 266.148438 72.503906 259.179688 L 72.503906 85.769531 C 72.503906 78.808594 75.289063 72.941406 80.859375 68.160156 C 86.433594 63.390625 93.277344 61 101.40625 61 "/>
<path style=" stroke:none;fill-rule:nonzero;fill:rgb(47.459412%,70.896912%,78.90625%);fill-opacity:1;" d="M 132.070313 1037.335938 C 139.816406 1037.335938 146.351563 1039.613281 151.664063 1044.167969 C 156.976563 1048.722656 159.636719 1054.320313 159.636719 1060.964844 L 159.636719 1109.378906 C 159.636719 1114.777344 166.207031 1117.4375 169.960938 1113.554688 L 237.355469 1043.882813 C 241.78125 1039.519531 247.425781 1037.335938 254.292969 1037.335938 C 260.933594 1037.335938 266.359375 1039.378906 270.566406 1043.453125 C 274.773438 1047.539063 276.878906 1052.042969 276.878906 1056.976563 C 276.878906 1059.066406 276.433594 1061.203125 275.550781 1063.382813 C 274.664063 1065.566406 273.226563 1067.605469 271.234375 1069.503906 L 226.621094 1108.703125 C 219.582031 1114.890625 218.371094 1125.40625 223.820313 1133.03125 L 284.183594 1217.523438 C 286.394531 1220.75 287.507813 1224.261719 287.507813 1228.054688 C 287.507813 1233.746094 285.125 1238.828125 280.367188 1243.285156 C 275.601563 1247.738281 269.570313 1249.972656 262.265625 1249.972656 C 257.617188 1249.972656 253.351563 1248.976563 249.476563 1246.984375 C 245.601563 1244.992188 242.445313 1242.386719 240.011719 1239.15625 L 188.324219 1157.226563 C 185.789063 1153.203125 180.082031 1152.785156 176.988281 1156.394531 L 170.507813 1163.953125 C 164.125 1170.792969 159.636719 1177.238281 159.636719 1185.832031 L 159.636719 1226.347656 C 159.636719 1232.992188 156.976563 1238.585938 151.664063 1243.140625 C 146.351563 1247.695313 139.816406 1249.972656 132.070313 1249.972656 C 124.316406 1249.972656 117.789063 1247.695313 112.472656 1243.140625 C 107.160156 1238.585938 104.503906 1232.992188 104.503906 1226.347656 L 104.503906 1060.964844 C 104.503906 1054.320313 107.160156 1048.722656 112.472656 1044.167969 C 117.789063 1039.613281 124.316406 1037.335938 132.070313 1037.335938 "/>
<path style=" stroke:none;fill-rule:nonzero;fill:rgb(47.459412%,70.896912%,78.90625%);fill-opacity:1;" d="M 591.945313 1164.230469 C 598.464844 1164.230469 603.222656 1157.726563 600.882813 1151.644531 C 600.867188 1151.605469 600.851563 1151.566406 600.839844 1151.527344 C 599.3125 1147.628906 597.363281 1144.25 594.984375 1141.394531 C 592.601563 1138.542969 589.890625 1136.308594 586.851563 1134.6875 C 583.804688 1133.074219 580.570313 1132.261719 577.148438 1132.261719 C 573.722656 1132.261719 570.484375 1133.074219 567.445313 1134.6875 C 564.398438 1136.308594 561.6875 1138.542969 559.308594 1141.394531 C 556.925781 1144.25 555.070313 1147.628906 553.742188 1151.527344 C 553.6875 1151.691406 553.632813 1151.855469 553.578125 1152.023438 C 551.617188 1158.058594 556.300781 1164.230469 562.648438 1164.230469 Z M 610.824219 1206.183594 C 615.582031 1206.183594 619.71875 1207.996094 623.238281 1211.605469 C 626.761719 1215.222656 628.519531 1219.503906 628.519531 1224.449219 C 628.519531 1227.117188 627.710938 1229.871094 626.09375 1232.726563 C 624.476563 1235.582031 621.480469 1238.339844 617.101563 1241.003906 C 612.347656 1244.050781 606.589844 1246.519531 599.839844 1248.421875 C 593.082031 1250.324219 586.089844 1251.277344 578.859375 1251.277344 C 569.726563 1251.277344 560.878906 1249.566406 552.316406 1246.140625 C 543.757813 1242.714844 536.144531 1237.71875 529.484375 1231.15625 C 522.824219 1224.589844 517.496094 1216.558594 513.503906 1207.039063 C 509.507813 1197.527344 507.507813 1186.683594 507.507813 1174.503906 C 507.507813 1162.898438 509.363281 1152.339844 513.074219 1142.824219 C 516.785156 1133.3125 521.777344 1125.175781 528.058594 1118.421875 C 534.339844 1111.667969 541.707031 1106.484375 550.175781 1102.867188 C 558.640625 1099.253906 567.632813 1097.445313 577.148438 1097.445313 C 587.609375 1097.445313 597.21875 1099.585938 605.972656 1103.863281 C 614.722656 1108.144531 622.144531 1113.667969 628.234375 1120.417969 C 634.320313 1127.175781 639.082031 1134.6875 642.507813 1142.964844 C 645.929688 1151.246094 647.640625 1159.378906 647.640625 1167.371094 C 647.640625 1175.929688 645.929688 1182.164063 642.507813 1186.0625 C 639.082031 1189.964844 634.894531 1191.914063 629.949219 1191.914063 L 562.289063 1191.914063 C 554.757813 1191.914063 552.632813 1200.285156 557.464844 1206.058594 C 561.273438 1210.605469 568.398438 1216.460938 579.429688 1216.460938 C 583.042969 1216.460938 586.660156 1215.84375 590.277344 1214.605469 C 593.886719 1213.367188 597.125 1211.796875 599.980469 1209.894531 C 603.78125 1207.421875 607.402344 1206.183594 610.824219 1206.183594 "/>
<path style=" stroke:none;fill-rule:nonzero;fill:rgb(47.459412%,70.896912%,78.90625%);fill-opacity:1;" d="M 341.960938 1251.199219 C 335.683594 1251.199219 330.351563 1249.007813 325.976563 1244.632813 C 321.597656 1240.257813 319.414063 1234.929688 319.414063 1228.648438 L 319.414063 1119.910156 C 319.414063 1113.632813 321.597656 1108.304688 325.976563 1103.929688 C 330.351563 1099.554688 335.683594 1097.363281 341.960938 1097.363281 C 348.238281 1097.363281 353.5625 1099.554688 357.941406 1103.929688 C 362.316406 1108.304688 364.507813 1113.632813 364.507813 1119.910156 L 364.507813 1228.648438 C 364.507813 1234.929688 362.316406 1240.257813 357.941406 1244.632813 C 353.5625 1249.007813 348.238281 1251.199219 341.960938 1251.199219 M 317.414063 1062.828125 C 317.414063 1059.402344 318.078125 1056.21875 319.414063 1053.269531 C 320.742188 1050.320313 322.503906 1047.703125 324.695313 1045.421875 C 326.878906 1043.136719 329.496094 1041.328125 332.542969 1039.996094 C 335.582031 1038.667969 338.820313 1038 342.246094 1038 C 345.671875 1038 348.855469 1038.667969 351.808594 1039.996094 C 354.753906 1041.328125 357.324219 1043.136719 359.511719 1045.421875 C 361.699219 1047.703125 363.460938 1050.320313 364.792969 1053.269531 C 366.121094 1056.21875 366.789063 1059.402344 366.789063 1062.828125 C 366.789063 1066.253906 366.121094 1069.441406 364.792969 1072.390625 C 363.460938 1075.34375 361.699219 1077.910156 359.511719 1080.09375 C 357.324219 1082.285156 354.753906 1084.050781 351.808594 1085.378906 C 348.855469 1086.710938 345.671875 1087.375 342.246094 1087.375 C 338.820313 1087.375 335.582031 1086.710938 332.542969 1085.378906 C 329.496094 1084.050781 326.878906 1082.285156 324.695313 1080.09375 C 322.503906 1077.910156 320.742188 1075.34375 319.414063 1072.390625 C 318.078125 1069.441406 317.414063 1066.253906 317.414063 1062.828125 "/>
<path style=" stroke:none;fill-rule:nonzero;fill:rgb(26.660156%,47.851563%,52.929688%);fill-opacity:1;" d="M 318.964844 60.648438 C 325.546875 60.648438 331.128906 62.941406 335.722656 67.53125 C 340.3125 72.121094 342.605469 77.699219 342.605469 84.289063 L 342.605469 164.53125 C 342.605469 169.011719 348.035156 171.230469 351.171875 168.03125 L 390.1875 128.28125 C 393.375 124.691406 397.566406 122.890625 402.753906 122.890625 C 407.941406 122.890625 412.132813 124.691406 415.324219 128.28125 C 418.515625 131.871094 420.113281 135.960938 420.113281 140.550781 C 420.113281 145.140625 418.414063 149.128906 415.027344 152.519531 L 386.722656 181.570313 C 383.324219 185.050781 382.804688 190.429688 385.464844 194.511719 L 424.304688 253.96875 C 426.496094 257.359375 427.597656 260.949219 427.597656 264.738281 C 427.597656 269.730469 425.800781 274.21875 422.207031 278.210938 C 418.617188 282.199219 413.925781 284.191406 408.144531 284.191406 C 404.746094 284.191406 401.558594 283.339844 398.566406 281.648438 C 395.574219 279.949219 393.179688 277.710938 391.386719 274.921875 L 358.585938 222.28125 C 356.414063 218.789063 351.523438 218.328125 348.730469 221.328125 C 344.792969 225.578125 342.605469 231.148438 342.605469 236.941406 L 342.605469 260.550781 C 342.605469 267.140625 340.3125 272.71875 335.722656 277.308594 C 331.128906 281.898438 325.546875 284.191406 318.964844 284.191406 C 312.382813 284.191406 306.792969 281.898438 302.207031 277.308594 C 297.613281 272.71875 295.324219 267.140625 295.324219 260.550781 L 295.324219 84.289063 C 295.324219 77.699219 297.613281 72.121094 302.207031 67.53125 C 306.792969 62.941406 312.382813 60.648438 318.964844 60.648438 "/>
<path style=" stroke:none;fill-rule:nonzero;fill:rgb(47.459412%,70.896912%,78.90625%);fill-opacity:1;" d="M 396.015625 1128.148438 C 392.980469 1125.191406 391.589844 1121.398438 391.589844 1117.019531 C 391.589844 1112.644531 393.015625 1108.929688 396.015625 1106.03125 C 397.894531 1104.214844 400.578125 1103.144531 403.039063 1102.511719 C 406.761719 1101.558594 409.289063 1098.101563 409.289063 1094.261719 L 409.289063 1076.203125 C 409.289063 1069.925781 411.472656 1064.601563 415.851563 1060.222656 C 420.226563 1055.847656 425.554688 1053.65625 431.835938 1053.65625 C 438.113281 1053.65625 443.4375 1055.847656 447.820313 1060.222656 C 452.191406 1064.601563 454.382813 1069.925781 454.382813 1076.203125 L 454.382813 1093.03125 C 454.382813 1097.765625 458.222656 1101.605469 462.960938 1101.605469 L 474.074219 1101.605469 C 478.453125 1101.605469 482.160156 1103.082031 485.203125 1106.03125 C 488.246094 1108.984375 489.773438 1112.644531 489.773438 1117.019531 C 489.773438 1121.398438 488.246094 1125.105469 485.203125 1128.148438 C 482.160156 1131.195313 478.453125 1132.714844 474.074219 1132.714844 L 462.960938 1132.714844 C 458.222656 1132.714844 454.382813 1136.554688 454.382813 1141.289063 L 454.382813 1205.207031 C 454.382813 1209.015625 454.761719 1211.628906 455.523438 1213.058594 C 456.28125 1214.484375 457.996094 1215.199219 460.660156 1215.199219 L 468.9375 1215.199219 C 473.882813 1215.199219 478.070313 1216.910156 481.496094 1220.335938 C 484.921875 1223.757813 486.632813 1227.945313 486.632813 1232.894531 C 486.632813 1237.84375 484.921875 1241.980469 481.496094 1245.308594 C 478.070313 1248.632813 473.882813 1250.300781 468.9375 1250.300781 L 449.53125 1250.300781 C 436.78125 1250.300781 426.886719 1247.164063 419.847656 1240.882813 C 412.804688 1234.605469 409.289063 1224.523438 409.289063 1210.628906 L 409.289063 1140.296875 C 409.289063 1136.40625 406.664063 1133.058594 402.921875 1132.015625 C 400.664063 1131.386719 398.15625 1130.234375 396.015625 1128.148438 "/>
</g>
</svg>
