<?xml version="1.0" encoding="UTF-8"?>
<svg xmlns="http://www.w3.org/2000/svg" xmlns:xlink="http://www.w3.org/1999/xlink" width="750pt" height="1334pt" viewBox="0 0 750 1334" version="1.1">
<defs>
<clipPath id="clip1">
  <path d="M 344.398438 377.796875 L 612.308594 377.796875 L 612.308594 645.957031 L 344.398438 645.957031 Z M 344.398438 377.796875 "/>
</clipPath>
<filter id="alpha" filterUnits="objectBoundingBox" x="0%" y="0%" width="100%" height="100%">
  <feColorMatrix type="matrix" in="SourceGraphic" values="0 0 0 0 1 0 0 0 0 1 0 0 0 0 1 0 0 0 1 0"/>
</filter>
<mask id="mask0">
  <g filter="url(#alpha)">
<rect x="0" y="0" width="750" height="1334" style="fill:rgb(0%,0%,0%);fill-opacity:0.309998;stroke:none;"/>
  </g>
</mask>
<clipPath id="clip3">
  <path d="M 0.398438 0.796875 L 268.308594 0.796875 L 268.308594 268.957031 L 0.398438 268.957031 Z M 0.398438 0.796875 "/>
</clipPath>
<clipPath id="clip2">
  <rect width="269" height="269"/>
</clipPath>
<g id="surface7" clip-path="url(#clip2)">
<g clip-path="url(#clip3)" clip-rule="nonzero">
<path style=" stroke:none;fill-rule:nonzero;fill:rgb(86.71875%,43.530273%,70.117188%);fill-opacity:1;" d="M 228.527344 54.085938 C 216.90625 40.058594 201.980469 28.203125 184.597656 22.269531 C 167.238281 16.347656 148.519531 16.207031 130.75 20.355469 C 110.011719 25.199219 91.019531 35.835938 74.324219 48.851563 C 59.472656 60.429688 45.621094 73.882813 36.089844 90.261719 C 15.53125 125.570313 25.160156 167.757813 47.015625 199.964844 C 57.667969 215.660156 71.492188 233.328125 89.339844 241.128906 C 107.453125 249.046875 129.582031 247.964844 148.601563 244.484375 C 167.90625 240.953125 188.984375 234.792969 204.765625 222.699219 C 219.777344 211.199219 230.179688 192.730469 237.027344 175.386719 C 244.542969 156.351563 243.835938 137.699219 236.390625 118.742188 C 229.429688 101.03125 220.335938 81.851563 207.339844 67.742188 C 182.707031 41.003906 141.519531 40.640625 110.230469 55.074219 C 79.675781 69.167969 50.183594 100.980469 50.519531 136.507813 C 50.703125 156.394531 61.734375 176.585938 72.695313 192.59375 C 83.371094 208.183594 97.476563 222.113281 116.957031 224.710938 C 153.484375 229.585938 194.683594 212.796875 212.050781 179.273438 C 219.683594 164.535156 222.609375 147.105469 219.054688 130.8125 C 215.144531 112.859375 202.980469 97.070313 188.164063 86.53125 C 173.230469 75.90625 156.203125 72.183594 138.367188 76.929688 C 120.71875 81.628906 99.609375 91.160156 89.171875 106.851563 C 69.617188 136.230469 84.503906 180.578125 116.542969 194.046875 C 148.03125 207.28125 186.019531 189.308594 190.558594 154.15625 C 194.734375 121.816406 161.222656 91.949219 129.738281 105.527344 C 114.546875 112.078125 104.238281 127.390625 106.421875 144.191406 C 108.554688 160.582031 122.277344 173.054688 139.007813 172.566406 C 154.3125 172.117188 167.707031 158.203125 165.1875 142.519531 C 162.992188 128.871094 146.839844 120.925781 134.628906 127.683594 C 128.699219 130.96875 124.929688 137.898438 126.394531 144.6875 C 127.921875 151.75 134.964844 155.390625 141.636719 153.222656 C 146.5625 151.621094 143.742188 144.089844 138.824219 145.6875 C 131.886719 147.941406 134.375 137.894531 137.140625 135.605469 C 139.410156 133.726563 142.535156 133.152344 145.40625 133.378906 C 152.957031 133.972656 158.035156 140.003906 157.378906 147.535156 C 155.886719 164.609375 135.019531 168.816406 123.117188 159.394531 C 110.816406 149.65625 111.960938 130.472656 122.40625 119.9375 C 133.253906 109.003906 150.003906 107.664063 163.167969 114.996094 C 189.9375 129.910156 188.070313 168.023438 163.171875 183.839844 C 150.460938 191.917969 133.613281 192.523438 119.886719 186.730469 C 105.828125 180.796875 95.65625 168.261719 91.089844 153.882813 C 86.429688 139.234375 87.726563 121.523438 97.421875 109.121094 C 107.40625 96.351563 125.867188 88.480469 141.179688 84.46875 C 172.886719 76.160156 206.390625 103.796875 211.683594 134.789063 C 216.914063 165.410156 198.195313 194.621094 171.09375 207.789063 C 156.121094 215.066406 138.816406 218.433594 122.195313 217.183594 C 104.765625 215.871094 92.5625 205.855469 82.351563 192.265625 C 71.980469 178.453125 62.027344 161.042969 59.226563 143.773438 C 56.675781 128.019531 62.398438 112.324219 70.847656 99.183594 C 87.003906 74.042969 114.964844 56.6875 144.78125 53.960938 C 159.234375 52.640625 174.421875 54.625 187.242188 61.757813 C 202.039063 69.992188 211.21875 84.953125 218.6875 99.625 C 226.304688 114.589844 234.589844 130.777344 234.738281 147.953125 C 234.875 164.011719 227.277344 179.28125 219.359375 192.828125 C 209.988281 208.863281 197.71875 219.953125 180.429688 226.929688 C 164.875 233.203125 148.316406 237.386719 131.566406 238.550781 C 114.304688 239.746094 96.078125 238.277344 81.945313 227.347656 C 68.367188 216.847656 57.089844 201.855469 48.402344 187.175781 C 31.355469 158.367188 26.046875 122.535156 43.875 92.796875 C 51.992188 79.253906 63.519531 67.925781 75.699219 58.03125 C 89.742188 46.621094 105.289063 36.882813 122.496094 31.039063 C 153.570313 20.492188 186.445313 25.375 211.140625 47.492188 C 224.214844 59.199219 233.996094 74.191406 241.511719 89.941406 C 248.300781 104.160156 254.117188 119.257813 257.546875 134.667969 C 260.851563 149.523438 261.835938 165.507813 256.945313 180.136719 C 252.066406 194.726563 241.714844 206.503906 230.050781 216.179688 C 215.507813 228.25 203.363281 236.359375 192.996094 242.007813 C 180.535156 248.792969 171.15625 253.902344 157.640625 257.398438 C 149.464844 259.515625 120.578125 266.5625 88.09375 253.902344 C 81.242188 251.234375 67.648438 245.527344 54.699219 233.234375 C 43.667969 222.765625 35.589844 209.492188 27.871094 196.515625 C 20.03125 183.328125 12.546875 169.296875 9.679688 154.070313 C 7.027344 139.992188 9.121094 125.503906 12.800781 111.796875 C 19.449219 87.011719 33.183594 64 51.878906 46.414063 C 76.34375 23.402344 108.863281 10.257813 142.316406 8.820313 C 147.5 8.597656 146.769531 0.578125 141.609375 0.804688 C 80.433594 3.433594 26.023438 44.289063 7.175781 102.640625 C 2.871094 115.980469 -0.113281 130.296875 0.46875 144.382813 C 1.140625 160.640625 7.425781 175.984375 15.042969 190.136719 C 29.84375 217.644531 47.4375 243.882813 76.441406 257.683594 C 100.355469 269.0625 126.949219 271.160156 152.671875 266.945313 C 159.058594 265.015625 165.625 263.714844 171.882813 261.28125 C 174.25 260.363281 176.597656 259.394531 178.941406 258.410156 C 178.945313 258.378906 178.953125 258.347656 178.957031 258.316406 C 185.390625 255.414063 195.007813 250.625 205.78125 243.339844 C 223.132813 231.601563 266.105469 204.992188 268.195313 162.59375 C 269.074219 144.699219 264.675781 126.964844 258.640625 110.242188 C 251.441406 90.292969 242.136719 70.515625 228.527344 54.085938 "/>
</g>
</g>
<clipPath id="clip4">
  <path d="M 138.429688 546.410156 L 322.917969 546.410156 L 322.917969 731.285156 L 138.429688 731.285156 Z M 138.429688 546.410156 "/>
</clipPath>
<mask id="mask1">
  <g filter="url(#alpha)">
<rect x="0" y="0" width="750" height="1334" style="fill:rgb(0%,0%,0%);fill-opacity:0.479996;stroke:none;"/>
  </g>
</mask>
<clipPath id="clip6">
  <path d="M 0.429688 0.410156 L 184.917969 0.410156 L 184.917969 185.285156 L 0.429688 185.285156 Z M 0.429688 0.410156 "/>
</clipPath>
<clipPath id="clip5">
  <rect width="185" height="186"/>
</clipPath>
<g id="surface6" clip-path="url(#clip5)">
<g clip-path="url(#clip6)" clip-rule="nonzero">
<path style=" stroke:none;fill-rule:nonzero;fill:rgb(86.71875%,43.530273%,70.117188%);fill-opacity:1;" d="M 163.160156 42.273438 C 155.9375 31.917969 146.308594 22.878906 134.640625 17.78125 C 122.992188 12.695313 110.074219 11.523438 97.5625 13.371094 C 82.960938 15.527344 69.234375 21.785156 56.957031 29.816406 C 46.035156 36.960938 35.699219 45.460938 28.175781 56.226563 C 11.953125 79.4375 16.183594 109.125 29.433594 132.621094 C 35.894531 144.074219 44.429688 157.070313 56.308594 163.480469 C 68.363281 169.988281 83.710938 170.507813 97.046875 169.195313 C 110.578125 167.859375 125.492188 164.816406 137.085938 157.367188 C 148.109375 150.285156 156.355469 138.125 162.078125 126.539063 C 168.359375 113.820313 168.941406 100.898438 164.886719 87.378906 C 161.09375 74.75 155.910156 60.980469 147.746094 50.492188 C 132.265625 30.609375 103.839844 28.003906 81.398438 36.175781 C 59.492188 44.15625 37.296875 64.4375 35.492188 88.996094 C 34.480469 102.738281 40.941406 117.316406 47.59375 129.003906 C 54.070313 140.382813 63.015625 150.8125 76.320313 153.722656 C 101.269531 159.183594 130.6875 149.949219 144.605469 127.789063 C 150.722656 118.050781 153.742188 106.179688 152.222656 94.722656 C 150.546875 82.101563 143.054688 70.496094 133.425781 62.367188 C 123.71875 54.175781 112.171875 50.628906 99.582031 52.882813 C 87.121094 55.117188 71.996094 60.488281 63.886719 70.726563 C 48.699219 89.898438 56.4375 121.382813 77.796875 132.519531 C 98.78125 143.464844 126.050781 133.230469 131.199219 109.214844 C 135.9375 87.117188 114.503906 64.566406 91.980469 72.140625 C 81.113281 75.796875 73.117188 85.777344 73.664063 97.507813 C 74.195313 108.949219 82.957031 118.351563 94.539063 118.972656 C 105.136719 119.539063 115.183594 110.699219 114.34375 99.71875 C 113.613281 90.171875 102.910156 83.753906 94.089844 87.722656 C 89.804688 89.648438 86.804688 94.222656 87.429688 98.992188 C 88.078125 103.960938 92.734375 106.878906 97.464844 105.765625 C 100.960938 104.941406 99.445313 99.574219 95.957031 100.394531 C 91.035156 101.554688 93.328125 94.757813 95.371094 93.335938 C 97.046875 92.171875 99.234375 91.953125 101.207031 92.273438 C 106.390625 93.117188 109.550781 97.574219 108.664063 102.738281 C 106.65625 114.445313 92.003906 116.152344 84.320313 108.964844 C 76.382813 101.535156 78.273438 88.347656 86.09375 81.671875 C 94.210938 74.742188 105.855469 74.777344 114.527344 80.597656 C 132.160156 92.433594 128.6875 118.648438 110.585938 128.144531 C 101.339844 132.996094 89.671875 132.445313 80.523438 127.660156 C 71.152344 122.753906 64.847656 113.511719 62.515625 103.320313 C 60.140625 92.9375 62.046875 80.78125 69.457031 72.769531 C 77.082031 64.519531 90.285156 60.144531 101.089844 58.253906 C 123.46875 54.332031 145.023438 75.335938 146.902344 97.046875 C 148.757813 118.496094 134.15625 137.597656 114.683594 145.140625 C 103.925781 149.304688 91.777344 150.636719 80.371094 148.824219 C 68.410156 146.921875 60.554688 139.300781 54.28125 129.328125 C 47.910156 119.199219 42.03125 106.601563 41.089844 94.511719 C 40.230469 83.484375 45.085938 72.972656 51.671875 64.382813 C 64.269531 47.945313 84.578125 37.5625 105.328125 37.386719 C 115.386719 37.300781 125.761719 39.546875 134.207031 45.207031 C 143.953125 51.742188 149.4375 62.601563 153.753906 73.160156 C 158.15625 83.9375 162.953125 95.589844 162.070313 107.460938 C 161.246094 118.558594 155.121094 128.671875 148.878906 137.574219 C 141.484375 148.113281 132.375 155.066406 120.035156 158.894531 C 108.933594 162.335938 97.257813 164.273438 85.617188 164.121094 C 73.628906 163.957031 61.125 161.894531 51.988281 153.539063 C 43.214844 145.507813 36.285156 134.507813 31.128906 123.867188 C 21.003906 102.996094 19.390625 77.941406 33.410156 58.425781 C 39.792969 49.539063 48.402344 42.375 57.382813 36.238281 C 67.734375 29.164063 79.03125 23.328125 91.25 20.277344 C 113.316406 14.773438 135.742188 20.03125 151.53125 36.722656 C 159.890625 45.558594 165.785156 56.472656 170.074219 67.785156 C 173.949219 77.992188 177.101563 88.753906 178.585938 99.589844 C 180.015625 110.042969 179.777344 121.136719 175.5625 130.960938 C 171.355469 140.757813 163.53125 148.296875 154.921875 154.3125 C 144.183594 161.816406 135.332031 166.722656 127.847656 170.027344 C 118.855469 174.003906 112.085938 176.992188 102.550781 178.632813 C 96.777344 179.625 76.425781 182.835938 54.714844 172.230469 C 50.136719 169.996094 41.074219 165.273438 32.835938 156.039063 C 25.816406 148.175781 20.996094 138.546875 16.410156 129.140625 C 11.75 119.585938 7.386719 109.464844 6.277344 98.785156 C 5.253906 88.910156 7.53125 79.019531 10.855469 69.765625 C 16.871094 53.027344 27.675781 37.921875 41.59375 26.847656 C 59.8125 12.355469 83.023438 5.144531 106.210938 6.066406 C 109.804688 6.210938 109.761719 0.632813 106.183594 0.488281 C 63.78125 -1.199219 23.859375 23.898438 7.5 63.121094 C 3.757813 72.085938 0.878906 81.804688 0.472656 91.5625 C 0.00390625 102.835938 3.46875 113.789063 7.914063 124.003906 C 16.5625 143.847656 27.210938 162.980469 46.449219 174.171875 C 62.3125 183.402344 80.5625 186.378906 98.570313 184.941406 C 103.089844 183.972656 107.699219 183.453125 112.160156 182.128906 C 113.847656 181.628906 115.527344 181.09375 117.203125 180.550781 C 117.207031 180.53125 117.214844 180.507813 117.21875 180.488281 C 121.828125 178.851563 128.746094 176.09375 136.601563 171.679688 C 149.261719 164.566406 180.464844 148.652344 184.339844 119.492188 C 185.972656 107.183594 183.949219 94.679688 180.738281 82.785156 C 176.910156 68.59375 171.617188 54.402344 163.160156 42.273438 "/>
</g>
</g>
</defs>
<g id="surface1">
<path style=" stroke:none;fill-rule:nonzero;fill:rgb(71.679688%,33.714294%,55.271912%);fill-opacity:1;" d="M 477.417969 515.910156 C 465.238281 514.414063 453.097656 523.550781 450.480469 538.328125 L 377.621094 950.113281 C 375.183594 963.898438 383.089844 978.921875 395.230469 980.414063 C 407.40625 981.90625 419.550781 972.769531 422.164063 957.992188 L 495.023438 546.210938 C 497.464844 532.421875 489.558594 517.398438 477.417969 515.910156 "/>
<path style=" stroke:none;fill-rule:nonzero;fill:rgb(63.867188%,12.939453%,39.598083%);fill-opacity:1;" d="M 614.554688 443.886719 C 592.726563 402.234375 551.210938 374.449219 504.898438 367.234375 C 455.890625 359.597656 400.292969 369.957031 365 406.707031 C 348.878906 423.496094 339.660156 445.46875 333.753906 467.613281 C 328.65625 486.714844 327.785156 507.734375 329.808594 527.332031 C 331.8125 546.710938 336.65625 566.730469 345.445313 584.210938 C 355.601563 604.421875 368.4375 623.585938 387.078125 637.027344 C 399.828125 646.21875 413.90625 653.636719 428.875 658.3125 C 434.8125 660.796875 441.023438 662.796875 447.660156 664.527344 C 457.941406 667.210938 468.503906 667.761719 479.066406 668.199219 C 489.230469 668.621094 499.273438 668.703125 509.367188 667.242188 C 531.464844 664.046875 553.476563 656.984375 571.726563 643.761719 C 591.226563 629.632813 606.324219 609.261719 614.171875 586.507813 C 629.945313 540.773438 637.871094 488.382813 614.554688 443.886719 "/>
<g clip-path="url(#clip1)" clip-rule="nonzero">
<use xlink:href="#surface7" transform="matrix(1,0,0,1,344,377)" mask="url(#mask0)"/>
</g>
<path style=" stroke:none;fill-rule:nonzero;fill:rgb(88.671875%,63.084412%,78.125%);fill-opacity:1;" d="M 482.761719 519.789063 C 472.082031 517.902344 469.128906 534.496094 479.824219 536.386719 C 490.503906 538.277344 493.457031 521.683594 482.761719 519.789063 "/>
<path style=" stroke:none;fill-rule:nonzero;fill:rgb(88.671875%,63.084412%,78.125%);fill-opacity:1;" d="M 430.09375 477.882813 C 418.871094 476.734375 408.867188 484.992188 405.988281 496.179688 C 405.085938 499.6875 410.351563 500.734375 411.246094 497.253906 C 413.492188 488.53125 421.914063 482.148438 430.570313 483.628906 C 439.066406 485.082031 445.003906 493.378906 445.351563 502.167969 C 445.492188 505.808594 450.816406 505.359375 450.675781 501.726563 C 450.210938 489.925781 441.464844 479.039063 430.09375 477.882813 "/>
<path style=" stroke:none;fill-rule:nonzero;fill:rgb(88.671875%,63.084412%,78.125%);fill-opacity:1;" d="M 539.589844 492.636719 C 528.367188 491.492188 518.363281 499.75 515.484375 510.9375 C 514.578125 514.445313 519.84375 515.488281 520.738281 512.007813 C 522.984375 503.289063 531.40625 496.902344 540.0625 498.382813 C 548.5625 499.835938 554.5 508.132813 554.847656 516.921875 C 554.988281 520.5625 560.3125 520.113281 560.167969 516.480469 C 559.703125 504.679688 550.960938 493.796875 539.589844 492.636719 "/>
<path style=" stroke:none;fill-rule:nonzero;fill:rgb(71.679688%,33.714294%,55.271912%);fill-opacity:1;" d="M 246.601563 678.859375 C 238.371094 681.578125 233.121094 689.945313 235.542969 698.566406 L 303.109375 938.867188 C 305.371094 946.914063 314.617188 952.632813 322.816406 949.925781 C 331.046875 947.210938 336.300781 938.839844 333.875 930.21875 L 266.308594 689.917969 C 264.046875 681.871094 254.804688 676.152344 246.601563 678.859375 "/>
<path style=" stroke:none;fill-rule:nonzero;fill:rgb(63.867188%,12.939453%,39.598083%);fill-opacity:1;" d="M 294.175781 551.367188 C 267.503906 531.558594 232.554688 526.613281 200.867188 536.230469 C 167.335938 546.40625 135.128906 570.058594 123.945313 604.273438 C 118.835938 619.90625 119.710938 636.71875 122.742188 652.621094 C 125.363281 666.34375 131.257813 679.988281 138.558594 691.839844 C 145.777344 703.558594 155.003906 714.8125 165.960938 723.242188 C 178.625 732.988281 192.675781 741.246094 208.660156 744.078125 C 219.597656 746.019531 230.832031 746.421875 241.789063 744.804688 C 246.332031 744.5625 250.898438 743.929688 255.65625 742.996094 C 263.023438 741.546875 269.914063 738.65625 276.769531 735.695313 C 283.367188 732.847656 289.785156 729.816406 295.757813 725.789063 C 308.839844 716.976563 320.683594 705.726563 328.242188 691.714844 C 336.316406 676.738281 339.675781 659.140625 337.6875 642.253906 C 333.695313 608.308594 322.664063 572.53125 294.175781 551.367188 "/>
<g clip-path="url(#clip4)" clip-rule="nonzero">
<use xlink:href="#surface6" transform="matrix(1,0,0,1,138,546)" mask="url(#mask1)"/>
</g>
<path style=" stroke:none;fill-rule:nonzero;fill:rgb(88.671875%,63.084412%,78.125%);fill-opacity:1;" d="M 235.734375 634.621094 C 225.246094 631.855469 220.929688 648.148438 231.4375 650.921875 C 241.921875 653.6875 246.238281 637.394531 235.734375 634.621094 "/>
<path style=" stroke:none;fill-rule:nonzero;fill:rgb(88.671875%,63.084412%,78.125%);fill-opacity:1;" d="M 258.738281 618.714844 C 265.800781 615.199219 268.632813 606.582031 266.15625 598.890625 C 265.382813 596.476563 261.878906 597.824219 262.648438 600.21875 C 264.578125 606.214844 261.980469 613.136719 256.308594 615.492188 C 250.742188 617.808594 244.132813 615.121094 240.644531 610.050781 C 239.199219 607.949219 236.21875 610.203125 237.660156 612.300781 C 242.34375 619.105469 251.578125 622.277344 258.738281 618.714844 "/>
<path style=" stroke:none;fill-rule:nonzero;fill:rgb(88.671875%,63.084412%,78.125%);fill-opacity:1;" d="M 188.476563 650.882813 C 195.535156 647.367188 198.371094 638.75 195.894531 631.058594 C 195.121094 628.644531 191.617188 629.992188 192.386719 632.386719 C 194.3125 638.382813 191.71875 645.304688 186.046875 647.660156 C 180.476563 649.976563 173.867188 647.285156 170.378906 642.21875 C 168.9375 640.117188 165.953125 642.371094 167.398438 644.46875 C 172.078125 651.273438 181.3125 654.445313 188.476563 650.882813 "/>
<path style=" stroke:none;fill-rule:nonzero;fill:rgb(63.867188%,12.939453%,39.598083%);fill-opacity:1;" d="M 101.640625 283.878906 C 93.511719 283.878906 86.664063 281.488281 81.09375 276.71875 C 75.523438 271.941406 72.738281 266.078125 72.738281 259.109375 L 72.738281 90.769531 C 72.738281 83.808594 75.523438 77.941406 81.09375 73.160156 C 86.664063 68.390625 93.511719 66 101.640625 66 C 109.765625 66 116.617188 68.390625 122.1875 73.160156 C 127.761719 77.941406 130.546875 83.808594 130.546875 90.769531 L 130.546875 228.539063 C 130.546875 236.519531 137.015625 242.988281 144.996094 242.988281 L 199.152344 242.988281 C 205.882813 242.988281 211.570313 244.980469 216.214844 248.960938 C 220.859375 252.949219 223.179688 257.71875 223.179688 263.289063 C 223.179688 269.058594 220.859375 273.941406 216.214844 277.910156 C 211.570313 281.898438 205.882813 283.878906 199.152344 283.878906 "/>
<path style=" stroke:none;fill-rule:nonzero;fill:rgb(71.679688%,33.714294%,55.271912%);fill-opacity:1;" d="M 91.984375 1249.925781 C 86.574219 1249.925781 82.011719 1248.335938 78.300781 1245.15625 C 74.589844 1241.972656 72.738281 1238.066406 72.738281 1233.425781 L 72.738281 1121.316406 C 72.738281 1116.679688 74.589844 1112.769531 78.300781 1109.589844 C 82.011719 1106.40625 86.574219 1104.816406 91.984375 1104.816406 C 97.398438 1104.816406 101.960938 1106.40625 105.671875 1109.589844 C 109.382813 1112.769531 111.234375 1116.679688 111.234375 1121.316406 L 111.234375 1213.070313 C 111.234375 1218.386719 115.546875 1222.695313 120.859375 1222.695313 L 156.925781 1222.695313 C 161.410156 1222.695313 165.195313 1224.019531 168.292969 1226.667969 C 171.382813 1229.320313 172.929688 1232.503906 172.929688 1236.210938 C 172.929688 1240.054688 171.382813 1243.300781 168.292969 1245.949219 C 165.195313 1248.601563 161.410156 1249.925781 156.925781 1249.925781 "/>
<path style=" stroke:none;fill-rule:nonzero;fill:rgb(71.679688%,33.714294%,55.271912%);fill-opacity:1;" d="M 344.902344 1249.929688 C 340.519531 1249.929688 336.800781 1248.402344 333.742188 1245.34375 C 330.683594 1242.289063 329.160156 1238.570313 329.160156 1234.183594 L 329.160156 1158.25 C 329.160156 1153.867188 330.683594 1150.148438 333.742188 1147.089844 C 336.800781 1144.035156 340.519531 1142.507813 344.902344 1142.507813 C 349.289063 1142.507813 353.007813 1144.035156 356.066406 1147.089844 C 359.121094 1150.148438 360.648438 1153.867188 360.648438 1158.25 L 360.648438 1234.183594 C 360.648438 1238.570313 359.121094 1242.289063 356.066406 1245.34375 C 353.007813 1248.402344 349.289063 1249.929688 344.902344 1249.929688 M 327.765625 1118.390625 C 327.765625 1115.996094 328.226563 1113.773438 329.160156 1111.714844 C 330.085938 1109.65625 331.316406 1107.824219 332.847656 1106.234375 C 334.371094 1104.640625 336.199219 1103.378906 338.328125 1102.445313 C 340.449219 1101.519531 342.710938 1101.050781 345.101563 1101.050781 C 347.496094 1101.050781 349.71875 1101.519531 351.78125 1102.445313 C 353.839844 1103.378906 355.632813 1104.640625 357.160156 1106.234375 C 358.6875 1107.824219 359.917969 1109.65625 360.847656 1111.714844 C 361.777344 1113.773438 362.242188 1115.996094 362.242188 1118.390625 C 362.242188 1120.78125 361.777344 1123.007813 360.847656 1125.066406 C 359.917969 1127.128906 358.6875 1128.921875 357.160156 1130.449219 C 355.632813 1131.976563 353.839844 1133.207031 351.78125 1134.136719 C 349.71875 1135.066406 347.496094 1135.53125 345.101563 1135.53125 C 342.710938 1135.53125 340.449219 1135.066406 338.328125 1134.136719 C 336.199219 1133.207031 334.371094 1131.976563 332.847656 1130.449219 C 331.316406 1128.921875 330.085938 1127.128906 329.160156 1125.066406 C 328.226563 1123.007813 327.765625 1120.78125 327.765625 1118.390625 "/>
<path style=" stroke:none;fill-rule:nonzero;fill:rgb(63.867188%,12.939453%,39.598083%);fill-opacity:1;" d="M 277.0625 284.191406 C 270.476563 284.191406 264.890625 281.898438 260.300781 277.308594 C 255.710938 272.71875 253.417969 267.140625 253.417969 260.550781 L 253.417969 84.289063 C 253.417969 77.699219 255.710938 72.121094 260.300781 67.53125 C 264.890625 62.941406 270.476563 60.648438 277.0625 60.648438 C 283.644531 60.648438 289.226563 62.941406 293.820313 67.53125 C 298.40625 72.121094 300.703125 77.699219 300.703125 84.289063 L 300.703125 260.550781 C 300.703125 267.140625 298.40625 272.71875 293.820313 277.308594 C 289.226563 281.898438 283.644531 284.191406 277.0625 284.191406 "/>
<path style=" stroke:none;fill-rule:nonzero;fill:rgb(71.679688%,33.714294%,55.271912%);fill-opacity:1;" d="M 302.933594 1250.175781 C 298.550781 1250.175781 294.828125 1248.648438 291.773438 1245.59375 C 288.714844 1242.539063 287.1875 1238.816406 287.1875 1234.429688 L 287.1875 1117.042969 C 287.1875 1112.65625 288.714844 1108.941406 291.773438 1105.882813 C 294.828125 1102.828125 298.550781 1101.300781 302.933594 1101.300781 C 307.320313 1101.300781 311.039063 1102.828125 314.097656 1105.882813 C 317.152344 1108.941406 318.679688 1112.65625 318.679688 1117.042969 L 318.679688 1234.429688 C 318.679688 1238.816406 317.152344 1242.539063 314.097656 1245.59375 C 311.039063 1248.648438 307.320313 1250.175781 302.933594 1250.175781 "/>
<path style=" stroke:none;fill-rule:nonzero;fill:rgb(71.679688%,33.714294%,55.271912%);fill-opacity:1;" d="M 545.753906 1197.851563 C 545.753906 1192.9375 545.15625 1188.617188 543.960938 1184.894531 C 542.765625 1181.179688 541.203125 1178.089844 539.277344 1175.628906 C 537.351563 1173.171875 535.191406 1171.3125 532.800781 1170.046875 C 530.40625 1168.785156 528.082031 1168.15625 525.824219 1168.15625 C 523.5625 1168.15625 521.238281 1168.785156 518.847656 1170.046875 C 516.457031 1171.3125 514.328125 1173.203125 512.472656 1175.726563 C 510.609375 1178.253906 509.082031 1181.378906 507.886719 1185.097656 C 506.691406 1188.816406 506.09375 1193.066406 506.09375 1197.851563 C 506.09375 1202.632813 506.65625 1206.820313 507.785156 1210.40625 C 508.914063 1213.996094 510.441406 1217.019531 512.371094 1219.476563 C 514.296875 1221.933594 516.457031 1223.761719 518.847656 1224.953125 C 521.238281 1226.152344 523.632813 1226.75 526.023438 1226.75 C 528.414063 1226.75 530.773438 1226.152344 533.101563 1224.953125 C 535.421875 1223.761719 537.550781 1221.933594 539.476563 1219.476563 C 541.402344 1217.019531 542.929688 1213.996094 544.0625 1210.40625 C 545.1875 1206.820313 545.753906 1202.632813 545.753906 1197.851563 M 577.242188 1197.453125 C 577.242188 1204.894531 575.949219 1211.871094 573.359375 1218.378906 C 570.769531 1224.890625 567.179688 1230.570313 562.597656 1235.417969 C 558.011719 1240.269531 552.597656 1244.089844 546.355469 1246.878906 C 540.105469 1249.667969 533.328125 1251.0625 526.023438 1251.0625 C 518.714844 1251.0625 511.90625 1249.667969 505.59375 1246.878906 C 499.28125 1244.089844 493.835938 1240.269531 489.253906 1235.417969 C 484.667969 1230.570313 481.082031 1224.890625 478.488281 1218.378906 C 475.898438 1211.871094 474.601563 1204.894531 474.601563 1197.453125 C 474.601563 1190.144531 475.898438 1183.238281 478.488281 1176.726563 C 481.082031 1170.214844 484.667969 1164.5 489.253906 1159.582031 C 493.835938 1154.671875 499.28125 1150.816406 505.59375 1148.023438 C 511.90625 1145.234375 518.714844 1143.839844 526.023438 1143.839844 C 533.328125 1143.839844 540.105469 1145.234375 546.355469 1148.023438 C 552.597656 1150.816406 558.011719 1154.671875 562.597656 1159.582031 C 567.179688 1164.5 570.769531 1170.214844 573.359375 1176.726563 C 575.949219 1183.238281 577.242188 1190.144531 577.242188 1197.453125 "/>
<path style=" stroke:none;fill-rule:nonzero;fill:rgb(71.679688%,33.714294%,55.271912%);fill-opacity:1;" d="M 241.058594 1196.617188 C 241.058594 1191.703125 240.460938 1187.386719 239.265625 1183.664063 C 238.070313 1179.945313 236.503906 1176.855469 234.578125 1174.398438 C 232.652344 1171.9375 230.496094 1170.082031 228.101563 1168.816406 C 225.710938 1167.554688 223.386719 1166.921875 221.128906 1166.921875 C 218.867188 1166.921875 216.542969 1167.554688 214.152344 1168.816406 C 211.761719 1170.082031 209.632813 1171.972656 207.773438 1174.496094 C 205.914063 1177.019531 204.386719 1180.144531 203.191406 1183.863281 C 201.996094 1187.585938 201.394531 1191.835938 201.394531 1196.617188 C 201.394531 1201.402344 201.960938 1205.585938 203.089844 1209.175781 C 204.21875 1212.765625 205.746094 1215.785156 207.675781 1218.242188 C 209.601563 1220.703125 211.761719 1222.527344 214.152344 1223.722656 C 216.542969 1224.921875 218.9375 1225.519531 221.328125 1225.519531 C 223.71875 1225.519531 226.078125 1224.921875 228.402344 1223.722656 C 230.726563 1222.527344 232.851563 1220.703125 234.78125 1218.242188 C 236.703125 1215.785156 238.234375 1212.765625 239.363281 1209.175781 C 240.492188 1205.585938 241.058594 1201.402344 241.058594 1196.617188 M 272.546875 1196.21875 C 272.546875 1203.664063 271.253906 1210.640625 268.660156 1217.148438 C 266.070313 1223.660156 262.484375 1229.339844 257.902344 1234.1875 C 253.316406 1239.039063 247.902344 1242.855469 241.65625 1245.648438 C 235.410156 1248.4375 228.632813 1249.832031 221.328125 1249.832031 C 214.019531 1249.832031 207.210938 1248.4375 200.898438 1245.648438 C 194.585938 1242.855469 189.140625 1239.039063 184.554688 1234.1875 C 179.972656 1229.339844 176.386719 1223.660156 173.792969 1217.148438 C 171.203125 1210.640625 169.90625 1203.664063 169.90625 1196.21875 C 169.90625 1188.914063 171.203125 1182.003906 173.792969 1175.492188 C 176.386719 1168.984375 179.972656 1163.269531 184.554688 1158.351563 C 189.140625 1153.4375 194.585938 1149.585938 200.898438 1146.792969 C 207.210938 1144.003906 214.019531 1142.609375 221.328125 1142.609375 C 228.632813 1142.609375 235.410156 1144.003906 241.65625 1146.792969 C 247.902344 1149.585938 253.316406 1153.4375 257.902344 1158.351563 C 262.484375 1163.269531 266.070313 1168.984375 268.660156 1175.492188 C 271.253906 1182.003906 272.546875 1188.914063 272.546875 1196.21875 "/>
<path style=" stroke:none;fill-rule:nonzero;fill:rgb(71.679688%,33.714294%,55.271912%);fill-opacity:1;" d="M 614.066406 1196.269531 C 614.066406 1200.035156 614.503906 1203.585938 615.386719 1206.914063 C 616.261719 1210.246094 617.460938 1213.132813 618.964844 1215.582031 C 620.472656 1218.03125 622.265625 1219.980469 624.335938 1221.421875 C 626.410156 1222.871094 628.578125 1223.589844 630.839844 1223.589844 C 633.222656 1223.589844 635.453125 1222.835938 637.523438 1221.328125 C 639.597656 1219.820313 641.386719 1217.8125 642.894531 1215.296875 C 644.402344 1212.789063 645.597656 1209.804688 646.476563 1206.351563 C 647.355469 1202.894531 647.796875 1199.285156 647.796875 1195.515625 C 647.796875 1191.746094 647.355469 1188.164063 646.476563 1184.773438 C 645.597656 1181.382813 644.402344 1178.433594 642.894531 1175.917969 C 641.386719 1173.40625 639.597656 1171.429688 637.523438 1169.984375 C 635.453125 1168.539063 633.289063 1167.816406 631.023438 1167.816406 C 628.636719 1167.816406 626.410156 1168.601563 624.335938 1170.171875 C 622.265625 1171.746094 620.472656 1173.816406 618.964844 1176.390625 C 617.460938 1178.964844 616.261719 1181.980469 615.386719 1185.433594 C 614.503906 1188.890625 614.066406 1192.5 614.066406 1196.269531 M 598.050781 1144.640625 C 601.691406 1144.640625 604.863281 1145.929688 607.566406 1148.503906 C 608.519531 1149.414063 609.324219 1150.804688 609.96875 1152.390625 C 611.253906 1155.523438 615.480469 1155.996094 617.589844 1153.347656 C 619.269531 1151.230469 621.109375 1149.335938 623.109375 1148.222656 C 627.632813 1145.707031 632.53125 1144.453125 637.808594 1144.453125 C 643.085938 1144.453125 648.105469 1145.769531 652.882813 1148.410156 C 657.65625 1151.046875 661.832031 1154.660156 665.414063 1159.246094 C 668.992188 1163.828125 671.820313 1169.230469 673.894531 1175.449219 C 675.964844 1181.664063 677 1188.355469 677 1195.515625 C 677 1202.671875 675.964844 1209.363281 673.894531 1215.582031 C 671.820313 1221.800781 668.960938 1227.234375 665.316406 1231.878906 C 661.671875 1236.527344 657.40625 1240.167969 652.507813 1242.808594 C 647.605469 1245.445313 642.332031 1246.765625 636.679688 1246.765625 C 632.53125 1246.765625 628.546875 1246.039063 624.714844 1244.597656 C 623.445313 1244.121094 622.214844 1243.398438 621.023438 1242.550781 C 618.1875 1240.539063 614.253906 1242.664063 614.253906 1246.140625 L 614.253906 1267.113281 C 614.253906 1271.132813 612.777344 1274.621094 609.828125 1277.574219 C 606.875 1280.523438 603.390625 1282 599.371094 1282 C 595.222656 1282 591.675781 1280.523438 588.722656 1277.574219 C 585.773438 1274.621094 584.296875 1271.132813 584.296875 1267.113281 L 584.296875 1158.394531 C 584.296875 1154.625 585.644531 1151.394531 588.347656 1148.691406 C 591.046875 1145.992188 594.285156 1144.640625 598.050781 1144.640625 "/>
<path style=" stroke:none;fill-rule:nonzero;fill:rgb(71.679688%,33.714294%,55.271912%);fill-opacity:1;" d="M 405.050781 1196.269531 C 405.050781 1200.035156 405.488281 1203.585938 406.367188 1206.914063 C 407.242188 1210.246094 408.441406 1213.132813 409.945313 1215.582031 C 411.453125 1218.03125 413.246094 1219.980469 415.316406 1221.421875 C 417.390625 1222.871094 419.558594 1223.589844 421.816406 1223.589844 C 424.203125 1223.589844 426.4375 1222.835938 428.507813 1221.328125 C 430.578125 1219.820313 432.367188 1217.8125 433.878906 1215.296875 C 435.386719 1212.789063 436.578125 1209.804688 437.457031 1206.351563 C 438.335938 1202.894531 438.777344 1199.285156 438.777344 1195.515625 C 438.777344 1191.746094 438.335938 1188.164063 437.457031 1184.773438 C 436.578125 1181.382813 435.386719 1178.433594 433.878906 1175.917969 C 432.367188 1173.40625 430.578125 1171.429688 428.507813 1169.984375 C 426.4375 1168.539063 424.269531 1167.816406 422.007813 1167.816406 C 419.617188 1167.816406 417.390625 1168.601563 415.316406 1170.171875 C 413.246094 1171.746094 411.453125 1173.816406 409.945313 1176.390625 C 408.441406 1178.964844 407.242188 1181.980469 406.367188 1185.433594 C 405.488281 1188.890625 405.050781 1192.5 405.050781 1196.269531 M 389.03125 1144.640625 C 392.675781 1144.640625 395.847656 1145.929688 398.550781 1148.503906 C 399.503906 1149.414063 400.304688 1150.804688 400.953125 1152.390625 C 402.234375 1155.523438 406.460938 1155.996094 408.570313 1153.347656 C 410.25 1151.230469 412.089844 1149.335938 414.09375 1148.222656 C 418.613281 1145.707031 423.515625 1144.453125 428.789063 1144.453125 C 434.066406 1144.453125 439.089844 1145.769531 443.863281 1148.410156 C 448.636719 1151.046875 452.8125 1154.660156 456.394531 1159.246094 C 459.972656 1163.828125 462.800781 1169.230469 464.871094 1175.449219 C 466.945313 1181.664063 467.980469 1188.355469 467.980469 1195.515625 C 467.980469 1202.671875 466.945313 1209.363281 464.871094 1215.582031 C 462.800781 1221.800781 459.941406 1227.234375 456.300781 1231.878906 C 452.652344 1236.527344 448.386719 1240.167969 443.488281 1242.808594 C 438.589844 1245.445313 433.3125 1246.765625 427.660156 1246.765625 C 423.515625 1246.765625 419.527344 1246.039063 415.695313 1244.597656 C 414.425781 1244.121094 413.195313 1243.398438 412.003906 1242.550781 C 409.167969 1240.539063 405.234375 1242.664063 405.234375 1246.140625 L 405.234375 1267.113281 C 405.234375 1271.132813 403.761719 1274.621094 400.808594 1277.574219 C 397.855469 1280.523438 394.371094 1282 390.351563 1282 C 386.207031 1282 382.65625 1280.523438 379.703125 1277.574219 C 376.753906 1274.621094 375.277344 1271.132813 375.277344 1267.113281 L 375.277344 1158.394531 C 375.277344 1154.625 376.628906 1151.394531 379.328125 1148.691406 C 382.027344 1145.992188 385.265625 1144.640625 389.03125 1144.640625 "/>
</g>
</svg>
