<?xml version="1.0" encoding="UTF-8"?>
<svg xmlns="http://www.w3.org/2000/svg" xmlns:xlink="http://www.w3.org/1999/xlink" width="750pt" height="1334pt" viewBox="0 0 750 1334" version="1.1">
<g id="surface1">
<path style=" stroke:none;fill-rule:nonzero;fill:rgb(77.34375%,81.639099%,82.8125%);fill-opacity:1;" d="M 515.183594 801.214844 C 531.535156 789.589844 546.378906 776.320313 556.484375 760.304688 C 561.667969 752.089844 565.386719 743.269531 567.980469 734.070313 C 549.058594 748.304688 529.632813 753.164063 522.699219 754.816406 C 510.339844 757.757813 478.28125 766.480469 448.574219 751.003906 C 431.1875 741.945313 421.113281 730.863281 405.902344 712.074219 C 394.292969 697.738281 388.996094 686.675781 386.28125 680.15625 C 382.710938 671.570313 381.09375 664.773438 380.054688 660.320313 C 378.304688 652.835938 374.082031 631.972656 378.101563 604.742188 C 379.414063 595.867188 380.382813 588.050781 384.59375 578.164063 C 389.058594 567.675781 395.785156 557.835938 403.453125 546.621094 C 407.976563 540.003906 411.210938 535.269531 416.027344 529.820313 C 422.171875 522.863281 432.230469 513.222656 447.921875 504.285156 C 437.773438 502.695313 422.722656 501.394531 404.867188 503.769531 C 396.847656 504.839844 376.867188 508.15625 354.726563 519.90625 C 333.113281 531.382813 320.464844 545.035156 313.417969 552.78125 C 287.246094 581.558594 278.898438 611.175781 276.980469 618.507813 C 264.816406 665.078125 279.601563 702.792969 284.816406 715.546875 C 288.121094 723.617188 298.246094 746.59375 320.742188 769.878906 C 332.574219 782.128906 353.0625 803.382813 388.050781 814.210938 C 414.296875 822.328125 436.789063 820.910156 450.222656 819.9375 C 450.226563 819.9375 468.660156 818.59375 490.789063 812.277344 C 499.179688 809.519531 507.402344 805.71875 515.183594 801.214844 "/>
<path style=" stroke:none;fill-rule:nonzero;fill:rgb(82.8125%,86.71875%,87.889099%);fill-opacity:1;" d="M 221.058594 563.46875 C 220.339844 562.914063 219.449219 562.5625 218.398438 562.566406 C 214.140625 562.589844 210.175781 562.40625 206.605469 561.691406 C 200.085938 559.390625 195.136719 554.632813 192.855469 546.15625 C 190.863281 538.730469 191.515625 531.371094 188.839844 524.003906 C 188.496094 523.058594 187.917969 522.382813 187.265625 521.84375 C 184.621094 518.902344 178.734375 520.023438 178.902344 524.828125 C 178.980469 527.019531 179.007813 529.371094 179.058594 531.8125 C 177.550781 549.214844 172.5625 561.242188 151.585938 565.046875 C 147.25 565.835938 145.253906 565.53125 142.558594 569.261719 C 141.046875 571.351563 141.902344 573.617188 143.558594 575.035156 C 144.339844 576.261719 145.621094 577.101563 147.335938 576.941406 C 148.414063 576.84375 149.496094 576.742188 150.578125 576.644531 C 152.515625 576.707031 154.410156 576.703125 156.261719 576.574219 C 172.019531 577.886719 183.410156 590.257813 183.980469 607.121094 C 184.191406 613.335938 192.953125 613.15625 193.507813 607.121094 C 194.527344 595.96875 194.273438 588.230469 202.015625 580.109375 C 204.066406 577.960938 205.777344 576.511719 207.460938 575.433594 C 211.464844 574.261719 215.6875 573.488281 220.539063 572.964844 C 226.3125 572.34375 226.746094 563.765625 221.058594 563.46875 "/>
<path style=" stroke:none;fill-rule:nonzero;fill:rgb(82.8125%,86.71875%,87.889099%);fill-opacity:1;" d="M 309.695313 829.636719 C 308.976563 829.082031 308.085938 828.730469 307.035156 828.734375 C 302.777344 828.757813 298.8125 828.574219 295.242188 827.863281 C 288.722656 825.558594 283.773438 820.800781 281.492188 812.324219 C 279.496094 804.898438 280.152344 797.539063 277.472656 790.171875 C 277.132813 789.226563 276.554688 788.554688 275.902344 788.011719 C 273.257813 785.070313 267.371094 786.191406 267.539063 790.996094 C 267.617188 793.1875 267.644531 795.539063 267.695313 797.980469 C 266.1875 815.382813 261.199219 827.410156 240.222656 831.214844 C 235.886719 832.003906 233.886719 831.699219 231.195313 835.429688 C 229.683594 837.519531 230.535156 839.785156 232.191406 841.203125 C 232.976563 842.429688 234.257813 843.269531 235.972656 843.109375 C 237.050781 843.011719 238.132813 842.910156 239.214844 842.8125 C 241.152344 842.875 243.046875 842.871094 244.898438 842.742188 C 260.65625 844.054688 272.050781 856.425781 272.617188 873.289063 C 272.828125 879.503906 281.59375 879.324219 282.144531 873.289063 C 283.164063 862.136719 282.910156 854.398438 290.652344 846.277344 C 292.703125 844.128906 294.410156 842.679688 296.097656 841.601563 C 300.101563 840.433594 304.328125 839.65625 309.175781 839.136719 C 314.949219 838.511719 315.382813 829.933594 309.695313 829.636719 "/>
<path style=" stroke:none;fill-rule:nonzero;fill:rgb(82.8125%,86.71875%,87.889099%);fill-opacity:1;" d="M 578.816406 499.761719 C 578.097656 499.207031 577.207031 498.855469 576.15625 498.859375 C 571.898438 498.878906 567.929688 498.699219 564.363281 497.984375 C 557.84375 495.679688 552.894531 490.925781 550.613281 482.445313 C 548.621094 475.023438 549.273438 467.664063 546.59375 460.296875 C 546.253906 459.351563 545.675781 458.675781 545.023438 458.132813 C 542.378906 455.195313 536.492188 456.3125 536.660156 461.117188 C 536.738281 463.3125 536.765625 465.664063 536.8125 468.101563 C 535.308594 485.507813 530.320313 497.53125 509.34375 501.339844 C 505.007813 502.125 503.007813 501.824219 500.316406 505.550781 C 498.804688 507.644531 499.65625 509.90625 501.3125 511.324219 C 502.097656 512.554688 503.378906 513.394531 505.09375 513.234375 C 506.171875 513.136719 507.253906 513.035156 508.332031 512.9375 C 510.273438 513 512.164063 512.996094 514.019531 512.867188 C 529.777344 514.179688 541.171875 526.546875 541.738281 543.414063 C 541.949219 549.628906 550.714844 549.449219 551.265625 543.414063 C 552.285156 532.261719 552.03125 524.523438 559.773438 516.402344 C 561.824219 514.25 563.53125 512.800781 565.21875 511.726563 C 569.222656 510.554688 573.445313 509.78125 578.296875 509.257813 C 584.070313 508.636719 584.503906 500.058594 578.816406 499.761719 "/>
<path style=" stroke:none;fill-rule:nonzero;fill:rgb(82.8125%,86.71875%,87.889099%);fill-opacity:1;" d="M 662.953125 650.589844 C 662.234375 650.03125 661.34375 649.683594 660.292969 649.6875 C 656.035156 649.707031 652.070313 649.527344 648.5 648.8125 C 641.980469 646.507813 637.027344 641.753906 634.75 633.273438 C 632.757813 625.847656 633.410156 618.492188 630.730469 611.121094 C 630.390625 610.179688 629.8125 609.503906 629.160156 608.960938 C 626.515625 606.023438 620.628906 607.140625 620.796875 611.945313 C 620.875 614.140625 620.902344 616.492188 620.953125 618.929688 C 619.445313 636.335938 614.457031 648.359375 593.480469 652.164063 C 589.144531 652.953125 587.144531 652.648438 584.453125 656.378906 C 582.941406 658.46875 583.796875 660.734375 585.449219 662.152344 C 586.234375 663.382813 587.515625 664.21875 589.230469 664.0625 C 590.308594 663.960938 591.390625 663.863281 592.472656 663.765625 C 594.410156 663.828125 596.304688 663.820313 598.15625 663.695313 C 613.914063 665.003906 625.304688 677.375 625.878906 694.238281 C 626.085938 700.453125 634.851563 700.277344 635.402344 694.238281 C 636.421875 683.085938 636.167969 675.351563 643.910156 667.230469 C 645.960938 665.078125 647.671875 663.628906 649.355469 662.554688 C 653.359375 661.382813 657.585938 660.609375 662.433594 660.085938 C 668.210938 659.464844 668.640625 650.886719 662.953125 650.589844 "/>
<path style=" stroke:none;fill-rule:nonzero;fill:rgb(82.8125%,86.71875%,87.889099%);fill-opacity:1;" d="M 162.285156 715.320313 C 161.566406 714.761719 160.675781 714.414063 159.625 714.417969 C 155.367188 714.4375 151.402344 714.257813 147.835938 713.542969 C 141.3125 711.238281 136.363281 706.484375 134.082031 698.003906 C 132.089844 690.578125 132.742188 683.222656 130.0625 675.855469 C 129.722656 674.910156 129.144531 674.234375 128.492188 673.691406 C 125.847656 670.753906 119.960938 671.871094 120.132813 676.675781 C 120.207031 678.871094 120.234375 681.222656 120.285156 683.660156 C 118.777344 701.066406 113.789063 713.089844 92.8125 716.898438 C 88.476563 717.683594 86.476563 717.382813 83.785156 721.109375 C 82.273438 723.199219 83.128906 725.464844 84.78125 726.882813 C 85.566406 728.113281 86.847656 728.949219 88.5625 728.792969 C 89.640625 728.691406 90.722656 728.59375 91.804688 728.496094 C 93.742188 728.558594 95.636719 728.550781 97.488281 728.425781 C 113.246094 729.734375 124.640625 742.105469 125.210938 758.972656 C 125.417969 765.183594 134.183594 765.007813 134.734375 758.972656 C 135.753906 747.816406 135.5 740.082031 143.242188 731.960938 C 145.292969 729.808594 147.003906 728.359375 148.6875 727.285156 C 152.691406 726.113281 156.917969 725.339844 161.765625 724.816406 C 167.539063 724.195313 167.972656 715.617188 162.285156 715.320313 "/>
<path style=" stroke:none;fill-rule:nonzero;fill:rgb(60.351563%,67.771912%,69.726563%);fill-opacity:1;" d="M 314.277344 653.960938 C 313.6875 663.375 299.59375 663.28125 294.453125 658.121094 C 292.292969 655.953125 288.933594 659.3125 291.09375 661.480469 C 299.402344 669.820313 318.175781 667.546875 319.027344 653.960938 C 319.21875 650.90625 314.46875 650.917969 314.277344 653.960938 "/>
<path style=" stroke:none;fill-rule:nonzero;fill:rgb(60.351563%,67.771912%,69.726563%);fill-opacity:1;" d="M 358.730469 647.609375 C 358.140625 657.027344 344.046875 656.929688 338.90625 651.769531 C 336.746094 649.601563 333.386719 652.960938 335.546875 655.128906 C 343.855469 663.46875 362.628906 661.195313 363.480469 647.609375 C 363.671875 644.554688 358.921875 644.566406 358.730469 647.609375 "/>
<path style=" stroke:none;fill-rule:nonzero;fill:rgb(80.076599%,73.631287%,76.171875%);fill-opacity:1;" d="M 376.160156 666.539063 C 374.636719 665.464844 372.355469 665.214844 370.226563 665.277344 C 370.128906 665.292969 370.039063 665.316406 369.933594 665.320313 C 368.925781 665.375 367.898438 665.480469 366.871094 665.632813 C 366.527344 665.703125 366.1875 665.777344 365.847656 665.855469 C 365.824219 665.839844 365.796875 665.828125 365.773438 665.816406 C 362.515625 666.410156 359.285156 667.523438 356.613281 669.324219 C 354.808594 670.542969 353.082031 672.222656 353.152344 674.554688 C 353.234375 677.519531 355.707031 678.734375 358.1875 679.601563 C 362.375 680.125 367.511719 678.554688 370.726563 677.308594 C 374.179688 675.976563 381.304688 670.164063 376.160156 666.539063 "/>
<path style=" stroke:none;fill-rule:nonzero;fill:rgb(80.076599%,73.631287%,76.171875%);fill-opacity:1;" d="M 306.308594 682.414063 C 304.78125 681.34375 302.5 681.089844 300.371094 681.152344 C 300.277344 681.171875 300.183594 681.191406 300.078125 681.199219 C 299.074219 681.25 298.046875 681.355469 297.015625 681.507813 C 296.671875 681.578125 296.332031 681.65625 295.992188 681.730469 C 295.96875 681.714844 295.941406 681.707031 295.917969 681.691406 C 292.660156 682.285156 289.433594 683.398438 286.761719 685.199219 C 284.953125 686.417969 283.230469 688.101563 283.296875 690.429688 C 283.382813 693.394531 285.851563 694.609375 288.335938 695.476563 C 292.519531 696 297.65625 694.429688 300.871094 693.1875 C 304.324219 691.851563 311.449219 686.039063 306.308594 682.414063 "/>
<path style=" stroke:none;fill-rule:nonzero;fill:rgb(60.351563%,67.771912%,69.726563%);fill-opacity:1;" d="M 334.933594 695.011719 C 332.867188 696.226563 330.101563 695.335938 329.191406 693.199219 C 329.277344 692.859375 329.273438 692.484375 329.074219 692.09375 C 326.289063 686.601563 335.242188 683.597656 337.085938 689.324219 C 337.78125 691.488281 336.898438 693.851563 334.933594 695.011719 M 340.144531 688.480469 C 338.851563 684.226563 334.253906 681.855469 330.058594 683.398438 C 326.40625 684.746094 324.828125 688.625 325.746094 692.136719 C 325.75 692.15625 325.742188 692.171875 325.742188 692.191406 C 326.289063 696.472656 330.3125 699.746094 334.695313 698.546875 C 338.976563 697.371094 341.421875 692.667969 340.144531 688.480469 "/>
<path style=" stroke:none;fill-rule:nonzero;fill:rgb(53.318787%,60.351563%,61.914063%);fill-opacity:1;" d="M 100.972656 86.828125 C 100.976563 86.808594 100.980469 86.789063 100.984375 86.769531 C 103.324219 77.089844 104.035156 73.390625 108.964844 68.191406 C 114.164063 62.710938 117.019531 61 125.035156 61 C 131.152344 61 132.390625 61.648438 137.019531 65.371094 C 141.65625 69.089844 144.511719 72.910156 147.5625 78.308594 L 198.0625 152.410156 C 204.46875 161.039063 217.457031 160.839844 223.589844 152.011719 L 275.796875 78.011719 C 278.488281 72.878906 281.246094 68.980469 285.988281 65.210938 C 290.382813 61.710938 292.136719 60.980469 297.691406 61 C 305.265625 61.019531 308.011719 63.328125 313.25 68.761719 C 318.507813 74.210938 319.9375 78.75 321.480469 87.859375 L 346.804688 256.128906 C 347.179688 258.621094 347.320313 261.179688 346.890625 263.660156 C 346.015625 268.699219 343.609375 273.078125 339.667969 276.800781 C 334.605469 281.570313 328.382813 283.960938 321 283.960938 C 313.613281 283.960938 307.394531 281.570313 302.332031 276.800781 C 298.53125 273.210938 296.160156 265.089844 295.210938 261.261719 C 294.902344 260 279.914063 190.210938 279.914063 190.210938 C 278.511719 181.429688 267.160156 178.789063 262.03125 186.050781 C 246.332031 208.300781 227.78125 241.558594 224.296875 244.558594 C 220.152344 248.121094 216.179688 250.308594 211.988281 250.148438 C 206.414063 249.929688 201.675781 247.628906 197.757813 243.960938 C 195.253906 241.621094 173.902344 207.101563 156.8125 184.75 C 151.464844 177.75 140.335938 180.691406 139.121094 189.398438 L 125.488281 257.910156 C 125.363281 258.921875 125.1875 259.898438 124.949219 260.890625 C 124.066406 264.539063 121.660156 273.089844 117.734375 276.800781 C 112.671875 281.570313 106.449219 283.960938 99.066406 283.960938 C 91.679688 283.960938 85.457031 281.570313 80.398438 276.800781 C 76.851563 273.449219 74.546875 269.570313 73.488281 265.160156 C 72.761719 262.148438 72.839844 258.96875 73.34375 255.910156 "/>
<path style=" stroke:none;fill-rule:nonzero;fill:rgb(77.34375%,81.639099%,82.8125%);fill-opacity:1;" d="M 94.238281 1101.269531 C 94.242188 1101.253906 94.246094 1101.238281 94.25 1101.222656 C 96.027344 1093.871094 96.566406 1091.058594 100.3125 1087.109375 C 104.265625 1082.945313 106.429688 1081.644531 112.523438 1081.644531 C 117.171875 1081.644531 118.109375 1082.144531 121.628906 1084.964844 C 125.152344 1087.789063 127.320313 1090.699219 129.636719 1094.796875 L 168.007813 1151.09375 C 172.875 1157.652344 182.742188 1157.496094 187.402344 1150.789063 L 227.066406 1094.570313 C 229.109375 1090.671875 231.203125 1087.703125 234.808594 1084.839844 C 238.148438 1082.1875 239.480469 1081.632813 243.699219 1081.644531 C 249.453125 1081.664063 251.542969 1083.410156 255.523438 1087.539063 C 259.515625 1091.683594 260.601563 1095.128906 261.773438 1102.054688 L 281.015625 1229.898438 C 281.300781 1231.792969 281.40625 1233.730469 281.078125 1235.621094 C 280.414063 1239.449219 278.585938 1242.777344 275.59375 1245.597656 C 271.746094 1249.226563 267.015625 1251.039063 261.410156 1251.039063 C 255.800781 1251.039063 251.070313 1249.226563 247.226563 1245.597656 C 244.339844 1242.875 242.535156 1236.707031 241.816406 1233.796875 C 241.578125 1232.839844 230.195313 1179.816406 230.195313 1179.816406 C 229.128906 1173.144531 220.503906 1171.136719 216.609375 1176.652344 C 204.679688 1193.554688 190.585938 1218.828125 187.9375 1221.105469 C 184.789063 1223.8125 181.769531 1225.476563 178.585938 1225.351563 C 174.351563 1225.1875 170.753906 1223.4375 167.773438 1220.652344 C 165.871094 1218.871094 149.648438 1192.644531 136.664063 1175.664063 C 132.601563 1170.351563 124.148438 1172.578125 123.222656 1179.203125 L 112.867188 1231.246094 C 112.773438 1232.015625 112.636719 1232.761719 112.457031 1233.515625 C 111.785156 1236.289063 109.960938 1242.785156 106.976563 1245.597656 C 103.128906 1249.226563 98.402344 1251.039063 92.792969 1251.039063 C 87.179688 1251.039063 82.453125 1249.226563 78.609375 1245.597656 C 75.914063 1243.058594 74.164063 1240.113281 73.359375 1236.757813 C 72.808594 1234.46875 72.863281 1232.058594 73.25 1229.730469 "/>
<path style=" stroke:none;fill-rule:nonzero;fill:rgb(53.318787%,60.351563%,61.914063%);fill-opacity:1;" d="M 511.460938 260.550781 C 511.460938 267.140625 509.164063 272.71875 504.578125 277.308594 C 499.988281 281.898438 494.40625 284.191406 487.820313 284.191406 C 481.234375 284.191406 475.648438 281.898438 471.0625 277.308594 C 466.472656 272.71875 464.179688 267.140625 464.179688 260.550781 L 464.179688 187.53125 C 464.179688 177.960938 462.28125 170.921875 458.492188 166.441406 C 454.699219 161.949219 449.613281 159.699219 443.230469 159.699219 C 439.238281 159.699219 435.601563 160.550781 432.308594 162.238281 C 429.015625 163.941406 426.175781 166.238281 423.78125 169.128906 C 421.386719 172.019531 419.539063 175.371094 418.242188 179.148438 C 416.941406 182.941406 416.296875 187.039063 416.296875 191.421875 L 416.296875 260.550781 C 416.296875 266.941406 413.949219 272.46875 409.265625 277.160156 C 404.574219 281.851563 399.039063 284.191406 392.65625 284.191406 C 386.074219 284.191406 380.4375 281.851563 375.75 277.160156 C 371.058594 272.46875 368.714844 266.941406 368.714844 260.550781 L 368.714844 145.039063 C 368.714844 138.859375 370.859375 133.621094 375.148438 129.328125 C 379.4375 125.039063 384.675781 122.890625 390.859375 122.890625 C 396.644531 122.890625 401.679688 124.890625 405.972656 128.878906 C 408.09375 130.851563 409.738281 133.070313 410.90625 135.53125 C 412.484375 138.839844 416.882813 139.488281 419.65625 137.078125 C 423.351563 133.871094 427.46875 131.089844 432.007813 128.730469 C 439.492188 124.839844 447.71875 122.890625 456.699219 122.890625 C 466.273438 122.890625 475.101563 125.238281 483.183594 129.921875 C 489.171875 133.398438 494.257813 137.671875 498.4375 142.738281 C 500.5625 145.308594 504.578125 145.398438 506.808594 142.910156 C 511.40625 137.769531 516.851563 133.441406 523.132813 129.921875 C 531.511719 125.238281 540.6875 122.890625 550.664063 122.890625 C 558.445313 122.890625 565.726563 124.390625 572.511719 127.378906 C 579.292969 130.371094 585.230469 134.410156 590.316406 139.5 C 595.402344 144.589844 599.394531 150.53125 602.285156 157.308594 C 605.175781 164.089844 606.628906 171.371094 606.628906 179.148438 L 606.628906 260.550781 C 606.628906 267.140625 604.328125 272.71875 599.742188 277.308594 C 595.152344 281.898438 589.566406 284.191406 582.984375 284.191406 C 576.402344 284.191406 570.816406 281.898438 566.226563 277.308594 C 561.632813 272.71875 559.34375 267.140625 559.34375 260.550781 L 559.34375 187.53125 C 559.34375 178.558594 557.398438 171.671875 553.511719 166.878906 C 549.617188 162.089844 544.480469 159.699219 538.097656 159.699219 C 534.304688 159.699219 530.765625 160.550781 527.472656 162.238281 C 524.183594 163.941406 521.335938 166.238281 518.941406 169.128906 C 516.550781 172.019531 514.703125 175.371094 513.410156 179.148438 C 512.109375 182.941406 511.460938 187.039063 511.460938 191.421875 "/>
<path style=" stroke:none;fill-rule:nonzero;fill:rgb(77.34375%,81.639099%,82.8125%);fill-opacity:1;" d="M 589.464844 1128.671875 C 594.464844 1128.671875 598.40625 1130.300781 601.285156 1133.558594 C 602.175781 1134.566406 602.929688 1135.605469 603.542969 1136.679688 C 605.253906 1139.65625 609.21875 1140.425781 611.855469 1138.226563 C 614.34375 1136.152344 616.957031 1134.367188 619.703125 1132.875 C 624.855469 1130.074219 630.539063 1128.671875 636.757813 1128.671875 C 642.214844 1128.671875 647.402344 1129.808594 652.332031 1132.082031 C 657.253906 1134.351563 661.539063 1137.421875 665.175781 1141.285156 C 668.8125 1145.152344 671.691406 1149.664063 673.816406 1154.816406 C 675.9375 1159.972656 677 1165.503906 677 1171.414063 L 677 1233.941406 C 677 1238.792969 675.328125 1242.886719 671.996094 1246.21875 C 668.660156 1249.550781 664.570313 1251.21875 659.71875 1251.21875 C 654.867188 1251.21875 650.738281 1249.550781 647.328125 1246.21875 C 643.917969 1242.886719 642.214844 1238.792969 642.214844 1233.941406 L 642.214844 1177.550781 C 642.214844 1163.609375 637.359375 1156.636719 627.660156 1156.636719 C 622.355469 1156.636719 617.570313 1156.710938 613.980469 1160.398438 C 609.730469 1164.765625 608.183594 1171.179688 608.109375 1177.085938 L 608.109375 1233.257813 C 608.109375 1238.109375 606.324219 1242.316406 602.765625 1245.875 C 599.199219 1249.4375 594.996094 1251.21875 590.144531 1251.21875 C 585.144531 1251.21875 580.859375 1249.4375 577.300781 1245.875 C 573.734375 1242.316406 571.957031 1238.109375 571.957031 1233.257813 L 571.957031 1145.496094 C 571.957031 1140.796875 573.621094 1136.816406 576.960938 1133.558594 C 580.292969 1130.300781 584.464844 1128.671875 589.464844 1128.671875 "/>
<path style=" stroke:none;fill-rule:nonzero;fill:rgb(77.34375%,81.639099%,82.8125%);fill-opacity:1;" d="M 510.894531 1190.597656 C 510.894531 1184.992188 510.214844 1180.0625 508.847656 1175.816406 C 507.484375 1171.574219 505.703125 1168.050781 503.503906 1165.246094 C 501.308594 1162.441406 498.84375 1160.320313 496.117188 1158.878906 C 493.386719 1157.441406 490.734375 1156.71875 488.160156 1156.71875 C 485.578125 1156.71875 482.929688 1157.441406 480.199219 1158.878906 C 477.472656 1160.320313 475.046875 1162.484375 472.925781 1165.359375 C 470.800781 1168.238281 469.058594 1171.804688 467.695313 1176.046875 C 466.332031 1180.289063 465.648438 1185.140625 465.648438 1190.597656 C 465.648438 1196.054688 466.289063 1200.828125 467.582031 1204.921875 C 468.867188 1209.015625 470.613281 1212.460938 472.8125 1215.265625 C 475.007813 1218.070313 477.472656 1220.15625 480.199219 1221.519531 C 482.929688 1222.882813 485.65625 1223.566406 488.386719 1223.566406 C 491.113281 1223.566406 493.804688 1222.882813 496.457031 1221.519531 C 499.105469 1220.15625 501.535156 1218.070313 503.734375 1215.265625 C 505.929688 1212.460938 507.671875 1209.015625 508.964844 1204.921875 C 510.246094 1200.828125 510.894531 1196.054688 510.894531 1190.597656 M 546.816406 1190.140625 C 546.816406 1198.632813 545.339844 1206.589844 542.386719 1214.015625 C 539.429688 1221.445313 535.339844 1227.925781 530.109375 1233.453125 C 524.878906 1238.988281 518.699219 1243.34375 511.578125 1246.527344 C 504.453125 1249.710938 496.71875 1251.300781 488.386719 1251.300781 C 480.046875 1251.300781 472.277344 1249.710938 465.078125 1246.527344 C 457.878906 1243.34375 451.664063 1238.988281 446.4375 1233.453125 C 441.207031 1227.925781 437.117188 1221.445313 434.160156 1214.015625 C 431.203125 1206.589844 429.726563 1198.632813 429.726563 1190.140625 C 429.726563 1181.808594 431.203125 1173.925781 434.160156 1166.496094 C 437.117188 1159.070313 441.207031 1152.550781 446.4375 1146.941406 C 451.664063 1141.335938 457.878906 1136.9375 465.078125 1133.753906 C 472.277344 1130.574219 480.046875 1128.980469 488.386719 1128.980469 C 496.71875 1128.980469 504.453125 1130.574219 511.578125 1133.753906 C 518.699219 1136.9375 524.878906 1141.335938 530.109375 1146.941406 C 535.339844 1152.550781 539.429688 1159.070313 542.386719 1166.496094 C 545.339844 1173.925781 546.816406 1181.808594 546.816406 1190.140625 "/>
<path style=" stroke:none;fill-rule:nonzero;fill:rgb(77.34375%,81.639099%,82.8125%);fill-opacity:1;" d="M 377.175781 1190.597656 C 377.175781 1184.992188 376.496094 1180.0625 375.128906 1175.816406 C 373.769531 1171.574219 371.984375 1168.050781 369.789063 1165.246094 C 367.589844 1162.441406 365.128906 1160.320313 362.398438 1158.878906 C 359.671875 1157.441406 357.015625 1156.71875 354.441406 1156.71875 C 351.859375 1156.71875 349.210938 1157.441406 346.480469 1158.878906 C 343.753906 1160.320313 341.328125 1162.484375 339.207031 1165.359375 C 337.082031 1168.238281 335.34375 1171.804688 333.976563 1176.046875 C 332.613281 1180.289063 331.929688 1185.140625 331.929688 1190.597656 C 331.929688 1196.054688 332.574219 1200.828125 333.863281 1204.921875 C 335.152344 1209.015625 336.894531 1212.460938 339.09375 1215.265625 C 341.289063 1218.070313 343.753906 1220.15625 346.480469 1221.519531 C 349.210938 1222.882813 351.9375 1223.566406 354.667969 1223.566406 C 357.394531 1223.566406 360.085938 1222.882813 362.738281 1221.519531 C 365.390625 1220.15625 367.816406 1218.070313 370.015625 1215.265625 C 372.210938 1212.460938 373.953125 1209.015625 375.246094 1204.921875 C 376.53125 1200.828125 377.175781 1196.054688 377.175781 1190.597656 M 413.101563 1190.140625 C 413.101563 1198.632813 411.621094 1206.589844 408.667969 1214.015625 C 405.710938 1221.445313 401.617188 1227.925781 396.390625 1233.453125 C 391.160156 1238.988281 384.984375 1243.34375 377.859375 1246.527344 C 370.734375 1249.710938 363.003906 1251.300781 354.667969 1251.300781 C 346.328125 1251.300781 338.5625 1249.710938 331.363281 1246.527344 C 324.160156 1243.34375 317.949219 1238.988281 312.71875 1233.453125 C 307.488281 1227.925781 303.398438 1221.445313 300.441406 1214.015625 C 297.488281 1206.589844 296.007813 1198.632813 296.007813 1190.140625 C 296.007813 1181.808594 297.488281 1173.925781 300.441406 1166.496094 C 303.398438 1159.070313 307.488281 1152.550781 312.71875 1146.941406 C 317.949219 1141.335938 324.160156 1136.9375 331.363281 1133.753906 C 338.5625 1130.574219 346.328125 1128.980469 354.667969 1128.980469 C 363.003906 1128.980469 370.734375 1130.574219 377.859375 1133.753906 C 384.984375 1136.9375 391.160156 1141.335938 396.390625 1146.941406 C 401.617188 1152.550781 405.710938 1159.070313 408.667969 1166.496094 C 411.621094 1173.925781 413.101563 1181.808594 413.101563 1190.140625 "/>
</g>
</svg>
