<?xml version="1.0" encoding="UTF-8"?>
<svg xmlns="http://www.w3.org/2000/svg" xmlns:xlink="http://www.w3.org/1999/xlink" width="750pt" height="1334pt" viewBox="0 0 750 1334" version="1.1">
<g id="surface1">
<path style=" stroke:none;fill-rule:nonzero;fill:rgb(88.671875%,82.03125%,67.381287%);fill-opacity:1;" d="M 347.117188 692.164063 C 345.050781 686.347656 342.90625 680.554688 340.707031 674.785156 C 336.238281 654.238281 328.175781 634.523438 319.554688 615.402344 C 309.710938 593.582031 299.035156 571.234375 281.792969 554.183594 C 275.851563 548.3125 269.292969 543.167969 262.121094 539.023438 C 255.164063 534.421875 247.421875 531.113281 238.957031 530.390625 C 225.554688 529.242188 213.144531 535.726563 204.578125 545.726563 C 202.875 547.71875 201.347656 549.8125 199.957031 551.984375 C 192.535156 561.230469 187.648438 572.355469 183.984375 583.554688 C 180.066406 595.546875 177.476563 608 175.902344 620.507813 C 172.78125 645.28125 173.953125 670.382813 176.382813 695.160156 C 177.726563 708.882813 179.527344 722.558594 181.363281 736.222656 C 181.9375 740.476563 186.980469 743.609375 191.058594 742.566406 C 195.617188 741.398438 198.015625 737.433594 197.402344 732.875 C 196.765625 728.140625 196.136719 723.421875 195.527344 718.714844 C 198.109375 717.765625 200.066406 715.726563 200.8125 713.214844 C 202.09375 713.273438 203.371094 713.339844 204.648438 713.398438 C 217.605469 713.960938 230.578125 714.199219 243.523438 713.289063 C 270.226563 711.410156 295.863281 703.539063 320.917969 694.46875 C 323.121094 693.667969 324.820313 692.59375 326.097656 691.3125 C 326.507813 692.027344 326.914063 692.738281 327.324219 693.453125 C 327.617188 694.585938 328.238281 695.613281 329.058594 696.484375 C 329.789063 697.761719 330.523438 699.039063 331.253906 700.316406 C 333.292969 703.878906 337.320313 705.609375 341.25 704.222656 C 341.636719 704.089844 342.011719 703.910156 342.382813 703.707031 C 342.800781 703.570313 343.203125 703.40625 343.574219 703.195313 C 347.851563 700.757813 348.660156 696.507813 347.117188 692.164063 "/>
<path style=" stroke:none;fill-rule:nonzero;fill:rgb(88.671875%,82.03125%,67.381287%);fill-opacity:1;" d="M 555.566406 743.550781 C 556.574219 737.457031 557.503906 731.351563 558.371094 725.238281 C 564.414063 705.097656 566.902344 683.945313 568.617188 663.035156 C 570.570313 639.179688 572.050781 614.460938 565.21875 591.191406 C 562.867188 583.175781 559.617188 575.5 555.351563 568.402344 C 551.492188 561.007813 546.316406 554.363281 539.261719 549.632813 C 528.09375 542.136719 514.089844 541.804688 501.757813 546.40625 C 499.300781 547.320313 496.949219 548.414063 494.679688 549.640625 C 483.714844 554.136719 474.050781 561.503906 465.421875 569.53125 C 456.1875 578.121094 447.890625 587.769531 440.457031 597.949219 C 425.730469 618.113281 414.605469 640.644531 404.730469 663.496094 C 399.261719 676.15625 394.21875 688.992188 389.210938 701.839844 C 387.648438 705.839844 390.546875 711.023438 394.613281 712.082031 C 399.171875 713.269531 403.1875 710.960938 404.859375 706.675781 C 406.59375 702.226563 408.328125 697.789063 410.078125 693.375 C 412.796875 693.796875 415.496094 692.960938 417.363281 691.121094 C 418.453125 691.796875 419.539063 692.472656 420.632813 693.140625 C 431.695313 699.910156 442.929688 706.402344 454.699219 711.871094 C 478.96875 723.15625 505.214844 728.683594 531.527344 732.875 C 533.839844 733.246094 535.847656 733.128906 537.589844 732.625 C 537.597656 733.449219 537.613281 734.269531 537.625 735.09375 C 537.335938 736.226563 537.378906 737.425781 537.675781 738.582031 C 537.695313 740.054688 537.71875 741.527344 537.738281 743 C 537.800781 747.101563 540.484375 750.570313 544.59375 751.257813 C 544.996094 751.324219 545.410156 751.351563 545.835938 751.355469 C 546.265625 751.441406 546.699219 751.492188 547.125 751.484375 C 552.046875 751.421875 554.8125 748.097656 555.566406 743.550781 "/>
<path style=" stroke:none;fill-rule:nonzero;fill:rgb(93.75%,88.28125%,74.021912%);fill-opacity:1;" d="M 449.4375 717.191406 C 448.601563 711.074219 447.6875 704.964844 446.714844 698.871094 C 446.535156 677.839844 442.671875 656.898438 438.132813 636.417969 C 432.960938 613.046875 427.074219 588.992188 413.675781 568.777344 C 409.0625 561.8125 403.691406 555.441406 397.519531 549.921875 C 391.648438 543.992188 384.742188 539.171875 376.605469 536.734375 C 363.71875 532.871094 350.246094 536.6875 339.820313 544.726563 C 337.746094 546.328125 335.820313 548.0625 334.015625 549.90625 C 324.863281 557.441406 317.804688 567.335938 311.933594 577.550781 C 305.644531 588.484375 300.566406 600.152344 296.472656 612.074219 C 288.355469 635.6875 284.378906 660.496094 281.691406 685.246094 C 280.203125 698.957031 279.175781 712.710938 278.183594 726.460938 C 277.871094 730.746094 282.171875 734.839844 286.371094 734.652344 C 291.074219 734.441406 294.230469 731.050781 294.5625 726.460938 C 294.910156 721.699219 295.253906 716.949219 295.621094 712.214844 C 298.34375 711.8125 300.671875 710.214844 301.917969 707.910156 C 303.160156 708.230469 304.394531 708.558594 305.636719 708.875 C 318.203125 712.074219 330.855469 714.960938 343.714844 716.710938 C 370.238281 720.328125 396.941406 717.855469 423.320313 714.09375 C 425.640625 713.761719 427.523438 713.058594 429.035156 712.066406 C 429.289063 712.847656 429.546875 713.628906 429.800781 714.410156 C 429.855469 715.582031 430.253906 716.714844 430.878906 717.730469 C 431.335938 719.128906 431.789063 720.53125 432.246094 721.929688 C 433.515625 725.835938 437.105469 728.355469 441.230469 727.796875 C 441.632813 727.746094 442.039063 727.648438 442.445313 727.523438 C 442.882813 727.476563 443.3125 727.398438 443.71875 727.269531 C 448.398438 725.753906 450.0625 721.757813 449.4375 717.191406 "/>
<path style=" stroke:none;fill-rule:nonzero;fill:rgb(67.771912%,57.617188%,40.795898%);fill-opacity:1;" d="M 646.265625 604.90625 C 643.335938 603.007813 640.105469 603.511719 637.351563 605.367188 C 629.59375 610.59375 622.113281 616.183594 614.71875 621.898438 C 613.609375 621.898438 612.527344 622.164063 611.617188 622.769531 C 583.816406 641.375 554.671875 659.554688 522.367188 671.875 C 520.882813 671.710938 519.300781 671.945313 517.824219 672.519531 C 500.464844 679.296875 482.261719 683.660156 463.671875 686.3125 C 463.421875 686.339844 463.175781 686.367188 462.925781 686.394531 C 453.480469 687.335938 443.996094 687.730469 434.5 687.800781 C 431.355469 688.496094 428.1875 689.097656 424.996094 689.546875 C 419.640625 690.296875 413.996094 690.808594 408.691406 689.671875 C 398.34375 690.257813 387.964844 690.136719 377.605469 689.84375 C 373.394531 689.726563 369.179688 689.636719 364.964844 689.539063 C 347.289063 689.671875 329.628906 689.839844 312.203125 687.046875 C 312.398438 687.28125 312.585938 687.519531 312.785156 687.75 C 272.71875 683.21875 233.214844 674.613281 195.433594 662.164063 C 182.683594 656.492188 170.21875 650.351563 157.734375 644.257813 C 142.652344 636.898438 127.570313 629.539063 112.488281 622.179688 C 107.445313 619.71875 100.789063 623.804688 102.515625 628.820313 C 102.996094 630.21875 103.550781 631.59375 104.167969 632.941406 C 104.144531 634.027344 104.445313 635.140625 105.003906 636.179688 C 115.265625 655.335938 129.59375 672.925781 146.949219 687.804688 C 131.761719 681.660156 116.894531 674.910156 102.394531 667.59375 C 96.8125 664.777344 89.109375 670.640625 93.105469 675.640625 C 106.472656 692.378906 125.097656 705.722656 146.394531 714.125 C 132.484375 713.789063 118.617188 712.683594 104.910156 710.496094 C 101.589844 709.96875 98.226563 711.042969 96.898438 713.902344 C 95.773438 716.335938 96.527344 720.09375 99.675781 721.25 C 100.21875 721.449219 100.761719 721.640625 101.304688 721.835938 C 101.300781 721.839844 101.300781 721.84375 101.300781 721.84375 C 101.316406 721.847656 101.328125 721.847656 101.347656 721.851563 C 143.4375 737.046875 189.722656 742.964844 235.074219 738.335938 C 235.191406 738.320313 235.308594 738.308594 235.425781 738.296875 C 214.578125 745.21875 191.417969 747.492188 169.335938 748.335938 C 158.914063 748.730469 148.480469 748.816406 138.046875 748.832031 C 131.628906 748.84375 128.382813 757.144531 134.621094 759.796875 C 157.847656 769.667969 183.921875 773.132813 209.164063 770.207031 C 193.507813 777.605469 176.183594 782.390625 158.488281 784 C 149.734375 784.796875 140.921875 784.859375 132.152344 784.222656 C 125.574219 783.75 122.703125 792.75 128.726563 795.1875 C 159.601563 807.695313 190.601563 820.25 223.007813 829.539063 C 255.589844 838.878906 289.371094 843.929688 323.636719 845.28125 C 357.984375 846.636719 392.652344 844.820313 426.703125 840.820313 C 459.402344 836.980469 491.089844 829.519531 520.152344 815.730469 C 549.84375 801.644531 576.050781 782.285156 598.492188 760.429688 C 603.472656 755.578125 597.171875 747.679688 590.265625 751.1875 C 565.933594 763.554688 539.980469 776.621094 511.972656 780.914063 L 608.917969 724.8125 C 620.171875 718.304688 631.421875 711.792969 642.675781 705.28125 C 649.902344 701.097656 643.566406 691.46875 635.824219 695.121094 C 613.53125 705.640625 591.160156 716.199219 568.160156 725.542969 C 586.609375 712.03125 603.878906 697.320313 619.714844 681.507813 C 627.585938 673.648438 635.082031 665.511719 642.273438 657.179688 C 646.320313 652.484375 638.386719 645.859375 632.984375 649.128906 C 617.222656 658.664063 603.519531 670.324219 589.121094 681.292969 C 575.863281 691.398438 561.429688 701.058594 544.667969 706.355469 C 541.386719 707.390625 538.074219 708.238281 534.722656 708.886719 C 547.675781 698.519531 560.628906 688.15625 573.582031 677.789063 C 590.289063 664.421875 607.335938 651.292969 623.242188 637.195313 C 631.648438 629.742188 639.578125 621.941406 646.9375 613.699219 C 646.941406 613.695313 646.949219 613.691406 646.953125 613.6875 C 646.953125 613.6875 646.949219 613.683594 646.949219 613.683594 C 647.304688 613.289063 647.660156 612.894531 648.015625 612.496094 C 650.039063 610.199219 648.691406 606.476563 646.265625 604.90625 "/>
<path style=" stroke:none;fill-rule:nonzero;fill:rgb(62.693787%,49.804688%,29.026794%);fill-opacity:1;" d="M 375.4375 720.339844 L 373.914063 720.140625 C 375.367188 719.589844 376.804688 719.015625 378.230469 718.417969 C 377.539063 718.925781 376.839844 719.425781 376.125 719.902344 C 375.898438 720.054688 375.664063 720.191406 375.4375 720.339844 M 629.507813 722.757813 C 598.886719 737.683594 562.855469 743.707031 528.046875 739.863281 C 532.773438 736.417969 537.316406 732.816406 541.769531 729.40625 C 555.519531 718.894531 568.722656 707.847656 581.328125 696.316406 C 588.585938 689.683594 595.632813 682.878906 602.492188 675.9375 C 607.226563 671.140625 600.046875 664.925781 594.492188 669.027344 C 570.15625 687.003906 541.953125 701.195313 511.816406 710.566406 C 506.144531 712.328125 500.410156 713.921875 494.617188 715.351563 C 506.25 704.433594 516.597656 692.496094 525.425781 679.703125 C 530.320313 672.613281 534.710938 665.277344 538.613281 657.742188 C 539.765625 655.523438 539.570313 653 537.15625 651.445313 C 535.027344 650.070313 531.621094 649.96875 529.730469 651.824219 C 497.292969 683.628906 461.160156 717.171875 414.210938 732.59375 C 414.039063 732.648438 413.871094 732.699219 413.703125 732.753906 C 418.601563 729.453125 423.378906 726.007813 428.003906 722.4375 C 443.644531 710.371094 457.550781 696.730469 469.660156 681.953125 C 471.269531 679.992188 470.285156 677 468.203125 675.65625 C 465.851563 674.140625 462.957031 674.398438 460.773438 676.035156 C 437.453125 693.554688 412.703125 710.914063 384.867188 722.683594 C 385.046875 722.449219 385.230469 722.21875 385.40625 721.984375 C 390.730469 717.765625 395.328125 712.859375 398.964844 707.394531 C 400.925781 704.441406 396.984375 700.980469 393.546875 702.71875 C 374.117188 712.539063 351.226563 711.304688 329.273438 711.371094 C 313.511719 704.253906 299.148438 694.800781 287.074219 683.527344 C 279.769531 676.710938 273.417969 669.238281 268.007813 661.207031 C 265.425781 657.375 259.246094 658.535156 257.667969 662.375 C 255.585938 667.453125 258.726563 672.265625 261.410156 676.65625 C 264.074219 681.019531 266.785156 685.363281 269.601563 689.65625 C 271.136719 692 272.703125 694.328125 274.308594 696.636719 C 257.207031 688.820313 241.007813 679.585938 226.011719 669.019531 C 223.726563 666.320313 221.527344 663.570313 219.425781 660.757813 C 216.550781 656.914063 210.089844 658.132813 209.027344 662.285156 C 207.445313 663.328125 206.582031 665.023438 207.480469 667.101563 C 207.992188 668.285156 208.515625 669.464844 209.039063 670.640625 C 209.210938 672.429688 209.480469 674.203125 209.835938 675.964844 C 203.960938 668.921875 198.355469 661.703125 193.035156 654.320313 C 187.917969 647.222656 183.074219 639.980469 178.480469 632.617188 C 175.511719 627.855469 165.796875 631.136719 168.140625 636.378906 C 175.347656 652.472656 182.933594 669 192.878906 684.121094 C 178.980469 676.628906 165.15625 669.042969 151.40625 661.347656 C 146.898438 658.824219 140.148438 664.089844 143.667969 668.03125 C 150.15625 675.304688 156.917969 682.59375 164.121094 689.53125 C 187.636719 714.328125 213.257813 738.015625 244.183594 755.648438 C 226.457031 750.15625 209.339844 743.277344 193.058594 735.09375 C 192.550781 734.78125 192.042969 734.476563 191.535156 734.167969 C 180.042969 727.175781 168.082031 720.425781 158.382813 711.546875 C 153.878906 707.421875 146.496094 712.675781 149.496094 717.464844 C 149.789063 717.925781 150.085938 718.386719 150.386719 718.84375 C 150.144531 719.988281 150.402344 721.207031 150.972656 722.363281 C 153.449219 727.402344 156.429688 732.226563 159.839844 736.808594 C 160.789063 738.511719 161.789063 740.195313 162.808594 741.871094 C 150.257813 739.523438 137.925781 736.324219 125.925781 732.339844 C 119.894531 730.335938 116.242188 738.382813 121.421875 741.183594 C 142.601563 758.417969 167.777344 772.144531 195.257813 780.375 C 197.347656 782.226563 199.488281 784.035156 201.671875 785.800781 C 187.703125 783.433594 173.949219 780.085938 160.601563 775.769531 C 147.894531 771.65625 135.632813 766.597656 123.878906 760.753906 C 122.121094 759.878906 120.414063 759.902344 118.996094 760.457031 C 117.441406 760.527344 115.960938 761.128906 114.933594 762.316406 C 113.378906 764.109375 113.171875 767.15625 115.375 768.730469 C 117.25 770.070313 119.148438 771.386719 121.070313 772.675781 C 141.949219 790.117188 166.628906 803.800781 193.421875 813.480469 C 210.65625 819.707031 228.773438 824.15625 247.238281 826.75 C 259.769531 829.941406 272.308594 833.117188 284.863281 836.238281 C 289.84375 837.476563 294.835938 838.609375 299.851563 839.609375 C 300.734375 840.28125 301.925781 840.746094 303.4375 840.84375 C 305.050781 840.949219 306.667969 841.046875 308.28125 841.140625 C 313.183594 841.945313 318.121094 842.597656 323.117188 843.0625 C 336.019531 844.257813 349.023438 844.496094 361.984375 844.890625 C 413.671875 846.460938 466.066406 847.347656 516.796875 837.273438 C 543.089844 832.050781 568.726563 823.804688 591.871094 811.757813 C 592.644531 811.355469 593.230469 810.875 593.664063 810.347656 C 598.203125 807.96875 602.597656 805.367188 606.832031 802.507813 C 611.179688 799.566406 606.449219 792.519531 601.328125 794.34375 C 574.867188 803.769531 545.960938 806.949219 517.828125 803.6875 C 523.0625 800.972656 528.152344 798.042969 533.132813 794.980469 C 549.398438 784.984375 565.121094 774.273438 580.710938 763.433594 C 599.355469 753.3125 617.308594 742.257813 635.214844 731.191406 C 641.039063 727.59375 635.972656 719.605469 629.507813 722.757813 "/>
<path style=" stroke:none;fill-rule:nonzero;fill:rgb(67.771912%,57.617188%,40.795898%);fill-opacity:1;" d="M 547.777344 775.417969 C 541.378906 777.773438 535.417969 780.71875 529.609375 783.871094 C 492.394531 798.824219 453.621094 808.65625 414.308594 812.988281 C 432.433594 807.363281 450.074219 799.714844 466.894531 790.289063 C 479.257813 783.363281 491.152344 775.441406 502.535156 766.648438 C 505 764.746094 506.261719 761.417969 505 758.195313 C 503.894531 755.367188 500.734375 753.039063 497.890625 754.277344 C 467.863281 767.328125 436.582031 776.855469 404.757813 782.410156 C 415.355469 773.640625 425.417969 764.128906 435.0625 755.644531 C 437.539063 753.460938 440.019531 751.277344 442.5 749.097656 C 445.382813 746.753906 448.269531 744.421875 451.160156 742.113281 C 452.023438 741.429688 452.746094 740.582031 453.265625 739.621094 L 464.433594 729.789063 C 466.765625 727.738281 466.582031 723.269531 464.90625 720.902344 C 463.027344 718.253906 459.816406 717.480469 457.132813 719.160156 C 425.308594 739.070313 391.332031 754.195313 356.066406 764.296875 C 356.285156 763.867188 356.507813 763.441406 356.714844 763.003906 C 360.078125 759.015625 363.039063 754.582031 365.503906 749.757813 C 368.355469 744.175781 362.410156 736.53125 357.257813 740.496094 C 346.910156 748.46875 336.105469 755.664063 324.910156 762.003906 C 318.46875 759.832031 312.113281 757.273438 305.792969 754.808594 C 282.101563 745.578125 258.734375 735.277344 235.804688 723.875 C 222.878906 717.449219 210.089844 710.679688 197.433594 703.601563 C 192.933594 701.085938 186.996094 705.269531 188.582031 711.246094 C 192.886719 727.507813 202.515625 740.859375 213.5 752.152344 C 224.738281 763.699219 237.132813 774.375 250.425781 782.753906 C 253.128906 784.453125 255.886719 786.054688 258.695313 787.539063 C 238.636719 789.28125 218.515625 789.304688 198.738281 785.445313 C 188.433594 783.4375 178.339844 780.351563 168.582031 776.121094 C 165.820313 774.921875 162.492188 777.1875 161.472656 780.039063 C 160.269531 783.402344 161.464844 786.410156 163.9375 788.492188 C 170.613281 794.121094 177.609375 799.261719 184.855469 803.902344 C 214.867188 831.683594 261.183594 842.238281 305.398438 845.769531 C 332.308594 847.917969 359.671875 848.695313 386.6875 847.679688 C 412.554688 846.703125 438.511719 843.710938 463.144531 837.035156 C 488.445313 830.179688 512.257813 819.578125 531.660156 804.574219 C 532.199219 804.160156 532.546875 803.710938 532.746094 803.253906 C 534.765625 801.46875 536.667969 799.589844 538.460938 797.617188 C 538.792969 797.253906 538.992188 796.878906 539.089844 796.496094 C 544.308594 791.28125 549.148438 785.816406 553.546875 780.113281 C 555.988281 776.949219 551.328125 774.105469 547.777344 775.417969 "/>
<path style=" stroke:none;fill-rule:nonzero;fill:rgb(62.693787%,49.804688%,29.026794%);fill-opacity:1;" d="M 439.921875 832.136719 C 439.621094 831.757813 439.265625 831.40625 438.851563 831.082031 C 443.203125 830.804688 447.558594 830.53125 451.902344 830.21875 C 447.96875 830.980469 443.960938 831.605469 439.921875 832.136719 M 498.089844 812.785156 C 475.617188 814.984375 453.082031 816.746094 430.503906 818.089844 C 446.269531 812.359375 461.617188 805.960938 476.511719 799.046875 C 485.679688 794.789063 479.246094 785.585938 469.613281 786.679688 C 450.238281 788.886719 430.863281 791.085938 411.488281 793.289063 C 423.679688 785.691406 434.808594 777.066406 444.6875 767.5625 C 444.703125 767.546875 444.726563 767.535156 444.746094 767.523438 C 444.742188 767.519531 444.734375 767.519531 444.734375 767.515625 C 445.203125 767.0625 445.679688 766.609375 446.144531 766.152344 C 452.679688 759.722656 439.277344 753.261719 432.089844 757.953125 C 417.921875 767.199219 402.132813 774.746094 385.28125 780.53125 C 388.722656 777.410156 391.875 774.085938 394.667969 770.558594 C 400.097656 763.703125 388.058594 757.472656 380.613281 762.359375 C 368.601563 770.25 355.847656 777.421875 342.394531 783.824219 C 321.714844 774.160156 301.808594 763.464844 282.058594 752.875 C 274.183594 748.652344 266.15625 756.625 269.816406 762.132813 C 279.339844 776.457031 293.328125 787.910156 309.523438 797.582031 C 308.402344 798.054688 307.308594 798.554688 306.289063 799.097656 C 287.570313 795.273438 268.832031 791.5 250.066406 787.816406 C 243.175781 786.460938 235.054688 792.773438 239.957031 797.753906 C 245.453125 803.332031 251.542969 808.492188 258.1875 813.171875 C 242.96875 810.484375 227.835938 807.496094 212.808594 804.199219 C 202.726563 801.988281 197.699219 812.417969 205.910156 816.566406 C 237.304688 832.429688 273.671875 841.105469 310.921875 844.363281 C 311.765625 844.457031 312.609375 844.539063 313.449219 844.628906 C 340.746094 847.976563 368.480469 849.304688 396.105469 848.488281 C 433.25 847.390625 476.03125 844.601563 504.417969 824.335938 C 509.597656 820.640625 505.996094 812.011719 498.089844 812.785156 "/>
<path style=" stroke:none;fill-rule:nonzero;fill:rgb(62.693787%,49.804688%,29.026794%);fill-opacity:1;" d="M 345.710938 606.371094 C 340.609375 611.347656 332.429688 610.574219 328.871094 604.65625 C 326.871094 601.332031 321.03125 604.269531 323.03125 607.59375 C 328.507813 616.699219 342.601563 618.183594 350.492188 610.488281 C 353.363281 607.6875 348.597656 603.558594 345.710938 606.371094 "/>
<path style=" stroke:none;fill-rule:nonzero;fill:rgb(62.693787%,49.804688%,29.026794%);fill-opacity:1;" d="M 398.875 605.570313 C 394.652344 612.601563 385.972656 609.304688 380.730469 605.582031 C 377.671875 603.410156 374.765625 608.453125 377.796875 610.605469 C 385.859375 616.335938 398.015625 618.3125 403.898438 608.507813 C 405.828125 605.289063 400.800781 602.359375 398.875 605.570313 "/>
<path style=" stroke:none;fill-rule:nonzero;fill:rgb(62.693787%,49.804688%,29.026794%);fill-opacity:1;" d="M 497.148438 595.3125 C 489.941406 592.652344 482.410156 596.835938 477.921875 602.378906 C 475.585938 605.265625 479.675781 609.40625 482.035156 606.492188 C 484.679688 603.226563 488.484375 600.054688 492.976563 600.324219 C 497.183594 600.578125 500.773438 604.574219 499.480469 608.78125 C 498.378906 612.371094 503.996094 613.902344 505.09375 610.328125 C 507.003906 604.101563 503.160156 597.527344 497.148438 595.3125 "/>
<path style=" stroke:none;fill-rule:nonzero;fill:rgb(62.693787%,49.804688%,29.026794%);fill-opacity:1;" d="M 536.433594 605.082031 C 530.382813 604.261719 523.949219 608.171875 522.308594 614.0625 C 521.296875 617.679688 526.910156 619.21875 527.917969 615.609375 C 528.78125 612.515625 532.8125 610.027344 536.0625 610.875 C 539.671875 611.8125 539.953125 616.894531 540.203125 619.855469 C 540.523438 623.558594 546.34375 623.59375 546.023438 619.855469 C 545.496094 613.679688 543.746094 606.074219 536.433594 605.082031 "/>
<path style=" stroke:none;fill-rule:nonzero;fill:rgb(62.693787%,49.804688%,29.026794%);fill-opacity:1;" d="M 233.074219 594.203125 C 228.417969 590.003906 222.671875 585.5625 216 587.445313 C 210.148438 589.097656 206.679688 594.675781 204.988281 600.164063 C 203.882813 603.75 209.496094 605.285156 210.597656 601.710938 C 211.671875 598.234375 213.746094 594.125 217.546875 593.054688 C 221.925781 591.820313 225.988281 595.640625 228.960938 598.316406 C 231.738281 600.816406 235.863281 596.714844 233.074219 594.203125 "/>
<path style=" stroke:none;fill-rule:nonzero;fill:rgb(62.693787%,49.804688%,29.026794%);fill-opacity:1;" d="M 278.285156 583.828125 C 273.535156 579.003906 266.515625 575.421875 259.644531 577.59375 C 253.886719 579.410156 249.535156 584.976563 250.210938 591.117188 C 250.617188 594.796875 256.441406 594.839844 256.03125 591.117188 C 255.574219 586.972656 258.453125 583.554688 262.5625 582.90625 C 267.054688 582.195313 271.164063 584.890625 274.171875 587.941406 C 276.804688 590.613281 280.917969 586.5 278.285156 583.828125 "/>
<path style=" stroke:none;fill-rule:nonzero;fill:rgb(62.693787%,49.804688%,29.026794%);fill-opacity:1;" d="M 362.046875 630.710938 C 356.695313 630.710938 356.6875 639.023438 362.046875 639.023438 C 367.398438 639.023438 367.40625 630.710938 362.046875 630.710938 "/>
<path style=" stroke:none;fill-rule:nonzero;fill:rgb(62.693787%,49.804688%,29.026794%);fill-opacity:1;" d="M 245.578125 609.828125 C 240.226563 609.828125 240.21875 618.144531 245.578125 618.144531 C 250.925781 618.144531 250.933594 609.828125 245.578125 609.828125 "/>
<path style=" stroke:none;fill-rule:nonzero;fill:rgb(62.693787%,49.804688%,29.026794%);fill-opacity:1;" d="M 506.820313 629.78125 C 501.472656 629.78125 501.464844 638.09375 506.820313 638.09375 C 512.171875 638.09375 512.179688 629.78125 506.820313 629.78125 "/>
<path style=" stroke:none;fill-rule:nonzero;fill:rgb(62.693787%,49.804688%,29.026794%);fill-opacity:1;" d="M 211.609375 85.769531 C 211.609375 78.808594 214.398438 72.941406 219.96875 68.160156 C 225.539063 63.390625 232.386719 61 240.515625 61 C 248.636719 61 255.488281 63.390625 261.0625 68.160156 C 266.632813 72.941406 269.421875 78.808594 269.421875 85.769531 L 269.421875 253.808594 C 269.421875 257.988281 268.492188 261.921875 266.632813 265.601563 C 264.773438 269.289063 262.222656 272.46875 258.972656 275.148438 C 255.71875 277.839844 252.007813 279.96875 247.828125 281.570313 C 243.648438 283.160156 239.125 283.960938 234.246094 283.960938 C 227.742188 283.960938 221.765625 282.558594 216.3125 279.78125 C 210.855469 276.988281 206.503906 273.210938 203.253906 268.441406 L 142.515625 176.710938 C 139.039063 171.160156 130.46875 173.628906 130.46875 180.171875 L 130.46875 259.179688 C 130.46875 266.148438 127.679688 272.019531 122.109375 276.789063 C 116.539063 281.570313 109.6875 283.960938 101.5625 283.960938 C 93.433594 283.960938 86.589844 281.570313 81.015625 276.789063 C 75.445313 272.019531 72.660156 266.148438 72.660156 259.179688 L 72.660156 91.441406 C 72.660156 87.261719 73.582031 83.339844 75.445313 79.648438 C 77.300781 75.96875 79.851563 72.738281 83.105469 69.949219 C 86.355469 67.171875 90.183594 64.980469 94.597656 63.390625 C 99.007813 61.800781 103.652344 61 108.527344 61 C 114.796875 61 120.71875 62.339844 126.289063 65.03125 C 131.863281 67.71875 136.152344 71.550781 139.171875 76.519531 L 199.496094 169.441406 C 202.894531 175.121094 211.609375 172.710938 211.609375 166.089844 "/>
<path style=" stroke:none;fill-rule:nonzero;fill:rgb(67.771912%,57.617188%,40.795898%);fill-opacity:1;" d="M 199.257813 1072.214844 C 199.257813 1065.96875 201.753906 1060.703125 206.75 1056.421875 C 211.746094 1052.140625 217.886719 1050 225.175781 1050 C 232.457031 1050 238.601563 1052.140625 243.597656 1056.421875 C 248.59375 1060.703125 251.09375 1065.96875 251.09375 1072.214844 L 251.09375 1222.890625 C 251.09375 1226.640625 250.257813 1230.164063 248.59375 1233.464844 C 246.925781 1236.765625 244.636719 1239.617188 241.726563 1242.027344 C 238.808594 1244.4375 235.480469 1246.351563 231.734375 1247.78125 C 227.984375 1249.207031 223.925781 1249.921875 219.554688 1249.921875 C 213.722656 1249.921875 208.359375 1248.671875 203.472656 1246.175781 C 198.578125 1243.679688 194.675781 1240.285156 191.761719 1236.007813 L 137.296875 1153.753906 C 134.179688 1148.78125 126.496094 1150.988281 126.496094 1156.859375 L 126.496094 1227.710938 C 126.496094 1233.957031 123.996094 1239.21875 119 1243.5 C 114.003906 1247.78125 107.859375 1249.921875 100.578125 1249.921875 C 93.289063 1249.921875 87.148438 1247.78125 82.152344 1243.5 C 77.15625 1239.21875 74.660156 1233.957031 74.660156 1227.710938 L 74.660156 1077.296875 C 74.660156 1073.550781 75.488281 1070.03125 77.15625 1066.726563 C 78.820313 1063.429688 81.109375 1060.53125 84.027344 1058.027344 C 86.941406 1055.53125 90.375 1053.570313 94.332031 1052.140625 C 98.285156 1050.714844 102.449219 1050 106.824219 1050 C 112.445313 1050 117.753906 1051.203125 122.75 1053.613281 C 127.746094 1056.023438 131.59375 1059.460938 134.300781 1063.917969 L 188.390625 1147.238281 C 191.441406 1152.328125 199.257813 1150.164063 199.257813 1144.234375 "/>
<path style=" stroke:none;fill-rule:nonzero;fill:rgb(67.771912%,57.617188%,40.795898%);fill-opacity:1;" d="M 356.859375 1169.292969 C 362.984375 1169.292969 367.464844 1163.179688 365.261719 1157.464844 C 365.246094 1157.425781 365.230469 1157.390625 365.21875 1157.351563 C 363.785156 1153.6875 361.953125 1150.511719 359.714844 1147.824219 C 357.476563 1145.144531 354.925781 1143.042969 352.066406 1141.523438 C 349.207031 1140.003906 346.164063 1139.238281 342.945313 1139.238281 C 339.722656 1139.238281 336.679688 1140.003906 333.820313 1141.523438 C 330.957031 1143.042969 328.410156 1145.144531 326.175781 1147.824219 C 323.933594 1150.511719 322.1875 1153.6875 320.941406 1157.351563 C 320.886719 1157.507813 320.835938 1157.660156 320.785156 1157.816406 C 318.941406 1163.492188 323.347656 1169.292969 329.3125 1169.292969 Z M 374.609375 1208.738281 C 379.078125 1208.738281 382.96875 1210.441406 386.28125 1213.839844 C 389.589844 1217.238281 391.246094 1221.265625 391.246094 1225.914063 C 391.246094 1228.421875 390.484375 1231.015625 388.964844 1233.695313 C 387.441406 1236.378906 384.628906 1238.976563 380.511719 1241.476563 C 376.039063 1244.34375 370.628906 1246.664063 364.277344 1248.453125 C 357.925781 1250.242188 351.351563 1251.136719 344.554688 1251.136719 C 335.96875 1251.136719 327.648438 1249.527344 319.597656 1246.308594 C 311.550781 1243.089844 304.394531 1238.390625 298.132813 1232.222656 C 291.867188 1226.050781 286.863281 1218.492188 283.105469 1209.546875 C 279.347656 1200.601563 277.46875 1190.40625 277.46875 1178.953125 C 277.46875 1168.046875 279.214844 1158.117188 282.703125 1149.167969 C 286.191406 1140.226563 290.886719 1132.578125 296.789063 1126.226563 C 302.695313 1119.878906 309.625 1115.003906 317.585938 1111.601563 C 325.546875 1108.203125 333.996094 1106.503906 342.945313 1106.503906 C 352.78125 1106.503906 361.816406 1108.515625 370.046875 1112.539063 C 378.273438 1116.566406 385.253906 1121.757813 390.980469 1128.105469 C 396.699219 1134.457031 401.175781 1141.523438 404.394531 1149.304688 C 407.613281 1157.085938 409.222656 1164.734375 409.222656 1172.246094 C 409.222656 1180.296875 407.613281 1186.15625 404.394531 1189.820313 C 401.175781 1193.492188 397.238281 1195.324219 392.589844 1195.324219 L 328.972656 1195.324219 C 321.894531 1195.324219 319.894531 1203.195313 324.4375 1208.621094 C 328.019531 1212.898438 334.71875 1218.402344 345.089844 1218.402344 C 348.488281 1218.402344 351.886719 1217.824219 355.289063 1216.65625 C 358.683594 1215.492188 361.726563 1214.019531 364.410156 1212.230469 C 367.988281 1209.90625 371.390625 1208.738281 374.609375 1208.738281 "/>
<path style=" stroke:none;fill-rule:nonzero;fill:rgb(62.693787%,49.804688%,29.026794%);fill-opacity:1;" d="M 324.785156 122.890625 C 331.367188 122.890625 336.554688 125.039063 340.347656 129.328125 C 341.515625 130.648438 342.507813 132.019531 343.316406 133.441406 C 345.566406 137.359375 350.785156 138.371094 354.257813 135.46875 C 357.53125 132.738281 360.972656 130.398438 364.585938 128.429688 C 371.363281 124.738281 378.847656 122.890625 387.03125 122.890625 C 394.214844 122.890625 401.042969 124.390625 407.53125 127.378906 C 414.011719 130.371094 419.648438 134.410156 424.4375 139.5 C 429.222656 144.589844 433.015625 150.53125 435.808594 157.308594 C 438.601563 164.089844 440 171.371094 440 179.148438 L 440 261.449219 C 440 267.839844 437.800781 273.21875 433.414063 277.609375 C 429.023438 282 423.640625 284.191406 417.253906 284.191406 C 410.867188 284.191406 405.433594 282 400.945313 277.609375 C 396.457031 273.21875 394.214844 267.839844 394.214844 261.449219 L 394.214844 187.230469 C 394.214844 168.878906 387.824219 159.699219 375.0625 159.699219 C 368.074219 159.699219 361.777344 159.800781 357.054688 164.660156 C 351.460938 170.398438 349.421875 178.839844 349.324219 186.621094 L 349.324219 260.550781 C 349.324219 266.941406 346.976563 272.46875 342.292969 277.160156 C 337.601563 281.851563 332.066406 284.191406 325.679688 284.191406 C 319.097656 284.191406 313.460938 281.851563 308.773438 277.160156 C 304.085938 272.46875 301.742188 266.941406 301.742188 260.550781 L 301.742188 145.039063 C 301.742188 138.859375 303.933594 133.621094 308.324219 129.328125 C 312.714844 125.039063 318.203125 122.890625 324.785156 122.890625 "/>
<path style=" stroke:none;fill-rule:nonzero;fill:rgb(67.771912%,57.617188%,40.795898%);fill-opacity:1;" d="M 437.699219 1150.976563 C 437.699219 1145.074219 438.8125 1139.4375 441.054688 1134.074219 C 443.289063 1128.703125 446.597656 1124.007813 450.980469 1119.984375 C 455.363281 1115.960938 460.820313 1112.738281 467.347656 1110.324219 C 473.878906 1107.90625 481.4375 1106.703125 490.023438 1106.703125 C 501.296875 1106.703125 510.640625 1108.625 518.066406 1112.472656 C 525.488281 1116.320313 531.078125 1121.371094 534.835938 1127.632813 C 536.085938 1129.777344 536.9375 1131.703125 537.386719 1133.402344 C 537.832031 1135.101563 538.058594 1136.667969 538.058594 1138.097656 C 538.058594 1142.75 536.3125 1146.910156 532.824219 1150.574219 C 529.335938 1154.242188 524.996094 1156.074219 519.808594 1156.074219 C 516.230469 1156.074219 512.96875 1155.136719 510.015625 1153.257813 C 507.0625 1151.378906 504.871094 1148.828125 503.441406 1145.609375 C 500.761719 1139.886719 496.105469 1137.023438 489.488281 1137.023438 C 484.835938 1137.023438 481.613281 1138.1875 479.828125 1140.511719 C 478.039063 1142.839844 477.144531 1145.34375 477.144531 1148.023438 C 477.144531 1152.855469 479.425781 1156.4375 483.988281 1158.757813 C 488.550781 1161.085938 494.589844 1163.320313 502.101563 1165.464844 C 506.570313 1166.71875 511.359375 1168.285156 516.457031 1170.164063 C 521.554688 1172.039063 526.292969 1174.550781 530.679688 1177.675781 C 535.058594 1180.808594 538.683594 1184.746094 541.546875 1189.484375 C 544.40625 1194.226563 545.839844 1200.085938 545.839844 1207.0625 C 545.839844 1209.203125 545.4375 1212.742188 544.632813 1217.660156 C 543.828125 1222.582031 541.679688 1227.5 538.191406 1232.417969 C 534.703125 1237.339844 529.289063 1241.722656 521.957031 1245.566406 C 514.621094 1249.410156 504.515625 1251.335938 491.636719 1251.335938 C 484.296875 1251.335938 477.902344 1250.707031 472.449219 1249.457031 C 466.992188 1248.203125 462.207031 1246.550781 458.09375 1244.492188 C 453.976563 1242.441406 450.53125 1240.113281 447.761719 1237.515625 C 444.984375 1234.925781 442.707031 1232.285156 440.917969 1229.601563 C 439.484375 1227.277344 438.503906 1225.265625 437.96875 1223.5625 C 437.429688 1221.867188 437.160156 1220.207031 437.160156 1218.601563 C 437.160156 1213.59375 438.859375 1209.203125 442.261719 1205.449219 C 445.65625 1201.691406 450.042969 1199.816406 455.40625 1199.816406 C 458.984375 1199.816406 462.292969 1200.753906 465.335938 1202.632813 C 468.378906 1204.511719 470.703125 1207.152344 472.316406 1210.546875 C 473.5625 1213.054688 475.621094 1215.425781 478.488281 1217.660156 C 481.347656 1219.898438 485.730469 1221.015625 491.636719 1221.015625 C 495.03125 1221.015625 497.761719 1220.613281 499.820313 1219.804688 C 501.871094 1219.003906 503.441406 1217.972656 504.515625 1216.71875 C 505.589844 1215.472656 506.261719 1214.214844 506.527344 1212.960938 C 506.796875 1211.714844 506.929688 1210.640625 506.929688 1209.746094 C 506.929688 1207.421875 506.347656 1205.449219 505.1875 1203.839844 C 504.019531 1202.230469 502.542969 1200.890625 500.761719 1199.816406 C 498.96875 1198.742188 497.003906 1197.847656 494.855469 1197.132813 C 492.707031 1196.417969 490.648438 1195.789063 488.683594 1195.253906 C 482.777344 1193.644531 476.785156 1191.765625 470.703125 1189.617188 C 464.621094 1187.472656 459.121094 1184.746094 454.203125 1181.433594 C 449.28125 1178.125 445.300781 1174.054688 442.261719 1169.222656 C 439.214844 1164.394531 437.699219 1158.3125 437.699219 1150.976563 "/>
<path style=" stroke:none;fill-rule:nonzero;fill:rgb(67.771912%,57.617188%,40.795898%);fill-opacity:1;" d="M 577.945313 1135.453125 C 575.09375 1132.671875 573.785156 1129.105469 573.785156 1124.988281 C 573.785156 1120.875 575.121094 1117.382813 577.945313 1114.65625 C 579.710938 1112.949219 582.234375 1111.945313 584.550781 1111.351563 C 588.046875 1110.453125 590.425781 1107.199219 590.425781 1103.589844 L 590.425781 1086.613281 C 590.425781 1080.710938 592.476563 1075.707031 596.597656 1071.589844 C 600.710938 1067.472656 605.71875 1065.414063 611.625 1065.414063 C 617.527344 1065.414063 622.53125 1067.472656 626.652344 1071.589844 C 630.761719 1075.707031 632.820313 1080.710938 632.820313 1086.613281 L 632.820313 1102.433594 C 632.820313 1106.886719 636.433594 1110.496094 640.886719 1110.496094 L 651.339844 1110.496094 C 655.453125 1110.496094 658.9375 1111.886719 661.800781 1114.65625 C 664.664063 1117.433594 666.097656 1120.875 666.097656 1124.988281 C 666.097656 1129.105469 664.664063 1132.59375 661.800781 1135.453125 C 658.9375 1138.316406 655.453125 1139.746094 651.339844 1139.746094 L 640.886719 1139.746094 C 636.433594 1139.746094 632.820313 1143.355469 632.820313 1147.808594 L 632.820313 1207.902344 C 632.820313 1211.484375 633.175781 1213.941406 633.894531 1215.285156 C 634.605469 1216.628906 636.21875 1217.296875 638.726563 1217.296875 L 646.507813 1217.296875 C 651.15625 1217.296875 655.09375 1218.90625 658.3125 1222.128906 C 661.535156 1225.347656 663.144531 1229.285156 663.144531 1233.933594 C 663.144531 1238.589844 661.535156 1242.480469 658.3125 1245.609375 C 655.09375 1248.734375 651.15625 1250.304688 646.507813 1250.304688 L 628.257813 1250.304688 C 616.273438 1250.304688 606.96875 1247.351563 600.351563 1241.449219 C 593.730469 1235.542969 590.425781 1226.0625 590.425781 1213.003906 L 590.425781 1146.871094 C 590.425781 1143.21875 587.960938 1140.066406 584.441406 1139.089844 C 582.316406 1138.496094 579.957031 1137.414063 577.945313 1135.453125 "/>
</g>
</svg>
