<?xml version="1.0" encoding="UTF-8"?>
<svg xmlns="http://www.w3.org/2000/svg" xmlns:xlink="http://www.w3.org/1999/xlink" width="750pt" height="1334pt" viewBox="0 0 750 1334" version="1.1">
<g id="surface1">
<path style=" stroke:none;fill-rule:nonzero;fill:rgb(39.208984%,80.076599%,76.171875%);fill-opacity:1;" d="M 607.355469 701.65625 C 604.066406 696.738281 599.96875 695.53125 594.929688 693.582031 C 580.671875 688.058594 569.40625 691.71875 552.902344 687.757813 C 546.574219 686.238281 532 679.039063 523.921875 674.335938 C 523.304688 673.976563 518.335938 671.308594 515.890625 669.824219 C 511.996094 667.460938 504.558594 662.5 500.601563 659.625 C 498.640625 658.203125 496.460938 657.097656 496.089844 655.320313 C 495.828125 654.046875 496.707031 653.925781 497.605469 653.601563 C 498.261719 653.371094 499.21875 653.714844 500.273438 654.066406 C 501.648438 654.53125 502.683594 655.566406 504.457031 656.453125 C 505.195313 656.824219 505.515625 657.285156 507.214844 657.777344 C 517.496094 660.753906 521.949219 661.886719 535.152344 661.085938 C 539.851563 660.800781 555.109375 656.9375 562.121094 652.398438 C 567.21875 649.101563 577.109375 639.714844 580.128906 635.144531 C 584.730469 628.179688 587.765625 622.53125 590.753906 616.746094 C 597.15625 604.367188 606.066406 588.671875 617.46875 583.859375 C 627.480469 579.636719 635.453125 582.59375 640.761719 587.902344 C 643.851563 590.992188 641.476563 591.730469 641.980469 594.273438 C 642.203125 595.378906 641.386719 595.269531 641.265625 596.210938 C 639.496094 596 634.289063 597.214844 633.277344 597.75 C 629.089844 599.980469 625.914063 602.953125 625.835938 607.277344 C 625.691406 615.292969 632.738281 619.890625 640.390625 619.28125 C 653.027344 618.28125 660.488281 608.652344 664.082031 597.117188 C 668.339844 586.242188 665.1875 576.875 657.839844 568.261719 C 652.269531 561.734375 644.734375 557.191406 636.886719 554.992188 C 629.039063 552.792969 623.136719 552.8125 615.175781 554.816406 C 606.164063 557.082031 596.863281 566.308594 591.773438 572.679688 C 581.503906 585.539063 578.785156 596.835938 567.753906 608.664063 C 564.476563 612.179688 558.28125 616.347656 553.519531 619.636719 C 547.167969 624.023438 540.042969 628.980469 532.402344 630.917969 C 526.753906 632.347656 522.265625 633.691406 516.503906 633.128906 C 507.089844 632.210938 499.070313 627.648438 489.390625 626.363281 C 482.148438 625.398438 476.699219 627.058594 467.855469 623.972656 C 467.054688 623.691406 455.851563 615.945313 454.160156 612.441406 C 452.9375 609.910156 450.785156 601.980469 450.769531 600.519531 C 450.710938 595.640625 453.605469 590.574219 454.714844 588.363281 C 457.035156 583.726563 461.128906 580.832031 463.503906 578.695313 C 475.097656 568.269531 475.664063 551.480469 475.777344 538.316406 C 477.921875 505.257813 467.472656 479.308594 448.789063 463.316406 C 422.027344 440.417969 388.210938 445.445313 378.261719 446.902344 C 370.6875 448.007813 334.371094 453.316406 313.03125 485.605469 C 296.257813 510.984375 298.234375 538.644531 301.199219 550.558594 C 303.554688 560.027344 305.488281 567.789063 312.148438 572.015625 C 315.765625 574.3125 320.234375 575.222656 322.730469 579.949219 C 323.332031 581.09375 325.128906 584.941406 323.609375 588.769531 C 323.355469 589.40625 322.261719 591.941406 318.320313 594.058594 C 307.683594 599.773438 292.210938 595.558594 292.210938 595.558594 C 274.839844 590.828125 263.144531 581.480469 252.910156 574.34375 C 238.210938 564.097656 193.761719 541.054688 182.535156 528.222656 C 178.230469 523.304688 170.800781 510.925781 161.84375 503.761719 C 158.964844 501.457031 149.671875 491.625 139.503906 493.617188 C 121.992188 497.054688 102.570313 518.34375 106.582031 539.011719 C 107.613281 544.324219 111.214844 549.421875 115.515625 552.992188 C 119.734375 557.421875 124.367188 560.433594 130.589844 560.480469 C 134.730469 560.511719 136.214844 556.863281 136.296875 553.261719 C 137.367188 549.308594 136.445313 545.0625 133.585938 542.421875 C 130.726563 539.777344 127.675781 539.902344 124.589844 538.066406 C 124.601563 537.605469 124.71875 536.738281 124.777344 536.257813 C 125.511719 530.234375 129.363281 523.785156 134.570313 521.578125 C 141.105469 518.808594 148.871094 524.703125 152.992188 527.125 C 159.5625 530.980469 162.4375 533.675781 166.550781 538.714844 C 177.75 550.316406 189.078125 553.886719 202.804688 564.855469 C 216.53125 575.828125 231.726563 591.613281 243.53125 606.058594 C 229.820313 605.6875 217.964844 599.988281 203.589844 599.777344 C 189.214844 599.566406 176.085938 603.359375 164.121094 614.574219 C 151.140625 626.742188 150.25 646.53125 134.90625 658.710938 C 134.792969 658.804688 134.628906 659.0625 134.445313 659.144531 C 127.558594 662.363281 121.019531 663.40625 113.828125 660.3125 C 109.664063 658.519531 106.355469 655.480469 104.210938 651.476563 C 101.351563 646.144531 101.558594 640.238281 100.191406 634.367188 C 98.980469 629.15625 97.230469 622.800781 92.226563 620.125 C 87.472656 617.585938 82.175781 619.609375 79.082031 623.421875 C 72.476563 631.542969 74.878906 640.289063 76.546875 649.492188 C 76.996094 655.59375 77.363281 655.046875 78.980469 662.359375 C 80.597656 669.667969 88.980469 678.359375 95.171875 684.179688 C 106.570313 694.890625 135.902344 683.625 139.640625 681.105469 C 156.179688 669.957031 158.933594 660.601563 167.867188 650.273438 C 174.914063 642.128906 178.933594 633.464844 187.226563 629.761719 C 198.804688 624.582031 209.308594 625.753906 220.019531 629.011719 C 230.21875 632.113281 237.519531 639.328125 246.195313 643.894531 C 249.6875 645.734375 252.160156 646.691406 255.234375 647.53125 C 257.558594 648.164063 257.953125 648.242188 260.105469 648.613281 C 259.785156 649.546875 261.5625 649.726563 260.359375 650.902344 C 257.394531 653.8125 255.789063 652.679688 250.011719 653.855469 C 246.136719 654.644531 246.007813 654.636719 236.71875 657.722656 C 229.738281 660.046875 208.9375 673.382813 203.164063 684.410156 C 199.207031 691.976563 193.71875 706.222656 192.828125 713.050781 C 191.230469 725.335938 190.953125 729.878906 187.339844 740.597656 C 185.765625 745.273438 183.132813 749.914063 177.785156 753.582031 C 177.007813 754.113281 173.128906 756.023438 169.847656 756.582031 C 161.5 757.996094 152.671875 755.765625 142.640625 758.011719 C 141.339844 758.304688 133.644531 762.347656 131.128906 764.835938 C 128.996094 766.9375 124.628906 774.25 123.441406 776.398438 C 119.253906 784.003906 118.71875 798.757813 118.804688 803.820313 C 118.933594 811.460938 120.824219 814.945313 123.253906 817.621094 C 126.671875 821.382813 127.09375 818.9375 130.285156 820.5 C 132.160156 819.207031 133.386719 818.734375 135.054688 817.011719 C 143.417969 808.363281 137.402344 796.660156 144.671875 787.542969 C 151.695313 778.730469 166.632813 782.726563 181.242188 776.417969 C 182.527344 775.863281 201.101563 766.941406 208.230469 757.15625 C 219.34375 741.910156 218.597656 716.855469 232.546875 699.53125 C 239.519531 690.871094 246.300781 687.304688 258.796875 680.898438 C 266.714844 676.84375 289.234375 667.097656 300.320313 675.527344 C 300.699219 675.816406 301.363281 675.902344 301.40625 676.347656 C 301.449219 676.796875 301.523438 676.996094 301.210938 677.574219 C 300.894531 678.148438 301.269531 677.785156 300.410156 678.691406 C 291.78125 687.765625 284.125 699.5625 279.664063 711.261719 C 277.933594 715.804688 277.480469 721.5 277.476563 725.183594 C 277.445313 740.832031 283.523438 752.703125 286.53125 767.421875 C 288.277344 775.976563 289.203125 785.089844 289.242188 793.886719 C 285.566406 804.582031 281.863281 811.714844 272.871094 819.695313 C 263.882813 827.671875 250.5625 835.863281 237.980469 836.425781 C 232.34375 836.675781 229.195313 834.0625 226.398438 830.296875 C 223.402344 826.265625 223.738281 821.574219 219.714844 818.574219 C 215.6875 815.574219 210.90625 816.210938 207.203125 819.363281 C 203.878906 822.195313 203.335938 826.003906 203.109375 830.035156 C 203.09375 830.316406 203.0625 830.378906 203.054688 830.511719 C 202.988281 832.113281 202.6875 833.875 202.90625 835.335938 C 204.410156 845.214844 204.847656 850.0625 211.503906 858.980469 C 214.386719 862.839844 221.121094 868.527344 227.964844 870.230469 C 237.785156 872.675781 254.789063 866.515625 262.164063 863.15625 C 277.039063 856.382813 291.152344 843.09375 300.957031 835.824219 C 317.511719 823.546875 321.089844 798.449219 321.679688 786.183594 C 322.917969 760.519531 324.480469 753.03125 327.90625 730.117188 C 328.421875 726.683594 329.722656 717.949219 331.488281 712.09375 C 338.378906 689.230469 356.152344 666.984375 379.253906 658.179688 C 384.066406 678.210938 390.414063 694.507813 400.042969 713.222656 C 412.894531 738.207031 429.996094 755.792969 446.457031 781.335938 C 454.847656 794.355469 473.589844 824.824219 448.164063 835.378906 C 447.09375 835.820313 446.046875 836.859375 444.714844 837.042969 C 440.914063 837.226563 434.253906 836.128906 431.109375 835.652344 C 426.265625 834.917969 423.117188 833.953125 421.019531 830.660156 C 418.925781 827.363281 419.214844 824.027344 417.039063 821.414063 C 414.863281 818.800781 412.414063 816.363281 408.925781 817.015625 C 395.898438 819.457031 397.148438 833.695313 403.234375 842.789063 C 403.265625 842.839844 403.203125 842.84375 403.257813 842.945313 C 405.121094 846.097656 404.988281 847.300781 408.480469 850.253906 C 411.078125 852.453125 415.160156 855.808594 420.203125 856.640625 C 431.644531 858.523438 445.929688 857.925781 456.828125 852.769531 C 486.011719 838.960938 486.160156 823.277344 476.71875 793.828125 C 474.253906 786.132813 468.167969 775.105469 464.105469 767.476563 C 457.785156 755.601563 450.144531 745.429688 443.597656 733.664063 C 439.003906 723.964844 432.960938 705.234375 434.050781 696.148438 C 434.769531 690.167969 434.890625 692.695313 435.789063 689.554688 C 436.683594 686.410156 437.441406 686.535156 438.671875 683.835938 C 439.003906 683.097656 440.128906 682.027344 440.898438 681.121094 C 441.054688 680.9375 441.96875 680.089844 442.5 679.953125 C 442.847656 679.863281 443.464844 679.53125 443.917969 679.585938 C 444.371094 679.636719 444.777344 679.667969 445.144531 680.117188 C 445.511719 680.5625 445.589844 681.164063 445.695313 681.90625 C 445.769531 682.4375 445.800781 683.058594 445.800781 683.824219 C 445.796875 689.953125 449.511719 695.765625 452.050781 700.796875 C 457.214844 711.023438 454.632813 714.757813 458.960938 727.058594 C 462.914063 738.308594 475.855469 751.21875 488.636719 757.40625 C 497.488281 761.691406 507.1875 765.503906 517.15625 767.386719 C 519.886719 767.898438 523.25 769.035156 525.6875 770.859375 C 525.992188 771.085938 526.566406 771.570313 526.863281 771.863281 C 527.550781 775.785156 527.316406 778.761719 523.996094 781.28125 C 523.398438 781.371094 522.765625 781.460938 522.171875 781.535156 C 521.871094 781.570313 521.558594 781.644531 521.289063 781.71875 C 521.019531 781.792969 520.65625 781.820313 520.390625 781.914063 C 515.304688 783.78125 510.296875 787.707031 512.011719 793.777344 C 514.636719 803.085938 524.273438 803.40625 532.554688 802.265625 C 532.566406 802.261719 532.589844 802.261719 532.609375 802.257813 C 536.128906 801.664063 538.699219 800.53125 541.914063 798.652344 C 548.632813 794.722656 552.078125 784.707031 552.101563 778.453125 C 552.132813 769.9375 544.925781 762.519531 541.050781 759.628906 C 527.128906 749.238281 520.652344 754.554688 504.269531 744.898438 C 500.820313 742.867188 482.570313 728.128906 483.136719 716.976563 C 483.378906 712.167969 483.1875 703.429688 483.050781 697.507813 C 482.960938 693.679688 480.617188 688.015625 480.109375 684.046875 C 494.324219 689.660156 510.144531 703.714844 523.960938 710.339844 C 530.804688 713.621094 538.378906 716.210938 543.394531 716.011719 C 552.511719 715.652344 560.609375 714.566406 567.527344 713.753906 C 575.605469 712.804688 585.179688 713.699219 589.527344 717.203125 C 592.777344 719.816406 592.378906 722.226563 592.597656 722.914063 C 593.703125 726.441406 592.554688 726.882813 592.300781 729.550781 C 590.394531 731.09375 589.097656 732.449219 586.710938 733.585938 C 585.367188 734.226563 583.003906 734.914063 581.339844 734.605469 C 579.128906 732.777344 577.796875 730.648438 574.824219 729.882813 C 572.476563 729.277344 569.386719 729.410156 567.382813 731.03125 C 562.089844 735.304688 562.316406 742.09375 567.507813 746.316406 C 574.035156 751.628906 581.46875 751.457031 589.355469 750.363281 C 593.496094 749.59375 597.390625 749.929688 601.011719 747.097656 C 615.28125 735.941406 617.136719 716.277344 607.355469 701.65625 "/>
<path style=" stroke:none;fill-rule:nonzero;fill:rgb(22.75238%,60.742188%,56.054688%);fill-opacity:1;" d="M 244.171875 594.921875 C 255.753906 594.921875 255.773438 576.921875 244.171875 576.921875 C 232.589844 576.921875 232.570313 594.921875 244.171875 594.921875 "/>
<path style=" stroke:none;fill-rule:nonzero;fill:rgb(22.75238%,60.742188%,56.054688%);fill-opacity:1;" d="M 224.648438 577.828125 C 238.164063 577.828125 238.1875 556.828125 224.648438 556.828125 C 211.136719 556.828125 211.113281 577.828125 224.648438 577.828125 "/>
<path style=" stroke:none;fill-rule:nonzero;fill:rgb(22.75238%,60.742188%,56.054688%);fill-opacity:1;" d="M 126.519531 520.261719 C 136.171875 520.261719 136.1875 505.261719 126.519531 505.261719 C 116.867188 505.261719 116.851563 520.261719 126.519531 520.261719 "/>
<path style=" stroke:none;fill-rule:nonzero;fill:rgb(22.75238%,60.742188%,56.054688%);fill-opacity:1;" d="M 116.820313 538.773438 C 126.472656 538.773438 126.488281 523.773438 116.820313 523.773438 C 107.167969 523.773438 107.152344 538.773438 116.820313 538.773438 "/>
<path style=" stroke:none;fill-rule:nonzero;fill:rgb(22.75238%,60.742188%,56.054688%);fill-opacity:1;" d="M 148.019531 516.972656 C 159.601563 516.972656 159.621094 498.972656 148.019531 498.972656 C 136.4375 498.972656 136.421875 516.972656 148.019531 516.972656 "/>
<path style=" stroke:none;fill-rule:nonzero;fill:rgb(22.75238%,60.742188%,56.054688%);fill-opacity:1;" d="M 208.449219 564.746094 C 220.03125 564.746094 220.050781 546.746094 208.449219 546.746094 C 196.867188 546.746094 196.847656 564.746094 208.449219 564.746094 "/>
<path style=" stroke:none;fill-rule:nonzero;fill:rgb(22.75238%,60.742188%,56.054688%);fill-opacity:1;" d="M 190.113281 552.722656 C 199.765625 552.722656 199.78125 537.722656 190.113281 537.722656 C 180.464844 537.722656 180.445313 552.722656 190.113281 552.722656 "/>
<path style=" stroke:none;fill-rule:nonzero;fill:rgb(22.75238%,60.742188%,56.054688%);fill-opacity:1;" d="M 173.710938 539.09375 C 183.359375 539.09375 183.378906 524.09375 173.710938 524.09375 C 164.058594 524.09375 164.039063 539.09375 173.710938 539.09375 "/>
<path style=" stroke:none;fill-rule:nonzero;fill:rgb(22.75238%,60.742188%,56.054688%);fill-opacity:1;" d="M 649.367188 584.777344 C 659.019531 584.777344 659.035156 569.777344 649.367188 569.777344 C 639.714844 569.777344 639.699219 584.777344 649.367188 584.777344 "/>
<path style=" stroke:none;fill-rule:nonzero;fill:rgb(22.75238%,60.742188%,56.054688%);fill-opacity:1;" d="M 644.960938 613.875 C 654.609375 613.875 654.628906 598.875 644.960938 598.875 C 635.308594 598.875 635.289063 613.875 644.960938 613.875 "/>
<path style=" stroke:none;fill-rule:nonzero;fill:rgb(22.75238%,60.742188%,56.054688%);fill-opacity:1;" d="M 628.039063 574.117188 C 637.691406 574.117188 637.710938 559.117188 628.039063 559.117188 C 618.390625 559.117188 618.371094 574.117188 628.039063 574.117188 "/>
<path style=" stroke:none;fill-rule:nonzero;fill:rgb(22.75238%,60.742188%,56.054688%);fill-opacity:1;" d="M 603.484375 583.101563 C 613.132813 583.101563 613.148438 568.101563 603.484375 568.101563 C 593.832031 568.101563 593.816406 583.101563 603.484375 583.101563 "/>
<path style=" stroke:none;fill-rule:nonzero;fill:rgb(22.75238%,60.742188%,56.054688%);fill-opacity:1;" d="M 588.09375 608.832031 C 597.746094 608.832031 597.761719 593.832031 588.09375 593.832031 C 578.445313 593.832031 578.425781 608.832031 588.09375 608.832031 "/>
<path style=" stroke:none;fill-rule:nonzero;fill:rgb(22.75238%,60.742188%,56.054688%);fill-opacity:1;" d="M 571.617188 630.652344 C 581.269531 630.652344 581.285156 615.652344 571.617188 615.652344 C 561.96875 615.652344 561.949219 630.652344 571.617188 630.652344 "/>
<path style=" stroke:none;fill-rule:nonzero;fill:rgb(22.75238%,60.742188%,56.054688%);fill-opacity:1;" d="M 550.539063 647.359375 C 560.191406 647.359375 560.207031 632.359375 550.539063 632.359375 C 540.890625 632.359375 540.871094 647.359375 550.539063 647.359375 "/>
<path style=" stroke:none;fill-rule:nonzero;fill:rgb(22.75238%,60.742188%,56.054688%);fill-opacity:1;" d="M 521.902344 652.621094 C 531.554688 652.621094 531.570313 637.621094 521.902344 637.621094 C 512.253906 637.621094 512.238281 652.621094 521.902344 652.621094 "/>
<path style=" stroke:none;fill-rule:nonzero;fill:rgb(22.75238%,60.742188%,56.054688%);fill-opacity:1;" d="M 491.445313 647.050781 C 503.027344 647.050781 503.050781 629.050781 491.445313 629.050781 C 479.863281 629.050781 479.84375 647.050781 491.445313 647.050781 "/>
<path style=" stroke:none;fill-rule:nonzero;fill:rgb(22.75238%,60.742188%,56.054688%);fill-opacity:1;" d="M 479.789063 676.695313 C 491.371094 676.695313 491.390625 658.695313 479.789063 658.695313 C 468.207031 658.695313 468.1875 676.695313 479.789063 676.695313 "/>
<path style=" stroke:none;fill-rule:nonzero;fill:rgb(22.75238%,60.742188%,56.054688%);fill-opacity:1;" d="M 511.144531 693.980469 C 522.726563 693.980469 522.746094 675.980469 511.144531 675.980469 C 499.5625 675.980469 499.542969 693.980469 511.144531 693.980469 "/>
<path style=" stroke:none;fill-rule:nonzero;fill:rgb(22.75238%,60.742188%,56.054688%);fill-opacity:1;" d="M 537.273438 706.628906 C 548.855469 706.628906 548.878906 688.628906 537.273438 688.628906 C 525.691406 688.628906 525.671875 706.628906 537.273438 706.628906 "/>
<path style=" stroke:none;fill-rule:nonzero;fill:rgb(22.75238%,60.742188%,56.054688%);fill-opacity:1;" d="M 564.796875 708.042969 C 574.449219 708.042969 574.464844 693.042969 564.796875 693.042969 C 555.144531 693.042969 555.128906 708.042969 564.796875 708.042969 "/>
<path style=" stroke:none;fill-rule:nonzero;fill:rgb(22.75238%,60.742188%,56.054688%);fill-opacity:1;" d="M 589.660156 710.71875 C 599.3125 710.71875 599.328125 695.71875 589.660156 695.71875 C 580.011719 695.71875 579.992188 710.71875 589.660156 710.71875 "/>
<path style=" stroke:none;fill-rule:nonzero;fill:rgb(22.75238%,60.742188%,56.054688%);fill-opacity:1;" d="M 603.375 728.25 C 613.027344 728.25 613.042969 713.25 603.375 713.25 C 593.722656 713.25 593.707031 728.25 603.375 728.25 "/>
<path style=" stroke:none;fill-rule:nonzero;fill:rgb(22.75238%,60.742188%,56.054688%);fill-opacity:1;" d="M 591.914063 748.53125 C 601.5625 748.53125 601.582031 733.53125 591.914063 733.53125 C 582.261719 733.53125 582.246094 748.53125 591.914063 748.53125 "/>
<path style=" stroke:none;fill-rule:nonzero;fill:rgb(22.75238%,60.742188%,56.054688%);fill-opacity:1;" d="M 333.074219 677.230469 C 344.65625 677.230469 344.675781 659.230469 333.074219 659.230469 C 321.492188 659.230469 321.472656 677.230469 333.074219 677.230469 "/>
<path style=" stroke:none;fill-rule:nonzero;fill:rgb(22.75238%,60.742188%,56.054688%);fill-opacity:1;" d="M 310.878906 708.300781 C 322.460938 708.300781 322.480469 690.300781 310.878906 690.300781 C 299.296875 690.300781 299.277344 708.300781 310.878906 708.300781 "/>
<path style=" stroke:none;fill-rule:nonzero;fill:rgb(22.75238%,60.742188%,56.054688%);fill-opacity:1;" d="M 296.867188 745.449219 C 308.449219 745.449219 308.46875 727.449219 296.867188 727.449219 C 285.285156 727.449219 285.265625 745.449219 296.867188 745.449219 "/>
<path style=" stroke:none;fill-rule:nonzero;fill:rgb(22.75238%,60.742188%,56.054688%);fill-opacity:1;" d="M 304.476563 774.402344 C 316.058594 774.402344 316.078125 756.402344 304.476563 756.402344 C 292.894531 756.402344 292.875 774.402344 304.476563 774.402344 "/>
<path style=" stroke:none;fill-rule:nonzero;fill:rgb(22.75238%,60.742188%,56.054688%);fill-opacity:1;" d="M 301.816406 817.195313 C 313.398438 817.195313 313.421875 799.195313 301.816406 799.195313 C 290.234375 799.195313 290.214844 817.195313 301.816406 817.195313 "/>
<path style=" stroke:none;fill-rule:nonzero;fill:rgb(22.75238%,60.742188%,56.054688%);fill-opacity:1;" d="M 281.050781 843.363281 C 290.703125 843.363281 290.71875 828.363281 281.050781 828.363281 C 271.398438 828.363281 271.382813 843.363281 281.050781 843.363281 "/>
<path style=" stroke:none;fill-rule:nonzero;fill:rgb(22.75238%,60.742188%,56.054688%);fill-opacity:1;" d="M 247.4375 862.066406 C 257.089844 862.066406 257.105469 847.066406 247.4375 847.066406 C 237.785156 847.066406 237.769531 862.066406 247.4375 862.066406 "/>
<path style=" stroke:none;fill-rule:nonzero;fill:rgb(22.75238%,60.742188%,56.054688%);fill-opacity:1;" d="M 219.769531 859.570313 C 229.421875 859.570313 229.4375 844.570313 219.769531 844.570313 C 210.117188 844.570313 210.101563 859.570313 219.769531 859.570313 "/>
<path style=" stroke:none;fill-rule:nonzero;fill:rgb(22.75238%,60.742188%,56.054688%);fill-opacity:1;" d="M 329.671875 680.421875 C 345.113281 680.421875 345.140625 656.421875 329.671875 656.421875 C 314.230469 656.421875 314.203125 680.421875 329.671875 680.421875 "/>
<path style=" stroke:none;fill-rule:nonzero;fill:rgb(22.75238%,60.742188%,56.054688%);fill-opacity:1;" d="M 415.28125 686.515625 C 430.722656 686.515625 430.75 662.515625 415.28125 662.515625 C 399.839844 662.515625 399.8125 686.515625 415.28125 686.515625 "/>
<path style=" stroke:none;fill-rule:nonzero;fill:rgb(22.75238%,60.742188%,56.054688%);fill-opacity:1;" d="M 417.023438 713.085938 C 430.535156 713.085938 430.558594 692.085938 417.023438 692.085938 C 403.511719 692.085938 403.488281 713.085938 417.023438 713.085938 "/>
<path style=" stroke:none;fill-rule:nonzero;fill:rgb(22.75238%,60.742188%,56.054688%);fill-opacity:1;" d="M 428.1875 744.0625 C 439.769531 744.0625 439.789063 726.0625 428.1875 726.0625 C 416.605469 726.0625 416.589844 744.0625 428.1875 744.0625 "/>
<path style=" stroke:none;fill-rule:nonzero;fill:rgb(22.75238%,60.742188%,56.054688%);fill-opacity:1;" d="M 450.859375 772.914063 C 460.507813 772.914063 460.527344 757.914063 450.859375 757.914063 C 441.207031 757.914063 441.191406 772.914063 450.859375 772.914063 "/>
<path style=" stroke:none;fill-rule:nonzero;fill:rgb(22.75238%,60.742188%,56.054688%);fill-opacity:1;" d="M 468.84375 810.679688 C 478.496094 810.679688 478.511719 795.679688 468.84375 795.679688 C 459.191406 795.679688 459.175781 810.679688 468.84375 810.679688 "/>
<path style=" stroke:none;fill-rule:nonzero;fill:rgb(22.75238%,60.742188%,56.054688%);fill-opacity:1;" d="M 467.03125 842.386719 C 476.679688 842.386719 476.695313 827.386719 467.03125 827.386719 C 457.378906 827.386719 457.363281 842.386719 467.03125 842.386719 "/>
<path style=" stroke:none;fill-rule:nonzero;fill:rgb(22.75238%,60.742188%,56.054688%);fill-opacity:1;" d="M 416.773438 846.796875 C 426.421875 846.796875 426.4375 831.796875 416.773438 831.796875 C 407.121094 831.796875 407.105469 846.796875 416.773438 846.796875 "/>
<path style=" stroke:none;fill-rule:nonzero;fill:rgb(22.75238%,60.742188%,56.054688%);fill-opacity:1;" d="M 437.933594 853.847656 C 447.585938 853.847656 447.601563 838.847656 437.933594 838.847656 C 428.28125 838.847656 428.265625 853.847656 437.933594 853.847656 "/>
<path style=" stroke:none;fill-rule:nonzero;fill:rgb(22.75238%,60.742188%,56.054688%);fill-opacity:1;" d="M 272.519531 668.984375 C 284.101563 668.984375 284.121094 650.984375 272.519531 650.984375 C 260.9375 650.984375 260.917969 668.984375 272.519531 668.984375 "/>
<path style=" stroke:none;fill-rule:nonzero;fill:rgb(22.75238%,60.742188%,56.054688%);fill-opacity:1;" d="M 240.730469 679.921875 C 252.3125 679.921875 252.328125 661.921875 240.730469 661.921875 C 229.144531 661.921875 229.128906 679.921875 240.730469 679.921875 "/>
<path style=" stroke:none;fill-rule:nonzero;fill:rgb(22.75238%,60.742188%,56.054688%);fill-opacity:1;" d="M 217.984375 696.234375 C 229.566406 696.234375 229.589844 678.234375 217.984375 678.234375 C 206.402344 678.234375 206.382813 696.234375 217.984375 696.234375 "/>
<path style=" stroke:none;fill-rule:nonzero;fill:rgb(22.75238%,60.742188%,56.054688%);fill-opacity:1;" d="M 206.644531 723.988281 C 218.230469 723.988281 218.246094 705.988281 206.644531 705.988281 C 195.0625 705.988281 195.046875 723.988281 206.644531 723.988281 "/>
<path style=" stroke:none;fill-rule:nonzero;fill:rgb(22.75238%,60.742188%,56.054688%);fill-opacity:1;" d="M 201.128906 749.003906 C 212.710938 749.003906 212.730469 731.003906 201.128906 731.003906 C 189.546875 731.003906 189.527344 749.003906 201.128906 749.003906 "/>
<path style=" stroke:none;fill-rule:nonzero;fill:rgb(22.75238%,60.742188%,56.054688%);fill-opacity:1;" d="M 144.046875 781.5 C 155.628906 781.5 155.648438 763.5 144.046875 763.5 C 132.464844 763.5 132.445313 781.5 144.046875 781.5 "/>
<path style=" stroke:none;fill-rule:nonzero;fill:rgb(22.75238%,60.742188%,56.054688%);fill-opacity:1;" d="M 166.570313 777.75 C 176.222656 777.75 176.238281 762.75 166.570313 762.75 C 156.921875 762.75 156.902344 777.75 166.570313 777.75 "/>
<path style=" stroke:none;fill-rule:nonzero;fill:rgb(22.75238%,60.742188%,56.054688%);fill-opacity:1;" d="M 189.007813 767.535156 C 198.660156 767.535156 198.675781 752.535156 189.007813 752.535156 C 179.355469 752.535156 179.339844 767.535156 189.007813 767.535156 "/>
<path style=" stroke:none;fill-rule:nonzero;fill:rgb(22.75238%,60.742188%,56.054688%);fill-opacity:1;" d="M 130.410156 800.007813 C 140.0625 800.007813 140.078125 785.007813 130.410156 785.007813 C 120.757813 785.007813 120.742188 800.007813 130.410156 800.007813 "/>
<path style=" stroke:none;fill-rule:nonzero;fill:rgb(22.75238%,60.742188%,56.054688%);fill-opacity:1;" d="M 248.839844 632.148438 C 260.421875 632.148438 260.441406 614.148438 248.839844 614.148438 C 237.257813 614.148438 237.238281 632.148438 248.839844 632.148438 "/>
<path style=" stroke:none;fill-rule:nonzero;fill:rgb(22.75238%,60.742188%,56.054688%);fill-opacity:1;" d="M 220.410156 624.335938 C 231.992188 624.335938 232.011719 606.335938 220.410156 606.335938 C 208.828125 606.335938 208.808594 624.335938 220.410156 624.335938 "/>
<path style=" stroke:none;fill-rule:nonzero;fill:rgb(22.75238%,60.742188%,56.054688%);fill-opacity:1;" d="M 189.945313 621.871094 C 201.527344 621.871094 201.546875 603.871094 189.945313 603.871094 C 178.363281 603.871094 178.34375 621.871094 189.945313 621.871094 "/>
<path style=" stroke:none;fill-rule:nonzero;fill:rgb(22.75238%,60.742188%,56.054688%);fill-opacity:1;" d="M 168.507813 637.003906 C 180.089844 637.003906 180.109375 619.003906 168.507813 619.003906 C 156.925781 619.003906 156.90625 637.003906 168.507813 637.003906 "/>
<path style=" stroke:none;fill-rule:nonzero;fill:rgb(22.75238%,60.742188%,56.054688%);fill-opacity:1;" d="M 154.835938 653.925781 C 162.554688 653.925781 162.566406 641.925781 154.835938 641.925781 C 147.113281 641.925781 147.101563 653.925781 154.835938 653.925781 "/>
<path style=" stroke:none;fill-rule:nonzero;fill:rgb(22.75238%,60.742188%,56.054688%);fill-opacity:1;" d="M 138.785156 673.023438 C 146.507813 673.023438 146.519531 661.023438 138.785156 661.023438 C 131.0625 661.023438 131.050781 673.023438 138.785156 673.023438 "/>
<path style=" stroke:none;fill-rule:nonzero;fill:rgb(22.75238%,60.742188%,56.054688%);fill-opacity:1;" d="M 116.765625 682.691406 C 124.484375 682.691406 124.496094 670.691406 116.765625 670.691406 C 109.042969 670.691406 109.03125 682.691406 116.765625 682.691406 "/>
<path style=" stroke:none;fill-rule:nonzero;fill:rgb(22.75238%,60.742188%,56.054688%);fill-opacity:1;" d="M 96.15625 674.394531 C 105.808594 674.394531 105.824219 659.394531 96.15625 659.394531 C 86.507813 659.394531 86.488281 674.394531 96.15625 674.394531 "/>
<path style=" stroke:none;fill-rule:nonzero;fill:rgb(22.75238%,60.742188%,56.054688%);fill-opacity:1;" d="M 87.339844 652.351563 C 96.992188 652.351563 97.007813 637.351563 87.339844 637.351563 C 77.6875 637.351563 77.671875 652.351563 87.339844 652.351563 "/>
<path style=" stroke:none;fill-rule:nonzero;fill:rgb(22.75238%,60.742188%,56.054688%);fill-opacity:1;" d="M 467.558594 702.976563 C 479.140625 702.976563 479.160156 684.976563 467.558594 684.976563 C 455.976563 684.976563 455.957031 702.976563 467.558594 702.976563 "/>
<path style=" stroke:none;fill-rule:nonzero;fill:rgb(22.75238%,60.742188%,56.054688%);fill-opacity:1;" d="M 470.039063 727.574219 C 479.6875 727.574219 479.703125 712.574219 470.039063 712.574219 C 460.386719 712.574219 460.371094 727.574219 470.039063 727.574219 "/>
<path style=" stroke:none;fill-rule:nonzero;fill:rgb(22.75238%,60.742188%,56.054688%);fill-opacity:1;" d="M 482.453125 745.980469 C 490.175781 745.980469 490.1875 733.980469 482.453125 733.980469 C 474.730469 733.980469 474.71875 745.980469 482.453125 745.980469 "/>
<path style=" stroke:none;fill-rule:nonzero;fill:rgb(22.75238%,60.742188%,56.054688%);fill-opacity:1;" d="M 501.699219 758.097656 C 509.417969 758.097656 509.429688 746.097656 501.699219 746.097656 C 493.976563 746.097656 493.964844 758.097656 501.699219 758.097656 "/>
<path style=" stroke:none;fill-rule:nonzero;fill:rgb(22.75238%,60.742188%,56.054688%);fill-opacity:1;" d="M 522.710938 763.828125 C 530.433594 763.828125 530.445313 751.828125 522.710938 751.828125 C 514.988281 751.828125 514.976563 763.828125 522.710938 763.828125 "/>
<path style=" stroke:none;fill-rule:nonzero;fill:rgb(22.75238%,60.742188%,56.054688%);fill-opacity:1;" d="M 539.582031 778.050781 C 547.304688 778.050781 547.316406 766.050781 539.582031 766.050781 C 531.859375 766.050781 531.847656 778.050781 539.582031 778.050781 "/>
<path style=" stroke:none;fill-rule:nonzero;fill:rgb(22.75238%,60.742188%,56.054688%);fill-opacity:1;" d="M 530.511719 796.699219 C 538.234375 796.699219 538.246094 784.699219 530.511719 784.699219 C 522.789063 784.699219 522.777344 796.699219 530.511719 796.699219 "/>
<path style=" stroke:none;fill-rule:nonzero;fill:rgb(22.75238%,60.742188%,56.054688%);fill-opacity:1;" d="M 368.207031 524.589844 C 364.015625 532.234375 353.761719 536.519531 347.785156 528.417969 C 344.859375 524.449219 337.652344 527.1875 340.746094 531.683594 C 351.023438 546.632813 367.84375 541.550781 375.652344 526.980469 C 378.132813 522.359375 370.664063 520.101563 368.207031 524.589844 "/>
<path style=" stroke:none;fill-rule:nonzero;fill:rgb(22.75238%,60.742188%,56.054688%);fill-opacity:1;" d="M 430.285156 512.335938 C 425.660156 522.648438 415.035156 523.839844 407.152344 515.9375 C 403.507813 512.277344 397.34375 516.667969 401.105469 520.617188 C 413.382813 533.519531 430.535156 532.546875 437.515625 515.601563 C 439.621094 510.480469 432.460938 507.488281 430.285156 512.335938 "/>
<path style=" stroke:none;fill-rule:nonzero;fill:rgb(93.75%,89.451599%,91.796875%);fill-opacity:1;" d="M 446.367188 536.605469 C 440.78125 533.703125 433.863281 533.769531 428.558594 537.097656 C 424.574219 539.601563 425.765625 543.097656 428.605469 545.722656 C 430 547.144531 431.617188 548.199219 433.605469 548.246094 C 438.152344 548.355469 442.613281 548.042969 446.476563 545.503906 C 449.90625 543.253906 450.320313 538.664063 446.367188 536.605469 "/>
<path style=" stroke:none;fill-rule:nonzero;fill:rgb(93.75%,89.451599%,91.796875%);fill-opacity:1;" d="M 350.300781 549.726563 C 344.355469 547.558594 337.480469 548.453125 332.464844 551.910156 C 328.695313 554.503906 329.132813 557.792969 332.128906 560.347656 C 333.734375 561.445313 335.027344 561.953125 337.046875 561.8125 C 341.664063 561.480469 346.371094 560.121094 350.164063 557.597656 C 353.53125 555.363281 354.511719 551.261719 350.300781 549.726563 "/>
<path style=" stroke:none;fill-rule:nonzero;fill:rgb(22.75238%,60.742188%,56.054688%);fill-opacity:1;" d="M 182.726563 243.070313 C 192.242188 243.070313 200.367188 240.878906 207.101563 236.5 C 213.835938 232.128906 219.40625 226.5 223.820313 219.640625 C 228.226563 212.769531 231.421875 205.160156 233.394531 196.800781 C 235.367188 188.449219 236.355469 180.289063 236.355469 172.328125 C 236.355469 164.371094 235.3125 156.210938 233.222656 147.851563 C 231.132813 139.5 227.878906 131.941406 223.472656 125.171875 C 219.058594 118.410156 213.425781 112.890625 206.578125 108.609375 C 199.730469 104.328125 191.546875 102.191406 182.03125 102.191406 C 172.507813 102.191406 164.441406 104.328125 157.824219 108.609375 C 151.210938 112.890625 145.691406 118.359375 141.285156 125.019531 C 136.871094 131.691406 133.679688 139.148438 131.703125 147.410156 C 129.730469 155.671875 128.746094 163.78125 128.746094 171.730469 C 128.746094 179.890625 129.789063 188.148438 131.882813 196.5 C 133.972656 204.859375 137.160156 212.519531 141.457031 219.488281 C 145.75 226.460938 151.324219 232.128906 158.171875 236.5 C 165.019531 240.878906 173.203125 243.070313 182.726563 243.070313 M 292.773438 172.628906 C 292.773438 189.539063 289.867188 204.859375 284.066406 218.589844 C 278.261719 232.320313 270.308594 244.011719 260.210938 253.660156 C 250.113281 263.320313 238.152344 270.78125 224.339844 276.050781 C 210.527344 281.320313 195.726563 283.960938 179.9375 283.960938 C 164.148438 283.960938 149.644531 281.320313 136.40625 276.050781 C 123.175781 270.78125 111.796875 263.320313 102.28125 253.660156 C 92.757813 244.011719 85.390625 232.320313 80.164063 218.589844 C 74.941406 204.859375 72.332031 189.640625 72.332031 172.929688 C 72.332031 156.019531 74.996094 140.691406 80.339844 126.960938 C 85.675781 113.230469 93.105469 101.488281 102.628906 91.738281 C 112.144531 82 123.523438 74.429688 136.753906 69.058594 C 149.992188 63.691406 164.496094 61 180.289063 61 C 196.074219 61 210.8125 63.691406 224.515625 69.058594 C 238.214844 74.429688 250.113281 82 260.210938 91.738281 C 270.308594 101.488281 278.261719 113.230469 284.066406 126.960938 C 289.867188 140.691406 292.773438 155.910156 292.773438 172.628906 "/>
<path style=" stroke:none;fill-rule:nonzero;fill:rgb(39.208984%,80.076599%,76.171875%);fill-opacity:1;" d="M 130.238281 1228.574219 C 135.316406 1228.574219 139.652344 1227.40625 143.246094 1225.070313 C 146.839844 1222.738281 149.808594 1219.734375 152.164063 1216.074219 C 154.515625 1212.410156 156.222656 1208.347656 157.277344 1203.890625 C 158.324219 1199.429688 158.855469 1195.078125 158.855469 1190.828125 C 158.855469 1186.585938 158.296875 1182.230469 157.183594 1177.769531 C 156.066406 1173.308594 154.332031 1169.277344 151.980469 1165.664063 C 149.625 1162.058594 146.621094 1159.109375 142.96875 1156.824219 C 139.3125 1154.546875 134.945313 1153.402344 129.867188 1153.402344 C 124.785156 1153.402344 120.480469 1154.546875 116.949219 1156.824219 C 113.421875 1159.109375 110.476563 1162.027344 108.125 1165.585938 C 105.769531 1169.144531 104.066406 1173.125 103.011719 1177.53125 C 101.960938 1181.9375 101.433594 1186.265625 101.433594 1190.511719 C 101.433594 1194.867188 101.992188 1199.269531 103.105469 1203.730469 C 104.222656 1208.1875 105.921875 1212.277344 108.21875 1215.992188 C 110.507813 1219.710938 113.480469 1222.738281 117.136719 1225.070313 C 120.789063 1227.40625 125.15625 1228.574219 130.238281 1228.574219 M 188.960938 1190.988281 C 188.960938 1200.015625 187.410156 1208.1875 184.3125 1215.515625 C 181.214844 1222.84375 176.972656 1229.078125 171.585938 1234.230469 C 166.195313 1239.382813 159.8125 1243.363281 152.445313 1246.175781 C 145.070313 1248.984375 137.175781 1250.394531 128.75 1250.394531 C 120.324219 1250.394531 112.585938 1248.984375 105.523438 1246.175781 C 98.460938 1243.363281 92.386719 1239.382813 87.3125 1234.230469 C 82.230469 1229.078125 78.300781 1222.84375 75.511719 1215.515625 C 72.722656 1208.1875 71.332031 1200.066406 71.332031 1191.148438 C 71.332031 1182.125 72.753906 1173.945313 75.601563 1166.621094 C 78.453125 1159.296875 82.417969 1153.03125 87.5 1147.828125 C 92.574219 1142.628906 98.648438 1138.589844 105.707031 1135.722656 C 112.769531 1132.855469 120.511719 1131.425781 128.9375 1131.425781 C 137.359375 1131.425781 145.226563 1132.855469 152.535156 1135.722656 C 159.84375 1138.589844 166.195313 1142.628906 171.585938 1147.828125 C 176.972656 1153.03125 181.214844 1159.296875 184.3125 1166.621094 C 187.410156 1173.945313 188.960938 1182.070313 188.960938 1190.988281 "/>
<path style=" stroke:none;fill-rule:nonzero;fill:rgb(39.208984%,80.076599%,76.171875%);fill-opacity:1;" d="M 265.925781 1179.484375 C 265.925781 1182.148438 264.96875 1184.515625 263.050781 1186.589844 C 261.136719 1188.667969 258.683594 1189.703125 255.707031 1189.703125 C 253.789063 1189.703125 251.820313 1189.066406 249.796875 1187.789063 C 247.988281 1186.621094 246.152344 1185.820313 244.289063 1185.394531 C 242.425781 1184.96875 240.800781 1184.757813 239.417969 1184.757813 C 236.863281 1184.757813 234.492188 1185.339844 232.3125 1186.511719 C 230.128906 1187.683594 228.265625 1189.28125 226.722656 1191.300781 C 225.179688 1193.324219 223.980469 1195.722656 223.128906 1198.488281 C 222.277344 1201.257813 221.851563 1204.238281 221.851563 1207.429688 C 221.851563 1210.625 222.277344 1213.660156 223.128906 1216.535156 C 223.980469 1219.40625 225.179688 1221.910156 226.722656 1224.039063 C 228.265625 1226.171875 230.101563 1227.84375 232.234375 1229.070313 C 234.359375 1230.296875 236.703125 1230.90625 239.257813 1230.90625 C 240.746094 1230.90625 242.34375 1230.691406 244.050781 1230.265625 C 245.75 1229.839844 247.453125 1229.042969 249.160156 1227.871094 C 251.285156 1226.382813 253.363281 1225.636719 255.386719 1225.636719 C 257.941406 1225.636719 260.257813 1226.59375 262.332031 1228.507813 C 264.410156 1230.425781 265.445313 1232.820313 265.445313 1235.695313 C 265.445313 1237.292969 264.992188 1238.863281 264.089844 1240.40625 C 263.183594 1241.949219 261.613281 1243.46875 259.378906 1244.957031 C 256.929688 1246.554688 253.894531 1247.855469 250.277344 1248.871094 C 246.65625 1249.882813 242.71875 1250.386719 238.460938 1250.386719 C 232.816406 1250.386719 227.46875 1249.429688 222.410156 1247.511719 C 217.355469 1245.59375 212.964844 1242.828125 209.238281 1239.207031 C 205.511719 1235.589844 202.554688 1231.121094 200.375 1225.796875 C 198.191406 1220.472656 197.101563 1214.457031 197.101563 1207.75 C 197.101563 1201.046875 198.164063 1195.003906 200.296875 1189.628906 C 202.421875 1184.253906 205.324219 1179.671875 208.996094 1175.894531 C 212.671875 1172.117188 217.007813 1169.1875 222.011719 1167.109375 C 227.015625 1165.035156 232.394531 1163.996094 238.140625 1163.996094 C 242.71875 1163.996094 246.898438 1164.609375 250.675781 1165.835938 C 254.453125 1167.058594 257.621094 1168.574219 260.175781 1170.382813 C 262.304688 1171.875 263.796875 1173.394531 264.648438 1174.9375 C 265.5 1176.480469 265.925781 1177.996094 265.925781 1179.484375 "/>
<path style=" stroke:none;fill-rule:nonzero;fill:rgb(22.75238%,60.742188%,56.054688%);fill-opacity:1;" d="M 418.371094 204.398438 C 418.371094 197.019531 417.476563 190.539063 415.679688 184.949219 C 413.886719 179.371094 411.535156 174.730469 408.648438 171.039063 C 405.753906 167.339844 402.511719 164.550781 398.921875 162.660156 C 395.328125 160.761719 391.839844 159.808594 388.445313 159.808594 C 385.050781 159.808594 381.5625 160.761719 377.972656 162.660156 C 374.382813 164.550781 371.1875 167.398438 368.394531 171.179688 C 365.601563 174.980469 363.308594 179.671875 361.511719 185.25 C 359.71875 190.839844 358.820313 197.21875 358.820313 204.398438 C 358.820313 211.578125 359.664063 217.871094 361.363281 223.25 C 363.058594 228.640625 365.351563 233.179688 368.246094 236.871094 C 371.136719 240.558594 374.382813 243.300781 377.972656 245.101563 C 381.5625 246.898438 385.152344 247.800781 388.746094 247.800781 C 392.335938 247.800781 395.878906 246.898438 399.371094 245.101563 C 402.855469 243.300781 406.050781 240.558594 408.945313 236.871094 C 411.835938 233.179688 414.132813 228.640625 415.828125 223.25 C 417.523438 217.871094 418.371094 211.578125 418.371094 204.398438 M 465.65625 203.800781 C 465.65625 214.980469 463.710938 225.449219 459.820313 235.230469 C 455.929688 245 450.542969 253.53125 443.660156 260.808594 C 436.777344 268.101563 428.644531 273.828125 419.269531 278.019531 C 409.890625 282.210938 399.714844 284.300781 388.746094 284.300781 C 377.773438 284.300781 367.546875 282.210938 358.070313 278.019531 C 348.59375 273.828125 340.414063 268.101563 333.53125 260.808594 C 326.648438 253.53125 321.265625 245 317.375 235.230469 C 313.484375 225.449219 311.535156 214.980469 311.535156 203.800781 C 311.535156 192.828125 313.484375 182.460938 317.375 172.679688 C 321.265625 162.910156 326.648438 154.328125 333.53125 146.941406 C 340.414063 139.570313 348.59375 133.78125 358.070313 129.589844 C 367.546875 125.398438 377.773438 123.300781 388.746094 123.300781 C 399.714844 123.300781 409.890625 125.398438 419.269531 129.589844 C 428.644531 133.78125 436.777344 139.570313 443.660156 146.941406 C 450.542969 154.328125 455.929688 162.910156 459.820313 172.679688 C 463.710938 182.460938 465.65625 192.828125 465.65625 203.800781 "/>
<path style=" stroke:none;fill-rule:nonzero;fill:rgb(39.208984%,80.076599%,76.171875%);fill-opacity:1;" d="M 396.183594 1207.335938 C 396.183594 1203.398438 395.703125 1199.9375 394.746094 1196.953125 C 393.789063 1193.976563 392.539063 1191.5 390.996094 1189.53125 C 389.449219 1187.5625 387.722656 1186.070313 385.804688 1185.058594 C 383.890625 1184.046875 382.027344 1183.539063 380.214844 1183.539063 C 378.40625 1183.539063 376.542969 1184.046875 374.628906 1185.058594 C 372.710938 1186.070313 371.003906 1187.589844 369.515625 1189.609375 C 368.027344 1191.632813 366.804688 1194.136719 365.84375 1197.113281 C 364.886719 1200.097656 364.40625 1203.503906 364.40625 1207.335938 C 364.40625 1211.167969 364.859375 1214.519531 365.765625 1217.394531 C 366.667969 1220.269531 367.894531 1222.691406 369.4375 1224.660156 C 370.980469 1226.632813 372.710938 1228.09375 374.628906 1229.054688 C 376.542969 1230.011719 378.460938 1230.488281 380.375 1230.488281 C 382.289063 1230.488281 384.179688 1230.011719 386.046875 1229.054688 C 387.90625 1228.09375 389.609375 1226.632813 391.15625 1224.660156 C 392.699219 1222.691406 393.921875 1220.269531 394.828125 1217.394531 C 395.730469 1214.519531 396.183594 1211.167969 396.183594 1207.335938 M 421.414063 1207.015625 C 421.414063 1212.980469 420.378906 1218.566406 418.300781 1223.78125 C 416.226563 1229 413.351563 1233.550781 409.679688 1237.4375 C 406.003906 1241.320313 401.664063 1244.382813 396.664063 1246.617188 C 391.660156 1248.851563 386.230469 1249.96875 380.375 1249.96875 C 374.519531 1249.96875 369.0625 1248.851563 364.007813 1246.617188 C 358.949219 1244.382813 354.585938 1241.320313 350.914063 1237.4375 C 347.242188 1233.550781 344.367188 1229 342.289063 1223.78125 C 340.214844 1218.566406 339.175781 1212.980469 339.175781 1207.015625 C 339.175781 1201.160156 340.214844 1195.625 342.289063 1190.40625 C 344.367188 1185.191406 347.242188 1180.613281 350.914063 1176.675781 C 354.585938 1172.738281 358.949219 1169.648438 364.007813 1167.414063 C 369.0625 1165.179688 374.519531 1164.0625 380.375 1164.0625 C 386.230469 1164.0625 391.660156 1165.179688 396.664063 1167.414063 C 401.664063 1169.648438 406.003906 1172.738281 409.679688 1176.675781 C 413.351563 1180.613281 416.226563 1185.191406 418.300781 1190.40625 C 420.378906 1195.625 421.414063 1201.160156 421.414063 1207.015625 "/>
<path style=" stroke:none;fill-rule:nonzero;fill:rgb(39.208984%,80.076599%,76.171875%);fill-opacity:1;" d="M 463.566406 1205.472656 C 463.566406 1208.492188 463.914063 1211.335938 464.621094 1214 C 465.324219 1216.667969 466.28125 1218.984375 467.488281 1220.945313 C 468.695313 1222.910156 470.132813 1224.46875 471.792969 1225.625 C 473.453125 1226.785156 475.1875 1227.363281 477 1227.363281 C 478.914063 1227.363281 480.699219 1226.757813 482.359375 1225.550781 C 484.019531 1224.34375 485.453125 1222.734375 486.664063 1220.71875 C 487.871094 1218.707031 488.828125 1216.316406 489.53125 1213.550781 C 490.234375 1210.78125 490.589844 1207.886719 490.589844 1204.867188 C 490.589844 1201.847656 490.234375 1198.980469 489.53125 1196.261719 C 488.828125 1193.546875 487.871094 1191.179688 486.664063 1189.167969 C 485.453125 1187.15625 484.019531 1185.570313 482.359375 1184.410156 C 480.699219 1183.257813 478.964844 1182.675781 477.152344 1182.675781 C 475.238281 1182.675781 473.453125 1183.304688 471.792969 1184.5625 C 470.132813 1185.820313 468.695313 1187.484375 467.488281 1189.542969 C 466.28125 1191.609375 465.324219 1194.023438 464.621094 1196.789063 C 463.914063 1199.558594 463.566406 1202.453125 463.566406 1205.472656 M 450.730469 1164.105469 C 453.648438 1164.105469 456.191406 1165.140625 458.355469 1167.199219 C 459.121094 1167.929688 459.761719 1169.046875 460.28125 1170.3125 C 461.308594 1172.824219 464.695313 1173.203125 466.382813 1171.078125 C 467.730469 1169.386719 469.207031 1167.867188 470.8125 1166.976563 C 474.433594 1164.960938 478.359375 1163.953125 482.585938 1163.953125 C 486.8125 1163.953125 490.839844 1165.011719 494.664063 1167.125 C 498.488281 1169.238281 501.835938 1172.132813 504.703125 1175.808594 C 507.570313 1179.480469 509.835938 1183.808594 511.496094 1188.789063 C 513.15625 1193.773438 513.988281 1199.132813 513.988281 1204.867188 C 513.988281 1210.605469 513.15625 1215.964844 511.496094 1220.945313 C 509.835938 1225.929688 507.546875 1230.28125 504.628906 1234.003906 C 501.707031 1237.726563 498.289063 1240.648438 494.363281 1242.761719 C 490.4375 1244.875 486.210938 1245.929688 481.679688 1245.929688 C 478.359375 1245.929688 475.164063 1245.351563 472.09375 1244.195313 C 471.078125 1243.8125 470.09375 1243.234375 469.136719 1242.554688 C 466.867188 1240.941406 463.714844 1242.644531 463.714844 1245.429688 L 463.714844 1262.234375 C 463.714844 1265.453125 462.53125 1268.246094 460.167969 1270.613281 C 457.800781 1272.976563 455.007813 1274.160156 451.789063 1274.160156 C 448.46875 1274.160156 445.621094 1272.976563 443.257813 1270.613281 C 440.894531 1268.246094 439.710938 1265.453125 439.710938 1262.234375 L 439.710938 1175.128906 C 439.710938 1172.105469 440.792969 1169.515625 442.957031 1167.351563 C 445.121094 1165.1875 447.714844 1164.105469 450.730469 1164.105469 "/>
<path style=" stroke:none;fill-rule:nonzero;fill:rgb(39.208984%,80.076599%,76.171875%);fill-opacity:1;" d="M 612.644531 1190.246094 C 612.644531 1186.734375 613.308594 1183.382813 614.640625 1180.1875 C 615.972656 1176.992188 617.941406 1174.199219 620.550781 1171.804688 C 623.160156 1169.410156 626.402344 1167.492188 630.289063 1166.054688 C 634.175781 1164.617188 638.675781 1163.898438 643.785156 1163.898438 C 650.492188 1163.898438 656.050781 1165.046875 660.472656 1167.335938 C 664.886719 1169.621094 668.214844 1172.632813 670.453125 1176.355469 C 671.195313 1177.632813 671.703125 1178.777344 671.96875 1179.789063 C 672.234375 1180.800781 672.371094 1181.734375 672.371094 1182.582031 C 672.371094 1185.351563 671.332031 1187.828125 669.253906 1190.007813 C 667.179688 1192.191406 664.59375 1193.28125 661.507813 1193.28125 C 659.378906 1193.28125 657.4375 1192.722656 655.683594 1191.605469 C 653.925781 1190.488281 652.621094 1188.972656 651.769531 1187.054688 C 650.171875 1183.648438 647.402344 1181.945313 643.464844 1181.945313 C 640.695313 1181.945313 638.777344 1182.636719 637.714844 1184.019531 C 636.652344 1185.40625 636.121094 1186.894531 636.121094 1188.492188 C 636.121094 1191.367188 637.476563 1193.496094 640.191406 1194.878906 C 642.90625 1196.265625 646.5 1197.59375 650.96875 1198.871094 C 653.628906 1199.617188 656.480469 1200.546875 659.515625 1201.664063 C 662.546875 1202.785156 665.367188 1204.277344 667.976563 1206.136719 C 670.585938 1208 672.742188 1210.34375 674.445313 1213.164063 C 676.144531 1215.984375 677 1219.472656 677 1223.621094 C 677 1224.898438 676.757813 1227.003906 676.28125 1229.929688 C 675.800781 1232.859375 674.523438 1235.785156 672.449219 1238.714844 C 670.371094 1241.640625 667.152344 1244.25 662.789063 1246.535156 C 658.421875 1248.824219 652.410156 1249.96875 644.742188 1249.96875 C 640.375 1249.96875 636.574219 1249.597656 633.324219 1248.851563 C 630.078125 1248.105469 627.230469 1247.125 624.78125 1245.898438 C 622.335938 1244.675781 620.285156 1243.289063 618.632813 1241.746094 C 616.980469 1240.207031 615.625 1238.632813 614.5625 1237.035156 C 613.710938 1235.652344 613.125 1234.457031 612.804688 1233.441406 C 612.484375 1232.433594 612.328125 1231.445313 612.328125 1230.488281 C 612.328125 1227.511719 613.339844 1224.898438 615.359375 1222.664063 C 617.382813 1220.429688 619.992188 1219.3125 623.183594 1219.3125 C 625.3125 1219.3125 627.28125 1219.871094 629.09375 1220.988281 C 630.902344 1222.105469 632.289063 1223.679688 633.246094 1225.699219 C 633.988281 1227.191406 635.214844 1228.601563 636.917969 1229.929688 C 638.621094 1231.261719 641.230469 1231.925781 644.742188 1231.925781 C 646.765625 1231.925781 648.390625 1231.6875 649.613281 1231.207031 C 650.835938 1230.726563 651.769531 1230.117188 652.410156 1229.371094 C 653.046875 1228.628906 653.445313 1227.882813 653.605469 1227.136719 C 653.765625 1226.390625 653.84375 1225.753906 653.84375 1225.21875 C 653.84375 1223.839844 653.496094 1222.664063 652.808594 1221.707031 C 652.113281 1220.746094 651.234375 1219.949219 650.171875 1219.3125 C 649.105469 1218.671875 647.9375 1218.140625 646.660156 1217.714844 C 645.378906 1217.289063 644.15625 1216.914063 642.988281 1216.597656 C 639.472656 1215.640625 635.90625 1214.519531 632.289063 1213.242188 C 628.667969 1211.964844 625.394531 1210.34375 622.464844 1208.371094 C 619.539063 1206.402344 617.167969 1203.980469 615.359375 1201.105469 C 613.546875 1198.230469 612.644531 1194.613281 612.644531 1190.246094 "/>
<path style=" stroke:none;fill-rule:nonzero;fill:rgb(39.208984%,80.076599%,76.171875%);fill-opacity:1;" d="M 277.132813 1182.160156 C 275.4375 1180.503906 274.65625 1178.382813 274.65625 1175.929688 C 274.65625 1173.480469 275.453125 1171.40625 277.132813 1169.78125 C 278.183594 1168.769531 279.6875 1168.167969 281.066406 1167.816406 C 283.144531 1167.28125 284.558594 1165.347656 284.558594 1163.199219 L 284.558594 1153.097656 C 284.558594 1149.582031 285.78125 1146.605469 288.234375 1144.152344 C 290.679688 1141.703125 293.660156 1140.480469 297.175781 1140.480469 C 300.6875 1140.480469 303.667969 1141.703125 306.117188 1144.152344 C 308.566406 1146.605469 309.789063 1149.582031 309.789063 1153.097656 L 309.789063 1162.511719 C 309.789063 1165.160156 311.9375 1167.308594 314.589844 1167.308594 L 320.808594 1167.308594 C 323.257813 1167.308594 325.332031 1168.132813 327.035156 1169.78125 C 328.738281 1171.433594 329.589844 1173.480469 329.589844 1175.929688 C 329.589844 1178.382813 328.738281 1180.457031 327.035156 1182.160156 C 325.332031 1183.863281 323.257813 1184.714844 320.808594 1184.714844 L 314.589844 1184.714844 C 311.9375 1184.714844 309.789063 1186.859375 309.789063 1189.511719 L 309.789063 1225.273438 C 309.789063 1227.402344 310 1228.867188 310.429688 1229.664063 C 310.851563 1230.464844 311.8125 1230.863281 313.304688 1230.863281 L 317.933594 1230.863281 C 320.699219 1230.863281 323.042969 1231.820313 324.960938 1233.738281 C 326.878906 1235.652344 327.835938 1237.996094 327.835938 1240.761719 C 327.835938 1243.53125 326.878906 1245.847656 324.960938 1247.710938 C 323.042969 1249.570313 320.699219 1250.503906 317.933594 1250.503906 L 307.074219 1250.503906 C 299.941406 1250.503906 294.40625 1248.746094 290.46875 1245.234375 C 286.527344 1241.722656 284.558594 1236.082031 284.558594 1228.308594 L 284.558594 1188.953125 C 284.558594 1186.777344 283.09375 1184.90625 280.996094 1184.320313 C 279.734375 1183.96875 278.328125 1183.324219 277.132813 1182.160156 "/>
<path style=" stroke:none;fill-rule:nonzero;fill:rgb(39.208984%,80.076599%,76.171875%);fill-opacity:1;" d="M 575.921875 1176.515625 C 575.921875 1173.003906 577.144531 1170.023438 579.59375 1167.574219 C 582.042969 1165.125 585.023438 1163.902344 588.535156 1163.902344 C 592.050781 1163.902344 595.027344 1165.125 597.480469 1167.574219 C 599.925781 1170.023438 601.152344 1173.003906 601.152344 1176.515625 L 601.152344 1238.3125 C 601.152344 1241.507813 600.007813 1244.25 597.71875 1246.535156 C 595.429688 1248.824219 592.632813 1249.96875 589.335938 1249.96875 C 586.246094 1249.96875 583.664063 1248.957031 581.589844 1246.933594 C 580.8125 1246.179688 580.148438 1245.324219 579.601563 1244.371094 C 578.375 1242.226563 575.585938 1241.542969 573.691406 1243.128906 C 572.203125 1244.378906 570.527344 1245.539063 568.65625 1246.617188 C 564.769531 1248.851563 560.433594 1249.96875 555.644531 1249.96875 C 552.136719 1249.96875 548.6875 1249.269531 545.464844 1247.886719 C 541.839844 1246.328125 538.6875 1244.121094 536 1241.269531 C 533.445313 1238.550781 531.394531 1235.414063 529.851563 1231.847656 C 528.308594 1228.28125 527.535156 1224.421875 527.535156 1220.269531 L 527.535156 1176.671875 C 527.535156 1173.160156 528.785156 1170.15625 531.289063 1167.652344 C 533.789063 1165.152344 536.800781 1163.902344 540.3125 1163.902344 C 543.71875 1163.902344 546.671875 1165.152344 549.175781 1167.652344 C 551.675781 1170.15625 552.925781 1173.160156 552.925781 1176.671875 L 552.925781 1215.796875 C 552.925781 1219.769531 553.796875 1223.171875 555.539063 1226.015625 C 557.199219 1228.71875 560.179688 1230.460938 563.355469 1230.488281 C 567.023438 1230.519531 570.039063 1229.003906 572.40625 1225.9375 C 574.75 1222.902344 575.921875 1219.152344 575.921875 1214.679688 "/>
</g>
</svg>
