<?xml version="1.0" encoding="UTF-8"?>
<svg xmlns="http://www.w3.org/2000/svg" xmlns:xlink="http://www.w3.org/1999/xlink" width="750pt" height="1334pt" viewBox="0 0 750 1334" version="1.1">
<g id="surface1">
<path style=" stroke:none;fill-rule:nonzero;fill:rgb(18.821716%,18.821716%,18.821716%);fill-opacity:1;" d="M 317.332031 672.496094 C 318.789063 670.367188 320.160156 668.175781 321.40625 665.886719 C 325.617188 658.136719 323.578125 647.152344 315.355469 642.808594 C 307.476563 638.648438 296.777344 640.582031 292.277344 648.859375 C 291.3125 650.640625 290.285156 652.378906 289.160156 654.0625 C 288.847656 654.53125 288.511719 655.121094 288.144531 655.679688 C 288.011719 655.828125 287.796875 656.070313 287.457031 656.46875 C 284.546875 659.875 281.539063 663.15625 278.355469 666.316406 C 272.21875 672.421875 265.90625 678.332031 259.914063 684.585938 C 246.480469 698.621094 233.605469 713.65625 222.699219 729.757813 C 212.234375 745.214844 204.019531 763.664063 204.703125 782.695313 C 205.152344 795.183594 209.59375 806.542969 219.984375 813.914063 C 226.898438 818.816406 236.125 820.710938 244.476563 819.921875 C 256.160156 818.820313 265.703125 813.992188 274.554688 806.398438 C 278.992188 802.589844 282.828125 798.175781 286.691406 793.789063 C 289.0625 791.367188 291.355469 788.867188 293.570313 786.296875 C 299.316406 779.609375 300.628906 768.921875 293.570313 762.441406 C 293.3125 762.203125 293.046875 761.976563 292.773438 761.757813 C 296.003906 758.167969 297.546875 753.335938 296.972656 748.15625 C 297.414063 746.980469 298.449219 744.378906 297 747.566406 C 298.1875 744.945313 299.285156 742.277344 300.425781 739.636719 C 302.617188 734.570313 304.808594 729.507813 306.996094 724.441406 C 311.472656 714.09375 315.945313 703.742188 320.421875 693.390625 C 322.292969 689.0625 323.429688 685.140625 322.121094 680.394531 C 321.355469 677.609375 319.597656 674.660156 317.332031 672.496094 "/>
<path style=" stroke:none;fill-rule:nonzero;fill:rgb(18.821716%,18.821716%,18.821716%);fill-opacity:1;" d="M 465.332031 668.097656 C 463.875 665.96875 462.503906 663.777344 461.257813 661.488281 C 457.046875 653.738281 459.085938 642.753906 467.308594 638.410156 C 475.183594 634.25 485.886719 636.183594 490.386719 644.460938 C 491.351563 646.238281 492.378906 647.976563 493.503906 649.660156 C 493.816406 650.132813 494.152344 650.722656 494.519531 651.28125 C 494.648438 651.425781 494.863281 651.671875 495.203125 652.070313 C 498.117188 655.476563 501.125 658.757813 504.304688 661.917969 C 510.445313 668.019531 516.757813 673.933594 522.746094 680.1875 C 536.183594 694.222656 549.058594 709.257813 559.964844 725.359375 C 570.429688 740.8125 578.644531 759.265625 577.960938 778.296875 C 577.511719 790.785156 573.070313 802.144531 562.675781 809.515625 C 555.765625 814.414063 546.539063 816.308594 538.1875 815.523438 C 526.503906 814.421875 516.960938 809.589844 508.109375 801.996094 C 503.671875 798.191406 499.835938 793.777344 495.972656 789.390625 C 493.601563 786.96875 491.304688 784.46875 489.09375 781.894531 C 483.34375 775.210938 482.035156 764.519531 489.09375 758.042969 C 489.351563 757.804688 489.617188 757.578125 489.890625 757.355469 C 486.660156 753.769531 485.117188 748.9375 485.6875 743.757813 C 485.246094 742.578125 484.214844 739.980469 485.664063 743.164063 C 484.472656 740.546875 483.378906 737.878906 482.234375 735.238281 C 480.046875 730.171875 477.855469 725.109375 475.667969 720.042969 C 471.191406 709.691406 466.71875 699.34375 462.242188 688.992188 C 460.371094 684.664063 459.234375 680.742188 460.542969 675.996094 C 461.308594 673.210938 463.066406 670.261719 465.332031 668.097656 "/>
<path style=" stroke:none;fill-rule:nonzero;fill:rgb(18.821716%,18.821716%,18.821716%);fill-opacity:1;" d="M 386.382813 877.945313 C 382.777344 855.550781 372.28125 834.75 361.921875 814.816406 C 358.050781 807.363281 348.207031 804.8125 340.859375 807.914063 C 332.636719 811.382813 329.6875 819.378906 331.09375 827.8125 C 332.394531 835.613281 333.695313 843.414063 335 851.21875 C 334.613281 850.480469 334.234375 849.742188 333.855469 849.003906 C 330.339844 841.25 326.824219 833.492188 323.304688 825.734375 C 320.632813 819.839844 313.695313 817.164063 307.441406 817.628906 C 305.527344 813.148438 301.863281 809.511719 296.75 808.347656 C 288.207031 806.398438 278.054688 810.914063 276.003906 820.128906 C 271.269531 841.386719 276.175781 861.949219 285.246094 881.316406 C 293.140625 898.171875 304.089844 914.605469 316.714844 928.277344 C 324.066406 936.234375 332.511719 943.5 342.714844 947.417969 C 354.109375 951.796875 367.511719 948.511719 375.644531 939.449219 C 382.902344 931.363281 385.828125 921.152344 387.238281 910.636719 C 388.726563 899.578125 388.15625 888.953125 386.382813 877.945313 "/>
<path style=" stroke:none;fill-rule:nonzero;fill:rgb(18.821716%,18.821716%,18.821716%);fill-opacity:1;" d="M 506.523438 820.128906 C 504.472656 810.914063 494.320313 806.398438 485.773438 808.347656 C 480.664063 809.511719 477 813.148438 475.085938 817.628906 C 468.832031 817.164063 461.894531 819.839844 459.21875 825.734375 C 455.703125 833.492188 452.1875 841.25 448.671875 849.003906 C 448.292969 849.742188 447.914063 850.480469 447.527344 851.21875 C 448.828125 843.414063 450.128906 835.613281 451.429688 827.8125 C 452.839844 819.378906 449.890625 811.386719 441.664063 807.914063 C 434.320313 804.8125 424.472656 807.363281 420.605469 814.816406 C 410.246094 834.75 399.75 855.550781 396.144531 877.945313 C 394.371094 888.953125 393.800781 899.578125 395.285156 910.636719 C 396.699219 921.152344 399.621094 931.363281 406.878906 939.449219 C 415.015625 948.511719 428.417969 951.796875 439.8125 947.417969 C 450.011719 943.5 458.460938 936.234375 465.8125 928.277344 C 478.4375 914.605469 489.382813 898.171875 497.28125 881.316406 C 506.355469 861.949219 511.253906 841.390625 506.523438 820.128906 "/>
<path style=" stroke:none;fill-rule:nonzero;fill:rgb(18.821716%,18.821716%,18.821716%);fill-opacity:1;" d="M 275.300781 435.726563 L 275.644531 436.070313 C 275.90625 436.835938 276.167969 437.601563 276.429688 438.367188 C 276.125 437.460938 275.742188 436.578125 275.300781 435.726563 M 315.703125 414.921875 C 306.035156 394.714844 282.035156 381.269531 259.746094 383.394531 C 252.742188 384.066406 245.53125 385.492188 239.453125 389.261719 C 232.390625 393.644531 227.746094 400.125 224.949219 407.867188 C 220.910156 419.03125 222.34375 432.839844 226.105469 443.878906 C 230.527344 456.859375 238.261719 469.019531 249.175781 477.476563 C 252.878906 480.34375 256.203125 482.414063 261.101563 482.414063 C 265.238281 482.414063 270.179688 480.578125 273.03125 477.476563 C 277.769531 472.308594 279.847656 462.738281 275.675781 456.46875 C 277.339844 454.613281 278.558594 452.398438 279.101563 449.9375 C 279.949219 446.089844 280.648438 442.160156 281.847656 438.398438 C 281.855469 438.378906 281.859375 438.363281 281.867188 438.34375 C 281.972656 438.167969 282.09375 437.960938 282.210938 437.753906 C 282.75 437.601563 283.386719 437.394531 283.757813 437.269531 C 284.5 437.269531 285.246094 437.269531 285.988281 437.257813 C 286.269531 437.253906 286.5 437.25 286.695313 437.246094 C 287.746094 437.445313 288.789063 437.636719 289.835938 437.878906 C 292.128906 438.402344 294.390625 439.054688 296.65625 439.699219 C 303.191406 441.558594 310.3125 438.921875 314.382813 433.652344 C 318.746094 428.007813 318.707031 421.203125 315.703125 414.921875 "/>
<path style=" stroke:none;fill-rule:nonzero;fill:rgb(18.821716%,18.821716%,18.821716%);fill-opacity:1;" d="M 524.867188 380.160156 C 511.296875 376.199219 495.734375 379.636719 483.730469 386.59375 C 470.21875 394.425781 460.117188 407.320313 455.59375 422.234375 C 453.035156 430.679688 458.648438 440.996094 467.375 442.984375 C 472.011719 444.039063 476.589844 443.300781 480.335938 441.136719 C 478.105469 450.019531 476.34375 459.113281 477.964844 467.886719 C 479.425781 475.804688 487.234375 479.371094 494.226563 480.265625 C 501.707031 481.226563 509.230469 481.15625 516.285156 478.179688 C 524.539063 474.695313 529.730469 468.289063 534.261719 460.777344 C 542.03125 447.882813 549.746094 433.8125 550.859375 418.535156 C 552.113281 401.316406 541.550781 385.027344 524.867188 380.160156 "/>
<path style=" stroke:none;fill-rule:nonzero;fill:rgb(88.671875%,88.671875%,88.671875%);fill-opacity:1;" d="M 512.730469 774.742188 C 512.597656 773.921875 512.445313 773.105469 512.289063 772.292969 C 512.167969 766.0625 511.097656 759.8125 509.109375 753.761719 C 504.90625 740.941406 497.535156 729.960938 489.746094 719.125 C 489.1875 717.980469 488.640625 716.832031 488.101563 715.6875 C 485.339844 709.789063 482.714844 703.832031 480.148438 697.847656 C 479.78125 696.992188 479.414063 696.140625 479.050781 695.28125 C 478.917969 694.976563 478.347656 693.632813 477.929688 692.644531 C 476.664063 689.675781 475.425781 686.691406 474.175781 683.71875 C 469.101563 671.640625 464.027344 659.566406 458.953125 647.488281 C 458.949219 647.472656 458.9375 647.453125 458.929688 647.433594 C 457.519531 641.015625 456.304688 634.554688 455.28125 628.058594 C 454.691406 624.3125 450.789063 619.699219 447.53125 617.980469 C 444.125 616.179688 440.613281 615.460938 436.777344 615.976563 C 428.925781 617.03125 421.660156 624.132813 422.152344 632.542969 C 422.59375 640.09375 423.488281 647.53125 424.820313 654.851563 C 424.835938 656.144531 424.964844 657.464844 425.242188 658.804688 C 426.289063 663.816406 427.550781 668.789063 429.011719 673.707031 C 428.746094 673.421875 428.484375 673.136719 428.210938 672.859375 C 424.597656 669.179688 419.800781 666.601563 414.773438 665.597656 C 408.335938 664.316406 402.152344 665.644531 395.804688 666.78125 C 387.449219 668.277344 379.089844 669.777344 370.734375 671.273438 C 362.65625 672.722656 354.324219 673.722656 346.355469 675.710938 C 344.84375 676.089844 343.429688 676.582031 342.085938 677.15625 C 342.710938 675.285156 343.324219 673.410156 343.914063 671.527344 C 344.914063 668.34375 344.710938 664.882813 343.601563 661.699219 C 344.121094 659.625 344.632813 657.542969 345.117188 655.453125 C 347.101563 646.878906 342.46875 636.785156 333.335938 634.707031 C 324.59375 632.714844 314.878906 637.332031 312.589844 646.488281 C 308.960938 660.964844 304.550781 675.238281 299.304688 689.210938 C 298.03125 692.597656 296.714844 695.96875 295.347656 699.316406 C 295.007813 700.15625 294.660156 700.988281 294.316406 701.824219 C 293.894531 702.851563 293.863281 703.023438 293.996094 702.722656 C 293.472656 704.007813 292.816406 705.273438 292.265625 706.519531 C 289.140625 713.546875 285.796875 720.46875 282.269531 727.300781 C 281.441406 728.902344 280.871094 730.632813 280.539063 732.40625 C 275.230469 743.179688 270.210938 754.078125 266.855469 765.546875 C 260.476563 787.363281 262.25 811.199219 274.195313 830.839844 C 286.097656 850.410156 305.835938 861.761719 327.324219 868.117188 C 348.703125 874.441406 371.769531 878.035156 394.070313 877.882813 C 416.300781 877.730469 438.078125 873.238281 458.125 863.5625 C 472.136719 856.804688 484.945313 846.976563 494.933594 834.925781 C 512.335938 820.050781 516.226563 796.410156 512.730469 774.742188 "/>
<path style=" stroke:none;fill-rule:nonzero;fill:rgb(88.671875%,88.671875%,88.671875%);fill-opacity:1;" d="M 545.84375 521.449219 C 541.15625 505.246094 533.773438 489.703125 526.046875 474.757813 C 518.367188 459.910156 510.042969 445.015625 499.449219 432.023438 C 489.109375 419.34375 475.558594 410.816406 460.054688 405.820313 C 444.976563 400.960938 428.964844 399.234375 413.328125 397.117188 C 379.996094 392.609375 345 389.632813 312.796875 401.640625 C 297.875 407.203125 283.984375 415.496094 273.066406 427.21875 C 262.523438 438.539063 254.847656 452.082031 248.804688 466.238281 C 235.25 497.992188 226.421875 532.515625 223.445313 566.933594 C 222.003906 583.574219 223.839844 600.742188 233.382813 614.898438 C 242.507813 628.433594 255.871094 638.824219 269.644531 647.300781 C 283.253906 655.675781 298.007813 662.105469 312.953125 667.675781 C 325.710938 672.429688 338.851563 677.308594 352.3125 679.902344 C 359.523438 682.429688 367.402344 682.5625 375.285156 682.035156 C 380.261719 682.425781 385.285156 682.324219 390.042969 682.023438 C 391.601563 681.921875 393.160156 681.796875 394.71875 681.648438 C 410.183594 681.347656 425.539063 678.785156 440.261719 674.171875 C 440.78125 674.058594 441.300781 673.953125 441.816406 673.839844 C 452.222656 671.535156 461.480469 667.238281 470.015625 661.585938 C 491.425781 649.988281 510.332031 633.714844 524.648438 613.667969 C 529.820313 606.429688 534.570313 598.542969 537.976563 590.226563 C 541.628906 584.523438 544.746094 578.511719 546.910156 572.019531 C 552.359375 555.683594 550.554688 537.71875 545.84375 521.449219 "/>
<path style=" stroke:none;fill-rule:nonzero;fill:rgb(18.821716%,18.821716%,18.821716%);fill-opacity:1;" d="M 361.78125 515.367188 C 358.816406 502.792969 349.140625 491.699219 336.8125 487.691406 C 323.492188 483.363281 309.5 489.097656 299.957031 498.558594 C 295.964844 502.515625 292.960938 507.289063 289.460938 511.652344 C 289.027344 512.152344 288.269531 513.039063 288.046875 513.304688 C 287.21875 514.285156 286.363281 515.242188 285.511719 516.199219 C 283.519531 518.441406 281.539063 520.671875 279.679688 523.023438 C 269.59375 535.761719 264.492188 551.984375 273.054688 567.109375 C 280.398438 580.082031 294.480469 585.957031 308.328125 589.058594 C 310.875 589.632813 313.550781 589.628906 316.113281 589.113281 C 322.910156 589.476563 329.835938 587.765625 335.851563 583.929688 C 347.421875 576.546875 353.3125 564.851563 357.859375 552.347656 C 362.152344 540.539063 364.722656 527.828125 361.78125 515.367188 "/>
<path style=" stroke:none;fill-rule:nonzero;fill:rgb(18.821716%,18.821716%,18.821716%);fill-opacity:1;" d="M 412.238281 515.367188 C 415.203125 502.792969 424.878906 491.699219 437.210938 487.691406 C 450.527344 483.363281 464.519531 489.097656 474.0625 498.558594 C 478.054688 502.515625 481.058594 507.289063 484.558594 511.652344 C 484.992188 512.152344 485.75 513.039063 485.972656 513.304688 C 486.800781 514.285156 487.65625 515.242188 488.511719 516.199219 C 490.5 518.441406 492.480469 520.671875 494.34375 523.023438 C 504.429688 535.761719 509.53125 551.984375 500.964844 567.109375 C 493.621094 580.082031 479.542969 585.957031 465.691406 589.058594 C 463.144531 589.632813 460.46875 589.628906 457.90625 589.113281 C 451.109375 589.476563 444.183594 587.765625 438.171875 583.929688 C 426.601563 576.546875 420.707031 564.851563 416.160156 552.347656 C 411.867188 540.539063 409.296875 527.828125 412.238281 515.367188 "/>
<path style=" stroke:none;fill-rule:nonzero;fill:rgb(80.076599%,80.076599%,80.076599%);fill-opacity:1;" d="M 339.472656 541.625 C 335.847656 532.230469 326.921875 525.773438 316.605469 526.828125 C 305.671875 527.945313 300.941406 536.261719 297.703125 545.726563 C 296.171875 550.199219 303.253906 552.121094 304.773438 547.675781 C 306.828125 541.671875 309.289063 535.332031 316.363281 534.210938 C 323.246094 533.117188 329.914063 537.128906 332.402344 543.574219 C 334.082031 547.933594 341.175781 546.039063 339.472656 541.625 "/>
<path style=" stroke:none;fill-rule:nonzero;fill:rgb(80.076599%,80.076599%,80.076599%);fill-opacity:1;" d="M 437.082031 540.890625 C 440.703125 531.5 449.632813 525.039063 459.949219 526.097656 C 470.882813 527.210938 475.613281 535.527344 478.851563 544.992188 C 480.382813 549.464844 473.304688 551.386719 471.78125 546.941406 C 469.726563 540.9375 467.265625 534.601563 460.191406 533.476563 C 453.308594 532.382813 446.640625 536.394531 444.152344 542.839844 C 442.472656 547.199219 435.378906 545.304688 437.082031 540.890625 "/>
<path style=" stroke:none;fill-rule:nonzero;fill:rgb(94.921875%,78.125%,76.951599%);fill-opacity:1;" d="M 279.703125 584.8125 C 275.15625 583.84375 263.867188 581.507813 262.648438 588.257813 C 261.476563 594.75 270.527344 598.019531 275.445313 598.785156 C 276.746094 598.988281 277.835938 598.574219 278.632813 597.855469 C 278.660156 597.863281 278.691406 597.871094 278.722656 597.878906 C 281.410156 598.472656 284.300781 598.316406 286.339844 596.253906 C 291.601563 590.929688 284.664063 585.871094 279.703125 584.8125 "/>
<path style=" stroke:none;fill-rule:nonzero;fill:rgb(94.921875%,78.125%,76.951599%);fill-opacity:1;" d="M 496.433594 586.636719 C 491.835938 587.328125 480.445313 589.113281 481.679688 595.863281 C 482.867188 602.351563 492.492188 602.226563 497.363281 601.214844 C 498.652344 600.949219 499.527344 600.175781 500.019531 599.222656 C 500.050781 599.21875 500.082031 599.21875 500.113281 599.210938 C 502.835938 598.824219 505.488281 597.660156 506.671875 595.011719 C 509.722656 588.175781 501.453125 585.878906 496.433594 586.636719 "/>
<path style=" stroke:none;fill-rule:nonzero;fill:rgb(18.821716%,18.821716%,18.821716%);fill-opacity:1;" d="M 392.765625 598.414063 C 391.667969 597.308594 390.167969 596.449219 388.683594 596 C 387.769531 595.722656 386.683594 595.554688 385.726563 595.617188 C 382.539063 595.828125 379.660156 597.324219 377.988281 600.113281 C 376.644531 602.359375 376.34375 604.832031 376.847656 607.371094 C 377.019531 608.234375 377.445313 609.152344 377.886719 609.910156 C 378.078125 610.238281 378.3125 610.574219 378.578125 610.910156 C 379.273438 612.394531 380.328125 613.734375 381.800781 614.511719 C 383.691406 615.511719 385.921875 615.96875 388.019531 615.324219 C 392.421875 613.976563 395.765625 610.054688 395.71875 605.328125 C 395.695313 602.742188 394.578125 600.238281 392.765625 598.414063 "/>
<path style=" stroke:none;fill-rule:nonzero;fill:rgb(18.821716%,18.821716%,18.821716%);fill-opacity:1;" d="M 130.511719 120.558594 L 130.589844 156.171875 C 130.601563 163.480469 136.542969 169.390625 143.851563 169.378906 L 156.734375 169.351563 C 161.144531 169.339844 165.320313 168.539063 169.265625 166.941406 C 173.210938 165.339844 176.6875 163.140625 179.703125 160.351563 C 182.710938 157.558594 185.085938 154.269531 186.820313 150.480469 C 188.71875 146.339844 189.570313 141.839844 189.378906 136.980469 C 189.242188 133.578125 188.46875 130.199219 187.113281 127.078125 C 185.335938 122.988281 182.832031 119.398438 179.609375 116.320313 C 176.582031 113.449219 173.09375 111.21875 169.144531 109.628906 C 165.191406 108.050781 161.011719 107.261719 156.601563 107.269531 L 143.71875 107.300781 C 136.410156 107.308594 130.496094 113.25 130.511719 120.558594 M 101.957031 284.078125 C 93.828125 284.101563 86.976563 281.71875 81.394531 276.960938 C 75.8125 272.199219 73.015625 266.339844 73 259.371094 L 72.640625 91.03125 C 72.625 84.070313 75.398438 78.191406 80.960938 73.398438 C 86.523438 68.621094 93.363281 66.210938 101.492188 66.199219 L 163.828125 66.058594 C 175.199219 66.039063 185.886719 67.910156 195.878906 71.671875 C 205.867188 75.429688 214.585938 80.578125 222.03125 87.128906 C 229.472656 93.679688 235.347656 101.328125 239.667969 110.078125 C 243.976563 118.828125 246.148438 128.171875 246.167969 138.121094 C 246.191406 148.070313 244.058594 157.429688 239.785156 166.191406 C 235.507813 174.960938 229.664063 182.628906 222.246094 189.210938 C 214.832031 195.789063 206.136719 200.988281 196.164063 204.78125 C 186.183594 208.589844 175.507813 210.5 164.136719 210.519531 L 143.9375 210.570313 C 136.628906 210.578125 130.71875 216.519531 130.730469 223.828125 L 130.808594 259.25 C 130.824219 266.210938 128.050781 272.089844 122.488281 276.871094 C 116.925781 281.660156 110.078125 284.058594 101.957031 284.078125 "/>
<path style=" stroke:none;fill-rule:nonzero;fill:rgb(18.821716%,18.821716%,18.821716%);fill-opacity:1;" d="M 115.386719 1134.929688 L 115.4375 1160 C 115.449219 1165.148438 119.632813 1169.3125 124.777344 1169.300781 L 133.847656 1169.28125 C 136.953125 1169.273438 139.890625 1168.710938 142.671875 1167.582031 C 145.449219 1166.453125 147.894531 1164.910156 150.019531 1162.941406 C 152.136719 1160.976563 153.808594 1158.660156 155.03125 1155.996094 C 156.363281 1153.082031 156.964844 1149.910156 156.832031 1146.488281 C 156.734375 1144.09375 156.191406 1141.714844 155.238281 1139.515625 C 153.984375 1136.636719 152.222656 1134.109375 149.953125 1131.945313 C 147.820313 1129.921875 145.367188 1128.351563 142.585938 1127.234375 C 139.800781 1126.121094 136.859375 1125.566406 133.753906 1125.570313 L 124.683594 1125.589844 C 119.539063 1125.601563 115.375 1129.785156 115.386719 1134.929688 M 95.28125 1250.058594 C 89.558594 1250.070313 84.734375 1248.398438 80.804688 1245.042969 C 76.875 1241.691406 74.902344 1237.566406 74.894531 1232.660156 L 74.640625 1114.140625 C 74.628906 1109.238281 76.582031 1105.101563 80.5 1101.730469 C 84.414063 1098.359375 89.230469 1096.667969 94.953125 1096.65625 L 138.84375 1096.5625 C 146.851563 1096.542969 154.371094 1097.863281 161.40625 1100.503906 C 168.441406 1103.152344 174.578125 1106.78125 179.820313 1111.394531 C 185.0625 1116.007813 189.199219 1121.390625 192.238281 1127.546875 C 195.273438 1133.707031 196.800781 1140.289063 196.816406 1147.292969 C 196.828125 1154.296875 195.332031 1160.886719 192.320313 1167.054688 C 189.308594 1173.226563 185.195313 1178.628906 179.972656 1183.261719 C 174.75 1187.898438 168.628906 1191.554688 161.609375 1194.230469 C 154.582031 1196.90625 147.066406 1198.253906 139.058594 1198.269531 L 124.839844 1198.300781 C 119.691406 1198.3125 115.53125 1202.492188 115.539063 1207.636719 L 115.59375 1232.574219 C 115.605469 1237.476563 113.652344 1241.613281 109.734375 1244.984375 C 105.820313 1248.351563 101 1250.042969 95.28125 1250.058594 "/>
<path style=" stroke:none;fill-rule:nonzero;fill:rgb(18.821716%,18.821716%,18.821716%);fill-opacity:1;" d="M 520.253906 1180.722656 C 519.273438 1176.71875 517.902344 1173.277344 516.144531 1170.394531 C 514.390625 1167.519531 512.351563 1165.234375 510.035156 1163.550781 C 507.714844 1161.863281 505.226563 1161.023438 502.554688 1161.023438 C 500.027344 1161.023438 497.605469 1161.863281 495.285156 1163.550781 C 492.96875 1165.234375 490.96875 1167.519531 489.28125 1170.394531 C 487.597656 1173.277344 486.261719 1176.71875 485.277344 1180.722656 C 484.296875 1184.726563 483.804688 1189.042969 483.804688 1193.679688 C 483.804688 1198.3125 484.296875 1202.632813 485.277344 1206.636719 C 486.261719 1210.640625 487.597656 1214.117188 489.28125 1217.066406 C 490.96875 1220.015625 492.96875 1222.335938 495.285156 1224.019531 C 497.605469 1225.703125 500.027344 1226.546875 502.554688 1226.546875 C 505.226563 1226.546875 507.714844 1225.703125 510.035156 1224.019531 C 512.351563 1222.335938 514.390625 1220.015625 516.144531 1217.066406 C 517.902344 1214.117188 519.273438 1210.640625 520.253906 1206.636719 C 521.238281 1202.632813 521.730469 1198.3125 521.730469 1193.679688 C 521.730469 1189.042969 521.238281 1184.726563 520.253906 1180.722656 M 550.066406 1098.550781 C 553.367188 1101.851563 555.019531 1105.820313 555.019531 1110.453125 L 555.019531 1235.605469 C 555.019531 1239.820313 553.511719 1243.441406 550.488281 1246.457031 C 547.46875 1249.476563 543.851563 1250.988281 539.636719 1250.988281 C 535.566406 1250.988281 532.019531 1249.582031 528.996094 1246.773438 C 527.921875 1245.769531 527.015625 1244.222656 526.285156 1242.464844 C 524.859375 1239.019531 520.171875 1238.46875 517.859375 1241.394531 C 515.8125 1243.992188 513.621094 1246.261719 511.300781 1247.40625 C 506.453125 1249.792969 501.363281 1250.988281 496.023438 1250.988281 C 489.84375 1250.988281 484.015625 1249.511719 478.535156 1246.5625 C 473.058594 1243.613281 468.316406 1239.574219 464.3125 1234.449219 C 460.3125 1229.324219 457.148438 1223.28125 454.832031 1216.328125 C 452.515625 1209.375 451.355469 1201.898438 451.355469 1193.890625 C 451.355469 1185.882813 452.515625 1178.402344 454.832031 1171.449219 C 457.148438 1164.496094 460.347656 1158.460938 464.417969 1153.328125 C 468.496094 1148.203125 473.234375 1144.164063 478.640625 1141.214844 C 484.050781 1138.265625 489.914063 1136.789063 496.234375 1136.789063 C 501.011719 1136.789063 503.9375 1137.046875 508.21875 1138.734375 C 510.476563 1139.617188 514.226563 1142.3125 516.269531 1144.582031 C 518.113281 1146.636719 521.519531 1145.339844 521.519531 1142.578125 L 521.519531 1110.453125 C 521.519531 1105.820313 523.171875 1101.851563 526.46875 1098.550781 C 529.773438 1095.25 533.667969 1093.597656 538.164063 1093.597656 C 542.796875 1093.597656 546.769531 1095.25 550.066406 1098.550781 "/>
<path style=" stroke:none;fill-rule:nonzero;fill:rgb(18.821716%,18.821716%,18.821716%);fill-opacity:1;" d="M 348.382813 1138.128906 C 353.015625 1138.128906 356.667969 1139.640625 359.339844 1142.660156 C 360.164063 1143.59375 360.859375 1144.558594 361.429688 1145.550781 C 363.011719 1148.3125 366.6875 1149.023438 369.132813 1146.984375 C 371.4375 1145.066406 373.859375 1143.410156 376.402344 1142.027344 C 381.179688 1139.429688 386.445313 1138.128906 392.207031 1138.128906 C 397.265625 1138.128906 402.070313 1139.183594 406.640625 1141.289063 C 411.203125 1143.398438 415.171875 1146.242188 418.542969 1149.820313 C 421.914063 1153.40625 424.582031 1157.585938 426.550781 1162.359375 C 428.515625 1167.136719 429.5 1172.261719 429.5 1177.738281 L 429.5 1235.683594 C 429.5 1240.179688 427.949219 1243.96875 424.863281 1247.058594 C 421.773438 1250.148438 417.980469 1251.691406 413.484375 1251.691406 C 408.988281 1251.691406 405.164063 1250.148438 402.003906 1247.058594 C 398.84375 1243.96875 397.265625 1240.179688 397.265625 1235.683594 L 397.265625 1183.429688 C 397.265625 1170.507813 392.765625 1164.046875 383.777344 1164.046875 C 378.859375 1164.046875 374.429688 1164.113281 371.101563 1167.53125 C 367.164063 1171.578125 365.730469 1177.523438 365.660156 1182.996094 L 365.660156 1235.046875 C 365.660156 1239.546875 364.007813 1243.445313 360.707031 1246.742188 C 357.40625 1250.042969 353.507813 1251.691406 349.015625 1251.691406 C 344.378906 1251.691406 340.410156 1250.042969 337.109375 1246.742188 C 333.808594 1243.445313 332.15625 1239.546875 332.15625 1235.046875 L 332.15625 1153.722656 C 332.15625 1149.367188 333.703125 1145.679688 336.792969 1142.660156 C 339.882813 1139.640625 343.746094 1138.128906 348.382813 1138.128906 "/>
<path style=" stroke:none;fill-rule:nonzero;fill:rgb(18.821716%,18.821716%,18.821716%);fill-opacity:1;" d="M 315.507813 155.429688 C 315.507813 161.089844 316.164063 166.421875 317.484375 171.421875 C 318.804688 176.421875 320.597656 180.75 322.859375 184.429688 C 325.125 188.109375 327.8125 191.039063 330.921875 193.199219 C 334.035156 195.371094 337.289063 196.460938 340.683594 196.460938 C 344.265625 196.460938 347.617188 195.320313 350.730469 193.058594 C 353.839844 190.800781 356.527344 187.78125 358.792969 184.011719 C 361.054688 180.238281 362.847656 175.761719 364.167969 170.570313 C 365.484375 165.378906 366.148438 159.960938 366.148438 154.300781 C 366.148438 148.640625 365.484375 143.269531 364.167969 138.171875 C 362.847656 133.078125 361.054688 128.648438 358.792969 124.878906 C 356.527344 121.109375 353.839844 118.128906 350.730469 115.960938 C 347.617188 113.800781 344.363281 112.710938 340.96875 112.710938 C 337.382813 112.710938 334.035156 113.890625 330.921875 116.25 C 327.8125 118.609375 325.125 121.71875 322.859375 125.578125 C 320.597656 129.449219 318.804688 133.980469 317.484375 139.160156 C 316.164063 144.351563 315.507813 149.769531 315.507813 155.429688 M 291.457031 77.910156 C 296.925781 77.910156 301.6875 79.851563 305.746094 83.710938 C 307.179688 85.078125 308.382813 87.171875 309.355469 89.550781 C 311.28125 94.25 317.628906 94.960938 320.789063 90.980469 C 323.316406 87.808594 326.078125 84.960938 329.085938 83.289063 C 335.875 79.519531 343.230469 77.628906 351.152344 77.628906 C 359.074219 77.628906 366.617188 79.609375 373.785156 83.570313 C 380.953125 87.53125 387.226563 92.960938 392.601563 99.839844 C 397.976563 106.730469 402.222656 114.828125 405.335938 124.171875 C 408.445313 133.511719 410 143.550781 410 154.300781 C 410 165.050781 408.445313 175.101563 405.335938 184.429688 C 402.222656 193.769531 397.929688 201.929688 392.460938 208.910156 C 386.988281 215.878906 380.578125 221.351563 373.222656 225.308594 C 365.863281 229.269531 357.941406 231.261719 349.457031 231.261719 C 343.230469 231.261719 337.242188 230.171875 331.488281 228 C 329.585938 227.28125 327.738281 226.199219 325.949219 224.929688 C 321.691406 221.910156 315.785156 225.089844 315.785156 230.320313 L 315.785156 261.808594 C 315.785156 267.851563 313.570313 273.078125 309.140625 277.511719 C 304.703125 281.941406 299.472656 284.160156 293.4375 284.160156 C 287.214844 284.160156 281.882813 281.941406 277.453125 277.511719 C 273.019531 273.078125 270.804688 267.851563 270.804688 261.808594 L 270.804688 98.570313 C 270.804688 92.910156 272.828125 88.050781 276.886719 84 C 280.941406 79.941406 285.796875 77.910156 291.457031 77.910156 "/>
<path style=" stroke:none;fill-rule:nonzero;fill:rgb(18.821716%,18.821716%,18.821716%);fill-opacity:1;" d="M 293.660156 1146.6875 C 298.304688 1146.6875 302.316406 1148.421875 305.691406 1151.875 C 308.699219 1154.957031 310.304688 1159.15625 310.304688 1163.464844 L 310.304688 1234.972656 C 310.304688 1239.46875 308.6875 1243.328125 305.457031 1246.558594 C 302.222656 1249.792969 298.363281 1251.40625 293.871094 1251.40625 C 291.199219 1251.40625 285.261719 1249.933594 282.746094 1245.617188 C 280.507813 1241.765625 275.351563 1240.964844 272.195313 1244.109375 C 270.117188 1246.179688 267.863281 1248.054688 265.425781 1248.773438 C 259.949219 1250.386719 255.03125 1251.195313 250.675781 1251.195313 C 236.207031 1251.195313 225.664063 1246.070313 215.410156 1235.8125 C 205.15625 1225.5625 200.03125 1213.199219 200.03125 1198.730469 C 200.03125 1184.265625 205.15625 1171.941406 215.410156 1161.753906 C 225.664063 1151.574219 236.207031 1146.480469 250.675781 1146.480469 C 255.03125 1146.480469 259.980469 1147.289063 265.53125 1148.902344 C 268.035156 1149.632813 270.347656 1151.183594 272.46875 1152.882813 C 275.839844 1155.585938 280.710938 1154.8125 283.222656 1151.296875 C 285.941406 1147.480469 290.988281 1146.6875 293.660156 1146.6875 "/>
<path style=" stroke:none;fill-rule:nonzero;fill:rgb(100%,100%,100%);fill-opacity:1;" d="M 231.582031 1198.835938 C 231.582031 1203.050781 232.074219 1206.914063 233.058594 1210.425781 C 234.039063 1213.9375 235.378906 1217.027344 237.0625 1219.695313 C 238.746094 1222.367188 240.746094 1224.4375 243.066406 1225.910156 C 245.382813 1227.386719 247.878906 1228.125 250.546875 1228.125 C 253.210938 1228.125 255.707031 1227.386719 258.023438 1225.910156 C 260.34375 1224.4375 262.34375 1222.367188 264.03125 1219.695313 C 265.714844 1217.027344 267.050781 1213.9375 268.035156 1210.425781 C 269.015625 1206.914063 269.507813 1203.050781 269.507813 1198.835938 C 269.507813 1194.621094 269.015625 1190.761719 268.035156 1187.25 C 267.050781 1183.738281 265.714844 1180.683594 264.03125 1178.085938 C 262.34375 1175.484375 260.34375 1173.449219 258.023438 1171.972656 C 255.707031 1170.5 253.210938 1169.761719 250.546875 1169.761719 C 247.878906 1169.761719 245.382813 1170.5 243.066406 1171.972656 C 240.746094 1173.449219 238.746094 1175.484375 237.0625 1178.085938 C 235.378906 1180.683594 234.039063 1183.738281 233.058594 1187.25 C 232.074219 1190.761719 231.582031 1194.621094 231.582031 1198.835938 "/>
<path style=" stroke:none;fill-rule:nonzero;fill:rgb(18.821716%,18.821716%,18.821716%);fill-opacity:1;" d="M 660.355469 1145.355469 C 665.003906 1145.355469 669.015625 1147.085938 672.386719 1150.539063 C 675.394531 1153.625 677 1157.824219 677 1162.132813 L 677 1233.636719 C 677 1238.132813 675.382813 1241.996094 672.15625 1245.226563 C 668.921875 1248.460938 665.058594 1250.074219 660.566406 1250.074219 C 657.894531 1250.074219 651.957031 1248.601563 649.445313 1244.285156 C 647.203125 1240.429688 642.046875 1239.632813 638.890625 1242.777344 C 636.816406 1244.847656 634.558594 1246.71875 632.121094 1247.4375 C 626.644531 1249.054688 621.726563 1249.859375 617.371094 1249.859375 C 602.90625 1249.859375 592.359375 1244.734375 582.105469 1234.480469 C 571.851563 1224.230469 566.726563 1211.867188 566.726563 1197.398438 C 566.726563 1182.933594 571.851563 1170.605469 582.105469 1160.421875 C 592.359375 1150.238281 602.90625 1145.144531 617.371094 1145.144531 C 621.726563 1145.144531 626.675781 1145.953125 632.226563 1147.570313 C 634.730469 1148.300781 637.046875 1149.847656 639.164063 1151.546875 C 642.535156 1154.253906 647.410156 1153.480469 649.914063 1149.960938 C 652.636719 1146.148438 657.6875 1145.355469 660.355469 1145.355469 "/>
<path style=" stroke:none;fill-rule:nonzero;fill:rgb(100%,100%,100%);fill-opacity:1;" d="M 598.277344 1197.503906 C 598.277344 1201.71875 598.769531 1205.582031 599.753906 1209.09375 C 600.734375 1212.605469 602.074219 1215.695313 603.757813 1218.363281 C 605.441406 1221.03125 607.445313 1223.101563 609.761719 1224.578125 C 612.082031 1226.054688 614.574219 1226.789063 617.242188 1226.789063 C 619.90625 1226.789063 622.402344 1226.054688 624.722656 1224.578125 C 627.039063 1223.101563 629.042969 1221.03125 630.726563 1218.363281 C 632.410156 1215.695313 633.746094 1212.605469 634.730469 1209.09375 C 635.710938 1205.582031 636.207031 1201.71875 636.207031 1197.503906 C 636.207031 1193.289063 635.710938 1189.429688 634.730469 1185.914063 C 633.746094 1182.40625 632.410156 1179.351563 630.726563 1176.75 C 629.042969 1174.152344 627.039063 1172.117188 624.722656 1170.640625 C 622.402344 1169.164063 619.90625 1168.429688 617.242188 1168.429688 C 614.574219 1168.429688 612.082031 1169.164063 609.761719 1170.640625 C 607.445313 1172.117188 605.441406 1174.152344 603.757813 1176.75 C 602.074219 1179.351563 600.734375 1182.40625 599.753906 1185.914063 C 598.769531 1189.429688 598.277344 1193.289063 598.277344 1197.503906 "/>
</g>
</svg>
