<?xml version="1.0" encoding="UTF-8"?>
<svg xmlns="http://www.w3.org/2000/svg" xmlns:xlink="http://www.w3.org/1999/xlink" width="750pt" height="1334pt" viewBox="0 0 750 1334" version="1.1">
<g id="surface1">
<path style=" stroke:none;fill-rule:nonzero;fill:rgb(92.96875%,80.46875%,78.514099%);fill-opacity:1;" d="M 517.382813 718.667969 C 516.660156 711.328125 508.152344 709.171875 503.832031 712.535156 C 498.960938 705.410156 489.25 702.558594 481.710938 709.902344 C 481.109375 710.488281 480.511719 711.074219 479.910156 711.65625 C 480.472656 710.632813 481.03125 709.609375 481.59375 708.585938 C 485.089844 702.207031 483.722656 694.0625 477.8125 689.648438 C 472.484375 685.664063 463.175781 685.015625 458.535156 690.796875 C 453.011719 697.671875 447.484375 704.542969 441.941406 711.398438 C 435.765625 710.136719 429.441406 709.648438 422.53125 709.929688 C 407.785156 710.519531 393.089844 710.078125 378.394531 709.421875 C 378.949219 706.917969 379.507813 704.414063 380.078125 701.914063 C 384.28125 683.519531 357.261719 675.964844 351.765625 694.109375 C 351.371094 695.417969 350.988281 696.730469 350.601563 698.039063 C 348.796875 696.898438 346.777344 696.136719 344.714844 695.890625 C 342.234375 695.59375 339.890625 695.886719 337.769531 696.652344 C 334.015625 690.210938 324.621094 687.816406 317.855469 690.722656 C 314.277344 677.578125 294.472656 677.054688 289.578125 691.011719 C 288.882813 693.003906 288.261719 695.019531 287.683594 697.050781 C 286.726563 696.847656 285.726563 696.738281 284.691406 696.738281 C 275.9375 696.738281 270.996094 703.515625 270.011719 711.421875 C 269.703125 713.867188 269.429688 716.316406 269.152344 718.765625 C 267.71875 720.519531 266.554688 722.5 265.582031 724.617188 C 265.6875 722.78125 265.8125 720.949219 265.988281 719.117188 C 266.957031 708.859375 250.9375 708.929688 249.972656 719.117188 C 247.875 741.277344 255.511719 791.117188 267.941406 822.640625 C 284.457031 864.527344 294.335938 874.359375 298.132813 877.902344 C 318.398438 896.832031 342.824219 902.503906 352.777344 904.695313 C 370.46875 908.589844 384.394531 907.398438 393.765625 907.121094 C 420.0625 906.339844 447.585938 900.261719 468.984375 884.21875 C 490.890625 867.792969 501.394531 838.152344 508.757813 812.710938 C 517.566406 782.273438 520.484375 750.183594 517.382813 718.667969 "/>
<path style=" stroke:none;fill-rule:nonzero;fill:rgb(73.631287%,44.700623%,41.184998%);fill-opacity:1;" d="M 358.117188 800.273438 C 352.441406 790.421875 345.097656 784.628906 333.210938 785.945313 C 323.132813 787.0625 314.230469 793.003906 311.710938 803.167969 C 309.882813 810.527344 321.238281 813.664063 323.066406 806.300781 C 324.472656 800.652344 329.253906 798.125 334.78125 797.59375 C 341.796875 796.917969 344.734375 800.648438 347.945313 806.21875 C 351.730469 812.785156 361.914063 806.859375 358.117188 800.273438 "/>
<path style=" stroke:none;fill-rule:nonzero;fill:rgb(73.631287%,44.700623%,41.184998%);fill-opacity:1;" d="M 452.363281 800.78125 C 446.6875 790.929688 439.34375 785.136719 427.457031 786.453125 C 417.382813 787.570313 408.480469 793.515625 405.953125 803.675781 C 404.128906 811.035156 415.484375 814.175781 417.316406 806.808594 C 418.71875 801.160156 423.5 798.632813 429.027344 798.101563 C 436.042969 797.425781 438.984375 801.160156 442.191406 806.726563 C 445.976563 813.296875 456.160156 807.367188 452.363281 800.78125 "/>
<path style=" stroke:none;fill-rule:nonzero;fill:rgb(73.631287%,44.700623%,41.184998%);fill-opacity:1;" d="M 384.933594 831.921875 C 382.671875 832.226563 380.910156 833.566406 379.824219 835.433594 C 379.464844 835.84375 379.140625 836.292969 378.898438 836.800781 C 377.507813 839.683594 377.738281 843.023438 380.019531 845.414063 C 381.953125 847.445313 384.722656 848.050781 387.398438 847.523438 C 389.890625 847.035156 391.796875 845.140625 392.746094 842.875 C 394.976563 837.601563 390.894531 831.121094 384.933594 831.921875 "/>
<path style=" stroke:none;fill-rule:nonzero;fill:rgb(73.631287%,44.700623%,41.184998%);fill-opacity:1;" d="M 385.316406 708.234375 C 383.566406 709.113281 381.808594 709.988281 380.050781 710.867188 L 377.304688 711.054688 C 380.1875 709.730469 383.070313 708.40625 385.960938 707.09375 C 391.421875 704.613281 387.304688 696.996094 382.113281 697.972656 C 374.152344 699.472656 366.273438 701.28125 358.46875 703.375 C 357.46875 700.65625 354.101563 698.539063 351.109375 700.324219 C 344.613281 704.199219 338.097656 708.066406 331.546875 711.871094 C 330.644531 712.199219 329.742188 712.546875 328.839844 712.882813 C 327.921875 710.800781 325.796875 709.265625 323.113281 710.0625 C 317.824219 711.640625 312.984375 714.128906 308.257813 716.835938 C 308.371094 716.640625 308.488281 716.453125 308.601563 716.257813 C 309.539063 715 310.457031 713.730469 311.351563 712.4375 C 312.015625 711.484375 312.210938 710.472656 312.09375 709.511719 C 313.238281 704.433594 305.734375 700.574219 302.984375 705.816406 C 302.769531 706.21875 302.546875 706.613281 302.328125 707.015625 C 299.289063 708.945313 296.273438 710.90625 293.28125 712.898438 C 300.644531 700.605469 308.226563 688.441406 316.039063 676.421875 C 319.085938 671.734375 311.917969 666.039063 308.203125 670.378906 C 302.128906 677.457031 296.125 684.589844 290.171875 691.765625 C 287.984375 690.453125 285.035156 690.597656 283.59375 693.480469 C 281.003906 698.675781 278.472656 703.894531 275.96875 709.128906 C 275.84375 709.285156 275.714844 709.441406 275.589844 709.597656 C 270.253906 716.21875 264.976563 722.886719 259.746094 729.589844 C 258.730469 730.898438 257.621094 732.203125 256.519531 733.535156 C 257.015625 731.863281 257.542969 730.195313 258.109375 728.535156 C 259.5625 724.277344 255.378906 721.769531 251.972656 722.652344 C 251.996094 722.433594 252.023438 722.21875 252.050781 722.003906 C 252.742188 716.398438 243.523438 715.273438 242.25 720.675781 C 242.0625 721.476563 241.886719 722.28125 241.703125 723.082031 C 238.835938 721.300781 235.152344 722.628906 234.242188 726.214844 C 232.910156 726.625 231.839844 727.703125 231.574219 729.628906 C 223.085938 791.011719 214.839844 853.003906 223.160156 914.863281 C 223.160156 914.875 223.160156 914.882813 223.160156 914.894531 C 223.160156 914.894531 223.164063 914.894531 223.164063 914.894531 C 223.222656 915.335938 223.277344 915.777344 223.339844 916.222656 C 223.441406 916.988281 223.691406 917.617188 224.039063 918.128906 C 224.144531 918.722656 224.257813 919.316406 224.402344 919.917969 C 225.21875 923.285156 225.863281 928.800781 228.8125 931.066406 C 230.296875 932.207031 232.421875 932.597656 234.636719 932.710938 C 237.746094 933.394531 241.367188 933.105469 244.382813 933.085938 C 248.726563 933.050781 253.0625 932.820313 257.382813 932.394531 C 263.910156 931.75 270.328125 930.652344 276.648438 929.175781 C 278.652344 928.890625 280.652344 928.574219 282.648438 928.214844 C 291.851563 926.5625 300.546875 924.480469 308.050781 918.667969 C 309.585938 917.480469 309.847656 915.675781 309.34375 914.023438 C 309.296875 913.238281 309.109375 912.476563 308.753906 911.824219 L 306.171875 907.054688 C 306.109375 906.484375 305.957031 905.902344 305.679688 905.308594 C 283.796875 858.246094 278.46875 806.476563 283.199219 755.453125 C 322.4375 761.046875 359.035156 738.785156 390.355469 716.855469 C 395.59375 713.183594 391.113281 705.339844 385.316406 708.234375 "/>
<path style=" stroke:none;fill-rule:nonzero;fill:rgb(73.631287%,44.700623%,41.184998%);fill-opacity:1;" d="M 537.152344 728.519531 C 536.882813 726.597656 535.816406 725.515625 534.484375 725.105469 C 533.570313 721.519531 529.886719 720.191406 527.019531 721.976563 C 526.839844 721.171875 526.664063 720.371094 526.476563 719.566406 C 525.199219 714.164063 515.980469 715.289063 516.671875 720.894531 C 516.699219 721.109375 516.726563 721.328125 516.753906 721.542969 C 513.34375 720.660156 509.164063 723.171875 510.613281 727.429688 C 510.757813 727.84375 510.875 728.261719 511.011719 728.675781 C 510.136719 728.347656 509.257813 728.03125 508.375 727.71875 C 503.34375 721.269531 498.265625 714.859375 493.136719 708.492188 C 493.007813 708.332031 492.878906 708.175781 492.753906 708.019531 C 490.253906 702.785156 487.722656 697.566406 485.128906 692.371094 C 483.691406 689.488281 480.738281 689.34375 478.550781 690.660156 C 472.601563 683.480469 466.59375 676.347656 460.523438 669.269531 C 456.804688 664.933594 449.636719 670.625 452.6875 675.3125 C 460.496094 687.335938 468.078125 699.496094 475.441406 711.789063 C 472.449219 709.796875 469.433594 707.835938 466.394531 705.90625 C 466.179688 705.503906 465.953125 705.113281 465.738281 704.707031 C 462.988281 699.46875 455.484375 703.328125 456.628906 708.402344 C 456.511719 709.363281 456.710938 710.375 457.371094 711.328125 C 458.269531 712.621094 459.1875 713.890625 460.121094 715.148438 C 460.234375 715.34375 460.355469 715.53125 460.46875 715.726563 C 455.738281 713.019531 450.898438 710.535156 445.609375 708.957031 C 442.929688 708.15625 440.800781 709.691406 439.882813 711.773438 C 438.980469 711.4375 438.082031 711.09375 437.175781 710.761719 C 430.628906 706.957031 424.113281 703.089844 417.613281 699.214844 C 414.621094 697.429688 411.253906 699.546875 410.253906 702.265625 C 402.453125 700.175781 394.570313 698.367188 386.609375 696.867188 C 381.421875 695.890625 377.304688 703.503906 382.761719 705.988281 C 385.652344 707.296875 388.535156 708.621094 391.417969 709.949219 L 388.671875 709.757813 C 386.914063 708.878906 385.160156 708.003906 383.40625 707.128906 C 377.609375 704.230469 373.128906 712.074219 378.371094 715.746094 C 407.757813 736.324219 441.796875 757.191406 478.304688 755.0625 C 480.761719 755.578125 483.234375 756.050781 485.714844 756.492188 C 490.09375 806.820313 484.621094 857.796875 463.046875 904.199219 C 462.769531 904.792969 462.617188 905.378906 462.554688 905.945313 L 459.96875 910.714844 C 459.613281 911.367188 459.429688 912.132813 459.378906 912.914063 C 458.875 914.566406 459.140625 916.371094 460.671875 917.558594 C 468.175781 923.371094 476.875 925.453125 486.074219 927.109375 C 488.070313 927.46875 490.070313 927.78125 492.074219 928.066406 C 498.394531 929.546875 504.816406 930.640625 511.339844 931.285156 C 515.660156 931.714844 520 931.945313 524.339844 931.976563 C 527.359375 931.996094 530.980469 932.285156 534.085938 931.601563 C 536.304688 931.488281 538.425781 931.097656 539.910156 929.957031 C 542.863281 927.691406 543.503906 922.175781 544.320313 918.808594 C 544.464844 918.207031 544.582031 917.613281 544.6875 917.019531 C 545.03125 916.511719 545.28125 915.882813 545.386719 915.113281 C 545.449219 914.671875 545.5 914.230469 545.558594 913.785156 C 545.5625 913.785156 545.5625 913.785156 545.566406 913.785156 C 545.5625 913.777344 545.5625 913.765625 545.5625 913.753906 C 553.886719 851.894531 545.636719 789.902344 537.152344 728.519531 "/>
<path style=" stroke:none;fill-rule:nonzero;fill:rgb(95.701599%,64.256287%,70.896912%);fill-opacity:1;" d="M 328.445313 823.875 C 326.414063 821.949219 323.664063 821.777344 321.019531 821.589844 C 317.917969 821.367188 314.816406 821.378906 311.710938 821.546875 C 310.792969 821.597656 310.019531 821.863281 309.363281 822.253906 C 308.160156 822.484375 307.027344 822.941406 305.988281 824.011719 C 304.09375 825.96875 303.59375 828.96875 304.988281 831.363281 C 307.753906 836.089844 316.976563 834.417969 321.511719 834.253906 C 324.117188 834.15625 326.855469 834.15625 328.800781 832.152344 C 331.042969 829.835938 330.71875 826.027344 328.445313 823.875 "/>
<path style=" stroke:none;fill-rule:nonzero;fill:rgb(95.701599%,64.256287%,70.896912%);fill-opacity:1;" d="M 460.398438 823.875 C 458.367188 821.949219 455.617188 821.777344 452.972656 821.589844 C 449.871094 821.367188 446.769531 821.378906 443.664063 821.546875 C 442.746094 821.597656 441.972656 821.863281 441.316406 822.253906 C 440.113281 822.484375 438.980469 822.941406 437.941406 824.011719 C 436.046875 825.96875 435.542969 828.96875 436.941406 831.363281 C 439.703125 836.089844 448.925781 834.417969 453.464844 834.253906 C 456.066406 834.15625 458.808594 834.15625 460.753906 832.152344 C 462.996094 829.835938 462.667969 826.027344 460.398438 823.875 "/>
<path style=" stroke:none;fill-rule:nonzero;fill:rgb(74.414063%,83.984375%,91.40625%);fill-opacity:1;" d="M 611.636719 581.117188 C 611.605469 580.742188 611.53125 580.359375 611.410156 579.984375 C 610.433594 576.964844 607.289063 574.886719 604.09375 575.832031 C 577.40625 583.710938 551.441406 594.128906 526.710938 606.882813 C 522.382813 609.109375 518.101563 611.425781 513.851563 613.804688 C 513.210938 587.1875 512.007813 560.589844 510.25 534.023438 C 510.984375 531.929688 510.734375 529.554688 508.945313 527.910156 C 506.734375 525.882813 502.675781 525.371094 500.53125 527.910156 C 482.777344 548.941406 465.019531 569.976563 447.261719 591.007813 L 439.578125 600.109375 C 433.964844 579.5 428.554688 558.839844 423.359375 538.121094 C 417.121094 513.25 411.191406 488.300781 405.566406 463.28125 C 402.378906 449.105469 399.292969 434.90625 396.300781 420.6875 C 395.660156 417.640625 391.910156 415.585938 388.984375 416.535156 C 386.390625 417.371094 384.839844 419.488281 384.691406 421.984375 C 384.671875 421.988281 384.65625 421.992188 384.640625 421.992188 C 383.882813 420.421875 382.484375 419.128906 380.832031 418.753906 C 377.527344 418 374.601563 419.753906 373.515625 422.90625 C 364.90625 447.941406 357.066406 473.238281 350.023438 498.757813 C 342.949219 524.390625 336.675781 550.246094 331.21875 576.273438 C 328.90625 587.289063 326.742188 598.339844 324.726563 609.414063 C 308.097656 587.050781 291.472656 564.6875 274.84375 542.324219 C 269.382813 534.980469 263.917969 527.632813 258.457031 520.285156 C 256.605469 517.796875 253.222656 516.277344 250.320313 518.152344 C 249.113281 518.929688 248.101563 520.257813 247.613281 521.722656 C 247.390625 522.335938 247.257813 523 247.238281 523.707031 C 246.574219 550.902344 245.765625 578.09375 244.8125 605.28125 C 244.65625 609.652344 244.492188 614.027344 244.332031 618.398438 C 222.460938 601.863281 199.617188 586.644531 175.839844 572.96875 C 168.1875 568.566406 160.441406 564.328125 152.617188 560.238281 C 147.871094 557.757813 142.820313 561.828125 143.878906 566.953125 C 144.367188 569.3125 145.300781 571.5625 146.578125 573.601563 C 146.683594 574.316406 146.917969 575.027344 147.316406 575.703125 C 159.417969 596.191406 170.953125 617.011719 181.890625 638.140625 C 192.773438 659.171875 203.070313 680.5 212.761719 702.101563 C 218.261719 714.359375 223.386719 726.289063 228.394531 738.484375 C 229.003906 739.96875 230.058594 741.3125 231.394531 742.121094 C 234.078125 741.507813 236.648438 740.515625 239.28125 739.796875 C 239.316406 739.738281 239.363281 739.691406 239.398438 739.636719 C 275.980469 727.460938 313.730469 720.035156 351.660156 717.386719 C 371.75 715.980469 391.929688 715.867188 412.03125 717.046875 C 422.085938 717.632813 432.117188 718.542969 442.109375 719.773438 C 443.21875 719.910156 444.328125 720.050781 445.4375 720.195313 C 445.34375 720.183594 446.753906 720.371094 446.773438 720.375 C 447.132813 720.425781 447.488281 720.472656 447.847656 720.523438 C 450.507813 720.894531 453.164063 721.285156 455.816406 721.703125 C 460.675781 722.46875 465.527344 723.308594 470.363281 724.222656 C 489.628906 727.878906 508.648438 732.785156 527.289063 738.878906 C 527.359375 738.886719 527.425781 738.890625 527.496094 738.898438 C 531.539063 739.539063 535.164063 742.527344 539.21875 742.761719 C 540.492188 742.097656 541.511719 740.957031 542.191406 739.476563 C 542.621094 738.902344 542.945313 738.261719 543.101563 737.574219 C 543.144531 737.394531 543.171875 737.214844 543.199219 737.039063 C 550.96875 717.96875 560.085938 698.9375 568.683594 680.007813 C 577.769531 660.003906 586.855469 640 595.945313 619.996094 L 611.257813 586.28125 C 611.992188 584.664063 612.179688 582.757813 611.636719 581.117188 "/>
<path style=" stroke:none;fill-rule:nonzero;fill:rgb(50.584412%,68.164063%,80.076599%);fill-opacity:1;" d="M 161.199219 563.890625 C 161.371094 555.195313 160.296875 546.210938 155.230469 539.222656 C 151.847656 534.558594 146.628906 531.445313 140.722656 532.421875 C 135.15625 533.34375 131.753906 538.269531 131.414063 543.660156 C 131.355469 544.585938 131.394531 545.484375 131.519531 546.363281 C 130.652344 546.121094 129.761719 545.941406 128.835938 545.847656 C 123.179688 545.28125 117.519531 548.199219 115.65625 553.730469 C 113.796875 559.253906 115.921875 565.3125 119.449219 569.640625 C 122.894531 573.867188 128.027344 576.742188 133.3125 577.894531 C 140.429688 579.449219 147.675781 578.492188 154.753906 577.203125 C 155.589844 577.140625 156.425781 577.0625 157.265625 576.949219 C 159.191406 576.699219 160.429688 575.613281 160.609375 573.605469 C 160.878906 570.59375 161.117188 567.421875 161.191406 564.207031 C 161.199219 564.101563 161.203125 563.996094 161.199219 563.890625 "/>
<path style=" stroke:none;fill-rule:nonzero;fill:rgb(50.584412%,68.164063%,80.076599%);fill-opacity:1;" d="M 261.820313 522.261719 C 265.964844 514.617188 269.136719 506.144531 267.847656 497.609375 C 266.988281 491.910156 263.78125 486.746094 258.089844 484.902344 C 252.71875 483.164063 247.433594 485.976563 244.65625 490.609375 C 244.179688 491.402344 243.804688 492.21875 243.507813 493.054688 C 242.847656 492.445313 242.140625 491.875 241.359375 491.367188 C 236.597656 488.265625 230.230469 488.253906 226.03125 492.3125 C 221.84375 496.363281 220.949219 502.722656 222.09375 508.1875 C 223.214844 513.523438 226.449219 518.433594 230.617188 521.886719 C 236.222656 526.535156 243.097656 529.015625 249.976563 531.125 C 250.75 531.449219 251.527344 531.765625 252.324219 532.054688 C 254.148438 532.714844 255.75 532.320313 256.832031 530.617188 C 258.457031 528.066406 260.125 525.359375 261.667969 522.539063 C 261.722656 522.449219 261.773438 522.355469 261.820313 522.261719 "/>
<path style=" stroke:none;fill-rule:nonzero;fill:rgb(50.584412%,68.164063%,80.076599%);fill-opacity:1;" d="M 597.765625 571.699219 C 597.597656 563 598.671875 554.019531 603.738281 547.03125 C 607.121094 542.367188 612.339844 539.253906 618.246094 540.230469 C 623.8125 541.148438 627.214844 546.078125 627.554688 551.46875 C 627.613281 552.390625 627.570313 553.289063 627.449219 554.167969 C 628.3125 553.929688 629.203125 553.746094 630.132813 553.65625 C 635.789063 553.089844 641.449219 556.007813 643.3125 561.539063 C 645.171875 567.0625 643.046875 573.117188 639.515625 577.449219 C 636.074219 581.671875 630.941406 584.546875 625.652344 585.699219 C 618.539063 587.253906 611.292969 586.300781 604.214844 585.011719 C 603.378906 584.945313 602.539063 584.867188 601.703125 584.757813 C 599.777344 584.503906 598.535156 583.421875 598.355469 581.410156 C 598.089844 578.398438 597.847656 575.226563 597.773438 572.011719 C 597.769531 571.910156 597.765625 571.804688 597.765625 571.699219 "/>
<path style=" stroke:none;fill-rule:nonzero;fill:rgb(50.584412%,68.164063%,80.076599%);fill-opacity:1;" d="M 497.148438 530.070313 C 493.003906 522.421875 489.832031 513.949219 491.121094 505.414063 C 491.980469 499.71875 495.1875 494.554688 500.878906 492.710938 C 506.246094 490.96875 511.53125 493.78125 514.3125 498.417969 C 514.789063 499.207031 515.164063 500.027344 515.460938 500.863281 C 516.117188 500.25 516.828125 499.679688 517.609375 499.171875 C 522.371094 496.070313 528.738281 496.0625 532.933594 500.121094 C 537.125 504.171875 538.019531 510.527344 536.871094 515.996094 C 535.753906 521.328125 532.519531 526.238281 528.351563 529.695313 C 522.746094 534.34375 515.871094 536.824219 508.992188 538.929688 C 508.21875 539.257813 507.4375 539.570313 506.644531 539.859375 C 504.816406 540.519531 503.214844 540.128906 502.132813 538.425781 C 500.511719 535.871094 498.84375 533.164063 497.300781 530.34375 C 497.246094 530.257813 497.195313 530.164063 497.148438 530.070313 "/>
<path style=" stroke:none;fill-rule:nonzero;fill:rgb(50.584412%,68.164063%,80.076599%);fill-opacity:1;" d="M 396.871094 438.242188 C 405.214844 429.246094 412.511719 418.777344 413.734375 406.667969 C 414.554688 398.585938 411.976563 390.40625 404.84375 385.890625 C 398.121094 381.640625 389.914063 383.632813 384.496094 388.992188 C 383.570313 389.90625 382.769531 390.890625 382.074219 391.929688 C 381.390625 390.867188 380.617188 389.839844 379.730469 388.871094 C 374.3125 382.96875 365.609375 380.726563 358.457031 384.804688 C 351.316406 388.871094 347.871094 397.242188 347.523438 405.113281 C 347.183594 412.792969 349.890625 420.636719 354.375 426.8125 C 360.40625 435.125 368.929688 440.921875 377.59375 446.207031 C 378.53125 446.921875 379.488281 447.625 380.476563 448.296875 C 382.738281 449.835938 385.0625 449.859375 387.136719 447.914063 C 390.246094 444.992188 393.476563 441.878906 396.570313 438.566406 C 396.675781 438.464844 396.773438 438.355469 396.871094 438.242188 "/>
<path style=" stroke:none;fill-rule:nonzero;fill:rgb(50.584412%,68.164063%,80.076599%);fill-opacity:1;" d="M 384.3125 613.667969 C 373.445313 613.667969 364.203125 629.195313 364.203125 647.453125 C 364.203125 665.78125 373.40625 681.242188 384.3125 681.242188 C 395.179688 681.242188 404.421875 665.714844 404.421875 647.453125 C 404.421875 629.132813 395.21875 613.667969 384.3125 613.667969 "/>
<path style=" stroke:none;fill-rule:nonzero;fill:rgb(43.138123%,62.304688%,72.851563%);fill-opacity:1;" d="M 183.109375 217.199219 C 178.460938 212.828125 176.144531 207.949219 176.144531 202.578125 C 176.144531 197.011719 178.460938 192.128906 183.109375 187.949219 C 187.75 183.769531 193.4375 181.691406 200.171875 181.691406 C 207.136719 181.691406 213.171875 183.878906 218.28125 188.25 L 225.863281 195.03125 C 229.777344 198.53125 236.097656 196.441406 237.003906 191.269531 C 237.988281 185.628906 238.480469 179.851563 238.480469 173.929688 C 238.480469 165.769531 237.433594 157.460938 235.34375 149 C 233.257813 140.550781 229.945313 132.941406 225.421875 126.171875 C 220.894531 119.410156 215.148438 113.890625 208.179688 109.609375 C 201.21875 105.328125 192.855469 103.191406 183.109375 103.191406 C 173.585938 103.191406 165.347656 105.28125 158.382813 109.460938 C 151.414063 113.640625 145.722656 119.109375 141.316406 125.871094 C 136.902344 132.640625 133.65625 140.148438 131.566406 148.410156 C 129.476563 156.671875 128.429688 164.769531 128.429688 172.730469 C 128.429688 180.890625 129.476563 189.148438 131.566406 197.511719 C 133.65625 205.859375 136.902344 213.519531 141.316406 220.488281 C 145.722656 227.460938 151.414063 233.128906 158.382813 237.5 C 165.347656 241.878906 173.585938 244.070313 183.109375 244.070313 C 187.75 244.070313 191.988281 243.570313 195.820313 242.570313 C 195.855469 242.570313 195.894531 242.558594 195.933594 242.539063 C 201.0625 241.199219 202.511719 234.570313 198.5625 231.03125 Z M 293.851563 173.328125 C 293.851563 186.269531 292.164063 198.210938 288.804688 209.140625 C 286.765625 215.769531 283.882813 221.160156 280.195313 225.691406 C 276.097656 230.730469 276.105469 237.929688 280.5625 242.648438 L 287.234375 249.738281 C 289.554688 251.929688 291.242188 254.21875 292.285156 256.601563 C 293.328125 258.988281 293.851563 261.378906 293.851563 263.769531 C 293.851563 269.539063 291.527344 274.511719 286.886719 278.691406 C 282.238281 282.871094 276.554688 284.960938 269.824219 284.960938 C 263.554688 284.960938 257.632813 282.769531 252.0625 278.390625 L 246.730469 273.058594 C 242.34375 268.660156 235.503906 268.230469 230.375 271.730469 C 218.066406 280.121094 200.242188 284.960938 182.410156 284.960938 C 166.15625 284.960938 151.355469 282.320313 138.007813 277.050781 C 124.65625 271.78125 113.164063 264.320313 103.53125 254.660156 C 93.894531 245.011719 86.46875 233.320313 81.246094 219.589844 C 76.019531 205.859375 73.410156 190.640625 73.410156 173.929688 C 73.410156 157.019531 76.074219 141.691406 81.417969 127.960938 C 86.753906 114.230469 94.183594 102.488281 103.710938 92.738281 C 113.222656 82.988281 124.605469 75.429688 137.835938 70.058594 C 151.070313 64.691406 165.578125 62 181.367188 62 C 197.152344 62 211.894531 64.691406 225.59375 70.058594 C 239.289063 75.429688 251.191406 82.941406 261.289063 92.589844 C 271.386719 102.25 279.339844 113.929688 285.144531 127.660156 C 290.945313 141.390625 293.851563 156.621094 293.851563 173.328125 "/>
<path style=" stroke:none;fill-rule:nonzero;fill:rgb(74.414063%,83.984375%,91.40625%);fill-opacity:1;" d="M 144.523438 1206.691406 C 141.425781 1203.777344 139.882813 1200.523438 139.882813 1196.941406 C 139.882813 1193.230469 141.425781 1189.980469 144.523438 1187.195313 C 147.621094 1184.410156 151.410156 1183.019531 155.898438 1183.019531 C 160.542969 1183.019531 164.5625 1184.480469 167.96875 1187.394531 L 173.023438 1191.914063 C 175.628906 1194.246094 179.84375 1192.847656 180.445313 1189.402344 C 181.105469 1185.644531 181.429688 1181.792969 181.429688 1177.84375 C 181.429688 1172.410156 180.734375 1166.875 179.34375 1161.234375 C 177.949219 1155.597656 175.746094 1150.527344 172.726563 1146.015625 C 169.710938 1141.507813 165.878906 1137.828125 161.238281 1134.976563 C 156.59375 1132.125 151.023438 1130.699219 144.523438 1130.699219 C 138.179688 1130.699219 132.6875 1132.089844 128.046875 1134.878906 C 123.402344 1137.660156 119.609375 1141.308594 116.671875 1145.816406 C 113.730469 1150.328125 111.5625 1155.335938 110.171875 1160.835938 C 108.78125 1166.339844 108.085938 1171.746094 108.085938 1177.050781 C 108.085938 1182.488281 108.78125 1187.992188 110.171875 1193.5625 C 111.5625 1199.132813 113.730469 1204.238281 116.671875 1208.878906 C 119.609375 1213.523438 123.402344 1217.304688 128.046875 1220.21875 C 132.6875 1223.136719 138.179688 1224.59375 144.523438 1224.59375 C 147.621094 1224.59375 150.445313 1224.265625 152.996094 1223.601563 C 153.023438 1223.59375 153.046875 1223.585938 153.074219 1223.582031 C 156.492188 1222.6875 157.460938 1218.265625 154.824219 1215.90625 Z M 218.339844 1177.449219 C 218.339844 1186.070313 217.214844 1194.027344 214.972656 1201.320313 C 213.613281 1205.734375 211.691406 1209.332031 209.234375 1212.347656 C 206.503906 1215.703125 206.511719 1220.503906 209.480469 1223.652344 L 213.929688 1228.378906 C 215.472656 1229.835938 216.597656 1231.359375 217.292969 1232.953125 C 217.988281 1234.542969 218.339844 1236.132813 218.339844 1237.726563 C 218.339844 1241.574219 216.789063 1244.886719 213.695313 1247.671875 C 210.597656 1250.457031 206.808594 1251.851563 202.324219 1251.851563 C 198.144531 1251.851563 194.199219 1250.386719 190.484375 1247.472656 L 186.933594 1243.917969 C 184.003906 1240.988281 179.449219 1240.703125 176.027344 1243.035156 C 167.828125 1248.625 155.945313 1251.851563 144.0625 1251.851563 C 133.226563 1251.851563 123.363281 1250.089844 114.464844 1246.578125 C 105.566406 1243.066406 97.90625 1238.09375 91.484375 1231.65625 C 85.0625 1225.226563 80.113281 1217.433594 76.632813 1208.28125 C 73.148438 1199.132813 71.410156 1188.984375 71.410156 1177.84375 C 71.410156 1166.574219 73.1875 1156.359375 76.746094 1147.210938 C 80.304688 1138.058594 85.257813 1130.234375 91.601563 1123.734375 C 97.945313 1117.238281 105.53125 1112.195313 114.351563 1108.617188 C 123.171875 1105.035156 132.839844 1103.246094 143.363281 1103.246094 C 153.886719 1103.246094 163.710938 1105.035156 172.84375 1108.617188 C 181.972656 1112.195313 189.902344 1117.203125 196.636719 1123.636719 C 203.367188 1130.070313 208.664063 1137.859375 212.535156 1147.011719 C 216.398438 1156.160156 218.339844 1166.308594 218.339844 1177.449219 "/>
<path style=" stroke:none;fill-rule:nonzero;fill:rgb(74.414063%,83.984375%,91.40625%);fill-opacity:1;" d="M 413.460938 1189.097656 C 418.015625 1189.097656 421.34375 1184.554688 419.707031 1180.304688 C 419.695313 1180.277344 419.6875 1180.246094 419.675781 1180.222656 C 418.609375 1177.496094 417.246094 1175.136719 415.585938 1173.140625 C 413.921875 1171.148438 412.027344 1169.585938 409.898438 1168.453125 C 407.773438 1167.328125 405.511719 1166.757813 403.121094 1166.757813 C 400.726563 1166.757813 398.464844 1167.328125 396.339844 1168.453125 C 394.210938 1169.585938 392.316406 1171.148438 390.652344 1173.140625 C 388.988281 1175.136719 387.691406 1177.496094 386.765625 1180.222656 C 386.722656 1180.335938 386.6875 1180.453125 386.648438 1180.570313 C 385.277344 1184.785156 388.550781 1189.097656 392.984375 1189.097656 Z M 426.65625 1218.417969 C 429.980469 1218.417969 432.871094 1219.683594 435.332031 1222.207031 C 437.792969 1224.738281 439.023438 1227.726563 439.023438 1231.1875 C 439.023438 1233.046875 438.453125 1234.976563 437.328125 1236.96875 C 436.195313 1238.960938 434.101563 1240.894531 431.042969 1242.753906 C 427.71875 1244.882813 423.695313 1246.609375 418.976563 1247.9375 C 414.253906 1249.265625 409.367188 1249.933594 404.316406 1249.933594 C 397.933594 1249.933594 391.75 1248.738281 385.765625 1246.34375 C 379.78125 1243.949219 374.464844 1240.457031 369.8125 1235.871094 C 365.152344 1231.285156 361.433594 1225.667969 358.640625 1219.019531 C 355.847656 1212.371094 354.449219 1204.789063 354.449219 1196.277344 C 354.449219 1188.171875 355.746094 1180.789063 358.34375 1174.140625 C 360.933594 1167.492188 364.425781 1161.808594 368.8125 1157.085938 C 373.199219 1152.367188 378.351563 1148.742188 384.269531 1146.214844 C 390.1875 1143.6875 396.46875 1142.425781 403.121094 1142.425781 C 410.433594 1142.425781 417.148438 1143.921875 423.265625 1146.910156 C 429.378906 1149.90625 434.566406 1153.761719 438.824219 1158.480469 C 443.074219 1163.203125 446.402344 1168.453125 448.796875 1174.238281 C 451.1875 1180.023438 452.386719 1185.707031 452.386719 1191.292969 C 452.386719 1197.277344 451.1875 1201.632813 448.796875 1204.355469 C 446.402344 1207.085938 443.476563 1208.445313 440.019531 1208.445313 L 392.734375 1208.445313 C 387.472656 1208.445313 385.984375 1214.296875 389.363281 1218.328125 C 392.023438 1221.507813 397.003906 1225.601563 404.714844 1225.601563 C 407.238281 1225.601563 409.765625 1225.171875 412.296875 1224.304688 C 414.820313 1223.4375 417.082031 1222.34375 419.074219 1221.011719 C 421.734375 1219.285156 424.261719 1218.417969 426.65625 1218.417969 "/>
<path style=" stroke:none;fill-rule:nonzero;fill:rgb(74.414063%,83.984375%,91.40625%);fill-opacity:1;" d="M 528.769531 1189.097656 C 533.324219 1189.097656 536.648438 1184.554688 535.015625 1180.304688 L 534.980469 1180.222656 C 533.914063 1177.496094 532.554688 1175.136719 530.894531 1173.140625 C 529.230469 1171.148438 527.335938 1169.585938 525.207031 1168.453125 C 523.082031 1167.328125 520.820313 1166.757813 518.425781 1166.757813 C 516.035156 1166.757813 513.769531 1167.328125 511.644531 1168.453125 C 509.515625 1169.585938 507.621094 1171.148438 505.960938 1173.140625 C 504.296875 1175.136719 502.996094 1177.496094 502.070313 1180.222656 C 502.03125 1180.335938 501.992188 1180.453125 501.953125 1180.570313 C 500.585938 1184.785156 503.859375 1189.097656 508.292969 1189.097656 Z M 541.964844 1218.417969 C 545.285156 1218.417969 548.175781 1219.683594 550.640625 1222.207031 C 553.101563 1224.738281 554.328125 1227.726563 554.328125 1231.1875 C 554.328125 1233.046875 553.761719 1234.976563 552.632813 1236.96875 C 551.503906 1238.960938 549.410156 1240.894531 546.351563 1242.753906 C 543.027344 1244.882813 539.003906 1246.609375 534.285156 1247.9375 C 529.5625 1249.265625 524.675781 1249.933594 519.621094 1249.933594 C 513.242188 1249.933594 507.058594 1248.738281 501.074219 1246.34375 C 495.089844 1243.949219 489.769531 1240.457031 485.117188 1235.871094 C 480.460938 1231.285156 476.742188 1225.667969 473.949219 1219.019531 C 471.15625 1212.371094 469.757813 1204.789063 469.757813 1196.277344 C 469.757813 1188.171875 471.054688 1180.789063 473.648438 1174.140625 C 476.242188 1167.492188 479.730469 1161.808594 484.121094 1157.085938 C 488.507813 1152.367188 493.660156 1148.742188 499.578125 1146.214844 C 505.492188 1143.6875 511.777344 1142.425781 518.425781 1142.425781 C 525.738281 1142.425781 532.453125 1143.921875 538.574219 1146.910156 C 544.6875 1149.90625 549.871094 1153.761719 554.128906 1158.480469 C 558.382813 1163.203125 561.710938 1168.453125 564.105469 1174.238281 C 566.496094 1180.023438 567.691406 1185.707031 567.691406 1191.292969 C 567.691406 1197.277344 566.496094 1201.632813 564.105469 1204.355469 C 561.710938 1207.085938 558.785156 1208.445313 555.328125 1208.445313 L 508.039063 1208.445313 C 502.78125 1208.445313 501.292969 1214.296875 504.671875 1218.328125 C 507.332031 1221.507813 512.3125 1225.601563 520.023438 1225.601563 C 522.546875 1225.601563 525.074219 1225.171875 527.601563 1224.304688 C 530.125 1223.4375 532.390625 1222.34375 534.382813 1221.011719 C 537.039063 1219.285156 539.570313 1218.417969 541.964844 1218.417969 "/>
<path style=" stroke:none;fill-rule:nonzero;fill:rgb(74.414063%,83.984375%,91.40625%);fill-opacity:1;" d="M 600.207031 1142.5 C 604.59375 1142.5 608.050781 1143.929688 610.578125 1146.785156 C 611.359375 1147.671875 612.019531 1148.585938 612.558594 1149.523438 C 614.058594 1152.136719 617.539063 1152.8125 619.851563 1150.882813 C 622.03125 1149.0625 624.328125 1147.5 626.734375 1146.1875 C 631.253906 1143.730469 636.242188 1142.5 641.695313 1142.5 C 646.480469 1142.5 651.035156 1143.496094 655.359375 1145.492188 C 659.679688 1147.484375 663.4375 1150.179688 666.628906 1153.566406 C 669.816406 1156.960938 672.34375 1160.917969 674.207031 1165.4375 C 676.066406 1169.957031 677 1174.8125 677 1179.996094 L 677 1234.847656 C 677 1239.105469 675.535156 1242.695313 672.609375 1245.617188 C 669.6875 1248.542969 666.097656 1250.007813 661.839844 1250.007813 C 657.585938 1250.007813 653.960938 1248.542969 650.96875 1245.617188 C 647.976563 1242.695313 646.480469 1239.105469 646.480469 1234.847656 L 646.480469 1185.382813 C 646.480469 1173.148438 642.222656 1167.03125 633.71875 1167.03125 C 629.0625 1167.03125 624.863281 1167.097656 621.714844 1170.332031 C 617.988281 1174.164063 616.628906 1179.789063 616.5625 1184.972656 L 616.5625 1234.25 C 616.5625 1238.507813 614.996094 1242.195313 611.875 1245.320313 C 608.75 1248.441406 605.0625 1250.007813 600.804688 1250.007813 C 596.417969 1250.007813 592.660156 1248.441406 589.535156 1245.320313 C 586.410156 1242.195313 584.847656 1238.507813 584.847656 1234.25 L 584.847656 1157.257813 C 584.847656 1153.136719 586.3125 1149.648438 589.238281 1146.785156 C 592.160156 1143.929688 595.820313 1142.5 600.207031 1142.5 "/>
<path style=" stroke:none;fill-rule:nonzero;fill:rgb(43.138123%,62.304688%,72.851563%);fill-opacity:1;" d="M 407.71875 138.71875 C 406.398438 133.519531 404.597656 128.980469 402.324219 125.101563 C 400.058594 121.230469 397.359375 118.101563 394.238281 115.738281 C 391.117188 113.371094 387.761719 112.191406 384.164063 112.191406 C 380.757813 112.191406 377.492188 113.28125 374.375 115.449219 C 371.253906 117.628906 368.558594 120.609375 366.285156 124.390625 C 364.015625 128.179688 362.21875 132.621094 360.894531 137.730469 C 359.570313 142.839844 358.90625 148.230469 358.90625 153.898438 C 358.90625 159.578125 359.570313 165.019531 360.894531 170.21875 C 362.21875 175.429688 364.015625 179.921875 366.285156 183.699219 C 368.558594 187.488281 371.253906 190.511719 374.375 192.78125 C 377.492188 195.050781 380.855469 196.191406 384.449219 196.191406 C 387.855469 196.191406 391.117188 195.101563 394.238281 192.921875 C 397.359375 190.75 400.058594 187.820313 402.324219 184.128906 C 404.597656 180.441406 406.398438 176.089844 407.71875 171.070313 C 409.046875 166.058594 409.703125 160.71875 409.703125 155.039063 C 409.703125 149.371094 409.046875 143.929688 407.71875 138.71875 M 448.441406 83.390625 C 452.511719 87.449219 454.542969 92.320313 454.542969 98 L 454.542969 261.738281 C 454.542969 267.800781 452.320313 273.039063 447.875 277.488281 C 443.429688 281.941406 438.085938 284.160156 431.839844 284.160156 C 425.785156 284.160156 420.539063 281.941406 416.089844 277.488281 C 411.648438 273.039063 409.421875 267.800781 409.421875 261.738281 L 409.421875 230.148438 C 409.421875 224.910156 403.5 221.71875 399.230469 224.75 C 397.433594 226.03125 395.582031 227.109375 393.671875 227.828125 C 387.902344 230 381.894531 231.101563 375.652344 231.101563 C 367.136719 231.101563 359.191406 229.109375 351.8125 225.128906 C 344.433594 221.160156 338.007813 215.679688 332.515625 208.679688 C 327.03125 201.679688 322.726563 193.488281 319.601563 184.128906 C 316.484375 174.761719 314.921875 164.691406 314.921875 153.898438 C 314.921875 143.121094 316.484375 133.050781 319.601563 123.679688 C 322.726563 114.320313 326.984375 106.179688 332.375 99.28125 C 337.765625 92.371094 344.058594 86.929688 351.246094 82.960938 C 358.4375 78.988281 366.003906 77 373.949219 77 C 381.894531 77 389.273438 78.890625 396.085938 82.679688 C 399.097656 84.351563 401.871094 87.210938 404.402344 90.390625 C 407.574219 94.390625 413.945313 93.671875 415.875 88.949219 C 416.851563 86.570313 418.058594 84.46875 419.492188 83.101563 C 423.566406 79.230469 428.339844 77.28125 433.824219 77.28125 C 439.503906 77.28125 444.375 79.320313 448.441406 83.390625 "/>
<path style=" stroke:none;fill-rule:nonzero;fill:rgb(74.414063%,83.984375%,91.40625%);fill-opacity:1;" d="M 305.605469 1158.664063 C 305.605469 1154.273438 307.136719 1150.554688 310.195313 1147.492188 C 313.253906 1144.433594 316.976563 1142.90625 321.363281 1142.90625 C 325.753906 1142.90625 329.476563 1144.433594 332.535156 1147.492188 C 335.59375 1150.554688 337.121094 1154.273438 337.121094 1158.664063 L 337.121094 1235.851563 C 337.121094 1239.84375 335.691406 1243.269531 332.835938 1246.125 C 329.972656 1248.984375 326.480469 1250.414063 322.363281 1250.414063 C 318.503906 1250.414063 315.28125 1249.148438 312.6875 1246.625 C 311.714844 1245.679688 310.886719 1244.609375 310.207031 1243.417969 C 308.671875 1240.742188 305.1875 1239.886719 302.824219 1241.867188 C 300.964844 1243.429688 298.867188 1244.882813 296.53125 1246.226563 C 291.675781 1249.019531 286.257813 1250.414063 280.277344 1250.414063 C 275.894531 1250.414063 271.589844 1249.539063 267.566406 1247.808594 C 263.035156 1245.863281 259.097656 1243.105469 255.742188 1239.542969 C 252.550781 1236.152344 249.988281 1232.230469 248.0625 1227.773438 C 246.132813 1223.320313 245.171875 1218.5 245.171875 1213.316406 L 245.171875 1158.859375 C 245.171875 1154.472656 246.734375 1150.71875 249.859375 1147.59375 C 252.980469 1144.46875 256.738281 1142.90625 261.128906 1142.90625 C 265.382813 1142.90625 269.070313 1144.46875 272.199219 1147.59375 C 275.320313 1150.71875 276.882813 1154.472656 276.882813 1158.859375 L 276.882813 1207.730469 C 276.882813 1212.6875 277.96875 1216.9375 280.148438 1220.488281 C 282.222656 1223.867188 285.945313 1226.046875 289.910156 1226.078125 C 294.492188 1226.121094 298.261719 1224.222656 301.21875 1220.394531 C 304.144531 1216.605469 305.605469 1211.917969 305.605469 1206.335938 "/>
</g>
</svg>
