<?xml version="1.0" encoding="UTF-8"?>
<svg xmlns="http://www.w3.org/2000/svg" xmlns:xlink="http://www.w3.org/1999/xlink" width="750pt" height="1334pt" viewBox="0 0 750 1334" version="1.1">
<g id="surface1">
<path style=" stroke:none;fill-rule:nonzero;fill:rgb(70.506287%,84.764099%,84.764099%);fill-opacity:1;" d="M 357.988281 439.523438 C 349.441406 404.757813 312.179688 367.964844 275.914063 373.570313 C 267.425781 373.714844 258.191406 376.820313 248.382813 383.929688 C 236.371094 392.632813 226.578125 403.71875 222.164063 416.828125 C 201.757813 415.339844 180.058594 418.378906 165.125 427.738281 C 142.492188 441.921875 127.101563 476.769531 140.042969 501.683594 C 145.550781 512.285156 154.652344 519.503906 165.253906 524.257813 C 163.414063 528.3125 161.835938 532.496094 160.597656 536.757813 C 150.753906 570.757813 161.933594 603.179688 199.304688 611.078125 C 215.195313 614.4375 229.445313 612.335938 242.214844 606.523438 C 242.695313 606.804688 243.125 607.144531 243.613281 607.410156 C 261.574219 617.039063 284.132813 616.550781 300.570313 604.125 C 327.1875 583.996094 324.140625 549.566406 310.917969 521.9375 C 317.273438 507.8125 322.476563 494.023438 326.644531 482.273438 C 327.304688 480.421875 327.734375 478.636719 328.039063 476.894531 C 345.554688 476.292969 363.441406 461.703125 357.988281 439.523438 "/>
<path style=" stroke:none;fill-rule:nonzero;fill:rgb(74.021912%,89.451599%,89.84375%);fill-opacity:1;" d="M 570.53125 483.519531 C 564.214844 476.070313 556.855469 470.25 548.8125 465.734375 C 553.566406 434.382813 541.027344 401.890625 506.539063 388.710938 C 475.4375 376.820313 438.417969 386.203125 413.546875 407.929688 C 395.21875 391.136719 372.445313 381.109375 345.441406 389.371094 C 320.035156 397.148438 299.261719 419.730469 289.484375 445.285156 C 272.320313 446.65625 256.558594 453.125 247.019531 470.589844 C 234.1875 494.082031 240.710938 521.28125 252.234375 543.859375 C 264.328125 567.558594 286.429688 579.484375 312.46875 580.890625 C 320.875 581.34375 330.304688 581.5 339.605469 580.570313 C 340.425781 582.664063 341.179688 584.777344 342.125 586.820313 C 344.941406 592.535156 348.5 597.851563 353.238281 602.21875 C 363.8125 611.957031 378.5 617.621094 392.878906 617.738281 C 408.53125 617.863281 423.316406 612.539063 437.175781 605.695313 C 437.183594 605.691406 437.1875 605.691406 437.195313 605.6875 C 462.039063 617.40625 490.164063 619.277344 506.675781 590.273438 C 506.964844 589.757813 507.179688 589.234375 507.457031 588.714844 C 534.160156 595.390625 564.910156 585.703125 579.277344 561.335938 C 594.0625 536.261719 588.789063 505.054688 570.53125 483.519531 "/>
<path style=" stroke:none;fill-rule:nonzero;fill:rgb(44.700623%,62.693787%,61.521912%);fill-opacity:1;" d="M 375.386719 473.722656 C 371.996094 482.402344 360.804688 483.210938 355.847656 475.53125 C 353.75 472.289063 348.539063 475.304688 350.652344 478.570313 C 358.621094 490.90625 375.914063 488.832031 381.1875 475.320313 C 382.59375 471.710938 376.78125 470.144531 375.386719 473.722656 "/>
<path style=" stroke:none;fill-rule:nonzero;fill:rgb(44.700623%,62.693787%,61.521912%);fill-opacity:1;" d="M 460.25 474.355469 C 459.996094 478.664063 455.726563 481.234375 451.707031 480.664063 C 447.609375 480.082031 444.6875 476.976563 442.722656 473.5625 C 440.789063 470.203125 435.585938 473.230469 437.523438 476.59375 C 440.9375 482.519531 447.042969 487.425781 454.230469 486.734375 C 460.804688 486.101563 465.882813 480.890625 466.265625 474.355469 C 466.492188 470.484375 460.476563 470.5 460.25 474.355469 "/>
<path style="fill:none;stroke-width:10;stroke-linecap:butt;stroke-linejoin:miter;stroke:rgb(44.700623%,62.693787%,61.521912%);stroke-opacity:1;stroke-miterlimit:10;" d="M 4602.5 8596.445313 C 4599.960938 8553.359375 4557.265625 8527.65625 4517.070313 8533.359375 C 4476.09375 8539.179688 4446.875 8570.234375 4427.226563 8604.375 C 4407.890625 8637.96875 4355.859375 8607.695313 4375.234375 8574.0625 C 4409.375 8514.804688 4470.429688 8465.742188 4542.304688 8472.65625 C 4608.046875 8478.984375 4658.828125 8531.09375 4662.65625 8596.445313 C 4664.921875 8635.15625 4604.765625 8635 4602.5 8596.445313 Z M 4602.5 8596.445313 " transform="matrix(0.1,0,0,-0.1,0,1334)"/>
<path style=" stroke:none;fill-rule:nonzero;fill:rgb(44.700623%,62.693787%,61.521912%);fill-opacity:1;" d="M 417.226563 521.539063 C 417.070313 524.4375 414.425781 526.167969 411.941406 525.785156 C 409.40625 525.394531 407.597656 523.304688 406.378906 521.003906 C 405.1875 518.746094 401.96875 520.78125 403.167969 523.046875 C 405.277344 527.03125 409.054688 530.335938 413.503906 529.871094 C 417.570313 529.445313 420.710938 525.9375 420.949219 521.539063 C 421.089844 518.933594 417.367188 518.945313 417.226563 521.539063 "/>
<path style="fill:none;stroke-width:10;stroke-linecap:butt;stroke-linejoin:miter;stroke:rgb(44.700623%,62.693787%,61.521912%);stroke-opacity:1;stroke-miterlimit:10;" d="M 4172.265625 8124.609375 C 4170.703125 8095.625 4144.257813 8078.320313 4119.414063 8082.148438 C 4094.0625 8086.054688 4075.976563 8106.953125 4063.789063 8129.960938 C 4051.875 8152.539063 4019.6875 8132.1875 4031.679688 8109.53125 C 4052.773438 8069.6875 4090.546875 8036.640625 4135.039063 8041.289063 C 4175.703125 8045.546875 4207.109375 8080.625 4209.492188 8124.609375 C 4210.898438 8150.664063 4173.671875 8150.546875 4172.265625 8124.609375 Z M 4172.265625 8124.609375 " transform="matrix(0.1,0,0,-0.1,0,1334)"/>
<path style=" stroke:none;fill-rule:nonzero;fill:rgb(91.796875%,82.8125%,87.5%);fill-opacity:1;" d="M 461.082031 504.9375 C 456.839844 501.34375 451.023438 500.347656 446.203125 503.558594 C 442.585938 505.972656 442.929688 510.339844 445.074219 512.914063 C 445.796875 514.480469 447.0625 515.773438 448.796875 516.105469 C 452.753906 516.855469 456.351563 516.445313 459.863281 514.382813 C 462.980469 512.550781 464.085938 507.480469 461.082031 504.9375 "/>
<path style=" stroke:none;fill-rule:nonzero;fill:rgb(91.796875%,82.8125%,87.5%);fill-opacity:1;" d="M 382.867188 504.9375 C 378.625 501.34375 372.808594 500.347656 367.992188 503.558594 C 364.371094 505.972656 364.714844 510.339844 366.859375 512.914063 C 367.582031 514.480469 368.851563 515.773438 370.582031 516.105469 C 374.539063 516.855469 378.136719 516.445313 381.648438 514.382813 C 384.765625 512.550781 385.875 507.480469 382.867188 504.9375 "/>
<path style=" stroke:none;fill-rule:nonzero;fill:rgb(54.492188%,71.679688%,71.289063%);fill-opacity:1;" d="M 151.554688 645.359375 L 151.554688 675.230469 C 151.554688 682.96875 163.585938 682.984375 163.585938 675.230469 L 163.585938 645.359375 C 163.585938 637.617188 151.554688 637.605469 151.554688 645.359375 "/>
<path style=" stroke:none;fill-rule:nonzero;fill:rgb(54.492188%,71.679688%,71.289063%);fill-opacity:1;" d="M 223.234375 686.179688 L 223.234375 728.988281 C 223.234375 736.734375 235.265625 736.746094 235.265625 728.988281 L 235.265625 686.179688 C 235.265625 678.4375 223.234375 678.425781 223.234375 686.179688 "/>
<path style=" stroke:none;fill-rule:nonzero;fill:rgb(54.492188%,71.679688%,71.289063%);fill-opacity:1;" d="M 166.484375 797.683594 L 166.484375 836.511719 C 166.484375 844.253906 178.519531 844.269531 178.519531 836.511719 L 178.519531 797.683594 C 178.519531 789.941406 166.484375 789.929688 166.484375 797.683594 "/>
<path style=" stroke:none;fill-rule:nonzero;fill:rgb(54.492188%,71.679688%,71.289063%);fill-opacity:1;" d="M 267.039063 784.742188 L 267.039063 820.582031 C 267.039063 828.324219 279.070313 828.335938 279.070313 820.582031 L 279.070313 784.742188 C 279.070313 777 267.039063 776.984375 267.039063 784.742188 "/>
<path style=" stroke:none;fill-rule:nonzero;fill:rgb(54.492188%,71.679688%,71.289063%);fill-opacity:1;" d="M 236.175781 886.289063 L 236.175781 909.1875 C 236.175781 916.929688 248.210938 916.945313 248.210938 909.1875 L 248.210938 886.289063 C 248.210938 878.550781 236.175781 878.535156 236.175781 886.289063 "/>
<path style=" stroke:none;fill-rule:nonzero;fill:rgb(54.492188%,71.679688%,71.289063%);fill-opacity:1;" d="M 268.035156 642.371094 L 268.035156 656.3125 C 268.035156 664.058594 280.066406 664.066406 280.066406 656.3125 L 280.066406 642.371094 C 280.066406 634.632813 268.035156 634.617188 268.035156 642.371094 "/>
<path style=" stroke:none;fill-rule:nonzero;fill:rgb(54.492188%,71.679688%,71.289063%);fill-opacity:1;" d="M 321.796875 701.113281 L 321.796875 729.984375 C 321.796875 737.726563 333.828125 737.738281 333.828125 729.984375 L 333.828125 701.113281 C 333.828125 693.367188 321.796875 693.355469 321.796875 701.113281 "/>
<path style=" stroke:none;fill-rule:nonzero;fill:rgb(54.492188%,71.679688%,71.289063%);fill-opacity:1;" d="M 334.738281 799.675781 L 334.738281 818.59375 C 334.738281 826.332031 346.769531 826.34375 346.769531 818.59375 L 346.769531 799.675781 C 346.769531 791.933594 334.738281 791.917969 334.738281 799.675781 "/>
<path style=" stroke:none;fill-rule:nonzero;fill:rgb(54.492188%,71.679688%,71.289063%);fill-opacity:1;" d="M 344.691406 877.328125 L 344.691406 892.265625 C 344.691406 900.007813 356.726563 900.019531 356.726563 892.265625 L 356.726563 877.328125 C 356.726563 869.589844 344.691406 869.574219 344.691406 877.328125 "/>
<path style=" stroke:none;fill-rule:nonzero;fill:rgb(54.492188%,71.679688%,71.289063%);fill-opacity:1;" d="M 376.550781 646.355469 L 376.550781 667.265625 C 376.550781 675.003906 388.585938 675.019531 388.585938 667.265625 L 388.585938 646.355469 C 388.585938 638.613281 376.550781 638.601563 376.550781 646.355469 "/>
<path style=" stroke:none;fill-rule:nonzero;fill:rgb(54.492188%,71.679688%,71.289063%);fill-opacity:1;" d="M 453.210938 676.226563 L 453.210938 713.0625 C 453.210938 720.800781 465.242188 720.816406 465.242188 713.0625 L 465.242188 676.226563 C 465.242188 668.480469 453.210938 668.46875 453.210938 676.226563 "/>
<path style=" stroke:none;fill-rule:nonzero;fill:rgb(54.492188%,71.679688%,71.289063%);fill-opacity:1;" d="M 408.410156 746.910156 L 408.410156 790.714844 C 408.410156 798.457031 420.441406 798.46875 420.441406 790.714844 L 420.441406 746.910156 C 420.441406 739.167969 408.410156 739.152344 408.410156 746.910156 "/>
<path style=" stroke:none;fill-rule:nonzero;fill:rgb(54.492188%,71.679688%,71.289063%);fill-opacity:1;" d="M 455.203125 857.417969 L 455.203125 885.292969 C 455.203125 893.035156 467.234375 893.050781 467.234375 885.292969 L 467.234375 857.417969 C 467.234375 849.675781 455.203125 849.660156 455.203125 857.417969 "/>
<path style=" stroke:none;fill-rule:nonzero;fill:rgb(54.492188%,71.679688%,71.289063%);fill-opacity:1;" d="M 508.964844 870.359375 L 508.964844 900.226563 C 508.964844 907.96875 520.996094 907.984375 520.996094 900.226563 L 520.996094 870.359375 C 520.996094 862.617188 508.964844 862.605469 508.964844 870.359375 "/>
<path style=" stroke:none;fill-rule:nonzero;fill:rgb(54.492188%,71.679688%,71.289063%);fill-opacity:1;" d="M 546.6875 779.785156 C 545.78125 772.191406 533.738281 772.101563 534.65625 779.785156 C 536.039063 791.394531 537.425781 803.003906 538.808594 814.613281 C 539.714844 822.207031 551.757813 822.296875 550.84375 814.613281 C 549.460938 803.003906 548.074219 791.394531 546.6875 779.785156 "/>
<path style=" stroke:none;fill-rule:nonzero;fill:rgb(54.492188%,71.679688%,71.289063%);fill-opacity:1;" d="M 581.257813 689.128906 C 580.703125 681.449219 568.667969 681.386719 569.226563 689.128906 C 569.871094 698.097656 569.996094 707.058594 569.597656 716.042969 C 569.253906 723.78125 581.285156 723.769531 581.632813 716.042969 C 582.03125 707.058594 581.90625 698.097656 581.257813 689.128906 "/>
<path style=" stroke:none;fill-rule:nonzero;fill:rgb(54.492188%,71.679688%,71.289063%);fill-opacity:1;" d="M 534.847656 619.476563 L 534.847656 645.363281 C 534.847656 653.105469 546.882813 653.117188 546.882813 645.363281 L 546.882813 619.476563 C 546.882813 611.734375 534.847656 611.722656 534.847656 619.476563 "/>
<path style=" stroke:none;fill-rule:nonzero;fill:rgb(54.492188%,71.679688%,71.289063%);fill-opacity:1;" d="M 490.046875 757.859375 L 490.046875 783.746094 C 490.046875 791.488281 502.078125 791.5 502.078125 783.746094 L 502.078125 757.859375 C 502.078125 750.117188 490.046875 750.105469 490.046875 757.859375 "/>
<path style=" stroke:none;fill-rule:nonzero;fill:rgb(44.700623%,62.693787%,61.521912%);fill-opacity:1;" d="M 127.6875 120.109375 L 127.6875 156.351563 C 127.6875 163.480469 133.476563 169.269531 140.609375 169.269531 L 180.910156 169.269531 C 185.785156 169.269531 190.195313 168.46875 194.144531 166.878906 C 198.089844 165.289063 201.574219 163.101563 204.59375 160.308594 C 207.605469 157.53125 209.929688 154.300781 211.558594 150.609375 C 213.179688 146.929688 213.996094 143 213.996094 138.820313 C 213.996094 134.449219 213.128906 130.320313 211.382813 126.441406 C 209.644531 122.558594 207.257813 119.230469 204.246094 116.441406 C 200.953125 113.410156 197.046875 111.019531 192.527344 109.289063 C 188.796875 107.851563 184.804688 107.191406 180.8125 107.191406 L 140.609375 107.191406 C 133.476563 107.191406 127.6875 112.96875 127.6875 120.109375 M 101.511719 283.878906 C 93.378906 283.878906 86.535156 281.5 80.964844 276.71875 C 75.390625 271.941406 72.601563 266.078125 72.601563 259.109375 L 72.601563 90.769531 C 72.601563 83.808594 75.390625 77.941406 80.964844 73.160156 C 86.535156 68.390625 93.378906 66 101.511719 66 L 187.179688 66 C 198.550781 66 209.230469 67.890625 219.21875 71.671875 C 229.199219 75.449219 237.90625 80.621094 245.335938 87.191406 C 252.765625 93.761719 258.625 101.421875 262.925781 110.171875 C 267.214844 118.929688 269.367188 128.28125 269.367188 138.230469 C 269.367188 151.359375 265.710938 163.351563 258.394531 174.191406 C 253.84375 180.941406 246.308594 186.828125 238.410156 191.839844 C 230.886719 196.621094 228.839844 206.679688 233.917969 214 L 259.617188 251.050781 C 260.773438 252.640625 261.53125 254.289063 261.878906 255.980469 C 262.226563 257.671875 262.398438 259.308594 262.398438 260.898438 C 262.398438 267.070313 259.90625 272.441406 254.914063 277.019531 C 249.917969 281.589844 243.710938 283.878906 236.28125 283.878906 C 231.171875 283.878906 226.535156 282.789063 222.355469 280.601563 C 218.171875 278.410156 214.917969 275.429688 212.601563 271.640625 L 181.402344 213.679688 C 178.523438 208.339844 172.945313 205.011719 166.878906 205.011719 L 146.910156 205.011719 C 137.800781 205.011719 130.414063 212.390625 130.414063 221.5 L 130.414063 259.109375 C 130.414063 266.078125 127.628906 271.941406 122.058594 276.71875 C 116.484375 281.5 109.632813 283.878906 101.511719 283.878906 "/>
<path style=" stroke:none;fill-rule:nonzero;fill:rgb(74.021912%,89.451599%,89.84375%);fill-opacity:1;" d="M 126.152344 1092.976563 L 126.152344 1127.941406 C 126.152344 1134.828125 131.734375 1140.410156 138.617188 1140.410156 L 177.503906 1140.410156 C 182.207031 1140.410156 186.460938 1139.644531 190.269531 1138.105469 C 194.078125 1136.570313 197.4375 1134.460938 200.351563 1131.769531 C 203.261719 1129.085938 205.503906 1125.964844 207.074219 1122.410156 C 208.636719 1118.859375 209.425781 1115.066406 209.425781 1111.035156 C 209.425781 1106.8125 208.585938 1102.828125 206.90625 1099.085938 C 205.226563 1095.339844 202.925781 1092.128906 200.015625 1089.4375 C 196.84375 1086.511719 193.074219 1084.210938 188.710938 1082.535156 C 185.113281 1081.152344 181.261719 1080.507813 177.40625 1080.507813 L 138.617188 1080.507813 C 131.734375 1080.507813 126.152344 1086.089844 126.152344 1092.976563 M 100.890625 1250.996094 C 93.046875 1250.996094 86.441406 1248.695313 81.066406 1244.085938 C 75.691406 1239.476563 73 1233.816406 73 1227.097656 L 73 1064.671875 C 73 1057.953125 75.691406 1052.285156 81.066406 1047.679688 C 86.441406 1043.070313 93.046875 1040.765625 100.890625 1040.765625 L 183.550781 1040.765625 C 194.523438 1040.765625 204.832031 1042.59375 214.464844 1046.238281 C 224.097656 1049.886719 232.496094 1054.878906 239.667969 1061.210938 C 246.835938 1067.546875 252.488281 1074.941406 256.636719 1083.390625 C 260.777344 1091.839844 262.851563 1100.863281 262.851563 1110.460938 C 262.851563 1123.128906 259.324219 1134.699219 252.265625 1145.160156 C 247.878906 1151.675781 240.605469 1157.351563 232.984375 1162.1875 C 225.726563 1166.796875 223.75 1176.503906 228.648438 1183.570313 L 253.445313 1219.320313 C 254.5625 1220.855469 255.292969 1222.441406 255.628906 1224.070313 C 255.964844 1225.703125 256.132813 1227.285156 256.132813 1228.824219 C 256.132813 1234.773438 253.722656 1239.960938 248.90625 1244.375 C 244.089844 1248.789063 238.097656 1250.996094 230.929688 1250.996094 C 226 1250.996094 221.523438 1249.941406 217.488281 1247.828125 C 213.457031 1245.71875 210.316406 1242.839844 208.082031 1239.191406 L 177.976563 1183.265625 C 175.203125 1178.109375 169.816406 1174.894531 163.964844 1174.894531 L 144.695313 1174.894531 C 135.90625 1174.894531 128.78125 1182.019531 128.78125 1190.8125 L 128.78125 1227.097656 C 128.78125 1233.816406 126.09375 1239.476563 120.714844 1244.085938 C 115.339844 1248.695313 108.730469 1250.996094 100.890625 1250.996094 "/>
<path style=" stroke:none;fill-rule:nonzero;fill:rgb(74.021912%,89.451599%,89.84375%);fill-opacity:1;" d="M 485.972656 1250.191406 C 479.621094 1250.191406 474.226563 1247.976563 469.800781 1243.550781 C 465.371094 1239.128906 463.160156 1233.734375 463.160156 1227.378906 L 463.160156 1117.371094 C 463.160156 1111.015625 465.371094 1105.628906 469.800781 1101.199219 C 474.226563 1096.773438 479.621094 1094.558594 485.972656 1094.558594 C 492.324219 1094.558594 497.710938 1096.773438 502.140625 1101.199219 C 506.570313 1105.628906 508.785156 1111.015625 508.785156 1117.371094 L 508.785156 1227.378906 C 508.785156 1233.734375 506.570313 1239.128906 502.140625 1243.550781 C 497.710938 1247.976563 492.324219 1250.191406 485.972656 1250.191406 M 461.140625 1059.621094 C 461.140625 1056.152344 461.8125 1052.929688 463.160156 1049.945313 C 464.503906 1046.964844 466.285156 1044.3125 468.503906 1042.003906 C 470.714844 1039.695313 473.359375 1037.867188 476.441406 1036.519531 C 479.519531 1035.171875 482.792969 1034.496094 486.261719 1034.496094 C 489.726563 1034.496094 492.945313 1035.171875 495.933594 1036.519531 C 498.914063 1037.867188 501.515625 1039.695313 503.730469 1042.003906 C 505.941406 1044.3125 507.722656 1046.964844 509.074219 1049.945313 C 510.414063 1052.929688 511.09375 1056.152344 511.09375 1059.621094 C 511.09375 1063.082031 510.414063 1066.308594 509.074219 1069.289063 C 507.722656 1072.277344 505.941406 1074.878906 503.730469 1077.085938 C 501.515625 1079.304688 498.914063 1081.085938 495.933594 1082.429688 C 492.945313 1083.777344 489.726563 1084.449219 486.261719 1084.449219 C 482.792969 1084.449219 479.519531 1083.777344 476.441406 1082.429688 C 473.359375 1081.085938 470.714844 1079.304688 468.503906 1077.085938 C 466.285156 1074.878906 464.503906 1072.277344 463.160156 1069.289063 C 461.8125 1066.308594 461.140625 1063.082031 461.140625 1059.621094 "/>
<path style=" stroke:none;fill-rule:nonzero;fill:rgb(74.021912%,89.451599%,89.84375%);fill-opacity:1;" d="M 566.230469 1094.558594 C 572.582031 1094.558594 577.585938 1096.628906 581.246094 1100.765625 C 582.375 1102.046875 583.328125 1103.367188 584.109375 1104.730469 C 586.28125 1108.511719 591.316406 1109.488281 594.664063 1106.695313 C 597.824219 1104.0625 601.144531 1101.796875 604.632813 1099.898438 C 611.171875 1096.339844 618.394531 1094.558594 626.289063 1094.558594 C 633.21875 1094.558594 639.808594 1096.003906 646.070313 1098.890625 C 652.320313 1101.777344 657.761719 1105.671875 662.382813 1110.582031 C 667 1115.492188 670.65625 1121.222656 673.355469 1127.765625 C 676.046875 1134.308594 677.398438 1141.335938 677.398438 1148.839844 L 677.398438 1228.246094 C 677.398438 1234.410156 675.277344 1239.609375 671.042969 1243.839844 C 666.808594 1248.074219 661.613281 1250.191406 655.453125 1250.191406 C 649.289063 1250.191406 644.046875 1248.074219 639.714844 1243.839844 C 635.386719 1239.609375 633.21875 1234.410156 633.21875 1228.246094 L 633.21875 1156.636719 C 633.21875 1138.929688 627.054688 1130.074219 614.742188 1130.074219 C 608 1130.074219 601.925781 1130.164063 597.367188 1134.851563 C 591.96875 1140.398438 590.003906 1148.542969 589.90625 1156.046875 L 589.90625 1227.378906 C 589.90625 1233.546875 587.640625 1238.886719 583.121094 1243.40625 C 578.59375 1247.929688 573.253906 1250.191406 567.09375 1250.191406 C 560.742188 1250.191406 555.300781 1247.929688 550.78125 1243.40625 C 546.253906 1238.886719 543.996094 1233.546875 543.996094 1227.378906 L 543.996094 1115.925781 C 543.996094 1109.960938 546.109375 1104.90625 550.347656 1100.765625 C 554.582031 1096.628906 559.878906 1094.558594 566.230469 1094.558594 "/>
<path style=" stroke:none;fill-rule:nonzero;fill:rgb(44.700623%,62.693787%,61.521912%);fill-opacity:1;" d="M 337.535156 138.53125 C 338.429688 141.46875 342.089844 141.589844 343.71875 138.988281 C 346.199219 135.011719 349.5 132.128906 352.09375 130.039063 C 354.683594 127.941406 357.378906 126.25 360.175781 124.949219 C 362.964844 123.648438 365.960938 123 369.152344 123 C 374.539063 123 379.277344 124.898438 383.367188 128.691406 C 387.453125 132.480469 389.503906 137.269531 389.503906 143.050781 C 389.503906 147.839844 387.953125 152.378906 384.863281 156.671875 C 381.765625 160.960938 377.128906 163.101563 370.945313 163.101563 C 366.355469 163.101563 362.316406 164.449219 358.828125 167.140625 C 355.335938 169.839844 352.394531 173.429688 350 177.921875 C 347.605469 182.410156 345.8125 187.488281 344.613281 193.179688 C 343.414063 198.859375 342.816406 204.699219 342.816406 210.679688 L 342.816406 260.660156 C 342.816406 267.050781 340.472656 272.589844 335.785156 277.269531 C 331.097656 281.960938 325.558594 284.300781 319.175781 284.300781 C 312.59375 284.300781 306.953125 281.960938 302.269531 277.269531 C 297.578125 272.589844 295.234375 267.050781 295.234375 260.660156 L 295.234375 145.148438 C 295.234375 138.96875 297.378906 133.730469 301.671875 129.441406 C 305.957031 125.148438 311.195313 123 317.382813 123 C 323.164063 123 328.199219 125 332.492188 128.988281 C 334.679688 131.019531 336.359375 134.660156 337.535156 138.53125 "/>
<path style=" stroke:none;fill-rule:nonzero;fill:rgb(74.021912%,89.451599%,89.84375%);fill-opacity:1;" d="M 405.1875 1107.597656 C 411.558594 1107.597656 417.054688 1109.972656 421.675781 1114.703125 C 425.800781 1118.929688 428 1124.683594 428 1130.589844 L 428 1228.585938 C 428 1234.746094 425.785156 1240.039063 421.359375 1244.464844 C 416.925781 1248.898438 411.636719 1251.105469 405.476563 1251.105469 C 401.820313 1251.105469 393.679688 1249.089844 390.234375 1243.175781 C 387.164063 1237.894531 380.101563 1236.796875 375.773438 1241.113281 C 372.929688 1243.949219 369.835938 1246.515625 366.496094 1247.496094 C 358.992188 1249.710938 352.25 1250.820313 346.285156 1250.820313 C 326.453125 1250.820313 312.003906 1243.792969 297.953125 1229.742188 C 283.898438 1215.6875 276.875 1198.746094 276.875 1178.921875 C 276.875 1159.097656 283.898438 1142.203125 297.953125 1128.246094 C 312.003906 1114.289063 326.453125 1107.3125 346.285156 1107.3125 C 352.25 1107.3125 359.035156 1108.421875 366.640625 1110.632813 C 370.074219 1111.632813 373.246094 1113.753906 376.148438 1116.085938 C 380.769531 1119.792969 387.445313 1118.734375 390.882813 1113.910156 C 394.613281 1108.6875 401.53125 1107.597656 405.1875 1107.597656 "/>
<path style=" stroke:none;fill-rule:nonzero;fill:rgb(100%,100%,100%);fill-opacity:1;" d="M 320.117188 1179.0625 C 320.117188 1184.839844 320.789063 1190.136719 322.136719 1194.945313 C 323.484375 1199.761719 325.316406 1203.996094 327.625 1207.652344 C 329.933594 1211.3125 332.675781 1214.148438 335.855469 1216.171875 C 339.03125 1218.1875 342.445313 1219.203125 346.105469 1219.203125 C 349.757813 1219.203125 353.179688 1218.1875 356.355469 1216.171875 C 359.53125 1214.148438 362.273438 1211.3125 364.585938 1207.652344 C 366.894531 1203.996094 368.722656 1199.761719 370.070313 1194.945313 C 371.414063 1190.136719 372.09375 1184.839844 372.09375 1179.0625 C 372.09375 1173.289063 371.414063 1167.996094 370.070313 1163.183594 C 368.722656 1158.371094 366.894531 1154.1875 364.585938 1150.625 C 362.273438 1147.0625 359.53125 1144.269531 356.355469 1142.25 C 353.179688 1140.230469 349.757813 1139.21875 346.105469 1139.21875 C 342.445313 1139.21875 339.03125 1140.230469 335.855469 1142.25 C 332.675781 1144.269531 329.933594 1147.0625 327.625 1150.625 C 325.316406 1154.1875 323.484375 1158.371094 322.136719 1163.183594 C 320.789063 1167.996094 320.117188 1173.289063 320.117188 1179.0625 "/>
</g>
</svg>
