<?xml version="1.0" encoding="UTF-8"?>
<svg xmlns="http://www.w3.org/2000/svg" xmlns:xlink="http://www.w3.org/1999/xlink" width="750pt" height="1334pt" viewBox="0 0 750 1334" version="1.1">
<g id="surface1">
<path style=" stroke:none;fill-rule:nonzero;fill:rgb(39.598083%,30.200195%,50.976563%);fill-opacity:1;" d="M 594.375 704.429688 C 571.546875 692.039063 542.757813 697.660156 528.949219 700.777344 C 488.625 709.878906 474.570313 734.390625 436.140625 742.160156 C 424.226563 744.570313 407.398438 747.40625 392.3125 740.402344 C 373.277344 731.5625 357.792969 715.351563 349.859375 692.925781 C 348.714844 689.695313 345.617188 677.160156 344.261719 671.96875 C 342.589844 665.5625 337.726563 646.25 336.71875 642.199219 C 332.15625 623.847656 324.746094 600.414063 320.199219 586.683594 C 311.503906 560.410156 301.871094 535.359375 291.050781 512.3125 C 287.285156 502.195313 283.242188 492.179688 278.921875 482.28125 C 275.363281 474.128906 271.605469 466.066406 267.648438 458.097656 C 266.308594 455.394531 264.800781 452.703125 263.355469 449.972656 C 261.644531 445.085938 259.789063 440.242188 257.792969 435.453125 C 257.753906 435.222656 257.707031 434.992188 257.671875 434.761719 C 257.214844 431.578125 255.214844 430 252.871094 429.675781 C 252.152344 429.394531 251.355469 429.21875 250.464844 429.171875 C 217.324219 427.535156 183.523438 434.128906 154.148438 449.8125 C 139.875 457.4375 126.617188 467.390625 115.660156 479.324219 C 114.105469 481.015625 112.460938 482.765625 110.941406 484.597656 C 108.625 486.765625 106.382813 489.011719 104.21875 491.347656 C 102.316406 493.398438 101.941406 495.761719 102.503906 497.867188 C 102.667969 499.203125 103.234375 500.550781 104.359375 501.785156 C 105.503906 503.050781 106.617188 504.339844 107.730469 505.628906 C 113.214844 515.324219 118.910156 524.890625 124.828125 534.328125 C 127.902344 541.308594 131.511719 548.203125 134.25 554.992188 C 146.667969 585.769531 159.121094 615.882813 170.289063 647.28125 C 189.550781 701.417969 205.09375 757.304688 221.453125 812.492188 C 222.171875 814.246094 222.636719 815.976563 223.046875 817.804688 C 225.199219 822.726563 227.242188 827.828125 229.09375 832.835938 C 230.785156 837.414063 232.648438 841.691406 233.828125 846.402344 C 238.007813 854.25 242.480469 861.925781 247.375 869.339844 C 251.140625 873.960938 254.308594 878.585938 258.042969 883.324219 C 264.144531 891.070313 270.761719 898.757813 276.90625 906.605469 C 295.957031 919.054688 314.125 927.78125 337.441406 929.554688 C 371.164063 932.121094 404.847656 922.300781 436.882813 912.5625 C 474.828125 901.023438 513.789063 886.636719 550.4375 874.753906 C 583.335938 864.082031 620.414063 853.632813 638.363281 825.617188 C 646.054688 813.613281 645.421875 802.046875 646.097656 794.742188 C 649.773438 755.058594 623.289063 720.125 594.375 704.429688 "/>
<path style=" stroke:none;fill-rule:nonzero;fill:rgb(53.709412%,45.092773%,67.771912%);fill-opacity:1;" d="M 234.253906 838.707031 C 271.90625 823.609375 310.703125 825.226563 347.21875 842.851563 C 348.503906 841.558594 349.835938 840.515625 351.804688 840.601563 C 356.679688 840.824219 358.882813 844.289063 358.027344 848.984375 C 382.816406 865.488281 400.554688 887.53125 411.707031 915.125 C 412.144531 916.207031 412.035156 917.066406 411.78125 918.175781 C 411.304688 920.28125 410.65625 921.648438 408.257813 922.308594 C 369.980469 932.789063 329.539063 935.265625 291.867188 921.445313 C 283.695313 918.449219 277.75 914.226563 270.808594 909.375 C 269.054688 907.378906 266.238281 904.484375 264.558594 902.722656 C 257.699219 895.53125 251.976563 888.636719 247.382813 880.039063 C 241.324219 868.699219 237.539063 856.660156 233.015625 844.683594 C 232.558594 843.46875 232.277344 842.230469 231.839844 841.003906 C 232.464844 839.972656 233.085938 839.175781 234.253906 838.707031 "/>
<path style=" stroke:none;fill-rule:nonzero;fill:rgb(53.709412%,45.092773%,67.771912%);fill-opacity:1;" d="M 413.144531 831.882813 C 421.140625 831.179688 421.894531 843.226563 413.9375 843.863281 C 405.976563 844.507813 405.152344 832.585938 413.144531 831.882813 "/>
<path style=" stroke:none;fill-rule:nonzero;fill:rgb(53.709412%,45.092773%,67.771912%);fill-opacity:1;" d="M 432.863281 869.46875 C 440.878906 868.773438 441.660156 880.773438 433.640625 881.464844 C 425.621094 882.15625 424.847656 870.160156 432.863281 869.46875 "/>
<path style=" stroke:none;fill-rule:nonzero;fill:rgb(53.709412%,45.092773%,67.771912%);fill-opacity:1;" d="M 457.480469 767.527344 C 465.339844 766.679688 466.21875 778.675781 458.386719 779.539063 C 450.558594 780.40625 449.621094 768.375 457.480469 767.527344 "/>
<path style=" stroke:none;fill-rule:nonzero;fill:rgb(53.709412%,45.092773%,67.771912%);fill-opacity:1;" d="M 519.902344 809.257813 C 527.835938 808.355469 528.878906 820.46875 520.957031 821.347656 C 513.03125 822.230469 511.96875 810.152344 519.902344 809.257813 "/>
<path style=" stroke:none;fill-rule:nonzero;fill:rgb(53.709412%,45.092773%,67.771912%);fill-opacity:1;" d="M 625.070313 816.914063 C 622.882813 820.070313 620.410156 822.863281 617.609375 825.480469 C 620.195313 822.707031 622.6875 819.867188 625.070313 816.914063 M 624.6875 725.828125 C 613.066406 713.207031 598.503906 704.5 582.066406 699.082031 C 563.847656 693.078125 546.011719 693.640625 528.046875 699.652344 C 523.246094 701.257813 522.421875 705.140625 522.683594 709.4375 C 519.515625 726.695313 521.046875 742.503906 525.089844 759.441406 C 522.582031 763.570313 523.535156 767.945313 528.121094 769.851563 C 530.132813 775.742188 532.046875 781.636719 534.308594 787.433594 C 545.402344 815.890625 561.730469 840.03125 586.148438 858.71875 C 588.511719 860.523438 592.035156 861.460938 594.835938 859.96875 C 611.417969 851.128906 628.53125 843.078125 639.175781 826.988281 C 649.175781 811.882813 649.996094 795.53125 646.988281 778.046875 C 643.664063 758.703125 638.339844 740.652344 624.6875 725.828125 "/>
<path style=" stroke:none;fill-rule:nonzero;fill:rgb(53.709412%,45.092773%,67.771912%);fill-opacity:1;" d="M 532.03125 860.058594 C 539.992188 859.1875 541 871.222656 533.03125 872.097656 C 525.066406 872.96875 524.070313 860.929688 532.03125 860.058594 "/>
<path style=" stroke:none;fill-rule:nonzero;fill:rgb(53.709412%,45.092773%,67.771912%);fill-opacity:1;" d="M 468.703125 846.0625 C 476.679688 845.253906 477.554688 857.316406 469.578125 858.132813 C 461.601563 858.949219 460.726563 846.871094 468.703125 846.0625 "/>
<path style=" stroke:none;fill-rule:nonzero;fill:rgb(53.709412%,45.092773%,67.771912%);fill-opacity:1;" d="M 314.589844 810.054688 C 322.457031 809.792969 322.867188 821.929688 314.996094 822.191406 C 307.128906 822.449219 306.722656 810.316406 314.589844 810.054688 "/>
<path style=" stroke:none;fill-rule:nonzero;fill:rgb(53.709412%,45.092773%,67.771912%);fill-opacity:1;" d="M 381.691406 779.328125 C 389.503906 778.828125 390.0625 790.890625 382.222656 791.414063 C 374.382813 791.9375 373.878906 779.824219 381.691406 779.328125 "/>
<path style=" stroke:none;fill-rule:nonzero;fill:rgb(74.021912%,69.726563%,84.764099%);fill-opacity:1;" d="M 290.410156 725.816406 C 306.894531 725.355469 307.109375 751.097656 290.636719 751.578125 C 274.167969 752.058594 273.921875 726.277344 290.410156 725.816406 "/>
<path style=" stroke:none;fill-rule:nonzero;fill:rgb(53.709412%,45.092773%,67.771912%);fill-opacity:1;" d="M 230.136719 645.992188 C 238.09375 645.742188 238.128906 658.039063 230.195313 658.253906 C 222.265625 658.46875 222.183594 646.242188 230.136719 645.992188 "/>
<path style=" stroke:none;fill-rule:nonzero;fill:rgb(53.709412%,45.092773%,67.771912%);fill-opacity:1;" d="M 290.078125 632.472656 C 297.972656 632.269531 298.007813 644.515625 290.128906 644.722656 C 282.25 644.933594 282.183594 632.675781 290.078125 632.472656 "/>
<path style=" stroke:none;fill-rule:nonzero;fill:rgb(53.709412%,45.092773%,67.771912%);fill-opacity:1;" d="M 286 558.414063 C 293.933594 558.128906 294.375 570.152344 286.445313 570.429688 C 278.515625 570.703125 278.066406 558.707031 286 558.414063 "/>
<path style=" stroke:none;fill-rule:nonzero;fill:rgb(53.709412%,45.092773%,67.771912%);fill-opacity:1;" d="M 193.222656 574.074219 C 201.199219 573.753906 201.738281 585.710938 193.761719 586.035156 C 185.785156 586.355469 185.246094 574.394531 193.222656 574.074219 "/>
<path style=" stroke:none;fill-rule:nonzero;fill:rgb(53.709412%,45.092773%,67.771912%);fill-opacity:1;" d="M 236.894531 595.28125 C 244.859375 594.964844 245.410156 606.917969 237.449219 607.234375 C 229.480469 607.550781 228.925781 595.59375 236.894531 595.28125 "/>
<path style=" stroke:none;fill-rule:nonzero;fill:rgb(53.709412%,45.092773%,67.771912%);fill-opacity:1;" d="M 253.402344 797.058594 C 261.292969 796.820313 261.539063 809.050781 253.644531 809.296875 C 245.753906 809.542969 245.511719 797.300781 253.402344 797.058594 "/>
<path style=" stroke:none;fill-rule:nonzero;fill:rgb(53.709412%,45.092773%,67.771912%);fill-opacity:1;" d="M 272.371094 514.546875 C 271.414063 514.824219 270.457031 515.097656 269.484375 515.324219 C 269.058594 515.425781 268.644531 515.191406 268.515625 514.773438 C 268.390625 514.371094 268.289063 513.964844 268.183594 513.558594 C 268.050781 513.433594 267.949219 513.265625 267.933594 513.039063 C 267.90625 512.714844 267.867188 512.386719 267.832031 512.0625 C 267.503906 510.488281 267.265625 508.898438 267.011719 507.3125 C 266.304688 505.039063 265.5625 502.78125 264.8125 500.523438 C 264.644531 500.15625 264.476563 499.789063 264.296875 499.429688 C 264.183594 499.214844 264.183594 499.003906 264.242188 498.820313 C 261.648438 491.15625 258.800781 483.582031 255.707031 476.097656 C 253.171875 469.957031 250.929688 463.503906 248.070313 457.519531 C 246.003906 453.191406 243.03125 449.445313 241.757813 444.765625 C 240.640625 442.8125 239.507813 440.867188 238.347656 438.9375 C 242.253906 438.617188 246.148438 438.363281 250.015625 438.195313 C 250.078125 438.191406 250.136719 438.183594 250.195313 438.179688 L 265.296875 477.296875 C 266.667969 480.703125 267.988281 484.128906 269.261719 487.566406 C 272.59375 496.195313 275.921875 504.820313 279.253906 513.445313 C 276.941406 513.742188 274.652344 514.128906 272.371094 514.546875 M 249.867188 520.292969 C 239.449219 493.429688 227.226563 467.320313 213.183594 442.160156 C 216.773438 441.523438 220.378906 440.972656 223.980469 440.488281 C 239.089844 464.523438 250.570313 490.464844 258.167969 517.816406 C 255.390625 518.585938 252.621094 519.410156 249.867188 520.292969 M 219.417969 531.515625 C 210.519531 502.976563 198.632813 475.4375 183.953125 449.386719 C 189.152344 447.691406 194.4375 446.222656 199.777344 444.945313 C 214.304688 470.53125 226.96875 497.101563 237.585938 524.546875 C 231.496094 526.78125 225.445313 529.148438 219.417969 531.515625 M 195.699219 540.824219 C 185.488281 512.894531 172.5625 486.050781 157 460.703125 C 161.710938 458.203125 166.570313 455.96875 171.535156 453.941406 C 186.429688 480.039063 198.371094 507.570313 207.226563 536.265625 C 203.367188 537.765625 199.523438 539.28125 195.699219 540.824219 M 172.1875 551.023438 C 160.953125 525.375 147.828125 500.632813 132.859375 476.960938 C 136.964844 473.472656 141.277344 470.273438 145.761719 467.335938 C 161.011719 492.179688 173.734375 518.425781 183.667969 545.835938 C 179.808594 547.503906 175.980469 549.226563 172.1875 551.023438 M 147.898438 564.128906 C 138.722656 540.828125 127.027344 518.695313 112.808594 498.109375 C 113.578125 497.460938 114.292969 496.714844 114.921875 495.882813 C 117.523438 492.441406 120.292969 489.203125 123.191406 486.132813 C 137.34375 508.785156 149.828125 532.402344 160.582031 556.847656 C 156.292969 559.132813 152.058594 561.550781 147.898438 564.128906 M 295.171875 517.566406 C 295.078125 517.390625 294.992188 517.214844 294.898438 517.042969 C 294.65625 516.050781 294.199219 515.136719 293.527344 514.390625 L 293.371094 514.082031 C 292.914063 512.671875 292.394531 511.285156 291.816406 509.917969 C 280.894531 481.625 269.972656 453.335938 259.050781 425.042969 C 258.65625 424.023438 258.09375 423.199219 257.425781 422.550781 C 255.925781 420.453125 253.457031 419.058594 250.015625 419.210938 C 193.089844 421.703125 134.992188 438.695313 99.085938 485.59375 C 98.058594 486.507813 97.023438 487.414063 96.003906 488.339844 C 94.625 489.589844 94.175781 491.050781 94.347656 492.429688 C 94.230469 493.648438 94.570313 494.984375 95.566406 496.328125 C 112.550781 519.292969 126.449219 544.367188 136.640625 571.050781 C 136.738281 572.289063 136.949219 573.53125 137.410156 574.679688 C 137.617188 575.195313 137.847656 575.703125 138.113281 576.1875 C 139.195313 579.976563 143.183594 582.867188 147.339844 580.03125 C 168.5 565.597656 191.636719 556.21875 215.402344 547.023438 C 238.769531 537.984375 262.617188 527.125 287.964844 525.699219 C 288.75 525.851563 289.578125 525.867188 290.40625 525.707031 C 290.929688 525.609375 291.453125 525.507813 291.976563 525.410156 C 295.527344 524.734375 296.65625 520.386719 295.171875 517.566406 "/>
<path style=" stroke:none;fill-rule:nonzero;fill:rgb(74.021912%,69.726563%,84.764099%);fill-opacity:1;" d="M 261.859375 706.105469 C 256.886719 698.269531 246.410156 695.121094 237.589844 697.660156 C 227.796875 700.484375 226.167969 710.90625 226.277344 719.683594 C 226.34375 725.164063 234.871094 725.179688 234.804688 719.683594 C 234.746094 715.023438 234.414063 707.714844 239.855469 705.882813 C 244.773438 704.230469 251.671875 705.960938 254.496094 710.410156 C 257.425781 715.03125 264.8125 710.757813 261.859375 706.105469 "/>
<path style=" stroke:none;fill-rule:nonzero;fill:rgb(74.021912%,69.726563%,84.764099%);fill-opacity:1;" d="M 321.191406 688.421875 C 317.023438 681.425781 310.308594 674.742188 301.402344 676.09375 C 292.503906 677.441406 289.304688 685.949219 288.269531 693.828125 C 287.589844 698.984375 295.648438 699.519531 296.328125 694.382813 C 296.871094 690.238281 298.046875 684.316406 303.214844 684.003906 C 308.136719 683.707031 311.714844 688.25 313.953125 692.007813 C 316.59375 696.445313 323.855469 692.902344 321.191406 688.421875 "/>
<path style=" stroke:none;fill-rule:nonzero;fill:rgb(86.71875%,76.5625%,82.8125%);fill-opacity:1;" d="M 335.511719 701.558594 C 328.40625 699.621094 319.886719 701.039063 314.078125 706.410156 C 309.714844 710.445313 311.554688 714.835938 315.386719 716.605469 C 316.894531 717.925781 319.085938 718.730469 321.632813 718.34375 C 327.453125 717.453125 332.40625 715.507813 336.726563 711.882813 C 340.5625 708.664063 340.546875 702.933594 335.511719 701.558594 "/>
<path style=" stroke:none;fill-rule:nonzero;fill:rgb(86.71875%,76.5625%,82.8125%);fill-opacity:1;" d="M 242.195313 734.574219 C 235.089844 732.636719 226.570313 734.054688 220.761719 739.425781 C 216.402344 743.460938 218.238281 747.851563 222.070313 749.621094 C 223.578125 750.941406 225.769531 751.75 228.316406 751.359375 C 234.136719 750.472656 239.089844 748.527344 243.410156 744.902344 C 247.246094 741.683594 247.230469 735.949219 242.195313 734.574219 "/>
<path style=" stroke:none;fill-rule:nonzero;fill:rgb(39.598083%,30.200195%,50.976563%);fill-opacity:1;" d="M 218.074219 128.378906 C 213.195313 128.378906 208.722656 127.390625 204.664063 125.390625 C 200.597656 123.410156 197.527344 120.71875 195.433594 117.328125 C 193.109375 113.558594 189.046875 110.070313 183.246094 106.890625 C 177.4375 103.710938 170.476563 102.109375 162.351563 102.109375 C 157.476563 102.109375 153.351563 102.710938 149.988281 103.898438 C 146.621094 105.101563 143.835938 106.589844 141.632813 108.378906 C 139.421875 110.171875 137.855469 112.160156 136.929688 114.351563 C 135.996094 116.539063 135.535156 118.628906 135.535156 120.621094 C 135.535156 123.800781 136.695313 126.539063 139.015625 128.828125 C 141.339844 131.121094 144.878906 133.261719 149.640625 135.238281 C 154.398438 137.230469 160.261719 139.230469 167.226563 141.210938 C 174.191406 143.199219 182.429688 145.390625 191.953125 147.78125 L 195.085938 148.378906 C 200.425781 149.769531 206.980469 151.710938 214.761719 154.191406 C 222.539063 156.691406 230.027344 160.269531 237.226563 164.941406 C 244.421875 169.621094 250.574219 175.738281 255.683594 183.300781 C 260.785156 190.859375 263.34375 200.308594 263.34375 211.648438 C 263.34375 221.601563 261.136719 230.949219 256.726563 239.710938 C 252.3125 248.46875 245.929688 256.121094 237.574219 262.691406 C 229.214844 269.261719 218.941406 274.429688 206.753906 278.210938 C 194.5625 281.988281 180.808594 283.878906 165.484375 283.878906 C 143.660156 283.878906 125.261719 280.300781 110.289063 273.140625 C 95.3125 265.96875 84.457031 257.019531 77.726563 246.269531 C 75.867188 243.488281 74.648438 241.050781 74.070313 238.960938 C 73.488281 236.871094 73.199219 234.828125 73.199219 232.839844 C 73.199219 226.480469 75.691406 220.859375 80.6875 215.980469 C 85.675781 211.109375 92.234375 208.671875 100.359375 208.671875 C 106.160156 208.671875 111.160156 210.011719 115.335938 212.699219 C 119.515625 215.378906 123.226563 219.019531 126.480469 223.589844 C 130.425781 228.960938 135.535156 233.539063 141.804688 237.320313 C 148.070313 241.101563 156.3125 242.988281 166.53125 242.988281 C 178.835938 242.988281 188.523438 240.308594 195.609375 234.929688 C 202.6875 229.558594 206.230469 222.898438 206.230469 214.941406 C 206.230469 210.359375 204.953125 206.53125 202.398438 203.441406 C 199.84375 200.359375 196.132813 197.621094 191.257813 195.230469 C 186.378906 192.851563 180.339844 190.660156 173.148438 188.671875 C 165.945313 186.679688 157.703125 184.488281 148.421875 182.101563 L 146.679688 181.808594 C 140.640625 180.210938 133.675781 178.21875 125.785156 175.828125 C 117.890625 173.449219 110.402344 170.070313 103.324219 165.691406 C 96.238281 161.308594 90.261719 155.738281 85.386719 148.96875 C 80.511719 142.210938 78.074219 133.648438 78.074219 123.300781 C 78.074219 115.148438 79.871094 107.289063 83.472656 99.730469 C 87.070313 92.171875 92.351563 85.5 99.320313 79.730469 C 106.28125 73.960938 114.992188 69.378906 125.4375 66 C 135.882813 62.621094 148.070313 60.921875 162.003906 60.921875 C 172.21875 60.921875 181.445313 61.820313 189.691406 63.609375 C 197.925781 65.398438 205.300781 67.789063 211.804688 70.769531 C 218.300781 73.761719 223.816406 77.089844 228.34375 80.769531 C 232.871094 84.460938 236.53125 88.191406 239.316406 91.960938 C 241.40625 94.75 242.851563 97.191406 243.671875 99.28125 C 244.476563 101.371094 244.886719 103.511719 244.886719 105.691406 C 244.886719 108.679688 244.242188 111.519531 242.972656 114.199219 C 241.691406 116.890625 239.839844 119.269531 237.398438 121.359375 C 234.964844 123.449219 232.117188 125.148438 228.867188 126.441406 C 225.613281 127.730469 222.015625 128.378906 218.074219 128.378906 "/>
<path style=" stroke:none;fill-rule:nonzero;fill:rgb(53.709412%,45.092773%,67.771912%);fill-opacity:1;" d="M 184.691406 1131.605469 C 180.9375 1131.605469 177.496094 1130.839844 174.371094 1129.308594 C 171.242188 1127.78125 168.878906 1125.710938 167.269531 1123.105469 C 165.480469 1120.199219 162.351563 1117.519531 157.886719 1115.066406 C 153.421875 1112.621094 148.0625 1111.390625 141.808594 1111.390625 C 138.054688 1111.390625 134.882813 1111.851563 132.296875 1112.769531 C 129.703125 1113.6875 127.558594 1114.835938 125.863281 1116.214844 C 124.164063 1117.59375 122.957031 1119.125 122.246094 1120.808594 C 121.527344 1122.496094 121.171875 1124.105469 121.171875 1125.632813 C 121.171875 1128.085938 122.0625 1130.191406 123.851563 1131.949219 C 125.636719 1133.710938 128.363281 1135.359375 132.027344 1136.886719 C 135.6875 1138.421875 140.199219 1139.953125 145.5625 1141.480469 C 150.921875 1143.015625 157.261719 1144.699219 164.589844 1146.535156 L 167 1146.996094 C 171.109375 1148.066406 176.15625 1149.5625 182.144531 1151.472656 C 188.128906 1153.390625 193.890625 1156.144531 199.429688 1159.742188 C 204.964844 1163.339844 209.703125 1168.050781 213.632813 1173.871094 C 217.5625 1179.6875 219.527344 1186.960938 219.527344 1195.6875 C 219.527344 1203.347656 217.828125 1210.542969 214.4375 1217.28125 C 211.042969 1224.019531 206.128906 1229.914063 199.699219 1234.96875 C 193.265625 1240.019531 185.359375 1244.003906 175.980469 1246.914063 C 166.597656 1249.820313 156.011719 1251.277344 144.21875 1251.277344 C 127.425781 1251.277344 113.269531 1248.519531 101.742188 1243.007813 C 90.21875 1237.496094 81.863281 1230.601563 76.683594 1222.335938 C 75.253906 1220.191406 74.316406 1218.3125 73.871094 1216.707031 C 73.421875 1215.101563 73.199219 1213.53125 73.199219 1211.996094 C 73.199219 1207.101563 75.117188 1202.773438 78.960938 1199.019531 C 82.800781 1195.269531 87.847656 1193.390625 94.101563 1193.390625 C 98.566406 1193.390625 102.414063 1194.425781 105.628906 1196.496094 C 108.84375 1198.5625 111.703125 1201.355469 114.203125 1204.878906 C 117.238281 1209.011719 121.171875 1212.535156 125.996094 1215.441406 C 130.820313 1218.355469 137.164063 1219.808594 145.023438 1219.808594 C 154.492188 1219.808594 161.953125 1217.742188 167.402344 1213.605469 C 172.851563 1209.46875 175.578125 1204.34375 175.578125 1198.214844 C 175.578125 1194.695313 174.59375 1191.75 172.628906 1189.371094 C 170.664063 1187 167.804688 1184.894531 164.054688 1183.054688 C 160.300781 1181.21875 155.652344 1179.535156 150.117188 1178.003906 C 144.578125 1176.472656 138.230469 1174.785156 131.089844 1172.949219 L 129.75 1172.71875 C 125.101563 1171.496094 119.738281 1169.964844 113.671875 1168.125 C 107.59375 1166.289063 101.832031 1163.6875 96.382813 1160.316406 C 90.929688 1156.949219 86.332031 1152.660156 82.578125 1147.453125 C 78.828125 1142.25 76.953125 1135.664063 76.953125 1127.699219 C 76.953125 1121.421875 78.335938 1115.375 81.105469 1109.554688 C 83.875 1103.734375 87.941406 1098.605469 93.300781 1094.164063 C 98.660156 1089.726563 105.359375 1086.203125 113.398438 1083.597656 C 121.4375 1080.996094 130.820313 1079.691406 141.542969 1079.691406 C 149.398438 1079.691406 156.503906 1080.382813 162.847656 1081.761719 C 169.1875 1083.140625 174.859375 1084.976563 179.867188 1087.273438 C 184.867188 1089.570313 189.109375 1092.136719 192.597656 1094.96875 C 196.078125 1097.800781 198.894531 1100.675781 201.039063 1103.582031 C 202.644531 1105.726563 203.761719 1107.601563 204.386719 1109.210938 C 205.011719 1110.816406 205.328125 1112.464844 205.328125 1114.148438 C 205.328125 1116.445313 204.832031 1118.628906 203.851563 1120.695313 C 202.867188 1122.761719 201.441406 1124.597656 199.5625 1126.207031 C 197.6875 1127.816406 195.496094 1129.117188 192.996094 1130.109375 C 190.492188 1131.109375 187.722656 1131.605469 184.691406 1131.605469 "/>
<path style=" stroke:none;fill-rule:nonzero;fill:rgb(53.709412%,45.092773%,67.771912%);fill-opacity:1;" d="M 458.996094 1148.855469 C 458.996094 1152.695313 457.617188 1156.109375 454.851563 1159.105469 C 452.089844 1162.097656 448.554688 1163.59375 444.257813 1163.59375 C 441.496094 1163.59375 438.652344 1162.671875 435.738281 1160.832031 C 433.125 1159.144531 430.476563 1157.992188 427.792969 1157.378906 C 425.105469 1156.765625 422.761719 1156.457031 420.769531 1156.457031 C 417.085938 1156.457031 413.664063 1157.300781 410.519531 1158.992188 C 407.371094 1160.679688 404.683594 1162.984375 402.460938 1165.898438 C 400.230469 1168.816406 398.503906 1172.269531 397.277344 1176.261719 C 396.046875 1180.257813 395.433594 1184.554688 395.433594 1189.160156 C 395.433594 1193.765625 396.046875 1198.140625 397.277344 1202.285156 C 398.503906 1206.433594 400.230469 1210.039063 402.460938 1213.109375 C 404.683594 1216.183594 407.332031 1218.601563 410.40625 1220.367188 C 413.476563 1222.132813 416.851563 1223.015625 420.535156 1223.015625 C 422.683594 1223.015625 424.988281 1222.710938 427.445313 1222.09375 C 429.902344 1221.480469 432.359375 1220.328125 434.816406 1218.636719 C 437.886719 1216.492188 440.878906 1215.414063 443.800781 1215.414063 C 447.484375 1215.414063 450.820313 1216.796875 453.816406 1219.558594 C 456.808594 1222.324219 458.308594 1225.777344 458.308594 1229.921875 C 458.308594 1232.226563 457.652344 1234.492188 456.351563 1236.714844 C 455.046875 1238.945313 452.78125 1241.132813 449.554688 1243.28125 C 446.023438 1245.585938 441.648438 1247.460938 436.429688 1248.921875 C 431.207031 1250.378906 425.527344 1251.109375 419.386719 1251.109375 C 411.246094 1251.109375 403.53125 1249.730469 396.242188 1246.964844 C 388.949219 1244.203125 382.613281 1240.210938 377.242188 1234.988281 C 371.863281 1229.769531 367.605469 1223.324219 364.460938 1215.644531 C 361.308594 1207.96875 359.738281 1199.292969 359.738281 1189.621094 C 359.738281 1179.949219 361.269531 1171.234375 364.34375 1163.480469 C 367.414063 1155.730469 371.601563 1149.125 376.894531 1143.675781 C 382.191406 1138.226563 388.449219 1134.003906 395.664063 1131.007813 C 402.882813 1128.015625 410.636719 1126.515625 418.925781 1126.515625 C 425.527344 1126.515625 431.554688 1127.402344 437.003906 1129.164063 C 442.453125 1130.933594 447.023438 1133.121094 450.707031 1135.730469 C 453.777344 1137.878906 455.925781 1140.070313 457.15625 1142.292969 C 458.382813 1144.519531 458.996094 1146.710938 458.996094 1148.855469 "/>
<path style=" stroke:none;fill-rule:nonzero;fill:rgb(53.709412%,45.092773%,67.771912%);fill-opacity:1;" d="M 491.429688 1079.507813 C 496.496094 1079.507813 500.792969 1081.273438 504.328125 1084.804688 C 507.859375 1088.339844 509.625 1092.632813 509.625 1097.703125 L 509.625 1159.453125 C 509.625 1162.898438 513.804688 1164.605469 516.21875 1162.148438 L 546.242188 1131.554688 C 548.695313 1128.789063 551.921875 1127.410156 555.914063 1127.410156 C 559.90625 1127.410156 563.128906 1128.789063 565.585938 1131.554688 C 568.039063 1134.320313 569.273438 1137.46875 569.273438 1140.996094 C 569.273438 1144.53125 567.964844 1147.601563 565.359375 1150.210938 L 543.578125 1172.566406 C 540.960938 1175.246094 540.558594 1179.386719 542.609375 1182.523438 L 572.496094 1228.28125 C 574.183594 1230.894531 575.03125 1233.65625 575.03125 1236.570313 C 575.03125 1240.414063 573.648438 1243.867188 570.882813 1246.9375 C 568.121094 1250.007813 564.511719 1251.542969 560.0625 1251.542969 C 557.449219 1251.542969 554.992188 1250.890625 552.691406 1249.585938 C 550.390625 1248.277344 548.546875 1246.554688 547.164063 1244.402344 L 521.921875 1203.894531 C 520.25 1201.214844 516.488281 1200.855469 514.339844 1203.167969 C 511.308594 1206.433594 509.625 1210.722656 509.625 1215.175781 L 509.625 1233.347656 C 509.625 1238.414063 507.859375 1242.71875 504.328125 1246.246094 C 500.792969 1249.777344 496.496094 1251.542969 491.429688 1251.542969 C 486.363281 1251.542969 482.066406 1249.777344 478.535156 1246.246094 C 475 1242.71875 473.238281 1238.414063 473.238281 1233.347656 L 473.238281 1097.703125 C 473.238281 1092.632813 475 1088.339844 478.535156 1084.804688 C 482.066406 1081.273438 486.363281 1079.507813 491.429688 1079.507813 "/>
<path style=" stroke:none;fill-rule:nonzero;fill:rgb(53.709412%,45.092773%,67.771912%);fill-opacity:1;" d="M 314.386719 1188.886719 C 314.386719 1183.207031 313.695313 1178.21875 312.3125 1173.917969 C 310.933594 1169.621094 309.125 1166.050781 306.902344 1163.210938 C 304.675781 1160.367188 302.179688 1158.222656 299.414063 1156.761719 C 296.652344 1155.304688 293.964844 1154.574219 291.355469 1154.574219 C 288.742188 1154.574219 286.058594 1155.304688 283.292969 1156.761719 C 280.53125 1158.222656 278.074219 1160.410156 275.925781 1163.324219 C 273.773438 1166.242188 272.011719 1169.851563 270.628906 1174.148438 C 269.246094 1178.449219 268.554688 1183.359375 268.554688 1188.886719 C 268.554688 1194.414063 269.207031 1199.25 270.515625 1203.394531 C 271.816406 1207.542969 273.582031 1211.035156 275.8125 1213.875 C 278.035156 1216.71875 280.53125 1218.824219 283.292969 1220.210938 C 286.058594 1221.589844 288.824219 1222.28125 291.585938 1222.28125 C 294.351563 1222.28125 297.074219 1221.589844 299.761719 1220.210938 C 302.445313 1218.824219 304.90625 1216.71875 307.132813 1213.875 C 309.355469 1211.035156 311.121094 1207.542969 312.429688 1203.394531 C 313.730469 1199.25 314.386719 1194.414063 314.386719 1188.886719 M 350.773438 1188.425781 C 350.773438 1197.027344 349.277344 1205.089844 346.28125 1212.609375 C 343.289063 1220.132813 339.144531 1226.695313 333.847656 1232.300781 C 328.550781 1237.90625 322.292969 1242.316406 315.078125 1245.542969 C 307.859375 1248.765625 300.027344 1250.375 291.585938 1250.375 C 283.140625 1250.375 275.273438 1248.765625 267.980469 1245.542969 C 260.6875 1242.316406 254.394531 1237.90625 249.097656 1232.300781 C 243.800781 1226.695313 239.652344 1220.132813 236.660156 1212.609375 C 233.664063 1205.089844 232.167969 1197.027344 232.167969 1188.425781 C 232.167969 1179.984375 233.664063 1172 236.660156 1164.476563 C 239.652344 1156.953125 243.800781 1150.351563 249.097656 1144.667969 C 254.394531 1138.992188 260.6875 1134.535156 267.980469 1131.3125 C 275.273438 1128.089844 283.140625 1126.476563 291.585938 1126.476563 C 300.027344 1126.476563 307.859375 1128.089844 315.078125 1131.3125 C 322.292969 1134.535156 328.550781 1138.992188 333.847656 1144.667969 C 339.144531 1150.351563 343.289063 1156.953125 346.28125 1164.476563 C 349.277344 1172 350.773438 1179.984375 350.773438 1188.425781 "/>
<path style=" stroke:none;fill-rule:nonzero;fill:rgb(39.598083%,30.200195%,50.976563%);fill-opacity:1;" d="M 288.757813 172.378906 C 288.757813 165.800781 290 159.511719 292.496094 153.53125 C 294.992188 147.539063 298.679688 142.300781 303.570313 137.820313 C 308.457031 133.328125 314.542969 129.730469 321.824219 127.039063 C 329.105469 124.351563 337.535156 123 347.113281 123 C 359.683594 123 370.105469 125.148438 378.386719 129.441406 C 386.660156 133.730469 392.898438 139.359375 397.089844 146.351563 C 398.480469 148.738281 399.433594 150.878906 399.933594 152.78125 C 400.429688 154.679688 400.679688 156.421875 400.679688 158.011719 C 400.679688 163.210938 398.738281 167.851563 394.84375 171.929688 C 390.953125 176.019531 386.113281 178.070313 380.328125 178.070313 C 376.335938 178.070313 372.699219 177.019531 369.40625 174.921875 C 366.113281 172.828125 363.671875 169.988281 362.078125 166.390625 C 359.085938 160.011719 353.894531 156.820313 346.515625 156.820313 C 341.324219 156.820313 337.734375 158.121094 335.742188 160.710938 C 333.742188 163.308594 332.75 166.101563 332.75 169.089844 C 332.75 174.480469 335.289063 178.46875 340.382813 181.058594 C 345.46875 183.648438 352.199219 186.148438 360.578125 188.539063 C 365.5625 189.941406 370.90625 191.679688 376.589844 193.78125 C 382.277344 195.871094 387.5625 198.671875 392.449219 202.160156 C 397.339844 205.648438 401.375 210.039063 404.570313 215.320313 C 407.761719 220.609375 409.359375 227.148438 409.359375 234.929688 C 409.359375 237.320313 408.910156 241.261719 408.011719 246.75 C 407.113281 252.238281 404.71875 257.71875 400.828125 263.199219 C 396.941406 268.691406 390.902344 273.578125 382.726563 277.871094 C 374.542969 282.160156 363.273438 284.300781 348.90625 284.300781 C 340.726563 284.300781 333.597656 283.601563 327.511719 282.210938 C 321.425781 280.808594 316.089844 278.96875 311.5 276.671875 C 306.910156 274.378906 303.070313 271.789063 299.980469 268.890625 C 296.882813 266 294.34375 263.058594 292.347656 260.058594 C 290.75 257.46875 289.65625 255.230469 289.058594 253.328125 C 288.460938 251.441406 288.160156 249.589844 288.160156 247.789063 C 288.160156 242.210938 290.054688 237.320313 293.847656 233.128906 C 297.632813 228.941406 302.523438 226.851563 308.507813 226.851563 C 312.496094 226.851563 316.1875 227.890625 319.582031 229.988281 C 322.972656 232.078125 325.566406 235.03125 327.363281 238.820313 C 328.757813 241.609375 331.050781 244.25 334.246094 246.75 C 337.4375 249.238281 342.324219 250.488281 348.90625 250.488281 C 352.695313 250.488281 355.742188 250.039063 358.035156 249.140625 C 360.324219 248.238281 362.078125 247.101563 363.273438 245.699219 C 364.472656 244.308594 365.21875 242.910156 365.519531 241.511719 C 365.816406 240.109375 365.96875 238.921875 365.96875 237.921875 C 365.96875 235.328125 365.316406 233.128906 364.023438 231.339844 C 362.722656 229.539063 361.074219 228.039063 359.085938 226.851563 C 357.085938 225.648438 354.894531 224.648438 352.5 223.851563 C 350.105469 223.058594 347.808594 222.359375 345.617188 221.761719 C 339.03125 219.960938 332.347656 217.871094 325.566406 215.46875 C 318.78125 213.078125 312.648438 210.039063 307.164063 206.351563 C 301.671875 202.660156 297.234375 198.121094 293.847656 192.730469 C 290.449219 187.339844 288.757813 180.558594 288.757813 172.378906 "/>
<path style=" stroke:none;fill-rule:nonzero;fill:rgb(53.709412%,45.092773%,67.771912%);fill-opacity:1;" d="M 584.1875 1165.148438 C 584.1875 1160.085938 585.144531 1155.246094 587.066406 1150.644531 C 588.984375 1146.035156 591.824219 1142.003906 595.585938 1138.550781 C 599.347656 1135.097656 604.03125 1132.332031 609.636719 1130.257813 C 615.238281 1128.1875 621.726563 1127.152344 629.09375 1127.152344 C 638.769531 1127.152344 646.789063 1128.804688 653.164063 1132.105469 C 659.53125 1135.40625 664.332031 1139.742188 667.554688 1145.113281 C 668.628906 1146.957031 669.359375 1148.609375 669.746094 1150.066406 C 670.128906 1151.527344 670.320313 1152.871094 670.320313 1154.09375 C 670.320313 1158.089844 668.824219 1161.660156 665.828125 1164.804688 C 662.835938 1167.953125 659.109375 1169.527344 654.660156 1169.527344 C 651.585938 1169.527344 648.785156 1168.71875 646.253906 1167.109375 C 643.71875 1165.496094 641.839844 1163.308594 640.613281 1160.546875 C 638.308594 1155.632813 634.3125 1153.175781 628.636719 1153.175781 C 624.640625 1153.175781 621.878906 1154.175781 620.34375 1156.171875 C 618.808594 1158.167969 618.042969 1160.316406 618.042969 1162.617188 C 618.042969 1166.761719 620 1169.835938 623.914063 1171.828125 C 627.828125 1173.828125 633.011719 1175.746094 639.460938 1177.585938 C 643.296875 1178.660156 647.40625 1180.003906 651.78125 1181.617188 C 656.15625 1183.230469 660.222656 1185.382813 663.984375 1188.066406 C 667.746094 1190.753906 670.855469 1194.132813 673.3125 1198.199219 C 675.769531 1202.269531 677 1207.296875 677 1213.285156 C 677 1215.128906 676.652344 1218.160156 675.964844 1222.378906 C 675.273438 1226.605469 673.429688 1230.828125 670.4375 1235.046875 C 667.441406 1239.273438 662.796875 1243.035156 656.503906 1246.332031 C 650.203125 1249.628906 641.535156 1251.285156 630.476563 1251.285156 C 624.179688 1251.285156 618.691406 1250.746094 614.011719 1249.671875 C 609.328125 1248.59375 605.21875 1247.179688 601.691406 1245.410156 C 598.15625 1243.648438 595.203125 1241.652344 592.824219 1239.421875 C 590.441406 1237.199219 588.484375 1234.933594 586.953125 1232.628906 C 585.71875 1230.636719 584.878906 1228.910156 584.417969 1227.445313 C 583.960938 1225.992188 583.726563 1224.566406 583.726563 1223.1875 C 583.726563 1218.890625 585.183594 1215.128906 588.101563 1211.902344 C 591.015625 1208.675781 594.78125 1207.066406 599.386719 1207.066406 C 602.457031 1207.066406 605.296875 1207.871094 607.910156 1209.484375 C 610.519531 1211.097656 612.515625 1213.363281 613.898438 1216.277344 C 614.96875 1218.429688 616.734375 1220.464844 619.195313 1222.378906 C 621.648438 1224.300781 625.414063 1225.257813 630.476563 1225.257813 C 633.390625 1225.257813 635.734375 1224.914063 637.503906 1224.222656 C 639.265625 1223.53125 640.613281 1222.648438 641.535156 1221.574219 C 642.453125 1220.503906 643.03125 1219.425781 643.261719 1218.351563 C 643.488281 1217.277344 643.605469 1216.355469 643.605469 1215.585938 C 643.605469 1213.59375 643.105469 1211.902344 642.109375 1210.519531 C 641.109375 1209.136719 639.839844 1207.988281 638.308594 1207.066406 C 636.769531 1206.144531 635.085938 1205.378906 633.242188 1204.761719 C 631.398438 1204.148438 629.632813 1203.609375 627.945313 1203.148438 C 622.878906 1201.769531 617.730469 1200.15625 612.515625 1198.3125 C 607.292969 1196.472656 602.574219 1194.132813 598.351563 1191.289063 C 594.128906 1188.453125 590.710938 1184.960938 588.101563 1180.8125 C 585.488281 1176.664063 584.1875 1171.449219 584.1875 1165.148438 "/>
</g>
</svg>
