<?xml version="1.0" encoding="UTF-8"?>
<svg xmlns="http://www.w3.org/2000/svg" xmlns:xlink="http://www.w3.org/1999/xlink" width="750pt" height="1334pt" viewBox="0 0 750 1334" version="1.1">
<g id="surface1">
<path style=" stroke:none;fill-rule:nonzero;fill:rgb(59.179688%,77.734375%,27.43988%);fill-opacity:1;" d="M 462.265625 413.519531 C 448.015625 400.808594 428.691406 397.53125 410.164063 396.898438 C 409.816406 378.660156 403.765625 360.046875 389.605469 349.53125 C 368.210938 333.640625 338.164063 344.164063 320.0625 360.085938 C 310.644531 368.371094 303.980469 378.691406 299.996094 389.964844 C 279.828125 386.679688 257.308594 396.496094 245.640625 414.140625 C 231.171875 436.015625 234.699219 464.105469 251.4375 482.285156 C 239.210938 493.90625 233.246094 510.691406 235.503906 528.84375 C 238.671875 554.300781 256.078125 573.441406 282.84375 569.40625 C 287.742188 568.671875 290.421875 565.808594 291.324219 562.316406 C 302.179688 577.828125 318.175781 589.539063 336.886719 593.710938 C 356.453125 598.074219 384.6875 596.609375 396.160156 577.515625 C 401.84375 568.046875 393.164063 559.191406 384.683594 559.386719 C 386.433594 557.300781 388.425781 555.421875 390.683594 553.894531 C 398.394531 548.664063 405.261719 547.070313 409.160156 537.703125 C 413.703125 526.777344 417.046875 515.019531 420.03125 503.15625 C 420.597656 502.8125 421.140625 502.402344 421.65625 501.921875 C 425.246094 502.230469 428.878906 502.066406 432.480469 501.359375 C 429.136719 512.378906 443.367188 524.242188 452.402344 513.90625 C 475.761719 487.191406 494.210938 442.019531 462.265625 413.519531 "/>
<path style=" stroke:none;fill-rule:nonzero;fill:rgb(67.771912%,85.15625%,42.358398%);fill-opacity:1;" d="M 329.269531 601.628906 C 331.789063 579.996094 323.675781 556.445313 305.410156 545.871094 C 291.71875 537.945313 274.566406 537.175781 260.40625 544.257813 C 251.050781 548.929688 240.550781 557.320313 233.699219 567.164063 C 229.257813 563.246094 224.167969 560.015625 218.378906 557.742188 C 200.921875 550.898438 180.4375 554.441406 168.367188 569.394531 C 155.679688 585.109375 159.445313 604.066406 168.242188 620.746094 C 171.902344 627.6875 177.238281 635.355469 183.722656 640.570313 C 170.28125 653.386719 164.628906 672.953125 174.578125 691.394531 C 185.132813 710.953125 210.425781 715.578125 226.914063 703.769531 C 229.394531 702.878906 231.65625 701.757813 233.707031 700.421875 C 237.664063 719.699219 251.359375 736.183594 273.511719 737.898438 C 287.0625 738.945313 300.765625 732.515625 308.527344 721.332031 C 311.6875 716.777344 313.449219 711.886719 314.273438 706.832031 C 338.128906 712.140625 365.246094 702.78125 374.078125 677.691406 C 384.898438 646.96875 360.265625 609.421875 329.269531 601.628906 "/>
<path style=" stroke:none;fill-rule:nonzero;fill:rgb(67.771912%,85.15625%,42.358398%);fill-opacity:1;" d="M 597.175781 566.875 C 604.183594 550.480469 596.785156 533.0625 586.316406 519.972656 C 570 499.574219 543.742188 491.253906 520.382813 498.683594 C 516.640625 486.660156 509.121094 475.960938 498.1875 469.753906 C 482.921875 461.085938 464.183594 463.695313 452.820313 475.234375 C 450.84375 474.054688 448.683594 473.058594 446.273438 472.316406 C 436.113281 469.191406 425.15625 471.394531 418.320313 479.84375 C 410.496094 489.515625 408.894531 503.898438 412.777344 516.019531 C 393.242188 520.03125 377.351563 536.523438 374.613281 557.441406 C 371.671875 579.933594 384.335938 609.976563 406.632813 618.492188 C 405.273438 630.070313 407.285156 641.902344 413.277344 652.457031 C 423.347656 670.195313 439.972656 675.601563 459.4375 674.769531 C 459.859375 674.753906 460.234375 674.667969 460.621094 674.601563 C 470.132813 678.921875 482.253906 678.890625 492.882813 674.945313 C 505.085938 670.410156 512.03125 662.300781 516.417969 652.511719 C 539.152344 662.898438 569.648438 653.964844 585.902344 635.207031 C 600.300781 618.585938 602.277344 594.140625 591.253906 577.214844 C 593.589844 573.957031 595.617188 570.523438 597.175781 566.875 "/>
<path style=" stroke:none;fill-rule:nonzero;fill:rgb(39.208984%,52.929688%,12.156677%);fill-opacity:1;" d="M 524.804688 560.261719 C 521.839844 576.089844 513.988281 589.648438 504.894531 602.507813 C 505.484375 592.050781 505.339844 581.464844 504.882813 570.972656 C 504.539063 563.152344 492.335938 563.109375 492.679688 570.972656 C 493.5 589.699219 493.597656 609.300781 489.5 627.648438 C 489.460938 627.261719 489.410156 626.871094 489.367188 626.484375 C 489.191406 627.210938 489.011719 627.929688 488.824219 628.644531 C 487.632813 633.273438 486.078125 638.449219 483.839844 643.246094 C 483.8125 644.089844 483.796875 644.9375 483.746094 645.78125 C 480.816406 652.667969 477.035156 659.242188 472.164063 665.359375 C 452.238281 690.394531 420.101563 702.601563 388.546875 697.945313 C 385.703125 662.285156 382.394531 626.664063 378.632813 591.089844 C 370.101563 594.558594 360.976563 596.234375 351.367188 595.042969 C 351.363281 595.042969 351.363281 595.039063 351.359375 595.039063 C 346.070313 652.191406 342.625 709.472656 340.089844 766.808594 C 319.96875 762.808594 301.285156 753.246094 287.484375 737.265625 C 284.875 734.242188 282.601563 731.144531 280.613281 727.976563 C 274.089844 719.140625 269.671875 707.347656 269.519531 696.15625 C 267.664063 682.195313 268.742188 667.550781 270.703125 652.703125 C 271.734375 644.945313 259.523438 645.023438 258.503906 652.703125 C 257.214844 662.449219 256.417969 671.992188 256.457031 681.300781 C 256.613281 681.621094 256.703125 681.996094 256.707031 682.433594 C 256.726563 686.109375 256.855469 689.851563 257.136719 693.601563 C 258.480469 700.882813 260.09375 708.125 261.488281 715.414063 C 264.980469 726.089844 270.519531 736.28125 278.859375 745.894531 C 294.617188 764.058594 316.375 774.902344 339.554688 779.144531 C 337.605469 825.460938 336.183594 871.808594 334.78125 918.136719 C 334.757813 918.210938 334.730469 918.289063 334.703125 918.367188 C 334.476563 919.058594 334.402344 919.703125 334.398438 920.320313 C 334.0625 922.398438 334.875 924.503906 337.496094 925.628906 C 356.59375 933.824219 377.613281 932.75 395.191406 921.664063 C 397.875 921.292969 400.261719 919.367188 400.167969 915.851563 C 398.320313 847.222656 394.769531 778.65625 389.519531 710.21875 C 422.910156 713.863281 456.625 702.253906 478.84375 676.335938 C 494.382813 658.207031 501.261719 636.695313 503.890625 614.164063 C 515.800781 598.261719 526.960938 581.785156 530.6875 561.886719 C 531.40625 558.046875 525.527344 556.402344 524.804688 560.261719 "/>
<path style=" stroke:none;fill-rule:nonzero;fill:rgb(39.208984%,52.929688%,12.156677%);fill-opacity:1;" d="M 320.949219 458.214844 C 315.5 451.289063 311.175781 444.652344 301.3125 445.175781 C 293.207031 445.601563 287.402344 451.359375 284.4375 458.5 C 282.433594 463.328125 290.300781 465.4375 292.28125 460.660156 C 294.429688 455.492188 299.8125 451.929688 305.429688 453.734375 C 310.054688 455.21875 312.378906 460.382813 315.199219 463.96875 C 318.433594 468.074219 324.15625 462.285156 320.949219 458.214844 "/>
<path style=" stroke:none;fill-rule:nonzero;fill:rgb(39.208984%,52.929688%,12.156677%);fill-opacity:1;" d="M 399.65625 457.601563 C 395.640625 449.46875 390.164063 442.421875 380.324219 442.207031 C 371.015625 442.007813 363.761719 447.792969 358.660156 455.070313 C 355.644531 459.367188 362.695313 463.4375 365.683594 459.175781 C 369.175781 454.195313 374.265625 449.886719 380.730469 450.410156 C 387.316406 450.945313 390.015625 456.410156 392.632813 461.703125 C 394.949219 466.398438 401.96875 462.28125 399.65625 457.601563 "/>
<path style=" stroke:none;fill-rule:nonzero;fill:rgb(91.796875%,82.8125%,87.5%);fill-opacity:1;" d="M 407.921875 478.113281 C 401.894531 473.945313 393.636719 472.792969 386.789063 476.515625 C 381.648438 479.316406 382.132813 484.386719 385.183594 487.375 C 386.210938 489.191406 388.011719 490.691406 390.46875 491.074219 C 396.09375 491.945313 401.199219 491.46875 406.191406 489.074219 C 410.621094 486.953125 412.191406 481.066406 407.921875 478.113281 "/>
<path style=" stroke:none;fill-rule:nonzero;fill:rgb(91.796875%,82.8125%,87.5%);fill-opacity:1;" d="M 296.816406 478.113281 C 290.789063 473.945313 282.53125 472.792969 275.6875 476.515625 C 270.546875 479.316406 271.03125 484.386719 274.078125 487.375 C 275.105469 489.191406 276.90625 490.691406 279.367188 491.074219 C 284.988281 491.945313 290.097656 491.46875 295.089844 489.074219 C 299.519531 486.953125 301.089844 481.066406 296.816406 478.113281 "/>
<path style=" stroke:none;fill-rule:nonzero;fill:rgb(39.208984%,52.929688%,12.156677%);fill-opacity:1;" d="M 345.703125 491.332031 C 342.957031 489.828125 339.316406 490.519531 337.664063 493.308594 C 336.222656 495.742188 336.5 499.03125 338.597656 501.007813 C 338.914063 501.304688 339.285156 501.535156 339.679688 501.722656 C 340.035156 501.976563 340.433594 502.195313 340.882813 502.347656 C 343.628906 503.28125 346.691406 501.824219 348.09375 499.394531 C 349.71875 496.578125 348.503906 492.867188 345.703125 491.332031 "/>
<path style=" stroke:none;fill-rule:nonzero;fill:rgb(39.208984%,52.929688%,12.156677%);fill-opacity:1;" d="M 72.148438 86.589844 C 72.148438 80.820313 74.46875 75.949219 79.113281 71.96875 C 83.757813 67.988281 89.441406 66 96.175781 66 L 244.878906 66 C 251.613281 66 257.296875 67.988281 261.945313 71.96875 C 266.589844 75.949219 268.910156 80.820313 268.910156 86.589844 C 268.910156 92.359375 266.589844 97.238281 261.945313 101.21875 C 257.296875 105.199219 251.613281 107.191406 244.878906 107.191406 L 214.039063 107.191406 C 206.070313 107.191406 199.605469 113.648438 199.605469 121.621094 L 199.605469 259.109375 C 199.605469 266.070313 196.820313 271.941406 191.25 276.71875 C 185.679688 281.488281 178.828125 283.878906 170.703125 283.878906 C 162.574219 283.878906 155.730469 281.488281 150.15625 276.71875 C 144.585938 271.941406 141.796875 266.070313 141.796875 259.109375 L 141.796875 121.621094 C 141.796875 113.648438 135.335938 107.191406 127.367188 107.191406 L 96.175781 107.191406 C 89.441406 107.191406 83.757813 105.199219 79.113281 101.21875 C 74.46875 97.238281 72.148438 92.359375 72.148438 86.589844 "/>
<path style=" stroke:none;fill-rule:nonzero;fill:rgb(67.771912%,85.15625%,42.358398%);fill-opacity:1;" d="M 73.148438 1053.609375 C 73.148438 1047.8125 75.480469 1042.910156 80.148438 1038.910156 C 84.816406 1034.914063 90.53125 1032.910156 97.296875 1032.910156 L 246.742188 1032.910156 C 253.507813 1032.910156 259.222656 1034.914063 263.890625 1038.910156 C 268.558594 1042.910156 270.894531 1047.8125 270.894531 1053.609375 C 270.894531 1059.410156 268.558594 1064.308594 263.890625 1068.304688 C 259.222656 1072.308594 253.507813 1074.304688 246.742188 1074.304688 L 215.75 1074.304688 C 207.738281 1074.304688 201.242188 1080.800781 201.242188 1088.8125 L 201.242188 1226.984375 C 201.242188 1233.984375 198.441406 1239.882813 192.84375 1244.683594 C 187.246094 1249.484375 180.359375 1251.882813 172.195313 1251.882813 C 164.023438 1251.882813 157.144531 1249.484375 151.546875 1244.683594 C 145.945313 1239.882813 143.144531 1233.984375 143.144531 1226.984375 L 143.144531 1088.8125 C 143.144531 1080.800781 136.652344 1074.304688 128.640625 1074.304688 L 97.296875 1074.304688 C 90.53125 1074.304688 84.816406 1072.308594 80.148438 1068.304688 C 75.480469 1064.308594 73.148438 1059.410156 73.148438 1053.609375 "/>
<path style=" stroke:none;fill-rule:nonzero;fill:rgb(67.771912%,85.15625%,42.358398%);fill-opacity:1;" d="M 453.492188 1159.347656 C 460.355469 1159.347656 465.375 1152.496094 462.90625 1146.089844 C 462.890625 1146.046875 462.875 1146.007813 462.859375 1145.964844 C 461.253906 1141.859375 459.199219 1138.296875 456.695313 1135.285156 C 454.183594 1132.285156 451.328125 1129.929688 448.121094 1128.222656 C 444.914063 1126.519531 441.507813 1125.664063 437.898438 1125.664063 C 434.289063 1125.664063 430.878906 1126.519531 427.671875 1128.222656 C 424.460938 1129.929688 421.605469 1132.285156 419.101563 1135.285156 C 416.589844 1138.296875 414.636719 1141.859375 413.234375 1145.964844 C 413.175781 1146.140625 413.117188 1146.3125 413.058594 1146.488281 C 410.992188 1152.847656 415.929688 1159.347656 422.617188 1159.347656 Z M 473.386719 1203.558594 C 478.394531 1203.558594 482.757813 1205.46875 486.46875 1209.273438 C 490.175781 1213.085938 492.03125 1217.597656 492.03125 1222.808594 C 492.03125 1225.621094 491.175781 1228.523438 489.476563 1231.527344 C 487.769531 1234.535156 484.613281 1237.445313 480 1240.25 C 474.988281 1243.460938 468.921875 1246.066406 461.804688 1248.070313 C 454.6875 1250.074219 447.320313 1251.078125 439.699219 1251.078125 C 430.078125 1251.078125 420.753906 1249.277344 411.730469 1245.664063 C 402.710938 1242.054688 394.6875 1236.792969 387.671875 1229.875 C 380.652344 1222.957031 375.039063 1214.492188 370.828125 1204.460938 C 366.621094 1194.4375 364.511719 1183.011719 364.511719 1170.175781 C 364.511719 1157.949219 366.46875 1146.820313 370.378906 1136.792969 C 374.289063 1126.769531 379.550781 1118.199219 386.167969 1111.078125 C 392.785156 1103.960938 400.554688 1098.496094 409.472656 1094.6875 C 418.394531 1090.878906 427.867188 1088.976563 437.898438 1088.976563 C 448.921875 1088.976563 459.046875 1091.230469 468.273438 1095.738281 C 477.492188 1100.253906 485.3125 1106.070313 491.730469 1113.183594 C 498.144531 1120.304688 503.160156 1128.222656 506.769531 1136.945313 C 510.378906 1145.667969 512.179688 1154.238281 512.179688 1162.660156 C 512.179688 1171.679688 510.378906 1178.25 506.769531 1182.355469 C 503.160156 1186.46875 498.746094 1188.519531 493.535156 1188.519531 L 422.238281 1188.519531 C 414.304688 1188.519531 412.0625 1197.34375 417.15625 1203.425781 C 421.171875 1208.21875 428.679688 1214.386719 440.304688 1214.386719 C 444.109375 1214.386719 447.921875 1213.738281 451.730469 1212.433594 C 455.539063 1211.128906 458.949219 1209.476563 461.957031 1207.472656 C 465.964844 1204.867188 469.777344 1203.558594 473.386719 1203.558594 "/>
<path style=" stroke:none;fill-rule:nonzero;fill:rgb(67.771912%,85.15625%,42.358398%);fill-opacity:1;" d="M 618.308594 1159.347656 C 625.175781 1159.347656 630.195313 1152.496094 627.726563 1146.089844 C 627.710938 1146.046875 627.695313 1146.007813 627.679688 1145.964844 C 626.070313 1141.859375 624.019531 1138.296875 621.511719 1135.285156 C 619 1132.285156 616.144531 1129.929688 612.941406 1128.222656 C 609.730469 1126.519531 606.324219 1125.664063 602.714844 1125.664063 C 599.105469 1125.664063 595.695313 1126.519531 592.492188 1128.222656 C 589.28125 1129.929688 586.421875 1132.285156 583.917969 1135.285156 C 581.40625 1138.296875 579.453125 1141.859375 578.054688 1145.964844 C 577.992188 1146.140625 577.9375 1146.3125 577.878906 1146.488281 C 575.8125 1152.847656 580.746094 1159.347656 587.4375 1159.347656 Z M 638.203125 1203.558594 C 643.214844 1203.558594 647.574219 1205.46875 651.285156 1209.273438 C 654.996094 1213.085938 656.851563 1217.597656 656.851563 1222.808594 C 656.851563 1225.621094 655.996094 1228.523438 654.292969 1231.527344 C 652.585938 1234.535156 649.429688 1237.445313 644.820313 1240.25 C 639.808594 1243.460938 633.738281 1246.066406 626.625 1248.070313 C 619.503906 1250.074219 612.136719 1251.078125 604.519531 1251.078125 C 594.894531 1251.078125 585.574219 1249.277344 576.546875 1245.664063 C 567.527344 1242.054688 559.507813 1236.792969 552.492188 1229.875 C 545.46875 1222.957031 539.859375 1214.492188 535.648438 1204.460938 C 531.4375 1194.4375 529.328125 1183.011719 529.328125 1170.175781 C 529.328125 1157.949219 531.285156 1146.820313 535.199219 1136.792969 C 539.105469 1126.769531 544.367188 1118.199219 550.988281 1111.078125 C 557.601563 1103.960938 565.371094 1098.496094 574.292969 1094.6875 C 583.214844 1090.878906 592.6875 1088.976563 602.714844 1088.976563 C 613.742188 1088.976563 623.867188 1091.230469 633.089844 1095.738281 C 642.3125 1100.253906 650.128906 1106.070313 656.550781 1113.183594 C 662.964844 1120.304688 667.980469 1128.222656 671.585938 1136.945313 C 675.195313 1145.667969 677 1154.238281 677 1162.660156 C 677 1171.679688 675.195313 1178.25 671.585938 1182.355469 C 667.980469 1186.46875 663.566406 1188.519531 658.355469 1188.519531 L 587.058594 1188.519531 C 579.121094 1188.519531 576.878906 1197.34375 581.976563 1203.425781 C 585.988281 1208.21875 593.496094 1214.386719 605.121094 1214.386719 C 608.925781 1214.386719 612.738281 1213.738281 616.550781 1212.433594 C 620.355469 1211.128906 623.765625 1209.476563 626.773438 1207.472656 C 630.78125 1204.867188 634.597656 1203.558594 638.203125 1203.558594 "/>
<path style=" stroke:none;fill-rule:nonzero;fill:rgb(67.771912%,85.15625%,42.358398%);fill-opacity:1;" d="M 303.683594 1104.796875 C 304.578125 1107.75 308.257813 1107.878906 309.890625 1105.261719 C 312.386719 1101.265625 315.703125 1098.367188 318.3125 1096.261719 C 320.914063 1094.160156 323.621094 1092.457031 326.433594 1091.152344 C 329.238281 1089.851563 332.246094 1089.195313 335.453125 1089.195313 C 340.867188 1089.195313 345.628906 1091.101563 349.742188 1094.910156 C 353.847656 1098.722656 355.90625 1103.53125 355.90625 1109.34375 C 355.90625 1114.15625 354.351563 1118.722656 351.246094 1123.03125 C 348.132813 1127.34375 343.472656 1129.496094 337.257813 1129.496094 C 332.644531 1129.496094 328.585938 1130.847656 325.078125 1133.554688 C 321.566406 1136.261719 318.613281 1139.871094 316.207031 1144.386719 C 313.800781 1148.894531 311.996094 1154.007813 310.792969 1159.722656 C 309.589844 1165.433594 308.988281 1171.300781 308.988281 1177.316406 L 308.988281 1227.539063 C 308.988281 1233.960938 306.628906 1239.523438 301.921875 1244.234375 C 297.207031 1248.941406 291.644531 1251.300781 285.230469 1251.300781 C 278.613281 1251.300781 272.945313 1248.941406 268.238281 1244.234375 C 263.523438 1239.523438 261.167969 1233.960938 261.167969 1227.539063 L 261.167969 1111.453125 C 261.167969 1105.238281 263.320313 1099.976563 267.636719 1095.664063 C 271.945313 1091.355469 277.210938 1089.195313 283.425781 1089.195313 C 289.238281 1089.195313 294.296875 1091.199219 298.613281 1095.210938 C 300.8125 1097.257813 302.5 1100.910156 303.683594 1104.796875 "/>
<path style=" stroke:none;fill-rule:nonzero;fill:rgb(39.208984%,52.929688%,12.156677%);fill-opacity:1;" d="M 282.164063 156.21875 C 278.980469 153.121094 277.523438 149.140625 277.523438 144.550781 C 277.523438 139.960938 279.015625 136.070313 282.164063 133.03125 C 284.132813 131.128906 286.945313 130 289.53125 129.339844 C 293.429688 128.339844 296.078125 124.710938 296.078125 120.691406 L 296.078125 101.761719 C 296.078125 95.171875 298.371094 89.589844 302.964844 85 C 307.550781 80.410156 313.136719 78.109375 319.722656 78.109375 C 326.304688 78.109375 331.886719 80.410156 336.480469 85 C 341.066406 89.589844 343.363281 95.171875 343.363281 101.761719 L 343.363281 119.398438 C 343.363281 124.359375 347.390625 128.390625 352.355469 128.390625 L 364.011719 128.390625 C 368.601563 128.390625 372.488281 129.941406 375.683594 133.03125 C 378.871094 136.121094 380.472656 139.960938 380.472656 144.550781 C 380.472656 149.140625 378.871094 153.03125 375.683594 156.21875 C 372.488281 159.410156 368.601563 161.011719 364.011719 161.011719 L 352.355469 161.011719 C 347.390625 161.011719 343.363281 165.03125 343.363281 170 L 343.363281 237.019531 C 343.363281 241.011719 343.757813 243.75 344.558594 245.25 C 345.351563 246.75 347.148438 247.488281 349.945313 247.488281 L 358.625 247.488281 C 363.808594 247.488281 368.203125 249.289063 371.792969 252.878906 C 375.386719 256.46875 377.179688 260.859375 377.179688 266.050781 C 377.179688 271.238281 375.386719 275.578125 371.792969 279.070313 C 368.203125 282.550781 363.808594 284.300781 358.625 284.300781 L 338.273438 284.300781 C 324.90625 284.300781 314.53125 281.011719 307.152344 274.429688 C 299.769531 267.839844 296.078125 257.269531 296.078125 242.699219 L 296.078125 168.949219 C 296.078125 164.878906 293.332031 161.371094 289.40625 160.269531 C 287.039063 159.609375 284.40625 158.410156 282.164063 156.21875 "/>
</g>
</svg>
