<?xml version="1.0" encoding="UTF-8"?>
<svg xmlns="http://www.w3.org/2000/svg" xmlns:xlink="http://www.w3.org/1999/xlink" width="750pt" height="1334pt" viewBox="0 0 750 1334" version="1.1">
<g id="surface1">
<path style=" stroke:none;fill-rule:nonzero;fill:rgb(91.796875%,57.226563%,15.696716%);fill-opacity:1;" d="M 441.847656 845.335938 C 440.523438 840.046875 433.863281 837.414063 429.023438 839.074219 C 423.503906 840.96875 421.433594 846.597656 422.761719 851.898438 C 424.683594 859.5625 425.550781 868.269531 423.699219 876.003906 C 422.039063 882.933594 418.503906 887.613281 412.65625 891.046875 C 410.742188 892.167969 407.71875 892.933594 405.0625 892.925781 C 405.503906 892.925781 406.746094 893.253906 404.570313 892.871094 C 403.683594 892.71875 402.785156 892.554688 401.917969 892.304688 C 401.800781 892.246094 401.058594 891.964844 400.953125 891.910156 C 400.613281 891.734375 398.011719 890.265625 398.394531 890.574219 C 392.449219 886.433594 389.574219 880.570313 387.847656 873.117188 C 385.789063 864.21875 386.160156 854.648438 386.035156 845.550781 C 385.894531 835.1875 385.824219 824.824219 385.832031 814.464844 C 385.847656 793.738281 386.15625 773.015625 386.765625 752.300781 C 387.457031 728.621094 388.546875 704.960938 390.011719 681.320313 C 390.347656 675.871094 384.273438 671.570313 379.3125 671.878906 C 373.3125 672.253906 370.210938 677.109375 369.871094 682.574219 C 366.976563 729.363281 365.570313 776.242188 365.699219 823.121094 C 365.730469 834.800781 365.738281 846.496094 366.101563 858.167969 C 366.425781 868.632813 367.539063 879.53125 372.097656 889.085938 C 376.421875 898.152344 383.382813 906.394531 392.84375 910.351563 C 403 914.601563 413.9375 913.476563 423.4375 908.074219 C 445.828125 895.335938 447.453125 867.703125 441.847656 845.335938 "/>
<path style=" stroke:none;fill-rule:nonzero;fill:rgb(98.826599%,68.943787%,29.80957%);fill-opacity:1;" d="M 656.976563 704.644531 C 656.820313 704.144531 656.664063 703.644531 656.507813 703.144531 C 656.53125 702.78125 656.535156 702.414063 656.519531 702.046875 C 656.640625 700.632813 656.386719 699.292969 655.796875 698.101563 C 655.78125 697.558594 655.691406 697.015625 655.5 696.480469 C 646.519531 671.605469 637.378906 646.457031 622.945313 624.128906 C 608.953125 602.488281 591.367188 583.023438 573.949219 564.113281 C 556.882813 545.589844 538.140625 528.148438 515.578125 516.53125 C 491.960938 504.371094 465.523438 497.046875 439.644531 491.507813 C 390.914063 481.082031 340.207031 483.0625 292.574219 497.894531 C 247.363281 511.972656 206.039063 537.203125 173.152344 571.296875 C 141.871094 603.730469 118.199219 643.507813 104.921875 686.582031 C 103.261719 691.96875 101.78125 697.40625 100.449219 702.878906 C 100.230469 703.769531 100.191406 704.601563 100.28125 705.375 C 95.808594 711.113281 104.636719 719.234375 110.753906 713.871094 C 125.742188 700.726563 147.320313 694.121094 166.796875 699.933594 C 182.988281 704.765625 197.347656 718.988281 200.128906 736 C 199.214844 738.808594 200.851563 742.375 203.273438 743.792969 C 206.039063 745.410156 208.824219 744.746094 210.96875 742.957031 C 211.9375 742.285156 212.761719 741.394531 213.273438 740.371094 C 226.503906 723.765625 247.121094 711.839844 268.65625 712.058594 C 289.246094 712.269531 309.058594 724.179688 317.339844 743.234375 C 318.789063 746.566406 323.671875 747.324219 326.542969 745.644531 C 327.800781 744.910156 328.652344 743.929688 329.160156 742.816406 C 340.804688 725.894531 362.214844 714.4375 382.777344 714.527344 C 400.640625 714.605469 419.320313 724.722656 426.023438 741.921875 C 426.875 744.101563 428.507813 745.847656 430.566406 746.539063 C 433.996094 747.988281 438.394531 746.992188 439.449219 742.335938 C 444.480469 720.09375 465.910156 704.910156 487.578125 701.324219 C 508.007813 697.945313 531.164063 707.359375 539.039063 727.476563 C 539.066406 730.339844 541.390625 733.160156 544.066406 733.898438 C 547.863281 734.941406 551.03125 732.605469 552.339844 729.199219 C 558.914063 712.097656 574.480469 698.976563 592.261719 694.902344 C 611.273438 690.542969 631.777344 697.410156 645.113281 711.390625 C 646.601563 712.953125 648.613281 713.453125 650.539063 713.191406 C 651.117188 713.1875 651.699219 713.105469 652.277344 712.917969 C 655.652344 711.828125 658.097656 708.242188 656.976563 704.644531 "/>
<path style=" stroke:none;fill-rule:nonzero;fill:rgb(86.71875%,50.584412%,11.376953%);fill-opacity:1;" d="M 350.347656 593.269531 C 340.953125 593.457031 333.390625 601.269531 331.496094 610.089844 C 330.28125 615.738281 339.050781 617.632813 340.265625 611.988281 C 341.273438 607.289063 344.800781 602.933594 349.808594 602.289063 C 354.628906 601.667969 359.421875 605.453125 359.828125 610.273438 C 360.316406 616.015625 369.273438 615.539063 368.785156 609.773438 C 367.988281 600.410156 359.777344 593.082031 350.347656 593.269531 "/>
<path style=" stroke:none;fill-rule:nonzero;fill:rgb(86.71875%,50.584412%,11.376953%);fill-opacity:1;" d="M 423.375 608.402344 C 421.625 599.640625 413.3125 592.632813 404.285156 592.824219 C 395.289063 593.015625 387.179688 600.425781 386.269531 609.371094 C 385.691406 615.058594 394.457031 617.003906 395.039063 611.269531 C 395.546875 606.277344 399.429688 601.679688 404.785156 601.78125 C 410.128906 601.882813 413.890625 606.351563 414.875 611.265625 C 416 616.902344 424.496094 614.003906 423.375 608.402344 "/>
<path style=" stroke:none;fill-rule:nonzero;fill:rgb(86.71875%,50.584412%,11.376953%);fill-opacity:1;" d="M 376.144531 627.941406 C 367.503906 628.421875 368.238281 641.855469 376.894531 641.371094 C 385.539063 640.890625 384.804688 627.460938 376.144531 627.941406 "/>
<path style=" stroke:none;fill-rule:nonzero;fill:rgb(93.75%,61.521912%,29.417419%);fill-opacity:1;" d="M 668.761719 719.195313 C 668.046875 715.148438 665.328125 711.773438 661.882813 709.480469 C 661.40625 708.976563 660.894531 708.503906 660.339844 708.074219 C 659.960938 707.785156 659.566406 707.53125 659.160156 707.296875 C 656.980469 700.59375 654.800781 693.890625 652.617188 687.1875 C 646.972656 663.695313 639.320313 640.304688 627.925781 619.320313 C 615.921875 597.210938 598.984375 577.316406 580.789063 560.046875 C 563.550781 543.679688 544.285156 529.351563 523.6875 517.503906 C 483.746094 494.523438 438.699219 480.75 392.707031 477.9375 C 390.765625 470.589844 386.242188 464.203125 379.882813 459.550781 C 376.949219 457.402344 372.863281 459.066406 371.140625 461.957031 C 366.078125 466.472656 362.636719 472.3125 360.894531 478.726563 C 315.136719 481.632813 270.335938 495.382813 230.589844 518.25 C 209.992188 530.101563 190.722656 544.429688 173.488281 560.792969 C 155.292969 578.066406 138.355469 597.957031 126.347656 620.070313 C 111.855469 646.761719 103.402344 677.355469 97.453125 707.085938 C 96 707.28125 94.585938 707.734375 93.300781 708.464844 C 88.667969 711.09375 86.773438 716.871094 87.886719 721.890625 C 89.929688 731.132813 100.941406 737.25 109.507813 732.453125 C 116.515625 728.53125 117.671875 718.828125 113.253906 712.6875 C 113.234375 712.605469 113.222656 712.515625 113.199219 712.433594 C 112.695313 710.597656 111.539063 709.324219 110.074219 708.597656 C 115.144531 683.734375 122.042969 658.578125 132.742188 635.597656 C 143.179688 613.175781 158.863281 593.421875 176.191406 575.925781 C 208.011719 543.796875 247.589844 519.421875 290.511719 505.222656 C 302.300781 501.324219 314.320313 498.191406 326.484375 495.851563 C 303.167969 507.90625 281.71875 523.535156 263.164063 542.175781 C 247.53125 557.890625 234.039063 575.78125 222.949219 594.960938 C 211.292969 615.117188 201.964844 636.820313 198.722656 660.015625 C 195.320313 684.339844 197.363281 708.734375 200.1875 732.992188 C 199.597656 733.238281 199.007813 733.546875 198.417969 733.929688 C 197.566406 734.484375 196.820313 735.199219 196.160156 736.015625 C 194.882813 737.011719 193.726563 738.273438 192.769531 739.84375 C 185.339844 752.015625 197.785156 766.1875 210.777344 764.089844 C 218.710938 762.804688 221.515625 755.40625 221.660156 748.167969 C 221.71875 745.171875 220.914063 742.742188 219.535156 740.75 C 219.15625 739.390625 218.234375 738.136719 216.609375 737.242188 C 215.492188 736.628906 214.339844 735.964844 213.164063 735.328125 C 210.640625 714.179688 208.480469 692.855469 210.140625 671.566406 C 211.863281 649.421875 219.132813 628.699219 229.5625 609.203125 C 248.929688 572.996094 276.703125 541.867188 311.152344 519.414063 C 320.726563 513.175781 330.707031 507.632813 341.027344 502.8125 C 336.191406 508.382813 331.792969 514.367188 327.765625 520.589844 C 317.3125 536.746094 308.847656 554.339844 302.289063 572.421875 C 289.160156 608.632813 284.921875 648.089844 292.949219 685.9375 C 297.324219 706.566406 305.449219 726.484375 317.15625 744.042969 C 317.203125 744.113281 317.257813 744.175781 317.308594 744.246094 C 315.6875 747.117188 314.910156 750.460938 315.265625 753.828125 C 315.46875 755.738281 316.277344 757.503906 317.601563 758.683594 C 319.242188 762.117188 322.800781 764.71875 326.550781 765.507813 C 340.515625 768.4375 349.015625 751.308594 341.28125 740.527344 C 338.136719 736.140625 332.390625 735.144531 327.363281 736.457031 C 308.363281 707.363281 300.140625 672.539063 301.679688 637.964844 C 303.308594 601.375 315.734375 565.652344 334.253906 534.261719 C 343.679688 518.289063 355.261719 503.171875 371.023438 493.023438 C 375.191406 491.175781 379.554688 491.394531 383.8125 492.925781 C 384.050781 493.007813 384.285156 493.066406 384.515625 493.121094 C 399.632813 503.253906 410.851563 517.972656 420.023438 533.515625 C 438.542969 564.90625 450.96875 600.628906 452.597656 637.214844 C 454.128906 671.621094 445.996094 706.269531 427.195313 735.273438 C 425.285156 735.953125 423.464844 736.886719 421.863281 737.945313 C 416.316406 741.625 413.480469 748.128906 415.71875 754.609375 C 416.078125 755.648438 416.621094 756.484375 417.273438 757.136719 C 417.800781 758.40625 418.632813 759.617188 419.792969 760.703125 C 423.839844 764.484375 431.546875 764.75 436.550781 763.011719 C 446.496094 759.558594 449.148438 743.644531 441.148438 736.917969 C 450.707031 720.976563 457.472656 703.359375 461.328125 685.191406 C 469.355469 647.34375 465.117188 607.886719 451.988281 571.675781 C 445.429688 553.59375 436.964844 536 426.507813 519.839844 C 422.484375 513.617188 418.085938 507.636719 413.25 502.0625 C 423.570313 506.882813 433.550781 512.425781 443.121094 518.667969 C 477.574219 541.117188 505.347656 572.25 524.714844 608.457031 C 535.144531 627.953125 542.410156 648.671875 544.136719 670.820313 C 545.621094 689.882813 544.046875 708.976563 541.886719 727.945313 C 539.738281 728.382813 537.671875 729.144531 536.015625 730.078125 C 529.191406 733.90625 523.816406 743.816406 528.113281 750.835938 C 528.59375 752.320313 529.464844 753.609375 530.597656 754.6875 C 532.523438 758.011719 535.457031 760.496094 539.695313 761.710938 C 545.695313 763.425781 553.179688 763.070313 557.617188 758.210938 C 561.519531 753.9375 562.085938 747.171875 560.289063 741.773438 C 560.121094 740.605469 559.835938 739.4375 559.398438 738.292969 C 558.367188 735.609375 556.503906 733.042969 554.226563 731.0625 C 556.976563 707.191406 558.902344 683.195313 555.554688 659.265625 C 552.3125 636.074219 542.984375 614.371094 531.328125 594.214844 C 520.234375 575.03125 506.746094 557.144531 491.109375 541.429688 C 472.558594 522.785156 451.105469 507.160156 427.789063 495.105469 C 439.957031 497.441406 451.972656 500.578125 463.765625 504.476563 C 506.6875 518.671875 546.265625 543.050781 578.085938 575.175781 C 595.414063 592.671875 611.097656 612.429688 621.535156 634.847656 C 632.183594 657.722656 639.066406 682.753906 644.128906 707.507813 C 636.015625 711.4375 632.195313 720.199219 633.789063 729.191406 C 634.066406 730.761719 635.105469 732.007813 636.449219 732.8125 C 636.816406 733.390625 637.238281 733.949219 637.730469 734.484375 C 640.488281 737.464844 644.714844 739.113281 648.773438 739.078125 C 653.007813 739.835938 657.460938 739.375 661.007813 737.378906 C 666.863281 734.078125 669.902344 725.632813 668.761719 719.195313 "/>
<path style=" stroke:none;fill-rule:nonzero;fill:rgb(89.84375%,74.021912%,78.90625%);fill-opacity:1;" d="M 436.773438 625.351563 C 431.054688 622.507813 423.21875 621.71875 416.722656 624.261719 C 411.84375 626.171875 412.304688 629.628906 415.199219 631.671875 C 416.171875 632.910156 417.882813 633.933594 420.214844 634.191406 C 425.550781 634.789063 430.398438 634.460938 435.132813 632.828125 C 439.335938 631.378906 440.824219 627.367188 436.773438 625.351563 "/>
<path style=" stroke:none;fill-rule:nonzero;fill:rgb(89.84375%,74.021912%,78.90625%);fill-opacity:1;" d="M 339.582031 625.351563 C 333.863281 622.507813 326.027344 621.71875 319.53125 624.261719 C 314.652344 626.171875 315.113281 629.628906 318.007813 631.671875 C 318.980469 632.910156 320.691406 633.933594 323.023438 634.191406 C 328.355469 634.789063 333.207031 634.460938 337.941406 632.828125 C 342.144531 631.378906 343.632813 627.367188 339.582031 625.351563 "/>
<path style=" stroke:none;fill-rule:nonzero;fill:rgb(86.71875%,50.584412%,11.376953%);fill-opacity:1;" d="M 211.808594 86.699219 C 211.808594 79.730469 214.597656 73.859375 220.167969 69.089844 C 225.738281 64.308594 232.585938 61.921875 240.714844 61.921875 C 248.839844 61.921875 255.6875 64.308594 261.261719 69.089844 C 266.832031 73.859375 269.617188 79.730469 269.617188 86.699219 L 269.617188 198.03125 C 269.617188 211.761719 267.0625 224.050781 261.957031 234.890625 C 256.847656 245.738281 249.820313 254.839844 240.886719 262.199219 C 231.945313 269.558594 221.5 275.179688 209.546875 279.058594 C 197.585938 282.941406 184.875 284.878906 171.410156 284.878906 C 157.710938 284.878906 144.886719 282.941406 132.929688 279.058594 C 120.972656 275.179688 110.519531 269.558594 101.585938 262.199219 C 92.644531 254.839844 85.621094 245.738281 80.519531 234.890625 C 75.410156 224.050781 72.855469 211.761719 72.855469 198.03125 L 72.855469 86.699219 C 72.855469 79.730469 75.640625 73.859375 81.214844 69.089844 C 86.785156 64.308594 93.632813 61.921875 101.761719 61.921875 C 109.886719 61.921875 116.738281 64.308594 122.308594 69.089844 C 127.882813 73.859375 130.664063 79.730469 130.664063 86.699219 L 130.664063 206.089844 C 130.664063 211.460938 131.710938 216.429688 133.800781 221.011719 C 135.890625 225.589844 138.789063 229.621094 142.507813 233.101563 C 146.21875 236.578125 150.570313 239.320313 155.566406 241.308594 C 160.554688 243.300781 165.839844 244.289063 171.410156 244.289063 C 176.984375 244.289063 182.210938 243.300781 187.082031 241.308594 C 191.957031 239.320313 196.253906 236.578125 199.96875 233.101563 C 203.679688 229.621094 206.585938 225.589844 208.675781 221.011719 C 210.765625 216.429688 211.808594 211.460938 211.808594 206.089844 "/>
<path style=" stroke:none;fill-rule:nonzero;fill:rgb(93.75%,61.521912%,29.417419%);fill-opacity:1;" d="M 141.164063 1154.890625 C 141.164063 1151.515625 142.515625 1148.671875 145.214844 1146.359375 C 147.914063 1144.046875 151.230469 1142.890625 155.164063 1142.890625 C 159.101563 1142.890625 162.421875 1144.046875 165.117188 1146.359375 C 167.816406 1148.671875 169.167969 1151.515625 169.167969 1154.890625 L 169.167969 1208.820313 C 169.167969 1215.46875 167.929688 1221.421875 165.457031 1226.671875 C 162.980469 1231.929688 159.578125 1236.335938 155.25 1239.902344 C 150.917969 1243.46875 145.859375 1246.191406 140.066406 1248.070313 C 134.273438 1249.949219 128.117188 1250.890625 121.597656 1250.890625 C 114.960938 1250.890625 108.746094 1249.949219 102.953125 1248.070313 C 97.164063 1246.191406 92.101563 1243.46875 87.773438 1239.902344 C 83.441406 1236.335938 80.039063 1231.929688 77.566406 1226.671875 C 75.09375 1221.421875 73.855469 1215.46875 73.855469 1208.820313 L 73.855469 1154.890625 C 73.855469 1151.515625 75.207031 1148.671875 77.90625 1146.359375 C 80.601563 1144.046875 83.917969 1142.890625 87.855469 1142.890625 C 91.792969 1142.890625 95.113281 1144.046875 97.808594 1146.359375 C 100.511719 1148.671875 101.859375 1151.515625 101.859375 1154.890625 L 101.859375 1212.722656 C 101.859375 1215.324219 102.367188 1217.734375 103.378906 1219.949219 C 104.390625 1222.167969 105.792969 1224.121094 107.59375 1225.804688 C 109.394531 1227.492188 111.5 1228.820313 113.921875 1229.78125 C 116.335938 1230.746094 118.894531 1231.226563 121.597656 1231.226563 C 124.296875 1231.226563 126.824219 1230.746094 129.1875 1229.78125 C 131.546875 1228.820313 133.628906 1227.492188 135.429688 1225.804688 C 137.226563 1224.121094 138.632813 1222.167969 139.644531 1219.949219 C 140.660156 1217.734375 141.164063 1215.324219 141.164063 1212.722656 "/>
<path style=" stroke:none;fill-rule:nonzero;fill:rgb(93.75%,61.521912%,29.417419%);fill-opacity:1;" d="M 337.707031 1211.558594 C 337.707031 1214.746094 338.046875 1217.71875 338.722656 1220.472656 C 339.398438 1223.226563 340.339844 1225.621094 341.550781 1227.648438 C 342.757813 1229.679688 344.160156 1231.273438 345.753906 1232.433594 C 347.347656 1233.59375 349.0625 1234.171875 350.898438 1234.171875 C 352.640625 1234.171875 354.304688 1233.59375 355.902344 1232.433594 C 357.496094 1231.273438 358.871094 1229.679688 360.03125 1227.648438 C 361.191406 1225.621094 362.109375 1223.226563 362.785156 1220.472656 C 363.460938 1217.71875 363.800781 1214.746094 363.800781 1211.558594 C 363.800781 1208.371094 363.460938 1205.398438 362.785156 1202.644531 C 362.109375 1199.890625 361.191406 1197.519531 360.03125 1195.539063 C 358.871094 1193.558594 357.496094 1191.988281 355.902344 1190.828125 C 354.304688 1189.671875 352.640625 1189.089844 350.898438 1189.089844 C 349.0625 1189.089844 347.347656 1189.671875 345.753906 1190.828125 C 344.160156 1191.988281 342.757813 1193.558594 341.550781 1195.539063 C 340.339844 1197.519531 339.398438 1199.890625 338.722656 1202.644531 C 338.046875 1205.398438 337.707031 1208.371094 337.707031 1211.558594 M 326.402344 1142.703125 C 329.492188 1142.703125 332.175781 1143.839844 334.445313 1146.109375 C 336.714844 1148.378906 337.855469 1151.109375 337.855469 1154.296875 L 337.855469 1176.402344 C 337.855469 1178.300781 340.195313 1179.191406 341.464844 1177.777344 C 342.867188 1176.21875 345.449219 1174.367188 347.003906 1173.753906 C 349.949219 1172.597656 351.960938 1172.417969 355.25 1172.417969 C 359.597656 1172.417969 363.632813 1173.433594 367.351563 1175.460938 C 371.070313 1177.492188 374.332031 1180.269531 377.136719 1183.796875 C 379.941406 1187.328125 382.140625 1191.480469 383.734375 1196.265625 C 385.328125 1201.046875 386.125 1206.195313 386.125 1211.703125 C 386.125 1217.210938 385.328125 1222.355469 383.734375 1227.140625 C 382.140625 1231.925781 379.964844 1236.082031 377.210938 1239.609375 C 374.457031 1243.136719 371.195313 1245.914063 367.425781 1247.945313 C 363.65625 1249.972656 359.644531 1250.988281 355.394531 1250.988281 C 351.71875 1250.988281 348.21875 1250.164063 344.882813 1248.523438 C 343.285156 1247.734375 341.78125 1246.171875 340.371094 1244.386719 C 338.78125 1242.371094 335.554688 1242.753906 334.570313 1245.121094 C 334.070313 1246.332031 333.449219 1247.398438 332.707031 1248.085938 C 330.628906 1250.019531 328.1875 1250.988281 325.386719 1250.988281 C 322.488281 1250.988281 319.996094 1249.949219 317.921875 1247.871094 C 315.84375 1245.792969 314.804688 1243.304688 314.804688 1240.40625 L 314.804688 1154.296875 C 314.804688 1151.109375 315.9375 1148.378906 318.210938 1146.109375 C 320.480469 1143.839844 323.210938 1142.703125 326.402344 1142.703125 "/>
<path style=" stroke:none;fill-rule:nonzero;fill:rgb(93.75%,61.521912%,29.417419%);fill-opacity:1;" d="M 492.738281 1207.351563 C 496.046875 1207.351563 498.464844 1204.046875 497.273438 1200.960938 C 497.269531 1200.941406 497.261719 1200.921875 497.253906 1200.902344 C 496.476563 1198.921875 495.488281 1197.203125 494.28125 1195.753906 C 493.070313 1194.308594 491.695313 1193.171875 490.148438 1192.347656 C 488.601563 1191.53125 486.960938 1191.117188 485.222656 1191.117188 C 483.480469 1191.117188 481.839844 1191.53125 480.292969 1192.347656 C 478.746094 1193.171875 477.367188 1194.308594 476.160156 1195.753906 C 474.949219 1197.203125 474.007813 1198.921875 473.335938 1200.902344 C 473.304688 1200.984375 473.277344 1201.066406 473.25 1201.152344 C 472.253906 1204.21875 474.632813 1207.351563 477.855469 1207.351563 Z M 502.324219 1228.660156 C 504.742188 1228.660156 506.84375 1229.582031 508.632813 1231.414063 C 510.417969 1233.253906 511.3125 1235.425781 511.3125 1237.941406 C 511.3125 1239.292969 510.902344 1240.695313 510.082031 1242.144531 C 509.257813 1243.589844 507.738281 1244.996094 505.515625 1246.347656 C 503.097656 1247.894531 500.175781 1249.148438 496.746094 1250.117188 C 493.3125 1251.082031 489.761719 1251.566406 486.089844 1251.566406 C 481.449219 1251.566406 476.957031 1250.695313 472.609375 1248.957031 C 468.261719 1247.214844 464.394531 1244.679688 461.011719 1241.34375 C 457.628906 1238.011719 454.925781 1233.929688 452.894531 1229.097656 C 450.863281 1224.265625 449.851563 1218.757813 449.851563 1212.570313 C 449.851563 1206.675781 450.792969 1201.3125 452.675781 1196.480469 C 454.5625 1191.648438 457.097656 1187.519531 460.289063 1184.085938 C 463.476563 1180.65625 467.21875 1178.023438 471.519531 1176.1875 C 475.820313 1174.351563 480.386719 1173.433594 485.222656 1173.433594 C 490.535156 1173.433594 495.414063 1174.519531 499.863281 1176.691406 C 504.304688 1178.867188 508.074219 1181.671875 511.167969 1185.101563 C 514.257813 1188.535156 516.675781 1192.347656 518.414063 1196.550781 C 520.15625 1200.757813 521.023438 1204.890625 521.023438 1208.949219 C 521.023438 1213.296875 520.15625 1216.460938 518.414063 1218.441406 C 516.675781 1220.421875 514.550781 1221.414063 512.039063 1221.414063 L 477.675781 1221.414063 C 473.847656 1221.414063 472.769531 1225.664063 475.222656 1228.597656 C 477.15625 1230.90625 480.777344 1233.878906 486.382813 1233.878906 C 488.214844 1233.878906 490.050781 1233.566406 491.890625 1232.9375 C 493.722656 1232.308594 495.367188 1231.511719 496.816406 1230.546875 C 498.75 1229.289063 500.589844 1228.660156 502.324219 1228.660156 "/>
<path style=" stroke:none;fill-rule:nonzero;fill:rgb(93.75%,61.521912%,29.417419%);fill-opacity:1;" d="M 578.210938 1252.039063 C 575.023438 1252.039063 572.316406 1250.929688 570.09375 1248.707031 C 567.871094 1246.484375 566.761719 1243.777344 566.761719 1240.589844 L 566.761719 1155.207031 C 566.761719 1152.019531 567.871094 1149.3125 570.09375 1147.089844 C 572.316406 1144.867188 575.023438 1143.757813 578.210938 1143.757813 C 581.402344 1143.757813 584.105469 1144.867188 586.328125 1147.089844 C 588.554688 1149.3125 589.664063 1152.019531 589.664063 1155.207031 L 589.664063 1240.589844 C 589.664063 1243.777344 588.554688 1246.484375 586.328125 1248.707031 C 584.105469 1250.929688 581.402344 1252.039063 578.210938 1252.039063 "/>
<path style=" stroke:none;fill-rule:nonzero;fill:rgb(93.75%,61.521912%,29.417419%);fill-opacity:1;" d="M 543.820313 1251.554688 C 540.632813 1251.554688 537.925781 1250.445313 535.703125 1248.222656 C 533.476563 1246 532.367188 1243.292969 532.367188 1240.101563 L 532.367188 1154.722656 C 532.367188 1151.535156 533.476563 1148.828125 535.703125 1146.605469 C 537.925781 1144.382813 540.632813 1143.273438 543.820313 1143.273438 C 547.007813 1143.273438 549.714844 1144.382813 551.9375 1146.605469 C 554.160156 1148.828125 555.273438 1151.535156 555.273438 1154.722656 L 555.273438 1240.101563 C 555.273438 1243.292969 554.160156 1246 551.9375 1248.222656 C 549.714844 1250.445313 547.007813 1251.554688 543.820313 1251.554688 "/>
<path style=" stroke:none;fill-rule:nonzero;fill:rgb(93.75%,61.521912%,29.417419%);fill-opacity:1;" d="M 253.375 1239.742188 C 253.375 1242.933594 252.265625 1245.640625 250.042969 1247.863281 C 247.816406 1250.085938 245.113281 1251.195313 241.925781 1251.195313 C 238.734375 1251.195313 236.027344 1250.085938 233.808594 1247.863281 C 231.582031 1245.640625 230.472656 1242.933594 230.472656 1239.742188 L 230.472656 1204.375 C 230.472656 1199.734375 229.554688 1196.328125 227.71875 1194.15625 C 225.882813 1191.980469 223.417969 1190.894531 220.324219 1190.894531 C 218.390625 1190.894531 216.628906 1191.304688 215.035156 1192.125 C 213.4375 1192.949219 212.0625 1194.058594 210.902344 1195.460938 C 209.742188 1196.863281 208.847656 1198.480469 208.222656 1200.316406 C 207.589844 1202.152344 207.277344 1204.132813 207.277344 1206.257813 L 207.277344 1239.742188 C 207.277344 1242.839844 206.140625 1245.519531 203.871094 1247.789063 C 201.601563 1250.058594 198.917969 1251.195313 195.828125 1251.195313 C 192.636719 1251.195313 189.90625 1250.058594 187.636719 1247.789063 C 185.363281 1245.519531 184.230469 1242.839844 184.230469 1239.742188 L 184.230469 1183.789063 C 184.230469 1180.796875 185.269531 1178.257813 187.347656 1176.179688 C 189.425781 1174.101563 191.960938 1173.0625 194.957031 1173.0625 C 197.757813 1173.0625 200.199219 1174.03125 202.277344 1175.960938 C 203.304688 1176.917969 204.101563 1177.992188 204.667969 1179.183594 C 205.433594 1180.789063 207.5625 1181.101563 208.90625 1179.933594 C 210.695313 1178.382813 212.691406 1177.03125 214.890625 1175.890625 C 218.515625 1174.007813 222.5 1173.0625 226.847656 1173.0625 C 231.488281 1173.0625 235.765625 1174.199219 239.675781 1176.46875 C 242.578125 1178.152344 245.042969 1180.222656 247.066406 1182.675781 C 248.097656 1183.921875 250.042969 1183.96875 251.121094 1182.761719 C 253.351563 1180.269531 255.984375 1178.175781 259.03125 1176.46875 C 263.089844 1174.199219 267.53125 1173.0625 272.367188 1173.0625 C 276.136719 1173.0625 279.660156 1173.789063 282.949219 1175.238281 C 286.234375 1176.6875 289.109375 1178.644531 291.574219 1181.109375 C 294.035156 1183.574219 295.96875 1186.449219 297.371094 1189.734375 C 298.769531 1193.019531 299.472656 1196.546875 299.472656 1200.316406 L 299.472656 1239.742188 C 299.472656 1242.933594 298.359375 1245.640625 296.140625 1247.863281 C 293.914063 1250.085938 291.210938 1251.195313 288.023438 1251.195313 C 284.832031 1251.195313 282.125 1250.085938 279.902344 1247.863281 C 277.679688 1245.640625 276.570313 1242.933594 276.570313 1239.742188 L 276.570313 1204.375 C 276.570313 1200.027344 275.628906 1196.691406 273.742188 1194.371094 C 271.859375 1192.054688 269.371094 1190.894531 266.277344 1190.894531 C 264.441406 1190.894531 262.726563 1191.304688 261.132813 1192.125 C 259.539063 1192.949219 258.160156 1194.058594 257 1195.460938 C 255.839844 1196.863281 254.945313 1198.480469 254.320313 1200.316406 C 253.6875 1202.152344 253.375 1204.132813 253.375 1206.257813 "/>
<path style=" stroke:none;fill-rule:nonzero;fill:rgb(93.75%,61.521912%,29.417419%);fill-opacity:1;" d="M 419.621094 1180.386719 C 420.054688 1181.8125 421.828125 1181.871094 422.617188 1180.609375 C 423.820313 1178.683594 425.417969 1177.289063 426.675781 1176.273438 C 427.929688 1175.257813 429.234375 1174.441406 430.589844 1173.808594 C 431.941406 1173.183594 433.390625 1172.867188 434.9375 1172.867188 C 437.546875 1172.867188 439.84375 1173.785156 441.824219 1175.621094 C 443.804688 1177.457031 444.796875 1179.777344 444.796875 1182.578125 C 444.796875 1184.898438 444.046875 1187.097656 442.546875 1189.175781 C 441.050781 1191.253906 438.800781 1192.292969 435.808594 1192.292969 C 433.585938 1192.292969 431.625 1192.945313 429.9375 1194.246094 C 428.242188 1195.554688 426.820313 1197.292969 425.660156 1199.46875 C 424.5 1201.640625 423.632813 1204.105469 423.050781 1206.859375 C 422.472656 1209.613281 422.183594 1212.441406 422.183594 1215.339844 L 422.183594 1239.546875 C 422.183594 1242.644531 421.042969 1245.324219 418.773438 1247.59375 C 416.503906 1249.863281 413.820313 1251 410.730469 1251 C 407.539063 1251 404.808594 1249.863281 402.539063 1247.59375 C 400.269531 1245.324219 399.132813 1242.644531 399.132813 1239.546875 L 399.132813 1183.59375 C 399.132813 1180.601563 400.171875 1178.0625 402.25 1175.984375 C 404.324219 1173.90625 406.863281 1172.867188 409.859375 1172.867188 C 412.660156 1172.867188 415.101563 1173.835938 417.179688 1175.765625 C 418.238281 1176.753906 419.054688 1178.515625 419.621094 1180.386719 "/>
<path style=" stroke:none;fill-rule:nonzero;fill:rgb(86.71875%,50.584412%,11.376953%);fill-opacity:1;" d="M 382.785156 146.648438 C 382.785156 140.058594 385.078125 134.480469 389.667969 129.890625 C 394.257813 125.300781 399.84375 123 406.425781 123 C 413.011719 123 418.597656 125.300781 423.183594 129.890625 C 427.773438 134.480469 430.066406 140.058594 430.066406 146.648438 L 430.066406 262.460938 C 430.066406 268.441406 427.921875 273.578125 423.632813 277.871094 C 419.34375 282.160156 414.105469 284.300781 407.925781 284.300781 C 402.136719 284.300781 397.300781 282.410156 393.410156 278.621094 C 391.949219 277.199219 390.710938 275.589844 389.683594 273.808594 C 387.382813 269.789063 382.15625 268.511719 378.609375 271.480469 C 375.820313 273.820313 372.675781 276 369.171875 278.019531 C 361.886719 282.210938 353.757813 284.300781 344.78125 284.300781 C 338.210938 284.300781 331.746094 282.988281 325.710938 280.398438 C 318.910156 277.480469 313.003906 273.339844 307.972656 267.988281 C 303.183594 262.910156 299.339844 257.019531 296.449219 250.339844 C 293.554688 243.660156 292.109375 236.421875 292.109375 228.640625 L 292.109375 146.941406 C 292.109375 140.359375 294.453125 134.730469 299.144531 130.039063 C 303.828125 125.351563 309.46875 123 316.054688 123 C 322.433594 123 327.96875 125.351563 332.660156 130.039063 C 337.347656 134.730469 339.691406 140.359375 339.691406 146.941406 L 339.691406 220.261719 C 339.691406 227.699219 341.320313 234.078125 344.589844 239.410156 C 347.699219 244.480469 353.285156 247.738281 359.234375 247.789063 C 366.109375 247.851563 371.765625 245.011719 376.203125 239.261719 C 380.589844 233.578125 382.785156 226.550781 382.785156 218.171875 "/>
<path style=" stroke:none;fill-rule:nonzero;fill:rgb(93.75%,61.521912%,29.417419%);fill-opacity:1;" d="M 665.546875 1179.148438 C 668.746094 1179.148438 671.507813 1180.339844 673.824219 1182.714844 C 675.898438 1184.835938 677 1187.726563 677 1190.691406 L 677 1239.886719 C 677 1242.980469 675.890625 1245.636719 673.664063 1247.859375 C 671.441406 1250.085938 668.785156 1251.195313 665.695313 1251.195313 C 663.855469 1251.195313 659.769531 1250.183594 658.039063 1247.210938 C 656.5 1244.5625 652.953125 1244.011719 650.78125 1246.175781 C 649.351563 1247.597656 647.800781 1248.886719 646.121094 1249.382813 C 642.355469 1250.496094 638.972656 1251.046875 635.976563 1251.046875 C 626.023438 1251.046875 618.765625 1247.523438 611.714844 1240.46875 C 604.65625 1233.414063 601.132813 1224.910156 601.132813 1214.953125 C 601.132813 1205.003906 604.65625 1196.523438 611.714844 1189.511719 C 618.765625 1182.507813 626.023438 1179.003906 635.976563 1179.003906 C 638.972656 1179.003906 642.378906 1179.5625 646.195313 1180.671875 C 647.921875 1181.171875 649.511719 1182.238281 650.96875 1183.410156 C 653.289063 1185.269531 656.640625 1184.738281 658.367188 1182.316406 C 660.238281 1179.695313 663.710938 1179.148438 665.546875 1179.148438 "/>
<path style=" stroke:none;fill-rule:nonzero;fill:rgb(100%,100%,100%);fill-opacity:1;" d="M 622.839844 1215.027344 C 622.839844 1217.925781 623.179688 1220.585938 623.855469 1223 C 624.527344 1225.417969 625.449219 1227.542969 626.609375 1229.378906 C 627.769531 1231.214844 629.144531 1232.640625 630.738281 1233.652344 C 632.335938 1234.667969 634.050781 1235.175781 635.886719 1235.175781 C 637.722656 1235.175781 639.4375 1234.667969 641.03125 1233.652344 C 642.628906 1232.640625 644.003906 1231.214844 645.164063 1229.378906 C 646.324219 1227.542969 647.242188 1225.417969 647.917969 1223 C 648.59375 1220.585938 648.933594 1217.925781 648.933594 1215.027344 C 648.933594 1212.128906 648.59375 1209.46875 647.917969 1207.054688 C 647.242188 1204.640625 646.324219 1202.539063 645.164063 1200.75 C 644.003906 1198.960938 642.628906 1197.558594 641.03125 1196.546875 C 639.4375 1195.53125 637.722656 1195.023438 635.886719 1195.023438 C 634.050781 1195.023438 632.335938 1195.53125 630.738281 1196.546875 C 629.144531 1197.558594 627.769531 1198.960938 626.609375 1200.75 C 625.449219 1202.539063 624.527344 1204.640625 623.855469 1207.054688 C 623.179688 1209.46875 622.839844 1212.128906 622.839844 1215.027344 "/>
</g>
</svg>
