<?xml version="1.0" encoding="UTF-8"?>
<svg xmlns="http://www.w3.org/2000/svg" xmlns:xlink="http://www.w3.org/1999/xlink" width="750pt" height="1334pt" viewBox="0 0 750 1334" version="1.1">
<g id="surface1">
<path style=" stroke:none;fill-rule:nonzero;fill:rgb(43.920898%,28.637695%,14.892578%);fill-opacity:1;" d="M 340.828125 772.457031 C 346.414063 759.589844 352.910156 750.71875 367.636719 750.410156 C 369.601563 751.835938 371.808594 750.246094 370.875 747.90625 C 365.527344 734.5625 360.007813 721.570313 367.394531 707.507813 C 372.9375 696.957031 380.179688 691.1875 391.035156 684.632813 C 411.753906 672.125 434.023438 663.832031 452.6875 683.445313 C 452.726563 683.484375 452.8125 683.515625 452.84375 683.558594 C 454.035156 685.425781 457.074219 685.332031 456.976563 682.507813 C 456.074219 656.476563 487.144531 651.910156 504.488281 643.988281 C 521.835938 636.0625 532.96875 629.605469 540.570313 612.777344 C 555.910156 578.816406 542.769531 548.5 514.929688 526.90625 C 514.472656 526.554688 513.878906 526.476563 513.878906 526.476563 C 510.109375 525.050781 506.886719 525.214844 506.101563 525.214844 C 499.511719 525.207031 491.242188 513.417969 488.878906 510.046875 C 485.644531 505.433594 483.980469 503.0625 482.996094 499.21875 C 482.320313 496.574219 482.226563 494.269531 480.449219 484.050781 C 480.351563 483.515625 480.289063 483.050781 480.261719 482.988281 C 465.699219 450.859375 439.167969 431.074219 402.488281 437.953125 C 384.316406 441.359375 375.351563 450.527344 363.496094 465.546875 C 351.648438 480.5625 339.855469 509.621094 314.746094 502.648438 C 312.019531 501.890625 311.195313 504.820313 312.746094 506.417969 C 312.78125 506.457031 312.785156 506.550781 312.816406 506.597656 C 327.492188 529.140625 314.425781 549.304688 297.386719 566.449219 C 288.460938 575.433594 281.441406 581.875 269.753906 584.601563 C 254.164063 588.246094 243.101563 580.394531 231.089844 572.148438 C 228.984375 570.703125 226.960938 572.441406 227.867188 574.707031 C 226.757813 579.859375 224.816406 584.804688 220.4375 587.9375 C 217.53125 590.023438 214.078125 590.222656 211.027344 591.722656 C 210.113281 592.167969 208.992188 592.261719 208.125 592.660156 C 203.242188 594.917969 196.851563 596.644531 192.035156 597.675781 C 187.222656 598.707031 182.984375 598.9375 178.792969 599.945313 C 168.449219 602.429688 157.796875 601.890625 148.496094 607.605469 C 127.460938 620.539063 111.148438 632.433594 108.589844 660.359375 C 103.804688 712.59375 136.496094 765.484375 171.46875 800.65625 C 206.433594 835.824219 242.691406 854.253906 289.285156 836.496094 C 320.179688 824.722656 329.96875 799.746094 340.828125 772.457031 "/>
<path style=" stroke:none;fill-rule:nonzero;fill:rgb(29.80957%,17.651367%,6.665039%);fill-opacity:1;" d="M 598.007813 449.621094 C 603.382813 457.3125 613.019531 463.429688 622.4375 455.671875 C 626.578125 452.261719 629.882813 447.933594 628.878906 443.015625 C 628.367188 440.527344 626.78125 438.609375 625.398438 436.628906 C 623.496094 433.917969 620.699219 431.203125 623.367188 426.90625 C 628.550781 423.03125 634.761719 420.324219 637.871094 414.441406 C 640.304688 409.839844 640.644531 404.441406 638.441406 400.367188 C 636.332031 396.476563 632.0625 394.089844 627.3125 393.820313 C 621.265625 393.480469 616.085938 396.988281 611.199219 400.78125 C 611.085938 400.867188 611.035156 400.96875 610.945313 401.058594 C 606.613281 404.695313 603.3125 404.488281 600.269531 402.953125 C 597.148438 398.835938 593.15625 395.78125 588.070313 395.621094 C 584.234375 394.605469 579.488281 394.847656 575.839844 397.546875 C 572.113281 400.304688 571.558594 404.195313 572.097656 407.929688 C 572.476563 410.546875 573.488281 412.988281 574.960938 415.078125 C 576.753906 417.621094 578.066406 417.132813 576.960938 420.839844 C 576.414063 422.683594 575.546875 423.765625 574.425781 424.765625 C 503.0625 473.042969 432.296875 522.871094 358.359375 566.847656 C 357.441406 567.394531 357.046875 568.25 357.035156 569.035156 C 356.96875 569.367188 356.960938 569.71875 357.113281 570.09375 C 361.847656 581.632813 367.664063 592.605469 375.40625 601.941406 C 382.585938 611.71875 391.824219 620.023438 401.871094 627.414063 C 402.195313 627.652344 402.539063 627.730469 402.878906 627.742188 C 403.640625 627.925781 404.566406 627.75 405.320313 626.988281 C 466.683594 565.144531 533.085938 507.910156 598.007813 449.621094 "/>
<path style=" stroke:none;fill-rule:nonzero;fill:rgb(29.80957%,17.651367%,6.665039%);fill-opacity:1;" d="M 273.523438 769.417969 C 271.394531 767.59375 268.871094 770.851563 270.59375 772.804688 C 272.566406 774.066406 273.835938 776.292969 273.054688 778.6875 C 272.234375 781.214844 269.554688 782.449219 267.070313 781.488281 C 265.476563 780.867188 264.164063 779.574219 263.25 778.046875 C 262.296875 776.765625 261.746094 775.242188 261.671875 773.523438 C 261.28125 772.9375 261.335938 772.070313 261.894531 770.871094 C 262.382813 768.5625 263.519531 766.292969 265.089844 764.578125 C 265.363281 764.1875 265.582031 763.765625 265.902344 763.398438 C 268.355469 759.730469 271.960938 756.789063 275.460938 754.125 C 281.851563 749.265625 289.3125 745.855469 296.882813 743.28125 C 305.484375 740.355469 316.835938 739.691406 323.371094 732.46875 C 333.382813 721.40625 322.980469 708.695313 309.992188 713.757813 C 307.902344 714.570313 308.441406 717.195313 310.023438 717.925781 C 313.464844 716.707031 317.566406 716.882813 320.121094 719.371094 C 321.0625 720 321.796875 720.949219 322.164063 722.351563 C 322.410156 723.292969 322.351563 724.226563 322.171875 725.136719 C 322.160156 725.195313 322.144531 725.257813 322.132813 725.316406 C 322.035156 725.75 321.914063 726.171875 321.734375 726.585938 C 321.605469 726.921875 321.441406 727.242188 321.265625 727.5625 C 321.179688 727.710938 321.097656 727.855469 321.003906 728.003906 C 320.6875 728.496094 320.335938 728.957031 319.9375 729.398438 C 319.929688 729.402344 319.925781 729.410156 319.921875 729.414063 C 319.476563 729.902344 318.996094 730.351563 318.472656 730.761719 C 318.453125 730.777344 318.429688 730.792969 318.410156 730.808594 C 318.171875 730.992188 317.917969 731.144531 317.671875 731.308594 C 316.664063 732.503906 314.980469 733.460938 312.4375 734.105469 C 309.539063 735.0625 306.601563 735.886719 303.632813 736.582031 C 300.777344 737.363281 297.941406 738.121094 295.132813 739.074219 C 287.175781 741.777344 279.390625 745.453125 272.660156 750.535156 C 264.578125 756.640625 253.976563 767.328125 257.257813 778.625 C 262.613281 797.035156 288.589844 782.355469 273.523438 769.417969 "/>
<path style=" stroke:none;fill-rule:nonzero;fill:rgb(29.80957%,17.651367%,6.665039%);fill-opacity:1;" d="M 190.179688 658.023438 C 191.433594 660.527344 187.664063 662.1875 186.1875 660.042969 C 185.441406 657.820313 183.589844 656.054688 181.078125 656.230469 C 178.425781 656.414063 176.578125 658.714844 176.910156 661.355469 C 177.121094 663.054688 178.058594 664.640625 179.320313 665.898438 C 180.332031 667.132813 181.675781 668.039063 183.324219 668.523438 C 183.800781 669.046875 184.652344 669.207031 185.953125 668.953125 C 188.3125 669.035156 190.789063 668.484375 192.832031 667.378906 C 193.277344 667.203125 193.742188 667.101563 194.171875 666.875 C 198.324219 665.386719 202.054688 662.601563 205.488281 659.851563 C 211.753906 654.828125 216.867188 648.417969 221.203125 641.699219 C 226.128906 634.0625 229.523438 623.210938 238.117188 618.621094 C 251.273438 611.589844 261.085938 624.761719 253.027344 636.136719 C 251.730469 637.964844 249.3125 636.808594 248.988281 635.097656 C 251.003906 632.054688 251.828125 628.03125 250.03125 624.949219 C 249.652344 623.882813 248.910156 622.9375 247.636719 622.246094 C 246.78125 621.777344 245.867188 621.609375 244.9375 621.5625 C 244.875 621.558594 244.8125 621.558594 244.753906 621.554688 C 244.308594 621.546875 243.871094 621.5625 243.425781 621.632813 C 243.070313 621.679688 242.71875 621.757813 242.367188 621.855469 C 242.199219 621.902344 242.035156 621.945313 241.871094 622.003906 C 241.320313 622.1875 240.785156 622.414063 240.261719 622.699219 C 240.253906 622.703125 240.246094 622.703125 240.238281 622.710938 C 239.660156 623.023438 239.109375 623.378906 238.585938 623.789063 C 238.5625 623.804688 238.542969 623.820313 238.519531 623.835938 C 238.285156 624.023438 238.078125 624.230469 237.859375 624.429688 C 236.453125 625.121094 235.117188 626.519531 233.871094 628.832031 C 232.246094 631.414063 230.734375 634.0625 229.339844 636.773438 C 227.886719 639.355469 226.464844 641.921875 224.859375 644.414063 C 220.308594 651.476563 214.855469 658.144531 208.289063 663.4375 C 200.410156 669.796875 187.46875 677.492188 177.308594 671.570313 C 160.742188 661.910156 181.285156 640.269531 190.179688 658.023438 "/>
<path style=" stroke:none;fill-rule:nonzero;fill:rgb(29.80957%,17.651367%,6.665039%);fill-opacity:1;" d="M 245.761719 739.730469 C 245.625 739.105469 245.261719 738.515625 244.558594 738.144531 C 228.046875 729.421875 219.078125 713.535156 212.574219 696.664063 C 212.089844 695.398438 210.9375 695.121094 209.9375 695.425781 C 208.988281 695.261719 207.953125 695.582031 207.441406 696.703125 C 200.769531 711.363281 189.140625 722.949219 177.335938 733.628906 C 172.359375 738.136719 167.152344 742.488281 161.558594 746.214844 C 158.648438 748.152344 144.082031 757.742188 136.847656 757.855469 C 137.851563 759.085938 138.742188 760.378906 139.464844 761.773438 C 139.574219 761.945313 139.671875 762.132813 139.777344 762.3125 C 139.832031 762.300781 139.890625 762.289063 139.949219 762.277344 C 147.507813 773.222656 155.699219 783.632813 164.589844 793.535156 C 164.699219 793.65625 164.828125 793.710938 164.945313 793.804688 C 164.925781 793.835938 164.898438 793.871094 164.875 793.902344 C 165.972656 794.996094 167.066406 796.089844 168.15625 797.183594 C 185.039063 772.210938 213.210938 744.730469 244.199219 743.027344 C 246.082031 742.925781 246.480469 741.035156 245.761719 739.730469 "/>
<path style="fill:none;stroke-width:20;stroke-linecap:round;stroke-linejoin:miter;stroke:rgb(20.776367%,10.594177%,2.352905%);stroke-opacity:1;stroke-miterlimit:10;" d="M 5847.34375 8967.070313 L 1741.171875 5865.859375 " transform="matrix(0.1,0,0,-0.1,0,1334)"/>
<path style="fill:none;stroke-width:20;stroke-linecap:round;stroke-linejoin:miter;stroke:rgb(20.776367%,10.594177%,2.352905%);stroke-opacity:1;stroke-miterlimit:10;" d="M 5901.71875 8897.96875 L 1845.976563 5731.09375 " transform="matrix(0.1,0,0,-0.1,0,1334)"/>
<path style=" stroke:none;fill-rule:nonzero;fill:rgb(20.776367%,10.594177%,2.352905%);fill-opacity:1;" d="M 410.378906 962.683594 C 412.5625 896.394531 423.851563 830.621094 444.515625 767.570313 C 465.621094 703.164063 496.101563 641.949219 524.015625 580.316406 C 525.222656 577.644531 520.957031 576.046875 519.753906 578.710938 C 491.253906 641.632813 460.078125 704.144531 438.933594 770.042969 C 418.980469 832.230469 407.992188 897.015625 405.84375 962.265625 C 405.746094 965.179688 410.28125 965.621094 410.378906 962.683594 "/>
<path style=" stroke:none;fill-rule:nonzero;fill:rgb(29.80957%,17.651367%,6.665039%);fill-opacity:1;" d="M 427.796875 968.53125 C 429.910156 961.417969 432.023438 954.304688 434.128906 947.1875 C 442.332031 919.429688 450.398438 891.628906 457.933594 863.679688 C 461.546875 850.28125 464.972656 836.828125 468.296875 823.351563 C 473.242188 805.792969 478.199219 788.234375 483.277344 770.71875 C 498.714844 721.773438 515.015625 673.109375 532.207031 624.75 C 532.882813 623.085938 533.511719 621.402344 534.195313 619.734375 C 534.460938 619.089844 534.59375 618.476563 534.667969 617.878906 C 538.246094 607.867188 541.773438 597.84375 545.429688 587.859375 C 546.605469 586.703125 547.1875 585.109375 546.980469 583.523438 C 547.398438 582.257813 546.703125 581.253906 545.738281 580.820313 C 545.699219 580.777344 545.679688 580.730469 545.640625 580.6875 C 543.285156 578.167969 538.1875 577.230469 535.144531 576.101563 C 530.988281 574.5625 526.816406 572.609375 522.496094 571.601563 C 518.378906 570.640625 511.789063 570.941406 510.945313 576.34375 C 510.0625 582.015625 518.679688 583.167969 522.351563 584.515625 C 523.988281 585.113281 526.117188 586.125 528.421875 587.136719 C 520.382813 610.914063 512.480469 634.738281 504.648438 658.585938 C 493.746094 688.902344 484.105469 719.632813 474.984375 750.53125 C 454.441406 815.421875 434.675781 880.550781 415.636719 945.898438 L 403.304688 945.273438 C 399.898438 945.101563 395.847656 947.632813 395.878906 951.453125 C 395.933594 958.421875 394.53125 964.628906 391.472656 970.890625 C 389.882813 974.144531 392.214844 978.578125 395.453125 979.691406 C 399.21875 980.984375 403.050781 981.949219 406.941406 982.636719 C 407.316406 982.847656 407.757813 982.9375 408.226563 982.859375 C 410.296875 983.183594 412.382813 983.457031 414.492188 983.601563 C 415.097656 983.644531 415.667969 983.527344 416.230469 983.40625 C 418.34375 984.109375 420.488281 984.515625 422.796875 982.691406 C 426.039063 980.128906 426.644531 972.394531 427.796875 968.53125 "/>
<path style=" stroke:none;fill-rule:nonzero;fill:rgb(20.776367%,10.594177%,2.352905%);fill-opacity:1;" d="M 330.265625 604.390625 C 324.578125 604.023438 320.429688 599.21875 322.246094 593.453125 C 323.882813 588.277344 316.011719 585.085938 314.359375 590.3125 C 310.996094 600.972656 317.753906 612.078125 329.230469 612.820313 C 334.664063 613.171875 335.730469 604.746094 330.265625 604.390625 "/>
<path style=" stroke:none;fill-rule:nonzero;fill:rgb(20.776367%,10.594177%,2.352905%);fill-opacity:1;" d="M 374.410156 660.925781 C 368.726563 660.558594 364.574219 655.757813 366.394531 649.992188 C 368.03125 644.816406 360.15625 641.621094 358.507813 646.851563 C 355.140625 657.507813 361.898438 668.613281 373.375 669.355469 C 378.8125 669.707031 379.878906 661.28125 374.410156 660.925781 "/>
<path style=" stroke:none;fill-rule:nonzero;fill:rgb(86.71875%,63.476563%,74.021912%);fill-opacity:1;" d="M 365.945313 689.410156 C 365.488281 682.914063 361.726563 676.457031 355.382813 673.621094 C 350.621094 671.492188 347.398438 674.558594 347.023438 678.316406 C 346.34375 680.019531 346.304688 682.101563 347.398438 684.042969 C 349.898438 688.484375 353.050781 691.839844 357.449219 694.078125 C 361.351563 696.066406 366.269531 694.015625 365.945313 689.410156 "/>
<path style=" stroke:none;fill-rule:nonzero;fill:rgb(86.71875%,63.476563%,74.021912%);fill-opacity:1;" d="M 303.957031 605.363281 C 303.5 598.863281 299.738281 592.40625 293.394531 589.570313 C 288.632813 587.445313 285.410156 590.511719 285.039063 594.269531 C 284.355469 595.972656 284.316406 598.050781 285.410156 599.996094 C 287.914063 604.4375 291.0625 607.789063 295.460938 610.03125 C 299.363281 612.019531 304.28125 609.96875 303.957031 605.363281 "/>
<path style=" stroke:none;fill-rule:nonzero;fill:rgb(43.920898%,28.637695%,14.892578%);fill-opacity:1;" d="M 170.828125 283.878906 C 162.699219 283.878906 155.332031 281.789063 148.714844 277.609375 C 142.097656 273.441406 137.511719 267.960938 134.957031 261.199219 L 74.710938 91.671875 C 73.78125 89.480469 73.316406 87.191406 73.316406 84.800781 C 73.316406 78.441406 75.929688 72.859375 81.152344 68.089844 C 86.378906 63.308594 92.933594 60.921875 100.828125 60.921875 C 106.863281 60.921875 112.375 62.46875 117.371094 65.550781 C 122.359375 68.640625 125.667969 72.761719 127.296875 77.941406 L 163.898438 198.171875 C 165.890625 204.710938 175.136719 204.730469 177.15625 198.199219 L 214.359375 77.941406 C 216.214844 72.761719 219.585938 68.640625 224.460938 65.550781 C 229.335938 62.46875 234.90625 60.921875 241.175781 60.921875 C 248.835938 60.921875 255.277344 63.269531 260.503906 67.941406 C 265.726563 72.609375 268.339844 78.140625 268.339844 84.5 C 268.339844 86.890625 267.871094 89.179688 266.945313 91.371094 L 206.699219 261.199219 C 204.140625 267.960938 199.558594 273.441406 192.941406 277.609375 C 186.324219 281.789063 178.949219 283.878906 170.828125 283.878906 "/>
<path style=" stroke:none;fill-rule:nonzero;fill:rgb(43.920898%,28.637695%,14.892578%);fill-opacity:1;" d="M 150.476563 1251.640625 C 144.042969 1251.640625 138.214844 1249.988281 132.976563 1246.679688 C 127.742188 1243.371094 124.113281 1239.042969 122.089844 1233.691406 L 74.421875 1099.546875 C 73.683594 1097.8125 73.316406 1096 73.316406 1094.113281 C 73.316406 1089.074219 75.386719 1084.664063 79.519531 1080.886719 C 83.652344 1077.109375 88.839844 1075.21875 95.085938 1075.21875 C 99.863281 1075.21875 104.222656 1076.4375 108.179688 1078.878906 C 112.125 1081.324219 114.742188 1084.585938 116.03125 1088.679688 L 144.992188 1183.820313 C 146.566406 1188.992188 153.886719 1189.007813 155.484375 1183.839844 L 184.921875 1088.679688 C 186.390625 1084.585938 189.054688 1081.324219 192.914063 1078.878906 C 196.769531 1076.4375 201.179688 1075.21875 206.140625 1075.21875 C 212.203125 1075.21875 217.296875 1077.070313 221.433594 1080.769531 C 225.566406 1084.46875 227.632813 1088.839844 227.632813 1093.875 C 227.632813 1095.765625 227.261719 1097.578125 226.53125 1099.308594 L 178.859375 1233.691406 C 176.835938 1239.042969 173.210938 1243.371094 167.972656 1246.679688 C 162.738281 1249.988281 156.902344 1251.640625 150.476563 1251.640625 "/>
<path style=" stroke:none;fill-rule:nonzero;fill:rgb(43.920898%,28.637695%,14.892578%);fill-opacity:1;" d="M 523.953125 1251.214844 C 518.746094 1251.214844 514.324219 1249.398438 510.691406 1245.769531 C 507.058594 1242.140625 505.246094 1237.71875 505.246094 1232.507813 L 505.246094 1142.289063 C 505.246094 1137.078125 507.058594 1132.660156 510.691406 1129.027344 C 514.324219 1125.398438 518.746094 1123.582031 523.953125 1123.582031 C 529.164063 1123.582031 533.578125 1125.398438 537.214844 1129.027344 C 540.84375 1132.660156 542.660156 1137.078125 542.660156 1142.289063 L 542.660156 1232.507813 C 542.660156 1237.71875 540.84375 1242.140625 537.214844 1245.769531 C 533.578125 1249.398438 529.164063 1251.214844 523.953125 1251.214844 M 503.589844 1094.929688 C 503.589844 1092.089844 504.140625 1089.445313 505.246094 1087 C 506.351563 1084.554688 507.808594 1082.378906 509.628906 1080.484375 C 511.441406 1078.59375 513.609375 1077.09375 516.140625 1075.984375 C 518.664063 1074.886719 521.347656 1074.328125 524.191406 1074.328125 C 527.03125 1074.328125 529.671875 1074.886719 532.121094 1075.984375 C 534.570313 1077.09375 536.699219 1078.59375 538.515625 1080.484375 C 540.328125 1082.378906 541.792969 1084.554688 542.898438 1087 C 544 1089.445313 544.554688 1092.089844 544.554688 1094.929688 C 544.554688 1097.773438 544 1100.417969 542.898438 1102.863281 C 541.792969 1105.3125 540.328125 1107.445313 538.515625 1109.257813 C 536.699219 1111.074219 534.570313 1112.535156 532.121094 1113.636719 C 529.671875 1114.742188 527.03125 1115.296875 524.191406 1115.296875 C 521.347656 1115.296875 518.664063 1114.742188 516.140625 1113.636719 C 513.609375 1112.535156 511.441406 1111.074219 509.628906 1109.257813 C 507.808594 1107.445313 506.351563 1105.3125 505.246094 1102.863281 C 504.140625 1100.417969 503.589844 1097.773438 503.589844 1094.929688 "/>
<path style=" stroke:none;fill-rule:nonzero;fill:rgb(43.920898%,28.637695%,14.892578%);fill-opacity:1;" d="M 266.789063 1251.886719 C 261.578125 1251.886719 257.160156 1250.070313 253.527344 1246.4375 C 249.894531 1242.8125 248.082031 1238.390625 248.082031 1233.179688 L 248.082031 1142.960938 C 248.082031 1137.75 249.894531 1133.332031 253.527344 1129.699219 C 257.160156 1126.070313 261.578125 1124.253906 266.789063 1124.253906 C 272 1124.253906 276.414063 1126.070313 280.050781 1129.699219 C 283.679688 1133.332031 285.496094 1137.75 285.496094 1142.960938 L 285.496094 1233.179688 C 285.496094 1238.390625 283.679688 1242.8125 280.050781 1246.4375 C 276.414063 1250.070313 272 1251.886719 266.789063 1251.886719 M 246.425781 1095.601563 C 246.425781 1092.757813 246.976563 1090.117188 248.082031 1087.667969 C 249.183594 1085.222656 250.644531 1083.050781 252.464844 1081.15625 C 254.277344 1079.261719 256.445313 1077.761719 258.976563 1076.65625 C 261.5 1075.554688 264.183594 1075 267.027344 1075 C 269.867188 1075 272.507813 1075.554688 274.960938 1076.65625 C 277.40625 1077.761719 279.535156 1079.261719 281.351563 1081.15625 C 283.164063 1083.050781 284.628906 1085.222656 285.734375 1087.667969 C 286.835938 1090.117188 287.390625 1092.757813 287.390625 1095.601563 C 287.390625 1098.441406 286.835938 1101.085938 285.734375 1103.53125 C 284.628906 1105.984375 283.164063 1108.113281 281.351563 1109.925781 C 279.535156 1111.742188 277.40625 1113.203125 274.960938 1114.308594 C 272.507813 1115.414063 269.867188 1115.964844 267.027344 1115.964844 C 264.183594 1115.964844 261.5 1115.414063 258.976563 1114.308594 C 256.445313 1113.203125 254.277344 1111.742188 252.464844 1109.925781 C 250.644531 1108.113281 249.183594 1105.984375 248.082031 1103.53125 C 246.976563 1101.085938 246.425781 1098.441406 246.425781 1095.601563 "/>
<path style=" stroke:none;fill-rule:nonzero;fill:rgb(43.920898%,28.637695%,14.892578%);fill-opacity:1;" d="M 462.421875 1251.214844 C 457.210938 1251.214844 452.789063 1249.398438 449.160156 1245.769531 C 445.527344 1242.140625 443.714844 1237.71875 443.714844 1232.507813 L 443.714844 1093.035156 C 443.714844 1087.824219 445.527344 1083.40625 449.160156 1079.777344 C 452.789063 1076.148438 457.210938 1074.328125 462.421875 1074.328125 C 467.632813 1074.328125 472.046875 1076.148438 475.683594 1079.777344 C 479.3125 1083.40625 481.128906 1087.824219 481.128906 1093.035156 L 481.128906 1232.507813 C 481.128906 1237.71875 479.3125 1242.140625 475.683594 1245.769531 C 472.046875 1249.398438 467.632813 1251.214844 462.421875 1251.214844 "/>
<path style=" stroke:none;fill-rule:nonzero;fill:rgb(43.920898%,28.637695%,14.892578%);fill-opacity:1;" d="M 584.058594 1121.253906 C 589.269531 1121.253906 593.371094 1122.953125 596.371094 1126.34375 C 597.300781 1127.394531 598.082031 1128.476563 598.722656 1129.59375 C 600.503906 1132.695313 604.636719 1133.496094 607.378906 1131.207031 C 609.96875 1129.046875 612.695313 1127.191406 615.554688 1125.632813 C 620.914063 1122.714844 626.839844 1121.253906 633.3125 1121.253906 C 638.996094 1121.253906 644.398438 1122.4375 649.535156 1124.804688 C 654.660156 1127.171875 659.121094 1130.367188 662.914063 1134.394531 C 666.699219 1138.421875 669.699219 1143.121094 671.910156 1148.484375 C 674.121094 1153.851563 675.226563 1159.613281 675.226563 1165.769531 L 675.226563 1230.890625 C 675.226563 1235.941406 673.488281 1240.207031 670.015625 1243.675781 C 666.542969 1247.148438 662.28125 1248.886719 657.230469 1248.886719 C 652.175781 1248.886719 647.875 1247.148438 644.324219 1243.675781 C 640.773438 1240.207031 638.996094 1235.941406 638.996094 1230.890625 L 638.996094 1172.164063 C 638.996094 1157.644531 633.941406 1150.378906 623.839844 1150.378906 C 618.3125 1150.378906 613.332031 1150.457031 609.59375 1154.296875 C 605.167969 1158.847656 603.554688 1165.523438 603.476563 1171.679688 L 603.476563 1230.179688 C 603.476563 1235.234375 601.617188 1239.613281 597.914063 1243.320313 C 594.199219 1247.027344 589.820313 1248.886719 584.769531 1248.886719 C 579.5625 1248.886719 575.097656 1247.027344 571.390625 1243.320313 C 567.679688 1239.613281 565.824219 1235.234375 565.824219 1230.179688 L 565.824219 1138.777344 C 565.824219 1133.882813 567.5625 1129.738281 571.035156 1126.34375 C 574.507813 1122.953125 578.851563 1121.253906 584.058594 1121.253906 "/>
<path style=" stroke:none;fill-rule:nonzero;fill:rgb(43.920898%,28.637695%,14.892578%);fill-opacity:1;" d="M 389.078125 1189.078125 C 389.078125 1183.238281 388.367188 1178.109375 386.949219 1173.6875 C 385.527344 1169.269531 383.671875 1165.601563 381.382813 1162.675781 C 379.09375 1159.757813 376.53125 1157.546875 373.6875 1156.046875 C 370.847656 1154.546875 368.085938 1153.796875 365.398438 1153.796875 C 362.714844 1153.796875 359.953125 1154.546875 357.109375 1156.046875 C 354.269531 1157.546875 351.742188 1159.796875 349.535156 1162.792969 C 347.324219 1165.796875 345.507813 1169.507813 344.089844 1173.925781 C 342.667969 1178.347656 341.957031 1183.394531 341.957031 1189.078125 C 341.957031 1194.761719 342.628906 1199.734375 343.972656 1203.996094 C 345.308594 1208.261719 347.125 1211.851563 349.414063 1214.769531 C 351.703125 1217.691406 354.269531 1219.863281 357.109375 1221.28125 C 359.953125 1222.703125 362.796875 1223.414063 365.636719 1223.414063 C 368.476563 1223.414063 371.277344 1222.703125 374.042969 1221.28125 C 376.804688 1219.863281 379.332031 1217.691406 381.621094 1214.769531 C 383.90625 1211.851563 385.722656 1208.261719 387.066406 1203.996094 C 388.40625 1199.734375 389.078125 1194.761719 389.078125 1189.078125 M 426.492188 1188.605469 C 426.492188 1197.445313 424.953125 1205.734375 421.875 1213.46875 C 418.796875 1221.207031 414.535156 1227.953125 409.089844 1233.714844 C 403.644531 1239.476563 397.210938 1244.015625 389.789063 1247.332031 C 382.367188 1250.644531 374.316406 1252.304688 365.636719 1252.304688 C 356.953125 1252.304688 348.863281 1250.644531 341.363281 1247.332031 C 333.863281 1244.015625 327.394531 1239.476563 321.949219 1233.714844 C 316.503906 1227.953125 312.238281 1221.207031 309.160156 1213.46875 C 306.085938 1205.734375 304.542969 1197.445313 304.542969 1188.605469 C 304.542969 1179.925781 306.085938 1171.714844 309.160156 1163.976563 C 312.238281 1156.246094 316.503906 1149.457031 321.949219 1143.613281 C 327.394531 1137.777344 333.863281 1133.195313 341.363281 1129.878906 C 348.863281 1126.5625 356.953125 1124.90625 365.636719 1124.90625 C 374.316406 1124.90625 382.367188 1126.5625 389.789063 1129.878906 C 397.210938 1133.195313 403.644531 1137.777344 409.089844 1143.613281 C 414.535156 1149.457031 418.796875 1156.246094 421.875 1163.976563 C 424.953125 1171.714844 426.492188 1179.925781 426.492188 1188.605469 "/>
<path style=" stroke:none;fill-rule:nonzero;fill:rgb(43.920898%,28.637695%,14.892578%);fill-opacity:1;" d="M 278.632813 152.441406 C 277.835938 150.640625 277.4375 148.25 277.4375 145.261719 C 277.4375 139.269531 279.527344 134.089844 283.71875 129.691406 C 287.90625 125.308594 293.097656 123.109375 299.28125 123.109375 C 304.070313 123.109375 308.453125 124.609375 312.449219 127.601563 C 316.4375 130.589844 319.132813 134.390625 320.527344 138.96875 L 339.019531 212.648438 C 340.210938 217.410156 346.972656 217.421875 348.179688 212.671875 L 366.914063 138.96875 C 368.304688 134.179688 370.953125 130.339844 374.84375 127.449219 C 378.734375 124.558594 383.171875 123.109375 388.160156 123.109375 C 394.34375 123.109375 399.480469 125.308594 403.570313 129.691406 C 407.65625 134.089844 409.707031 139.171875 409.707031 144.960938 C 409.707031 147.949219 409.304688 150.339844 408.511719 152.140625 L 370.507813 265.558594 C 368.507813 271.351563 365.066406 275.929688 360.183594 279.320313 C 355.289063 282.710938 349.855469 284.410156 343.871094 284.410156 C 337.683594 284.410156 332.148438 282.710938 327.261719 279.320313 C 322.371094 275.929688 318.929688 271.351563 316.9375 265.558594 "/>
</g>
</svg>
