<?xml version="1.0" encoding="UTF-8"?>
<svg xmlns="http://www.w3.org/2000/svg" xmlns:xlink="http://www.w3.org/1999/xlink" width="750pt" height="1334pt" viewBox="0 0 750 1334" version="1.1">
<g id="surface1">
<path style=" stroke:none;fill-rule:nonzero;fill:rgb(25.87738%,15.696716%,15.696716%);fill-opacity:1;" d="M 450.503906 626.351563 C 449.203125 624.289063 447.125 622.96875 445.183594 621.578125 C 442.488281 619.644531 439.796875 617.714844 437.105469 615.789063 C 436.828125 615.589844 436.539063 615.492188 436.253906 615.398438 C 434.433594 614.652344 431.980469 615.992188 431.925781 618.109375 C 431.105469 618.488281 430.492188 619.234375 430.527344 620.480469 C 430.742188 628.6875 438.230469 636.925781 447.035156 635.0625 C 451.265625 634.167969 452.730469 629.867188 450.503906 626.351563 "/>
<path style=" stroke:none;fill-rule:nonzero;fill:rgb(84.764099%,26.660156%,26.660156%);fill-opacity:1;" d="M 507.980469 592.996094 C 513.960938 576.894531 501.585938 553.605469 485.632813 553.371094 C 370.578125 551.640625 255.632813 542.085938 141.070313 524.71875 C 120.058594 521.535156 111.101563 544.351563 115.996094 562.433594 C 110.59375 568.992188 107.550781 578.683594 108.0625 588.382813 C 110.363281 631.871094 156.769531 676.113281 186.894531 696.992188 C 221.707031 721.117188 261.03125 741.285156 301.683594 742.015625 C 384.535156 743.492188 476.109375 678.789063 507.980469 592.996094 "/>
<path style=" stroke:none;fill-rule:nonzero;fill:rgb(38.035583%,54.881287%,38.035583%);fill-opacity:1;" d="M 520.574219 577.96875 C 526.183594 541.9375 477.296875 537 471.707031 572.890625 C 455.5625 676.566406 373.625 731.664063 286.265625 714.191406 C 249.316406 706.804688 209.472656 685.671875 179.78125 659.289063 C 147.273438 630.402344 134.972656 588.6875 132.296875 542.667969 C 130.164063 506.085938 81.8125 515.851563 83.925781 552.140625 C 87.320313 610.519531 107.046875 664.960938 147.167969 701.878906 C 186.953125 738.488281 241.074219 765.761719 291.546875 772.519531 C 337.855469 778.726563 393.722656 767.605469 433.742188 739.117188 C 482.957031 704.078125 510.5625 642.257813 520.574219 577.96875 "/>
<path style=" stroke:none;fill-rule:nonzero;fill:rgb(39.598083%,62.693787%,39.598083%);fill-opacity:1;" d="M 486.015625 563.640625 C 487.890625 550.066406 469.5625 548.195313 467.691406 561.734375 C 453.636719 663.511719 378.914063 722.269531 292.496094 705.386719 C 212.140625 689.691406 137.296875 637.609375 133.816406 533.550781 C 133.363281 520.011719 115.03125 517.910156 115.492188 531.644531 C 119.371094 647.761719 199.089844 709.339844 290.855469 726.660156 C 387.8125 744.960938 470.347656 677.074219 486.015625 563.640625 "/>
<path style=" stroke:none;fill-rule:nonzero;fill:rgb(25.87738%,15.696716%,15.696716%);fill-opacity:1;" d="M 219.757813 638.433594 C 221.757813 633.453125 221.808594 627.386719 221.925781 621.996094 C 222.003906 618.480469 218.597656 617.066406 216.589844 619.453125 C 216.0625 619.535156 215.53125 619.765625 215.039063 620.371094 C 211.949219 624.152344 208.871094 628.039063 207.976563 633.316406 C 207.382813 636.8125 207.800781 643.046875 211.277344 644.554688 C 214.875 646.113281 218.421875 641.761719 219.757813 638.433594 "/>
<path style=" stroke:none;fill-rule:nonzero;fill:rgb(25.87738%,15.696716%,15.696716%);fill-opacity:1;" d="M 283.480469 669.199219 C 283.980469 663.347656 283.078125 657.035156 281.890625 651.371094 C 281.242188 648.28125 276.796875 646.984375 275.984375 650.742188 C 275.984375 650.746094 275.980469 650.75 275.984375 650.753906 C 275.945313 650.800781 275.898438 650.8125 275.859375 650.863281 C 271.613281 656.582031 266.003906 674.195313 275.675781 677.21875 C 280.1875 678.628906 283.085938 673.855469 283.480469 669.199219 "/>
<path style=" stroke:none;fill-rule:nonzero;fill:rgb(25.87738%,15.696716%,15.696716%);fill-opacity:1;" d="M 343.335938 658.683594 C 342.570313 656.285156 339.832031 656.140625 338.390625 657.601563 C 337.207031 657.472656 336.054688 658.105469 335.6875 659.898438 C 334.183594 667.207031 332.03125 684.128906 342.503906 683.742188 C 354.042969 683.320313 345.273438 664.757813 343.335938 658.683594 "/>
<path style=" stroke:none;fill-rule:nonzero;fill:rgb(25.87738%,15.696716%,15.696716%);fill-opacity:1;" d="M 397.019531 657.203125 C 396.382813 654.679688 394.597656 652.660156 393.21875 650.644531 C 391.464844 648.078125 389.710938 645.515625 387.960938 642.949219 C 386.023438 640.121094 382.78125 642.191406 382.613281 645.144531 C 382.222656 645.5 381.871094 645.949219 381.644531 646.609375 C 378.867188 654.683594 381.875 666.738281 391.027344 665.617188 C 394.660156 665.171875 398.175781 661.769531 397.019531 657.203125 "/>
<path style=" stroke:none;fill-rule:nonzero;fill:rgb(25.87738%,15.696716%,15.696716%);fill-opacity:1;" d="M 187.277344 569.257813 C 187.308594 569.1875 187.273438 569.105469 187.300781 569.03125 C 188.648438 566.8125 187.378906 562.796875 184.378906 563.359375 C 179.121094 564.339844 160.789063 568.917969 166.5625 579.105469 C 168.496094 582.519531 172.496094 583.664063 175.644531 581.945313 C 176.136719 581.675781 176.527344 581.246094 176.964844 580.890625 C 181.300781 578.636719 185.339844 573.703125 187.277344 569.257813 "/>
<path style=" stroke:none;fill-rule:nonzero;fill:rgb(88.671875%,29.417419%,29.417419%);fill-opacity:1;" d="M 646.496094 683.652344 C 599.363281 637.484375 556.132813 587.519531 509.367188 541.042969 C 496.816406 528.027344 483.941406 515.324219 470.46875 503.1875 C 467.804688 500.785156 462.3125 501.25 460.929688 505.011719 C 453.421875 525.488281 447.144531 546.421875 441.6875 567.636719 C 421.632813 628.070313 408.121094 693.867188 401.171875 755.84375 C 400.8125 759.023438 402.625 761.273438 404.925781 762.375 C 405.671875 764.589844 407.714844 765.957031 409.894531 766.347656 C 414.761719 771.941406 422.308594 774.980469 431.503906 771.808594 C 449.695313 765.53125 468.011719 759.710938 486.535156 754.507813 C 504.078125 773.691406 544.507813 761.679688 560.308594 746.695313 C 561.824219 745.261719 563.085938 743.710938 564.238281 742.121094 C 567.277344 742.980469 570.324219 743.519531 573.382813 743.542969 C 592.363281 743.695313 611.320313 725.660156 626.484375 715.917969 C 633.535156 711.382813 636.457031 703.582031 635.679688 696.039063 C 636.359375 696.703125 637.011719 697.390625 637.691406 698.050781 C 642.589844 702.804688 649.285156 696.589844 647.367188 691.265625 C 648.722656 689 648.910156 686.015625 646.496094 683.652344 "/>
<path style=" stroke:none;fill-rule:nonzero;fill:rgb(38.035583%,54.881287%,38.035583%);fill-opacity:1;" d="M 623.25 689.425781 C 567.0625 744.859375 490.75 762.445313 413.84375 757.273438 C 382.359375 755.15625 385.070313 804.1875 416.214844 806.28125 C 506.828125 812.375 594.609375 786.441406 659.988281 721.945313 C 682.460938 699.773438 645.675781 667.304688 623.25 689.425781 "/>
<path style=" stroke:none;fill-rule:nonzero;fill:rgb(39.598083%,62.693787%,39.598083%);fill-opacity:1;" d="M 634.246094 679.585938 C 600.300781 710.082031 565.386719 730.890625 521.066406 742.96875 C 482.179688 753.566406 443.039063 752.265625 403.058594 752.96875 C 395.128906 753.105469 395.738281 765.359375 403.640625 765.222656 C 449.289063 764.421875 491.796875 764.476563 535.859375 751.566406 C 577.738281 739.296875 611.230469 716.652344 643.449219 687.710938 C 649.324219 682.433594 640.085938 674.34375 634.246094 679.585938 "/>
<path style=" stroke:none;fill-rule:nonzero;fill:rgb(25.87738%,15.696716%,15.696716%);fill-opacity:1;" d="M 437.230469 703.039063 C 436.734375 700.324219 432.265625 699.144531 431.359375 702.28125 C 431.347656 702.328125 431.335938 702.378906 431.320313 702.429688 C 430.582031 702.652344 429.902344 703.144531 429.453125 703.992188 C 426.671875 709.292969 422.886719 722.191406 432.402344 723.332031 C 442.511719 724.546875 438.140625 708.019531 437.230469 703.039063 "/>
<path style=" stroke:none;fill-rule:nonzero;fill:rgb(25.87738%,15.696716%,15.696716%);fill-opacity:1;" d="M 466.007813 601.328125 C 464.78125 598.855469 460.15625 598.957031 460.15625 602.222656 C 460.152344 602.269531 460.160156 602.324219 460.160156 602.375 C 459.507813 602.792969 458.992188 603.457031 458.796875 604.394531 C 457.585938 610.253906 457.507813 623.695313 466.96875 622.167969 C 477.019531 620.546875 468.253906 605.867188 466.007813 601.328125 "/>
<path style=" stroke:none;fill-rule:nonzero;fill:rgb(25.87738%,15.696716%,15.696716%);fill-opacity:1;" d="M 547.378906 618.902344 C 545.710938 616.703125 541.191406 617.664063 541.796875 620.871094 C 541.804688 620.921875 541.820313 620.972656 541.828125 621.023438 C 541.269531 621.554688 540.886719 622.304688 540.867188 623.261719 C 540.773438 629.242188 543.210938 642.464844 552.21875 639.191406 C 561.789063 635.71875 550.433594 622.9375 547.378906 618.902344 "/>
<path style=" stroke:none;fill-rule:nonzero;fill:rgb(25.87738%,15.696716%,15.696716%);fill-opacity:1;" d="M 541.167969 680.898438 C 539.144531 678.035156 534.890625 680.402344 535.597656 683.234375 C 535.511719 683.492188 535.402344 683.730469 535.382813 684.027344 C 535.046875 689.105469 535.675781 704.785156 544.464844 701.808594 C 552.53125 699.078125 543.972656 684.851563 541.167969 680.898438 "/>
<path style=" stroke:none;fill-rule:nonzero;fill:rgb(25.87738%,15.696716%,15.696716%);fill-opacity:1;" d="M 489.472656 698.175781 C 487.664063 695.175781 483.246094 697.21875 483.742188 700.097656 C 483.640625 700.351563 483.515625 700.578125 483.472656 700.871094 C 482.765625 705.914063 482.242188 721.59375 491.226563 719.273438 C 499.472656 717.144531 491.976563 702.324219 489.472656 698.175781 "/>
<path style=" stroke:none;fill-rule:nonzero;fill:rgb(25.87738%,15.696716%,15.696716%);fill-opacity:1;" d="M 502.742188 641.957031 C 500.765625 639.058594 496.472656 641.347656 497.128906 644.191406 C 497.039063 644.449219 496.925781 644.683594 496.898438 644.980469 C 496.472656 650.054688 496.820313 665.738281 505.660156 662.921875 C 513.777344 660.339844 505.472656 645.960938 502.742188 641.957031 "/>
<path style=" stroke:none;fill-rule:nonzero;fill:rgb(25.87738%,15.696716%,15.696716%);fill-opacity:1;" d="M 454.003906 651.425781 C 451.96875 648.570313 447.722656 650.953125 448.441406 653.785156 C 448.359375 654.042969 448.25 654.28125 448.230469 654.578125 C 447.914063 659.65625 448.605469 675.332031 457.382813 672.320313 C 465.441406 669.5625 456.820313 655.367188 454.003906 651.425781 "/>
<path style=" stroke:none;fill-rule:nonzero;fill:rgb(25.87738%,15.696716%,15.696716%);fill-opacity:1;" d="M 586.96875 655.734375 C 585.671875 654.46875 584.132813 654.789063 583.101563 655.734375 C 581.578125 656.160156 580.226563 657.613281 580.660156 659.59375 C 581.617188 663.964844 582.789063 668.515625 585.605469 672.097656 C 587.796875 674.894531 591.746094 677.980469 595.429688 676.199219 C 604.125 672.003906 590.335938 659.007813 586.96875 655.734375 "/>
<path style=" stroke:none;fill-rule:nonzero;fill:rgb(25.87738%,15.696716%,15.696716%);fill-opacity:1;" d="M 505.84375 585.570313 C 504.542969 584.304688 503.007813 584.621094 501.972656 585.570313 C 500.453125 585.996094 499.101563 587.449219 499.53125 589.429688 C 500.492188 593.800781 501.664063 598.351563 504.476563 601.933594 C 506.671875 604.730469 510.621094 607.816406 514.304688 606.035156 C 523 601.835938 509.210938 588.84375 505.84375 585.570313 "/>
<path style=" stroke:none;fill-rule:nonzero;fill:rgb(25.87738%,15.696716%,15.696716%);fill-opacity:1;" d="M 278.183594 577.84375 C 278.175781 582.15625 273.910156 585.675781 269.601563 584.777344 C 265.410156 583.902344 262.675781 579.59375 262.363281 575.554688 C 261.976563 570.492188 254.035156 570.449219 254.425781 575.554688 C 255.066406 583.875 260.855469 592.027344 269.703125 592.785156 C 278.339844 593.53125 286.105469 586.464844 286.121094 577.84375 C 286.128906 572.734375 278.191406 572.726563 278.183594 577.84375 "/>
<path style=" stroke:none;fill-rule:nonzero;fill:rgb(25.87738%,15.696716%,15.696716%);fill-opacity:1;" d="M 355.742188 579.445313 C 355.84375 583.699219 352.960938 588.027344 348.421875 588.359375 C 343.808594 588.695313 340.472656 584.921875 339.746094 580.703125 C 338.886719 575.675781 331.234375 577.808594 332.09375 582.8125 C 333.476563 590.867188 341.242188 597.121094 349.484375 596.226563 C 357.816406 595.324219 363.875 587.636719 363.679688 579.445313 C 363.558594 574.34375 355.617188 574.324219 355.742188 579.445313 "/>
<path style=" stroke:none;fill-rule:nonzero;fill:rgb(25.87738%,15.696716%,15.696716%);fill-opacity:1;" d="M 312.691406 625.859375 C 311.660156 631.804688 304.757813 633.546875 301.6875 627.972656 C 299.222656 623.5 292.363281 627.5 294.835938 631.980469 C 300.988281 643.144531 318.121094 640.800781 320.34375 627.972656 C 321.210938 622.972656 313.5625 620.828125 312.691406 625.859375 "/>
<path style=" stroke:none;fill-rule:nonzero;fill:rgb(86.71875%,63.476563%,74.021912%);fill-opacity:1;" d="M 352.578125 606.683594 C 348.613281 603.328125 343.183594 602.398438 338.683594 605.398438 C 335.300781 607.652344 335.621094 611.734375 337.625 614.140625 C 338.300781 615.605469 339.484375 616.8125 341.101563 617.117188 C 344.800781 617.820313 348.160156 617.4375 351.441406 615.507813 C 354.351563 613.800781 355.386719 609.0625 352.578125 606.683594 "/>
<path style=" stroke:none;fill-rule:nonzero;fill:rgb(86.71875%,63.476563%,74.021912%);fill-opacity:1;" d="M 279.519531 606.683594 C 275.554688 603.328125 270.121094 602.398438 265.621094 605.398438 C 262.242188 607.652344 262.5625 611.734375 264.566406 614.140625 C 265.242188 615.605469 266.425781 616.8125 268.042969 617.117188 C 271.738281 617.820313 275.101563 617.4375 278.378906 615.507813 C 281.292969 613.800781 282.328125 609.0625 279.519531 606.683594 "/>
<path style=" stroke:none;fill-rule:nonzero;fill:rgb(84.764099%,26.660156%,26.660156%);fill-opacity:1;" d="M 167.875 283.878906 C 160.675781 283.878906 154.117188 282.089844 148.199219 278.511719 C 142.277344 274.929688 138.273438 270.050781 136.183594 263.878906 L 74.890625 90.46875 C 73.960938 88.28125 73.496094 86.101563 73.496094 83.910156 C 73.496094 77.738281 76.050781 72.371094 81.160156 67.789063 C 86.265625 63.210938 92.53125 60.921875 99.964844 60.921875 C 106 60.921875 111.28125 62.421875 115.8125 65.398438 C 120.339844 68.390625 123.527344 72.371094 125.386719 77.339844 L 160.914063 189.578125 C 162.707031 195.230469 170.808594 194.890625 172.121094 189.109375 L 202.003906 76.738281 C 202.699219 73.558594 204.382813 70.96875 207.054688 68.980469 C 209.71875 67 213.027344 66 216.976563 66 C 220.925781 66 224.230469 66.941406 226.902344 68.828125 C 229.570313 70.730469 231.371094 73.261719 232.300781 76.441406 L 265.738281 190.988281 C 267.171875 196.671875 275.15625 196.898438 276.917969 191.320313 L 312.746094 77.339844 C 314.367188 72.371094 317.5625 68.390625 322.324219 65.398438 C 327.078125 62.421875 332.476563 60.921875 338.519531 60.921875 C 345.945313 60.921875 352.214844 63.210938 357.324219 67.789063 C 362.429688 72.371094 364.984375 77.738281 364.984375 83.910156 C 364.984375 86.101563 364.515625 88.28125 363.59375 90.46875 L 301.949219 263.878906 C 299.863281 269.851563 295.910156 274.679688 290.109375 278.359375 C 284.304688 282.039063 277.6875 283.878906 270.261719 283.878906 C 262.367188 283.878906 255.34375 281.738281 249.191406 277.460938 C 243.039063 273.191406 239.269531 267.769531 237.871094 261.199219 L 221.992188 201.839844 C 221.15625 197.75 215.300781 197.828125 214.570313 201.941406 L 200.957031 260.601563 C 199.796875 267.371094 196.023438 272.941406 189.640625 277.308594 C 183.253906 281.691406 176 283.878906 167.875 283.878906 "/>
<path style=" stroke:none;fill-rule:nonzero;fill:rgb(84.764099%,26.660156%,26.660156%);fill-opacity:1;" d="M 105.304688 1251.738281 C 102.648438 1251.738281 100.230469 1251.078125 98.046875 1249.757813 C 95.863281 1248.4375 94.386719 1246.636719 93.617188 1244.363281 L 71.011719 1180.40625 C 70.667969 1179.601563 70.496094 1178.796875 70.496094 1177.984375 C 70.496094 1175.714844 71.441406 1173.730469 73.324219 1172.042969 C 75.203125 1170.355469 77.519531 1169.511719 80.257813 1169.511719 C 82.484375 1169.511719 84.433594 1170.058594 86.101563 1171.160156 C 87.773438 1172.261719 88.949219 1173.730469 89.636719 1175.5625 L 102.738281 1216.960938 C 103.398438 1219.042969 106.386719 1218.917969 106.871094 1216.785156 L 117.890625 1175.34375 C 118.148438 1174.171875 118.769531 1173.21875 119.753906 1172.480469 C 120.738281 1171.75 121.957031 1171.382813 123.414063 1171.382813 C 124.867188 1171.382813 126.089844 1171.730469 127.074219 1172.425781 C 128.058594 1173.125 128.722656 1174.0625 129.066406 1175.234375 L 141.398438 1217.476563 C 141.925781 1219.574219 144.871094 1219.660156 145.519531 1217.597656 L 158.734375 1175.5625 C 159.332031 1173.730469 160.511719 1172.261719 162.265625 1171.160156 C 164.019531 1170.058594 166.011719 1169.511719 168.238281 1169.511719 C 170.980469 1169.511719 173.289063 1170.355469 175.175781 1172.042969 C 177.058594 1173.730469 178 1175.714844 178 1177.984375 C 178 1178.796875 177.828125 1179.601563 177.488281 1180.40625 L 154.753906 1244.363281 C 153.980469 1246.566406 152.523438 1248.34375 150.386719 1249.703125 C 148.242188 1251.058594 145.804688 1251.738281 143.066406 1251.738281 C 140.152344 1251.738281 137.5625 1250.949219 135.296875 1249.371094 C 133.023438 1247.796875 131.632813 1245.796875 131.121094 1243.375 L 125.265625 1221.480469 C 124.953125 1219.972656 122.796875 1220.003906 122.527344 1221.515625 L 117.503906 1243.152344 C 117.074219 1245.648438 115.6875 1247.703125 113.332031 1249.316406 C 110.976563 1250.929688 108.300781 1251.738281 105.304688 1251.738281 "/>
<path style=" stroke:none;fill-rule:nonzero;fill:rgb(84.764099%,26.660156%,26.660156%);fill-opacity:1;" d="M 508.308594 1217.9375 C 510.828125 1217.9375 512.671875 1215.421875 511.765625 1213.070313 C 511.757813 1213.054688 511.753906 1213.039063 511.746094 1213.023438 C 511.15625 1211.519531 510.40625 1210.210938 509.484375 1209.105469 C 508.5625 1208.003906 507.515625 1207.140625 506.339844 1206.515625 C 505.164063 1205.890625 503.910156 1205.578125 502.585938 1205.578125 C 501.261719 1205.578125 500.011719 1205.890625 498.835938 1206.515625 C 497.65625 1207.140625 496.609375 1208.003906 495.6875 1209.105469 C 494.769531 1210.210938 494.050781 1211.519531 493.535156 1213.023438 C 493.515625 1213.089844 493.492188 1213.152344 493.472656 1213.214844 C 492.714844 1215.550781 494.527344 1217.9375 496.980469 1217.9375 Z M 515.609375 1234.160156 C 517.449219 1234.160156 519.046875 1234.859375 520.410156 1236.257813 C 521.773438 1237.65625 522.453125 1239.3125 522.453125 1241.226563 C 522.453125 1242.257813 522.140625 1243.324219 521.515625 1244.425781 C 520.890625 1245.53125 519.730469 1246.597656 518.039063 1247.625 C 516.199219 1248.804688 513.972656 1249.757813 511.363281 1250.496094 C 508.746094 1251.230469 506.042969 1251.597656 503.246094 1251.597656 C 499.71875 1251.597656 496.296875 1250.9375 492.984375 1249.613281 C 489.671875 1248.289063 486.730469 1246.355469 484.15625 1243.820313 C 481.578125 1241.28125 479.519531 1238.171875 477.976563 1234.492188 C 476.429688 1230.8125 475.65625 1226.621094 475.65625 1221.910156 C 475.65625 1217.421875 476.371094 1213.339844 477.808594 1209.660156 C 479.246094 1205.980469 481.175781 1202.835938 483.605469 1200.222656 C 486.03125 1197.613281 488.882813 1195.605469 492.15625 1194.210938 C 495.429688 1192.8125 498.90625 1192.109375 502.585938 1192.109375 C 506.632813 1192.109375 510.347656 1192.9375 513.734375 1194.59375 C 517.117188 1196.25 519.988281 1198.382813 522.34375 1200.996094 C 524.695313 1203.609375 526.539063 1206.515625 527.863281 1209.714844 C 529.183594 1212.914063 529.847656 1216.0625 529.847656 1219.152344 C 529.847656 1222.460938 529.183594 1224.871094 527.863281 1226.378906 C 526.539063 1227.890625 524.917969 1228.644531 523.003906 1228.644531 L 496.839844 1228.644531 C 493.929688 1228.644531 493.105469 1231.878906 494.976563 1234.113281 C 496.449219 1235.871094 499.203125 1238.132813 503.46875 1238.132813 C 504.867188 1238.132813 506.265625 1237.898438 507.664063 1237.417969 C 509.0625 1236.941406 510.3125 1236.332031 511.414063 1235.597656 C 512.886719 1234.640625 514.285156 1234.160156 515.609375 1234.160156 "/>
<path style=" stroke:none;fill-rule:nonzero;fill:rgb(84.764099%,26.660156%,26.660156%);fill-opacity:1;" d="M 312.472656 1217.9375 C 314.992188 1217.9375 316.835938 1215.421875 315.929688 1213.070313 C 315.921875 1213.054688 315.917969 1213.039063 315.910156 1213.023438 C 315.320313 1211.519531 314.566406 1210.210938 313.648438 1209.105469 C 312.726563 1208.003906 311.679688 1207.140625 310.503906 1206.515625 C 309.324219 1205.890625 308.074219 1205.578125 306.75 1205.578125 C 305.425781 1205.578125 304.175781 1205.890625 302.996094 1206.515625 C 301.820313 1207.140625 300.769531 1208.003906 299.851563 1209.105469 C 298.933594 1210.210938 298.214844 1211.519531 297.699219 1213.023438 C 297.679688 1213.089844 297.65625 1213.152344 297.636719 1213.214844 C 296.878906 1215.550781 298.6875 1217.9375 301.144531 1217.9375 Z M 319.773438 1234.160156 C 321.613281 1234.160156 323.214844 1234.859375 324.574219 1236.257813 C 325.9375 1237.65625 326.617188 1239.3125 326.617188 1241.226563 C 326.617188 1242.257813 326.304688 1243.324219 325.679688 1244.425781 C 325.054688 1245.53125 323.894531 1246.597656 322.203125 1247.625 C 320.363281 1248.804688 318.136719 1249.757813 315.523438 1250.496094 C 312.910156 1251.230469 310.207031 1251.597656 307.410156 1251.597656 C 303.878906 1251.597656 300.460938 1250.9375 297.148438 1249.613281 C 293.839844 1248.289063 290.894531 1246.355469 288.320313 1243.820313 C 285.742188 1241.28125 283.683594 1238.171875 282.140625 1234.492188 C 280.59375 1230.8125 279.820313 1226.621094 279.820313 1221.910156 C 279.820313 1217.421875 280.539063 1213.339844 281.972656 1209.660156 C 283.410156 1205.980469 285.339844 1202.835938 287.769531 1200.222656 C 290.195313 1197.613281 293.046875 1195.605469 296.320313 1194.210938 C 299.59375 1192.8125 303.070313 1192.109375 306.75 1192.109375 C 310.796875 1192.109375 314.511719 1192.9375 317.898438 1194.59375 C 321.28125 1196.25 324.152344 1198.382813 326.507813 1200.996094 C 328.859375 1203.609375 330.703125 1206.515625 332.023438 1209.714844 C 333.347656 1212.914063 334.011719 1216.0625 334.011719 1219.152344 C 334.011719 1222.460938 333.347656 1224.871094 332.023438 1226.378906 C 330.703125 1227.890625 329.078125 1228.644531 327.167969 1228.644531 L 301.003906 1228.644531 C 298.09375 1228.644531 297.269531 1231.878906 299.140625 1234.113281 C 300.613281 1235.871094 303.367188 1238.132813 307.632813 1238.132813 C 309.03125 1238.132813 310.429688 1237.898438 311.828125 1237.417969 C 313.226563 1236.941406 314.476563 1236.332031 315.578125 1235.597656 C 317.050781 1234.640625 318.449219 1234.160156 319.773438 1234.160156 "/>
<path style=" stroke:none;fill-rule:nonzero;fill:rgb(84.764099%,26.660156%,26.660156%);fill-opacity:1;" d="M 544.988281 1250.851563 C 542.5625 1250.851563 540.5 1250.007813 538.808594 1248.316406 C 537.113281 1246.625 536.269531 1244.5625 536.269531 1242.132813 L 536.269531 1177.128906 C 536.269531 1174.699219 537.113281 1172.640625 538.808594 1170.949219 C 540.5 1169.253906 542.5625 1168.410156 544.988281 1168.410156 C 547.417969 1168.410156 549.476563 1169.253906 551.171875 1170.949219 C 552.863281 1172.640625 553.710938 1174.699219 553.710938 1177.128906 L 553.710938 1242.132813 C 553.710938 1244.5625 552.863281 1246.625 551.171875 1248.316406 C 549.476563 1250.007813 547.417969 1250.851563 544.988281 1250.851563 "/>
<path style=" stroke:none;fill-rule:nonzero;fill:rgb(84.764099%,26.660156%,26.660156%);fill-opacity:1;" d="M 434.128906 1243.027344 C 434.128906 1245.457031 433.28125 1247.515625 431.589844 1249.207031 C 429.894531 1250.902344 427.835938 1251.746094 425.40625 1251.746094 C 422.980469 1251.746094 420.917969 1250.902344 419.226563 1249.207031 C 417.535156 1247.515625 416.691406 1245.457031 416.691406 1243.027344 L 416.691406 1216.097656 C 416.691406 1212.566406 415.988281 1209.972656 414.59375 1208.316406 C 413.191406 1206.660156 411.316406 1205.832031 408.964844 1205.832031 C 407.492188 1205.832031 406.148438 1206.148438 404.933594 1206.769531 C 403.722656 1207.398438 402.671875 1208.242188 401.789063 1209.308594 C 400.90625 1210.378906 400.226563 1211.609375 399.746094 1213.007813 C 399.269531 1214.40625 399.03125 1215.914063 399.03125 1217.53125 L 399.03125 1243.027344 C 399.03125 1245.382813 398.164063 1247.425781 396.4375 1249.152344 C 394.707031 1250.882813 392.664063 1251.746094 390.3125 1251.746094 C 387.882813 1251.746094 385.804688 1250.882813 384.074219 1249.152344 C 382.347656 1247.425781 381.480469 1245.382813 381.480469 1243.027344 L 381.480469 1200.425781 C 381.480469 1198.144531 382.273438 1196.214844 383.855469 1194.632813 C 385.4375 1193.050781 387.367188 1192.257813 389.648438 1192.257813 C 391.78125 1192.257813 393.640625 1192.992188 395.222656 1194.464844 C 396.003906 1195.191406 396.609375 1196.011719 397.042969 1196.917969 C 397.621094 1198.140625 399.246094 1198.378906 400.269531 1197.488281 C 401.632813 1196.308594 403.148438 1195.28125 404.824219 1194.410156 C 407.585938 1192.976563 410.617188 1192.257813 413.929688 1192.257813 C 417.460938 1192.257813 420.71875 1193.125 423.695313 1194.851563 C 425.90625 1196.132813 427.78125 1197.710938 429.324219 1199.578125 C 430.105469 1200.527344 431.589844 1200.558594 432.410156 1199.640625 C 434.105469 1197.746094 436.113281 1196.148438 438.433594 1194.851563 C 441.523438 1193.125 444.90625 1192.257813 448.585938 1192.257813 C 451.453125 1192.257813 454.140625 1192.808594 456.640625 1193.914063 C 459.144531 1195.015625 461.332031 1196.507813 463.210938 1198.382813 C 465.085938 1200.261719 466.558594 1202.449219 467.625 1204.949219 C 468.691406 1207.453125 469.226563 1210.136719 469.226563 1213.007813 L 469.226563 1243.027344 C 469.226563 1245.457031 468.378906 1247.515625 466.6875 1249.207031 C 464.992188 1250.902344 462.933594 1251.746094 460.507813 1251.746094 C 458.078125 1251.746094 456.015625 1250.902344 454.324219 1249.207031 C 452.632813 1247.515625 451.785156 1245.457031 451.785156 1243.027344 L 451.785156 1216.097656 C 451.785156 1212.785156 451.070313 1210.25 449.636719 1208.480469 C 448.199219 1206.714844 446.304688 1205.832031 443.949219 1205.832031 C 442.550781 1205.832031 441.246094 1206.148438 440.03125 1206.769531 C 438.816406 1207.398438 437.769531 1208.242188 436.886719 1209.308594 C 436.003906 1210.378906 435.320313 1211.609375 434.84375 1213.007813 C 434.363281 1214.40625 434.128906 1215.914063 434.128906 1217.53125 "/>
<path style=" stroke:none;fill-rule:nonzero;fill:rgb(84.764099%,26.660156%,26.660156%);fill-opacity:1;" d="M 634.507813 1191.152344 C 636.9375 1191.152344 638.847656 1191.941406 640.246094 1193.523438 C 640.679688 1194.015625 641.042969 1194.519531 641.34375 1195.039063 C 642.171875 1196.484375 644.097656 1196.859375 645.378906 1195.789063 C 646.585938 1194.785156 647.855469 1193.917969 649.1875 1193.191406 C 651.6875 1191.832031 654.445313 1191.152344 657.464844 1191.152344 C 660.113281 1191.152344 662.632813 1191.703125 665.027344 1192.808594 C 667.414063 1193.910156 669.492188 1195.402344 671.261719 1197.277344 C 673.027344 1199.152344 674.425781 1201.34375 675.453125 1203.84375 C 676.484375 1206.347656 677 1209.03125 677 1211.902344 L 677 1242.253906 C 677 1244.609375 676.1875 1246.59375 674.570313 1248.210938 C 672.953125 1249.832031 670.964844 1250.640625 668.613281 1250.640625 C 666.257813 1250.640625 664.253906 1249.832031 662.597656 1248.210938 C 660.941406 1246.59375 660.113281 1244.609375 660.113281 1242.253906 L 660.113281 1214.882813 C 660.113281 1208.113281 657.757813 1204.726563 653.050781 1204.726563 C 650.472656 1204.726563 648.152344 1204.761719 646.410156 1206.554688 C 644.347656 1208.671875 643.59375 1211.785156 643.558594 1214.652344 L 643.558594 1241.921875 C 643.558594 1244.277344 642.691406 1246.320313 640.964844 1248.046875 C 639.234375 1249.777344 637.195313 1250.640625 634.839844 1250.640625 C 632.410156 1250.640625 630.332031 1249.777344 628.605469 1248.046875 C 626.871094 1246.320313 626.007813 1244.277344 626.007813 1241.921875 L 626.007813 1199.320313 C 626.007813 1197.039063 626.820313 1195.105469 628.4375 1193.523438 C 630.054688 1191.941406 632.078125 1191.152344 634.507813 1191.152344 "/>
<path style=" stroke:none;fill-rule:nonzero;fill:rgb(84.764099%,26.660156%,26.660156%);fill-opacity:1;" d="M 599.6875 1221.582031 C 599.6875 1218.859375 599.355469 1216.46875 598.695313 1214.40625 C 598.035156 1212.347656 597.164063 1210.636719 596.101563 1209.273438 C 595.035156 1207.914063 593.839844 1206.886719 592.515625 1206.183594 C 591.1875 1205.484375 589.902344 1205.136719 588.652344 1205.136719 C 587.398438 1205.136719 586.113281 1205.484375 584.789063 1206.183594 C 583.464844 1206.886719 582.285156 1207.933594 581.253906 1209.332031 C 580.226563 1210.730469 579.378906 1212.460938 578.71875 1214.519531 C 578.058594 1216.578125 577.726563 1218.933594 577.726563 1221.582031 C 577.726563 1224.230469 578.039063 1226.546875 578.664063 1228.535156 C 579.289063 1230.519531 580.132813 1232.195313 581.203125 1233.558594 C 582.269531 1234.917969 583.464844 1235.929688 584.789063 1236.59375 C 586.113281 1237.253906 587.4375 1237.585938 588.761719 1237.585938 C 590.085938 1237.585938 591.390625 1237.253906 592.679688 1236.59375 C 593.964844 1235.929688 595.144531 1234.917969 596.210938 1233.558594 C 597.277344 1232.195313 598.125 1230.519531 598.75 1228.535156 C 599.375 1226.546875 599.6875 1224.230469 599.6875 1221.582031 M 617.125 1221.359375 C 617.125 1225.480469 616.410156 1229.347656 614.976563 1232.949219 C 613.539063 1236.554688 611.550781 1239.703125 609.015625 1242.386719 C 606.476563 1245.074219 603.476563 1247.1875 600.019531 1248.730469 C 596.5625 1250.277344 592.808594 1251.050781 588.761719 1251.050781 C 584.714844 1251.050781 580.941406 1250.277344 577.449219 1248.730469 C 573.953125 1247.1875 570.9375 1245.074219 568.398438 1242.386719 C 565.859375 1239.703125 563.875 1236.554688 562.4375 1232.949219 C 561.003906 1229.347656 560.285156 1225.480469 560.285156 1221.359375 C 560.285156 1217.3125 561.003906 1213.488281 562.4375 1209.882813 C 563.875 1206.277344 565.859375 1203.113281 568.398438 1200.390625 C 570.9375 1197.671875 573.953125 1195.535156 577.449219 1193.988281 C 580.941406 1192.445313 584.714844 1191.671875 588.761719 1191.671875 C 592.808594 1191.671875 596.5625 1192.445313 600.019531 1193.988281 C 603.476563 1195.535156 606.476563 1197.671875 609.015625 1200.390625 C 611.550781 1203.113281 613.539063 1206.277344 614.976563 1209.882813 C 616.410156 1213.488281 617.125 1217.3125 617.125 1221.359375 "/>
<path style=" stroke:none;fill-rule:nonzero;fill:rgb(84.764099%,26.660156%,26.660156%);fill-opacity:1;" d="M 355.96875 1198.023438 C 356.296875 1199.109375 357.648438 1199.15625 358.246094 1198.195313 C 359.160156 1196.726563 360.378906 1195.664063 361.335938 1194.894531 C 362.292969 1194.121094 363.285156 1193.496094 364.316406 1193.015625 C 365.347656 1192.539063 366.449219 1192.296875 367.628906 1192.296875 C 369.613281 1192.296875 371.363281 1193 372.871094 1194.394531 C 374.378906 1195.796875 375.132813 1197.558594 375.132813 1199.691406 C 375.132813 1201.460938 374.5625 1203.132813 373.421875 1204.714844 C 372.28125 1206.296875 370.570313 1207.089844 368.289063 1207.089844 C 366.597656 1207.089844 365.105469 1207.585938 363.820313 1208.578125 C 362.53125 1209.570313 361.445313 1210.894531 360.566406 1212.550781 C 359.683594 1214.207031 359.019531 1216.085938 358.578125 1218.179688 C 358.136719 1220.277344 357.914063 1222.429688 357.914063 1224.636719 L 357.914063 1243.070313 C 357.914063 1245.425781 357.050781 1247.464844 355.320313 1249.195313 C 353.59375 1250.921875 351.550781 1251.789063 349.195313 1251.789063 C 346.769531 1251.789063 344.6875 1250.921875 342.960938 1249.195313 C 341.230469 1247.464844 340.367188 1245.425781 340.367188 1243.070313 L 340.367188 1200.464844 C 340.367188 1198.1875 341.15625 1196.253906 342.738281 1194.671875 C 344.320313 1193.089844 346.253906 1192.296875 348.535156 1192.296875 C 350.667969 1192.296875 352.523438 1193.035156 354.109375 1194.503906 C 354.914063 1195.257813 355.535156 1196.597656 355.96875 1198.023438 "/>
<path style=" stroke:none;fill-rule:nonzero;fill:rgb(84.764099%,26.660156%,26.660156%);fill-opacity:1;" d="M 238.917969 1203.761719 C 237.746094 1202.617188 237.207031 1201.152344 237.207031 1199.457031 C 237.207031 1197.765625 237.757813 1196.332031 238.917969 1195.210938 C 239.644531 1194.507813 240.683594 1194.09375 241.636719 1193.847656 C 243.074219 1193.480469 244.050781 1192.144531 244.050781 1190.660156 L 244.050781 1183.675781 C 244.050781 1181.246094 244.894531 1179.1875 246.589844 1177.496094 C 248.28125 1175.804688 250.34375 1174.957031 252.769531 1174.957031 C 255.199219 1174.957031 257.257813 1175.804688 258.949219 1177.496094 C 260.640625 1179.1875 261.488281 1181.246094 261.488281 1183.675781 L 261.488281 1190.183594 C 261.488281 1192.015625 262.976563 1193.5 264.804688 1193.5 L 269.105469 1193.5 C 270.796875 1193.5 272.230469 1194.070313 273.40625 1195.210938 C 274.585938 1196.351563 275.175781 1197.765625 275.175781 1199.457031 C 275.175781 1201.152344 274.585938 1202.585938 273.40625 1203.761719 C 272.230469 1204.941406 270.796875 1205.527344 269.105469 1205.527344 L 264.804688 1205.527344 C 262.976563 1205.527344 261.488281 1207.011719 261.488281 1208.84375 L 261.488281 1233.5625 C 261.488281 1235.035156 261.636719 1236.042969 261.929688 1236.597656 C 262.222656 1237.148438 262.886719 1237.425781 263.917969 1237.425781 L 267.117188 1237.425781 C 269.03125 1237.425781 270.648438 1238.085938 271.972656 1239.410156 C 273.300781 1240.734375 273.960938 1242.355469 273.960938 1244.269531 C 273.960938 1246.183594 273.300781 1247.78125 271.972656 1249.070313 C 270.648438 1250.355469 269.03125 1251 267.117188 1251 L 259.613281 1251 C 254.683594 1251 250.855469 1249.785156 248.136719 1247.359375 C 245.410156 1244.929688 244.050781 1241.03125 244.050781 1235.660156 L 244.050781 1208.460938 C 244.050781 1206.957031 243.035156 1205.660156 241.589844 1205.257813 C 240.714844 1205.015625 239.746094 1204.570313 238.917969 1203.761719 "/>
<path style=" stroke:none;fill-rule:nonzero;fill:rgb(84.764099%,26.660156%,26.660156%);fill-opacity:1;" d="M 522.078125 139.871094 C 523.277344 134.890625 525.867188 130.851563 529.859375 127.75 C 533.851563 124.660156 538.433594 123.109375 543.628906 123.109375 C 550.007813 123.109375 555.296875 125.308594 559.484375 129.691406 C 563.675781 134.089844 565.773438 139.269531 565.773438 145.261719 C 565.773438 147.648438 565.472656 149.851563 564.871094 151.839844 L 531.953125 264.660156 C 530.160156 270.449219 526.765625 275.179688 521.777344 278.871094 C 516.035156 283.121094 509.636719 284.929688 502.570313 284.28125 C 497.636719 283.839844 492.855469 282.03125 488.820313 279.140625 C 482.945313 274.941406 479.371094 269.410156 478.089844 262.558594 L 470.878906 216.390625 C 470.242188 212.328125 464.390625 212.328125 463.753906 216.390625 L 456.539063 262.558594 C 455.359375 268.859375 452.242188 274.039063 447.183594 278.101563 C 442.140625 282.148438 435.773438 284.410156 429.304688 284.410156 C 423.121094 284.410156 417.535156 282.558594 412.550781 278.871094 C 407.5625 275.179688 404.269531 270.449219 402.675781 264.660156 L 369.757813 151.839844 C 369.15625 149.851563 368.859375 147.648438 368.859375 145.261719 C 368.859375 139.269531 370.953125 134.089844 375.144531 129.691406 C 379.332031 125.308594 384.617188 123.109375 391.003906 123.109375 C 396.191406 123.109375 400.730469 124.660156 404.621094 127.75 C 408.511719 130.851563 411.152344 134.890625 412.550781 139.871094 L 428.246094 209.390625 C 429.015625 212.808594 433.921875 212.710938 434.558594 209.269531 L 447.5625 138.96875 C 448.558594 134.390625 450.953125 130.589844 454.746094 127.601563 C 458.535156 124.609375 462.828125 123.109375 467.613281 123.109375 C 472.199219 123.109375 476.390625 124.609375 480.183594 127.601563 C 483.972656 130.589844 486.363281 134.390625 487.363281 138.96875 L 499.824219 207.859375 C 500.511719 211.648438 505.90625 211.769531 506.75 208.011719 "/>
<path style=" stroke:none;fill-rule:nonzero;fill:rgb(84.764099%,26.660156%,26.660156%);fill-opacity:1;" d="M 221.289063 1196.03125 C 223.722656 1196.03125 225.824219 1196.941406 227.589844 1198.75 C 229.167969 1200.363281 230.007813 1202.5625 230.007813 1204.820313 L 230.007813 1242.277344 C 230.007813 1244.632813 229.160156 1246.65625 227.46875 1248.347656 C 225.773438 1250.042969 223.753906 1250.886719 221.398438 1250.886719 C 220 1250.886719 216.886719 1250.117188 215.570313 1247.855469 C 214.398438 1245.835938 211.699219 1245.417969 210.042969 1247.066406 C 208.957031 1248.148438 207.773438 1249.132813 206.496094 1249.507813 C 203.628906 1250.351563 201.054688 1250.777344 198.773438 1250.777344 C 191.191406 1250.777344 185.671875 1248.089844 180.300781 1242.71875 C 174.929688 1237.347656 172.242188 1230.875 172.242188 1223.296875 C 172.242188 1215.71875 174.929688 1209.261719 180.300781 1203.925781 C 185.671875 1198.589844 191.191406 1195.925781 198.773438 1195.925781 C 201.054688 1195.925781 203.644531 1196.347656 206.554688 1197.191406 C 207.867188 1197.574219 209.078125 1198.386719 210.1875 1199.277344 C 211.953125 1200.695313 214.507813 1200.289063 215.820313 1198.445313 C 217.246094 1196.449219 219.890625 1196.03125 221.289063 1196.03125 "/>
<path style=" stroke:none;fill-rule:nonzero;fill:rgb(100%,100%,100%);fill-opacity:1;" d="M 188.769531 1223.351563 C 188.769531 1225.558594 189.027344 1227.582031 189.542969 1229.421875 C 190.058594 1231.261719 190.757813 1232.878906 191.640625 1234.277344 C 192.523438 1235.675781 193.570313 1236.761719 194.785156 1237.53125 C 196 1238.304688 197.304688 1238.691406 198.703125 1238.691406 C 200.101563 1238.691406 201.410156 1238.304688 202.621094 1237.53125 C 203.835938 1236.761719 204.882813 1235.675781 205.769531 1234.277344 C 206.648438 1232.878906 207.347656 1231.261719 207.863281 1229.421875 C 208.378906 1227.582031 208.636719 1225.558594 208.636719 1223.351563 C 208.636719 1221.144531 208.378906 1219.121094 207.863281 1217.28125 C 207.347656 1215.441406 206.648438 1213.839844 205.769531 1212.480469 C 204.882813 1211.117188 203.835938 1210.050781 202.621094 1209.277344 C 201.410156 1208.503906 200.101563 1208.121094 198.703125 1208.121094 C 197.304688 1208.121094 196 1208.503906 194.785156 1209.277344 C 193.570313 1210.050781 192.523438 1211.117188 191.640625 1212.480469 C 190.757813 1213.839844 190.058594 1215.441406 189.542969 1217.28125 C 189.027344 1219.121094 188.769531 1221.144531 188.769531 1223.351563 "/>
</g>
</svg>
