<?xml version="1.0" encoding="UTF-8"?>
<svg xmlns="http://www.w3.org/2000/svg" xmlns:xlink="http://www.w3.org/1999/xlink" width="750pt" height="1334pt" viewBox="0 0 750 1334" version="1.1">
<g id="surface1">
<path style=" stroke:none;fill-rule:nonzero;fill:rgb(92.96875%,80.46875%,78.514099%);fill-opacity:1;" d="M 473.84375 507.726563 C 466.835938 497.910156 452.34375 490.84375 443.4375 482.6875 C 434.46875 474.472656 424.785156 467.789063 415.34375 460.222656 C 412.730469 458.128906 410.117188 454.996094 407.410156 451.769531 C 407.414063 451.730469 407.417969 451.699219 407.425781 451.660156 C 408.496094 445.898438 403.632813 442.089844 398.871094 442.742188 C 393.972656 438.703125 388.554688 436.894531 382.175781 441.441406 C 372.175781 448.570313 364.460938 458.65625 354.761719 466.613281 C 351.851563 468.0625 349.144531 469.386719 346.824219 470.347656 L 299.757813 489.773438 C 297.136719 490.855469 295.628906 492.828125 295.066406 494.984375 C 294.996094 495.140625 294.90625 495.261719 294.839844 495.425781 C 278.144531 537.371094 296.429688 590.828125 341.144531 604.304688 C 385.398438 617.640625 434.390625 604.628906 459.890625 565.253906 C 469.207031 550.867188 486.09375 524.882813 473.84375 507.726563 "/>
<path style=" stroke:none;fill-rule:nonzero;fill:rgb(84.764099%,21.166992%,12.939453%);fill-opacity:1;" d="M 519.902344 656.566406 C 522.339844 643.328125 514 639.582031 502.488281 637.304688 C 502.695313 628.433594 492.410156 627.125 485.441406 625.707031 C 488.261719 619.417969 486.320313 612.738281 487.25 605.960938 C 487.941406 600.914063 491.128906 597.203125 489.222656 591.734375 C 488.339844 589.195313 486.519531 586.9375 484.371094 585.261719 C 487.921875 581.714844 490.539063 578.402344 490.691406 573.121094 C 490.839844 567.839844 487.589844 561.78125 487.214844 556.796875 C 486.613281 548.878906 490.496094 542.304688 489.90625 534.726563 C 489.714844 532.253906 487.246094 529.132813 487.179688 527.261719 C 486.816406 517.269531 491.585938 516.421875 494.292969 508.300781 C 495.167969 505.683594 494.550781 504.039063 494.738281 501.035156 C 495.121094 495.011719 493.675781 484.050781 492.714844 478.945313 C 491.386719 471.894531 488.421875 473.332031 486.011719 468.144531 C 482.882813 461.414063 485.484375 453.800781 479.671875 448.304688 C 477.386719 446.148438 473.398438 446.6875 471.09375 445.125 C 462.523438 439.304688 462.898438 432.804688 456.476563 426.148438 C 452.398438 421.929688 447.929688 421.488281 442.445313 421.421875 C 439.621094 412.628906 433.929688 408.492188 425.234375 406.140625 C 417.71875 404.109375 412.703125 404.589844 405.171875 400.957031 C 403.523438 400.164063 400.386719 397.523438 397.914063 396.898438 C 393.785156 395.851563 391.023438 397.941406 386.574219 397.578125 C 370.371094 396.257813 365.714844 390.136719 351.101563 401.722656 C 342.019531 408.921875 342.128906 408.570313 329.824219 408.492188 C 328.527344 408.484375 326.054688 407.222656 324.515625 407.628906 C 319.398438 408.980469 316.820313 410.46875 313.050781 414.621094 C 306.253906 422.117188 311.183594 421.335938 298.292969 427.371094 C 296.859375 428.042969 293.304688 427.851563 291.6875 429.292969 C 289.148438 431.554688 286.839844 433.585938 285.664063 437.089844 C 282.882813 445.382813 284.5 453.484375 277.882813 460.332031 C 274.574219 463.757813 269.953125 464.019531 267.6875 468.929688 C 265.152344 474.429688 268.242188 480.421875 266.738281 486.332031 C 265.660156 490.566406 261.453125 492.644531 259.175781 496.527344 C 254.152344 505.089844 253.929688 513.554688 257.753906 522.796875 C 257.722656 522.941406 257.691406 523.03125 257.660156 523.152344 C 251.191406 530.105469 250.160156 536.699219 250.203125 545.921875 C 247.273438 550.5625 246.886719 554.792969 248.320313 560.054688 C 248.257813 560.257813 248.203125 560.421875 248.132813 560.628906 C 243.433594 574.355469 242.878906 583.617188 254.636719 593.570313 C 254.683594 593.738281 254.738281 593.902344 254.785156 594.070313 C 253.605469 595.367188 252.601563 596.730469 251.769531 598.273438 C 248.675781 603.824219 249.371094 608.3125 251.980469 613.894531 C 248.578125 613.167969 245.488281 612.144531 242.132813 613.636719 C 234.335938 617.101563 237.523438 622.089844 233.78125 627.46875 C 230.296875 632.476563 225.050781 629.933594 221.320313 634.890625 C 217.703125 639.695313 218.929688 645.753906 221.1875 651.304688 C 213.390625 655.175781 207.074219 660.375 208.472656 669.871094 C 209.785156 678.785156 216.753906 682.371094 225.15625 682.078125 C 226.472656 688.660156 228.996094 694.59375 234.980469 697.945313 C 241.847656 701.789063 248.960938 698.796875 256.0625 700.269531 C 262.617188 701.628906 266.195313 705.210938 272.539063 701.140625 C 276.3125 698.722656 277.804688 694.8125 278.164063 690.460938 C 289.945313 690.492188 298.066406 681.835938 289.550781 671.34375 C 297.152344 663.511719 295.441406 658.53125 287.453125 652.09375 C 295.804688 644.574219 292.058594 639.480469 284.730469 633.257813 C 275.953125 625.8125 281.210938 629.585938 287.621094 628.933594 C 290.964844 628.589844 292.433594 625.839844 293.664063 623.167969 C 300.367188 623.402344 304.441406 620.910156 305.960938 614.171875 C 311.257813 614.429688 315.050781 613.128906 317.765625 608.449219 C 320.578125 603.59375 321.578125 598.519531 323.695313 593.460938 C 322.304688 592.09375 321.023438 590.679688 319.796875 589.183594 C 318.746094 588.386719 317.816406 587.53125 317.035156 586.46875 C 293.828125 562.945313 290.136719 529.101563 297.050781 497.90625 C 303.007813 496.972656 306.820313 494.214844 309.785156 488.980469 C 316.699219 492.8125 322.671875 491.113281 326.339844 484.082031 C 335.109375 487.480469 341.410156 484.574219 345.429688 476.199219 C 357.34375 480.128906 362.476563 472.730469 366.039063 462.320313 C 375.003906 463.523438 383.445313 462.515625 385.644531 452.539063 C 393.1875 452.976563 397.644531 450.097656 401.804688 443.925781 C 401.980469 444.054688 402.171875 444.15625 402.355469 444.265625 C 402.394531 444.890625 402.421875 445.515625 402.453125 446.140625 C 401.0625 456.605469 402.53125 464.191406 414.921875 461.8125 C 415.128906 473.886719 418.335938 477.074219 430.449219 475.8125 C 431.714844 477.3125 433.003906 478.777344 434.335938 480.21875 C 437.398438 488.910156 444.46875 489.414063 452.800781 489.546875 C 452.488281 493.023438 452.414063 495.847656 454.109375 499.125 C 456.136719 503.050781 459.917969 504.964844 463.996094 506.507813 C 464.449219 533.230469 458.003906 561.148438 438.699219 580.65625 C 437.964844 581.710938 437.238281 582.757813 436.441406 583.761719 C 434.171875 586.613281 431.515625 589.121094 429.136719 591.878906 C 428.058594 593.128906 427.164063 594.539063 426.078125 595.789063 C 427.3125 599.914063 428.398438 603.515625 431.554688 606.582031 C 428.226563 618.691406 433.535156 621.429688 441.839844 629.03125 C 443.511719 630.5625 444.890625 632.191406 446.414063 633.839844 C 446.839844 635.914063 447.347656 637.964844 447.9375 640.003906 C 441.382813 646.476563 440.578125 653.511719 444.714844 661.652344 C 428.421875 670.183594 437.691406 686.863281 450.371094 693.378906 C 446.078125 718.960938 485.371094 718.113281 495.609375 701.347656 C 510.78125 707.371094 516.769531 693.648438 516.992188 680.707031 C 530.589844 675.804688 532.824219 664.234375 519.902344 656.566406 "/>
<path style=" stroke:none;fill-rule:nonzero;fill:rgb(94.921875%,28.24707%,15.281677%);fill-opacity:1;" d="M 334.398438 531.746094 C 338.308594 523.972656 347.871094 522.902344 353.503906 529.523438 C 356.378906 532.902344 361.242188 528.023438 358.382813 524.664063 C 349.992188 514.804688 334.273438 516.703125 328.464844 528.257813 C 326.480469 532.207031 332.40625 535.710938 334.398438 531.746094 "/>
<path style=" stroke:none;fill-rule:nonzero;fill:rgb(94.921875%,28.24707%,15.281677%);fill-opacity:1;" d="M 412.574219 529.640625 C 408.703125 521.847656 399.144531 520.730469 393.480469 527.324219 C 390.589844 530.6875 385.753906 525.785156 388.625 522.441406 C 397.066406 512.621094 412.773438 514.59375 418.527344 526.179688 C 420.496094 530.136719 414.550781 533.613281 412.574219 529.640625 "/>
<path style=" stroke:none;fill-rule:nonzero;fill:rgb(91.796875%,55.271912%,50.584412%);fill-opacity:1;" d="M 339.835938 549.234375 C 337.847656 543.605469 327.898438 543.953125 323.234375 544.488281 C 322.859375 544.53125 322.527344 544.636719 322.21875 544.765625 C 321.441406 544.695313 320.648438 544.746094 319.816406 545.015625 C 317.652344 545.71875 316.054688 547.515625 315.984375 549.847656 C 315.78125 556.894531 324.796875 555.929688 329.359375 555.910156 C 333.210938 555.898438 342.191406 555.886719 339.835938 549.234375 "/>
<path style=" stroke:none;fill-rule:nonzero;fill:rgb(91.796875%,55.271912%,50.584412%);fill-opacity:1;" d="M 427.046875 549.441406 C 425.058594 543.8125 415.109375 544.160156 410.445313 544.695313 C 410.070313 544.738281 409.738281 544.84375 409.429688 544.972656 C 408.652344 544.902344 407.859375 544.953125 407.027344 545.222656 C 404.863281 545.925781 403.261719 547.722656 403.195313 550.054688 C 402.992188 557.101563 412.003906 556.136719 416.566406 556.121094 C 420.421875 556.105469 429.398438 556.097656 427.046875 549.441406 "/>
<path style=" stroke:none;fill-rule:nonzero;fill:rgb(94.921875%,28.24707%,15.281677%);fill-opacity:1;" d="M 375.75 559.105469 C 374.972656 558.980469 374.136719 559.105469 373.351563 559.449219 C 368.972656 561.382813 368.101563 567.808594 371.203125 571.199219 C 374.640625 574.949219 381.105469 573.414063 383.175781 568.996094 C 385.480469 564.074219 380.988281 558.183594 375.75 559.105469 "/>
<path style=" stroke:none;fill-rule:nonzero;fill:rgb(77.734375%,77.734375%,77.734375%);fill-opacity:1;" d="M 620.53125 645.511719 C 620.207031 638.824219 617.835938 631.890625 612.359375 627.226563 C 606.898438 622.585938 600.1875 619.65625 592.628906 619.65625 L 166.492188 619.65625 C 159.339844 619.65625 151.820313 622.539063 146.761719 627.226563 C 141.925781 631.714844 138.277344 639.070313 138.589844 645.511719 C 138.914063 652.199219 141.285156 659.136719 146.761719 663.796875 C 148.542969 665.3125 150.460938 666.640625 152.492188 667.746094 C 149.914063 671.710938 148.410156 676.167969 148.410156 681 L 148.410156 876.644531 C 148.410156 876.734375 148.414063 876.824219 148.417969 876.914063 C 148.394531 877.433594 148.386719 877.953125 148.410156 878.464844 C 148.730469 885.152344 151.101563 892.085938 156.582031 896.746094 C 162.039063 901.390625 168.75 904.320313 176.308594 904.320313 L 589.683594 904.320313 C 590.003906 904.320313 590.320313 904.308594 590.640625 904.296875 C 591.308594 904.332031 591.976563 904.347656 592.628906 904.320313 C 599.84375 904.023438 607.328125 901.824219 612.359375 896.746094 C 617.371094 891.6875 620.53125 885.46875 620.53125 878.464844 L 620.53125 664.621094 C 620.53125 661.433594 619.804688 658.167969 618.492188 655.117188 C 619.894531 651.988281 620.683594 648.640625 620.53125 645.511719 "/>
<path style=" stroke:none;fill-rule:nonzero;fill:rgb(94.921875%,94.921875%,94.921875%);fill-opacity:1;" d="M 266.875 661.824219 C 266.519531 653.851563 260.40625 647.105469 252.15625 647.105469 C 244.457031 647.105469 237.078125 653.878906 237.4375 661.824219 C 237.792969 669.800781 243.902344 676.546875 252.15625 676.546875 C 259.855469 676.546875 267.230469 669.773438 266.875 661.824219 "/>
<path style=" stroke:none;fill-rule:nonzero;fill:rgb(94.921875%,94.921875%,94.921875%);fill-opacity:1;" d="M 494.613281 658.890625 C 494.253906 650.914063 488.144531 644.171875 479.890625 644.171875 C 472.191406 644.171875 464.816406 650.941406 465.171875 658.890625 C 465.53125 666.867188 471.640625 673.609375 479.890625 673.609375 C 487.59375 673.609375 494.96875 666.839844 494.613281 658.890625 "/>
<path style=" stroke:none;fill-rule:nonzero;fill:rgb(94.921875%,94.921875%,94.921875%);fill-opacity:1;" d="M 250.238281 712.496094 C 253.402344 710.566406 256.925781 707.832031 258.835938 702.964844 C 260.460938 698.816406 260.539063 693.847656 258.355469 691.90625 C 255.765625 689.601563 250.71875 692.289063 247.445313 694.296875 C 245.789063 695.3125 244.152344 696.53125 242.523438 697.746094 C 241.625 693.859375 240.53125 690.125 239.140625 686.777344 C 237.386719 682.542969 233.828125 679.972656 229.640625 683.894531 C 229.460938 684.066406 229.285156 684.242188 229.117188 684.425781 C 228.707031 684.726563 228.292969 685.191406 227.910156 685.839844 C 225.867188 689.292969 224.941406 692.902344 224.765625 696.433594 C 224.691406 697.578125 224.710938 698.699219 224.8125 699.75 C 225.101563 703.527344 226.152344 707.113281 227.492188 710.210938 L 206.027344 773.683594 C 203.957031 774.421875 201.878906 775.363281 199.8125 776.621094 C 196.652344 778.554688 193.128906 781.285156 191.21875 786.152344 C 189.59375 790.300781 189.515625 795.269531 191.699219 797.214844 C 194.285156 799.515625 199.335938 796.828125 202.609375 794.820313 C 204.265625 793.804688 205.898438 792.589844 207.53125 791.371094 C 208.429688 795.257813 209.523438 798.992188 210.910156 802.339844 C 212.667969 806.574219 216.226563 809.144531 220.414063 805.222656 C 220.59375 805.050781 220.769531 804.875 220.933594 804.695313 C 221.347656 804.390625 221.761719 803.925781 222.144531 803.277344 C 224.1875 799.824219 225.109375 796.214844 225.289063 792.683594 C 225.359375 791.539063 225.34375 790.417969 225.242188 789.367188 C 224.960938 785.695313 223.957031 782.203125 222.671875 779.164063 L 244.25 715.355469 C 246.246094 714.632813 248.25 713.710938 250.238281 712.496094 "/>
<path style=" stroke:none;fill-rule:nonzero;fill:rgb(94.921875%,94.921875%,94.921875%);fill-opacity:1;" d="M 200.46875 830.027344 C 203.394531 830.292969 206.730469 830.214844 209 827.996094 C 210.933594 826.101563 211.679688 822.945313 210.105469 820.652344 C 208.242188 817.9375 203.628906 817.257813 200.601563 816.988281 C 199.066406 816.851563 197.527344 816.859375 195.988281 816.863281 C 195.761719 813.933594 195.351563 811.011719 194.640625 808.195313 C 193.738281 804.632813 191.097656 801.285156 187.039063 801.8125 C 186.863281 801.835938 186.691406 801.867188 186.527344 801.902344 C 186.140625 801.902344 185.730469 802.003906 185.316406 802.238281 C 183.128906 803.484375 181.859375 805.363281 181.230469 807.550781 C 181.011719 808.257813 180.871094 808.984375 180.816406 809.710938 C 180.542969 812.273438 180.9375 815.085938 181.644531 817.714844 L 154.933594 848.3125 C 153.089844 847.800781 151.214844 847.414063 149.304688 847.238281 C 146.382813 846.972656 143.042969 847.050781 140.773438 849.273438 C 138.839844 851.164063 138.097656 854.324219 139.667969 856.613281 C 141.53125 859.332031 146.148438 860.007813 149.175781 860.277344 C 150.707031 860.414063 152.246094 860.410156 153.785156 860.40625 C 154.011719 863.335938 154.421875 866.257813 155.132813 869.070313 C 156.035156 872.632813 158.679688 875.984375 162.734375 875.457031 C 162.910156 875.433594 163.082031 875.402344 163.246094 875.363281 C 163.636719 875.367188 164.046875 875.265625 164.457031 875.03125 C 166.648438 873.785156 167.914063 871.902344 168.546875 869.714844 C 168.761719 869.011719 168.902344 868.285156 168.960938 867.558594 C 169.222656 865.0625 168.855469 862.339844 168.1875 859.769531 L 195.039063 829.011719 C 196.820313 829.496094 198.628906 829.859375 200.46875 830.027344 "/>
<path style=" stroke:none;fill-rule:nonzero;fill:rgb(94.921875%,94.921875%,94.921875%);fill-opacity:1;" d="M 491.859375 705.847656 C 488.480469 704.335938 484.632813 702.074219 482.125 697.488281 C 479.984375 693.578125 479.277344 688.660156 481.195313 686.453125 C 483.46875 683.839844 488.820313 685.867188 492.320313 687.445313 C 494.09375 688.242188 495.871094 689.242188 497.644531 690.242188 C 498.039063 686.269531 498.648438 682.429688 499.601563 678.933594 C 500.808594 674.507813 504.011719 671.507813 508.660156 674.867188 C 508.863281 675.015625 509.058594 675.164063 509.246094 675.324219 C 509.695313 675.574219 510.160156 675.980469 510.625 676.578125 C 513.089844 679.742188 514.464844 683.203125 515.089844 686.683594 C 515.304688 687.8125 515.429688 688.925781 515.464844 689.980469 C 515.65625 693.761719 515.070313 697.453125 514.132813 700.695313 L 543.480469 760.933594 C 545.628906 761.398438 547.8125 762.070313 550.019531 763.058594 C 553.398438 764.570313 557.242188 766.832031 559.753906 771.421875 C 561.894531 775.328125 562.601563 780.246094 560.683594 782.449219 C 558.40625 785.0625 553.058594 783.035156 549.554688 781.460938 C 547.785156 780.664063 546.007813 779.664063 544.234375 778.664063 C 543.839844 782.636719 543.230469 786.476563 542.273438 789.972656 C 541.070313 794.398438 537.867188 797.398438 533.21875 794.039063 C 533.011719 793.894531 532.820313 793.738281 532.632813 793.582031 C 532.183594 793.332031 531.714844 792.925781 531.253906 792.328125 C 528.789063 789.164063 527.414063 785.703125 526.789063 782.222656 C 526.570313 781.09375 526.445313 779.980469 526.414063 778.925781 C 526.226563 775.246094 526.777344 771.65625 527.671875 768.480469 L 498.164063 707.929688 C 496.09375 707.460938 493.988281 706.800781 491.859375 705.847656 "/>
<path style=" stroke:none;fill-rule:nonzero;fill:rgb(94.921875%,94.921875%,94.921875%);fill-opacity:1;" d="M 557.15625 818.175781 C 554.320313 818.925781 551.015625 819.410156 548.40625 817.597656 C 546.183594 816.058594 544.925781 813.066406 546.089844 810.546875 C 547.472656 807.554688 551.90625 806.113281 554.847656 805.34375 C 556.335938 804.949219 557.855469 804.699219 559.371094 804.445313 C 559.105469 801.519531 559.019531 798.570313 559.25 795.675781 C 559.542969 792.011719 561.589844 788.269531 565.675781 788.109375 C 565.855469 788.101563 566.027344 788.105469 566.195313 788.113281 C 566.578125 788.046875 567 788.078125 567.445313 788.238281 C 569.8125 789.101563 571.378906 790.742188 572.363281 792.796875 C 572.695313 793.453125 572.957031 794.148438 573.136719 794.851563 C 573.832031 797.335938 573.910156 800.171875 573.65625 802.882813 L 605.113281 828.578125 C 606.847656 827.765625 608.632813 827.070313 610.484375 826.578125 C 613.320313 825.828125 616.625 825.34375 619.234375 827.15625 C 621.457031 828.695313 622.71875 831.6875 621.554688 834.207031 C 620.171875 837.199219 615.734375 838.640625 612.792969 839.410156 C 611.304688 839.804688 609.785156 840.054688 608.269531 840.308594 C 608.535156 843.234375 608.621094 846.183594 608.390625 849.078125 C 608.097656 852.742188 606.054688 856.484375 601.96875 856.644531 C 601.789063 856.652344 601.613281 856.648438 601.445313 856.640625 C 601.0625 856.707031 600.640625 856.675781 600.195313 856.515625 C 597.828125 855.652344 596.261719 854.007813 595.277344 851.957031 C 594.945313 851.300781 594.683594 850.605469 594.507813 849.902344 C 593.828125 847.484375 593.734375 844.738281 593.964844 842.09375 L 562.34375 816.265625 C 560.671875 817.039063 558.945313 817.703125 557.15625 818.175781 "/>
<path style=" stroke:none;fill-rule:nonzero;fill:rgb(94.921875%,94.921875%,94.921875%);fill-opacity:1;" d="M 449.226563 649.425781 C 429.566406 639.429688 407.921875 635.433594 386.125 633.507813 C 375.15625 632.539063 364.101563 631.890625 353.09375 632.621094 C 341.738281 633.378906 330.441406 635.324219 319.414063 638.136719 C 307.480469 641.179688 295.835938 645.234375 284.363281 649.695313 C 280.203125 651.320313 276.855469 655.519531 278.378906 660.238281 C 279.6875 664.285156 284.449219 667.964844 288.921875 666.222656 C 298.863281 662.351563 308.9375 658.789063 319.21875 655.929688 C 324.214844 654.535156 329.257813 653.3125 334.34375 652.296875 C 336.746094 651.816406 339.160156 651.386719 341.582031 651.007813 C 342.253906 650.902344 342.929688 650.8125 343.601563 650.703125 C 343.6875 650.6875 343.757813 650.675781 343.816406 650.664063 C 343.914063 650.65625 344.023438 650.640625 344.15625 650.625 C 345.503906 650.460938 346.855469 650.300781 348.210938 650.164063 C 359.277344 649.0625 370.367188 649.429688 381.4375 650.261719 C 386.394531 650.636719 391.34375 651.101563 396.277344 651.714844 C 396.238281 651.710938 397.003906 651.8125 397.476563 651.871094 C 397.949219 651.9375 398.710938 652.042969 398.671875 652.039063 C 399.707031 652.1875 400.742188 652.347656 401.773438 652.511719 C 404.355469 652.925781 406.925781 653.386719 409.484375 653.90625 C 415.09375 655.046875 420.648438 656.460938 426.089844 658.242188 C 428.800781 659.132813 431.46875 660.128906 434.121094 661.1875 C 434.1875 661.214844 434.308594 661.265625 434.4375 661.320313 C 435.078125 661.605469 435.726563 661.886719 436.363281 662.179688 C 437.785156 662.828125 439.1875 663.515625 440.578125 664.222656 C 444.570313 666.253906 450.054688 665.402344 452.300781 661.148438 C 454.367188 657.242188 453.492188 651.597656 449.226563 649.425781 "/>
<path style=" stroke:none;fill-rule:nonzero;fill:rgb(94.921875%,94.921875%,94.921875%);fill-opacity:1;" d="M 368.851563 783.441406 C 368.746094 783.410156 368.640625 783.386719 368.535156 783.367188 C 368.644531 783.1875 368.753906 783.007813 368.855469 782.828125 C 368.855469 783.03125 368.855469 783.238281 368.851563 783.441406 M 314.5625 704.097656 C 314.597656 704.109375 314.648438 704.136719 314.6875 704.148438 C 314.179688 704.460938 314 703.902344 314.5625 704.097656 M 399.839844 808.71875 C 400.734375 808.660156 401.625 808.695313 402.527344 808.675781 C 410.367188 808.519531 418.703125 808.925781 426.441406 808.515625 C 433.972656 808.113281 441.609375 807.613281 448.628906 805.625 C 454.96875 803.828125 459.570313 801.472656 461.621094 794.664063 C 463.3125 789.066406 463.789063 781.914063 460.980469 776.675781 C 457.855469 770.863281 452.820313 769.796875 446.722656 770.722656 C 440.183594 771.714844 433.785156 774.648438 426.894531 776.003906 C 419.828125 777.390625 411.828125 778.410156 404.480469 777.714844 C 402.851563 777.5625 401.488281 777.253906 399.945313 776.871094 C 399.726563 776.796875 399.46875 776.761719 399.257813 776.660156 C 399.226563 776.644531 399.238281 776.558594 399.234375 776.496094 C 399.226563 776.226563 399.214844 775.949219 399.203125 775.664063 C 399.089844 772.257813 399.023438 769.152344 399.175781 765.59375 C 399.191406 765.207031 399.429688 763.578125 399.40625 762.996094 C 400.640625 763.160156 402.203125 763.0625 403.386719 763.089844 C 407.257813 763.183594 411.40625 763.269531 415.132813 763.136719 C 422.992188 762.863281 430.859375 762.394531 438.421875 761.09375 C 442.011719 760.480469 445.03125 759.914063 448.382813 758.960938 C 451.585938 758.050781 454.566406 757.664063 457.210938 755.203125 C 461.96875 750.777344 463.269531 743.890625 461.355469 737.5625 C 460.773438 735.644531 459.484375 734.710938 458.167969 733.5 C 457.230469 732.589844 456.53125 731.566406 455.339844 730.949219 C 449.226563 727.765625 443.703125 729.503906 437.363281 731.265625 C 430.492188 733.171875 423.65625 734.359375 416.503906 735.242188 C 413.261719 735.644531 409.628906 735.996094 406.261719 736.160156 C 403.820313 736.28125 400.484375 737.0625 398.429688 735.425781 C 395.519531 733.109375 396.261719 728.800781 396.222656 725.417969 C 396.203125 724.089844 395.839844 722.140625 396.960938 721.191406 C 398.460938 719.925781 401.914063 720.9375 403.527344 721 C 415.574219 721.460938 427.898438 722.046875 439.605469 719.90625 C 449.046875 718.179688 460.074219 714.8125 462.886719 704.296875 C 465.773438 693.515625 457.164063 685.296875 447.761719 683.570313 C 442.085938 682.53125 436.289063 684.257813 430.578125 685.753906 C 425.230469 687.160156 419.140625 689.035156 413.585938 689.894531 C 408.027344 690.753906 402.320313 691.1875 396.929688 690.273438 C 394.359375 689.839844 392.855469 689.128906 390.628906 688.058594 C 390.605469 688.046875 390.550781 688.003906 390.507813 687.984375 C 391.992188 683.339844 392.183594 679.1875 390.417969 674.632813 C 389.703125 672.785156 388.757813 671.464844 387.390625 670.128906 C 387.121094 669.859375 386.835938 669.648438 386.519531 669.40625 C 384.859375 668.132813 383.148438 667.285156 381.128906 666.8125 C 380.222656 666.605469 379.269531 666.546875 378.34375 666.503906 C 378.253906 666.496094 378.160156 666.503906 378.070313 666.5 C 377.980469 666.5 377.886719 666.496094 377.796875 666.496094 C 376.863281 666.527344 375.910156 666.574219 374.996094 666.773438 C 372.964844 667.214844 371.214844 668.046875 369.527344 669.289063 C 369.203125 669.527344 368.910156 669.738281 368.636719 669.992188 C 367.246094 671.289063 366.230469 672.640625 365.472656 674.4375 C 363.613281 678.855469 363.835938 683.160156 365.207031 687.714844 C 365.167969 687.726563 365.101563 687.773438 365.078125 687.785156 C 362.859375 688.683594 361.269531 689.46875 358.78125 689.835938 C 353.558594 690.609375 348.011719 690.273438 342.6875 689.5 C 337.363281 688.722656 331.980469 687.074219 326.808594 685.765625 C 321.289063 684.371094 315.78125 682.808594 310.144531 683.894531 C 300.820313 685.695313 292.253906 694.074219 295.234375 704.757813 C 298.140625 715.179688 309.460938 718.53125 318.507813 720.078125 C 329.726563 721.996094 340.621094 720.910156 351.9375 720.449219 C 353.453125 720.386719 356.640625 719.378906 358.03125 720.664063 C 359.070313 721.628906 358.710938 723.648438 358.65625 724.941406 C 358.519531 728.234375 359.410156 732.519531 356.898438 734.972656 C 355.121094 736.703125 352.386719 735.867188 350.167969 735.773438 C 347.113281 735.640625 343.890625 735.335938 340.824219 734.984375 C 334.054688 734.203125 327.519531 733.113281 320.90625 731.214844 C 314.800781 729.460938 309.136719 727.664063 303.160156 730.828125 C 302 731.4375 301.253906 732.449219 300.339844 733.355469 C 299.011719 734.558594 297.742188 735.492188 297.144531 737.402344 C 295.1875 743.703125 296.464844 750.621094 301.152344 755.078125 C 303.753906 757.554688 306.753906 757.960938 309.878906 758.902344 C 313.15625 759.886719 316.15625 760.511719 319.578125 761.125 C 326.796875 762.421875 334.410156 762.710938 341.765625 762.929688 C 345.253906 763.035156 348.675781 762.9375 352.164063 762.886719 C 353.234375 762.871094 354.421875 762.988281 355.496094 762.835938 C 355.464844 763.4375 355.496094 765.140625 355.457031 765.550781 C 355.074219 769.316406 354.976563 772.660156 354.867188 776.289063 C 354.859375 776.589844 354.875 776.878906 354.859375 777.164063 C 354.855469 777.230469 354.863281 777.320313 354.835938 777.335938 C 354.628906 777.445313 354.375 777.492188 354.164063 777.578125 C 352.800781 777.980469 351.695313 778.398438 350.234375 778.550781 C 343.648438 779.253906 337.28125 778.074219 330.847656 776.4375 C 324.574219 774.84375 318.328125 771.722656 312.019531 770.597656 C 306.136719 769.546875 300.746094 770.4375 297.507813 776.171875 C 294.59375 781.339844 294.910156 788.515625 296.449219 794.113281 C 298.316406 800.921875 303.085938 803.511719 309.167969 805.402344 C 315.898438 807.492188 323.058594 808.316406 330.113281 808.984375 C 337.359375 809.664063 344.746094 809.632813 352.03125 809.9375 C 352.867188 809.972656 353.71875 809.882813 354.566406 809.9375 C 354.613281 810.414063 354.996094 812.0625 355.035156 812.335938 C 355.628906 816.636719 355.398438 820.253906 354.828125 824.347656 C 354.695313 825.292969 354.582031 826.046875 354.402344 826.949219 C 354.371094 827.113281 354.378906 827.238281 354.257813 827.410156 C 353.664063 827.496094 350.945313 827.769531 350.6875 827.769531 C 346.949219 827.800781 343.421875 827.679688 340.132813 827.027344 C 332.953125 825.605469 326.429688 823.242188 319.851563 820.34375 C 316.054688 818.671875 312.84375 816.871094 308.714844 817.160156 C 306.441406 817.316406 304.800781 818.523438 303.078125 819.941406 C 301.796875 820.789063 300.722656 821.539063 299.777344 822.851563 C 298.195313 825.046875 297.660156 827.425781 297.929688 830.183594 C 297.972656 830.636719 297.921875 831.046875 297.992188 831.484375 C 298.445313 834.296875 299.523438 836.433594 301.433594 838.433594 C 301.476563 838.480469 301.484375 838.539063 301.519531 838.589844 C 305.191406 843.917969 309.746094 846.09375 315.726563 847.402344 C 318.914063 848.328125 321.875 849.046875 325.207031 849.511719 C 332.5625 850.546875 340.015625 850.761719 347.496094 850.601563 C 348.519531 850.578125 349.746094 850.546875 350.804688 850.492188 C 351.058594 850.480469 351.320313 850.445313 351.574219 850.402344 C 351.75 852.597656 351.988281 854.769531 352.128906 856.972656 C 352.226563 858.460938 352.191406 859.988281 352.007813 861.476563 C 351.917969 862.210938 351.914063 863.003906 351.765625 863.738281 C 350.261719 864.253906 348.128906 863.996094 346.714844 863.796875 C 343.515625 863.355469 340.320313 862.460938 337.488281 861.539063 C 332.226563 859.832031 327.910156 857.535156 322.421875 856.984375 C 318.058594 856.546875 314.101563 858.050781 311.554688 862.003906 C 311.289063 862.421875 311.195313 862.890625 311.003906 863.328125 C 310.460938 864.167969 309.933594 865.019531 309.660156 866.007813 C 308.957031 868.546875 309.179688 870.660156 310.515625 872.894531 C 311.332031 875.136719 312.566406 876.746094 314.363281 878.203125 C 316.808594 881.105469 319.695313 882.835938 323.109375 884.183594 C 324.464844 884.71875 325.890625 885.105469 327.246094 885.5625 C 327.847656 885.765625 328.453125 886.046875 329.039063 886.242188 C 335.878906 888.53125 344.039063 890.050781 350.867188 891.128906 C 365.140625 893.375 377.855469 894.035156 392.011719 891.640625 C 395.613281 891.03125 399.828125 890.105469 403.503906 889.355469 C 407.476563 888.980469 411.585938 888.511719 415.484375 887.964844 C 422.039063 887.046875 428.585938 886.109375 434.871094 884.300781 C 437.808594 883.453125 439.988281 882.242188 442.414063 880.4375 C 446.355469 877.992188 448.847656 875.222656 449.039063 870.207031 C 449.078125 869.144531 448.710938 868.121094 448.453125 867.113281 C 448.371094 865.539063 448.488281 864.109375 447.640625 862.660156 C 445.234375 858.535156 441.3125 856.914063 436.75 857.148438 C 431.019531 857.449219 426.035156 859.554688 420.363281 861.058594 C 417.3125 861.871094 413.746094 862.792969 410.355469 863.265625 C 408.855469 863.472656 406.6875 863.777344 405.101563 863.289063 C 404.964844 862.554688 404.945313 861.785156 404.90625 861.046875 C 404.824219 859.546875 404.546875 858.054688 404.597656 856.558594 C 404.671875 854.335938 404.910156 852.121094 405.019531 849.898438 C 405.285156 849.9375 405.550781 849.96875 405.820313 849.980469 C 406.914063 850.023438 408.238281 850.054688 409.300781 850.0625 C 417.074219 850.140625 425.121094 850.21875 432.730469 849.34375 C 439.789063 848.53125 445.636719 846.9375 451.660156 843.109375 C 454.542969 841.203125 456.625 838.941406 458.226563 835.738281 C 458.363281 835.464844 458.433594 835.160156 458.585938 834.886719 C 458.839844 834.4375 459.175781 834.0625 459.398438 833.566406 C 461.03125 829.886719 460.878906 826.453125 458.703125 823.136719 C 457.777344 821.726563 456.714844 821.078125 455.453125 820.160156 C 453.726563 818.738281 452.179688 817.480469 449.871094 817.300781 C 445.683594 816.980469 442.652344 818.6875 438.671875 820.339844 C 431.78125 823.195313 424.75 825.292969 417.132813 826.496094 C 413.644531 827.046875 409.628906 827.1875 405.605469 827.058594 C 405.332031 827.050781 402.28125 826.757813 401.636719 826.636719 C 401.503906 826.488281 401.507813 826.296875 401.476563 826.167969 C 401.242188 825.226563 400.96875 824.472656 400.726563 823.527344 C 399.675781 819.417969 399.199219 815.601563 399.496094 811.167969 C 399.515625 810.882813 399.789063 809.203125 399.839844 808.71875 "/>
<path style=" stroke:none;fill-rule:nonzero;fill:rgb(40.795898%,40.795898%,40.795898%);fill-opacity:1;" d="M 642.5 903.152344 C 642.132813 896.390625 635.847656 890.675781 627.359375 890.675781 L 158.542969 890.675781 L 158.542969 615.394531 C 158.542969 608.867188 151.578125 602.613281 143.402344 602.914063 C 135.199219 603.21875 128.261719 608.398438 128.261719 615.394531 L 128.261719 900.8125 C 128.097656 901.574219 128.023438 902.355469 128.066406 903.152344 C 128.4375 909.914063 134.722656 915.632813 143.210938 915.632813 L 627.359375 915.632813 C 635.28125 915.632813 642.867188 909.890625 642.5 903.152344 "/>
<path style=" stroke:none;fill-rule:nonzero;fill:rgb(40.795898%,40.795898%,40.795898%);fill-opacity:1;" d="M 128.554688 615.191406 C 128.921875 621.953125 135.207031 627.671875 143.695313 627.671875 L 612.511719 627.671875 L 612.511719 902.953125 C 612.511719 909.480469 619.476563 915.734375 627.652344 915.429688 C 635.855469 915.128906 642.792969 909.949219 642.792969 902.953125 L 642.792969 617.53125 C 642.960938 616.769531 643.03125 615.988281 642.988281 615.191406 C 642.621094 608.429688 636.335938 602.714844 627.847656 602.714844 L 143.695313 602.714844 C 135.777344 602.714844 128.191406 608.453125 128.554688 615.191406 "/>
<path style=" stroke:none;fill-rule:nonzero;fill:rgb(84.764099%,21.166992%,12.939453%);fill-opacity:1;" d="M 218.242188 70.46875 C 223.117188 64.109375 230.082031 60.921875 239.136719 60.921875 C 246.328125 60.921875 252.195313 63.121094 256.722656 67.488281 C 261.25 71.871094 263.511719 76.941406 263.511719 82.710938 C 263.511719 84.5 263.21875 86.351563 262.640625 88.230469 C 262.058594 90.128906 260.957031 92.070313 259.335938 94.050781 L 203.578125 162.148438 C 200.195313 166.289063 200.214844 172.238281 203.621094 176.351563 L 265.257813 250.75 C 268.039063 254.328125 269.433594 258.320313 269.433594 262.691406 C 269.433594 268.058594 267.171875 272.941406 262.640625 277.308594 C 258.117188 281.691406 252.136719 283.878906 244.710938 283.878906 C 235.882813 283.878906 229.035156 280.699219 224.160156 274.328125 L 180.226563 215.589844 C 175.746094 209.589844 166.75 209.621094 162.304688 215.640625 L 118.988281 274.328125 C 116.664063 277.308594 113.644531 279.648438 109.933594 281.339844 C 106.21875 283.03125 102.273438 283.878906 98.09375 283.878906 C 90.660156 283.878906 84.683594 281.691406 80.160156 277.308594 C 75.632813 272.941406 73.367188 268.058594 73.367188 262.691406 C 73.367188 258.320313 74.761719 254.328125 77.546875 250.75 L 138.832031 176.378906 C 142.238281 172.25 142.230469 166.289063 138.816406 162.160156 L 82.421875 94.050781 C 79.636719 90.46875 78.242188 86.589844 78.242188 82.410156 C 78.242188 76.839844 80.5625 71.871094 85.210938 67.488281 C 89.851563 63.121094 95.769531 60.921875 102.972656 60.921875 C 107.148438 60.921875 111.09375 61.769531 114.8125 63.460938 C 118.519531 65.148438 121.539063 67.488281 123.867188 70.46875 L 162.226563 122.238281 C 166.699219 128.269531 175.734375 128.261719 180.1875 122.210938 "/>
<path style=" stroke:none;fill-rule:nonzero;fill:rgb(84.764099%,21.166992%,12.939453%);fill-opacity:1;" d="M 208.886719 1051 C 213.480469 1045 220.046875 1042 228.578125 1042 C 235.355469 1042 240.882813 1044.066406 245.148438 1048.1875 C 249.417969 1052.3125 251.546875 1057.097656 251.546875 1062.53125 C 251.546875 1064.21875 251.273438 1065.953125 250.730469 1067.734375 C 250.179688 1069.519531 249.140625 1071.347656 247.613281 1073.21875 L 195.074219 1137.394531 C 191.882813 1141.285156 191.902344 1146.894531 195.109375 1150.769531 L 253.191406 1220.882813 C 255.816406 1224.257813 257.128906 1228.011719 257.128906 1232.132813 C 257.128906 1237.195313 254.996094 1241.789063 250.730469 1245.910156 C 246.464844 1250.035156 240.824219 1252.101563 233.828125 1252.101563 C 225.511719 1252.101563 219.0625 1249.101563 214.46875 1243.101563 L 173.066406 1187.742188 C 168.839844 1182.097656 160.367188 1182.121094 156.175781 1187.796875 L 115.359375 1243.101563 C 113.167969 1245.910156 110.324219 1248.113281 106.824219 1249.710938 C 103.324219 1251.300781 99.605469 1252.101563 95.667969 1252.101563 C 88.664063 1252.101563 83.035156 1250.035156 78.769531 1245.910156 C 74.5 1241.789063 72.367188 1237.195313 72.367188 1232.132813 C 72.367188 1228.011719 73.679688 1224.257813 76.304688 1220.882813 L 134.058594 1150.800781 C 137.265625 1146.910156 137.257813 1141.289063 134.042969 1137.402344 L 80.898438 1073.21875 C 78.273438 1069.84375 76.964844 1066.1875 76.964844 1062.25 C 76.964844 1057.003906 79.148438 1052.3125 83.527344 1048.1875 C 87.902344 1044.066406 93.476563 1042 100.265625 1042 C 104.199219 1042 107.917969 1042.800781 111.421875 1044.390625 C 114.917969 1045.984375 117.761719 1048.1875 119.953125 1051 L 156.101563 1099.777344 C 160.316406 1105.464844 168.832031 1105.449219 173.027344 1099.746094 "/>
<path style=" stroke:none;fill-rule:nonzero;fill:rgb(84.764099%,21.166992%,12.939453%);fill-opacity:1;" d="M 357.457031 1114.820313 C 358.300781 1117.589844 361.75 1117.710938 363.28125 1115.253906 C 365.621094 1111.507813 368.730469 1108.792969 371.175781 1106.816406 C 373.617188 1104.84375 376.15625 1103.25 378.789063 1102.023438 C 381.421875 1100.804688 384.242188 1100.191406 387.253906 1100.191406 C 392.328125 1100.191406 396.789063 1101.980469 400.644531 1105.550781 C 404.496094 1109.121094 406.425781 1113.632813 406.425781 1119.085938 C 406.425781 1123.597656 404.96875 1127.875 402.058594 1131.914063 C 399.140625 1135.960938 394.769531 1137.980469 388.941406 1137.980469 C 384.617188 1137.980469 380.808594 1139.246094 377.523438 1141.785156 C 374.230469 1144.324219 371.460938 1147.710938 369.203125 1151.9375 C 366.945313 1156.167969 365.257813 1160.964844 364.125 1166.320313 C 362.996094 1171.675781 362.4375 1177.175781 362.4375 1182.816406 L 362.4375 1229.910156 C 362.4375 1235.929688 360.222656 1241.148438 355.808594 1245.5625 C 351.390625 1249.976563 346.171875 1252.191406 340.15625 1252.191406 C 333.953125 1252.191406 328.640625 1249.976563 324.226563 1245.5625 C 319.804688 1241.148438 317.597656 1235.929688 317.597656 1229.910156 L 317.597656 1121.058594 C 317.597656 1115.234375 319.613281 1110.296875 323.660156 1106.253906 C 327.699219 1102.214844 332.636719 1100.191406 338.464844 1100.191406 C 343.914063 1100.191406 348.660156 1102.070313 352.707031 1105.828125 C 354.765625 1107.75 356.351563 1111.175781 357.457031 1114.820313 "/>
<path style=" stroke:none;fill-rule:nonzero;fill:rgb(84.764099%,21.166992%,12.939453%);fill-opacity:1;" d="M 320.949219 123.109375 C 328.53125 123.109375 334.21875 126.300781 338.011719 132.691406 L 351.394531 154.101563 C 354.179688 158.558594 360.683594 158.519531 363.421875 154.03125 L 376.613281 132.390625 C 378.410156 129.601563 380.804688 127.351563 383.796875 125.648438 C 386.789063 123.960938 390.078125 123.109375 393.671875 123.109375 C 399.457031 123.109375 404.191406 125.160156 407.886719 129.25 C 411.574219 133.339844 413.421875 137.980469 413.421875 143.160156 C 413.421875 146.949219 412.421875 150.449219 410.429688 153.640625 L 383.382813 197.519531 C 381.984375 199.789063 381.980469 202.648438 383.375 204.921875 L 413.421875 253.890625 C 415.414063 257.078125 416.414063 260.570313 416.414063 264.359375 C 416.414063 269.550781 414.621094 274.191406 411.027344 278.28125 C 407.4375 282.359375 402.746094 284.410156 396.964844 284.410156 C 393.371094 284.410156 390.027344 283.558594 386.9375 281.871094 C 383.84375 280.171875 381.402344 277.929688 379.605469 275.128906 L 363.394531 248.851563 C 360.65625 244.398438 354.207031 244.359375 351.414063 248.769531 L 334.71875 275.128906 C 332.921875 277.929688 330.527344 280.171875 327.535156 281.871094 C 324.542969 283.558594 321.25 284.410156 317.660156 284.410156 C 311.871094 284.410156 307.136719 282.421875 303.445313 278.429688 C 299.75 274.441406 297.910156 269.851563 297.910156 264.660156 C 297.910156 260.671875 298.902344 257.078125 300.902344 253.890625 L 331.746094 204.980469 C 333.195313 202.679688 333.199219 199.75 331.75 197.449219 L 304.191406 153.640625 C 302.195313 150.449219 301.199219 146.859375 301.199219 142.859375 C 301.199219 137.679688 303.042969 133.089844 306.738281 129.089844 C 310.425781 125.109375 315.160156 123.109375 320.949219 123.109375 "/>
<path style=" stroke:none;fill-rule:nonzero;fill:rgb(84.764099%,21.166992%,12.939453%);fill-opacity:1;" d="M 563.460938 1120.574219 C 562.480469 1118.449219 561.988281 1116.070313 561.988281 1113.449219 C 561.988281 1108.863281 563.664063 1104.765625 567.027344 1101.160156 C 570.382813 1097.558594 574.601563 1095.757813 579.683594 1095.757813 C 583.449219 1095.757813 586.847656 1096.824219 589.882813 1098.949219 C 592.910156 1101.082031 595.082031 1103.867188 596.394531 1107.304688 L 619.636719 1168.050781 C 620.527344 1170.382813 623.878906 1170.226563 624.550781 1167.820313 L 640.875 1109.269531 C 642.019531 1105.339844 644.230469 1102.105469 647.511719 1099.5625 C 650.785156 1097.027344 654.550781 1095.757813 658.816406 1095.757813 C 664.058594 1095.757813 668.398438 1097.558594 671.839844 1101.160156 C 675.28125 1104.765625 677 1109.023438 677 1113.941406 C 677 1115.746094 676.757813 1117.628906 676.265625 1119.59375 L 641.613281 1236.820313 C 638.171875 1248.613281 632.644531 1257.175781 625.023438 1262.5 C 617.402344 1267.824219 608.191406 1270.488281 597.375 1270.488281 L 582.386719 1270.488281 C 578.121094 1270.488281 574.558594 1268.890625 571.695313 1265.695313 C 568.824219 1262.5 567.394531 1258.527344 567.394531 1253.777344 C 567.394531 1251.488281 567.925781 1249.1875 569.191406 1247.28125 C 570.023438 1246.023438 571.066406 1244.910156 572.308594 1243.949219 C 573.78125 1242.800781 575.421875 1241.894531 577.222656 1241.242188 C 579.023438 1240.585938 580.746094 1240.261719 582.386719 1240.261719 L 594.179688 1240.261719 C 596.964844 1240.261719 599.425781 1238.988281 601.554688 1236.453125 C 601.988281 1235.929688 602.460938 1235.179688 602.933594 1234.28125 C 606.078125 1228.320313 606.175781 1221.207031 603.539063 1215 "/>
<path style=" stroke:none;fill-rule:nonzero;fill:rgb(84.764099%,21.166992%,12.939453%);fill-opacity:1;" d="M 526.722656 1111.570313 C 532.941406 1111.570313 538.3125 1113.886719 542.824219 1118.511719 C 546.851563 1122.636719 549 1128.257813 549 1134.023438 L 549 1229.730469 C 549 1235.75 546.835938 1240.917969 542.515625 1245.238281 C 538.1875 1249.570313 533.019531 1251.726563 527.003906 1251.726563 C 523.433594 1251.726563 515.480469 1249.757813 512.117188 1243.980469 C 509.117188 1238.824219 502.21875 1237.753906 497.992188 1241.964844 C 495.214844 1244.734375 492.195313 1247.242188 488.933594 1248.203125 C 481.601563 1250.363281 475.019531 1251.445313 469.195313 1251.445313 C 449.828125 1251.445313 435.714844 1244.582031 421.992188 1230.859375 C 408.269531 1217.136719 401.40625 1200.59375 401.40625 1181.226563 C 401.40625 1161.863281 408.269531 1145.367188 421.992188 1131.734375 C 435.714844 1118.105469 449.828125 1111.289063 469.195313 1111.289063 C 475.019531 1111.289063 481.644531 1112.371094 489.074219 1114.535156 C 492.429688 1115.511719 495.523438 1117.585938 498.359375 1119.859375 C 502.871094 1123.480469 509.394531 1122.445313 512.753906 1117.734375 C 516.390625 1112.632813 523.148438 1111.570313 526.722656 1111.570313 "/>
<path style=" stroke:none;fill-rule:nonzero;fill:rgb(100%,100%,100%);fill-opacity:1;" d="M 443.636719 1181.367188 C 443.636719 1187.007813 444.296875 1192.179688 445.613281 1196.878906 C 446.925781 1201.578125 448.714844 1205.714844 450.972656 1209.285156 C 453.226563 1212.859375 455.90625 1215.628906 459.007813 1217.605469 C 462.109375 1219.578125 465.445313 1220.566406 469.019531 1220.566406 C 472.585938 1220.566406 475.929688 1219.578125 479.03125 1217.605469 C 482.132813 1215.628906 484.8125 1212.859375 487.066406 1209.285156 C 489.324219 1205.714844 491.109375 1201.578125 492.425781 1196.878906 C 493.738281 1192.179688 494.402344 1187.007813 494.402344 1181.367188 C 494.402344 1175.726563 493.738281 1170.558594 492.425781 1165.855469 C 491.109375 1161.160156 489.324219 1157.070313 487.066406 1153.589844 C 484.8125 1150.113281 482.132813 1147.386719 479.03125 1145.410156 C 475.929688 1143.4375 472.585938 1142.453125 469.019531 1142.453125 C 465.445313 1142.453125 462.109375 1143.4375 459.007813 1145.410156 C 455.90625 1147.386719 453.226563 1150.113281 450.972656 1153.589844 C 448.714844 1157.070313 446.925781 1161.160156 445.613281 1165.855469 C 444.296875 1170.558594 443.636719 1175.726563 443.636719 1181.367188 "/>
</g>
</svg>
