<?xml version="1.0" encoding="UTF-8"?>
<svg xmlns="http://www.w3.org/2000/svg" xmlns:xlink="http://www.w3.org/1999/xlink" width="750pt" height="1334pt" viewBox="0 0 750 1334" version="1.1">
<defs>
<clipPath id="clip1">
  <path d="M 112.609375 457.71875 L 637.070313 457.71875 L 637.070313 787.5625 L 112.609375 787.5625 Z M 112.609375 457.71875 "/>
</clipPath>
<filter id="alpha" filterUnits="objectBoundingBox" x="0%" y="0%" width="100%" height="100%">
  <feColorMatrix type="matrix" in="SourceGraphic" values="0 0 0 0 1 0 0 0 0 1 0 0 0 0 1 0 0 0 1 0"/>
</filter>
<mask id="mask0">
  <g filter="url(#alpha)">
<rect x="0" y="0" width="750" height="1334" style="fill:rgb(0%,0%,0%);fill-opacity:0.809998;stroke:none;"/>
  </g>
</mask>
<clipPath id="clip3">
  <path d="M 0.609375 0.71875 L 525.070313 0.71875 L 525.070313 330.5625 L 0.609375 330.5625 Z M 0.609375 0.71875 "/>
</clipPath>
<clipPath id="clip2">
  <rect width="526" height="331"/>
</clipPath>
<g id="surface7" clip-path="url(#clip2)">
<g clip-path="url(#clip3)" clip-rule="nonzero">
<path style=" stroke:none;fill-rule:nonzero;fill:rgb(63.476563%,63.476563%,73.631287%);fill-opacity:1;" d="M 510.835938 154.972656 C 502.894531 169.949219 487.320313 178.140625 471.621094 180.625 C 467.648438 181.253906 463.648438 181.570313 459.625 181.660156 C 461.332031 179.980469 462.976563 178.203125 464.546875 176.308594 C 470.71875 168.871094 475.644531 160.445313 479.726563 151.441406 C 481.425781 147.699219 483.519531 143.417969 484.824219 138.972656 C 491.652344 136.261719 498.953125 134.824219 506.460938 136.132813 C 510.382813 136.816406 514.671875 137.855469 514.613281 142.878906 C 514.566406 147.054688 512.675781 151.503906 510.835938 154.972656 M 399.914063 198.476563 C 404.820313 195.023438 409.683594 191.5 414.511719 187.933594 C 418.402344 188.539063 422.296875 189.144531 426.191406 189.742188 C 424.429688 190.480469 422.648438 191.1875 420.820313 191.84375 C 413.960938 194.316406 406.96875 196.476563 399.914063 198.476563 M 207.230469 247.625 C 209.320313 245.027344 211.394531 242.421875 213.433594 239.785156 C 216.28125 236.109375 219.101563 232.371094 221.898438 228.597656 C 223.722656 227.867188 225.542969 227.121094 227.359375 226.378906 C 227.488281 226.574219 227.613281 226.777344 227.742188 226.976563 C 231.324219 232.359375 235.597656 236.550781 240.324219 239.746094 C 229.320313 242.480469 218.292969 245.132813 207.230469 247.625 M 151.234375 239.855469 C 130.820313 244.820313 109.957031 248.191406 88.828125 249.296875 C 67.910156 250.390625 45.859375 249.617188 24.988281 244.742188 C 18.359375 243.195313 8.808594 239.53125 11.945313 230.566406 C 14.628906 222.90625 20.90625 216.902344 27.363281 213.007813 C 27.628906 212.847656 27.902344 212.710938 28.171875 212.554688 C 29.449219 215.277344 31.078125 217.914063 33.070313 220.402344 C 46.753906 237.503906 69.296875 238.59375 87.953125 238.65625 C 109.328125 238.730469 130.46875 236.234375 151.324219 232.550781 C 172.621094 228.789063 194.324219 224.679688 215.402344 218.785156 C 215.335938 218.882813 215.265625 218.976563 215.195313 219.074219 C 194.339844 227.335938 173.085938 234.539063 151.234375 239.855469 M 58.113281 175.875 C 63.96875 176.96875 69.898438 177.609375 75.671875 178.046875 C 99.589844 179.851563 123.289063 176.601563 146.484375 172.347656 C 174.511719 167.207031 203.765625 160.140625 232.957031 159.179688 C 230.804688 162.496094 228.769531 165.894531 226.925781 169.402344 C 226.210938 169.863281 225.511719 170.34375 224.839844 170.871094 C 220.273438 174.453125 216.761719 180.003906 216.582031 186.085938 C 209.476563 186.621094 202.347656 186.980469 195.214844 187.191406 C 153.398438 188.449219 111.214844 185.597656 69.691406 190.0625 C 58.054688 191.3125 45.960938 192.945313 34.847656 196.945313 C 35.503906 185.261719 47.433594 179.519531 58.113281 175.875 M 40.523438 158.632813 C 37.371094 156.734375 34.1875 154.03125 32.894531 150.277344 C 31.105469 145.097656 33.417969 139.714844 36.171875 135.796875 C 40.972656 128.976563 48.445313 124.6875 56.152344 122.535156 C 73.929688 117.578125 93.183594 120.398438 111.589844 121.300781 C 140.40625 122.714844 169.363281 122.871094 198.117188 121.410156 C 198.226563 121.585938 198.347656 121.75 198.476563 121.910156 C 182.90625 125.027344 167.636719 129.441406 152.507813 134.136719 C 131.039063 140.796875 109.648438 147.699219 88.222656 154.492188 C 77.785156 157.804688 67.308594 161.003906 56.914063 164.4375 C 51.1875 163.324219 45.511719 161.632813 40.523438 158.632813 M 250.097656 128.800781 C 247.492188 132.171875 244.390625 137.921875 244.207031 143.226563 C 243.050781 144.796875 241.894531 146.367188 240.746094 147.945313 C 217.683594 147.71875 194.550781 151.457031 172.398438 155.773438 C 149.804688 160.175781 127.234375 165.058594 104.136719 166.773438 C 97.855469 167.242188 91.539063 167.425781 85.210938 167.289063 C 100.570313 162.417969 115.929688 157.546875 131.289063 152.675781 C 151.4375 146.285156 171.539063 139.621094 192.175781 134.867188 C 211.066406 130.515625 230.460938 127.804688 250.097656 128.800781 M 249.855469 116.90625 C 254.4375 116.328125 259.03125 115.671875 263.625 114.90625 C 262.84375 116.113281 262.058594 117.320313 261.277344 118.527344 C 256.070313 117.894531 250.851563 117.53125 245.636719 117.40625 C 247.042969 117.238281 248.453125 117.078125 249.855469 116.90625 M 273.148438 100.226563 C 272.796875 100.761719 272.445313 101.296875 272.09375 101.835938 C 271.292969 101.996094 270.492188 102.160156 269.691406 102.316406 C 270.851563 101.628906 272 100.925781 273.148438 100.226563 M 379.640625 23.058594 C 382.632813 31.71875 379.402344 40.933594 375.453125 48.15625 C 373.328125 52.035156 370.90625 55.6875 368.28125 59.167969 C 365.046875 60.554688 361.855469 62.035156 358.71875 63.628906 C 358.714844 62.671875 358.515625 61.71875 358.078125 61.03125 C 350.046875 48.332031 336.027344 51.347656 325.316406 56.054688 C 323.222656 56.976563 321.160156 57.957031 319.113281 58.96875 C 336.367188 42.085938 357.019531 29.800781 379.640625 23.058594 M 429.601563 18.0625 C 432.460938 18.898438 435.3125 20.265625 434.804688 23.882813 C 434.15625 28.480469 429.78125 33.035156 427.21875 36.457031 C 424.324219 40.3125 421.265625 44.011719 418.085938 47.589844 C 406.742188 48.128906 395.921875 49.996094 385.578125 52.984375 C 389.015625 46.21875 391.222656 38.925781 391.238281 31.175781 C 391.242188 27.582031 390.695313 23.9375 389.601563 20.476563 C 394.933594 19.300781 400.359375 18.421875 405.863281 17.859375 C 413.3125 17.101563 422.101563 15.875 429.601563 18.0625 M 387.765625 77.257813 C 373.804688 89.984375 359.5 102.601563 344.726563 114.550781 C 338.738281 114.1875 332.746094 113.71875 326.761719 113.28125 C 339.382813 103.65625 351.386719 93.144531 362.664063 82.011719 C 366.621094 78.105469 370.835938 73.75 374.78125 68.996094 C 384.84375 64.835938 395.320313 61.84375 406.074219 60.144531 C 400.097656 66.015625 393.910156 71.65625 387.765625 77.257813 M 333.527344 150.804688 C 328.976563 155.296875 324.191406 159.746094 319.191406 163.992188 C 315.386719 163.699219 311.578125 163.445313 307.773438 163.21875 C 308.839844 161.257813 309.777344 159.171875 310.5625 156.941406 C 311.027344 155.609375 311.4375 154.226563 311.757813 152.820313 C 324.167969 144.433594 336.144531 135.25 347.90625 125.945313 C 350.949219 126.101563 353.992188 126.222656 357.035156 126.28125 C 349.273438 134.539063 341.570313 142.859375 333.527344 150.804688 M 420.683594 82.683594 C 428.101563 76.210938 435.230469 69.421875 441.871094 62.035156 C 447.714844 55.546875 453.980469 47.691406 462.902344 46.289063 C 471.179688 44.988281 477.617188 50.351563 478.320313 59.492188 C 479.003906 68.3125 475.144531 76.765625 470.433594 83.335938 C 458.898438 99.410156 439.34375 105.699219 421.246094 109.636719 C 409.066406 112.285156 396.660156 113.84375 384.164063 114.601563 C 395.96875 103.488281 408.480469 93.335938 420.683594 82.683594 M 219.074219 197.175781 C 219.015625 199.949219 219.171875 202.730469 219.554688 205.496094 C 213.945313 207.160156 208.296875 208.683594 202.644531 210.089844 C 162.996094 219.96875 121.617188 228.851563 80.105469 227.308594 C 65.855469 226.777344 44.449219 224.03125 37.179688 208.230469 C 50.164063 203.152344 64.691406 201.753906 78.464844 200.519531 C 120.664063 196.730469 163.472656 199.9375 205.84375 197.960938 C 210.25 197.757813 214.664063 197.496094 219.074219 197.175781 M 257.335938 159.972656 C 256.683594 160.855469 256.042969 161.738281 255.398438 162.621094 C 253.667969 162.714844 251.941406 162.820313 250.21875 162.957031 C 247.933594 163.136719 245.601563 163.382813 243.277344 163.746094 C 244.359375 162.210938 245.460938 160.699219 246.5625 159.207031 C 250.15625 159.347656 253.75 159.59375 257.335938 159.972656 M 334.117188 92.734375 C 330.542969 95.746094 326.921875 98.699219 323.25 101.574219 C 326.78125 98.511719 330.402344 95.5625 334.117188 92.734375 M 304.105469 104.464844 C 301.597656 106.953125 299.132813 109.5 296.695313 112.082031 C 290.40625 112.1875 283.757813 112.589844 277.324219 113.820313 C 277.71875 113.210938 278.109375 112.601563 278.503906 111.992188 C 287.214844 110.023438 295.808594 107.570313 304.105469 104.464844 M 296.566406 149.28125 C 293.4375 151.234375 290.230469 153.109375 286.960938 154.851563 C 283.644531 153.800781 280.308594 152.882813 276.964844 152.09375 C 280.402344 147.621094 283.917969 143.234375 287.480469 138.910156 C 288.699219 138.246094 289.910156 137.570313 291.117188 136.886719 C 293.507813 137.746094 295.875 138.699219 298.140625 139.835938 C 300.070313 140.800781 301.78125 141.605469 302.195313 144 C 302.285156 144.519531 302.304688 145.074219 302.289063 145.632813 C 300.390625 146.867188 298.484375 148.085938 296.566406 149.28125 M 292.183594 182.921875 C 295.722656 180.148438 299.148438 177.210938 302.4375 174.09375 C 303.609375 174.160156 304.777344 174.234375 305.949219 174.304688 C 301.5 177.441406 296.910156 180.34375 292.183594 182.921875 M 245.855469 174.800781 C 246.007813 174.941406 246.164063 175.078125 246.335938 175.199219 C 244.8125 177.351563 243.296875 179.492188 241.796875 181.628906 C 241.359375 182.246094 240.925781 182.867188 240.492188 183.488281 C 237.605469 183.910156 234.714844 184.277344 231.816406 184.617188 C 232.628906 182.269531 233.605469 179.988281 234.703125 177.757813 C 238.230469 176.121094 242.355469 175.3125 245.855469 174.800781 M 255.886719 180.808594 C 257.097656 179.097656 258.320313 177.402344 259.539063 175.695313 C 263.964844 175.195313 268.289063 174.285156 272.523438 173.050781 C 275.363281 173.039063 278.214844 173.070313 281.0625 173.136719 C 273.277344 176.902344 264.476563 179.035156 256.574219 180.671875 C 256.34375 180.71875 256.113281 180.761719 255.886719 180.808594 M 245.941406 194.925781 C 246.136719 194.652344 246.332031 194.371094 246.523438 194.097656 C 248.976563 193.707031 251.421875 193.285156 253.859375 192.828125 C 252.265625 193.566406 250.664063 194.28125 249.054688 194.976563 C 248.019531 194.980469 246.984375 194.960938 245.941406 194.925781 M 266.546875 130.519531 C 269.605469 131.007813 272.652344 131.601563 275.683594 132.304688 C 273.953125 133.191406 272.21875 134.070313 270.46875 134.917969 C 267.242188 136.480469 263.976563 137.953125 260.6875 139.375 C 262.660156 136.441406 264.609375 133.488281 266.546875 130.519531 M 372.378906 126.292969 C 382.714844 126.089844 393.023438 125.433594 403.226563 124.164063 C 396.570313 128.832031 390.066406 133.792969 383.328125 138.257813 C 368.546875 148.054688 352.609375 155.707031 336.65625 163.242188 C 348.992188 151.457031 360.542969 138.574219 372.378906 126.292969 M 311.472656 139.484375 C 310.464844 136.609375 308.675781 133.996094 305.859375 131.929688 C 304.878906 131.210938 303.839844 130.558594 302.777344 129.933594 C 306.039063 127.886719 309.273438 125.78125 312.464844 123.605469 C 318.839844 123.921875 325.222656 124.40625 331.605469 124.878906 C 324.996094 129.925781 318.285156 134.804688 311.472656 139.484375 M 296.953125 84.949219 C 303.332031 80.839844 309.765625 76.832031 316.398438 73.179688 C 322.363281 69.894531 328.597656 66.40625 335.085938 64.324219 C 337.753906 63.472656 342.734375 62.183594 346.1875 63.535156 C 330.746094 81.402344 309.894531 91.714844 287.730469 98.03125 C 290.730469 93.601563 293.789063 89.230469 296.953125 84.949219 M 360.597656 208.785156 C 339.226563 214.476563 317.820313 220.042969 296.378906 225.480469 C 283.089844 228.851563 269.789063 232.300781 256.46875 235.6875 C 248.910156 233.539063 242.097656 228.714844 237.175781 222.292969 C 237.246094 222.261719 237.320313 222.230469 237.394531 222.199219 C 270.390625 208.148438 302.6875 192.335938 335.003906 176.695313 C 356.300781 178.9375 377.523438 182.136719 398.757813 185.460938 C 387.871094 193.308594 376.761719 200.800781 365.195313 207.574219 C 363.660156 207.976563 362.128906 208.378906 360.597656 208.785156 M 475.585938 130.644531 C 468.804688 133.953125 462.394531 138.210938 456.355469 142.527344 C 441.203125 153.34375 426.503906 164.855469 411.585938 176.019531 C 411.074219 175.933594 410.558594 175.84375 410.046875 175.757813 C 391.394531 172.644531 372.710938 169.777344 354.003906 167.488281 C 370.941406 159.117188 387.019531 149.6875 402.4375 138.476563 C 417.648438 127.421875 434.464844 115.582031 454.308594 117.675781 C 460.34375 118.3125 475.199219 122.019531 475.585938 130.644531 M 442.628906 180.851563 C 437.386719 180.292969 432.140625 179.515625 426.914063 178.648438 C 428.457031 177.480469 430.003906 176.3125 431.546875 175.140625 C 444.113281 165.601563 456.550781 154.894531 470.09375 146.601563 C 468.289063 150.5 466.300781 154.296875 464.105469 157.933594 C 458.292969 167.558594 451.046875 175.015625 442.628906 180.851563 M 167.679688 274.703125 C 154.105469 287.625 139.316406 299.09375 122.984375 307.859375 C 109.136719 315.292969 85.058594 328.097656 71.460938 310.9375 C 65.136719 302.957031 68.539063 292.613281 74.226563 286.21875 C 80.34375 279.332031 88.882813 275.753906 97.625 274.066406 C 107.632813 272.136719 117.964844 272.296875 128.167969 271.78125 C 138.855469 271.246094 149.476563 270.058594 160.007813 268.445313 C 165.660156 267.574219 171.285156 266.582031 176.890625 265.503906 C 173.882813 268.636719 170.820313 271.710938 167.679688 274.703125 M 523.980469 136.734375 C 520.804688 127.765625 511.152344 125.09375 503.339844 124.507813 C 497.160156 124.042969 491.226563 124.921875 485.527344 126.671875 C 485.210938 125.410156 484.746094 124.160156 484.101563 122.933594 C 479.582031 114.355469 469.222656 109.613281 460.886719 107.589844 C 460.636719 107.53125 460.382813 107.476563 460.128906 107.421875 C 462.476563 105.992188 464.765625 104.453125 466.960938 102.753906 C 479.15625 93.308594 489.816406 77.421875 488.703125 59.984375 C 488.195313 52.039063 485.15625 44.121094 478.730469 39.304688 C 471.980469 34.246094 463.363281 33.894531 456.097656 36.371094 C 447.816406 39.191406 441.605469 45.738281 435.761719 52.234375 C 429.492188 59.199219 422.902344 65.730469 415.945313 71.902344 C 401.855469 84.40625 387 95.871094 373.546875 109.183594 C 371.558594 111.152344 369.59375 113.152344 367.636719 115.160156 C 365.515625 115.175781 363.394531 115.175781 361.273438 115.152344 C 373.105469 105.386719 384.691406 95.269531 396.050781 84.882813 C 405.34375 76.378906 414.613281 67.75 423.199219 58.410156 C 424.445313 57.984375 425.367188 56.824219 425.859375 55.46875 C 429.738281 51.101563 433.464844 46.574219 436.957031 41.820313 C 442.050781 34.894531 448.496094 25.886719 443.644531 16.253906 C 439.957031 8.9375 431.457031 6.46875 424.527344 6.0625 C 410.921875 5.265625 397.152344 6.851563 383.984375 10.089844 C 383.375 9.367188 382.738281 8.675781 382.054688 8.019531 C 374.621094 0.917969 364.175781 0.429688 355.09375 0.816406 C 336.285156 1.609375 317.90625 8.921875 301.636719 17.84375 C 285.90625 26.46875 271.417969 37.445313 257.867188 49.433594 C 244.503906 61.253906 231.984375 74.117188 219.636719 87.132813 C 215.003906 92.011719 222.066406 100.753906 226.726563 95.84375 C 250.894531 70.375 276.019531 44.820313 306.554688 28.074219 C 321.863281 19.675781 339.199219 12.492188 356.960938 11.917969 C 361.679688 11.765625 366.90625 11.886719 371.277344 13.773438 C 354.394531 19.421875 338.617188 27.90625 324.542969 39.082031 C 311.363281 49.542969 300.074219 62.429688 289.839844 76.136719 C 288.234375 77.175781 286.636719 78.21875 285.035156 79.261719 C 268.714844 89.898438 251.605469 101.183594 233.027344 107.472656 C 191.097656 111.820313 148.40625 112.183594 106.023438 109.804688 C 87.464844 108.765625 68.054688 106.558594 50.386719 112.511719 C 35.066406 117.675781 15.332031 134.574219 23.6875 154.9375 C 26.929688 162.847656 34.03125 167.957031 41.289063 171.058594 C 39.367188 172.164063 37.5 173.386719 35.726563 174.785156 C 27.339844 181.390625 23.835938 191.304688 24.960938 201.355469 C 23.585938 202.101563 22.226563 202.882813 20.902344 203.742188 C 9.609375 211.058594 -7.339844 229.851563 4.808594 245.351563 C 9.875 251.816406 17.898438 254.496094 25.140625 256.039063 C 35.390625 258.226563 45.824219 259.449219 56.160156 260.175781 C 76.992188 261.628906 97.84375 260.628906 118.28125 257.753906 C 147.101563 253.703125 175.074219 245.914063 202.308594 236.066406 C 198.199219 241.285156 193.992188 246.40625 189.679688 251.421875 C 182.78125 252.847656 175.867188 254.207031 168.941406 255.460938 C 158.730469 257.304688 148.449219 258.824219 138.085938 259.804688 C 127.453125 260.808594 116.722656 260.757813 106.078125 261.59375 C 88.773438 262.953125 69.71875 268.84375 61.175781 286.058594 C 57.203125 294.058594 55.984375 303.859375 60.304688 312.5625 C 64.210938 320.441406 71.640625 326.386719 79.445313 328.867188 C 97.921875 334.726563 117.496094 324.214844 132.796875 315.359375 C 156.628906 301.570313 177.117188 282.652344 195.519531 261.617188 C 205.175781 259.476563 214.796875 257.179688 224.40625 254.882813 C 235.34375 252.269531 246.269531 249.621094 257.1875 246.941406 C 263.195313 248.335938 269.460938 248.796875 275.679688 248.582031 C 309.183594 247.429688 340.765625 234.90625 369.425781 218.222656 C 385.578125 214.03125 401.761719 209.832031 417.636719 204.804688 C 427.6875 201.621094 437.421875 197.6875 446.21875 192.175781 C 475.097656 194.164063 506.621094 188.789063 520.5 159.878906 C 523.722656 153.167969 526.761719 144.578125 523.980469 136.734375 "/>
</g>
</g>
<clipPath id="clip4">
  <path d="M 72.558594 1035.730469 L 260.183594 1035.730469 L 260.183594 1250.234375 L 72.558594 1250.234375 Z M 72.558594 1035.730469 "/>
</clipPath>
<mask id="mask1">
  <g filter="url(#alpha)">
<rect x="0" y="0" width="750" height="1334" style="fill:rgb(0%,0%,0%);fill-opacity:0.809998;stroke:none;"/>
  </g>
</mask>
<clipPath id="clip6">
  <path d="M 0.558594 0.730469 L 188.183594 0.730469 L 188.183594 215.234375 L 0.558594 215.234375 Z M 0.558594 0.730469 "/>
</clipPath>
<clipPath id="clip5">
  <rect width="189" height="216"/>
</clipPath>
<g id="surface10" clip-path="url(#clip5)">
<g clip-path="url(#clip6)" clip-rule="nonzero">
<path style=" stroke:none;fill-rule:nonzero;fill:rgb(63.476563%,63.476563%,73.631287%);fill-opacity:1;" d="M 164.0625 0.730469 C 171.207031 0.730469 177.015625 2.839844 181.484375 7.050781 C 185.949219 11.261719 188.183594 16.144531 188.183594 21.695313 C 188.183594 25.140625 187.179688 28.585938 185.167969 32.03125 L 126.457031 121.105469 C 123.886719 125.003906 122.515625 129.566406 122.515625 134.238281 L 122.515625 191.402344 C 122.515625 198.105469 119.777344 203.75 114.308594 208.34375 C 108.832031 212.9375 102.296875 215.234375 94.703125 215.234375 C 86.882813 215.234375 80.296875 212.9375 74.9375 208.34375 C 69.578125 203.75 66.898438 198.105469 66.898438 191.402344 L 66.898438 134.269531 C 66.898438 129.582031 65.515625 124.996094 62.925781 121.085938 L 3.910156 32.03125 C 1.671875 28.777344 0.558594 25.332031 0.558594 21.695313 C 0.558594 16.144531 2.84375 11.261719 7.429688 7.050781 C 12.003906 2.839844 17.867188 0.730469 25.019531 0.730469 C 29.480469 0.730469 33.558594 1.691406 37.246094 3.605469 C 40.933594 5.519531 43.890625 8.105469 46.121094 11.355469 L 85.953125 76.132813 C 89.8125 82.40625 98.933594 82.40625 102.789063 76.132813 L 142.621094 11.355469 C 144.847656 8.105469 147.863281 5.519531 151.664063 3.605469 C 155.460938 1.691406 159.589844 0.730469 164.0625 0.730469 "/>
</g>
</g>
<clipPath id="clip7">
  <path d="M 534.984375 1096.011719 L 668 1096.011719 L 668 1251.191406 L 534.984375 1251.191406 Z M 534.984375 1096.011719 "/>
</clipPath>
<mask id="mask2">
  <g filter="url(#alpha)">
<rect x="0" y="0" width="750" height="1334" style="fill:rgb(0%,0%,0%);fill-opacity:0.809998;stroke:none;"/>
  </g>
</mask>
<clipPath id="clip9">
  <path d="M 0.984375 0.0117188 L 134 0.0117188 L 134 155.191406 L 0.984375 155.191406 Z M 0.984375 0.0117188 "/>
</clipPath>
<clipPath id="clip8">
  <rect width="134" height="156"/>
</clipPath>
<g id="surface13" clip-path="url(#clip8)">
<g clip-path="url(#clip9)" clip-rule="nonzero">
<path style=" stroke:none;fill-rule:nonzero;fill:rgb(63.476563%,63.476563%,73.631287%);fill-opacity:1;" d="M 23.152344 0.0117188 C 29.488281 0.0117188 34.476563 2.074219 38.125 6.199219 C 39.253906 7.476563 40.203125 8.792969 40.984375 10.152344 C 43.144531 13.925781 48.171875 14.894531 51.507813 12.113281 C 54.65625 9.488281 57.96875 7.226563 61.445313 5.335938 C 67.96875 1.785156 75.167969 0.0117188 83.039063 0.0117188 C 89.949219 0.0117188 96.519531 1.449219 102.761719 4.328125 C 108.996094 7.207031 114.421875 11.09375 119.027344 15.988281 C 123.632813 20.882813 127.277344 26.597656 129.96875 33.117188 C 132.65625 39.648438 134 46.652344 134 54.136719 L 134 133.3125 C 134 139.457031 131.882813 144.640625 127.664063 148.859375 C 123.441406 153.078125 118.257813 155.191406 112.117188 155.191406 C 105.972656 155.191406 100.746094 153.078125 96.425781 148.859375 C 92.109375 144.640625 89.949219 139.457031 89.949219 133.3125 L 89.949219 61.910156 C 89.949219 44.253906 83.800781 35.421875 71.523438 35.421875 C 64.800781 35.421875 58.746094 35.515625 54.199219 40.1875 C 48.820313 45.71875 46.855469 53.839844 46.761719 61.320313 L 46.761719 132.449219 C 46.761719 138.59375 44.503906 143.917969 39.996094 148.425781 C 35.484375 152.933594 30.160156 155.191406 24.015625 155.191406 C 17.683594 155.191406 12.257813 152.933594 7.75 148.425781 C 3.238281 143.917969 0.984375 138.59375 0.984375 132.449219 L 0.984375 21.316406 C 0.984375 15.367188 3.09375 10.328125 7.320313 6.199219 C 11.539063 2.074219 16.820313 0.0117188 23.152344 0.0117188 "/>
</g>
</g>
<clipPath id="clip10">
  <path d="M 431.859375 1096.34375 L 522.550781 1096.34375 L 522.550781 1251.527344 L 431.859375 1251.527344 Z M 431.859375 1096.34375 "/>
</clipPath>
<mask id="mask3">
  <g filter="url(#alpha)">
<rect x="0" y="0" width="750" height="1334" style="fill:rgb(0%,0%,0%);fill-opacity:0.809998;stroke:none;"/>
  </g>
</mask>
<clipPath id="clip12">
  <path d="M 0.859375 0.34375 L 91.550781 0.34375 L 91.550781 155.527344 L 0.859375 155.527344 Z M 0.859375 0.34375 "/>
</clipPath>
<clipPath id="clip11">
  <rect width="92" height="156"/>
</clipPath>
<g id="surface16" clip-path="url(#clip11)">
<g clip-path="url(#clip12)" clip-rule="nonzero">
<path style=" stroke:none;fill-rule:nonzero;fill:rgb(63.476563%,63.476563%,73.631287%);fill-opacity:1;" d="M 41.558594 15.277344 C 42.414063 18.105469 45.9375 18.226563 47.503906 15.722656 C 49.890625 11.894531 53.066406 9.125 55.5625 7.109375 C 58.054688 5.09375 60.644531 3.464844 63.335938 2.214844 C 66.019531 0.96875 68.902344 0.34375 71.972656 0.34375 C 77.15625 0.34375 81.714844 2.167969 85.648438 5.8125 C 89.578125 9.460938 91.550781 14.066406 91.550781 19.632813 C 91.550781 24.238281 90.0625 28.609375 87.089844 32.734375 C 84.109375 36.863281 79.648438 38.925781 73.699219 38.925781 C 69.285156 38.925781 65.394531 40.21875 62.039063 42.808594 C 58.679688 45.398438 55.851563 48.855469 53.546875 53.175781 C 51.242188 57.492188 49.519531 62.386719 48.363281 67.859375 C 47.210938 73.328125 46.636719 78.941406 46.636719 84.699219 L 46.636719 132.78125 C 46.636719 138.925781 44.378906 144.253906 39.871094 148.761719 C 35.359375 153.269531 30.03125 155.527344 23.894531 155.527344 C 17.558594 155.527344 12.132813 153.269531 7.628906 148.761719 C 3.113281 144.253906 0.859375 138.925781 0.859375 132.78125 L 0.859375 21.648438 C 0.859375 15.699219 2.921875 10.660156 7.050781 6.535156 C 11.175781 2.410156 16.214844 0.34375 22.164063 0.34375 C 27.730469 0.34375 32.574219 2.261719 36.703125 6.101563 C 38.808594 8.058594 40.425781 11.558594 41.558594 15.277344 "/>
</g>
</g>
<clipPath id="clip13">
  <path d="M 244.3125 1108.078125 L 395 1108.078125 L 395 1251.457031 L 244.3125 1251.457031 Z M 244.3125 1108.078125 "/>
</clipPath>
<mask id="mask4">
  <g filter="url(#alpha)">
<rect x="0" y="0" width="750" height="1334" style="fill:rgb(0%,0%,0%);fill-opacity:0.809998;stroke:none;"/>
  </g>
</mask>
<clipPath id="clip15">
  <path d="M 0.3125 0.078125 L 151 0.078125 L 151 143.457031 L 0.3125 143.457031 Z M 0.3125 0.078125 "/>
</clipPath>
<clipPath id="clip14">
  <rect width="151" height="144"/>
</clipPath>
<g id="surface19" clip-path="url(#clip14)">
<g clip-path="url(#clip15)" clip-rule="nonzero">
<path style=" stroke:none;fill-rule:nonzero;fill:rgb(63.476563%,63.476563%,73.631287%);fill-opacity:1;" d="M 128.253906 0.367188 C 134.605469 0.367188 140.089844 2.730469 144.695313 7.449219 C 148.808594 11.664063 151 17.402344 151 23.289063 L 151 121 C 151 127.144531 148.792969 132.421875 144.378906 136.835938 C 139.960938 141.253906 134.683594 143.457031 128.542969 143.457031 C 124.894531 143.457031 116.777344 141.449219 113.347656 135.550781 C 110.28125 130.285156 103.238281 129.191406 98.925781 133.492188 C 96.089844 136.320313 93.003906 138.878906 89.675781 139.859375 C 82.191406 142.066406 75.46875 143.167969 69.523438 143.167969 C 49.75 143.167969 35.339844 136.164063 21.332031 122.152344 C 7.320313 108.140625 0.316406 91.25 0.316406 71.480469 C 0.316406 51.714844 7.320313 34.871094 21.332031 20.949219 C 35.339844 7.039063 49.75 0.078125 69.523438 0.078125 C 75.46875 0.078125 82.234375 1.183594 89.816406 3.390625 C 93.242188 4.386719 96.402344 6.507813 99.300781 8.828125 C 103.90625 12.523438 110.5625 11.46875 113.992188 6.660156 C 117.710938 1.449219 124.609375 0.367188 128.253906 0.367188 "/>
</g>
</g>
<clipPath id="clip16">
  <path d="M 287.429688 1139.894531 L 339.253906 1139.894531 L 339.253906 1219.644531 L 287.429688 1219.644531 Z M 287.429688 1139.894531 "/>
</clipPath>
<mask id="mask5">
  <g filter="url(#alpha)">
<rect x="0" y="0" width="750" height="1334" style="fill:rgb(0%,0%,0%);fill-opacity:0.809998;stroke:none;"/>
  </g>
</mask>
<clipPath id="clip18">
  <path d="M 0.429688 0.894531 L 52.253906 0.894531 L 52.253906 80.644531 L 0.429688 80.644531 Z M 0.429688 0.894531 "/>
</clipPath>
<clipPath id="clip17">
  <rect width="53" height="81"/>
</clipPath>
<g id="surface18" clip-path="url(#clip17)">
<g clip-path="url(#clip18)" clip-rule="nonzero">
<path style=" stroke:none;fill-rule:nonzero;fill:rgb(100%,100%,100%);fill-opacity:1;" d="M 0.429688 40.625 C 0.429688 46.382813 1.101563 51.664063 2.449219 56.460938 C 3.785156 61.261719 5.613281 65.484375 7.917969 69.128906 C 10.21875 72.777344 12.953125 75.605469 16.121094 77.621094 C 19.289063 79.636719 22.695313 80.644531 26.34375 80.644531 C 29.988281 80.644531 33.398438 79.636719 36.566406 77.621094 C 39.730469 75.605469 42.464844 72.777344 44.769531 69.128906 C 47.070313 65.484375 48.894531 61.261719 50.238281 56.460938 C 51.578125 51.664063 52.257813 46.382813 52.257813 40.625 C 52.257813 34.863281 51.578125 29.589844 50.238281 24.789063 C 48.894531 19.992188 47.070313 15.820313 44.769531 12.265625 C 42.464844 8.714844 39.730469 5.933594 36.566406 3.914063 C 33.398438 1.902344 29.988281 0.894531 26.34375 0.894531 C 22.695313 0.894531 19.289063 1.902344 16.121094 3.914063 C 12.953125 5.933594 10.21875 8.714844 7.917969 12.265625 C 5.613281 15.820313 3.785156 19.992188 2.449219 24.789063 C 1.101563 29.589844 0.429688 34.863281 0.429688 40.625 "/>
</g>
</g>
</defs>
<g id="surface1">
<path style=" stroke:none;fill-rule:nonzero;fill:rgb(52.929688%,52.929688%,68.554688%);fill-opacity:1;" d="M 602.957031 594.3125 C 606.484375 598.746094 605.050781 603.917969 602.59375 608.183594 C 598.203125 615.808594 592.265625 623.019531 586.246094 629.171875 C 589.3125 622.566406 591.863281 615.621094 594.132813 608.835938 C 596.023438 603.167969 597.824219 597.261719 599.371094 591.210938 C 600.699219 591.992188 601.925781 593.015625 602.957031 594.3125 M 512.488281 662.09375 C 517.878906 660.378906 523.175781 658.347656 528.34375 655.96875 C 531.460938 656.144531 534.578125 656.289063 537.699219 656.394531 C 535.832031 656.890625 533.949219 657.359375 532.0625 657.828125 C 525.578125 659.421875 519.050781 660.855469 512.488281 662.09375 M 357.882813 701.566406 C 360.578125 696.394531 363.246094 691.214844 365.929688 686.070313 C 367.535156 682.996094 369.136719 679.917969 370.738281 676.839844 C 380.976563 675.609375 391.269531 674.847656 401.621094 674.789063 C 388.074219 683.121094 374.519531 691.429688 360.941406 699.703125 C 359.925781 700.328125 358.902344 700.945313 357.882813 701.566406 M 289.828125 774.863281 C 268.800781 789.105469 241.765625 793.921875 219.136719 780.453125 C 223.492188 779.234375 227.792969 777.867188 232.011719 776.492188 C 265.785156 765.492188 297.808594 749.488281 328.910156 731.714844 C 318.179688 748.695313 305.773438 764.0625 289.828125 774.863281 M 151.988281 749.453125 C 153.277344 748.234375 154.605469 747.089844 155.972656 746.019531 C 161.9375 750.132813 168.417969 753.40625 175.257813 755.730469 C 179.035156 757.011719 182.785156 758.027344 186.511719 758.804688 C 187.546875 761.039063 188.679688 763.183594 189.871094 765.1875 C 191.605469 768.101563 193.523438 770.851563 195.597656 773.433594 C 179.390625 774.550781 158.980469 768.300781 151.988281 749.453125 M 155.023438 732.210938 C 155.410156 732.246094 155.796875 732.285156 156.183594 732.316406 C 156.183594 732.316406 156.1875 732.320313 156.1875 732.320313 C 155.988281 732.445313 155.785156 732.5625 155.585938 732.6875 C 155.394531 732.53125 155.210938 732.367188 155.023438 732.210938 M 124.574219 706.710938 C 124.496094 706.03125 124.570313 705.363281 124.746094 704.710938 C 125.433594 706.636719 126.171875 708.523438 126.972656 710.367188 C 125.722656 709.320313 124.738281 708.101563 124.574219 706.710938 M 99.511719 658.570313 C 90.101563 632.335938 115.773438 621.261719 133.320313 618.058594 C 133.632813 618.003906 133.945313 617.953125 134.257813 617.898438 C 134.222656 618.050781 134.179688 618.203125 134.144531 618.355469 C 132.546875 625.257813 132.066406 632.699219 132.226563 640.230469 C 123.601563 651.546875 119.496094 666.199219 120.113281 681.40625 C 111.09375 676.882813 103.425781 669.472656 99.511719 658.570313 M 124.398438 594.300781 C 122.054688 591.152344 120.117188 587.625 121.984375 584.179688 C 124.570313 590.84375 129.664063 596.867188 134.355469 600.867188 C 136.238281 602.46875 138.222656 603.871094 140.269531 605.105469 C 140.132813 605.292969 139.996094 605.484375 139.859375 605.675781 C 139.597656 605.710938 139.335938 605.738281 139.074219 605.773438 C 138.289063 605.875 137.488281 605.984375 136.6875 606.101563 C 132.101563 602.921875 127.910156 599.027344 124.398438 594.300781 M 195.789063 553.640625 C 201.960938 549.144531 209.769531 547.953125 217.074219 547.183594 C 250.363281 543.660156 283.917969 552.664063 317.324219 556.269531 C 315.855469 556.78125 314.394531 557.324219 312.949219 557.90625 C 305.609375 560.859375 298.644531 564.742188 292.003906 569.253906 C 287.117188 568.933594 282.226563 568.523438 277.335938 568.039063 C 266.097656 566.640625 254.859375 565.253906 243.621094 563.9375 C 242.363281 563.789063 241.105469 563.648438 239.847656 563.503906 C 238.863281 563.378906 237.882813 563.25 236.898438 563.121094 C 221.75 561.160156 206.558594 559.304688 191.378906 558.40625 C 192.492188 556.605469 193.9375 554.992188 195.789063 553.640625 M 424.550781 491.5 C 435.355469 480.203125 446.4375 469.222656 457.851563 458.710938 C 467.84375 449.515625 478.761719 440.226563 491.660156 436.691406 C 501.300781 434.046875 514.019531 434.6875 521.285156 444.484375 C 524.761719 449.167969 525.105469 454.367188 523.785156 459.378906 C 517.871094 461.40625 512.15625 463.914063 506.613281 466.804688 C 500.910156 465.550781 495.027344 464.828125 489.722656 466.136719 C 481.394531 468.195313 476.417969 475.851563 471.371094 482.859375 C 471.21875 483.074219 471.066406 483.289063 470.914063 483.503906 C 454.082031 488.910156 438.722656 498.691406 423.28125 507.542969 C 418.859375 509.707031 414.566406 512.1875 410.410156 514.871094 C 407.609375 516.457031 404.800781 518.03125 401.992188 519.605469 C 400.289063 520.386719 398.59375 521.1875 396.902344 521.992188 C 405.945313 511.628906 415.09375 501.390625 424.550781 491.5 M 551.382813 465.757813 C 560.035156 466.179688 568.949219 469.746094 573.300781 479.152344 C 574.015625 480.695313 574.496094 482.1875 574.777344 483.625 C 568.421875 483.4375 562.015625 484.824219 556.144531 487.304688 C 547.90625 481.144531 538.46875 476.621094 528.996094 473.222656 C 529.8125 471.703125 530.550781 470.128906 531.199219 468.515625 C 537.84375 466.539063 544.644531 465.433594 551.382813 465.757813 M 597.722656 509.671875 C 601.140625 516.867188 601.9375 525.382813 600.660156 533.265625 C 597.027344 522.640625 590.648438 513.53125 581.59375 506.304688 C 580.746094 505.628906 579.890625 504.960938 579.019531 504.308594 C 580.066406 503.09375 581.023438 501.792969 581.851563 500.371094 C 582.539063 499.1875 583.101563 497.941406 583.5625 496.660156 C 589.378906 498.757813 594.523438 502.9375 597.722656 509.671875 M 586.898438 578.121094 C 582.355469 578.589844 577.835938 579.675781 573.351563 581.019531 C 573.246094 580.96875 573.136719 580.933594 573.023438 580.894531 C 580.460938 577.183594 587.582031 572.59375 593.613281 566.925781 C 593.195313 570.644531 592.601563 574.335938 591.882813 577.992188 C 590.214844 577.902344 588.542969 577.949219 586.898438 578.121094 M 503.203125 642.675781 C 509.847656 638.890625 515.921875 633.960938 521.203125 627.421875 C 523.707031 624.320313 526.085938 620.996094 528.324219 617.503906 C 541.273438 610.640625 553.796875 602.902344 566.566406 595.667969 C 563.449219 619.128906 544.652344 635.550781 526.222656 644.566406 C 518.546875 644.074219 510.875 643.425781 503.203125 642.675781 M 446.640625 660.046875 C 448.46875 658.910156 450.296875 657.78125 452.121094 656.644531 C 461.050781 655.253906 469.9375 653.621094 478.742188 651.679688 C 479.101563 651.601563 479.453125 651.511719 479.8125 651.429688 C 486.859375 652.234375 493.914063 653.023438 500.972656 653.742188 C 483.332031 658.292969 464.777344 659.789063 446.640625 660.046875 M 176.847656 735.355469 C 178.207031 736.347656 179.621094 737.246094 181.074219 738.074219 C 181.132813 739.527344 181.265625 740.988281 181.476563 742.449219 C 178.472656 740.929688 175.644531 738.984375 173.015625 736.65625 C 174.28125 736.1875 175.558594 735.753906 176.847656 735.355469 M 151.832031 698.160156 C 155.183594 697.820313 158.492188 697.230469 161.761719 696.410156 C 160.277344 704.773438 161.03125 713.664063 164.988281 721.515625 C 163.828125 721.5625 162.667969 721.574219 161.511719 721.5625 C 157.59375 714.214844 154.40625 706.316406 151.832031 698.160156 M 171.679688 628.394531 C 178.324219 628.707031 184.976563 628.300781 191.433594 627.328125 C 192.617188 630.039063 193.90625 632.691406 195.328125 635.257813 C 195.753906 636.027344 196.1875 636.785156 196.632813 637.535156 C 186.707031 639.566406 176.511719 642.382813 168.097656 648.316406 C 160.0625 653.984375 153.820313 662.746094 154.140625 673.976563 C 151.527344 674.742188 148.949219 675.601563 146.398438 676.535156 C 145.667969 672.773438 145.035156 669.019531 144.492188 665.296875 C 143.488281 658.464844 142.824219 651.574219 142.542969 644.6875 C 150.300781 636.644531 160.796875 631.515625 171.679688 628.394531 M 150.488281 624.6875 C 147.777344 626.222656 145.144531 627.945313 142.621094 629.886719 C 142.824219 627.222656 143.179688 624.636719 143.777344 622.175781 C 145.980469 623.128906 148.222656 623.964844 150.488281 624.6875 M 508.570313 478.675781 C 509.261719 478.824219 509.949219 478.984375 510.636719 479.148438 C 508.390625 481.203125 506.03125 483.105469 503.585938 484.875 C 499.171875 486.128906 494.863281 487.789063 490.671875 489.800781 C 495.132813 486.585938 499.691406 483.535156 504.410156 480.75 C 505.644531 480.019531 506.90625 479.300781 508.183594 478.589844 C 508.3125 478.617188 508.445313 478.648438 508.570313 478.675781 M 569.84375 497.980469 C 568.699219 497.261719 567.542969 496.566406 566.378906 495.890625 C 566.796875 495.792969 567.203125 495.683594 567.628906 495.601563 C 569.191406 495.296875 570.789063 495.105469 572.394531 495.035156 C 571.664063 496.085938 570.808594 497.066406 569.84375 497.980469 M 571.382813 542.347656 C 572.183594 540.8125 572.9375 539.25 573.601563 537.640625 C 576.773438 529.980469 577.265625 522.230469 575.640625 514.957031 C 575.65625 514.96875 575.675781 514.980469 575.691406 514.996094 C 586.066406 523.128906 592.394531 534.054688 593.910156 547.558594 C 586.390625 546.230469 578.871094 544.449219 571.382813 542.347656 M 195.097656 743.632813 C 195.929688 743.851563 196.769531 744.050781 197.605469 744.238281 C 197.996094 744.949219 198.421875 745.636719 198.871094 746.308594 C 196.503906 746.378906 194.1875 746.226563 191.9375 745.859375 C 191.621094 744.734375 191.355469 743.605469 191.15625 742.484375 C 192.464844 742.910156 193.777344 743.296875 195.097656 743.632813 M 153.996094 685.867188 C 154.878906 685.59375 155.765625 685.339844 156.65625 685.085938 C 156.746094 685.296875 156.851563 685.503906 156.949219 685.710938 C 155.28125 686.046875 153.59375 686.328125 151.878906 686.546875 C 152.585938 686.3125 153.289063 686.082031 153.996094 685.867188 M 203.824219 647.65625 C 205.75 649.921875 207.8125 652.019531 209.996094 653.945313 C 209.574219 654.363281 209.148438 654.773438 208.726563 655.1875 C 197.3125 657.625 186.148438 661.636719 177.417969 668.960938 C 173.007813 669.640625 168.621094 670.4375 164.28125 671.394531 C 164.675781 668.578125 165.773438 665.882813 167.550781 663.546875 C 171.9375 657.773438 178.820313 654.449219 185.214844 652.308594 C 191.277344 650.28125 197.527344 648.800781 203.824219 647.65625 M 208.066406 623.734375 C 217.472656 623.539063 226.925781 623.878906 236.390625 624.5 C 233.929688 627.433594 231.449219 630.375 228.941406 633.300781 C 221.722656 633.792969 214.527344 634.5 207.394531 635.59375 C 205.273438 632.605469 203.351563 629.347656 201.675781 625.824219 C 201.605469 625.679688 201.542969 625.53125 201.476563 625.390625 C 203.683594 624.878906 205.882813 624.328125 208.066406 623.734375 M 182.175781 597.09375 C 182.449219 598.367188 182.738281 599.644531 183.035156 600.921875 C 176.222656 601.621094 169.058594 601.996094 162.140625 601.171875 C 165.160156 599.550781 168.265625 598.132813 171.3125 596.828125 C 174.589844 595.421875 177.9375 594.21875 181.332031 593.175781 C 181.613281 594.503906 181.898438 595.808594 182.175781 597.09375 M 194.707031 599.515625 C 194.039063 599.601563 193.359375 599.6875 192.675781 599.773438 C 191.949219 596.769531 191.300781 593.746094 190.726563 590.726563 C 192.070313 590.433594 193.414063 590.152344 194.765625 589.902344 C 211.046875 586.890625 227.785156 587.125 244.394531 589.101563 C 244.800781 589.148438 245.199219 589.214844 245.605469 589.265625 C 228.894531 593.84375 211.910156 597.367188 194.707031 599.515625 M 535.320313 494.929688 C 537.394531 495.378906 539.472656 495.9375 541.546875 496.578125 C 538.785156 498.933594 536.1875 501.484375 533.683594 504.160156 C 533.164063 503.046875 532.285156 502.085938 530.980469 501.492188 C 516.242188 494.761719 501.273438 499.324219 488.617188 507.578125 C 488.574219 507.316406 488.535156 507.054688 488.492188 506.789063 C 494.855469 503.367188 501.308594 499.839844 507.363281 495.703125 C 516.28125 493.335938 525.644531 492.835938 535.320313 494.929688 M 545.074219 557.953125 C 543.890625 553.300781 541.632813 549.097656 537.851563 545.960938 C 522.9375 533.566406 508.4375 551.046875 498.867188 561.40625 C 498.839844 561.433594 498.8125 561.460938 498.789063 561.488281 C 498.808594 560.894531 498.777344 560.316406 498.671875 559.769531 C 498.613281 559.480469 498.53125 559.199219 498.453125 558.914063 C 501.765625 556.089844 505.011719 553.167969 508.167969 550.105469 C 512.539063 545.859375 516.574219 541.269531 520.503906 536.5625 C 531.609375 540.691406 542.730469 544.84375 553.9375 548.546875 C 551.085938 551.796875 548.132813 554.9375 545.074219 557.953125 M 462.511719 632.671875 C 468.652344 630.285156 474.785156 627.855469 480.917969 625.4375 C 479.726563 626.1875 478.535156 626.945313 477.347656 627.699219 C 472.4375 629.46875 467.488281 631.121094 462.511719 632.671875 M 198.230469 677.898438 C 199.644531 677.734375 201.058594 677.574219 202.46875 677.410156 C 206.300781 676.972656 210.148438 676.566406 214.003906 676.183594 C 206.316406 680.101563 199.519531 685.410156 194.5625 692.84375 C 191.816406 693.460938 189.027344 693.789063 186.214844 693.753906 C 182.710938 693.710938 179.175781 692.949219 175.949219 691.390625 C 183.6875 687.871094 191.128906 683.230469 198.230469 677.898438 M 259.035156 626.398438 C 257.769531 628.273438 256.519531 630.164063 255.273438 632.0625 C 251.402344 632.210938 247.527344 632.363281 243.652344 632.523438 C 245.640625 630.191406 247.621094 627.855469 249.609375 625.523438 C 252.753906 625.800781 255.894531 626.09375 259.035156 626.398438 M 262.328125 610.964844 C 264.957031 610.902344 267.585938 610.835938 270.210938 610.761719 C 268.878906 612.492188 267.570313 614.246094 266.28125 616.019531 C 263.671875 615.777344 261.058594 615.539063 258.445313 615.308594 C 259.730469 613.851563 261.027344 612.40625 262.328125 610.964844 M 238.554688 613.730469 C 240.785156 612.9375 243.015625 612.132813 245.242188 611.328125 C 246.007813 611.3125 246.769531 611.296875 247.535156 611.285156 C 246.710938 612.25 245.882813 613.21875 245.054688 614.199219 C 242.886719 614.035156 240.71875 613.875 238.554688 613.730469 M 434.914063 520.839844 C 424.078125 525.714844 413.082031 530.496094 401.878906 534.589844 C 404.796875 532.300781 407.859375 530 411.03125 527.769531 C 420.144531 523.789063 429.5 520.480469 439.191406 518.878906 C 437.765625 519.53125 436.34375 520.199219 434.914063 520.839844 M 491.980469 549.984375 C 490.222656 548.550781 488.324219 547.347656 486.539063 546.425781 C 488.921875 542.332031 490.953125 537.960938 492.0625 533.480469 C 494.554688 533.054688 497.046875 532.625 499.535156 532.195313 C 501.6875 531.828125 503.84375 531.460938 506.003906 531.089844 C 507.300781 531.585938 508.597656 532.078125 509.886719 532.566406 C 504.28125 538.835938 498.269531 544.605469 491.980469 549.984375 M 479.589844 580.828125 C 477.5 582.796875 475.386719 584.734375 473.261719 586.660156 C 469.179688 586.585938 465.097656 586.46875 461.015625 586.308594 C 469.1875 580.90625 477.308594 575.394531 485.183594 569.5 C 483.507813 573.46875 481.632813 577.234375 479.589844 580.828125 M 509.394531 585.550781 C 502.722656 586.148438 496.019531 586.496094 489.300781 586.644531 C 496.480469 579.710938 503.445313 572.496094 510.203125 565.015625 C 515.523438 559.128906 530.949219 544.378906 535.476563 560.28125 C 536.007813 562.148438 536.292969 564.058594 536.382813 565.988281 C 527.914063 573.335938 518.851563 579.867188 509.394531 585.550781 M 250.429688 730.324219 C 250.722656 729.992188 251.011719 729.660156 251.300781 729.324219 C 252.429688 729.226563 253.558594 729.117188 254.6875 728.996094 C 253.273438 729.464844 251.855469 729.90625 250.429688 730.324219 M 233.3125 682.472656 C 234.28125 681.585938 235.230469 680.695313 236.148438 679.8125 C 244.320313 677.785156 252.570313 676.59375 259.628906 675.394531 C 251.535156 681.671875 243.28125 687.6875 234.792969 693.320313 C 231.191406 694.460938 227.601563 695.621094 224.023438 696.832031 C 221.035156 697.84375 218.054688 699.003906 215.1875 700.390625 C 221.800781 695.222656 227.761719 689.128906 233.3125 682.472656 M 281.441406 597.554688 C 280.894531 598.125 280.363281 598.710938 279.824219 599.289063 C 278.808594 599.328125 277.785156 599.367188 276.765625 599.398438 C 278.324219 598.785156 279.886719 598.179688 281.441406 597.554688 M 481.535156 555.929688 C 482.210938 556.21875 482.863281 556.546875 483.5 556.914063 C 481.675781 558.335938 479.832031 559.730469 477.976563 561.101563 C 479.238281 559.445313 480.429688 557.730469 481.535156 555.929688 M 459.46875 598.683594 C 454.910156 602.503906 450.296875 606.230469 445.636719 609.890625 C 438.054688 611.285156 430.382813 612.191406 422.675781 612.597656 C 428.960938 607.8125 435.394531 603.214844 442.011719 598.8125 C 443.046875 598.125 444.089844 597.4375 445.128906 596.75 C 450.351563 597.039063 455.59375 597.308594 460.839844 597.515625 C 460.382813 597.902344 459.929688 598.296875 459.46875 598.683594 M 480.910156 597.976563 C 482.296875 597.980469 483.6875 597.976563 485.074219 597.96875 C 483.089844 598.8125 481.09375 599.632813 479.078125 600.410156 C 479.699219 599.609375 480.308594 598.796875 480.910156 597.976563 M 274.054688 695.601563 C 280.726563 694.015625 287.425781 692.523438 294.128906 691.085938 C 304.542969 688.847656 314.964844 686.617188 325.414063 684.515625 C 318.847656 690.703125 312.039063 696.542969 304.929688 701.921875 C 292.820313 707.867188 280.226563 712.628906 267.136719 715.554688 C 265.085938 716.011719 263.03125 716.394531 260.972656 716.738281 C 265.640625 709.996094 269.925781 702.855469 274.054688 695.601563 M 270.140625 681.054688 C 269.917969 681.453125 269.695313 681.851563 269.476563 682.25 C 269.351563 682.472656 269.226563 682.695313 269.101563 682.917969 C 268.394531 683.136719 267.683594 683.351563 266.976563 683.566406 C 268.03125 682.730469 269.089844 681.894531 270.140625 681.054688 M 303.34375 609.351563 C 307.496094 609.097656 311.652344 608.800781 315.8125 608.464844 C 313.132813 612.0625 310.492188 615.707031 307.898438 619.386719 C 303.410156 619.140625 298.925781 618.839844 294.445313 618.496094 C 293.71875 618.441406 292.988281 618.378906 292.261719 618.320313 C 295.832031 615.191406 299.53125 612.191406 303.34375 609.351563 M 413.410156 633.769531 C 411.808594 633.683594 410.210938 633.605469 408.609375 633.535156 C 409.234375 632.699219 409.839844 631.851563 410.445313 631.003906 C 412.207031 629.691406 413.855469 628.261719 415.3125 626.664063 C 416.144531 625.757813 416.867188 624.785156 417.511719 623.769531 C 420.984375 623.722656 424.449219 623.578125 427.910156 623.34375 C 423.109375 626.875 418.269531 630.34375 413.410156 633.769531 M 287.519531 671.421875 C 296.425781 670.394531 305.363281 669.589844 314.320313 669.027344 C 304.074219 672.175781 293.824219 675.324219 283.574219 678.472656 C 284.886719 676.105469 286.199219 673.753906 287.519531 671.421875 M 329.511719 616.253906 C 328.050781 617.492188 326.589844 618.730469 325.132813 619.972656 C 323.644531 619.957031 322.160156 619.933594 320.675781 619.898438 C 323.121094 616.542969 325.613281 613.230469 328.136719 609.949219 C 328.445313 612.074219 328.90625 614.179688 329.511719 616.253906 M 308.960938 592.210938 C 307.703125 591.859375 306.445313 591.503906 305.1875 591.15625 C 308.421875 588.644531 311.757813 586.269531 315.191406 584.023438 C 317.351563 584.292969 319.511719 584.566406 321.675781 584.832031 C 317.3125 587.113281 313.066406 589.597656 308.960938 592.210938 M 406.34375 547.890625 C 395.707031 555.976563 384.195313 563.464844 371.941406 567.84375 C 371.882813 567.183594 371.730469 566.492188 371.480469 565.789063 C 371.070313 564.644531 370.578125 563.589844 370.019531 562.621094 C 372.609375 560.085938 375.234375 557.585938 377.886719 555.125 C 379.4375 554.597656 380.992188 554.078125 382.546875 553.566406 C 385.707031 552.527344 388.988281 551.539063 392.351563 550.660156 C 396.96875 549.574219 401.648438 548.6875 406.34375 547.890625 M 459.289063 527.644531 C 460.339844 526.535156 461.390625 525.425781 462.457031 524.339844 C 464.128906 522.640625 465.84375 520.976563 467.59375 519.351563 C 469.210938 519.640625 470.824219 519.964844 472.4375 520.324219 C 470.207031 522.335938 468.015625 524.410156 465.847656 526.523438 C 463.660156 526.898438 461.476563 527.269531 459.289063 527.644531 M 475.890625 543.148438 C 472.335938 542.632813 468.734375 542.601563 465.140625 542.894531 C 467 540.976563 468.871094 539.050781 470.757813 537.144531 C 473.429688 536.6875 476.101563 536.226563 478.773438 535.765625 C 478.335938 537.644531 477.789063 539.457031 477.144531 541.195313 C 476.726563 541.855469 476.308594 542.507813 475.890625 543.148438 M 446.207031 542.457031 C 446.5625 542.03125 446.914063 541.605469 447.269531 541.183594 C 448.972656 540.890625 450.675781 540.597656 452.375 540.304688 C 451.238281 541.503906 450.105469 542.699219 448.976563 543.890625 C 448.0625 543.382813 447.136719 542.910156 446.207031 542.457031 M 352.90625 615.664063 C 353.851563 615.894531 354.792969 616.121094 355.734375 616.34375 C 354.410156 617.214844 353.082031 618.074219 351.742188 618.921875 C 351.59375 618.964844 351.441406 619.007813 351.292969 619.050781 C 348.320313 619.3125 345.339844 619.515625 342.351563 619.664063 C 344.421875 617.953125 346.492188 616.253906 348.578125 614.570313 C 350.019531 614.9375 351.464844 615.3125 352.90625 615.664063 M 364.640625 602.058594 C 369.570313 601.117188 374.476563 600.082031 379.351563 598.933594 C 377.464844 600.484375 375.5625 602.023438 373.640625 603.523438 C 371.804688 604.960938 369.949219 606.359375 368.078125 607.742188 C 365.238281 607.160156 362.402344 606.550781 359.566406 605.902344 C 361.25 604.609375 362.941406 603.328125 364.640625 602.058594 M 400.054688 580.105469 C 399.621094 579.84375 399.1875 579.59375 398.75 579.347656 C 400.285156 578.453125 401.835938 577.570313 403.394531 576.695313 C 402.289063 577.84375 401.179688 578.980469 400.054688 580.105469 M 451.394531 557.890625 C 450.832031 558.238281 450.269531 558.589844 449.703125 558.933594 C 450.136719 558.480469 450.5625 558.019531 450.992188 557.566406 C 451.128906 557.671875 451.261719 557.78125 451.394531 557.890625 M 327.351563 651.242188 C 323.121094 651.078125 318.890625 650.910156 314.65625 650.746094 C 321.96875 647.691406 329.140625 644.320313 336.136719 640.695313 C 335.277344 643.003906 335.8125 646.050781 337.929688 647.816406 C 338.332031 648.152344 338.738281 648.480469 339.148438 648.800781 C 335.585938 649.691406 332.003906 650.515625 328.40625 651.28125 C 328.054688 651.265625 327.703125 651.253906 327.351563 651.242188 M 402.335938 594.777344 C 401.582031 596.152344 400.832031 597.527344 400.082031 598.90625 C 399.21875 599.9375 398.355469 600.964844 397.492188 602 C 396.339844 602.527344 395.1875 603.054688 394.027344 603.566406 C 391.941406 604.492188 389.84375 605.390625 387.738281 606.269531 C 392.433594 602.335938 397.011719 598.242188 401.476563 593.992188 C 401.765625 594.246094 402.054688 594.507813 402.335938 594.777344 M 362.878906 589.683594 C 362.179688 590.195313 361.484375 590.710938 360.789063 591.226563 C 354.078125 592.484375 347.324219 593.566406 340.554688 594.484375 C 342.441406 592.230469 344.355469 590.003906 346.28125 587.789063 C 351.8125 588.4375 357.347656 589.070313 362.878906 589.683594 M 377.304688 626.460938 C 375.324219 628.871094 373.34375 631.285156 371.363281 633.699219 C 370.957031 633.722656 370.550781 633.742188 370.144531 633.769531 C 366.699219 633.996094 363.265625 634.296875 359.839844 634.660156 C 357.527344 633.65625 355.292969 632.464844 353.183594 631.097656 C 353.8125 630.714844 354.441406 630.332031 355.066406 629.941406 C 362.546875 629.1875 369.96875 628.058594 377.304688 626.460938 M 430.550781 584.617188 C 429.191406 584.527344 427.835938 584.441406 426.476563 584.347656 C 426.859375 583.910156 427.242188 583.46875 427.632813 583.035156 C 434.011719 580.234375 440.300781 577.160156 446.464844 573.765625 C 448.539063 572.625 450.585938 571.433594 452.625 570.21875 C 445.554688 575.503906 438.058594 580.171875 430.550781 584.617188 M 465.09375 558.21875 C 464.984375 557.195313 464.574219 556.191406 463.765625 555.347656 C 463.535156 555.105469 463.296875 554.878906 463.066406 554.644531 C 463.660156 554.5625 464.253906 554.460938 464.851563 554.386719 C 465.945313 554.253906 467.105469 554.148438 468.300781 554.082031 C 467.253906 555.480469 466.183594 556.859375 465.09375 558.21875 M 428.246094 547.824219 C 426.304688 550.246094 424.351563 552.660156 422.394531 555.0625 C 414.539063 558.328125 406.859375 562.058594 399.355469 566.167969 C 408.160156 560.558594 416.539063 554.132813 424.636719 547.351563 C 425.84375 547.472656 427.046875 547.628906 428.246094 547.824219 M 323.722656 596.421875 C 324.492188 596.015625 325.265625 595.609375 326.042969 595.214844 C 325.75 595.582031 325.457031 595.949219 325.164063 596.316406 C 324.714844 596.359375 324.261719 596.402344 323.8125 596.449219 C 323.78125 596.4375 323.753906 596.429688 323.722656 596.421875 M 294.660156 629.75 C 289.523438 630.230469 284.378906 630.613281 279.222656 630.925781 C 279.957031 630.144531 280.691406 629.367188 281.4375 628.597656 C 285.855469 629.015625 290.265625 629.40625 294.660156 629.75 M 268.636719 642.855469 C 276.921875 642.519531 285.160156 641.972656 293.351563 641.171875 C 291.964844 643.371094 290.597656 645.585938 289.242188 647.8125 C 288.636719 648.003906 288.035156 648.203125 287.425781 648.382813 C 285.8125 648.867188 284.1875 649.347656 282.554688 649.824219 C 275.941406 649.742188 269.335938 649.75 262.738281 649.902344 C 264.695313 647.539063 266.65625 645.1875 268.636719 642.855469 M 212.5625 719.371094 C 220.398438 715.5625 228.015625 711.175781 235.441406 706.402344 C 236.945313 705.898438 238.453125 705.394531 239.96875 704.914063 C 246.496094 702.839844 253.074219 700.953125 259.6875 699.203125 C 255.570313 705.933594 251.183594 712.441406 246.308594 718.441406 C 235.113281 719.234375 223.832031 719.109375 212.5625 719.371094 M 204.253906 734.160156 C 204.078125 733.085938 204.015625 731.984375 204.050781 730.882813 C 214.460938 730.269531 224.902344 730.367188 235.304688 730.125 C 233.582031 731.671875 231.796875 733.132813 229.960938 734.507813 C 221.460938 735.464844 212.851563 735.414063 204.253906 734.160156 M 528.292969 595.015625 C 527.148438 595.761719 526 596.503906 524.855469 597.25 C 514.082031 600.992188 503.347656 604.855469 492.65625 608.855469 C 480.78125 613.292969 469.03125 618.15625 457.195313 622.753906 C 457.90625 622.175781 458.621094 621.59375 459.324219 620.996094 C 460.722656 619.816406 462.101563 618.601563 463.460938 617.359375 C 480.558594 612.71875 497.03125 605.753906 512.460938 596.65625 C 517.832031 596.144531 523.179688 595.460938 528.488281 594.578125 C 528.421875 594.722656 528.355469 594.867188 528.292969 595.015625 M 523.210938 516.445313 C 518.875 517.320313 514.539063 518.105469 510.253906 518.859375 C 508.902344 519.101563 507.554688 519.332031 506.203125 519.566406 C 502.894531 518.335938 499.558594 517.121094 496.207031 515.953125 C 505.664063 510.335938 516.308594 507.113281 527.121094 511.648438 C 525.804688 513.234375 524.503906 514.835938 523.210938 516.445313 M 553.726563 501.335938 C 555.765625 502.300781 557.78125 503.34375 559.773438 504.445313 C 559.792969 504.464844 559.8125 504.488281 559.832031 504.507813 C 553.847656 507.664063 547.539063 510.089844 541.070313 512.050781 C 544.972656 507.96875 549.148438 504.257813 553.726563 501.335938 M 205.085938 612.773438 C 202.253906 612.828125 199.398438 612.925781 196.535156 613.085938 C 196.460938 612.875 196.390625 612.660156 196.316406 612.441406 C 200.085938 612.328125 203.851563 612.222656 207.609375 612.128906 C 206.84375 612.347656 206.078125 612.5625 205.308594 612.773438 C 205.234375 612.773438 205.160156 612.773438 205.085938 612.773438 M 233.542969 644.238281 C 238.285156 643.949219 243.035156 643.738281 247.789063 643.5625 C 246.210938 645.996094 244.628906 648.421875 243.035156 650.835938 C 240.265625 651.039063 237.496094 651.265625 234.730469 651.539063 C 232.351563 651.773438 229.898438 652.023438 227.394531 652.304688 C 227.109375 652.183594 226.816406 652.078125 226.535156 651.949219 C 228.9375 649.378906 231.273438 646.800781 233.542969 644.238281 M 216.660156 645.730469 C 217.132813 645.671875 217.605469 645.613281 218.078125 645.558594 C 217.851563 645.808594 217.621094 646.054688 217.394531 646.300781 C 217.148438 646.105469 216.898438 645.929688 216.660156 645.730469 M 568.519531 568.253906 C 565.0625 570.601563 561.597656 572.929688 558.128906 575.253906 C 553.742188 576.902344 549.269531 578.3125 544.746094 579.519531 C 545.265625 577.15625 545.671875 574.671875 545.914063 572.144531 C 552.710938 566.199219 559.597656 559.621094 565.21875 552.097656 C 571.6875 554.015625 578.1875 555.722656 584.742188 557.140625 C 579.34375 560.867188 573.9375 564.578125 568.519531 568.253906 M 560.980469 539.242188 C 549.804688 535.71875 538.714844 531.671875 527.808594 527.632813 C 528.015625 527.375 528.222656 527.117188 528.429688 526.859375 C 539.054688 524.523438 549.511719 521.53125 559.515625 517.027344 C 561.46875 516.148438 563.492188 515.214844 565.507813 514.1875 C 568.429688 522.984375 565.578125 531.777344 560.980469 539.242188 M 165.742188 616.839844 C 162.476563 616.4375 159.171875 615.789063 155.886719 614.898438 C 165.925781 613.859375 176.042969 613.234375 186.164063 612.8125 C 186.277344 613.1875 186.390625 613.5625 186.503906 613.9375 C 180.652344 614.613281 174.832031 615.644531 169.167969 617.175781 C 168.027344 617.089844 166.886719 616.980469 165.742188 616.839844 M 170.902344 704.800781 C 170.910156 703.519531 170.988281 702.277344 171.121094 701.0625 C 171.976563 701.539063 172.835938 701.984375 173.714844 702.363281 C 178.695313 704.523438 183.769531 705.363281 188.816406 705.195313 C 188.074219 708.859375 190.882813 711.730469 193.871094 711.960938 C 191.679688 713.507813 189.652344 715.265625 187.882813 717.296875 C 183.972656 718.523438 180.015625 719.53125 176.035156 720.261719 C 172.867188 716.164063 170.871094 711.0625 170.902344 704.800781 M 478.753906 640.054688 C 478.714844 640.050781 478.679688 640.046875 478.640625 640.039063 C 479.714844 639.367188 480.785156 638.6875 481.859375 638.011719 C 489.285156 635.316406 496.636719 632.382813 503.898438 629.21875 C 496.382813 634.90625 487.6875 637.921875 478.753906 640.054688 M 276.617188 579.199219 C 276.816406 579.226563 277.015625 579.25 277.214844 579.273438 C 274.511719 580.238281 271.804688 581.183594 269.085938 582.101563 C 242.101563 576.40625 214.863281 573.769531 188.910156 579.425781 C 188.800781 578.59375 188.691406 577.769531 188.589844 576.941406 C 188.28125 574.398438 188.160156 571.886719 188.28125 569.464844 C 189.824219 569.546875 191.367188 569.632813 192.910156 569.730469 C 196.546875 570.101563 200.175781 570.492188 203.78125 570.851563 C 215.785156 572.039063 227.785156 573.363281 239.78125 574.753906 C 252.003906 576.34375 264.308594 577.972656 276.617188 579.199219 M 132.132813 575.796875 C 135.785156 573.714844 139.644531 572.199219 143.609375 571.078125 C 152.410156 569.789063 161.308594 569.15625 170.234375 569.0625 C 172.910156 569.035156 175.585938 569.050781 178.257813 569.101563 C 178.152344 573.316406 178.558594 577.65625 179.210938 581.953125 C 172.855469 583.894531 166.59375 586.378906 160.445313 589.496094 C 156.105469 591.703125 151.820313 594.21875 147.96875 597.277344 C 143.753906 595.273438 139.84375 592.453125 136.4375 588.519531 C 134.132813 585.867188 130.304688 580.929688 130.203125 576.929688 C 130.859375 576.535156 131.507813 576.15625 132.132813 575.796875 M 130.136719 672.335938 C 130.640625 667.105469 131.84375 662.421875 133.601563 658.21875 C 133.972656 661.277344 134.386719 664.292969 134.816406 667.230469 C 135.460938 671.625 136.25 676.007813 137.164063 680.375 C 134.878906 681.453125 132.480469 682.6875 130.136719 684.113281 C 129.773438 680.179688 129.761719 676.230469 130.136719 672.335938 M 142.519531 718.363281 C 142.1875 717.875 141.851563 717.398438 141.53125 716.898438 C 137.679688 710.917969 134.640625 704.207031 132.625 697.191406 C 135.699219 697.824219 138.742188 698.214844 141.761719 698.386719 C 143.507813 704.152344 145.488281 709.835938 147.71875 715.382813 C 148.390625 717.046875 149.097656 718.710938 149.84375 720.363281 C 147.386719 719.867188 144.941406 719.195313 142.519531 718.363281 M 340.375 712.09375 C 314.105469 727.679688 287.386719 742.398438 259.472656 754.21875 C 242.996094 761.199219 225.554688 768.296875 207.800781 771.714844 C 207.566406 771.488281 207.324219 771.277344 207.09375 771.046875 C 204.402344 768.367188 201.421875 764.699219 198.75 760.523438 C 207.246094 761.148438 215.605469 760.59375 223.828125 759.117188 C 230.425781 759.621094 237.136719 758.847656 243.296875 757.722656 C 269.699219 752.90625 292.988281 736.882813 313.339844 718.699219 C 318.464844 714.121094 323.453125 709.367188 328.359375 704.511719 C 329.449219 703.773438 330.539063 703.039063 331.621094 702.316406 C 338.734375 697.5625 345.890625 692.839844 353.050781 688.125 C 353.03125 688.160156 353.011719 688.199219 352.992188 688.234375 C 348.871094 696.117188 344.722656 704.15625 340.375 712.09375 M 568.628906 638.425781 C 567.457031 639.976563 566.222656 641.390625 564.933594 642.679688 C 563.125 643.230469 561.269531 643.683594 559.363281 644.035156 C 555.132813 644.808594 550.847656 645.144531 546.542969 645.246094 C 562.894531 633.0625 576.277344 614.960938 576.925781 592.078125 C 580.933594 590.847656 585.070313 589.535156 589.289063 589.21875 C 588.480469 592.3125 587.613281 595.367188 586.710938 598.371094 C 582.480469 612.484375 577.175781 627.109375 568.628906 638.425781 M 647.75 546.867188 C 637.203125 549.460938 626.546875 550.335938 615.84375 549.953125 C 626.128906 544.519531 637.910156 541.054688 647.75 546.867188 M 662.089844 546.003906 C 650.753906 531.589844 632.964844 530.402344 618.488281 536.078125 C 615.40625 537.285156 612.453125 538.78125 609.570313 540.4375 C 610.707031 535.8125 611.253906 530.808594 611.089844 525.398438 C 610.609375 509.3125 603.238281 494.292969 589.722656 487.371094 C 588.171875 486.578125 586.585938 485.925781 584.972656 485.394531 C 584.671875 481.648438 583.683594 477.898438 582.070313 474.429688 C 572.554688 453.980469 551.101563 452.464844 534.0625 456.414063 C 534.554688 448.972656 532.582031 441.496094 526.820313 435.265625 C 516.320313 423.90625 501.046875 422.039063 488.136719 425.964844 C 472.160156 430.820313 459.109375 442.460938 446.746094 454.101563 C 432.824219 467.210938 419.332031 480.894531 406.300781 495.117188 C 393.96875 508.574219 382.488281 523.109375 369.648438 535.960938 C 365.648438 538.269531 361.726563 540.734375 357.964844 543.433594 C 356.226563 544.328125 354.492188 545.21875 352.75 546.105469 C 351.464844 546.203125 350.179688 546.289063 348.890625 546.351563 C 318.296875 547.792969 287.632813 540.007813 257.089844 536.703125 C 241.976563 535.070313 226.691406 534.460938 211.757813 536.445313 C 200.660156 537.917969 188.226563 541.859375 182.125 553.054688 C 181.34375 554.492188 180.707031 555.980469 180.183594 557.511719 C 171.933594 556.960938 163.6875 556.769531 155.492188 557.488281 C 150.6875 557.910156 145.914063 558.71875 141.273438 560 C 140.96875 560.046875 140.660156 560.085938 140.351563 560.128906 C 133.703125 561.136719 124.636719 562.488281 121.441406 569.609375 C 116.3125 573.5 111.195313 578.492188 111.136719 586.207031 C 111.082031 593.328125 115.449219 599.824219 119.78125 604.746094 C 120.992188 606.121094 122.238281 607.421875 123.515625 608.664063 C 109.082031 612.394531 95 619.714844 89.535156 635.578125 C 81.175781 659.828125 99.859375 684.3125 119.503906 693.046875 C 117.222656 695.914063 115.542969 699.191406 114.886719 702.953125 C 112.484375 716.667969 127.359375 724.078125 136.660156 727.777344 C 136.84375 727.851563 137.03125 727.914063 137.214844 727.988281 C 140.230469 731.988281 143.566406 735.660156 147.171875 738.980469 C 145.679688 740.300781 144.230469 741.703125 142.835938 743.195313 C 141.652344 744.464844 140.816406 746.550781 141.367188 748.507813 C 146.3125 766.191406 160.3125 778.496094 175.828125 782.777344 C 185.742188 785.515625 195.726563 785.273438 205.535156 783.589844 C 218.476563 794.445313 234.652344 800.316406 250.253906 799.964844 C 276.597656 799.378906 300.285156 784.402344 318.105469 764.132813 C 329.5 751.175781 338.894531 736.320313 347.535156 720.851563 C 372.484375 706.082031 397.179688 690.765625 421.851563 675.4375 C 436.414063 676.308594 450.984375 677.734375 465.539063 677.851563 C 484.175781 678 502.632813 675.777344 520.761719 672.007813 C 537.085938 668.613281 555.773438 665.757813 568.960938 654.046875 C 569.574219 653.496094 570.167969 652.921875 570.761719 652.34375 C 578.203125 649.71875 585.179688 645.621094 591.460938 639.410156 C 598.304688 632.640625 604.910156 624.488281 610.171875 616.070313 C 615.328125 607.816406 617.300781 597.078125 610.980469 588.132813 C 608.453125 584.554688 605.277344 582.050781 601.792969 580.414063 C 603.0625 573.789063 603.917969 567.070313 604.15625 560.355469 C 622.9375 562.433594 641.839844 561.359375 659.5625 555.132813 C 662.925781 553.953125 664.886719 549.566406 662.089844 546.003906 "/>
<path style=" stroke:none;fill-rule:nonzero;fill:rgb(45.872498%,45.872498%,62.693787%);fill-opacity:1;" d="M 622.910156 594.652344 C 619.632813 605.75 612.238281 614.859375 603.414063 621.355469 C 586.730469 633.632813 564.917969 635.40625 544.136719 636.617188 C 556.546875 628.882813 568.480469 620.335938 579.835938 610.992188 C 588.699219 603.699219 599.984375 595.832031 604.90625 584.746094 C 610.070313 573.117188 604.308594 560.277344 595.519531 551.605469 C 592.089844 548.222656 588.316406 545.40625 584.300781 543.042969 C 584.59375 541.570313 584.820313 540.085938 584.996094 538.589844 C 596.972656 541.808594 608.164063 548.386719 616.082031 559.171875 C 623.761719 569.632813 626.472656 582.601563 622.910156 594.652344 M 431.460938 670.558594 C 433.828125 668.996094 436.191406 667.4375 438.558594 665.875 C 463.171875 649.640625 487.78125 633.40625 512.394531 617.175781 C 518.503906 613.144531 524.890625 609.207031 531.246094 605.125 C 532.519531 605.148438 533.796875 605.171875 535.082031 605.183594 C 531.910156 610.824219 528.507813 616.300781 524.742188 621.507813 C 519.742188 628.417969 513.980469 634.8125 507.539063 640.261719 C 492.359375 643.117188 477.839844 648.390625 465.972656 658.761719 C 464.945313 659.660156 464.457031 660.75 464.363281 661.863281 C 453.5625 665.3125 442.582031 668.21875 431.460938 670.558594 M 356.652344 707.230469 C 344.609375 715.171875 332.492188 723.464844 320.132813 731.433594 C 339.835938 717.84375 358.863281 703.179688 377.359375 687.867188 C 378.382813 687.828125 379.402344 687.789063 380.421875 687.742188 C 382.53125 687.644531 384.640625 687.519531 386.742188 687.382813 C 376.714844 693.996094 366.683594 700.613281 356.652344 707.230469 M 195.746094 775.175781 C 187.175781 773.742188 177.285156 768.375 179.175781 757.597656 C 180.035156 752.675781 182.53125 748.230469 185.691406 744.203125 C 186.261719 744.089844 186.828125 743.976563 187.390625 743.855469 C 187.453125 746.664063 187.539063 749.472656 187.683594 752.277344 C 188.183594 761.851563 191.46875 770.433594 198.570313 775.558594 C 197.628906 775.453125 196.683594 775.335938 195.746094 775.175781 M 176.707031 734.632813 C 170.664063 735.273438 163.695313 735.855469 157.824219 733.027344 C 153.289063 730.84375 148.464844 724.390625 152.269531 719.695313 C 152.351563 719.59375 152.445313 719.503906 152.53125 719.40625 C 164.375 719.105469 176.214844 717.769531 187.921875 716.28125 C 187.71875 719.90625 187.5625 723.539063 187.460938 727.179688 C 185.511719 729.121094 183.609375 731.113281 181.765625 733.164063 C 181.492188 733.46875 181.222656 733.777344 180.945313 734.085938 C 179.539063 734.296875 178.125 734.484375 176.707031 734.632813 M 116.585938 695.4375 C 113.453125 690.0625 114.761719 684.269531 118.441406 680.113281 C 120.453125 677.839844 122.9375 676.296875 125.640625 675.230469 C 129.820313 676.539063 134.101563 677.230469 137.917969 677.460938 C 148.464844 678.089844 158.75 675.746094 168.488281 672.191406 C 170.625 672.171875 172.757813 672.140625 174.878906 672.074219 C 175.730469 672.046875 176.585938 672.015625 177.4375 671.988281 C 182.132813 674.132813 186.953125 675.871094 191.867188 677.332031 C 190.714844 685.039063 189.777344 692.792969 189.070313 700.585938 C 184.074219 700.855469 179.101563 701.296875 174.167969 701.96875 C 166.339844 703.035156 155.671875 704.023438 148.496094 708.988281 C 137.332031 708.839844 123.074219 706.566406 116.585938 695.4375 M 117.929688 659.570313 C 113.730469 655.09375 114.585938 646.847656 115.328125 641.421875 C 116.929688 629.722656 122.855469 619.136719 130.515625 611.066406 C 132.296875 609.191406 134.160156 607.460938 136.09375 605.847656 C 136.625 607.667969 137.367188 609.425781 138.253906 611.121094 C 137.480469 613.347656 136.910156 615.660156 136.59375 618.066406 C 134.53125 633.628906 145.199219 648.53125 156.257813 658.328125 C 157.632813 659.546875 159.035156 660.679688 160.453125 661.777344 C 153.566406 661.945313 146.675781 662.109375 139.785156 662.324219 C 134.945313 662.476563 129.941406 662.996094 125.253906 664.292969 C 122.476563 663.183594 119.886719 661.660156 117.929688 659.570313 M 192.222656 560.117188 C 208.164063 554.644531 225.113281 552.210938 241.9375 550.417969 C 262.722656 548.207031 283.6875 547.289063 304.710938 547.324219 C 313.253906 547.335938 321.800781 547.503906 330.347656 547.789063 C 325.816406 552.539063 321.449219 557.480469 317.285156 562.617188 C 312.605469 568.382813 307.988281 574.394531 303.816406 580.710938 C 301.394531 581.019531 298.96875 581.320313 296.539063 581.605469 C 296.46875 581.613281 296.394531 581.621094 296.324219 581.632813 C 290.664063 581.878906 285.027344 582.316406 279.421875 582.984375 C 268.617188 581.730469 257.8125 580.546875 247.011719 579.53125 C 239.597656 578.835938 231.792969 578.128906 223.8125 577.617188 C 223.367188 577.363281 222.921875 577.109375 222.472656 576.84375 C 215.714844 572.890625 209.003906 569.019531 201.429688 567.664063 C 186.972656 565.078125 173.550781 572.382813 162.824219 581.09375 C 159.886719 581.824219 157.003906 582.667969 154.183594 583.632813 C 164.4375 572.316406 178.058594 564.980469 192.222656 560.117188 M 376.761719 522.484375 C 372.265625 527.730469 368.070313 533.257813 364.175781 539.023438 C 361.289063 538.832031 358.402344 538.648438 355.515625 538.480469 C 362.300781 532.738281 369.394531 527.394531 376.761719 522.484375 M 569.152344 507.554688 C 572.453125 513.730469 574.273438 519.996094 574.886719 526.171875 C 568.324219 525.472656 561.734375 525.582031 555.257813 526.402344 C 554.972656 524.441406 554.566406 522.480469 554.011719 520.527344 C 549.214844 503.710938 537.726563 491.347656 523.6875 483.851563 C 523.238281 483.449219 522.726563 483.144531 522.144531 482.996094 C 522.074219 482.976563 522.003906 482.960938 521.929688 482.941406 C 515.363281 479.675781 508.296875 477.441406 501.121094 476.296875 C 492.347656 474.894531 483.4375 474.742188 474.570313 475.464844 C 509.273438 467.78125 549.742188 471.214844 569.152344 507.554688 M 568.804688 536.226563 C 570.789063 536.289063 572.785156 536.433594 574.773438 536.660156 C 574.710938 537.207031 574.636719 537.753906 574.554688 538.296875 C 572.667969 537.539063 570.75 536.855469 568.804688 536.226563 M 555.207031 587.941406 C 562.3125 581.945313 568.769531 575.253906 573.996094 567.421875 C 574.476563 569.617188 574.636719 571.8125 574.519531 572.949219 C 573.949219 578.476563 570.945313 583.441406 567.105469 586.921875 C 563.019531 590.625 557.957031 592.609375 552.550781 593.652344 C 553.445313 591.757813 554.335938 589.851563 555.207031 587.941406 M 406.355469 663.050781 C 421.277344 649.875 435.914063 636.347656 450.394531 622.636719 C 454.324219 621.289063 458.210938 619.8125 462.03125 618.210938 C 471.492188 614.242188 480.601563 609.507813 489.414063 604.230469 C 496.945313 604.433594 504.480469 604.601563 512.011719 604.757813 C 506.285156 608.53125 500.5625 612.308594 494.839844 616.082031 C 465.089844 635.707031 435.339844 655.328125 405.585938 674.953125 C 400.695313 675.585938 395.78125 676.109375 390.855469 676.527344 C 396.058594 672.074219 401.226563 667.578125 406.355469 663.050781 M 392.757813 551.707031 C 389.710938 554.664063 386.652344 557.609375 383.621094 560.582031 C 381.410156 562.746094 379.222656 564.933594 377.019531 567.109375 C 370.597656 568.683594 364.144531 570.160156 357.671875 571.539063 C 361.121094 563.988281 365.0625 556.75 369.460938 549.875 C 377.222656 550.421875 384.992188 551.035156 392.757813 551.707031 M 538.945313 530.011719 C 535.035156 529.460938 531.195313 528.945313 527.488281 528.402344 C 500.183594 524.390625 471.953125 522.59375 445.765625 530.242188 C 435.472656 533.246094 425.71875 537.546875 416.777344 543.429688 C 416.558594 543.410156 416.335938 543.386719 416.113281 543.367188 C 426.152344 533.738281 436.394531 524.359375 447.0625 515.636719 C 466.832031 499.472656 492.359375 485.867188 519.148438 492.796875 C 519.433594 492.871094 519.722656 492.917969 520.007813 492.957031 C 520.867188 493.421875 521.726563 493.902344 522.570313 494.417969 C 534.445313 501.652344 543.753906 514.734375 545.371094 528.21875 C 543.207031 528.738281 541.0625 529.339844 538.945313 530.011719 M 424.625 618.382813 C 423.140625 618.640625 421.617188 618.898438 420.078125 619.140625 C 424.25 616.902344 428.375 614.574219 432.445313 612.160156 C 435.675781 610.246094 438.851563 608.265625 442 606.242188 C 445.59375 606.136719 449.183594 605.984375 452.769531 605.785156 C 450.160156 608.28125 447.546875 610.769531 444.929688 613.253906 C 438.308594 615.421875 431.542969 617.167969 424.625 618.382813 M 376.859375 645.011719 C 381.335938 642.609375 385.75 640.085938 390.085938 637.410156 C 391.828125 636.339844 392.523438 634.242188 392.371094 632.226563 C 393.625 631.714844 394.875 631.191406 396.117188 630.664063 C 406.332031 631.855469 417.15625 630.464844 426.902344 628.757813 C 427.539063 628.644531 428.171875 628.511719 428.808594 628.390625 C 413.324219 642.78125 397.605469 656.894531 381.523438 670.535156 C 382.117188 668.160156 382.539063 665.703125 382.753906 663.160156 C 383.375 655.878906 380.976563 649.785156 376.859375 645.011719 M 262.136719 701.660156 C 267.859375 696.335938 273.40625 690.808594 278.855469 685.164063 C 296.074219 678.382813 313.613281 672.296875 330.816406 665.636719 C 331.796875 674.691406 334.738281 683.398438 344.328125 686.566406 C 349.042969 688.121094 354.058594 688.175781 358.933594 688.15625 C 344.136719 702.339844 321.964844 706.390625 301.660156 706.535156 C 287.578125 706.632813 273.472656 705.511719 259.363281 704.195313 C 260.292969 703.355469 261.222656 702.515625 262.136719 701.660156 M 197.851563 717.726563 C 197.902344 716.792969 197.953125 715.855469 198.007813 714.921875 C 199.371094 714.71875 200.730469 714.515625 202.09375 714.296875 C 200.660156 715.417969 199.25 716.5625 197.851563 717.726563 M 222.710938 712.640625 C 223.273438 712.28125 223.84375 711.933594 224.410156 711.578125 C 227.140625 711.761719 229.867188 711.964844 232.597656 712.1875 C 222.765625 719.109375 212.269531 724.945313 200.976563 729.003906 C 207.792969 722.964844 215.074219 717.511719 222.710938 712.640625 M 290.136719 657.722656 C 286.246094 661.960938 282.335938 666.175781 278.390625 670.355469 C 275.546875 672.8125 272.660156 675.199219 269.6875 677.453125 C 267.558594 678.3125 265.4375 679.179688 263.320313 680.0625 C 262.835938 680.261719 262.355469 680.46875 261.871094 680.675781 C 243.703125 675.941406 224.433594 674.714844 205.917969 670.589844 C 234.433594 668.679688 262.808594 665.027344 290.136719 657.722656 M 194.707031 660.667969 C 194.300781 660.6875 193.890625 660.707031 193.484375 660.726563 C 193.933594 660.488281 194.382813 660.257813 194.828125 660.019531 C 194.785156 660.234375 194.746094 660.453125 194.707031 660.667969 M 206.214844 653.988281 C 214.363281 655.847656 222.640625 657.0625 230.878906 657.800781 C 226.695313 658.273438 222.507813 658.703125 218.3125 659.082031 C 213.859375 659.484375 209.402344 659.816406 204.945313 660.097656 C 205.347656 658.054688 205.769531 656.019531 206.214844 653.988281 M 268.589844 595.039063 C 273.1875 594.71875 277.777344 594.296875 282.351563 593.820313 C 283.964844 594.015625 285.578125 594.207031 287.1875 594.398438 C 289.929688 594.722656 292.671875 595.054688 295.410156 595.382813 C 294.910156 596.464844 294.429688 597.566406 293.984375 598.683594 C 290.671875 599.511719 287.386719 600.449219 284.132813 601.5 C 257.816406 609.964844 234.445313 624.6875 210.792969 638.691406 C 210.484375 638.871094 210.179688 639.050781 209.871094 639.230469 C 210.160156 638.195313 210.4375 637.15625 210.742188 636.128906 C 212.59375 629.820313 214.902344 623.640625 218.714844 618.460938 C 222.625 613.144531 228.132813 609.523438 233.851563 606.65625 C 244.9375 601.089844 256.589844 597.390625 268.589844 595.039063 M 359.574219 584.519531 C 357.53125 584.316406 355.492188 584.109375 353.449219 583.910156 C 353.164063 583.882813 352.878906 583.859375 352.59375 583.832031 C 352.644531 583.691406 352.699219 583.550781 352.753906 583.410156 C 356.097656 582.734375 359.433594 582.027344 362.765625 581.300781 C 361.699219 582.371094 360.636719 583.445313 359.574219 584.519531 M 386.832031 575.574219 C 384.558594 579.191406 382.390625 582.886719 380.289063 586.628906 C 377.890625 586.378906 375.488281 586.132813 373.089844 585.886719 C 376.144531 582.832031 379.199219 579.773438 382.269531 576.734375 C 383.792969 576.351563 385.3125 575.96875 386.832031 575.574219 M 421.800781 554.421875 C 420.492188 554.84375 419.183594 555.261719 417.878906 555.675781 C 418.523438 555.179688 419.183594 554.703125 419.84375 554.226563 C 420.496094 554.292969 421.148438 554.359375 421.800781 554.421875 M 475.632813 569.167969 C 465.457031 577.152344 455.003906 584.84375 444.238281 592.027344 C 442.765625 591.949219 441.289063 591.882813 439.816406 591.796875 C 423.707031 590.886719 407.632813 589.394531 391.554688 587.773438 C 394.855469 582.097656 398.359375 576.539063 402.308594 571.382813 C 417.90625 566.960938 433.328125 561.976563 448.554688 556.457031 C 453.273438 554.746094 451.027344 546.917969 446.398438 546.433594 C 442.730469 546.050781 439.058594 545.671875 435.390625 545.296875 C 435.46875 545.261719 435.539063 545.222656 435.617188 545.1875 C 458.023438 535.222656 483.292969 534.191406 507.914063 536.503906 C 512.070313 536.894531 516.226563 537.378906 520.378906 537.921875 C 504.332031 546.371094 489.902344 557.96875 475.632813 569.167969 M 524.910156 579.265625 C 527.921875 576.859375 531 574.425781 533.992188 571.871094 C 530.410156 576.761719 525.570313 580.332031 520.199219 582.972656 C 521.777344 581.746094 523.351563 580.515625 524.910156 579.265625 M 394.148438 619.90625 C 393.429688 619.78125 392.707031 619.644531 391.992188 619.488281 C 388.386719 618.695313 383.683594 617.070313 381.902344 613.195313 C 380.671875 610.511719 381.148438 607.539063 382.261719 604.675781 C 395.15625 605.621094 408.0625 606.25 420.941406 606.414063 C 412.222656 611.347656 403.296875 615.878906 394.148438 619.90625 M 340.222656 650.027344 C 340.804688 649.914063 341.382813 649.792969 341.960938 649.675781 C 341.382813 649.921875 340.800781 650.164063 340.21875 650.40625 C 340.222656 650.28125 340.222656 650.152344 340.222656 650.027344 M 313.222656 654.582031 C 318.925781 653.792969 324.609375 652.898438 330.265625 651.898438 C 330.265625 652.742188 330.285156 653.582031 330.292969 654.421875 C 319.515625 658.679688 308.621094 662.675781 297.742188 666.710938 C 302.722656 662.367188 307.804688 658.203125 313.222656 654.582031 M 326.050781 605.132813 C 329.199219 605.160156 332.359375 605.332031 335.511719 605.652344 C 335.175781 607.125 334.855469 608.605469 334.550781 610.089844 C 330.128906 614.675781 325.71875 619.269531 321.328125 623.890625 C 318.21875 627.171875 315.136719 630.480469 312.0625 633.804688 C 307.988281 631.546875 304.246094 628.105469 302.195313 623.710938 C 299.769531 618.515625 300.121094 612.921875 301.558594 607.769531 C 309.585938 606.050781 317.800781 605.0625 326.050781 605.132813 M 331.273438 631.59375 C 330.761719 631.835938 330.25 632.085938 329.734375 632.324219 C 328.644531 632.828125 327.550781 633.316406 326.453125 633.804688 C 328.175781 631.988281 329.898438 630.171875 331.628906 628.359375 C 331.503906 629.4375 331.382813 630.511719 331.273438 631.59375 M 350.867188 608.378906 C 355.03125 609.4375 360.160156 611.257813 360.429688 614.1875 C 360.578125 615.804688 356.320313 617.78125 355.242188 618.460938 C 352.375 620.277344 349.46875 622.019531 346.519531 623.699219 C 345.027344 624.546875 343.527344 625.371094 342.015625 626.183594 C 342.488281 622.691406 343.058594 619.21875 343.710938 615.773438 C 346.09375 613.304688 348.472656 610.835938 350.867188 608.378906 M 380.480469 625.472656 C 372.210938 628.566406 363.757813 631.226563 355.109375 633.382813 C 354.03125 633.179688 352.953125 633.019531 351.871094 632.890625 C 354.589844 631.335938 357.277344 629.71875 359.925781 628.042969 C 364.59375 625.089844 370.097656 621.949219 370.335938 615.339844 C 370.515625 610.246094 367.242188 605.90625 363.320313 603.085938 C 366.222656 603.355469 369.125 603.609375 372.027344 603.855469 C 371.601563 605.546875 371.34375 607.289063 371.335938 609.089844 C 371.304688 616.578125 375.15625 621.957031 380.480469 625.472656 M 466.046875 593.019531 C 464.539063 592.960938 463.03125 592.90625 461.527344 592.84375 C 468.511719 587.785156 475.386719 582.566406 482.242188 577.304688 C 476.851563 582.550781 471.453125 587.792969 466.046875 593.019531 M 516.558594 572.378906 C 508.035156 579.117188 499.246094 585.496094 490.101563 591.300781 C 487.28125 591.800781 484.449219 592.25 481.605469 592.65625 C 486.695313 587.710938 491.78125 582.757813 496.863281 577.800781 C 501.78125 573.003906 506.695313 568.203125 511.617188 563.410156 C 516.234375 558.90625 520.675781 553.761719 525.871094 549.980469 C 529.199219 547.554688 536.226563 543.4375 538.640625 549.679688 C 538.855469 550.242188 539.023438 550.824219 539.171875 551.410156 C 533.089844 559.785156 524.449219 566.132813 516.558594 572.378906 M 266.890625 647.964844 C 251.460938 648.636719 235.144531 648.507813 219.128906 646.097656 C 240.539063 633.328125 261.894531 620.027344 285.640625 612.132813 C 287.351563 611.5625 289.082031 611.019531 290.824219 610.507813 C 290.035156 616.742188 290.753906 623.144531 294.015625 629.191406 C 296.953125 634.640625 300.683594 638.652344 304.945313 641.539063 C 304.65625 641.855469 304.371094 642.167969 304.085938 642.480469 C 300.863281 643.558594 297.625 644.578125 294.363281 645.527344 C 293.589844 645.757813 292.808594 645.96875 292.03125 646.191406 C 283.683594 646.996094 275.300781 647.59375 266.890625 647.964844 M 372.941406 660.03125 C 372.980469 666.085938 370.488281 672.171875 367.625 677.101563 C 367.507813 677.300781 367.382813 677.488281 367.265625 677.6875 C 363.054688 677.734375 358.835938 677.691406 354.613281 677.554688 C 349.660156 677.386719 343.652344 677.261719 341.625 671.273438 C 340.636719 668.347656 340.308594 665.132813 340.210938 661.921875 C 349.515625 658.148438 358.730469 654.132813 367.730469 649.695313 C 370.78125 652.183594 372.914063 655.496094 372.941406 660.03125 M 563.789063 551.664063 C 558.988281 554.105469 556.660156 559.503906 554.515625 564.363281 C 552.160156 569.699219 549.835938 575.058594 547.433594 580.371094 C 541.5625 585.117188 535.316406 589.367188 529.046875 593.519531 C 528.507813 593.875 527.964844 594.230469 527.425781 594.589844 C 525.164063 594.546875 522.898438 594.507813 520.636719 594.464844 C 527.085938 591.890625 533.109375 588.390625 538.003906 583.339844 C 545.074219 576.039063 549.925781 565.785156 549.398438 554.878906 C 549.554688 554.628906 549.71875 554.382813 549.871094 554.128906 C 551.855469 550.785156 553.339844 547.1875 554.324219 543.441406 C 560.289063 544.636719 566.253906 546.136719 571.984375 548.390625 C 571.71875 549.125 571.4375 549.851563 571.144531 550.574219 C 568.878906 550.070313 566.402344 550.339844 563.789063 551.664063 M 415.242188 501.835938 C 427.148438 496.859375 439.488281 492.902344 452.136719 490.078125 C 459.691406 488.390625 467.789063 486.832031 476.039063 486.03125 C 465.789063 489.859375 456.101563 495.496094 447.183594 502.109375 C 436.164063 510.28125 426.15625 519.824219 416.144531 529.28125 C 411.644531 533.53125 407.171875 537.8125 402.699219 542.097656 C 393.914063 541.296875 385.128906 540.550781 376.34375 539.886719 C 387.296875 525.121094 400.441406 512.285156 415.242188 501.835938 M 344.542969 548.378906 C 348.964844 548.59375 353.386719 548.828125 357.808594 549.097656 C 353.144531 557.046875 349.039063 565.382813 345.511719 574.011719 C 336.390625 575.777344 327.230469 577.347656 318.027344 578.730469 C 318.746094 577.769531 319.460938 576.816406 320.167969 575.878906 C 326.6875 567.179688 333.808594 559.03125 341.433594 551.421875 C 342.460938 550.394531 343.5 549.382813 344.542969 548.378906 M 200.816406 587.175781 C 207.679688 587.199219 214.558594 587.429688 221.445313 587.8125 C 223.300781 588.875 225.175781 589.898438 227.09375 590.808594 C 230.015625 592.1875 233.019531 593.21875 236.070313 593.964844 C 235.859375 594.054688 235.644531 594.132813 235.4375 594.21875 C 223.703125 599.144531 212.9375 606.09375 206.796875 618.0625 C 203.074219 625.3125 200.609375 633.367188 198.65625 641.578125 C 188.015625 638.390625 177.753906 633.84375 168.242188 627.445313 C 161.460938 622.878906 154.539063 617.367188 149.46875 610.625 C 153.785156 602.542969 161.640625 595.746094 167.964844 590.566406 C 178.597656 588.027344 189.796875 587.144531 200.816406 587.175781 M 172.285156 657.726563 C 161.058594 650.824219 147.390625 638.632813 146.3125 624.085938 C 146.257813 623.351563 146.253906 622.625 146.273438 621.902344 C 146.871094 622.53125 147.476563 623.152344 148.085938 623.75 C 160.71875 636.144531 175.566406 644.410156 191.316406 649.78125 C 185.800781 652.757813 180.214844 655.589844 174.511719 658.1875 C 174.238281 658.3125 173.964844 658.429688 173.6875 658.554688 C 173.222656 658.277344 172.753906 658.011719 172.285156 657.726563 M 201.574219 679.871094 C 216.269531 683.234375 231.496094 684.851563 246.234375 687.664063 C 239.285156 690.964844 232.453125 694.507813 225.804688 698.371094 C 222.820313 699.203125 219.816406 699.964844 216.792969 700.65625 C 216.511719 700.644531 216.226563 700.625 215.945313 700.613281 C 210.339844 700.351563 204.722656 700.226563 199.121094 700.277344 C 199.714844 694.003906 200.445313 687.75 201.328125 681.53125 C 201.40625 680.976563 201.492188 680.425781 201.574219 679.871094 M 233.464844 767.109375 C 224.707031 769.9375 212.761719 772.964844 203.898438 767.160156 C 198.675781 763.734375 197.765625 757.679688 197.542969 751.835938 C 197.410156 748.324219 197.347656 744.8125 197.324219 741.304688 C 216.109375 735.777344 233.003906 725.796875 248.304688 713.605469 C 250.089844 713.773438 251.871094 713.941406 253.652344 714.113281 C 276.828125 716.296875 301.433594 719.304688 324.363281 715.382813 C 307.136719 727.746094 289.390625 739.371094 271 749.8125 C 259.023438 756.609375 246.601563 762.871094 233.464844 767.109375 M 528.738281 633.441406 C 529.0625 633.039063 529.390625 632.636719 529.714844 632.230469 C 536.367188 623.824219 541.960938 614.535156 546.984375 604.898438 C 554.234375 604.355469 561.316406 602.921875 567.6875 599.429688 C 577.003906 594.328125 584.390625 584.011719 584.535156 572.320313 C 584.597656 567.429688 582.808594 561.546875 579.738281 557.097656 C 580.34375 555.773438 580.898438 554.421875 581.414063 553.050781 C 589.414063 558.066406 598.917969 567.308594 596.769531 577.195313 C 595.550781 582.816406 591.035156 586.953125 587.175781 590.542969 C 582.929688 594.488281 578.558594 598.289063 574.113281 601.980469 C 559.878906 613.785156 544.683594 624.273438 528.738281 633.441406 M 634.273438 580.335938 C 632.335938 557.367188 614.660156 538.738281 594.714844 530.96875 C 591.582031 529.75 588.40625 528.753906 585.207031 527.972656 C 584.394531 517.449219 580.742188 507.269531 575 498.285156 C 560.824219 476.097656 537.28125 464.375 513.234375 462.042969 C 488.230469 459.617188 462.984375 465.644531 440.5625 475.375 C 429.730469 480.074219 419.347656 485.902344 409.617188 492.71875 C 384.246094 503.542969 360.882813 518.777344 340.542969 537.714844 C 331.105469 537.296875 321.675781 537.011719 312.242188 536.90625 C 290.066406 536.660156 267.914063 537.34375 245.960938 539.410156 C 227.382813 541.160156 208.769531 543.632813 191.097656 549.347656 C 175.296875 554.460938 160.039063 562.179688 148.371094 574.464844 C 143.738281 579.34375 138.617188 585.25 136.34375 592.140625 C 125.375 599.191406 116.246094 609.257813 110.03125 623.425781 C 105.558594 633.625 102.632813 647.683594 106.585938 659.113281 C 108.09375 663.464844 110.859375 666.886719 114.304688 669.546875 C 111.84375 671.453125 109.6875 673.832031 107.988281 676.824219 C 101.800781 687.726563 105.679688 700.355469 115.117188 708.644531 C 122.601563 715.222656 132.019531 718.0625 141.386719 719.027344 C 138.851563 729.539063 147.578125 740.621094 157.378906 743.816406 C 162.257813 745.40625 167.460938 745.917969 172.695313 745.765625 C 169.386719 752.125 167.738281 759.285156 170.144531 766.847656 C 177.804688 790.894531 209.65625 787.148438 226.8125 784.195313 C 251.761719 779.898438 275.160156 769.699219 297.078125 757.484375 C 320.378906 744.496094 342.441406 729.273438 364.722656 714.578125 L 409.375 685.125 C 423.824219 683.1875 438.109375 680.320313 452.125 676.550781 C 477.085938 669.832031 501.199219 660.339844 523.964844 648.242188 C 551.488281 645.550781 580.828125 647.609375 604.507813 633.328125 C 621.855469 622.863281 636.191406 603.113281 634.273438 580.335938 "/>
<g clip-path="url(#clip1)" clip-rule="nonzero">
<use xlink:href="#surface7" transform="matrix(1,0,0,1,112,457)" mask="url(#mask0)"/>
</g>
<path style=" stroke:none;fill-rule:nonzero;fill:rgb(40.795898%,40.795898%,59.959412%);fill-opacity:1;" d="M 442.234375 676.414063 C 441.296875 668.300781 440.054688 660.207031 438.542969 652.15625 C 435.5625 636.308594 431.492188 620.636719 426.40625 605.308594 C 419.453125 584.363281 410.683594 564.15625 400.226563 544.933594 C 397.894531 538.734375 395.214844 532.726563 391.9375 527.125 C 390.976563 525.488281 389.957031 523.886719 388.882813 522.324219 C 388.132813 520.824219 387.378906 519.324219 386.597656 517.839844 C 383.058594 511.074219 379.339844 504.5 371.839844 503.011719 C 366.582031 501.964844 360.84375 502.90625 355.414063 504.035156 C 353.34375 504.117188 351.269531 504.347656 349.203125 504.703125 C 340.121094 506.273438 331.109375 509.019531 322.339844 512.5 C 316.421875 514.46875 310.570313 516.65625 304.832031 519.105469 C 298.984375 521.601563 292.777344 524.300781 288.964844 529.945313 C 284.628906 536.375 284.59375 544.785156 285.492188 552.675781 C 286.617188 562.535156 288.574219 572.394531 290.164063 582.207031 C 290.328125 583.238281 290.753906 584.074219 291.328125 584.710938 C 295.113281 600.285156 301.027344 615.621094 306.828125 630.128906 C 313.488281 646.789063 320.710938 663.222656 328.46875 679.367188 C 332.410156 687.566406 336.492188 695.695313 340.710938 703.746094 C 342.683594 707.519531 344.679688 711.285156 346.726563 715.015625 C 348.472656 718.199219 350.320313 721.445313 353.488281 723.121094 C 356.453125 724.695313 359.4375 724.316406 362.464844 723.695313 C 366.671875 722.832031 370.867188 721.894531 375.058594 720.945313 C 383.4375 719.042969 391.785156 717.007813 400.097656 714.839844 C 408.183594 712.726563 416.289063 710.601563 424.265625 708.109375 C 429.90625 706.347656 435.671875 704.046875 439.339844 698.902344 C 443.863281 692.5625 443.132813 684.199219 442.234375 676.414063 "/>
<path style=" stroke:none;fill-rule:nonzero;fill:rgb(63.476563%,63.476563%,73.631287%);fill-opacity:1;" d="M 351.09375 607.265625 C 347.460938 599.933594 340.09375 595.753906 333.003906 598.285156 C 325.457031 600.976563 323.027344 609.214844 323.03125 617.480469 C 323.035156 621.8125 329.117188 622.496094 329.113281 618.144531 C 329.109375 613.4375 329.589844 608.050781 333.539063 605.5625 C 337.980469 602.769531 343.199219 605 345.722656 610.085938 C 347.652344 613.984375 353.035156 611.183594 351.09375 607.265625 "/>
<path style=" stroke:none;fill-rule:nonzero;fill:rgb(63.476563%,63.476563%,73.631287%);fill-opacity:1;" d="M 392.699219 593.746094 C 389.089844 586.789063 381.6875 582.65625 374.851563 584.945313 C 367.988281 587.246094 364.492188 595.089844 365.5625 602.878906 C 366.152344 607.207031 372.082031 606.050781 371.492188 601.730469 C 370.046875 591.179688 382.480469 587.234375 387.324219 596.570313 C 389.324219 600.417969 394.710938 597.625 392.699219 593.746094 "/>
<path style=" stroke:none;fill-rule:nonzero;fill:rgb(63.476563%,63.476563%,73.631287%);fill-opacity:1;" d="M 366.03125 623.160156 C 358.761719 622.363281 358.304688 634.859375 365.585938 635.65625 C 372.851563 636.449219 373.3125 623.953125 366.03125 623.160156 "/>
<path style=" stroke:none;fill-rule:nonzero;fill:rgb(93.75%,73.242188%,78.125%);fill-opacity:1;" d="M 403.691406 602.84375 C 399.195313 602.296875 393.410156 604.664063 390.242188 606.761719 C 389.222656 607.433594 388.699219 608.304688 389.097656 609.089844 C 388.722656 610.042969 389.046875 611.070313 390.421875 611.785156 C 394.089844 613.683594 400.207031 610.996094 403.226563 609.160156 C 404.714844 608.253906 406.753906 607.023438 407.09375 605.695313 C 407.484375 604.175781 405.8125 603.101563 403.691406 602.84375 "/>
<path style=" stroke:none;fill-rule:nonzero;fill:rgb(93.75%,73.242188%,78.125%);fill-opacity:1;" d="M 332.664063 626.640625 C 328.21875 625.5625 322.203125 627.21875 318.828125 628.910156 C 317.746094 629.457031 317.140625 630.253906 317.464844 631.078125 C 316.996094 631.976563 317.21875 633.027344 318.527344 633.898438 C 322.015625 636.210938 328.394531 634.28125 331.59375 632.824219 C 333.167969 632.109375 335.324219 631.136719 335.796875 629.859375 C 336.332031 628.40625 334.765625 627.144531 332.664063 626.640625 "/>
<path style=" stroke:none;fill-rule:nonzero;fill:rgb(40.795898%,40.795898%,59.959412%);fill-opacity:1;" d="M 242.035156 60.921875 C 249.464844 60.921875 255.496094 63.121094 260.144531 67.488281 C 264.785156 71.871094 267.109375 76.941406 267.109375 82.710938 C 267.109375 86.289063 266.0625 89.878906 263.976563 93.460938 L 202.945313 186.039063 C 200.277344 190.089844 198.851563 194.839844 198.851563 199.691406 L 198.851563 259.109375 C 198.851563 266.070313 196.003906 271.941406 190.320313 276.71875 C 184.628906 281.488281 177.835938 283.878906 169.945313 283.878906 C 161.816406 283.878906 154.972656 281.488281 149.398438 276.71875 C 143.828125 271.941406 141.039063 266.070313 141.039063 259.109375 L 141.039063 199.730469 C 141.039063 194.851563 139.605469 190.078125 136.910156 186.019531 L 75.570313 93.460938 C 73.246094 90.078125 72.085938 86.488281 72.085938 82.710938 C 72.085938 76.941406 74.464844 71.871094 79.226563 67.488281 C 83.980469 63.121094 90.078125 60.921875 97.511719 60.921875 C 102.148438 60.921875 106.390625 61.921875 110.222656 63.910156 C 114.054688 65.898438 117.125 68.589844 119.449219 71.96875 L 160.847656 139.300781 C 164.859375 145.820313 174.339844 145.820313 178.347656 139.300781 L 219.746094 71.96875 C 222.0625 68.589844 225.199219 65.898438 229.148438 63.910156 C 233.09375 61.921875 237.386719 60.921875 242.035156 60.921875 "/>
<g clip-path="url(#clip4)" clip-rule="nonzero">
<use xlink:href="#surface10" transform="matrix(1,0,0,1,72,1035)" mask="url(#mask1)"/>
</g>
<g clip-path="url(#clip7)" clip-rule="nonzero">
<use xlink:href="#surface13" transform="matrix(1,0,0,1,534,1096)" mask="url(#mask2)"/>
</g>
<g clip-path="url(#clip10)" clip-rule="nonzero">
<use xlink:href="#surface16" transform="matrix(1,0,0,1,431,1096)" mask="url(#mask3)"/>
</g>
<path style=" stroke:none;fill-rule:nonzero;fill:rgb(40.795898%,40.795898%,59.959412%);fill-opacity:1;" d="M 281.515625 124.800781 C 280.472656 122.539063 279.949219 120.019531 279.949219 117.238281 C 279.949219 112.371094 281.730469 108.019531 285.296875 104.191406 C 288.859375 100.371094 293.335938 98.460938 298.726563 98.460938 C 302.726563 98.460938 306.328125 99.589844 309.550781 101.851563 C 312.765625 104.109375 315.066406 107.070313 316.460938 110.71875 L 341.128906 175.179688 C 342.074219 177.648438 345.628906 177.488281 346.339844 174.929688 L 363.664063 112.800781 C 364.878906 108.628906 367.226563 105.199219 370.703125 102.5 C 374.183594 99.808594 378.179688 98.460938 382.703125 98.460938 C 388.265625 98.460938 392.871094 100.371094 396.523438 104.191406 C 400.175781 108.019531 402 112.539063 402 117.761719 C 402 119.671875 401.742188 121.671875 401.21875 123.761719 L 364.449219 248.148438 C 360.796875 260.671875 354.929688 269.75 346.84375 275.410156 C 338.757813 281.050781 328.980469 283.878906 317.503906 283.878906 L 301.597656 283.878906 C 297.070313 283.878906 293.289063 282.191406 290.253906 278.800781 C 287.207031 275.410156 285.6875 271.191406 285.6875 266.148438 C 285.6875 263.71875 286.25 261.28125 287.59375 259.261719 C 288.480469 257.921875 289.585938 256.738281 290.902344 255.71875 C 292.46875 254.5 294.203125 253.539063 296.117188 252.851563 C 298.03125 252.148438 299.855469 251.808594 301.597656 251.808594 L 314.113281 251.808594 C 317.066406 251.808594 319.675781 250.460938 321.9375 247.761719 C 322.398438 247.210938 322.898438 246.421875 323.402344 245.460938 C 326.738281 239.140625 326.839844 231.589844 324.046875 225 "/>
<g clip-path="url(#clip13)" clip-rule="nonzero">
<use xlink:href="#surface19" transform="matrix(1,0,0,1,244,1108)" mask="url(#mask4)"/>
</g>
<g clip-path="url(#clip16)" clip-rule="nonzero">
<use xlink:href="#surface18" transform="matrix(1,0,0,1,287,1139)" mask="url(#mask5)"/>
</g>
</g>
</svg>
