<?xml version="1.0" encoding="UTF-8"?>
<svg xmlns="http://www.w3.org/2000/svg" xmlns:xlink="http://www.w3.org/1999/xlink" width="750pt" height="1334pt" viewBox="0 0 750 1334" version="1.1">
<g id="surface1">
<path style=" stroke:none;fill-rule:nonzero;fill:rgb(86.71875%,86.71875%,86.71875%);fill-opacity:1;" d="M 584.101563 740.96875 C 583.9375 740.511719 583.804688 740.046875 583.703125 739.574219 C 582.789063 736.375 581.84375 733.191406 580.929688 730.007813 C 572.40625 700.308594 563.160156 670.820313 553.351563 641.519531 C 552.652344 640.332031 552.269531 638.953125 551.988281 637.554688 C 551.703125 636.730469 551.40625 635.898438 551.054688 635.074219 C 550.972656 634.882813 550.90625 634.691406 550.851563 634.492188 C 550.523438 633.632813 550.242188 632.753906 550.085938 631.839844 C 547.433594 624.023438 544.753906 616.21875 542.027344 608.429688 C 538.039063 597.054688 533.972656 585.710938 529.839844 574.390625 C 528.734375 572.03125 527.777344 569.59375 527.152344 567.070313 C 524.796875 560.660156 522.421875 554.261719 520.023438 547.867188 C 512.855469 528.777344 506.242188 508.878906 495.769531 491.289063 C 485.246094 473.617188 470.121094 458.253906 451.054688 450.019531 C 441.632813 445.949219 432.28125 442.734375 422.113281 441.183594 C 411.78125 439.605469 401.5 438.644531 391.046875 438.894531 C 380.59375 439.144531 370.230469 440.433594 359.890625 441.929688 C 350.726563 443.253906 341.589844 445.050781 332.789063 447.96875 C 322.535156 451.367188 312.234375 455.820313 303.523438 462.304688 C 293.351563 469.875 285.339844 478.28125 278.039063 488.695313 C 272.882813 496.054688 268.789063 504.078125 265.269531 512.328125 C 260.679688 523.097656 256.640625 533.949219 253.539063 545.242188 C 248.234375 564.535156 245.089844 584.332031 241.945313 604.066406 C 235.402344 645.074219 226.078125 685.429688 217.441406 726.023438 C 211.535156 753.792969 206.15625 781.894531 202.972656 810.191406 C 193.90625 842.324219 187.554688 875.132813 183.519531 908.394531 C 183.804688 910.527344 184.089844 912.65625 184.378906 914.789063 C 185.121094 917.917969 186.554688 920.644531 188.679688 922.964844 C 191.582031 926.71875 194.957031 929.097656 199.21875 930.84375 C 201.019531 931.9375 202.984375 932.847656 205.132813 933.605469 C 205.308594 933.667969 205.476563 933.738281 205.648438 933.800781 C 210.957031 936.355469 215.996094 939.425781 221.28125 942.039063 C 229.273438 945.992188 237.691406 949.234375 246.390625 951.226563 C 262.570313 954.9375 279.320313 955.730469 295.84375 956.636719 C 325.917969 958.28125 356.226563 959.519531 386.21875 955.929688 C 403.941406 953.808594 421.402344 950.671875 438.324219 944.960938 C 443.285156 944.136719 448.085938 942.078125 451.546875 938.3125 C 452.796875 936.691406 454.050781 935.070313 455.304688 933.449219 C 457.480469 929.699219 458.574219 925.652344 458.585938 921.3125 C 459.574219 912.535156 460.445313 903.742188 461.210938 894.945313 C 467.992188 860.683594 471.824219 825.769531 472.464844 790.839844 C 481.207031 795.15625 490.070313 799.234375 499.0625 803.042969 C 509.835938 807.609375 520.753906 812.636719 532.328125 814.789063 C 548.097656 817.71875 566.519531 817.933594 579.214844 806.597656 C 586.828125 799.800781 588.742188 790.34375 589.746094 780.734375 C 590.46875 773.863281 589.519531 767.085938 588.511719 760.285156 C 587.542969 753.753906 585.902344 747.339844 584.101563 740.96875 "/>
<path style=" stroke:none;fill-rule:nonzero;fill:rgb(30.979919%,30.979919%,30.979919%);fill-opacity:1;" d="M 465.054688 448.613281 C 464.003906 441.992188 461.492188 435.730469 457.707031 430.195313 C 456.535156 428.484375 453.523438 427.457031 451.972656 429.457031 L 442.574219 441.578125 C 441.148438 438.097656 439.714844 434.613281 438.140625 431.207031 C 436.054688 426.683594 432.605469 422.523438 427.335938 421.988281 C 422.140625 421.464844 419.019531 425.09375 416.472656 429.078125 C 416.023438 429.773438 415.582031 430.472656 415.136719 431.171875 C 414.503906 428.566406 413.65625 426.007813 412.582031 423.519531 C 410.507813 418.710938 406.816406 410.703125 400.277344 412.101563 C 394.355469 413.367188 389.761719 420.519531 386.507813 425.152344 C 385.382813 426.757813 384.328125 428.410156 383.335938 430.089844 C 382.390625 428.261719 381.390625 426.460938 380.3125 424.707031 C 378.507813 421.761719 376.511719 418.945313 374.382813 416.226563 C 372.28125 413.542969 370.042969 410.800781 366.292969 411.078125 C 359.675781 411.5625 356.5625 420.40625 354.542969 425.566406 C 353.421875 428.4375 352.539063 431.390625 351.863281 434.390625 C 350.558594 433.011719 349.242188 431.644531 347.894531 430.308594 C 343.703125 426.160156 336.273438 418.828125 329.789063 422.496094 C 326.988281 424.085938 325.699219 427.113281 324.539063 429.964844 C 323.097656 433.515625 322.109375 437.214844 321.484375 440.996094 C 321.0625 443.550781 320.796875 446.117188 320.621094 448.6875 C 318.480469 446.941406 316.285156 445.261719 313.984375 443.722656 C 308.789063 440.238281 301.5 436.976563 295.90625 441.558594 C 290.15625 446.265625 291.707031 454.082031 292.609375 460.492188 C 292.632813 460.671875 292.660156 460.847656 292.683594 461.027344 C 287.128906 461.386719 281.21875 462.8125 276.972656 466.078125 C 267.25 473.5625 269.03125 485.71875 273.308594 495.808594 C 270.40625 495.300781 267.480469 494.953125 264.535156 494.804688 C 258.960938 494.527344 251.457031 494.140625 246.476563 497.128906 C 241.210938 500.285156 241 506.695313 243.34375 511.777344 C 244.882813 515.113281 246.894531 518.324219 249.0625 521.414063 C 248.324219 521.578125 247.589844 521.75 246.855469 521.933594 C 243.355469 522.5625 239.875 523.265625 236.476563 524.1875 C 230.773438 525.734375 225.183594 529.113281 223.265625 535.023438 C 221.058594 541.839844 225.597656 548.117188 228.902344 553.675781 C 229.460938 554.609375 230 555.554688 230.542969 556.496094 C 229.304688 556.808594 228.074219 557.148438 226.859375 557.539063 C 220.882813 559.449219 214.09375 562.605469 211.375 568.664063 C 208.550781 574.957031 212.265625 580.71875 217.148438 584.609375 C 218.980469 586.066406 220.871094 587.445313 222.808594 588.753906 C 222.257813 589.074219 221.703125 589.394531 221.15625 589.722656 C 216.113281 592.761719 210.21875 596.105469 206.554688 600.824219 C 200.027344 609.222656 206.628906 617.371094 212.003906 624.957031 C 210.078125 625.609375 208.171875 626.324219 206.289063 627.128906 C 201.792969 629.050781 196.507813 631.714844 192.820313 635.425781 C 192.027344 635.957031 191.285156 636.550781 190.613281 637.226563 C 188.1875 639.691406 186.804688 643.34375 187.726563 646.769531 C 188.171875 648.421875 189.109375 649.765625 190.328125 650.941406 C 190.546875 651.152344 190.78125 651.347656 191.015625 651.539063 C 191.304688 652.039063 191.625 652.53125 191.988281 653.007813 C 195.652344 657.808594 201.015625 661.488281 206.683594 664.136719 C 201.035156 666.292969 195.515625 668.691406 190.800781 672.671875 C 188.796875 674.367188 186.5625 676.472656 185.820313 679.074219 C 184.949219 682.132813 186.28125 685.144531 188.285156 687.433594 C 190.496094 689.96875 193.597656 691.761719 196.332031 693.664063 C 197.417969 694.421875 198.507813 695.175781 199.59375 695.929688 C 197.871094 696.617188 196.167969 697.347656 194.488281 698.140625 C 189.433594 700.539063 182.253906 703.613281 179.65625 708.953125 C 176.808594 714.800781 180.867188 721.140625 184.839844 725.3125 C 186.957031 727.535156 189.375 729.421875 191.929688 731.117188 C 190.050781 731.449219 188.191406 731.875 186.355469 732.398438 C 180.59375 734.046875 174.402344 736.621094 171.761719 742.410156 C 169.03125 748.398438 172.289063 754.308594 175.546875 759.355469 C 177.371094 762.191406 179.425781 764.855469 181.675781 767.347656 C 179.472656 767.972656 177.300781 768.710938 175.179688 769.625 C 170.0625 771.832031 163.753906 775.40625 162.882813 781.496094 C 162.011719 787.582031 166.84375 793.714844 170.421875 798.164063 C 173.679688 802.222656 177.433594 805.832031 181.273438 809.335938 C 179.382813 809.78125 177.503906 810.277344 175.636719 810.839844 C 170.769531 812.308594 163.375 814.191406 163.296875 820.539063 C 163.222656 826.472656 170.136719 831.242188 174.371094 834.429688 C 176.382813 835.941406 178.476563 837.308594 180.640625 838.550781 C 177.675781 839.191406 174.734375 839.921875 171.855469 840.8125 C 167.085938 842.285156 161.289063 844.773438 159.597656 849.949219 C 157.890625 855.171875 161.585938 860.691406 164.359375 864.859375 C 165.535156 866.621094 166.871094 868.300781 168.390625 869.753906 C 167.898438 869.835938 167.410156 869.90625 166.921875 869.996094 C 161.914063 870.882813 154.21875 871.289063 152.214844 877 C 151.972656 877.695313 151.851563 878.371094 151.835938 879.027344 C 151.496094 880.324219 151.78125 881.835938 152.753906 882.648438 C 152.78125 882.671875 152.8125 882.695313 152.839844 882.71875 C 154.472656 885.636719 157.753906 888.054688 160.050781 890.054688 C 164.359375 893.800781 168.929688 897.242188 173.695313 900.378906 C 176.09375 902.484375 178.550781 904.523438 181.171875 906.15625 C 185.226563 908.683594 189.929688 907.625 192.617188 903.722656 C 195.378906 899.71875 195.914063 894.242188 196.933594 889.609375 C 201.839844 867.246094 205.816406 844.695313 209.394531 822.085938 C 216.558594 776.804688 222.09375 731.273438 230.179688 686.140625 C 238.214844 641.273438 248.863281 596.652344 266.054688 554.332031 C 274.375 533.859375 283.96875 513.136719 300.132813 497.605469 C 315.648438 482.691406 335.746094 471.945313 355.949219 464.863281 C 376.359375 457.707031 398.34375 454.269531 419.910156 457.042969 C 425.21875 457.722656 430.480469 458.824219 435.625 460.28125 C 440.777344 461.738281 445.886719 463.929688 451.316406 464.042969 C 455.808594 464.132813 460.492188 462.578125 462.953125 458.617188 C 464.359375 456.359375 465.03125 453.5 464.78125 450.796875 C 465.0625 450.167969 465.183594 449.433594 465.054688 448.613281 "/>
<path style=" stroke:none;fill-rule:nonzero;fill:rgb(30.979919%,30.979919%,30.979919%);fill-opacity:1;" d="M 513.21875 459.136719 C 510.246094 457.304688 505.03125 458.292969 501.910156 459.226563 C 499.378906 459.980469 496.90625 461.035156 494.507813 462.292969 C 494.625 457.160156 494.609375 451.929688 493.753906 446.875 C 493.347656 444.480469 492.910156 441.410156 491.472656 439.386719 C 490 437.316406 487.648438 437.09375 485.308594 437.199219 C 473.128906 437.765625 465.21875 448.148438 458.984375 457.375 C 457.800781 459.132813 458.347656 460.980469 459.550781 462.121094 C 460.246094 467.242188 465.59375 470.390625 469.3125 473.246094 C 473.859375 476.742188 478.292969 480.601563 483.054688 483.796875 C 483.082031 483.816406 483.113281 483.832031 483.140625 483.851563 C 483.835938 484.53125 484.53125 485.210938 485.230469 485.890625 C 489.113281 490.375 493.753906 494.339844 499.542969 491.136719 C 499.761719 491.015625 499.972656 490.890625 500.179688 490.757813 C 500.546875 490.621094 500.90625 490.460938 501.261719 490.242188 C 504.769531 488.113281 507.035156 484.183594 509.015625 480.722656 C 511.117188 477.046875 513.257813 473.25 514.828125 469.308594 C 516.101563 466.113281 516.671875 461.265625 513.21875 459.136719 "/>
<path style=" stroke:none;fill-rule:nonzero;fill:rgb(86.71875%,86.71875%,86.71875%);fill-opacity:1;" d="M 317.039063 493.9375 C 313.171875 474.4375 301.128906 456.664063 286.113281 443.957031 C 268.582031 429.113281 247.484375 419.929688 225.769531 413 C 216.90625 410.171875 209.785156 419.035156 211.542969 427.226563 C 215.976563 447.867188 224.324219 467.914063 236.023438 485.5 C 248.023438 503.542969 266.625 522.261719 290.390625 519.140625 C 293.582031 518.71875 296.191406 518.125 298.566406 515.75 C 299.804688 514.515625 300.847656 512.789063 301.441406 510.972656 C 305.824219 514.574219 313.042969 514.550781 316.996094 510.246094 C 321.246094 505.617188 321.53125 498.542969 317.039063 493.9375 "/>
<path style=" stroke:none;fill-rule:nonzero;fill:rgb(86.71875%,86.71875%,86.71875%);fill-opacity:1;" d="M 476.292969 362.496094 C 474.457031 356.933594 467.925781 355.191406 463.578125 359.140625 C 448.414063 372.90625 432.835938 387.191406 422.914063 405.386719 C 413.3125 422.996094 408.988281 444.863281 416.445313 464.046875 C 417.933594 467.875 421.554688 470.53125 425.804688 469.363281 C 425.894531 469.335938 425.984375 469.300781 426.074219 469.269531 C 427.519531 475.753906 430.054688 481.851563 434.734375 486.910156 C 437.738281 490.160156 442.394531 489.402344 445.492188 486.910156 C 462.148438 473.519531 471.304688 452.925781 476.511719 432.675781 C 482.386719 409.816406 483.777344 385.15625 476.292969 362.496094 "/>
<path style=" stroke:none;fill-rule:nonzero;fill:rgb(30.979919%,30.979919%,30.979919%);fill-opacity:1;" d="M 447.214844 894.519531 C 417.539063 898.574219 387.503906 897.347656 357.894531 893.351563 C 343.078125 891.351563 328.355469 888.726563 313.695313 885.8125 C 298.976563 882.882813 284.121094 880.046875 269.710938 875.8125 C 254.804688 871.425781 240.660156 864.828125 227.535156 856.527344 C 224.339844 854.503906 219.734375 856.355469 218.09375 859.507813 C 216.222656 863.105469 217.871094 866.921875 221.074219 868.949219 C 233.179688 876.605469 246.121094 882.667969 259.679688 887.269531 C 274.179688 892.199219 289.3125 895.132813 304.289063 898.195313 C 334.695313 904.414063 365.433594 909.539063 396.492188 910.773438 C 413.664063 911.453125 430.871094 910.828125 447.90625 908.5 C 451.652344 907.988281 454.753906 905.171875 454.554688 901.164063 C 454.378906 897.632813 450.984375 894.003906 447.214844 894.519531 "/>
<path style=" stroke:none;fill-rule:nonzero;fill:rgb(30.979919%,30.979919%,30.979919%);fill-opacity:1;" d="M 450.769531 813.164063 C 394.507813 815.730469 337.621094 807.410156 284.515625 788.578125 C 269.492188 783.253906 254.769531 777.101563 240.402344 770.195313 C 232.265625 766.285156 226.164063 778.890625 234.292969 782.796875 C 286.738281 808.003906 344.097656 823.070313 402.1875 826.652344 C 418.730469 827.675781 435.289063 827.878906 451.851563 827.125 C 460.859375 826.714844 459.765625 812.753906 450.769531 813.164063 "/>
<path style=" stroke:none;fill-rule:nonzero;fill:rgb(30.979919%,30.979919%,30.979919%);fill-opacity:1;" d="M 357.46875 726.496094 C 321.007813 729.898438 283.886719 720.558594 251.261719 700.152344 C 248.328125 698.316406 244.476563 700.394531 243.289063 703.632813 C 241.9375 707.308594 243.652344 711.046875 246.59375 712.882813 C 281.0625 734.445313 320.652344 743.988281 359.125 740.398438 C 366.933594 739.667969 365.269531 725.765625 357.46875 726.496094 "/>
<path style=" stroke:none;fill-rule:nonzero;fill:rgb(30.979919%,30.979919%,30.979919%);fill-opacity:1;" d="M 306.382813 657.964844 C 292.984375 658.777344 280.070313 655.359375 268.976563 647.773438 C 261.523438 642.675781 254.019531 654.496094 261.457031 659.582031 C 274.320313 668.378906 290.09375 672.894531 305.671875 671.949219 C 309.4375 671.722656 312.816406 669.386719 313.019531 665.3125 C 313.191406 661.863281 310.175781 657.734375 306.382813 657.964844 "/>
<path style=" stroke:none;fill-rule:nonzero;fill:rgb(30.979919%,30.979919%,30.979919%);fill-opacity:1;" d="M 395.488281 597.851563 C 386.796875 592.96875 375.523438 592.882813 367.101563 598.488281 C 358.992188 603.886719 354.246094 613.519531 354.972656 623.238281 C 355.351563 628.285156 363.265625 628.328125 362.886719 623.238281 C 362.371094 616.335938 365.226563 609.269531 371.09375 605.324219 C 377.175781 601.230469 385.164063 601.125 391.492188 604.683594 C 395.9375 607.179688 399.933594 600.347656 395.488281 597.851563 "/>
<path style=" stroke:none;fill-rule:nonzero;fill:rgb(30.979919%,30.979919%,30.979919%);fill-opacity:1;" d="M 493.179688 556.09375 C 488.96875 551.933594 484.800781 549.167969 478.757813 548.742188 C 473.15625 548.351563 467.148438 548.652344 461.886719 550.753906 C 452.46875 554.515625 446.320313 564.210938 446.886719 574.34375 C 447.171875 579.40625 455.085938 579.441406 454.800781 574.34375 C 454.410156 567.359375 458.277344 560.558594 464.957031 558.011719 C 468.859375 556.523438 473.171875 556.433594 477.292969 556.585938 C 481.855469 556.753906 484.394531 558.539063 487.582031 561.691406 C 491.207031 565.273438 496.808594 559.683594 493.179688 556.09375 "/>
<path style=" stroke:none;fill-rule:nonzero;fill:rgb(30.979919%,30.979919%,30.979919%);fill-opacity:1;" d="M 495.890625 697.988281 C 476.570313 675.5625 457.199219 653.109375 439.890625 629.070313 C 422.871094 605.429688 408.453125 580.003906 390.859375 556.769531 C 381.128906 543.925781 370.46875 531.839844 358.652344 520.871094 C 354.921875 517.410156 349.3125 522.992188 353.058594 526.46875 C 374.421875 546.300781 391.167969 569.753906 406.988281 594.085938 C 414.984375 606.382813 422.867188 618.753906 431.371094 630.707031 C 439.851563 642.628906 448.84375 654.179688 458.089844 665.515625 C 468.597656 678.398438 479.445313 690.992188 490.292969 703.585938 C 493.621094 707.449219 499.199219 701.832031 495.890625 697.988281 "/>
<path style=" stroke:none;fill-rule:nonzero;fill:rgb(30.979919%,30.979919%,30.979919%);fill-opacity:1;" d="M 509.699219 686.066406 C 474.949219 642.703125 449.726563 592.890625 420.894531 545.644531 C 412.644531 532.128906 404.078125 518.800781 394.941406 505.867188 C 392.027344 501.738281 385.160156 505.6875 388.109375 509.859375 C 420.550781 555.789063 445.375 606.464844 476.324219 653.339844 C 485.023438 666.515625 494.230469 679.339844 504.101563 691.660156 C 507.285156 695.632813 512.855469 690.003906 509.699219 686.066406 "/>
<path style=" stroke:none;fill-rule:nonzero;fill:rgb(30.979919%,30.979919%,30.979919%);fill-opacity:1;" d="M 350.492188 561.308594 C 328.230469 569.855469 309.734375 586.910156 299.953125 608.730469 C 297.890625 613.339844 304.707031 617.371094 306.785156 612.726563 C 315.695313 592.851563 332.199219 576.769531 352.597656 568.941406 C 357.304688 567.132813 355.261719 559.480469 350.492188 561.308594 "/>
<path style=" stroke:none;fill-rule:nonzero;fill:rgb(30.979919%,30.979919%,30.979919%);fill-opacity:1;" d="M 497.695313 506.691406 C 473.996094 504.066406 449.734375 510.730469 431.027344 525.628906 C 427.078125 528.777344 431.289063 535.484375 435.265625 532.3125 C 452.304688 518.746094 474.34375 512.03125 496.0625 514.4375 C 501.074219 514.992188 502.769531 507.253906 497.695313 506.691406 "/>
<path style=" stroke:none;fill-rule:nonzero;fill:rgb(30.979919%,30.979919%,30.979919%);fill-opacity:1;" d="M 439.140625 669.816406 C 418.628906 676.253906 401.105469 690.648438 390.996094 709.648438 C 388.601563 714.144531 395.433594 718.148438 397.828125 713.644531 C 406.980469 696.4375 422.621094 683.289063 441.246094 677.445313 C 446.085938 675.925781 444.019531 668.285156 439.140625 669.816406 "/>
<path style=" stroke:none;fill-rule:nonzero;fill:rgb(30.979919%,30.979919%,30.979919%);fill-opacity:1;" d="M 472.429688 717.996094 C 456.527344 723.296875 443.113281 734.773438 435.757813 749.882813 C 433.535156 754.441406 440.359375 758.460938 442.589844 753.878906 C 449.050781 740.613281 460.492188 730.304688 474.53125 725.628906 C 479.339844 724.023438 477.28125 716.378906 472.429688 717.996094 "/>
<path style=" stroke:none;fill-rule:nonzero;fill:rgb(30.979919%,30.979919%,30.979919%);fill-opacity:1;" d="M 526.765625 768.015625 C 526.269531 766.132813 523.871094 764.445313 521.898438 765.25 C 515.671875 767.785156 509.960938 771.039063 504.703125 775.238281 C 499.703125 779.234375 494.242188 784.210938 492.164063 790.429688 C 490.546875 795.269531 498.1875 797.347656 499.796875 792.53125 C 501.347656 787.882813 506.5625 783.769531 510.300781 780.835938 C 514.445313 777.578125 519.121094 774.867188 524 772.882813 C 525.992188 772.070313 527.355469 770.257813 526.765625 768.015625 "/>
<path style=" stroke:none;fill-rule:nonzero;fill:rgb(30.979919%,30.979919%,30.979919%);fill-opacity:1;" d="M 551.054688 635.074219 C 550.988281 634.917969 550.933594 634.757813 550.886719 634.597656 C 550.566406 633.773438 550.289063 632.933594 550.121094 632.0625 C 535.234375 633.953125 520.996094 640.746094 510.433594 651.664063 C 506.890625 655.328125 512.480469 660.929688 516.03125 657.261719 C 525.746094 647.214844 538.882813 641.132813 552.554688 639.742188 C 552.308594 639.019531 552.125 638.265625 551.972656 637.507813 C 551.695313 636.699219 551.402344 635.882813 551.054688 635.074219 "/>
<path style=" stroke:none;fill-rule:nonzero;fill:rgb(30.979919%,30.979919%,30.979919%);fill-opacity:1;" d="M 569.144531 689.882813 C 568.671875 688.125 567.988281 686.453125 567.40625 684.742188 C 556.113281 685.335938 544.953125 688.386719 534.867188 693.777344 C 530.371094 696.179688 534.363281 703.011719 538.859375 700.613281 C 548.523438 695.445313 559.21875 692.761719 569.988281 692.5625 C 569.636719 691.710938 569.390625 690.808594 569.144531 689.882813 "/>
<path style=" stroke:none;fill-rule:nonzero;fill:rgb(30.979919%,30.979919%,30.979919%);fill-opacity:1;" d="M 586.613281 753.238281 C 586.511719 752.75 586.402344 752.261719 586.289063 751.777344 C 586.09375 751.203125 585.882813 750.636719 585.753906 750.082031 C 585.703125 749.859375 585.65625 749.640625 585.605469 749.417969 C 585.5625 749.289063 585.519531 749.160156 585.46875 749.03125 C 585.082031 748.015625 584.65625 747.058594 584.398438 746.046875 C 575.046875 746.171875 565.699219 747.417969 556.585938 749.785156 C 551.65625 751.0625 553.746094 758.699219 558.6875 757.414063 C 567.871094 755.03125 577.265625 753.894531 586.644531 753.964844 C 586.617188 753.726563 586.601563 753.488281 586.613281 753.238281 "/>
<path style=" stroke:none;fill-rule:nonzero;fill:rgb(93.75%,69.334412%,76.5625%);fill-opacity:1;" d="M 374.109375 632.125 C 370.355469 631.804688 365.6875 634.832031 362.640625 636.757813 C 359.402344 638.800781 356.4375 641.246094 353.796875 644.011719 C 351.796875 645.796875 349.960938 647.820313 349.382813 649.988281 C 348.226563 654.335938 352.210938 657.703125 356.296875 657.246094 C 360.425781 656.785156 364.570313 653.402344 367.753906 650.921875 C 371.226563 648.214844 374.402344 645.121094 377.054688 641.597656 C 379.660156 638.136719 379.414063 632.582031 374.109375 632.125 "/>
<path style=" stroke:none;fill-rule:nonzero;fill:rgb(93.75%,69.334412%,76.5625%);fill-opacity:1;" d="M 513.167969 567.960938 C 509.597656 566.753906 504.34375 568.578125 500.925781 569.71875 C 497.292969 570.933594 493.828125 572.601563 490.605469 574.65625 C 488.238281 575.910156 485.972656 577.4375 484.894531 579.40625 C 482.730469 583.351563 485.796875 587.570313 489.875 588.105469 C 493.992188 588.640625 498.828125 586.34375 502.507813 584.695313 C 506.527344 582.894531 510.347656 580.652344 513.765625 577.863281 C 517.125 575.121094 518.210938 569.671875 513.167969 567.960938 "/>
<path style=" stroke:none;fill-rule:nonzero;fill:rgb(30.979919%,30.979919%,30.979919%);fill-opacity:1;" d="M 514.488281 750.824219 C 515.652344 751.269531 516.734375 751.675781 518.035156 751.773438 C 518.53125 751.808594 519.027344 751.828125 519.523438 751.839844 C 520.015625 751.78125 520.5 751.660156 520.96875 751.464844 C 525.1875 749.6875 524.101563 745.1875 522.789063 741.886719 C 520.046875 735.007813 516 728.550781 510.699219 723.34375 C 508.023438 720.710938 503.914063 719.121094 500.863281 722.25 C 498.363281 724.8125 498.628906 728.785156 499.785156 731.886719 C 502.492188 739.136719 508.765625 745.707031 514.433594 750.777344 C 514.453125 750.796875 514.46875 750.808594 514.488281 750.824219 "/>
<path style=" stroke:none;fill-rule:nonzero;fill:rgb(30.979919%,30.979919%,30.979919%);fill-opacity:1;" d="M 532.289063 741.652344 C 533.453125 742.097656 534.53125 742.507813 535.835938 742.601563 C 536.328125 742.640625 536.824219 742.660156 537.320313 742.671875 C 537.8125 742.609375 538.300781 742.488281 538.765625 742.292969 C 542.988281 740.519531 541.902344 736.019531 540.585938 732.71875 C 537.847656 725.839844 533.800781 719.382813 528.5 714.175781 C 525.820313 711.542969 521.714844 709.949219 518.664063 713.082031 C 516.164063 715.644531 516.425781 719.617188 517.585938 722.71875 C 520.289063 729.96875 526.566406 736.535156 532.230469 741.609375 C 532.25 741.625 532.269531 741.636719 532.289063 741.652344 "/>
<path style=" stroke:none;fill-rule:nonzero;fill:rgb(30.979919%,30.979919%,30.979919%);fill-opacity:1;" d="M 97.445313 112.109375 C 90.710938 112.109375 85.023438 110.128906 80.382813 106.140625 C 75.734375 102.160156 73.417969 97.289063 73.417969 91.519531 C 73.417969 85.75 75.734375 80.878906 80.382813 76.890625 C 85.023438 72.910156 90.710938 70.921875 97.445313 70.921875 L 231.871094 70.921875 C 239.300781 70.921875 245.335938 73.109375 249.980469 77.488281 C 254.621094 81.871094 256.945313 86.738281 256.945313 92.109375 C 256.710938 94.101563 256.363281 96.039063 255.898438 97.929688 C 255.433594 99.828125 254.507813 101.660156 253.113281 103.460938 L 159.378906 228.320313 C 154.980469 234.179688 159.160156 242.539063 166.488281 242.539063 L 238.488281 242.539063 C 245.21875 242.539063 250.90625 244.53125 255.550781 248.511719 C 260.195313 252.488281 262.515625 257.371094 262.515625 263.140625 C 262.515625 268.910156 260.195313 273.78125 255.550781 277.761719 C 250.90625 281.738281 245.21875 283.730469 238.488281 283.730469 L 107.894531 283.730469 C 100.460938 283.730469 94.484375 281.589844 89.960938 277.308594 C 85.429688 273.039063 83.164063 268.011719 83.164063 262.238281 C 83.164063 258.261719 84.441406 254.589844 86.996094 251.199219 L 180.121094 126.320313 C 184.496094 120.449219 180.3125 112.109375 172.996094 112.109375 "/>
<path style=" stroke:none;fill-rule:nonzero;fill:rgb(30.979919%,30.979919%,30.979919%);fill-opacity:1;" d="M 91.464844 1121.824219 C 86.40625 1121.824219 82.136719 1120.332031 78.648438 1117.34375 C 75.15625 1114.351563 73.417969 1110.691406 73.417969 1106.355469 C 73.417969 1102.023438 75.15625 1098.363281 78.648438 1095.371094 C 82.136719 1092.382813 86.40625 1090.886719 91.464844 1090.886719 L 192.433594 1090.886719 C 198.015625 1090.886719 202.546875 1092.53125 206.035156 1095.820313 C 209.519531 1099.109375 211.269531 1102.769531 211.269531 1106.804688 C 211.09375 1108.300781 210.828125 1109.757813 210.484375 1111.175781 C 210.132813 1112.597656 209.4375 1113.976563 208.390625 1115.324219 L 137.984375 1209.105469 C 134.679688 1213.507813 137.820313 1219.792969 143.324219 1219.792969 L 197.402344 1219.792969 C 202.460938 1219.792969 206.730469 1221.289063 210.222656 1224.277344 C 213.707031 1227.269531 215.453125 1230.929688 215.453125 1235.261719 C 215.453125 1239.597656 213.707031 1243.257813 210.222656 1246.25 C 206.730469 1249.238281 202.460938 1250.730469 197.402344 1250.730469 L 99.3125 1250.730469 C 93.730469 1250.730469 89.242188 1249.128906 85.84375 1245.910156 C 82.441406 1242.699219 80.738281 1238.925781 80.738281 1234.59375 C 80.738281 1231.601563 81.695313 1228.839844 83.617188 1226.296875 L 153.566406 1132.492188 C 156.851563 1128.089844 153.707031 1121.824219 148.214844 1121.824219 "/>
<path style=" stroke:none;fill-rule:nonzero;fill:rgb(30.979919%,30.979919%,30.979919%);fill-opacity:1;" d="M 388.09375 1190.347656 C 388.09375 1195.292969 388.617188 1199.902344 389.671875 1204.171875 C 390.714844 1208.445313 392.175781 1212.152344 394.050781 1215.296875 C 395.925781 1218.445313 398.097656 1220.917969 400.570313 1222.71875 C 403.046875 1224.515625 405.703125 1225.414063 408.550781 1225.414063 C 411.246094 1225.414063 413.832031 1224.515625 416.304688 1222.71875 C 418.777344 1220.917969 420.914063 1218.445313 422.710938 1215.296875 C 424.507813 1212.152344 425.933594 1208.445313 426.984375 1204.171875 C 428.027344 1199.902344 428.558594 1195.292969 428.558594 1190.347656 C 428.558594 1185.40625 428.027344 1180.796875 426.984375 1176.527344 C 425.933594 1172.253906 424.507813 1168.585938 422.710938 1165.511719 C 420.914063 1162.441406 418.777344 1160.003906 416.304688 1158.203125 C 413.832031 1156.410156 411.246094 1155.511719 408.550781 1155.511719 C 405.703125 1155.511719 403.046875 1156.410156 400.570313 1158.203125 C 398.097656 1160.003906 395.925781 1162.441406 394.050781 1165.511719 C 392.175781 1168.585938 390.714844 1172.253906 389.671875 1176.527344 C 388.617188 1180.796875 388.09375 1185.40625 388.09375 1190.347656 M 370.5625 1083.578125 C 375.359375 1083.578125 379.515625 1085.34375 383.039063 1088.863281 C 386.558594 1092.386719 388.320313 1096.617188 388.320313 1101.5625 L 388.320313 1135.832031 C 388.320313 1138.78125 391.949219 1140.160156 393.921875 1137.972656 C 396.097656 1135.550781 400.101563 1132.675781 402.507813 1131.730469 C 407.074219 1129.933594 410.199219 1129.660156 415.292969 1129.660156 C 422.039063 1129.660156 428.292969 1131.234375 434.0625 1134.378906 C 439.828125 1137.527344 444.886719 1141.835938 449.238281 1147.304688 C 453.582031 1152.777344 456.992188 1159.21875 459.460938 1166.636719 C 461.9375 1174.054688 463.171875 1182.03125 463.171875 1190.574219 C 463.171875 1199.117188 461.9375 1207.09375 459.460938 1214.511719 C 456.992188 1221.929688 453.617188 1228.375 449.347656 1233.84375 C 445.078125 1239.316406 440.019531 1243.621094 434.175781 1246.769531 C 428.332031 1249.914063 422.113281 1251.488281 415.519531 1251.488281 C 409.824219 1251.488281 404.390625 1250.214844 399.222656 1247.667969 C 396.742188 1246.445313 394.410156 1244.023438 392.222656 1241.253906 C 389.757813 1238.132813 384.753906 1238.71875 383.234375 1242.394531 C 382.453125 1244.273438 381.492188 1245.921875 380.339844 1246.996094 C 377.117188 1249.988281 373.335938 1251.488281 368.992188 1251.488281 C 364.492188 1251.488281 360.632813 1249.875 357.414063 1246.65625 C 354.191406 1243.4375 352.582031 1239.578125 352.582031 1235.078125 L 352.582031 1101.5625 C 352.582031 1096.617188 354.339844 1092.386719 357.863281 1088.863281 C 361.382813 1085.34375 365.617188 1083.578125 370.5625 1083.578125 "/>
<path style=" stroke:none;fill-rule:nonzero;fill:rgb(30.979919%,30.979919%,30.979919%);fill-opacity:1;" d="M 290.628906 1182.179688 C 295.761719 1182.179688 299.511719 1177.058594 297.667969 1172.269531 C 297.65625 1172.238281 297.644531 1172.207031 297.632813 1172.175781 C 296.429688 1169.109375 294.894531 1166.445313 293.023438 1164.199219 C 291.144531 1161.949219 289.011719 1160.191406 286.617188 1158.914063 C 284.21875 1157.644531 281.671875 1157.003906 278.976563 1157.003906 C 276.277344 1157.003906 273.726563 1157.644531 271.332031 1158.914063 C 268.933594 1160.191406 266.796875 1161.949219 264.925781 1164.199219 C 263.050781 1166.445313 261.589844 1169.109375 260.542969 1172.175781 C 260.496094 1172.308594 260.453125 1172.4375 260.414063 1172.566406 C 258.867188 1177.320313 262.558594 1182.179688 267.554688 1182.179688 Z M 305.496094 1215.222656 C 309.242188 1215.222656 312.503906 1216.648438 315.273438 1219.492188 C 318.046875 1222.34375 319.433594 1225.714844 319.433594 1229.609375 C 319.433594 1231.710938 318.796875 1233.878906 317.523438 1236.125 C 316.246094 1238.375 313.886719 1240.546875 310.441406 1242.644531 C 306.695313 1245.042969 302.160156 1246.992188 296.84375 1248.488281 C 291.523438 1249.984375 286.015625 1250.738281 280.320313 1250.738281 C 273.128906 1250.738281 266.164063 1249.390625 259.417969 1246.691406 C 252.675781 1243.992188 246.679688 1240.058594 241.4375 1234.890625 C 236.191406 1229.722656 231.996094 1223.394531 228.847656 1215.898438 C 225.703125 1208.40625 224.128906 1199.863281 224.128906 1190.273438 C 224.128906 1181.132813 225.589844 1172.816406 228.511719 1165.320313 C 231.433594 1157.832031 235.367188 1151.425781 240.3125 1146.101563 C 245.257813 1140.785156 251.0625 1136.703125 257.730469 1133.855469 C 264.398438 1131.007813 271.480469 1129.582031 278.976563 1129.582031 C 287.214844 1129.582031 294.78125 1131.269531 301.675781 1134.640625 C 308.566406 1138.011719 314.414063 1142.359375 319.210938 1147.679688 C 324.003906 1153 327.753906 1158.914063 330.449219 1165.433594 C 333.144531 1171.953125 334.492188 1178.359375 334.492188 1184.652344 C 334.492188 1191.394531 333.144531 1196.304688 330.449219 1199.375 C 327.753906 1202.449219 324.453125 1203.984375 320.558594 1203.984375 L 267.269531 1203.984375 C 261.34375 1203.984375 259.664063 1210.578125 263.472656 1215.121094 C 266.472656 1218.703125 272.085938 1223.316406 280.773438 1223.316406 C 283.617188 1223.316406 286.464844 1222.832031 289.316406 1221.855469 C 292.15625 1220.878906 294.707031 1219.644531 296.957031 1218.144531 C 299.953125 1216.199219 302.800781 1215.222656 305.496094 1215.222656 "/>
<path style=" stroke:none;fill-rule:nonzero;fill:rgb(30.979919%,30.979919%,30.979919%);fill-opacity:1;" d="M 513.910156 1141.410156 C 514.578125 1143.617188 517.328125 1143.710938 518.550781 1141.753906 C 520.414063 1138.765625 522.894531 1136.605469 524.84375 1135.03125 C 526.789063 1133.457031 528.8125 1132.183594 530.914063 1131.210938 C 533.011719 1130.238281 535.257813 1129.75 537.65625 1129.75 C 541.703125 1129.75 545.261719 1131.175781 548.332031 1134.019531 C 551.402344 1136.867188 552.941406 1140.464844 552.941406 1144.808594 C 552.941406 1148.40625 551.777344 1151.816406 549.457031 1155.035156 C 547.132813 1158.261719 543.648438 1159.867188 539.003906 1159.867188 C 535.554688 1159.867188 532.519531 1160.878906 529.902344 1162.902344 C 527.277344 1164.925781 525.070313 1167.621094 523.269531 1170.996094 C 521.472656 1174.367188 520.125 1178.1875 519.222656 1182.460938 C 518.324219 1186.726563 517.875 1191.113281 517.875 1195.605469 L 517.875 1233.144531 C 517.875 1237.945313 516.113281 1242.101563 512.59375 1245.621094 C 509.070313 1249.140625 504.910156 1250.902344 500.117188 1250.902344 C 495.175781 1250.902344 490.9375 1249.140625 487.421875 1245.621094 C 483.894531 1242.101563 482.136719 1237.945313 482.136719 1233.144531 L 482.136719 1146.382813 C 482.136719 1141.738281 483.746094 1137.804688 486.96875 1134.582031 C 490.1875 1131.359375 494.125 1129.75 498.769531 1129.75 C 503.113281 1129.75 506.898438 1131.246094 510.121094 1134.242188 C 511.761719 1135.773438 513.027344 1138.503906 513.910156 1141.410156 "/>
<path style=" stroke:none;fill-rule:nonzero;fill:rgb(30.979919%,30.979919%,30.979919%);fill-opacity:1;" d="M 378.316406 132.5 C 383.703125 132.5 388.140625 134.339844 391.632813 138.03125 C 395.121094 141.730469 396.871094 146.070313 396.871094 151.050781 C 396.871094 154.449219 395.972656 157.640625 394.179688 160.628906 L 350.472656 235.289063 C 347.5625 240.261719 351.148438 246.519531 356.90625 246.519531 L 386.996094 246.519531 C 392.179688 246.519531 396.570313 248.308594 400.164063 251.898438 C 403.753906 255.488281 405.546875 259.878906 405.546875 265.070313 C 405.546875 270.261719 403.753906 274.601563 400.164063 278.089844 C 396.570313 281.578125 392.179688 283.320313 386.996094 283.320313 L 307.691406 283.320313 C 302.304688 283.320313 297.863281 281.429688 294.375 277.640625 C 290.882813 273.851563 289.136719 269.359375 289.136719 264.171875 C 289.136719 262.78125 289.289063 261.328125 289.589844 259.828125 C 289.886719 258.339844 290.53125 256.789063 291.535156 255.191406 L 335.488281 180.539063 C 338.414063 175.570313 334.832031 169.308594 329.0625 169.308594 L 300.808594 169.308594 C 295.621094 169.308594 291.277344 167.558594 287.792969 164.070313 C 284.296875 160.578125 282.554688 156.238281 282.554688 151.050781 C 282.554688 145.871094 284.296875 141.46875 287.792969 137.878906 C 291.277344 134.289063 295.621094 132.5 300.808594 132.5 "/>
<path style=" stroke:none;fill-rule:nonzero;fill:rgb(30.979919%,30.979919%,30.979919%);fill-opacity:1;" d="M 658.242188 1139.707031 C 663.199219 1139.707031 667.480469 1141.554688 671.078125 1145.238281 C 674.289063 1148.527344 676 1153.007813 676 1157.605469 L 676 1233.890625 C 676 1238.6875 674.277344 1242.808594 670.828125 1246.253906 C 667.382813 1249.703125 663.261719 1251.421875 658.46875 1251.421875 C 655.621094 1251.421875 649.28125 1249.855469 646.601563 1245.246094 C 644.210938 1241.136719 638.710938 1240.285156 635.34375 1243.640625 C 633.128906 1245.847656 630.722656 1247.847656 628.121094 1248.613281 C 622.277344 1250.335938 617.03125 1251.195313 612.386719 1251.195313 C 596.953125 1251.195313 585.703125 1245.730469 574.765625 1234.789063 C 563.824219 1223.851563 558.355469 1210.664063 558.355469 1195.230469 C 558.355469 1179.796875 563.824219 1166.648438 574.765625 1155.777344 C 585.703125 1144.917969 596.953125 1139.484375 612.386719 1139.484375 C 617.03125 1139.484375 622.3125 1140.347656 628.234375 1142.070313 C 630.90625 1142.847656 633.375 1144.5 635.636719 1146.3125 C 639.230469 1149.199219 644.429688 1148.378906 647.105469 1144.621094 C 650.007813 1140.554688 655.394531 1139.707031 658.242188 1139.707031 "/>
<path style=" stroke:none;fill-rule:nonzero;fill:rgb(100%,100%,100%);fill-opacity:1;" d="M 592.019531 1195.339844 C 592.019531 1199.835938 592.539063 1203.960938 593.59375 1207.703125 C 594.640625 1211.453125 596.066406 1214.75 597.863281 1217.59375 C 599.660156 1220.441406 601.796875 1222.652344 604.269531 1224.226563 C 606.742188 1225.796875 609.398438 1226.585938 612.246094 1226.585938 C 615.09375 1226.585938 617.753906 1225.796875 620.230469 1224.226563 C 622.699219 1222.652344 624.835938 1220.441406 626.632813 1217.59375 C 628.433594 1214.75 629.855469 1211.453125 630.90625 1207.703125 C 631.953125 1203.960938 632.480469 1199.835938 632.480469 1195.339844 C 632.480469 1190.84375 631.953125 1186.726563 630.90625 1182.980469 C 629.855469 1179.234375 628.433594 1175.976563 626.632813 1173.199219 C 624.835938 1170.429688 622.699219 1168.257813 620.230469 1166.683594 C 617.753906 1165.109375 615.09375 1164.320313 612.246094 1164.320313 C 609.398438 1164.320313 606.742188 1165.109375 604.269531 1166.683594 C 601.796875 1168.257813 599.660156 1170.429688 597.863281 1173.199219 C 596.066406 1175.976563 594.640625 1179.234375 593.59375 1182.980469 C 592.539063 1186.726563 592.019531 1190.84375 592.019531 1195.339844 "/>
</g>
</svg>
